<svg viewBox="0 0 22 44" fill="none" xmlns="http://www.w3.org/2000/svg">
<path d="M20 11C20 15.9706 15.9706 20 11 20C6.02944 20 2 15.9706 2 11C2 6.02944 6.02944 2 11 2C15.9706 2 20 6.02944 20 11Z" stroke="#FFFFFF" stroke-width="2"/>
<path d="M20 33C20 37.9706 15.9706 42 11 42C6.02944 42 2 37.9706 2 33C2 28.0294 6.02944 24 11 24C15.9706 24 20 28.0294 20 33Z" stroke="#FFFFFF" stroke-width="2"/>
<path fill-rule="evenodd" clip-rule="evenodd" d="M11 38C13.7614 38 16 35.7614 16 33C16 30.2386 13.7614 28 11 28C8.23858 28 6 30.2386 6 33C6 35.7614 8.23858 38 11 38Z" fill="#FFFFFF"/>
</svg>
