<svg xmlns="http://www.w3.org/2000/svg" width="2000" height="401" viewBox="0 0 2000 401">
    <g fill="none" fill-rule="evenodd">
        <path fill="#F0F0F0" fill-rule="nonzero" d="M153 225H2153V626H153z" transform="translate(-153 -225)"/>
        <path fill="#172b57" d="M2326.34 285.67c416.952 60.986-39.934-242.014-101.493-253.944-492.718-95.48-862.069 54.988-969.646 54.988-121.018 0-539.418 25.994-1255.201 77.983C13.198 269.758 30.863 319.08 52.996 312.664c66.936-19.407 172.257-35.766 315.979 39.99 143.721 75.757 47.996 197.168 145.99 258.798 97.993 61.63 122.375-118.403 418.759-222.141 296.383-103.739 643.333-1.69 809.498-45.893 166.166-44.202 166.166-118.735 583.118-57.748z" transform="translate(-153 -225)"/>
    </g>
</svg>
