<svg xmlns="http://www.w3.org/2000/svg" width="2000" height="401" viewBox="0 0 2000 401">
    <g fill="none" fill-rule="evenodd">
        <path fill="#FFF" fill-rule="nonzero" d="M347 225H2347V626H347z" transform="rotate(180 1173.5 313)"/>
        <path fill="#F0F0F0" d="M173.66 285.67c-416.952 60.986 39.934-242.014 101.493-253.944 492.718-95.48 862.069 54.988 969.646 54.988 121.018 0 539.418 25.994 1255.201 77.983-13.198 105.061-30.863 154.384-52.996 147.967-66.936-19.407-172.257-35.766-315.979 39.99-143.721 75.757-47.996 197.168-145.99 258.798-97.993 61.63-122.375-118.403-418.759-222.141-296.383-103.739-643.333-1.69-809.498-45.893-166.166-44.202-166.166-118.735-583.118-57.748z" transform="rotate(180 1173.5 313)"/>
    </g>
</svg>
