<svg viewBox="0 0 77 71" fill="none" xmlns="http://www.w3.org/2000/svg">
<g clip-path="url(#clip0)">
<path d="M39.3875 71.0002H37.5415C37.5415 70.1063 36.8167 69.3788 35.9263 69.3788V67.5259C37.8351 67.5259 39.3875 69.0846 39.3875 71.0002Z" fill="white"/>
<path d="M39.3875 71.0002H37.5415C37.5415 69.0841 39.0939 67.5259 41.0027 67.5259V69.3788C40.1123 69.3788 39.3875 70.1063 39.3875 71.0002Z" fill="white"/>
<path d="M26.9192 69.3786C25.9856 69.3786 25.1303 69.0305 24.4996 68.3975C23.8465 67.7414 23.5015 66.9058 23.5015 65.9811V34.6353H53.4989V65.9811C53.4989 67.8544 51.9302 69.3782 50.0021 69.3782H41.0384V67.5252H50.0025C50.9127 67.5252 51.6533 66.8326 51.6533 65.9811V36.4882H25.3475V65.9811C25.3475 66.4099 25.5013 66.7818 25.805 67.0871C26.0041 67.287 26.3579 67.5257 26.9091 67.5257C26.9104 67.5257 26.9117 67.5257 26.913 67.5257H35.9619V69.3786H26.9271C26.9245 69.3786 26.9218 69.3786 26.9192 69.3786Z" fill="white"/>
<path d="M27.754 35.1509L15.3225 9.97852L13.5024 10.4651L26.0996 35.9742L27.754 35.1509Z" fill="white"/>
<path d="M24.8893 44.6372L0.461059 19.9766L0 22.1392L23.5804 45.944L24.8893 44.6372Z" fill="white"/>
<path d="M11.9633 33.9409V50.6643L3.42559 42.1262V23.5181H1.57959V42.8956L9.81888 51.0808H9.7868L12.7074 54.0129C13.1083 54.4135 13.8093 54.1576 13.8093 53.5898V52.7021V51.0808V33.9409H11.9633Z" fill="white"/>
<path d="M14.6161 11.9592L7.50293 28.6748L9.20051 29.4026L16.3136 12.687L14.6161 11.9592Z" fill="white"/>
<path d="M22.009 27.0327L16.5293 37.8037L18.1733 38.6464L23.6531 27.8755L22.009 27.0327Z" fill="white"/>
<path d="M16.678 44.4693C17.3283 44.4693 17.8555 43.9401 17.8555 43.2874C17.8555 42.6346 17.3283 42.1055 16.678 42.1055C16.0277 42.1055 15.5005 42.6346 15.5005 43.2874C15.5005 43.9401 16.0277 44.4693 16.678 44.4693Z" fill="white"/>
<path d="M16.7964 44.8976L15.502 46.2188L20.5408 51.1929L21.8352 49.8717L16.7964 44.8976Z" fill="white"/>
<path d="M16.7954 43.2876H15.501V46.2175H16.7954V43.2876Z" fill="white"/>
<path d="M20.6565 53.982C21.3068 53.982 21.834 53.4528 21.834 52.8001C21.834 52.1473 21.3068 51.6182 20.6565 51.6182C20.0062 51.6182 19.479 52.1473 19.479 52.8001C19.479 53.4528 20.0062 53.982 20.6565 53.982Z" fill="white"/>
<path d="M20.5401 52.8003L21.8345 52.8003L21.8345 49.8704L20.5401 49.8704L20.5401 52.8003Z" fill="white"/>
<path d="M16.678 52.2335C17.3283 52.2335 17.8555 51.7043 17.8555 51.0516C17.8555 50.3988 17.3283 49.8696 16.678 49.8696C16.0277 49.8696 15.5005 50.3988 15.5005 51.0516C15.5005 51.7043 16.0277 52.2335 16.678 52.2335Z" fill="white"/>
<path d="M16.7964 52.6622L15.502 53.9834L20.5408 58.9575L21.8352 57.6364L16.7964 52.6622Z" fill="white"/>
<path d="M16.7954 51.0518H15.501V53.9816H16.7954V51.0518Z" fill="white"/>
<path d="M20.6565 61.7466C21.3068 61.7466 21.834 61.2175 21.834 60.5647C21.834 59.912 21.3068 59.3828 20.6565 59.3828C20.0062 59.3828 19.479 59.912 19.479 60.5647C19.479 61.2175 20.0062 61.7466 20.6565 61.7466Z" fill="white"/>
<path d="M20.5401 60.5649L21.8345 60.5649L21.8345 57.6351L20.5401 57.6351L20.5401 60.5649Z" fill="white"/>
<path d="M16.678 59.9986C17.3283 59.9986 17.8555 59.4694 17.8555 58.8167C17.8555 58.1639 17.3283 57.6348 16.678 57.6348C16.0277 57.6348 15.5005 58.1639 15.5005 58.8167C15.5005 59.4694 16.0277 59.9986 16.678 59.9986Z" fill="white"/>
<path d="M16.7964 60.4274L15.502 61.7485L20.5408 66.7227L21.8352 65.4015L16.7964 60.4274Z" fill="white"/>
<path d="M16.7954 58.8164H15.501V61.7463H16.7954V58.8164Z" fill="white"/>
<path d="M20.6565 69.5113C21.3068 69.5113 21.834 68.9821 21.834 68.3294C21.834 67.6766 21.3068 67.1475 20.6565 67.1475C20.0062 67.1475 19.479 67.6766 19.479 68.3294C19.479 68.9821 20.0062 69.5113 20.6565 69.5113Z" fill="white"/>
<path d="M49.2461 35.1509L61.6771 9.97852L63.4972 10.4651L50.9 35.9742L49.2461 35.1509Z" fill="white"/>
<path d="M52.1104 44.6372L76.5386 19.9766L77.0001 22.1392L53.4197 45.944L52.1104 44.6372Z" fill="white"/>
<path d="M65.0364 33.9409V50.6643L73.5742 42.1262V23.5181H75.4202V42.8956L67.1809 51.0808H67.2129L64.2923 54.0129C63.8915 54.4135 63.1904 54.1576 63.1904 53.5898V52.7021V51.0808V33.9409H65.0364Z" fill="white"/>
<path d="M62.3831 11.959L60.6855 12.687L67.8005 29.4026L69.4981 28.6746L62.3831 11.959Z" fill="white"/>
<path d="M54.9941 27.0326L53.3501 27.8755L58.831 38.6465L60.4751 37.8036L54.9941 27.0326Z" fill="white"/>
<path d="M60.3215 44.4693C60.9718 44.4693 61.499 43.9401 61.499 43.2874C61.499 42.6346 60.9718 42.1055 60.3215 42.1055C59.6712 42.1055 59.144 42.6346 59.144 43.2874C59.144 43.9401 59.6712 44.4693 60.3215 44.4693Z" fill="white"/>
<path d="M60.2063 44.8945L55.1675 49.8687L56.4619 51.1898L61.5007 46.2157L60.2063 44.8945Z" fill="white"/>
<path d="M60.2046 46.2173L61.499 46.2173L61.499 43.2874L60.2046 43.2874L60.2046 46.2173Z" fill="white"/>
<path d="M56.343 53.982C56.9933 53.982 57.5205 53.4528 57.5205 52.8001C57.5205 52.1473 56.9933 51.6182 56.343 51.6182C55.6927 51.6182 55.1655 52.1473 55.1655 52.8001C55.1655 53.4528 55.6927 53.982 56.343 53.982Z" fill="white"/>
<path d="M60.3215 52.2335C60.9718 52.2335 61.499 51.7043 61.499 51.0516C61.499 50.3988 60.9718 49.8696 60.3215 49.8696C59.6712 49.8696 59.144 50.3988 59.144 51.0516C59.144 51.7043 59.6712 52.2335 60.3215 52.2335Z" fill="white"/>
<path d="M60.2068 52.6592L55.168 57.6333L56.4624 58.9545L61.5012 53.9803L60.2068 52.6592Z" fill="white"/>
<path d="M60.2046 53.9819L61.499 53.9819L61.499 51.0521L60.2046 51.0521L60.2046 53.9819Z" fill="white"/>
<path d="M56.343 61.7466C56.9933 61.7466 57.5205 61.2175 57.5205 60.5647C57.5205 59.912 56.9933 59.3828 56.343 59.3828C55.6927 59.3828 55.1655 59.912 55.1655 60.5647C55.1655 61.2175 55.6927 61.7466 56.343 61.7466Z" fill="white"/>
<path d="M60.3215 59.9986C60.9718 59.9986 61.499 59.4694 61.499 58.8167C61.499 58.1639 60.9718 57.6348 60.3215 57.6348C59.6712 57.6348 59.144 58.1639 59.144 58.8167C59.144 59.4694 59.6712 59.9986 60.3215 59.9986Z" fill="white"/>
<path d="M60.2068 60.4233L55.168 65.3975L56.4624 66.7186L61.5012 61.7445L60.2068 60.4233Z" fill="white"/>
<path d="M60.2046 61.7466L61.499 61.7466L61.499 58.8167L60.2046 58.8167L60.2046 61.7466Z" fill="white"/>
<path d="M56.343 69.5113C56.9933 69.5113 57.5205 68.9821 57.5205 68.3294C57.5205 67.6766 56.9933 67.1475 56.343 67.1475C55.6927 67.1475 55.1655 67.6766 55.1655 68.3294C55.1655 68.9821 55.6927 69.5113 56.343 69.5113Z" fill="white"/>
<path d="M20.5401 68.3291L21.8345 68.3291L21.8345 65.3992L20.5401 65.3992L20.5401 68.3291Z" fill="white"/>
<path d="M55.168 52.8003L56.4624 52.8003L56.4624 49.8704L55.168 49.8704L55.168 52.8003Z" fill="white"/>
<path d="M55.168 60.5649L56.4624 60.5649L56.4624 57.6351L55.168 57.6351L55.168 60.5649Z" fill="white"/>
<path d="M55.168 68.3291L56.4624 68.3291L56.4624 65.3992L55.168 65.3992L55.168 68.3291Z" fill="white"/>
<path d="M38.4642 61.5366C36.5118 62.2646 33.9881 63.8555 33.8496 68.4243L35.6947 68.4808C35.7672 66.0927 36.6208 64.3977 38.2321 63.4412C38.3094 63.3953 38.3868 63.3521 38.4642 63.3115C38.4642 63.3521 38.6189 63.3953 38.6962 63.4412C40.3075 64.3977 41.1615 66.0927 41.234 68.4808L43.0791 68.4243C42.9407 63.855 40.3102 62.2646 38.4642 61.5366Z" fill="white"/>
<path d="M41.7141 45.6187L42.7333 43.8813L41.7141 42.1444L39.469 43.4039L38.9332 42.8657L40.1951 40.6002L38.4643 39.5771L36.7339 40.6002L37.9953 42.8657L37.4525 43.411L35.1955 42.1444L34.1763 43.8813L35.1955 45.6187L37.4279 44.3657L37.972 44.9123L36.7242 47.1531L38.4546 47.2012L40.1854 47.1531L38.9442 44.9247L39.4941 44.3728L41.7141 45.6187Z" fill="white"/>
<path d="M52.5401 46.7378H24.3887V47.6643H52.5401V46.7378Z" fill="white"/>
<path d="M31.1161 59.8826H26.9626V57.7981H24.4243V56.8716H27.8856V58.9562H30.1931V57.3348H31.1161V59.8826Z" fill="white"/>
<path d="M37.5769 59.8826H33.1926V57.7981H31.1159V59.4194H30.1929V56.8716H34.1156V58.9562H36.6539V57.3348H37.5769V59.8826Z" fill="white"/>
<path d="M43.807 59.8826H39.4228V57.7981H37.5768V59.4194H36.6538V56.8716H40.3458V58.9562H42.8841V57.3348H43.807V59.8826Z" fill="white"/>
<path d="M50.0375 59.8826H45.884V57.7981H43.8073V59.4194H42.8843V56.8716H46.807V58.9562H49.1145V57.3348H50.0375V59.8826Z" fill="white"/>
<path d="M50.0373 59.4194H49.1143V56.8716H52.5755V57.7981H50.0373V59.4194Z" fill="white"/>
<path d="M29.1449 59.545L28.2316 59.4139L28.8786 54.6721L28.0615 53.6305V50.5859H30.0838L30.4771 51.9095H30.5505L31.0028 50.5859H32.4568V51.4683H31.703L31.2507 52.7918H29.7519L29.3586 51.4683H28.501V53.3182L29.6047 54.4193L29.1449 59.545Z" fill="white"/>
<path d="M34.9724 59.5362L34.4731 54.4004L35.5332 53.304V51.4683H34.8014L34.408 52.7918H32.9093L32.457 51.4683H32.4565V50.5859H33.1576L33.6094 51.9095H33.6828L34.0762 50.5859H35.9727V53.6446L35.197 54.6907L35.8338 59.4228L34.9724 59.5362Z" fill="white"/>
<path d="M41.8365 59.5448L40.9232 59.4138L41.597 54.672L40.8076 53.6304V50.1543H42.7754L43.1687 51.7756H43.2426L43.6944 50.1543H44.7304V51.0808H44.3946L43.9423 52.7021H42.4435L42.0501 51.0808H41.7306V53.318L42.5653 54.4192L41.8365 59.5448Z" fill="white"/>
<path d="M47.6643 59.536L47.0327 54.4002L47.961 53.3039V51.0808H47.4933L47.0999 52.7021H45.6012L45.1489 51.0808H44.7305V50.1543H45.8495L46.3013 51.7756H46.3752L46.7681 50.1543H48.884V53.6445L47.9988 54.6905L48.5802 59.4226L47.6643 59.536Z" fill="white"/>
<path d="M47.7688 4.10059H29.2314V5.95354H47.7688V4.10059Z" fill="white"/>
<path d="M46.5188 18.9631H30.4814V4.10059H46.5188V18.9631ZM32.3274 17.1101H44.6728V5.95354H32.3274V17.1101Z" fill="white"/>
<path d="M40.2303 1.04708L38.4999 -0.00292969L36.769 1.06076L38.0309 3.36725H38.9689L40.2303 1.04708Z" fill="white"/>
<path d="M38.9688 3.36719H38.0312V4.30822H38.9688V3.36719Z" fill="white"/>
<path d="M39.4896 30.7328H30.0324L29.0742 22.2061L30.9088 21.8302L31.6815 28.5269H37.7315V21.0269H39.4896V30.7328Z" fill="white"/>
<path d="M38.6107 23.2329H36.4131V24.5565H38.6107V23.2329Z" fill="white"/>
<path d="M32.1444 22.779L30.0972 23.1265L30.4049 24.9535L32.4521 24.6061L32.1444 22.779Z" fill="white"/>
<path d="M35.534 27.2036H33.7759V29.8507H35.534V27.2036Z" fill="white"/>
<path d="M46.9535 30.7328H37.7314V21.0269H39.4895V28.5269H45.3057L46.085 21.8205L47.9191 22.1276L46.9535 30.7328Z" fill="white"/>
<path d="M40.3684 23.2329H38.6104V24.5565H40.3684V23.2329Z" fill="white"/>
<path d="M44.8414 22.7789L44.5337 24.606L46.5809 24.9534L46.8886 23.1264L44.8414 22.7789Z" fill="white"/>
<path d="M43.0056 27.2036H41.687V29.8507H43.0056V27.2036Z" fill="white"/>
<path d="M46.868 31.7988H30.1318V33.6518H46.868V31.7988Z" fill="white"/>
</g>
<defs>
<clipPath id="clip0">
<rect width="77" height="71" fill="white"/>
</clipPath>
</defs>
</svg>
