<svg xmlns="http://www.w3.org/2000/svg" viewBox="0 0 2980.82 864.87"><defs><style>.cls-1{fill:#ffffff;}</style></defs><title>КК_гориз.лого.рус</title><g id="Слой_7" data-name="Слой 7"><path class="cls-1" d="M735.43,665.21a11.72,11.72,0,1,0,0,23.43l-48.12,47.93v24.86a11.77,11.77,0,1,0,11.77-11.72l48.12-47.92V676.93A11.74,11.74,0,0,0,735.43,665.21Z"/><path class="cls-1" d="M735.43,592.42a11.72,11.72,0,1,0,0,23.44l-48.12,47.92v24.86a11.77,11.77,0,1,0,11.77-11.71L747.2,629V604.14A11.75,11.75,0,0,0,735.43,592.42Z"/><path class="cls-1" d="M735.43,519.69a11.72,11.72,0,1,0,0,23.44l-48.12,47.93v24.85a11.77,11.77,0,1,0,11.77-11.71l48.12-47.93V531.41A11.75,11.75,0,0,0,735.43,519.69Z"/><path class="cls-1" d="M340.75,676.93a11.77,11.77,0,0,0-23.53,0v24.86l48.11,47.92a11.72,11.72,0,1,0,11.77,11.72V736.57L329,688.64A11.74,11.74,0,0,0,340.75,676.93Z"/><path class="cls-1" d="M340.75,604.14a11.77,11.77,0,0,0-23.53,0V629l48.11,47.93a11.72,11.72,0,1,0,11.77,11.71V663.78L329,615.86A11.75,11.75,0,0,0,340.75,604.14Z"/><path class="cls-1" d="M340.75,531.41a11.77,11.77,0,0,0-23.53,0v24.86l48.11,47.93a11.72,11.72,0,1,0,11.77,11.71V591.06L329,543.13A11.75,11.75,0,0,0,340.75,531.41Z"/><path class="cls-1" d="M892,308.41l-74.23,73.93L760.2,245.47a9,9,0,0,1-.48-1.61,9.63,9.63,0,0,1,.75-6.5L770,218.24l-17.87-3.7L733.44,252,634.91,448.85H430L331.48,252l-18.73-37.43-17.87,3.7,9.57,19.12a9.75,9.75,0,0,1,.75,6.5,9.94,9.94,0,0,1-.48,1.61L247.19,382.34,173,308.41,168.66,329l15.67,15.6a9.76,9.76,0,0,1,2.86,6.9V528.81L292.11,633.3a5.69,5.69,0,0,0,9.72-4V461.62L390,549.39v29h0l.13,163.25a31.59,31.59,0,0,0,31.62,31.5h85.73a16,16,0,0,1,16,16.22v3.87h17.65v-3.87a16.5,16.5,0,0,1,16.56-16.22h85.73A31.6,31.6,0,0,0,675,741.64l-.14-172v-8.84h0V549.46l88.19-87.84V629.29a5.7,5.7,0,0,0,9.73,4L877.72,528.81V351.49a9.72,9.72,0,0,1,2.87-6.9L896.25,329ZM550.35,560.83,537.12,528.2,571.19,541V506.08l-34.07,12.83,13.31-32.83H514.16l13.31,32.83L493.4,506.08V541l34.07-12.82-13.23,32.63H407.62l-.08-94.4H657.17l.08,94.4ZM284.18,600.55l-79.33-79V365l79.33,79Zm5.4-176-28.9-28.78,56.17-133.64,61,122-.67-.34L333.8,468.6Zm57.34,57.11,40.34-78.83,23,46H389.88v17.58h0l.05,58.08Zm65.91,96.73H652.07a5.19,5.19,0,0,1,5.19,5.2l.06,71.52h-25v20.72h-3l-4.89-40.44,7.45-10.85v-32.3H609.11L607,607.61h-.77L602,592.25H584.22L580,607.61h-.77l-2.11-15.36H554.39v32.3l7.44,10.85L557,675.84h-4.41V655.12h-40.7v20.72h-4.53l-4.88-40.44,7.44-10.85v-32.3H487.16l-2.11,15.36h-.77L480,592.25H462.27L458,607.61h-.76l-2.12-15.36H432.44v32.3l7.45,10.85L435,675.84h-2.9V655.12H407.69l-.06-71.52A5.2,5.2,0,0,1,412.83,578.4ZM619.1,675.84h-7.05V655.12H573.32v20.72h-6.21l5.19-43-7.82-11.41V602.3h3.82l2.12,15.36h17.25l4.23-15.36h2.4l4.24,15.36h17.25l2.12-15.36h3.82v19.14l-7.82,11.41Zm-122,0h-6.09V655.12H452.33v20.72h-7.17l5.19-43-7.82-11.41V602.3h3.82l2.12,15.36h17.25L470,602.3h2.4l4.23,15.36h17.25L496,602.3h3.82v19.14L492,632.85Zm35.15,90.81a33.35,33.35,0,0,0-24.76-11.08c3.76-27.44,19.53-37.47,24.77-39.43,5.31,2,21,12,24.79,39.46A34.52,34.52,0,0,0,532.3,766.65Zm111.11-11.08H572.33c-5.12-44.05-36.87-51.82-38.33-52.15a7.68,7.68,0,0,0-3.34,0c-1.47.33-33.25,8-38.36,52.16H421.73a14,14,0,0,1-14-13.93l-.06-71.28a5.21,5.21,0,0,1,5.22-5.2H422v20.72h40.4V665.16H481v20.72h41V665.16h20.52v20.72h41V665.16H602v20.72h40.4V665.16h9.75a5.2,5.2,0,0,1,5.21,5.19l.06,71.3A14,14,0,0,1,643.41,755.57Zm31.46-231,0-58.19h.11V448.85h-20.3l23-46L718,481.67Zm56.25-56L687.7,383.75l-.66.34,61-121.95,56.16,133.64-28.9,28.78Zm129,52.93-79.34,79V444l79.34-79Z"/><path class="cls-1" d="M457.34,188.83V305.46H607.47V188.83a4.65,4.65,0,0,1,4.64-4.66h9.23v-17.6H540.17V151.51l12.38-12.38-20.22-20.21-20.22,20.21,12.21,12.39v15h-81v17.6h9.38A4.65,4.65,0,0,1,457.34,188.83Zm17.52-4.66H590V287.86H474.86Z"/><path class="cls-1" d="M458.71,435.71h147V420.65l31-61-51.32-29.23-40.53,23.72v9.06h-4.72V347.61H550V331.76h-9.8V320.33H524.32v11.43h-9.8v15.85h9.8v15.61h-4.75v-9.06L479,330.44l-51.31,29.23,31,61Zm128.54-15.06h-110l-6.84-13.6H594.09ZM449.31,365.22l29.63-17.4,26.64,15.4V377h53.3V363.22l26.64-15.4,29.63,17.4L601.8,391.74H462.66Z"/><path class="cls-1" d="M1490.31,625.19c-10.74,0-13.35-10.12-13.79-16l-24.76,5.15c3.09,20.93,19.87,30.42,38.55,30.42s35.56-9.56,38.59-30.65l-24.79-5.15C1503.69,614.8,1501,625.19,1490.31,625.19Z"/><polygon class="cls-1" points="1469.52 725.78 1469.52 656.88 1435.63 656.88 1435.63 774.22 1468.38 774.22 1511.36 706 1511.36 774.22 1545.02 774.22 1545.02 656.88 1512.5 656.88 1469.52 725.78"/><path class="cls-1" d="M1243.15,654.37c-20.7,0-32.07,12.74-35,18.2-2.05-12.51-9.56-18.2-24.11-18.2a54.65,54.65,0,0,0-17.28,2.51v21.43h2c7,0,10.47,1.76,10.47,9V825.22h33.88V767.39c6.14,5,15,9.33,28,9.33,34.57,0,50-28.65,50-63C1291.13,681.43,1278.62,654.37,1243.15,654.37Zm-10.69,95.51c-10.69,0-16.6-5-19.33-6.59v-50a23.07,23.07,0,0,1,19.78-10.46c16.38,0,23.2,12.51,23.2,32.29C1256.11,737.15,1247.24,749.88,1232.46,749.88Z"/><path class="cls-1" d="M1125.55,703.35c7.59-10.15,12.33-19.44,29-23.57l-5.65-27c-25.5,5-38.21,23.84-46.77,35.29a75.13,75.13,0,0,1-6.74,8.29,40.77,40.77,0,0,1-6.61,5.14V656.88h-33.89V774.22h33.89V730a52.21,52.21,0,0,0,7.92-2.45L1127,774.22h37.75l-43.72-65C1122.55,707.35,1124,705.38,1125.55,703.35Z"/><path class="cls-1" d="M1406.43,743.74V698.26c0-30.24-15.69-43.89-53.44-43.89a127.27,127.27,0,0,0-39.1,6.14l4.88,23.43a127.25,127.25,0,0,1,30.13-4.1c18.19,0,23.88,6.83,23.88,20.47V703l-20.7.45c-29.56.69-47.75,14.1-47.75,37.75,0,21.83,14.55,35.48,38,35.48,20,0,31.16-12.28,35.71-18.19,2.73,13,9.78,18.19,24.33,18.19a53.59,53.59,0,0,0,16.83-2.5V752.84h-2.28C1410.07,752.84,1406.43,751,1406.43,743.74Zm-33.65-2s-6.82,9.78-21.15,9.78c-8.42,0-14.1-4.55-14.1-12.74,0-9.55,6.37-14.78,23-15.46l12.28-.23Z"/><path class="cls-1" d="M2635,430.57c18.55,0,35.55-9.57,38.59-30.65l-24.79-5.16c-.42,5.86-3.11,16.25-13.8,16.25s-13.35-10.11-13.79-16l-24.77,5.15C2599.51,421.07,2616.3,430.57,2635,430.57Z"/><polygon class="cls-1" points="2657.17 442.7 2614.19 511.6 2614.19 442.7 2580.3 442.7 2580.3 560.04 2613.05 560.04 2656.03 491.82 2656.03 560.04 2689.69 560.04 2689.69 442.7 2657.17 442.7"/><path class="cls-1" d="M1261.89,440.23c-20.7,0-32.07,12.73-35,18.19-2-12.51-9.55-18.19-24.11-18.19a54.85,54.85,0,0,0-17.28,2.5v21.6h2c7,0,10.47,1.59,10.47,8.87V611h33.88V553.25c6.14,5,15,9.32,28,9.32,34.57,0,50-28.65,50-63C1309.87,467.29,1297.36,440.23,1261.89,440.23Zm-10.69,95.51c-10.69,0-16.6-5-19.33-6.6v-50a23.07,23.07,0,0,1,19.78-10.46c16.38,0,23.2,12.51,23.2,32.29C1274.85,523,1266,535.74,1251.2,535.74Z"/><polygon class="cls-1" points="1628.36 486.39 1589.02 486.39 1589.02 442.73 1555.13 442.73 1555.13 560.07 1589.03 560.07 1589.02 513.68 1628.36 513.68 1628.69 560.07 1662.24 560.07 1662.24 442.73 1628.36 442.73 1628.36 486.39"/><path class="cls-1" d="M1737.39,440.23c-35.24,0-58.44,22.74-58.44,60.94s22.74,61.4,58.44,61.4c35.25,0,58.22-23,58.22-61.4C1795.61,463,1772.87,440.23,1737.39,440.23Zm0,97.78c-15.91,0-23.64-12.73-23.64-37.07,0-24.1,7.73-36.15,23.64-36.15,15.7,0,23.43,12,23.43,36.15C1760.82,525.28,1752.86,538,1737.39,538Z"/><path class="cls-1" d="M1922.45,442.73h-92.56s-2.5,47.75-4.54,61.85c-2.5,18.2-6.37,24.79-9.78,28.2h-11.14v57.31h29.79v-30h74.36v30h29.56V532.78h-15.69Zm-33.88,90h-41.39c3-3.87,5.91-12,7.5-26.61,1.37-7.73,3-26.37,3.64-36.15h30.25Z"/><path class="cls-1" d="M2151.07,440.23c-20.69,0-32.06,12.73-35,18.19-2-12.51-9.55-18.19-24.11-18.19a54.93,54.93,0,0,0-17.28,2.5v21.6h2.05c7.05,0,10.46,1.59,10.46,8.87V611h33.88V553.25c6.14,5,15,9.32,28,9.32,34.57,0,50-28.65,50-63C2199.05,467.29,2186.55,440.23,2151.07,440.23Zm-10.69,95.51c-10.68,0-16.6-5-19.33-6.6v-50a23.1,23.1,0,0,1,19.79-10.46c16.37,0,23.19,12.51,23.19,32.29C2164,523,2155.17,535.74,2140.38,535.74Z"/><polygon class="cls-1" points="2484.76 511.63 2484.76 442.73 2450.87 442.73 2450.87 560.07 2483.62 560.07 2526.6 491.85 2526.6 560.07 2560.26 560.07 2560.26 442.73 2527.74 442.73 2484.76 511.63"/><path class="cls-1" d="M2399.59,489.18c7.59-10.16,12.33-19.45,29-23.57l-5.65-27c-25.49,5-38.2,23.84-46.77,35.29a76.13,76.13,0,0,1-6.73,8.28,40.69,40.69,0,0,1-6.62,5.14V442.7H2329V560h33.88V515.81a53.6,53.6,0,0,0,7.93-2.46L2401,560h37.75l-43.71-65C2396.59,493.18,2398.07,491.21,2399.59,489.18Z"/><path class="cls-1" d="M1437.91,538.69h-2.28c-6.82,0-10.46-1.82-10.46-9.09V484.12c0-30.25-15.69-43.89-53.44-43.89a127.82,127.82,0,0,0-39.1,6.13l4.88,23.43a127.86,127.86,0,0,1,30.13-4.09c18.19,0,23.88,6.82,23.88,20.46v2.73l-20.7.46c-29.56.68-47.75,14.1-47.75,37.75,0,21.83,14.55,35.47,38,35.47,20,0,31.16-12.28,35.71-18.19,2.73,13,9.78,18.19,24.33,18.19a53.59,53.59,0,0,0,16.83-2.5Zm-46.39-11.14s-6.82,9.78-21.15,9.78c-8.41,0-14.1-4.55-14.1-12.74,0-9.55,6.37-14.78,23-15.46l12.28-.23Z"/><path class="cls-1" d="M2053.51,529.6V484.12c0-30.25-15.69-43.89-53.44-43.89a127.82,127.82,0,0,0-39.1,6.13l4.87,23.43A128,128,0,0,1,1996,465.7c18.19,0,23.87,6.82,23.87,20.46v2.73l-20.69.46c-29.56.68-47.76,14.1-47.76,37.75,0,21.83,14.56,35.47,38,35.47,20,0,31.16-12.28,35.7-18.19,2.73,13,9.78,18.19,24.34,18.19a53.49,53.49,0,0,0,16.82-2.5V538.69H2064C2057.15,538.69,2053.51,536.87,2053.51,529.6Zm-33.66-2.05s-6.82,9.78-21.15,9.78c-8.41,0-14.09-4.55-14.09-12.74,0-9.55,6.36-14.78,23-15.46l12.28-.23Z"/><path class="cls-1" d="M1508.18,562.57c18.65,0,29.42-5.27,29.42-5.27l-.08-.37-4.6-22.09a66,66,0,0,1-18.6,2.72c-20.46,0-30.7-13.42-30.7-36.84,0-22.74,10.92-35.48,30.7-35.48a60.15,60.15,0,0,1,18.18,2.95l4.78-23c-.14-.06-9.9-5-28-5-37.52,0-60.49,24.1-60.49,61.4C1448.83,541,1472.71,562.57,1508.18,562.57Z"/><path class="cls-1" d="M2282.81,537.56c-20.47,0-30.7-13.42-30.7-36.84,0-22.74,10.92-35.48,30.7-35.48a60.15,60.15,0,0,1,18.18,2.95l4.78-23c-.14-.06-9.9-5-28-5-37.53,0-60.49,24.1-60.49,61.4,0,39.34,23.87,60.94,59.35,60.94,18.65,0,29.34-5.23,29.34-5.23v-.41l-4.6-22.09A66,66,0,0,1,2282.81,537.56Z"/><path class="cls-1" d="M1056.08,560.32h34.34V493.57c2-.46,4.45-1.12,7.15-2l44.92,68.76h38.43l-55.26-84.82h0a75.71,75.71,0,0,0,5.56-5.39c4.67-5.07,8.2-11.22,11.62-17.17,6.83-11.86,13.3-23.11,28.62-28.33l-6.2-29.84c-28.7,8.27-40.75,29.12-48.75,43-2.71,4.71-5.27,9.16-7.64,11.74a39.28,39.28,0,0,1-18.43,11.11V422.06h0c0-17.16-7.42-25.07-25.53-25.07a77.15,77.15,0,0,0-21.69,2.86v22.41h2.38c6.92.23,10.49,2.14,10.49,9.53h0Z"/></g></svg>