<svg id="Слой_1" data-name="Слой 1" xmlns="http://www.w3.org/2000/svg" viewBox="0 0 192 192"><defs><style>.cls-1{fill:#fff;}</style></defs><title>safari-pinned-tab</title><rect width="192" height="192" rx="29.1" ry="29.1"/><path class="cls-1" d="M53.8,78.5v43.4H44.7V78.5H28.3V70.4H70.9v8.1Z"/><path class="cls-1" d="M123.4,121.9h-8.9l-5.3-27.8L98.8,122.6H95.6L85.2,94.1l-5.6,27.8H70.8L81.2,70.4H86l11.1,34.7,10.9-34.7h4.8Z"/><path class="cls-1" d="M127.7,121.9v-2.7l16.3-24q4.9-7.2,4.9-12.1t-7-5.8q-5.3,0-8.6,5.7L127.1,78a15.1,15.1,0,0,1,5.7-6.1,16.1,16.1,0,0,1,8.7-2.4q7.9,0,12.4,3.6a12.1,12.1,0,0,1,4.5,10q0,5.9-5.7,14.6l-10.5,16.1h19.3v8.1Z"/></svg>