<svg xmlns="http://www.w3.org/2000/svg" viewBox="0 0 96 43">
    <g fill="none">
        <path fill="#FFF" d="M15.4 23.383v3.028H9.469v16.225H5.932V26.41H0v-3.028h15.4zm9.804 7.751c-.38-.118-.765-.216-1.155-.291-.565-.109-1.138-.16-1.713-.153-.397.003-.793.04-1.183.111-.297.047-.59.112-.878.195v11.64h-3.37V28.8c.795-.282 1.609-.509 2.435-.68 1.067-.223 2.155-.33 3.244-.32.223 0 .483.014.78.042.297.028.594.065.891.111.298.046.585.102.864.167.278.065.501.125.668.18l-.583 2.834zm8.049 9.141c.792.02 1.585-.036 2.367-.167v-3.723c-.265-.073-.535-.128-.808-.167-.387-.058-.778-.086-1.17-.083-.377 0-.754.028-1.127.083-.357.048-.705.151-1.03.305-.298.14-.552.356-.739.625-.195.301-.292.656-.278 1.014 0 .797.25 1.348.752 1.653.622.335 1.325.494 2.032.46zm-.279-12.53c.955-.024 1.907.117 2.813.417.694.235 1.32.635 1.824 1.167.466.52.8 1.144.975 1.82.201.765.3 1.554.292 2.346v8.807c-.52.111-1.304.246-2.352.403-1.176.166-2.363.245-3.55.236-.806.007-1.61-.077-2.395-.25-.666-.14-1.296-.415-1.852-.806-.514-.374-.926-.87-1.198-1.444-.307-.69-.455-1.44-.431-2.194-.024-.734.145-1.462.488-2.112.32-.567.774-1.049 1.323-1.401.59-.376 1.245-.64 1.932-.78.755-.16 1.525-.24 2.297-.237.391.002.781.025 1.17.07.44.052.877.13 1.308.236v-.555c.002-.375-.045-.749-.139-1.111-.089-.344-.256-.662-.488-.931-.25-.28-.566-.496-.92-.625-.46-.162-.947-.237-1.435-.222-.718-.005-1.436.05-2.145.166-.54.084-1.07.214-1.588.39l-.418-2.724c.61-.193 1.234-.341 1.866-.444.866-.153 1.743-.227 2.622-.222h.001zm9.217 7.64c-.008-1.025.162-2.045.502-3.014.312-.897.8-1.723 1.435-2.43.633-.693 1.407-1.243 2.27-1.612.95-.4 1.975-.6 3.007-.583 1.337-.008 2.661.247 3.9.749l-.725 2.75c-.427-.178-.87-.318-1.323-.416-.516-.114-1.044-.17-1.573-.167-1.319 0-2.321.412-3.008 1.236-.687.824-1.03 1.987-1.031 3.488 0 1.444.325 2.588.974 3.43.65.844 1.745 1.265 3.286 1.265.57 0 1.14-.055 1.7-.167.494-.093.979-.232 1.447-.416l.474 2.778c-.539.236-1.105.404-1.685.5-.766.15-1.545.224-2.325.222-1.109.024-2.211-.17-3.245-.57-.872-.347-1.653-.889-2.283-1.584-.618-.7-1.078-1.525-1.351-2.417-.304-.985-.455-2.01-.446-3.041zm17.322-1.61c.428-.445.883-.922 1.365-1.433.482-.51.956-1.02 1.42-1.528.464-.509.905-1 1.323-1.472.418-.472.775-.884 1.072-1.236h3.983c-.928 1.037-1.908 2.111-2.938 3.223-1.03 1.11-2.066 2.194-3.105 3.25.62.523 1.205 1.084 1.754 1.68.613.658 1.207 1.358 1.782 2.098.576.741 1.114 1.482 1.615 2.223.454.663.872 1.349 1.253 2.056h-3.898c-.334-.575-.72-1.177-1.156-1.806-.436-.63-.904-1.241-1.405-1.834s-1.012-1.153-1.532-1.68c-.474-.489-.986-.94-1.531-1.348v6.668h-3.37V21.633l3.37-.556-.002 12.697zm10.528 1.666c-.023-1.146.17-2.286.57-3.361.338-.896.854-1.713 1.518-2.404.615-.627 1.355-1.12 2.172-1.444.797-.32 1.648-.486 2.507-.488 2.005 0 3.57.62 4.692 1.862 1.124 1.24 1.685 3.093 1.685 5.556 0 .186-.004.394-.014.626-.01.231-.023.44-.042.625h-9.607c.03 1.032.477 2.01 1.239 2.709.733.639 1.796.958 3.188.958.754.007 1.505-.068 2.242-.222.547-.109 1.083-.267 1.602-.472l.445 2.75c-.247.117-.503.214-.765.292-.366.112-.738.205-1.114.278-.418.083-.868.152-1.35.208-.49.056-.984.084-1.477.084-1.14.024-2.274-.169-3.341-.57-.892-.342-1.692-.884-2.34-1.584-.62-.69-1.086-1.505-1.364-2.39-.307-.975-.457-1.992-.447-3.014v.001zm9.774-1.5c.002-.447-.064-.892-.195-1.32-.119-.394-.313-.762-.571-1.083-.25-.305-.564-.552-.92-.723-.405-.185-.848-.275-1.294-.263-.472-.011-.94.089-1.365.291-.378.186-.714.446-.988.764-.272.32-.485.688-.627 1.084-.147.404-.25.823-.305 1.25h6.265zm15.233-2.806c-.38-.118-.765-.216-1.156-.292-.564-.108-1.138-.159-1.713-.152-.397.003-.793.04-1.183.111-.296.047-.59.112-.877.195v11.64h-3.37V28.8c.796-.282 1.61-.509 2.437-.68 1.067-.223 2.155-.33 3.244-.32.223 0 .483.014.78.042.297.028.594.065.891.111.298.046.585.102.864.167.278.065.501.125.668.18l-.585 2.835z"/>
        <path fill="#FFE07D" d="M7.47 16.153c-1.067.016-2.129-.165-3.13-.536-.894-.336-1.698-.875-2.348-1.572-.665-.732-1.167-1.594-1.476-2.532-.36-1.11-.534-2.27-.514-3.436-.022-1.172.18-2.338.592-3.435.362-.946.914-1.807 1.621-2.532C2.9 1.42 3.722.883 4.63.537 5.58.175 6.588-.007 7.605 0c.584-.005 1.168.044 1.744.145.46.082.915.19 1.364.324.331.096.653.223.961.379.254.134.433.23.537.29l-.828 2.298c-.481-.276-.996-.49-1.531-.637-.7-.206-1.428-.308-2.158-.301-.643-.006-1.28.112-1.879.345-.575.228-1.091.584-1.508 1.042-.45.504-.788 1.096-.995 1.74-.252.785-.373 1.606-.359 2.43-.007.76.087 1.518.28 2.253.166.643.459 1.246.862 1.774.39.5.897.898 1.476 1.16.677.292 1.41.433 2.146.414.824.023 1.645-.079 2.438-.301.5-.15.985-.341 1.453-.57l.76 2.298c-.228.144-.472.264-.726.357-.355.135-.717.25-1.085.346-.463.12-.934.21-1.409.268-.556.068-1.117.101-1.678.099zm9.28-8.076c-.008.78.097 1.559.314 2.31.183.64.49 1.24.906 1.761.389.48.882.866 1.442 1.129.603.275 1.26.412 1.923.401.656.01 1.305-.127 1.9-.401.56-.263 1.053-.648 1.443-1.127.415-.522.723-1.12.906-1.762.217-.75.322-1.528.313-2.309.01-.78-.096-1.559-.313-2.309-.183-.64-.49-1.24-.906-1.762-.39-.479-.883-.864-1.442-1.126-.596-.274-1.245-.411-1.901-.402-.663-.011-1.32.126-1.923.402-.562.264-1.055.653-1.442 1.138-.413.524-.72 1.122-.906 1.762-.217.745-.323 1.519-.313 2.295zm12.099 0c.022 1.194-.179 2.382-.593 3.502-.353.947-.901 1.81-1.609 2.533-.674.674-1.486 1.195-2.381 1.528-.93.346-1.915.52-2.907.513-.996.006-1.985-.168-2.918-.513-.9-.33-1.716-.852-2.394-1.528-.71-.724-1.262-1.586-1.623-2.532-.421-1.12-.626-2.307-.604-3.502-.023-1.192.182-2.378.604-3.493.367-.948.926-1.81 1.644-2.532.683-.678 1.502-1.202 2.404-1.54.922-.344 1.9-.518 2.885-.513.985-.005 1.963.17 2.885.514.897.333 1.71.859 2.382 1.539.705.726 1.257 1.588 1.62 2.532.424 1.115.629 2.3.606 3.492h-.001zm7.066 7.741c-1.118-2.41-2.195-4.93-3.231-7.562-1.036-2.633-2.002-5.264-2.896-7.896h3.108l1.096 3.19c.372 1.087.745 2.154 1.118 3.2.373 1.048.745 2.063 1.117 3.045.372.981.737 1.881 1.095 2.699.343-.818.701-1.714 1.074-2.688.372-.974.749-1.989 1.129-3.045.38-1.056.756-2.127 1.129-3.212.373-1.086.73-2.15 1.073-3.19h3.019c-.91 2.631-1.878 5.263-2.907 7.895-1.029 2.632-2.102 5.153-3.22 7.563l-2.704.001zM46.761.358h2.817v15.46h-2.817V.358zM56.108 13.5c.164.015.38.026.648.034.269.007.634.011 1.096.011 1.894 0 3.306-.48 4.238-1.439.931-.959 1.397-2.301 1.397-4.026 0-1.755-.455-3.101-1.364-4.038-.91-.937-2.318-1.405-4.226-1.405-.598-.01-1.195.012-1.79.067v10.796zm10.331-5.422c.027 1.194-.186 2.381-.626 3.492-.391.952-1 1.8-1.778 2.476-.808.683-1.753 1.185-2.773 1.472-1.167.332-2.376.493-3.589.48-.626 0-1.334-.026-2.124-.078-.76-.048-1.516-.156-2.259-.324V.582c.75-.169 1.513-.273 2.281-.313.805-.044 1.52-.067 2.147-.067 1.2-.012 2.398.142 3.556.458 1.013.273 1.955.76 2.762 1.427.78.665 1.39 1.506 1.778 2.454.442 1.126.655 2.328.625 3.536z"/>
    </g>
</svg>
