<svg viewBox="0 0 36 36" fill="none" xmlns="http://www.w3.org/2000/svg">
<path d="M27 32.3333H3.66665V9H18.6666V5.66666H3.66665C1.83331 5.66666 0.333313 7.16666 0.333313 9V32.3333C0.333313 34.1667 1.83331 35.6667 3.66665 35.6667H27C28.8333 35.6667 30.3333 34.1667 30.3333 32.3333V17.3333H27V32.3333ZM14.0166 27.05L10.75 23.1167L6.16665 29H24.5L18.6 21.15L14.0166 27.05ZM30.3333 5.66666V0.666664H27V5.66666H22C22.0166 5.68333 22 9 22 9H27V13.9833C27.0166 14 30.3333 13.9833 30.3333 13.9833V9H35.3333V5.66666H30.3333Z" fill="#2A6A00"/>
</svg>
