<svg viewBox="0 0 16 16" fill="none" xmlns="http://www.w3.org/2000/svg">
<path d="M14.125 1.25H13.375V0.625C13.375 0.279822 13.0952 0 12.75 0V0C12.4048 0 12.125 0.279822 12.125 0.625V1.25H3.875V0.625C3.875 0.279822 3.59518 0 3.25 0V0C2.90482 0 2.625 0.279822 2.625 0.625V1.25H1.875C0.841125 1.25 0 2.09113 0 3.125V14.125C0 15.1589 0.841125 16 1.875 16H14.125C15.1589 16 16 15.1589 16 14.125V3.125C16 2.09113 15.1589 1.25 14.125 1.25ZM14.75 14.125C14.75 14.4696 14.4696 14.75 14.125 14.75H1.875C1.53038 14.75 1.25 14.4696 1.25 14.125V5.875H14.75V14.125ZM14.75 4.625H1.25V3.125C1.25 2.78038 1.53038 2.5 1.875 2.5H2.625V3.125C2.625 3.47018 2.90482 3.75 3.25 3.75V3.75C3.59518 3.75 3.875 3.47018 3.875 3.125V2.5H12.125V3.125C12.125 3.47018 12.4048 3.75 12.75 3.75V3.75C13.0952 3.75 13.375 3.47018 13.375 3.125V2.5H14.125C14.4696 2.5 14.75 2.78038 14.75 3.125V4.625Z" fill="#9EA0A5"/>
<path d="M2.375 7.8125C2.375 8.15768 2.65482 8.4375 3 8.4375C3.34518 8.4375 3.625 8.15768 3.625 7.8125C3.625 7.46732 3.34518 7.1875 3 7.1875C2.65482 7.1875 2.375 7.46732 2.375 7.8125Z" fill="#9EA0A5"/>
<path d="M4.875 7.8125C4.875 8.15768 5.15482 8.4375 5.5 8.4375C5.84518 8.4375 6.125 8.15768 6.125 7.8125C6.125 7.46732 5.84518 7.1875 5.5 7.1875C5.15482 7.1875 4.875 7.46732 4.875 7.8125Z" fill="#9EA0A5"/>
<path d="M7.375 7.8125C7.375 8.15768 7.65482 8.4375 8 8.4375C8.34518 8.4375 8.625 8.15768 8.625 7.8125C8.625 7.46732 8.34518 7.1875 8 7.1875C7.65482 7.1875 7.375 7.46732 7.375 7.8125Z" fill="#9EA0A5"/>
<path d="M9.875 7.8125C9.875 8.15768 10.1548 8.4375 10.5 8.4375C10.8452 8.4375 11.125 8.15768 11.125 7.8125C11.125 7.46732 10.8452 7.1875 10.5 7.1875C10.1548 7.1875 9.875 7.46732 9.875 7.8125Z" fill="#9EA0A5"/>
<path d="M12.375 7.8125C12.375 8.15768 12.6548 8.4375 13 8.4375C13.3452 8.4375 13.625 8.15768 13.625 7.8125C13.625 7.46732 13.3452 7.1875 13 7.1875C12.6548 7.1875 12.375 7.46732 12.375 7.8125Z" fill="#9EA0A5"/>
<path d="M2.375 10.3125C2.375 10.6577 2.65482 10.9375 3 10.9375C3.34518 10.9375 3.625 10.6577 3.625 10.3125C3.625 9.96732 3.34518 9.6875 3 9.6875C2.65482 9.6875 2.375 9.96732 2.375 10.3125Z" fill="#9EA0A5"/>
<path d="M4.875 10.3125C4.875 10.6577 5.15482 10.9375 5.5 10.9375C5.84518 10.9375 6.125 10.6577 6.125 10.3125C6.125 9.96732 5.84518 9.6875 5.5 9.6875C5.15482 9.6875 4.875 9.96732 4.875 10.3125Z" fill="#9EA0A5"/>
<path d="M7.375 10.3125C7.375 10.6577 7.65482 10.9375 8 10.9375C8.34518 10.9375 8.625 10.6577 8.625 10.3125C8.625 9.96732 8.34518 9.6875 8 9.6875C7.65482 9.6875 7.375 9.96732 7.375 10.3125Z" fill="#9EA0A5"/>
<path d="M9.875 10.3125C9.875 10.6577 10.1548 10.9375 10.5 10.9375C10.8452 10.9375 11.125 10.6577 11.125 10.3125C11.125 9.96732 10.8452 9.6875 10.5 9.6875C10.1548 9.6875 9.875 9.96732 9.875 10.3125Z" fill="#9EA0A5"/>
<path d="M2.375 12.8125C2.375 13.1577 2.65482 13.4375 3 13.4375C3.34518 13.4375 3.625 13.1577 3.625 12.8125C3.625 12.4673 3.34518 12.1875 3 12.1875C2.65482 12.1875 2.375 12.4673 2.375 12.8125Z" fill="#9EA0A5"/>
<path d="M4.875 12.8125C4.875 13.1577 5.15482 13.4375 5.5 13.4375C5.84518 13.4375 6.125 13.1577 6.125 12.8125C6.125 12.4673 5.84518 12.1875 5.5 12.1875C5.15482 12.1875 4.875 12.4673 4.875 12.8125Z" fill="#9EA0A5"/>
<path d="M7.375 12.8125C7.375 13.1577 7.65482 13.4375 8 13.4375C8.34518 13.4375 8.625 13.1577 8.625 12.8125C8.625 12.4673 8.34518 12.1875 8 12.1875C7.65482 12.1875 7.375 12.4673 7.375 12.8125Z" fill="#9EA0A5"/>
<path d="M9.875 12.8125C9.875 13.1577 10.1548 13.4375 10.5 13.4375C10.8452 13.4375 11.125 13.1577 11.125 12.8125C11.125 12.4673 10.8452 12.1875 10.5 12.1875C10.1548 12.1875 9.875 12.4673 9.875 12.8125Z" fill="#9EA0A5"/>
<path d="M12.375 10.3125C12.375 10.6577 12.6548 10.9375 13 10.9375C13.3452 10.9375 13.625 10.6577 13.625 10.3125C13.625 9.96732 13.3452 9.6875 13 9.6875C12.6548 9.6875 12.375 9.96732 12.375 10.3125Z" fill="#9EA0A5"/>
</svg>
