<svg viewBox="0 0 24 24" fill="none" xmlns="http://www.w3.org/2000/svg">
<path fill-rule="evenodd" clip-rule="evenodd" d="M17.9999 10.5714C19.4196 10.5714 20.5713 9.41957 20.5713 7.99993C20.5713 6.58029 19.4196 5.4285 17.9999 5.4285C16.5803 5.4285 15.4285 6.58029 15.4285 7.99993C15.4285 9.41957 16.5803 10.5714 17.9999 10.5714V10.5714ZM22.5 2H1.5C0.664286 2 0 2.68036 0 3.51607V21.0554C0 21.8911 0.664286 22.5714 1.5 22.5714H22.5C23.3357 22.5714 24 21.8911 24 21.0554V3.51607C24 2.68036 23.3357 2 22.5 2V2ZM16.9767 12.591C16.816 12.4035 16.5696 12.2589 16.291 12.2589C16.0178 12.2589 15.825 12.3875 15.6053 12.5643L14.6035 13.4107C14.3946 13.5607 14.2285 13.6625 13.9875 13.6625C13.7571 13.6625 13.5482 13.5768 13.3982 13.4428C13.3446 13.3946 13.2482 13.3035 13.1678 13.2232L10.2857 10.1053C10.0714 9.85889 9.74996 9.70354 9.39103 9.70354C9.0321 9.70354 8.69996 9.88032 8.49103 10.1214L1.71425 18.2964V4.34104C1.76782 3.97675 2.05175 3.71425 2.41603 3.71425H21.5785C21.9482 3.71425 22.2482 3.98747 22.2696 4.35711L22.2857 18.3071L16.9767 12.591V12.591Z" fill="#393C3F"/>
<mask id="mask0" mask-type="alpha" maskUnits="userSpaceOnUse" x="0" y="2" width="24" height="21">
<path fill-rule="evenodd" clip-rule="evenodd" d="M17.9999 10.5714C19.4196 10.5714 20.5713 9.41957 20.5713 7.99993C20.5713 6.58029 19.4196 5.4285 17.9999 5.4285C16.5803 5.4285 15.4285 6.58029 15.4285 7.99993C15.4285 9.41957 16.5803 10.5714 17.9999 10.5714V10.5714ZM22.5 2H1.5C0.664286 2 0 2.68036 0 3.51607V21.0554C0 21.8911 0.664286 22.5714 1.5 22.5714H22.5C23.3357 22.5714 24 21.8911 24 21.0554V3.51607C24 2.68036 23.3357 2 22.5 2V2ZM16.9767 12.591C16.816 12.4035 16.5696 12.2589 16.291 12.2589C16.0178 12.2589 15.825 12.3875 15.6053 12.5643L14.6035 13.4107C14.3946 13.5607 14.2285 13.6625 13.9875 13.6625C13.7571 13.6625 13.5482 13.5768 13.3982 13.4428C13.3446 13.3946 13.2482 13.3035 13.1678 13.2232L10.2857 10.1053C10.0714 9.85889 9.74996 9.70354 9.39103 9.70354C9.0321 9.70354 8.69996 9.88032 8.49103 10.1214L1.71425 18.2964V4.34104C1.76782 3.97675 2.05175 3.71425 2.41603 3.71425H21.5785C21.9482 3.71425 22.2482 3.98747 22.2696 4.35711L22.2857 18.3071L16.9767 12.591V12.591Z" fill="white"/>
</mask>
<g mask="url(#mask0)">
<rect width="24" height="24" fill="#393C3F"/>
</g>
</svg>
