<svg viewBox="0 0 24 24" fill="none" xmlns="http://www.w3.org/2000/svg">
<g clip-path="url(#clip0)">
<path d="M23.3109 2.61104C22.8403 2.51006 22.3773 2.80987 22.2765 3.2803L21.6434 6.23464C19.6278 2.79601 15.9281 0.638184 11.8732 0.638184C5.62853 0.638184 0.548157 5.71849 0.548157 11.9632C0.548157 12.4443 0.938156 12.8344 1.41931 12.8344C1.9004 12.8344 2.29047 12.4443 2.29047 11.9632C2.29047 6.67928 6.58924 2.3805 11.8732 2.3805C15.318 2.3805 18.4602 4.22059 20.1614 7.15047L17.257 6.52804C16.7864 6.4272 16.3234 6.72695 16.2227 7.19737C16.1219 7.6678 16.4216 8.13097 16.892 8.23175L21.8775 9.30013C21.9622 9.31833 22.0482 9.32355 22.133 9.31644C22.2743 9.30453 22.412 9.25818 22.5333 9.17971C22.7273 9.05419 22.8635 8.85675 22.9119 8.63088L23.9804 3.64535C24.081 3.17499 23.7813 2.71196 23.3109 2.61104Z" fill="#4C4C4C"/>
<path d="M22.4344 10.8214C21.9536 10.8372 21.5766 11.2399 21.5925 11.7207C21.6769 14.279 20.7602 16.7169 19.0109 18.5857C17.2617 20.4543 14.8895 21.5301 12.3313 21.6146C12.2247 21.618 12.1186 21.6198 12.0124 21.6198C8.6744 21.6196 5.59942 19.886 3.86283 17.0772L6.89076 17.8892C7.35547 18.0137 7.83321 17.7381 7.95782 17.2733C8.08243 16.8086 7.80672 16.3309 7.34201 16.2061L2.41727 14.8858C2.19411 14.826 1.95625 14.8572 1.75623 14.9727C1.55608 15.0881 1.41007 15.2784 1.3502 15.5016L0.0298808 20.4264C-0.0947293 20.8912 0.180974 21.3688 0.645683 21.4935C0.7213 21.5138 0.797125 21.5235 0.871836 21.5235C1.2564 21.5235 1.60842 21.2668 1.71274 20.8777L2.4549 18.1097C4.51947 21.3607 8.11316 23.3622 12.012 23.3621C12.1372 23.3621 12.2631 23.3601 12.3889 23.3559C15.4122 23.256 18.2157 21.9848 20.283 19.7764C22.3503 17.5679 23.4337 14.6866 23.3339 11.6632C23.318 11.1825 22.9151 10.8043 22.4344 10.8214Z" fill="#4C4C4C"/>
</g>
<defs>
<clipPath id="clip0">
<rect width="24" height="24" fill="white"/>
</clipPath>
</defs>
</svg>
