<svg viewBox="0 0 16 16" fill="none" xmlns="http://www.w3.org/2000/svg">
<path fill-rule="evenodd" clip-rule="evenodd" d="M11.542 2.66667V1.45833C11.542 0.6625 10.9378 0 10.1045 0H5.89199C5.06283 0 4.45866 0.6625 4.45866 1.45833V2.66667H0.666992V4H1.05033C1.05033 4 1.27533 4.025 1.39199 4.14167C1.50866 4.25833 1.55449 4.51667 1.55449 4.51667L2.34616 14.5875C2.40866 15.8125 2.40866 16 3.84616 16H12.1545C13.592 16 13.592 15.8167 13.6545 14.5917L14.4462 4.525C14.4462 4.525 14.492 4.2625 14.6087 4.14583C14.7253 4.02917 14.9503 4.00417 14.9503 4.00417H15.3337V2.67083H11.542V2.66667V2.66667ZM5.33368 1.45834C5.33368 1.05834 5.65868 0.833343 6.07118 0.833343H9.89201C10.3045 0.833343 10.667 1.06251 10.667 1.45834V2.66668H5.33368V1.45834V1.45834ZM4.97955 13.3333L4.55038 5.33334H5.39622L5.83372 13.3333H4.97955V13.3333ZM8.46302 13.3333H7.54635V5.33334H8.46302V13.3333V13.3333ZM11.0294 13.3333H10.1794L10.6169 5.33334H11.4628L11.0294 13.3333V13.3333Z" fill="#ED1B34"/>
<mask id="mask0" mask-type="alpha" maskUnits="userSpaceOnUse" x="0" y="0" width="16" height="16">
<path fill-rule="evenodd" clip-rule="evenodd" d="M11.542 2.66667V1.45833C11.542 0.6625 10.9378 0 10.1045 0H5.89199C5.06283 0 4.45866 0.6625 4.45866 1.45833V2.66667H0.666992V4H1.05033C1.05033 4 1.27533 4.025 1.39199 4.14167C1.50866 4.25833 1.55449 4.51667 1.55449 4.51667L2.34616 14.5875C2.40866 15.8125 2.40866 16 3.84616 16H12.1545C13.592 16 13.592 15.8167 13.6545 14.5917L14.4462 4.525C14.4462 4.525 14.492 4.2625 14.6087 4.14583C14.7253 4.02917 14.9503 4.00417 14.9503 4.00417H15.3337V2.67083H11.542V2.66667V2.66667ZM5.33368 1.45834C5.33368 1.05834 5.65868 0.833343 6.07118 0.833343H9.89201C10.3045 0.833343 10.667 1.06251 10.667 1.45834V2.66668H5.33368V1.45834V1.45834ZM4.97955 13.3333L4.55038 5.33334H5.39622L5.83372 13.3333H4.97955V13.3333ZM8.46302 13.3333H7.54635V5.33334H8.46302V13.3333V13.3333ZM11.0294 13.3333H10.1794L10.6169 5.33334H11.4628L11.0294 13.3333V13.3333Z" fill="white"/>
</mask>
<g mask="url(#mask0)">
<rect width="16" height="16" fill="#ED1B34"/>
</g>
</svg>
