<svg viewBox="0 0 39 40" fill="none" xmlns="http://www.w3.org/2000/svg">
<path d="M32.0239 0H30.0625H7.3125H0V40H5.6875H32.5H39V7.00898L32.0239 0ZM28.4375 1.63265V11.0612C28.4375 12.1658 27.5421 13.0612 26.4375 13.0612H10.9375C9.83293 13.0612 8.9375 12.1658 8.9375 11.0612V1.63265H28.4375ZM7.3125 38.3673V40H30.875V38.3673H7.3125ZM37.375 38.3673H32.5H5.6875H1.625V1.63265H7.3125V12.6939C7.3125 13.7984 8.20793 14.6939 9.3125 14.6939H28.0625C29.1671 14.6939 30.0625 13.7984 30.0625 12.6939V1.63265H31.3511L37.375 7.6849V38.3673Z" fill="black"/>
<path fill-rule="evenodd" clip-rule="evenodd" d="M28 21.5H9C8.72386 21.5 8.5 21.7239 8.5 22V30C8.5 30.2761 8.72386 30.5 9 30.5H28C28.2761 30.5 28.5 30.2761 28.5 30V22C28.5 21.7239 28.2761 21.5 28 21.5ZM9 20C7.89543 20 7 20.8954 7 22V30C7 31.1046 7.89543 32 9 32H28C29.1046 32 30 31.1046 30 30V22C30 20.8954 29.1046 20 28 20H9Z" fill="black"/>
</svg>
