<svg xmlns="http://www.w3.org/2000/svg" viewBox="0 0 444 498">
    <g fill="#000000" fill-rule="nonzero">
        <path d="M93.057 219.598l-3.547-1.063a6.723 6.723 0 0 0 .354-2.131c0-1.777-1.095-3.374-3.284-4.792-2.186-1.423-4.968-2.634-8.338-3.64-3.368-1.004-7.037-1.746-10.996-2.22-3.965-.469-7.72-.708-11.266-.708-4.38 0-8.724.619-13.043 1.863-4.318 1.24-8.16 3.168-11.53 5.767-3.37 2.605-6.095 5.978-8.16 10.12-2.072 4.142-3.106 9.17-3.106 15.086 0 5.799 1.034 10.8 3.106 15 2.065 4.2 4.79 7.604 8.16 10.207 3.37 2.602 7.212 4.524 11.53 5.767 4.32 1.242 8.663 1.863 13.043 1.863 6.74 0 12.8-.558 18.182-1.685 5.38-1.125 9.964-2.337 13.754-3.64v-15.265h-22.71c-1.659 0-2.903.356-3.726 1.066-.832.71-1.364 2.248-1.598 4.616H56.69v-22.72h3.192c.234 2.01.766 3.283 1.598 3.815.823.532 2.067.798 3.726.798h44.353v3.196c-2.369.354-3.846.769-4.436 1.243-.593.473-.886 1.479-.886 3.019v20.056c0 1.184.354 1.953 1.064 2.307.706.354 1.533.771 2.482 1.243v2.84a63.96 63.96 0 0 1-12.33 6.744 82.273 82.273 0 0 1-13.13 4.172 79.123 79.123 0 0 1-13.307 1.863c-4.434.237-8.778.356-13.036.356-8.282 0-15.824-1.035-22.623-3.107-6.803-2.068-12.627-5.149-17.474-9.23-4.851-4.085-8.606-9.055-11.267-14.91-2.664-5.857-3.992-12.512-3.992-19.968 0-7.455 1.328-14.113 3.992-19.97 2.66-5.856 6.416-10.854 11.267-14.999 4.847-4.139 10.671-7.305 17.474-9.496 6.799-2.188 14.341-3.282 22.623-3.282 5.202 0 10.17.352 14.9 1.064 4.73.71 8.93 1.507 12.6 2.396 3.664.888 6.71 1.716 9.134 2.485 2.422.77 3.934 1.154 4.523 1.154 1.066 0 1.893-.234 2.486-.71a15.919 15.919 0 0 1 1.776-1.243l2.128 1.243-10.47 23.43zM359.52 254.92l1.777.889c0 1.062.233 2.012.706 2.84.825 1.42 2.455 2.811 4.882 4.171 2.421 1.36 5.2 2.574 8.336 3.638a72.55 72.55 0 0 0 9.848 2.573c3.43.654 6.506.977 9.225.977 2.01 0 4.614-.145 7.806-.444a45.937 45.937 0 0 0 9.402-1.865c3.075-.943 5.735-2.245 7.982-3.904 2.25-1.656 3.376-3.845 3.376-6.567s-1.038-4.732-3.106-6.035c-2.071-1.3-4.79-2.247-8.16-2.84-3.372-.59-7.215-.974-11.534-1.152a349.443 349.443 0 0 1-13.216-.8 120.38 120.38 0 0 1-13.22-1.776c-4.318-.827-8.161-2.219-11.531-4.17-3.368-1.953-6.095-4.614-8.158-7.99-2.072-3.371-3.106-7.778-3.106-13.222 0-3.667.856-7.276 2.572-10.827 1.711-3.55 4.344-6.685 7.896-9.409 3.548-2.718 8.039-4.937 13.484-6.657 5.436-1.712 11.826-2.572 19.159-2.572 6.267 0 11.71.474 16.324 1.421 4.614.947 8.602 1.951 11.97 3.018 3.376 1.062 6.213 2.072 8.519 3.015 2.308.95 4.226 1.423 5.768 1.423 1.654 0 2.836-.356 3.548-1.067l2.128 1.419-12.242 22.187-1.773-.708c-.242-1.656-.71-3.018-1.42-4.082-.948-1.421-2.517-2.81-4.704-4.172-2.188-1.36-4.76-2.574-7.714-3.638-2.957-1.065-6.155-1.924-9.58-2.576a55.415 55.415 0 0 0-10.292-.974c-2.604 0-5.293.207-8.074.62-2.778.415-5.293 1.037-7.537 1.865-2.25.828-4.111 1.924-5.592 3.282-1.478 1.364-2.218 3.049-2.218 5.06 0 2.842 1.035 4.97 3.104 6.39 2.072 1.418 4.792 2.485 8.162 3.193 3.374.71 7.218 1.186 11.535 1.42 4.314.241 8.72.535 13.216.89 4.495.353 8.9.976 13.218 1.864 4.313.886 8.16 2.307 11.53 4.258 3.373 1.955 6.091 4.589 8.163 7.9 2.07 3.313 3.106 7.632 3.106 12.956 0 6.157-1.63 11.182-4.878 15.088-3.259 3.906-7.308 6.984-12.155 9.23-4.852 2.249-10.084 3.76-15.702 4.525-5.617.77-10.855 1.156-15.7 1.156-6.74 0-12.393-.385-16.945-1.156-4.553-.766-8.34-1.715-11.354-2.838-3.014-1.125-5.408-2.13-7.186-3.017-1.776-.889-3.313-1.331-4.612-1.331-.828 0-1.598.474-2.304 1.419l-2.486-1.419 9.758-21.479zM165.968 494.011c.949 0 1.776-.264 2.486-.796.71-.535 1.066-1.335 1.066-2.397v-80.942c0-1.063-.356-1.802-1.066-2.22-.71-.41-1.537-.618-2.486-.618v-3.195h33.179v3.195c-.593 0-1.213.178-1.862.53-.65.357-.976.89-.976 1.601 0 .591.234 1.36.708 2.306.471.949 1.003 1.953 1.596 3.015l25.37 46.15 25.555-45.616c.821-1.536 1.445-2.753 1.862-3.637.41-.889.618-1.69.618-2.396 0-1.303-.77-1.953-2.304-1.953v-3.195h32.82v3.195c-.95 0-1.773.208-2.483.619-.71.417-1.064 1.156-1.064 2.219v80.942c0 1.062.354 1.862 1.064 2.397.71.532 1.533.796 2.484.796v3.196h-27.857v-3.196c3.196 0 4.79-1.064 4.79-3.193v-58.931h-.354l-35.659 65.32h-.534l-34.949-65.497h-.356v59.108c0 2.129 1.655 3.193 4.965 3.193v3.196h-26.613v-3.196zM224.251 356.112c21.316 0 40.623 2.023 54.806 5.299C279.167 152.026 360.113.129 360.113.129l-90.192 101.659-45.67-66.25-45.67 66.25L88.39.128s80.945 151.898 81.055 361.283c14.186-3.274 33.491-5.3 54.807-5.3"/>
    </g>
</svg>
