<svg viewBox="0 0 30 30" fill="none" xmlns="http://www.w3.org/2000/svg">
<g clip-path="url(#clip0)">
<path d="M20.5252 10.3484L16.3147 9.29601L2.1707 15.4795L0 19.8214L7.37004 21.9381L22.63 15.1518L20.5252 10.3484Z" fill="#6A7EC7"/>
<path d="M20.5253 10.3484L6.31543 16.6647L7.37018 21.9381L22.6302 15.1518L20.5253 10.3484Z" fill="#7287D5"/>
<path d="M6.31538 16.6647L2.17079 15.4795L0.000976562 19.8214L7.37014 21.9381L6.31538 16.6647Z" fill="#4157A9"/>
<path d="M27.8953 12.4647L23.6849 11.4118L9.54081 17.5958L7.37012 21.9381L14.74 24.053L30.0001 17.2672L27.8953 12.4647Z" fill="#6A7EC7"/>
<path d="M27.8955 12.4647L13.6855 18.7796L14.7402 24.053L30.0003 17.2672L27.8955 12.4647Z" fill="#7287D5"/>
<path d="M13.6853 18.7796L9.54081 17.5958L7.37012 21.9381L14.74 24.053L13.6853 18.7796Z" fill="#4157A9"/>
<path d="M23.227 6.99941L19.0173 5.94706L6.08736 11.6297L3.91748 15.9716L11.2875 18.0874L25.3327 11.8023L23.227 6.99941Z" fill="#6A7EC7"/>
<path d="M23.2271 6.9994L10.2329 12.8139L11.2876 18.0874L25.3328 11.8023L23.2271 6.9994Z" fill="#7287D5"/>
<path d="M10.2328 12.8139L6.08736 11.6297L3.91748 15.9716L11.2875 18.0874L10.2328 12.8139Z" fill="#4157A9"/>
</g>
<defs>
<clipPath id="clip0">
<rect width="30" height="30" fill="white"/>
</clipPath>
</defs>
</svg>
