<svg viewBox="0 0 30 30" fill="none" xmlns="http://www.w3.org/2000/svg">
<g clip-path="url(#clip0)">
<path d="M14.9995 24.8276C7.57248 24.8276 1.55127 23.2955 1.55127 21.7241V25.3428C1.55541 26.9131 7.57455 28.4483 14.9995 28.4483C22.4245 28.4483 28.4437 26.9131 28.4478 25.3428V21.7241C28.4478 23.2955 22.4266 24.8276 14.9995 24.8276Z" fill="#4157A9"/>
<path d="M13.4483 19.1379C6.02121 19.1379 0 17.6059 0 16.0345V19.6531C0.00413793 21.2234 6.02328 22.7586 13.4483 22.7586C20.8733 22.7586 26.8924 21.2234 26.8966 19.6531V16.0345C26.8966 17.6059 20.8753 19.1379 13.4483 19.1379Z" fill="#4157A9"/>
<path d="M16.5523 13.4483C9.12521 13.4483 3.104 11.9162 3.104 10.3448V13.9634C3.10814 15.5338 9.12728 17.0689 16.5523 17.0689C23.9773 17.0689 29.9964 15.5338 30.0006 13.9634V10.3448C30.0006 11.9162 23.9793 13.4483 16.5523 13.4483Z" fill="#4157A9"/>
<path d="M26.8966 4.20518C26.8966 5.77604 20.8753 7.24138 13.4483 7.24138C6.02121 7.24138 0 5.77604 0 4.20518C0 2.6338 6.02121 1.55173 13.4483 1.55173C20.8753 1.55173 26.8966 2.6338 26.8966 4.20518Z" fill="#7287D5"/>
<path d="M13.4483 7.24139C6.02121 7.24139 0 5.70932 0 4.13794V7.75657C0.00413793 9.32691 6.02328 10.8621 13.4483 10.8621C20.8733 10.8621 26.8924 9.32691 26.8966 7.75657V4.13794C26.8966 5.70932 20.8753 7.24139 13.4483 7.24139Z" fill="#4157A9"/>
<path d="M2.06836 5.72794V9.34603C2.38284 9.46189 2.72732 9.57362 3.10284 9.68017V6.06156C2.72732 5.955 2.38284 5.84328 2.06836 5.72794Z" fill="#4157A9"/>
<path d="M23.7935 6.06156V9.68017C24.169 9.57362 24.5134 9.46189 24.8279 9.34603V5.72794C24.5134 5.8438 24.169 5.955 23.7935 6.06156Z" fill="#4157A9"/>
<path d="M4.65527 6.43706V10.0562C4.98631 10.125 5.33131 10.1902 5.68975 10.2517V6.63257C5.33131 6.57102 4.98631 6.50585 4.65527 6.43706Z" fill="#4157A9"/>
<path d="M21.2065 6.63257V10.2522C21.565 10.1902 21.91 10.125 22.241 10.0562V6.43706C21.91 6.50585 21.565 6.57102 21.2065 6.63257Z" fill="#4157A9"/>
<path d="M7.24072 6.86328V10.4829C7.57797 10.5264 7.92193 10.5667 8.27521 10.6029V6.98328C7.92193 6.94707 7.57797 6.90621 7.24072 6.86328Z" fill="#4157A9"/>
<path d="M18.6211 6.9838V10.6035C18.9744 10.5667 19.3183 10.5264 19.6556 10.4835V6.86328C19.3183 6.90725 18.9744 6.94759 18.6211 6.9838Z" fill="#4157A9"/>
<path d="M9.82764 7.11673V10.7369C10.1675 10.7607 10.512 10.7819 10.8621 10.799V7.17828C10.512 7.16121 10.1675 7.14052 9.82764 7.11673Z" fill="#4157A9"/>
<path d="M16.0342 7.17828V10.799C16.3843 10.7819 16.7288 10.7607 17.0686 10.7369V7.11673C16.7288 7.14052 16.3843 7.16121 16.0342 7.17828Z" fill="#4157A9"/>
<path d="M13.4489 7.24138C13.2756 7.24138 13.1034 7.23983 12.9316 7.23828V10.859C13.1034 10.8605 13.2756 10.8621 13.4489 10.8621C13.6222 10.8621 13.7944 10.8605 13.9661 10.859V7.23828C13.7944 7.23983 13.6222 7.24138 13.4489 7.24138Z" fill="#4157A9"/>
<path d="M5.17236 11.9348V15.5529C5.48685 15.6688 5.83133 15.7805 6.20684 15.8871V12.2684C5.83133 12.1619 5.48685 12.0502 5.17236 11.9348Z" fill="#4157A9"/>
<path d="M26.896 12.2684V15.8871C27.2715 15.7805 27.616 15.6688 27.9305 15.5529V11.9348C27.616 12.0507 27.2715 12.1619 26.896 12.2684Z" fill="#4157A9"/>
<path d="M7.75928 12.644V16.2631C8.09031 16.3319 8.43532 16.3971 8.79377 16.4586V12.8395C8.43532 12.7779 8.09031 12.7128 7.75928 12.644Z" fill="#4157A9"/>
<path d="M24.3105 12.8395V16.4591C24.669 16.3971 25.014 16.3319 25.345 16.2631V12.644C25.014 12.7128 24.669 12.7779 24.3105 12.8395Z" fill="#4157A9"/>
<path d="M10.3447 13.0707V16.6904C10.682 16.7338 11.0259 16.7741 11.3792 16.8104V13.1907C11.0259 13.154 10.682 13.1136 10.3447 13.0707Z" fill="#4157A9"/>
<path d="M21.7236 13.1902V16.8104C22.0769 16.7736 22.4209 16.7333 22.7581 16.6904V13.0707C22.4209 13.1141 22.0769 13.1545 21.7236 13.1902Z" fill="#4157A9"/>
<path d="M12.9316 13.3236V16.9438C13.2715 16.9676 13.616 16.9888 13.9661 17.0059V13.3852C13.616 13.3681 13.2715 13.3474 12.9316 13.3236Z" fill="#4157A9"/>
<path d="M19.1382 13.3852V17.0059C19.4884 16.9888 19.8328 16.9676 20.1727 16.9438V13.3236C19.8328 13.3474 19.4884 13.3681 19.1382 13.3852Z" fill="#4157A9"/>
<path d="M16.5514 13.4483C16.3781 13.4483 16.2059 13.4467 16.0342 13.4452V17.0659C16.2059 17.0674 16.3781 17.069 16.5514 17.069C16.7247 17.069 16.8969 17.0674 17.0686 17.0659V13.4452C16.8969 13.4467 16.7247 13.4483 16.5514 13.4483Z" fill="#4157A9"/>
<path d="M2.06836 17.6245V21.2426C2.38284 21.3585 2.72732 21.4697 3.10284 21.5767V17.9581C2.72732 17.8516 2.38284 17.7398 2.06836 17.6245Z" fill="#4157A9"/>
<path d="M23.7935 17.9581V21.5767C24.169 21.4702 24.5134 21.3585 24.8279 21.2426V17.6245C24.5134 17.7403 24.169 17.8516 23.7935 17.9581Z" fill="#4157A9"/>
<path d="M4.65527 18.3336V21.9527C4.98631 22.0215 5.33131 22.0867 5.68975 22.1483V18.5291C5.33131 18.4676 4.98631 18.4024 4.65527 18.3336Z" fill="#4157A9"/>
<path d="M21.2065 18.5291V22.1488C21.565 22.0867 21.91 22.0215 22.241 21.9528V18.3336C21.91 18.4024 21.565 18.4676 21.2065 18.5291Z" fill="#4157A9"/>
<path d="M7.24072 18.7603V22.38C7.57797 22.4234 7.92193 22.4638 8.27521 22.5V18.8803C7.92193 18.8436 7.57797 18.8033 7.24072 18.7603Z" fill="#4157A9"/>
<path d="M18.6211 18.8798V22.5C18.9744 22.4633 19.3183 22.4229 19.6556 22.38V18.7603C19.3183 18.8038 18.9744 18.8441 18.6211 18.8798Z" fill="#4157A9"/>
<path d="M9.82764 19.0133V22.6335C10.1675 22.6573 10.512 22.6785 10.8621 22.6955V19.0748C10.512 19.0578 10.1675 19.0371 9.82764 19.0133Z" fill="#4157A9"/>
<path d="M16.0342 19.0748V22.6955C16.3843 22.6785 16.7288 22.6573 17.0686 22.6335V19.0133C16.7288 19.0371 16.3843 19.0578 16.0342 19.0748Z" fill="#4157A9"/>
<path d="M13.4489 19.1379C13.2756 19.1379 13.1034 19.1364 12.9316 19.1348V22.7555C13.1034 22.7571 13.2756 22.7586 13.4489 22.7586C13.6222 22.7586 13.7944 22.7571 13.9661 22.7555V19.1348C13.7944 19.1364 13.6222 19.1379 13.4489 19.1379Z" fill="#4157A9"/>
<path d="M3.62109 23.3141V26.9323C3.93558 27.0481 4.28006 27.1593 4.65557 27.2664V23.6478C4.28006 23.5412 3.93558 23.4295 3.62109 23.3141Z" fill="#4157A9"/>
<path d="M25.3447 23.6478V27.2664C25.7202 27.1598 26.0647 27.0481 26.3792 26.9323V23.3141C26.0647 23.43 25.7202 23.5412 25.3447 23.6478Z" fill="#4157A9"/>
<path d="M6.20654 24.0233V27.6424C6.53758 27.7112 6.88258 27.7764 7.24102 27.8379V24.2188C6.88258 24.1573 6.53758 24.0921 6.20654 24.0233Z" fill="#4157A9"/>
<path d="M22.7593 24.2188V27.8385C23.1177 27.7764 23.4627 27.7112 23.7938 27.6424V24.0233C23.4627 24.0921 23.1177 24.1573 22.7593 24.2188Z" fill="#4157A9"/>
<path d="M8.79346 24.45V28.0696C9.1307 28.1131 9.47467 28.1534 9.82795 28.1896V24.57C9.47467 24.5333 9.1307 24.4929 8.79346 24.45Z" fill="#4157A9"/>
<path d="M20.1724 24.5695V28.1896C20.5256 28.1529 20.8696 28.1126 21.2068 28.0696V24.45C20.8696 24.4934 20.5256 24.5338 20.1724 24.5695Z" fill="#4157A9"/>
<path d="M11.3789 24.7029V28.3231C11.7187 28.3469 12.0632 28.3681 12.4134 28.3852V24.7645C12.0632 24.7474 11.7187 24.7267 11.3789 24.7029Z" fill="#4157A9"/>
<path d="M17.5869 24.7645V28.3852C17.9371 28.3681 18.2816 28.3469 18.6214 28.3231V24.7029C18.2816 24.7267 17.9371 24.7474 17.5869 24.7645Z" fill="#4157A9"/>
<path d="M15.0001 24.8276C14.8269 24.8276 14.6546 24.826 14.4829 24.8245V28.4452C14.6546 28.4467 14.8269 28.4483 15.0001 28.4483C15.1734 28.4483 15.3457 28.4467 15.5174 28.4452V24.8245C15.3457 24.826 15.1734 24.8276 15.0001 24.8276Z" fill="#4157A9"/>
<path d="M26.4885 20.3648C25.0195 21.6569 19.739 22.7586 13.4478 22.7586C8.52886 22.7586 4.22903 22.0847 1.88437 21.1733C1.66868 21.3688 1.55127 21.5757 1.55127 21.7914C1.55127 23.3628 7.57248 24.8276 14.9995 24.8276C22.4271 24.8276 28.4478 23.3628 28.4478 21.7914C28.4478 21.2498 27.7314 20.7657 26.4885 20.3648Z" fill="#7287D5"/>
<path d="M16.5517 17.069C9.71741 17.069 4.07793 15.7681 3.22035 14.3364C1.21397 14.791 0 15.3967 0 16.1017C0 17.6726 6.02121 19.138 13.4483 19.138C20.8753 19.138 26.8966 17.6726 26.8966 16.1017C26.8966 16.0324 26.881 15.9647 26.8578 15.8974C24.391 16.5916 20.6907 17.069 16.5517 17.069Z" fill="#7287D5"/>
<path d="M26.3762 8.55983C24.7671 9.81155 19.5906 10.8621 13.4488 10.8621C9.48262 10.8621 5.91831 10.4234 3.45676 9.77586C3.22866 9.97759 3.104 10.1897 3.104 10.4121C3.104 11.9834 9.12521 13.4483 16.5523 13.4483C23.9793 13.4483 30.0006 11.9834 30.0006 10.4121C30.0006 9.66104 28.6231 9.02224 26.3762 8.55983Z" fill="#7287D5"/>
</g>
<defs>
<clipPath id="clip0">
<rect width="30" height="30" fill="white"/>
</clipPath>
</defs>
</svg>
