<svg viewBox="0 0 30 30" fill="none" xmlns="http://www.w3.org/2000/svg">
<path d="M16.6074 30C9.35867 30 3.48242 23.2843 3.48242 15C3.48242 6.71571 9.35867 0 16.6074 0C23.8562 0 29.7324 6.71571 29.7324 15C29.7324 23.2843 23.8562 30 16.6074 30Z" fill="#7287D5"/>
<path d="M3.48235 15C3.48235 7.33821 8.51003 1.02214 15.0002 0.115714C14.4731 0.0423214 13.9374 0 13.3931 0C6.14432 0 0.268066 6.71571 0.268066 15C0.268066 23.2843 6.14432 30 13.3931 30C13.9374 30 14.4731 29.9577 15.0002 29.8843C8.51003 28.9779 3.48235 22.6618 3.48235 15Z" fill="#4157A9"/>
<path d="M16.6528 27.0664H16.6068C16.2318 27.0664 15.8541 27.0439 15.4844 27C15.1903 26.9647 14.9809 26.6984 15.0157 26.4043C15.051 26.1102 15.3194 25.905 15.6114 25.9361C15.9393 25.9752 16.2741 25.995 16.6068 25.995C16.903 25.995 17.1655 26.235 17.1655 26.5307C17.1655 26.8264 16.9496 27.0664 16.6528 27.0664ZM19.768 26.4895C19.5516 26.4895 19.3475 26.3571 19.2666 26.1423C19.1621 25.8654 19.3019 25.5563 19.5789 25.4523C19.8875 25.3361 20.1955 25.1995 20.4928 25.0468C20.7564 24.9107 21.0789 25.0152 21.2144 25.2788C21.3494 25.5418 21.2455 25.8648 20.9819 25.9998C20.6482 26.1713 20.3037 26.3234 19.9566 26.4546C19.895 26.4782 19.8312 26.4895 19.768 26.4895ZM12.5171 26.0802C12.4357 26.0802 12.3526 26.0614 12.275 26.0218C11.9455 25.8541 11.6193 25.6661 11.3059 25.4604C11.0584 25.2986 10.9893 24.967 11.151 24.7189C11.3139 24.472 11.645 24.4023 11.893 24.5641C12.1732 24.7479 12.4651 24.9172 12.7598 25.0666C13.0234 25.2005 13.1289 25.523 12.995 25.7866C12.9007 25.973 12.7121 26.0802 12.5171 26.0802ZM23.2903 24.1741C23.1543 24.1741 23.0176 24.1222 22.9132 24.0188C22.7032 23.8104 22.7016 23.4713 22.91 23.2613C23.143 23.0266 23.3696 22.7738 23.5834 22.5102C23.7703 22.2809 24.1078 22.2461 24.3371 22.4325C24.5664 22.6189 24.6018 22.9564 24.4148 23.1863C24.1785 23.4766 23.9284 23.7557 23.6707 24.0155C23.5657 24.1211 23.4275 24.1741 23.2903 24.1741ZM9.24497 23.4198C9.09015 23.4198 8.9364 23.3529 8.83033 23.2243C8.59783 22.9404 8.37443 22.6404 8.16711 22.3323C8.00158 22.087 8.0664 21.7538 8.31176 21.5882C8.55658 21.4227 8.88979 21.487 9.05533 21.7329C9.24443 22.0136 9.44747 22.2868 9.65908 22.5445C9.84658 22.7732 9.81336 23.1107 9.58461 23.2988C9.48551 23.3802 9.36443 23.4198 9.24497 23.4198ZM25.6453 20.6679C25.5735 20.6679 25.5012 20.6534 25.4316 20.6234C25.16 20.505 25.0362 20.1895 25.1541 19.9179C25.2885 19.6104 25.4112 19.2911 25.5189 18.9702C25.6132 18.6905 25.9169 18.5389 26.1976 18.6332C26.4778 18.728 26.6289 19.0313 26.5346 19.312C26.4168 19.6618 26.2828 20.01 26.1366 20.3459C26.0482 20.5473 25.851 20.6679 25.6453 20.6679ZM7.20283 19.7213C6.97997 19.7213 6.77158 19.5804 6.6955 19.358C6.57711 19.0109 6.47211 18.6536 6.38318 18.2957C6.3114 18.0086 6.48604 17.7182 6.77318 17.647C7.05925 17.5741 7.35122 17.7498 7.42247 18.037C7.50443 18.3654 7.60086 18.6938 7.70961 19.012C7.80497 19.2921 7.6555 19.5964 7.37586 19.6918C7.31908 19.7116 7.26015 19.7213 7.20283 19.7213ZM26.6573 16.5622C26.6434 16.5622 26.6294 16.5616 26.6155 16.5605C26.3203 16.5375 26.1002 16.2798 26.1227 15.9846C26.1478 15.66 26.1607 15.3284 26.1607 15C26.1607 14.7043 26.4007 14.4472 26.6964 14.4472C26.9921 14.4472 27.2321 14.6695 27.2321 14.9652V15C27.2321 15.3563 27.2182 15.7152 27.1909 16.0677C27.1694 16.3484 26.9343 16.5622 26.6573 16.5622ZM6.51765 15.5416C6.22193 15.5416 5.98193 15.3075 5.98193 15.0118V15C5.98193 14.6346 5.9964 14.2671 6.02479 13.9088C6.04836 13.6141 6.30497 13.3955 6.60122 13.417C6.8964 13.4405 7.11658 13.6988 7.093 13.9934C7.06675 14.3245 7.05336 14.663 7.05336 15C7.05336 15.2957 6.81336 15.5416 6.51765 15.5416ZM26.3048 12.3471C26.0653 12.3471 25.8473 12.1854 25.7862 11.9427C25.7032 11.6132 25.6062 11.2854 25.4969 10.9671C25.401 10.6875 25.5505 10.3827 25.8301 10.2868C26.1103 10.1898 26.4151 10.3398 26.5105 10.62C26.6294 10.9661 26.735 11.3229 26.825 11.6802C26.8973 11.9673 26.7232 12.2582 26.4366 12.3305C26.3932 12.3423 26.3493 12.3471 26.3048 12.3471ZM7.19586 11.3738C7.13854 11.3738 7.08068 11.3641 7.02336 11.3448C6.74318 11.25 6.59318 10.9457 6.688 10.6655C6.8064 10.3173 6.94086 9.96965 7.08818 9.63269C7.20711 9.36108 7.52211 9.2384 7.79372 9.35626C8.06479 9.47465 8.18854 9.79072 8.07015 10.0618C7.93461 10.3709 7.8114 10.6902 7.70318 11.0095C7.62658 11.2329 7.41926 11.3738 7.19586 11.3738ZM24.5905 8.48465C24.4185 8.48465 24.2503 8.40215 24.1464 8.24894C23.9568 7.96929 23.7532 7.69661 23.541 7.43894C23.353 7.21072 23.3857 6.87269 23.6139 6.68465C23.8421 6.49661 24.1801 6.52929 24.3682 6.75751C24.6012 7.0409 24.8251 7.34036 25.0335 7.6484C25.1996 7.89322 25.1353 8.22644 24.8905 8.39251C24.7984 8.45465 24.6944 8.48465 24.5905 8.48465ZM9.22943 7.66983C9.11051 7.66983 8.99051 7.63019 8.89086 7.54876C8.66158 7.36179 8.62783 7.02429 8.81533 6.79501C9.05158 6.50572 9.30229 6.22715 9.56051 5.96733C9.76943 5.7584 10.1085 5.75679 10.318 5.96519C10.528 6.17411 10.5291 6.51269 10.3207 6.72269C10.0871 6.95786 9.85943 7.21019 9.64461 7.47322C9.53961 7.60286 9.38533 7.66983 9.22943 7.66983ZM21.5948 5.5109C21.4946 5.5109 21.3934 5.48304 21.3034 5.42411C21.0232 5.24144 20.7307 5.07322 20.4344 4.92376C20.1709 4.79036 20.0648 4.4684 20.1982 4.20429C20.3316 3.94126 20.653 3.83358 20.9176 3.96751C21.2487 4.13411 21.575 4.32215 21.8878 4.52626C22.1359 4.68804 22.206 5.02019 22.0443 5.26769C21.9414 5.42572 21.7705 5.5109 21.5948 5.5109ZM12.4978 5.00197C12.3028 5.00197 12.1148 4.89536 12.02 4.70947C11.8855 4.4459 11.9905 4.1234 12.2541 3.98894C12.5878 3.81911 12.9328 3.66644 13.2805 3.53679C13.5569 3.43286 13.866 3.57322 13.97 3.85072C14.0734 4.12769 13.933 4.43626 13.6555 4.54019C13.3459 4.6559 13.0378 4.79144 12.74 4.94358C12.6628 4.98322 12.5793 5.00197 12.4978 5.00197ZM17.6439 4.06501C17.623 4.06501 17.6021 4.06394 17.5812 4.06126C17.2587 4.02376 16.9309 4.00501 16.6068 4.00501C16.311 4.00501 16.0598 3.76501 16.0598 3.46929C16.0598 3.17358 16.2885 2.93358 16.5843 2.93358H16.6068C16.9721 2.93358 17.3418 2.95501 17.705 2.99733C17.9985 3.03108 18.2096 3.29679 18.1753 3.5909C18.1443 3.86411 17.9118 4.06501 17.6439 4.06501Z" fill="#4157A9"/>
<path d="M3.48128 15.5357H0.268066C0.278781 15.8963 0.299138 16.2536 0.331816 16.6072H3.54771C3.5145 16.2536 3.49253 15.8963 3.48128 15.5357Z" fill="#4157A9"/>
<path d="M3.60417 12.8571H0.392028C0.347564 13.2102 0.315421 13.568 0.293457 13.9286H3.50721C3.52971 13.568 3.55971 13.2102 3.60417 12.8571Z" fill="#4157A9"/>
<path d="M3.77586 18.2143H0.561035C0.630678 18.5764 0.711035 18.9338 0.802642 19.2857H4.01639C3.92532 18.9338 3.8455 18.5764 3.77586 18.2143Z" fill="#4157A9"/>
<path d="M4.52551 20.8929H1.30908C1.44569 21.2582 1.59676 21.6145 1.75747 21.9643H4.9723C4.81158 21.615 4.66212 21.2577 4.52551 20.8929Z" fill="#4157A9"/>
<path d="M4.16385 10.1786H0.953315C0.84885 10.5305 0.75135 10.8868 0.669922 11.25H3.88796C3.96939 10.8879 4.05992 10.5295 4.16385 10.1786Z" fill="#4157A9"/>
<path d="M5.23082 7.5H2.01653C1.83975 7.84875 1.67314 8.20554 1.521 8.57143H4.73742C4.88957 8.20607 5.05403 7.84875 5.23082 7.5Z" fill="#4157A9"/>
<path d="M7.41704 4.28572H4.19901C3.89419 4.62644 3.60436 4.98376 3.33008 5.35715H6.54704C6.82186 4.98376 7.11222 4.62644 7.41704 4.28572Z" fill="#4157A9"/>
<path d="M10.693 1.60715H7.47178C6.92428 1.92322 6.39928 2.28108 5.89893 2.67858H9.11803C9.61893 2.28108 10.145 1.92322 10.693 1.60715Z" fill="#4157A9"/>
<path d="M6.17097 24.1071H2.95508C3.20365 24.4784 3.46615 24.8357 3.74365 25.1786H6.96169C6.68419 24.8357 6.42008 24.4784 6.17097 24.1071Z" fill="#4157A9"/>
<path d="M5.26758 26.7857C5.69776 27.173 6.14829 27.5325 6.61972 27.8571H9.84151C9.36794 27.532 8.91258 27.1746 8.48079 26.7857H5.26758Z" fill="#4157A9"/>
</svg>
