<svg viewBox="0 0 479 145" fill="none" xmlns="http://www.w3.org/2000/svg">
<g filter="url(#filter0_d)">
<circle cx="421.787" cy="89.7181" r="23.9828" fill="url(#paint0_linear)"/>
<path fill-rule="evenodd" clip-rule="evenodd" d="M411.079 87.2671C409.598 84.5831 409.033 82.4194 409.033 80.958C409.033 79.4965 409.392 79.0773 409.757 78.7387C410.121 78.4001 411.765 77.3872 412.045 77.1982C412.325 77.0093 413.394 76.6422 414.065 77.606C414.735 78.5699 415.997 80.5051 416.868 81.7906C418.233 83.6116 417.145 84.4109 416.794 84.89C416.147 85.7716 415.775 85.9891 415.775 87.0716C415.775 88.1542 418.802 91.2298 419.525 91.9875C420.244 92.7396 423.26 95.3823 424.194 95.5236C425.135 95.6659 426.395 94.67 426.663 94.4174C428.026 93.3717 428.795 94.1645 429.423 94.5091C430.051 94.8538 432.887 96.6201 433.765 97.2155C434.593 97.8109 434.541 98.7311 434.541 98.7311C434.541 98.7311 433.952 100.448 432.628 101.762C432.303 102.085 431.749 102.466 430.353 102.466C428.958 102.466 427.466 102.211 423.922 100.263C421.022 98.6686 418.257 96.1722 416.81 94.7108C415.31 93.2493 412.771 90.3329 411.079 87.2671Z" fill="white"/>
<path d="M31.2989 19.6149H448.23C454.683 19.6149 459.914 24.846 459.914 31.2989V113.701C459.914 120.154 454.683 125.385 448.23 125.385H31.2989C24.846 125.385 19.6149 120.154 19.6149 113.701V31.2989C19.6149 24.846 24.846 19.6149 31.2989 19.6149Z" fill="#F9F9F9" stroke="#EAEAEA" stroke-width="1.22989"/>
<path d="M49.2735 94.1897V107.104H47.9637V96.7725L42.8904 105.462H42.2448L37.1715 96.8278V107.104H35.8616V94.1897H36.987L42.5953 103.764L48.1482 94.1897H49.2735ZM56.3038 97.3259C57.5706 97.3259 58.5422 97.6457 59.2186 98.2852C59.895 98.9125 60.2333 99.8472 60.2333 101.089V107.104H58.9788V105.591C58.6836 106.095 58.247 106.489 57.669 106.771C57.1032 107.054 56.4268 107.196 55.6396 107.196C54.5573 107.196 53.6964 106.937 53.0569 106.421C52.4173 105.904 52.0976 105.222 52.0976 104.373C52.0976 103.549 52.3927 102.885 52.9831 102.381C53.5857 101.877 54.5389 101.624 55.8426 101.624H58.9234V101.034C58.9234 100.198 58.6898 99.5643 58.2224 99.1339C57.755 98.6911 57.0725 98.4697 56.1746 98.4697C55.5597 98.4697 54.9694 98.5743 54.4036 98.7833C53.8379 98.9801 53.3521 99.2568 52.9462 99.6135L52.3558 98.6358C52.8478 98.2176 53.4381 97.8978 54.1269 97.6764C54.8156 97.4428 55.5413 97.3259 56.3038 97.3259ZM55.8426 106.163C56.5805 106.163 57.2139 105.997 57.7427 105.665C58.2716 105.32 58.6652 104.828 58.9234 104.189V102.602H55.8795C54.2191 102.602 53.389 103.18 53.389 104.336C53.389 104.902 53.6042 105.351 54.0346 105.683C54.4651 106.003 55.0677 106.163 55.8426 106.163ZM68.4399 97.3259C69.6574 97.3259 70.6229 97.6826 71.3362 98.3959C72.0619 99.097 72.4247 100.124 72.4247 101.477V107.104H71.1149V101.606C71.1149 100.597 70.8627 99.8287 70.3585 99.2999C69.8542 98.771 69.1347 98.5066 68.2 98.5066C67.1546 98.5066 66.3245 98.8202 65.7095 99.4475C65.1069 100.062 64.8056 100.917 64.8056 102.012V107.104H63.4957V97.3997H64.7502V99.1892C65.1069 98.5989 65.5988 98.1438 66.2261 97.824C66.8656 97.492 67.6035 97.3259 68.4399 97.3259ZM75.8332 105.185C76.116 105.185 76.3497 105.283 76.5342 105.48C76.7187 105.665 76.8109 105.898 76.8109 106.181C76.8109 106.329 76.7863 106.489 76.7371 106.661C76.7002 106.833 76.6387 107.03 76.5526 107.251L75.7778 109.797H74.8923L75.5195 107.122C75.3228 107.06 75.1629 106.95 75.0399 106.79C74.9169 106.618 74.8554 106.415 74.8554 106.181C74.8554 105.898 74.9476 105.665 75.1321 105.48C75.3166 105.283 75.5503 105.185 75.8332 105.185ZM87.3566 99.7242C88.7094 99.798 89.7364 100.167 90.4374 100.831C91.1508 101.483 91.5074 102.338 91.5074 103.395C91.5074 104.133 91.3291 104.791 90.9724 105.369C90.6157 105.935 90.0869 106.384 89.3859 106.716C88.6848 107.048 87.8301 107.214 86.8216 107.214C85.8868 107.214 85.0013 107.067 84.165 106.771C83.341 106.464 82.6768 106.058 82.1726 105.554L82.8183 104.502C83.2487 104.945 83.8206 105.308 84.534 105.591C85.2473 105.861 86.0098 105.997 86.8216 105.997C87.8793 105.997 88.6971 105.769 89.2752 105.314C89.8532 104.847 90.1422 104.207 90.1422 103.395C90.1422 102.596 89.8532 101.969 89.2752 101.514C88.6971 101.059 87.8239 100.831 86.6555 100.831H85.7331V99.8533L89.3121 95.3704H82.7076V94.1897H91.0093V95.1306L87.3566 99.7242ZM98.2309 107.214C97.2347 107.214 96.3431 106.95 95.5559 106.421C94.7811 105.892 94.1723 105.136 93.7296 104.152C93.2991 103.156 93.0839 101.987 93.0839 100.647C93.0839 99.306 93.2991 98.1438 93.7296 97.1599C94.1723 96.1637 94.7811 95.4012 95.5559 94.8723C96.3431 94.3435 97.2347 94.079 98.2309 94.079C99.2272 94.079 100.113 94.3435 100.887 94.8723C101.675 95.4012 102.29 96.1637 102.732 97.1599C103.175 98.1438 103.396 99.306 103.396 100.647C103.396 101.987 103.175 103.156 102.732 104.152C102.29 105.136 101.675 105.892 100.887 106.421C100.113 106.95 99.2272 107.214 98.2309 107.214ZM98.2309 105.997C98.9812 105.997 99.6392 105.788 100.205 105.369C100.783 104.951 101.232 104.342 101.552 103.543C101.871 102.744 102.031 101.778 102.031 100.647C102.031 99.5151 101.871 98.5497 101.552 97.7502C101.232 96.9508 100.783 96.342 100.205 95.9239C99.6392 95.5057 98.9812 95.2966 98.2309 95.2966C97.4807 95.2966 96.8166 95.5057 96.2385 95.9239C95.6728 96.342 95.23 96.9508 94.9103 97.7502C94.5905 98.5497 94.4306 99.5151 94.4306 100.647C94.4306 101.778 94.5905 102.744 94.9103 103.543C95.23 104.342 95.6728 104.951 96.2385 105.369C96.8166 105.788 97.4807 105.997 98.2309 105.997ZM118.558 97.3997L113.706 108.266C113.312 109.176 112.857 109.822 112.341 110.203C111.824 110.584 111.203 110.775 110.477 110.775C110.01 110.775 109.573 110.701 109.168 110.553C108.762 110.406 108.411 110.184 108.116 109.889L108.725 108.911C109.217 109.403 109.807 109.649 110.496 109.649C110.939 109.649 111.314 109.526 111.621 109.28C111.941 109.034 112.236 108.616 112.507 108.026L112.931 107.085L108.596 97.3997H109.961L113.614 105.646L117.266 97.3997H118.558ZM128.286 102.657H120.169C120.243 103.666 120.63 104.484 121.331 105.111C122.032 105.726 122.918 106.034 123.988 106.034C124.591 106.034 125.144 105.929 125.648 105.72C126.153 105.499 126.589 105.179 126.958 104.761L127.696 105.609C127.266 106.126 126.724 106.519 126.073 106.79C125.433 107.06 124.726 107.196 123.951 107.196C122.955 107.196 122.069 106.987 121.294 106.569C120.532 106.138 119.935 105.548 119.505 104.797C119.075 104.047 118.859 103.199 118.859 102.252C118.859 101.305 119.062 100.456 119.468 99.7058C119.886 98.9555 120.452 98.3713 121.165 97.9532C121.891 97.535 122.703 97.3259 123.601 97.3259C124.498 97.3259 125.304 97.535 126.017 97.9532C126.731 98.3713 127.29 98.9555 127.696 99.7058C128.102 100.444 128.305 101.292 128.305 102.252L128.286 102.657ZM123.601 98.4513C122.666 98.4513 121.879 98.7526 121.239 99.3552C120.612 99.9456 120.255 100.72 120.169 101.68H127.05C126.964 100.72 126.601 99.9456 125.962 99.3552C125.335 98.7526 124.548 98.4513 123.601 98.4513ZM133.8 97.3259C135.067 97.3259 136.038 97.6457 136.715 98.2852C137.391 98.9125 137.729 99.8472 137.729 101.089V107.104H136.475V105.591C136.18 106.095 135.743 106.489 135.165 106.771C134.599 107.054 133.923 107.196 133.136 107.196C132.054 107.196 131.193 106.937 130.553 106.421C129.914 105.904 129.594 105.222 129.594 104.373C129.594 103.549 129.889 102.885 130.479 102.381C131.082 101.877 132.035 101.624 133.339 101.624H136.42V101.034C136.42 100.198 136.186 99.5643 135.719 99.1339C135.251 98.6911 134.569 98.4697 133.671 98.4697C133.056 98.4697 132.466 98.5743 131.9 98.7833C131.334 98.9801 130.848 99.2568 130.442 99.6135L129.852 98.6358C130.344 98.2176 130.934 97.8978 131.623 97.6764C132.312 97.4428 133.037 97.3259 133.8 97.3259ZM133.339 106.163C134.077 106.163 134.71 105.997 135.239 105.665C135.768 105.32 136.161 104.828 136.42 104.189V102.602H133.376C131.715 102.602 130.885 103.18 130.885 104.336C130.885 104.902 131.1 105.351 131.531 105.683C131.961 106.003 132.564 106.163 133.339 106.163ZM142.246 99.2999C142.554 98.6481 143.009 98.1561 143.612 97.824C144.226 97.492 144.983 97.3259 145.881 97.3259V98.5989L145.567 98.5804C144.546 98.5804 143.747 98.894 143.169 99.5213C142.591 100.149 142.302 101.028 142.302 102.159V107.104H140.992V97.3997H142.246V99.2999ZM150.63 107.196C149.843 107.196 149.087 107.085 148.361 106.864C147.648 106.63 147.088 106.341 146.682 105.997L147.273 104.964C147.679 105.283 148.189 105.548 148.804 105.757C149.419 105.954 150.058 106.052 150.723 106.052C151.608 106.052 152.26 105.917 152.678 105.646C153.109 105.363 153.324 104.97 153.324 104.465C153.324 104.109 153.207 103.832 152.973 103.635C152.74 103.426 152.444 103.272 152.088 103.174C151.731 103.063 151.258 102.959 150.667 102.86C149.88 102.713 149.247 102.565 148.767 102.418C148.287 102.258 147.875 101.993 147.531 101.624C147.199 101.255 147.033 100.745 147.033 100.093C147.033 99.2814 147.371 98.6173 148.048 98.1008C148.724 97.5842 149.665 97.3259 150.87 97.3259C151.497 97.3259 152.125 97.412 152.752 97.5842C153.379 97.7441 153.896 97.9593 154.302 98.2299L153.73 99.2814C152.93 98.728 151.977 98.4513 150.87 98.4513C150.034 98.4513 149.401 98.5989 148.97 98.894C148.552 99.1892 148.343 99.5766 148.343 100.056C148.343 100.425 148.46 100.72 148.693 100.942C148.939 101.163 149.241 101.329 149.597 101.44C149.954 101.538 150.446 101.643 151.073 101.754C151.848 101.901 152.469 102.049 152.936 102.196C153.404 102.344 153.803 102.596 154.136 102.953C154.468 103.309 154.634 103.801 154.634 104.429C154.634 105.277 154.277 105.954 153.564 106.458C152.863 106.95 151.885 107.196 150.63 107.196ZM165.259 107.196C164.325 107.196 163.482 106.987 162.732 106.569C161.982 106.138 161.391 105.548 160.961 104.797C160.531 104.047 160.315 103.199 160.315 102.252C160.315 101.305 160.531 100.456 160.961 99.7058C161.391 98.9555 161.982 98.3713 162.732 97.9532C163.482 97.535 164.325 97.3259 165.259 97.3259C166.194 97.3259 167.037 97.535 167.787 97.9532C168.537 98.3713 169.121 98.9555 169.539 99.7058C169.97 100.456 170.185 101.305 170.185 102.252C170.185 103.199 169.97 104.047 169.539 104.797C169.121 105.548 168.537 106.138 167.787 106.569C167.037 106.987 166.194 107.196 165.259 107.196ZM165.259 106.034C165.948 106.034 166.563 105.88 167.104 105.572C167.658 105.253 168.088 104.804 168.396 104.226C168.703 103.648 168.857 102.99 168.857 102.252C168.857 101.514 168.703 100.856 168.396 100.278C168.088 99.6996 167.658 99.2568 167.104 98.9494C166.563 98.6296 165.948 98.4697 165.259 98.4697C164.571 98.4697 163.95 98.6296 163.396 98.9494C162.855 99.2568 162.425 99.6996 162.105 100.278C161.797 100.856 161.644 101.514 161.644 102.252C161.644 102.99 161.797 103.648 162.105 104.226C162.425 104.804 162.855 105.253 163.396 105.572C163.95 105.88 164.571 106.034 165.259 106.034ZM172.564 93.4149H173.874V107.104H172.564V93.4149ZM186.078 93.4149V107.104H184.824V105.185C184.43 105.837 183.908 106.335 183.256 106.679C182.616 107.024 181.891 107.196 181.079 107.196C180.169 107.196 179.345 106.987 178.607 106.569C177.869 106.15 177.291 105.566 176.873 104.816C176.455 104.066 176.246 103.211 176.246 102.252C176.246 101.292 176.455 100.438 176.873 99.6873C177.291 98.9371 177.869 98.359 178.607 97.9532C179.345 97.535 180.169 97.3259 181.079 97.3259C181.866 97.3259 182.573 97.492 183.201 97.824C183.84 98.1438 184.363 98.6173 184.769 99.2445V93.4149H186.078ZM181.19 106.034C181.866 106.034 182.475 105.88 183.016 105.572C183.569 105.253 184 104.804 184.307 104.226C184.627 103.648 184.787 102.99 184.787 102.252C184.787 101.514 184.627 100.856 184.307 100.278C184 99.6996 183.569 99.2568 183.016 98.9494C182.475 98.6296 181.866 98.4697 181.19 98.4697C180.501 98.4697 179.88 98.6296 179.326 98.9494C178.785 99.2568 178.355 99.6996 178.035 100.278C177.728 100.856 177.574 101.514 177.574 102.252C177.574 102.99 177.728 103.648 178.035 104.226C178.355 104.804 178.785 105.253 179.326 105.572C179.88 105.88 180.501 106.034 181.19 106.034Z" fill="#333333"/>
<path d="M44.3848 77.0386C45.135 77.2477 45.7253 77.629 46.1558 78.1824C46.5862 78.7236 46.8015 79.4123 46.8015 80.2486C46.8015 81.3678 46.3772 82.2287 45.5285 82.8314C44.6922 83.434 43.4685 83.7354 41.8573 83.7354H35.6956V70.8216H41.4884C42.9642 70.8216 44.1019 71.1167 44.9013 71.7071C45.713 72.2974 46.1189 73.1153 46.1189 74.1607C46.1189 74.8371 45.959 75.4213 45.6392 75.9133C45.3318 76.4052 44.9136 76.7804 44.3848 77.0386ZM37.5404 72.3159V76.4483H41.3223C42.2694 76.4483 42.995 76.2761 43.4992 75.9317C44.0158 75.5751 44.2741 75.0585 44.2741 74.3821C44.2741 73.7056 44.0158 73.1952 43.4992 72.8509C42.995 72.4942 42.2694 72.3159 41.3223 72.3159H37.5404ZM41.7835 82.241C42.8289 82.241 43.6161 82.0689 44.1449 81.7245C44.6738 81.3801 44.9382 80.839 44.9382 80.101C44.9382 78.6621 43.8866 77.9426 41.7835 77.9426H37.5404V82.241H41.7835ZM50.8263 75.5997C51.1338 75.0339 51.5889 74.6035 52.1915 74.3083C52.7941 74.0131 53.5259 73.8655 54.3868 73.8655V75.5812C54.2885 75.5689 54.1532 75.5628 53.981 75.5628C53.0217 75.5628 52.2653 75.8518 51.7118 76.4298C51.1707 76.9956 50.9001 77.8073 50.9001 78.865V83.7354H49.1291V73.9578H50.8263V75.5997ZM65.5386 73.9578V83.7354H63.8598V82.2595C63.5032 82.7637 63.0297 83.1573 62.4393 83.4402C61.8613 83.7108 61.2279 83.846 60.5391 83.846C59.2355 83.846 58.2085 83.4894 57.4583 82.776C56.7081 82.0504 56.3329 80.9866 56.3329 79.5845V73.9578H58.104V79.3816C58.104 80.3286 58.3315 81.0481 58.7866 81.54C59.2416 82.0197 59.8935 82.2595 60.7421 82.2595C61.6768 82.2595 62.4147 81.9766 62.9559 81.4109C63.497 80.8451 63.7676 80.0457 63.7676 79.0126V73.9578H65.5386ZM73.8605 73.8655C75.1027 73.8655 76.0866 74.2283 76.8122 74.954C77.5501 75.6673 77.9191 76.7189 77.9191 78.1086V83.7354H76.1481V78.3116C76.1481 77.3645 75.9205 76.6512 75.4655 76.1716C75.0104 75.6919 74.3586 75.4521 73.51 75.4521C72.5507 75.4521 71.7943 75.7349 71.2408 76.3007C70.6874 76.8541 70.4107 77.6536 70.4107 78.699V83.7354H68.6396V73.9578H70.3369V75.4336C70.6935 74.9294 71.1732 74.542 71.7758 74.2714C72.3908 74.0008 73.0857 73.8655 73.8605 73.8655ZM87.5285 83.8829C86.7537 83.8829 86.0342 83.7231 85.3701 83.4033C84.706 83.0712 84.171 82.61 83.7651 82.0197L84.8351 80.7652C85.5484 81.786 86.4462 82.2964 87.5285 82.2964C88.2542 82.2964 88.8015 82.075 89.1704 81.6322C89.5517 81.1895 89.7423 80.5377 89.7423 79.6767V72.4266H85.0749V70.8216H91.5687V79.5845C91.5687 81.0112 91.2243 82.0873 90.5356 82.8129C89.8592 83.5263 88.8568 83.8829 87.5285 83.8829ZM103.911 73.9578V83.7354H102.232V82.2595C101.876 82.7637 101.402 83.1573 100.812 83.4402C100.234 83.7108 99.6004 83.846 98.9117 83.846C97.608 83.846 96.581 83.4894 95.8308 82.776C95.0806 82.0504 94.7055 80.9866 94.7055 79.5845V73.9578H96.4765V79.3816C96.4765 80.3286 96.704 81.0481 97.1591 81.54C97.6141 82.0197 98.266 82.2595 99.1146 82.2595C100.049 82.2595 100.787 81.9766 101.328 81.4109C101.87 80.8451 102.14 80.0457 102.14 79.0126V73.9578H103.911ZM107.012 70.0467H108.783V83.7354H107.012V70.0467ZM120.731 78.9019C120.731 79.0372 120.719 79.2155 120.694 79.4369H112.761C112.872 80.2978 113.247 80.9927 113.887 81.5216C114.538 82.0381 115.344 82.2964 116.303 82.2964C117.472 82.2964 118.412 81.9028 119.126 81.1157L120.104 82.2595C119.661 82.776 119.107 83.1696 118.443 83.4402C117.791 83.7108 117.06 83.846 116.248 83.846C115.215 83.846 114.299 83.637 113.499 83.2188C112.7 82.7883 112.079 82.1918 111.636 81.4293C111.205 80.6668 110.99 79.8059 110.99 78.8466C110.99 77.8995 111.199 77.0448 111.617 76.2822C112.048 75.5197 112.632 74.9294 113.37 74.5112C114.12 74.0808 114.963 73.8655 115.897 73.8655C116.832 73.8655 117.662 74.0808 118.388 74.5112C119.126 74.9294 119.698 75.5197 120.104 76.2822C120.522 77.0448 120.731 77.918 120.731 78.9019ZM115.897 75.3598C115.049 75.3598 114.335 75.6181 113.757 76.1347C113.192 76.6512 112.86 77.3277 112.761 78.164H119.034C118.935 77.3399 118.597 76.6697 118.019 76.1531C117.453 75.6243 116.746 75.3598 115.897 75.3598ZM125.724 83.846C124.924 83.846 124.156 83.7415 123.418 83.5324C122.68 83.311 122.102 83.0343 121.683 82.7022L122.421 81.3002C122.852 81.6077 123.375 81.8536 123.99 82.0381C124.604 82.2226 125.226 82.3148 125.853 82.3148C127.402 82.3148 128.177 81.8721 128.177 80.9866C128.177 80.6914 128.073 80.4577 127.864 80.2855C127.655 80.1133 127.39 79.9904 127.07 79.9166C126.763 79.8305 126.32 79.7382 125.742 79.6398C124.955 79.5168 124.309 79.3754 123.805 79.2155C123.313 79.0556 122.889 78.7851 122.532 78.4038C122.175 78.0225 121.997 77.4875 121.997 76.7988C121.997 75.9133 122.366 75.2061 123.104 74.6772C123.842 74.1361 124.832 73.8655 126.074 73.8655C126.726 73.8655 127.378 73.9455 128.03 74.1054C128.682 74.2652 129.217 74.4805 129.635 74.751L128.878 76.1531C128.079 75.6366 127.138 75.3783 126.056 75.3783C125.305 75.3783 124.734 75.5013 124.34 75.7472C123.946 75.9932 123.75 76.3191 123.75 76.725C123.75 77.0448 123.86 77.2969 124.082 77.4814C124.303 77.6659 124.574 77.8012 124.893 77.8872C125.226 77.9733 125.687 78.0717 126.277 78.1824C127.064 78.3177 127.698 78.4653 128.177 78.6252C128.669 78.7728 129.087 79.031 129.432 79.4C129.776 79.769 129.948 80.2855 129.948 80.9497C129.948 81.8352 129.567 82.5424 128.805 83.0712C128.054 83.5878 127.027 83.846 125.724 83.846Z" fill="#333333"/>
<g clip-path="url(#clip0)">
<path d="M413.549 40.531C414.605 40.531 415.441 40.8401 416.06 41.4583C416.689 42.0659 417.003 42.9559 417.003 44.1284V49.0049H415.868V44.2403C415.868 43.3663 415.649 42.7001 415.212 42.2417C414.775 41.7834 414.152 41.5542 413.342 41.5542C412.436 41.5542 411.716 41.826 411.183 42.3697C410.661 42.9026 410.4 43.6434 410.4 44.5921V49.0049H409.265V40.5949H410.352V42.1458C410.661 41.6342 411.087 41.2398 411.631 40.9627C412.185 40.6749 412.825 40.531 413.549 40.531ZM423.455 49.0848C422.645 49.0848 421.915 48.9036 421.265 48.5412C420.615 48.1682 420.103 47.6565 419.73 47.0063C419.357 46.3561 419.17 45.6206 419.17 44.7999C419.17 43.9792 419.357 43.2437 419.73 42.5935C420.103 41.9433 420.615 41.437 421.265 41.0746C421.915 40.7122 422.645 40.531 423.455 40.531C424.265 40.531 424.996 40.7122 425.646 41.0746C426.296 41.437 426.802 41.9433 427.165 42.5935C427.538 43.2437 427.724 43.9792 427.724 44.7999C427.724 45.6206 427.538 46.3561 427.165 47.0063C426.802 47.6565 426.296 48.1682 425.646 48.5412C424.996 48.9036 424.265 49.0848 423.455 49.0848ZM423.455 48.0775C424.052 48.0775 424.585 47.9443 425.054 47.6778C425.534 47.4007 425.907 47.0116 426.173 46.5107C426.44 46.0097 426.573 45.4394 426.573 44.7999C426.573 44.1604 426.44 43.5901 426.173 43.0891C425.907 42.5882 425.534 42.2044 425.054 41.938C424.585 41.6608 424.052 41.5223 423.455 41.5223C422.858 41.5223 422.32 41.6608 421.84 41.938C421.371 42.2044 420.998 42.5882 420.721 43.0891C420.455 43.5901 420.322 44.1604 420.322 44.7999C420.322 45.4394 420.455 46.0097 420.721 46.5107C420.998 47.0116 421.371 47.4007 421.84 47.6778C422.32 47.9443 422.858 48.0775 423.455 48.0775ZM442.052 40.5949L438.871 49.0049H437.799L435.145 42.1138L432.491 49.0049H431.42L428.254 40.5949H429.341L431.98 47.7418L434.682 40.5949H435.657L438.343 47.7418L441.013 40.5949H442.052Z" fill="#333333" style="mix-blend-mode:hard-light"/>
<path d="M32.8017 37.5668H34.8803V48.7588H32.8017V37.5668ZM47.7539 37.5668V48.7588H46.0431L39.8716 41.1802V48.7588H37.8091V37.5668H39.5198L45.6914 45.1454V37.5668H47.7539ZM55.8348 48.9187C54.7049 48.9187 53.6816 48.6735 52.765 48.1832C51.859 47.6822 51.1448 46.9947 50.6225 46.1207C50.1109 45.2466 49.8551 44.2607 49.8551 43.1628C49.8551 42.0649 50.1162 41.079 50.6385 40.2049C51.1608 39.3309 51.8749 38.6487 52.781 38.1584C53.6976 37.6574 54.7209 37.4069 55.8508 37.4069C56.7674 37.4069 57.6042 37.5668 58.361 37.8866C59.1177 38.2064 59.7573 38.67 60.2796 39.2776L58.9365 40.5407C58.1265 39.6667 57.1298 39.2296 55.9467 39.2296C55.1792 39.2296 54.4917 39.4002 53.8842 39.7413C53.2766 40.0717 52.8023 40.5354 52.4612 41.1323C52.1201 41.7292 51.9496 42.406 51.9496 43.1628C51.9496 43.9196 52.1201 44.5964 52.4612 45.1934C52.8023 45.7903 53.2766 46.2593 53.8842 46.6003C54.4917 46.9308 55.1792 47.096 55.9467 47.096C57.1298 47.096 58.1265 46.6536 58.9365 45.7689L60.2796 47.048C59.7573 47.6556 59.1124 48.1192 58.345 48.439C57.5882 48.7588 56.7514 48.9187 55.8348 48.9187ZM67.1668 48.9187C66.0263 48.9187 64.9977 48.6735 64.081 48.1832C63.1643 47.6822 62.4448 46.9947 61.9226 46.1207C61.4003 45.236 61.1391 44.25 61.1391 43.1628C61.1391 42.0756 61.4003 41.095 61.9226 40.2209C62.4448 39.3362 63.1643 38.6487 64.081 38.1584C64.9977 37.6574 66.0263 37.4069 67.1668 37.4069C68.3073 37.4069 69.3359 37.6574 70.2526 38.1584C71.1692 38.6487 71.8887 39.3309 72.411 40.2049C72.9333 41.079 73.1945 42.0649 73.1945 43.1628C73.1945 44.2607 72.9333 45.2466 72.411 46.1207C71.8887 46.9947 71.1692 47.6822 70.2526 48.1832C69.3359 48.6735 68.3073 48.9187 67.1668 48.9187ZM67.1668 47.096C67.9129 47.096 68.5844 46.9308 69.1813 46.6003C69.7782 46.2593 70.2472 45.7903 70.5883 45.1934C70.9294 44.5858 71.1 43.9089 71.1 43.1628C71.1 42.4167 70.9294 41.7452 70.5883 41.1483C70.2472 40.5407 69.7782 40.0717 69.1813 39.7413C68.5844 39.4002 67.9129 39.2296 67.1668 39.2296C66.4207 39.2296 65.7491 39.4002 65.1522 39.7413C64.5553 40.0717 64.0863 40.5407 63.7452 41.1483C63.4042 41.7452 63.2336 42.4167 63.2336 43.1628C63.2336 43.9089 63.4042 44.5858 63.7452 45.1934C64.0863 45.7903 64.5553 46.2593 65.1522 46.6003C65.7491 46.9308 66.4207 47.096 67.1668 47.096ZM85.5798 48.7588L85.5638 41.3401L81.8865 47.4797H80.9592L77.2818 41.4361V48.7588H75.2992V37.5668H77.01L81.4548 44.9855L85.8197 37.5668H87.5304L87.5464 48.7588H85.5798ZM90.4711 37.5668H92.5496V48.7588H90.4711V37.5668ZM105.423 37.5668V48.7588H103.713L97.5409 41.1802V48.7588H95.4784V37.5668H97.1892L103.361 45.1454V37.5668H105.423ZM115.966 43.0349H117.933V47.4957C117.357 47.954 116.686 48.3058 115.918 48.5509C115.151 48.7961 114.362 48.9187 113.552 48.9187C112.412 48.9187 111.383 48.6735 110.466 48.1832C109.55 47.6822 108.83 46.9947 108.308 46.1207C107.786 45.2466 107.524 44.2607 107.524 43.1628C107.524 42.0649 107.786 41.079 108.308 40.2049C108.83 39.3309 109.55 38.6487 110.466 38.1584C111.394 37.6574 112.433 37.4069 113.584 37.4069C114.522 37.4069 115.375 37.5615 116.142 37.8706C116.91 38.1797 117.555 38.6327 118.077 39.2296L116.766 40.5087C115.913 39.656 114.884 39.2296 113.68 39.2296C112.891 39.2296 112.188 39.3949 111.57 39.7253C110.962 40.0557 110.482 40.5194 110.131 41.1163C109.789 41.7132 109.619 42.3954 109.619 43.1628C109.619 43.9089 109.789 44.5805 110.131 45.1774C110.482 45.7743 110.962 46.2433 111.57 46.5844C112.188 46.9254 112.886 47.096 113.664 47.096C114.538 47.096 115.305 46.9041 115.966 46.5204V43.0349ZM133.29 47.016V48.7588H124.896V37.5668H133.066V39.3096H126.975V42.2195H132.379V43.9303H126.975V47.016H133.29ZM145.79 48.7588L145.774 41.3401L142.096 47.4797H141.169L137.491 41.4361V48.7588H135.509V37.5668H137.22L141.664 44.9855L146.029 37.5668H147.74L147.756 48.7588H145.79ZM159.075 47.016V48.7588H150.681V37.5668H158.851V39.3096H152.759V42.2195H158.163V43.9303H152.759V47.016H159.075ZM168.616 48.7588L166.33 45.4811C166.234 45.4918 166.09 45.4971 165.898 45.4971H163.372V48.7588H161.293V37.5668H165.898C166.868 37.5668 167.71 37.7267 168.424 38.0465C169.149 38.3663 169.703 38.8246 170.087 39.4215C170.471 40.0184 170.663 40.7272 170.663 41.548C170.663 42.39 170.455 43.1148 170.039 43.7224C169.634 44.33 169.048 44.783 168.28 45.0814L170.855 48.7588H168.616ZM168.568 41.548C168.568 40.8338 168.334 40.2849 167.865 39.9012C167.396 39.5174 166.708 39.3256 165.802 39.3256H163.372V43.7864H165.802C166.708 43.7864 167.396 43.5945 167.865 43.2108C168.334 42.8164 168.568 42.2621 168.568 41.548ZM180.532 43.0349H182.499V47.4957C181.923 47.954 181.252 48.3058 180.484 48.5509C179.717 48.7961 178.928 48.9187 178.118 48.9187C176.978 48.9187 175.949 48.6735 175.032 48.1832C174.116 47.6822 173.396 46.9947 172.874 46.1207C172.352 45.2466 172.09 44.2607 172.09 43.1628C172.09 42.0649 172.352 41.079 172.874 40.2049C173.396 39.3309 174.116 38.6487 175.032 38.1584C175.96 37.6574 176.999 37.4069 178.15 37.4069C179.088 37.4069 179.941 37.5615 180.708 37.8706C181.476 38.1797 182.12 38.6327 182.643 39.2296L181.332 40.5087C180.479 39.656 179.45 39.2296 178.246 39.2296C177.457 39.2296 176.754 39.3949 176.135 39.7253C175.528 40.0557 175.048 40.5194 174.696 41.1163C174.355 41.7132 174.185 42.3954 174.185 43.1628C174.185 43.9089 174.355 44.5805 174.696 45.1774C175.048 45.7743 175.528 46.2433 176.135 46.5844C176.754 46.9254 177.452 47.096 178.23 47.096C179.104 47.096 179.871 46.9041 180.532 46.5204V43.0349ZM193.536 47.016V48.7588H185.142V37.5668H193.312V39.3096H187.22V42.2195H192.625V43.9303H187.22V47.016H193.536ZM205.699 37.5668V48.7588H203.989L197.817 41.1802V48.7588H195.755V37.5668H197.465L203.637 45.1454V37.5668H205.699ZM213.78 48.9187C212.65 48.9187 211.627 48.6735 210.71 48.1832C209.804 47.6822 209.09 46.9947 208.568 46.1207C208.056 45.2466 207.801 44.2607 207.801 43.1628C207.801 42.0649 208.062 41.079 208.584 40.2049C209.106 39.3309 209.82 38.6487 210.726 38.1584C211.643 37.6574 212.666 37.4069 213.796 37.4069C214.713 37.4069 215.55 37.5668 216.306 37.8866C217.063 38.2064 217.703 38.67 218.225 39.2776L216.882 40.5407C216.072 39.6667 215.075 39.2296 213.892 39.2296C213.125 39.2296 212.437 39.4002 211.83 39.7413C211.222 40.0717 210.748 40.5354 210.407 41.1323C210.066 41.7292 209.895 42.406 209.895 43.1628C209.895 43.9196 210.066 44.5964 210.407 45.1934C210.748 45.7903 211.222 46.2593 211.83 46.6003C212.437 46.9308 213.125 47.096 213.892 47.096C215.075 47.096 216.072 46.6536 216.882 45.7689L218.225 47.048C217.703 47.6556 217.058 48.1192 216.29 48.439C215.534 48.7588 214.697 48.9187 213.78 48.9187ZM224.791 44.8096V48.7588H222.712V44.8416L218.315 37.5668H220.538L223.815 43.0189L227.125 37.5668H229.171L224.791 44.8096ZM239.935 48.9187C238.805 48.9187 237.782 48.6735 236.865 48.1832C235.959 47.6822 235.245 46.9947 234.723 46.1207C234.211 45.2466 233.955 44.2607 233.955 43.1628C233.955 42.0649 234.216 41.079 234.739 40.2049C235.261 39.3309 235.975 38.6487 236.881 38.1584C237.798 37.6574 238.821 37.4069 239.951 37.4069C240.867 37.4069 241.704 37.5668 242.461 37.8866C243.218 38.2064 243.857 38.67 244.38 39.2776L243.037 40.5407C242.227 39.6667 241.23 39.2296 240.047 39.2296C239.279 39.2296 238.592 39.4002 237.984 39.7413C237.377 40.0717 236.902 40.5354 236.561 41.1323C236.22 41.7292 236.05 42.406 236.05 43.1628C236.05 43.9196 236.22 44.5964 236.561 45.1934C236.902 45.7903 237.377 46.2593 237.984 46.6003C238.592 46.9308 239.279 47.096 240.047 47.096C241.23 47.096 242.227 46.6536 243.037 45.7689L244.38 47.048C243.857 47.6556 243.212 48.1192 242.445 48.439C241.688 48.7588 240.852 48.9187 239.935 48.9187ZM253.297 46.1687H247.701L246.598 48.7588H244.456L249.492 37.5668H251.539L256.591 48.7588H254.417L253.297 46.1687ZM252.61 44.5378L250.499 39.6453L248.405 44.5378H252.61ZM257.916 37.5668H259.994V47.0001H265.846V48.7588H257.916V37.5668ZM267.389 37.5668H269.467V47.0001H275.319V48.7588H267.389V37.5668Z" fill="#EB5757"/>
</g>
</g>
<defs>
<filter id="filter0_d" x="0.551723" y="0.551723" width="478.425" height="143.897" filterUnits="userSpaceOnUse" color-interpolation-filters="sRGB">
<feFlood flood-opacity="0" result="BackgroundImageFix"/>
<feColorMatrix in="SourceAlpha" type="matrix" values="0 0 0 0 0 0 0 0 0 0 0 0 0 0 0 0 0 0 127 0"/>
<feOffset/>
<feGaussianBlur stdDeviation="9.22414"/>
<feColorMatrix type="matrix" values="0 0 0 0 0 0 0 0 0 0 0 0 0 0 0 0 0 0 0.1 0"/>
<feBlend mode="normal" in2="BackgroundImageFix" result="effect1_dropShadow"/>
<feBlend mode="normal" in="SourceGraphic" in2="effect1_dropShadow" result="shape"/>
</filter>
<linearGradient id="paint0_linear" x1="421.787" y1="65.7354" x2="421.787" y2="113.701" gradientUnits="userSpaceOnUse">
<stop stop-color="#4CD964"/>
<stop offset="1" stop-color="#41B054"/>
</linearGradient>
<clipPath id="clip0">
<rect x="31.2988" y="31.2988" width="410.782" height="24.5977" fill="white"/>
</clipPath>
</defs>
</svg>
