<svg viewBox="0 0 1043 404" fill="none" xmlns="http://www.w3.org/2000/svg">
<g opacity="0.95" filter="url(#filter0_d)">
<rect x="67.0005" y="67" width="909" height="270.315" rx="21.2012" fill="url(#paint0_linear)"/>
<rect x="67.0005" y="67" width="909" height="270.315" rx="21.2012" fill="#202020" fill-opacity="0.6"/>
</g>
<rect x="716.286" y="109.402" width="185.51" height="185.51" rx="92.7551" fill="#00CA9D"/>
<path d="M833.68 176.941C834.992 177.217 835.647 178.011 835.647 179.322C835.647 192.573 830.954 203.891 821.568 213.277C812.182 222.663 800.864 227.356 787.613 227.356C786.302 227.356 785.508 226.7 785.232 225.389L782.748 214.623C782.403 213.312 782.886 212.38 784.197 211.828L795.792 206.859C796.896 206.376 797.862 206.617 798.69 207.583L803.763 213.795C807.835 211.931 811.423 209.412 814.529 206.238C817.704 203.063 820.223 199.474 822.086 195.471L815.875 190.295C814.908 189.536 814.667 188.57 815.15 187.397L820.119 175.802C820.671 174.56 821.603 174.112 822.914 174.457L833.68 176.941Z" fill="white"/>
<path d="M149.473 228.295C147.692 228.295 146.038 227.928 144.512 227.193C142.985 226.43 141.756 225.37 140.823 224.013L143.282 221.129C144.922 223.476 146.985 224.649 149.473 224.649C151.141 224.649 152.399 224.14 153.247 223.122C154.123 222.105 154.561 220.606 154.561 218.628V201.964H143.834V198.275H158.759V218.416C158.759 221.695 157.968 224.168 156.385 225.836C154.83 227.476 152.526 228.295 149.473 228.295ZM187.749 205.483V227.956H183.891V224.564C183.071 225.723 181.983 226.628 180.626 227.278C179.297 227.9 177.841 228.211 176.258 228.211C173.262 228.211 170.902 227.391 169.177 225.751C167.453 224.083 166.591 221.638 166.591 218.416V205.483H170.661V217.949C170.661 220.126 171.184 221.78 172.23 222.91C173.276 224.013 174.774 224.564 176.725 224.564C178.873 224.564 180.569 223.914 181.813 222.614C183.057 221.313 183.679 219.476 183.679 217.101V205.483H187.749ZM195.499 196.494H199.569V227.956H195.499V196.494ZM207.342 205.483H211.412V227.956H207.342V205.483ZM209.377 201.158C208.585 201.158 207.921 200.904 207.384 200.395C206.875 199.886 206.621 199.264 206.621 198.529C206.621 197.794 206.875 197.172 207.384 196.663C207.921 196.126 208.585 195.858 209.377 195.858C210.168 195.858 210.819 196.112 211.327 196.621C211.865 197.101 212.133 197.709 212.133 198.444C212.133 199.207 211.865 199.858 211.327 200.395C210.819 200.904 210.168 201.158 209.377 201.158ZM239.495 216.847C239.495 217.158 239.467 217.568 239.41 218.076H221.177C221.432 220.055 222.294 221.652 223.764 222.868C225.262 224.055 227.114 224.649 229.319 224.649C232.004 224.649 234.167 223.744 235.806 221.935L238.054 224.564C237.036 225.751 235.764 226.656 234.237 227.278C232.739 227.9 231.057 228.211 229.191 228.211C226.817 228.211 224.711 227.73 222.873 226.769C221.036 225.78 219.608 224.409 218.591 222.656C217.601 220.903 217.107 218.925 217.107 216.72C217.107 214.543 217.587 212.578 218.548 210.826C219.538 209.073 220.881 207.716 222.577 206.755C224.301 205.766 226.237 205.271 228.386 205.271C230.534 205.271 232.442 205.766 234.11 206.755C235.806 207.716 237.121 209.073 238.054 210.826C239.015 212.578 239.495 214.585 239.495 216.847ZM228.386 208.706C226.435 208.706 224.796 209.299 223.467 210.486C222.167 211.674 221.404 213.228 221.177 215.151H235.594C235.368 213.257 234.591 211.716 233.262 210.529C231.962 209.313 230.336 208.706 228.386 208.706ZM282.655 198.275V227.956H278.415V214.727H261.369V227.956H257.129V198.275H261.369V211.038H278.415V198.275H282.655ZM300.571 228.211C298.338 228.211 296.331 227.716 294.55 226.727C292.769 225.737 291.369 224.38 290.352 222.656C289.362 220.903 288.868 218.925 288.868 216.72C288.868 214.515 289.362 212.55 290.352 210.826C291.369 209.073 292.769 207.716 294.55 206.755C296.331 205.766 298.338 205.271 300.571 205.271C302.804 205.271 304.797 205.766 306.55 206.755C308.33 207.716 309.716 209.073 310.705 210.826C311.723 212.55 312.231 214.515 312.231 216.72C312.231 218.925 311.723 220.903 310.705 222.656C309.716 224.38 308.33 225.737 306.55 226.727C304.797 227.716 302.804 228.211 300.571 228.211ZM300.571 224.649C302.012 224.649 303.299 224.324 304.429 223.674C305.588 222.995 306.493 222.062 307.143 220.875C307.793 219.659 308.118 218.274 308.118 216.72C308.118 215.165 307.793 213.794 307.143 212.607C306.493 211.391 305.588 210.458 304.429 209.808C303.299 209.158 302.012 208.833 300.571 208.833C299.129 208.833 297.829 209.158 296.67 209.808C295.539 210.458 294.634 211.391 293.956 212.607C293.306 213.794 292.981 215.165 292.981 216.72C292.981 218.274 293.306 219.659 293.956 220.875C294.634 222.062 295.539 222.995 296.67 223.674C297.829 224.324 299.129 224.649 300.571 224.649ZM351.247 205.483L342.851 227.956H338.95L332.462 210.91L325.89 227.956H321.989L313.636 205.483H317.494L324.024 223.377L330.809 205.483H334.243L340.9 223.462L347.6 205.483H351.247ZM362.857 205.271C365.966 205.271 368.341 206.034 369.98 207.561C371.648 209.087 372.482 211.363 372.482 214.387V227.956H368.624V224.988C367.945 226.034 366.97 226.84 365.698 227.405C364.454 227.942 362.97 228.211 361.246 228.211C358.73 228.211 356.708 227.603 355.182 226.387C353.684 225.172 352.935 223.575 352.935 221.596C352.935 219.617 353.656 218.034 355.097 216.847C356.539 215.631 358.829 215.024 361.966 215.024H368.412V214.218C368.412 212.465 367.903 211.122 366.885 210.19C365.867 209.257 364.369 208.79 362.39 208.79C361.062 208.79 359.761 209.017 358.489 209.469C357.217 209.893 356.143 210.472 355.267 211.207L353.571 208.154C354.73 207.221 356.115 206.515 357.726 206.034C359.337 205.525 361.048 205.271 362.857 205.271ZM361.924 225.073C363.479 225.073 364.821 224.734 365.952 224.055C367.083 223.349 367.903 222.359 368.412 221.087V217.949H362.136C358.687 217.949 356.963 219.108 356.963 221.426C356.963 222.557 357.401 223.447 358.277 224.098C359.154 224.748 360.369 225.073 361.924 225.073ZM383.916 209.257C384.623 207.956 385.669 206.967 387.054 206.289C388.439 205.61 390.121 205.271 392.1 205.271V209.214C391.874 209.186 391.563 209.172 391.167 209.172C388.962 209.172 387.224 209.836 385.952 211.165C384.708 212.465 384.086 214.331 384.086 216.762V227.956H380.015V205.483H383.916V209.257ZM418.111 196.494V227.956H414.21V224.394C413.305 225.638 412.161 226.585 410.775 227.235C409.39 227.886 407.864 228.211 406.196 228.211C404.019 228.211 402.069 227.73 400.344 226.769C398.62 225.808 397.263 224.465 396.274 222.741C395.313 220.988 394.832 218.981 394.832 216.72C394.832 214.458 395.313 212.465 396.274 210.741C397.263 209.017 398.62 207.674 400.344 206.713C402.069 205.752 404.019 205.271 406.196 205.271C407.807 205.271 409.291 205.582 410.648 206.204C412.005 206.797 413.136 207.688 414.04 208.875V196.494H418.111ZM406.535 224.649C407.949 224.649 409.235 224.324 410.394 223.674C411.553 222.995 412.457 222.062 413.108 220.875C413.758 219.659 414.083 218.274 414.083 216.72C414.083 215.165 413.758 213.794 413.108 212.607C412.457 211.391 411.553 210.458 410.394 209.808C409.235 209.158 407.949 208.833 406.535 208.833C405.094 208.833 403.793 209.158 402.634 209.808C401.503 210.458 400.599 211.391 399.92 212.607C399.27 213.794 398.945 215.165 398.945 216.72C398.945 218.274 399.27 219.659 399.92 220.875C400.599 222.062 401.503 222.995 402.634 223.674C403.793 224.324 405.094 224.649 406.535 224.649Z" fill="white"/>
<path d="M175.996 258.599L168.554 280.86H165.215L159.141 263.083L153.067 280.86H149.664L142.222 258.599H145.498L151.508 276.694L157.773 258.599H160.699L166.837 276.789L172.975 258.599H175.996ZM185.386 281.051C183.712 281.051 182.206 280.68 180.871 279.938C179.535 279.196 178.485 278.178 177.722 276.885C176.98 275.57 176.609 274.086 176.609 272.433C176.609 270.779 176.98 269.305 177.722 268.012C178.485 266.698 179.535 265.68 180.871 264.959C182.206 264.217 183.712 263.846 185.386 263.846C187.061 263.846 188.556 264.217 189.87 264.959C191.206 265.68 192.245 266.698 192.987 268.012C193.75 269.305 194.132 270.779 194.132 272.433C194.132 274.086 193.75 275.57 192.987 276.885C192.245 278.178 191.206 279.196 189.87 279.938C188.556 280.68 187.061 281.051 185.386 281.051ZM185.386 278.379C186.468 278.379 187.432 278.136 188.28 277.648C189.15 277.139 189.828 276.44 190.316 275.549C190.803 274.637 191.047 273.599 191.047 272.433C191.047 271.266 190.803 270.238 190.316 269.348C189.828 268.436 189.15 267.736 188.28 267.249C187.432 266.761 186.468 266.517 185.386 266.517C184.305 266.517 183.33 266.761 182.461 267.249C181.613 267.736 180.934 268.436 180.425 269.348C179.938 270.238 179.694 271.266 179.694 272.433C179.694 273.599 179.938 274.637 180.425 275.549C180.934 276.44 181.613 277.139 182.461 277.648C183.33 278.136 184.305 278.379 185.386 278.379ZM219.439 263.846C221.559 263.846 223.234 264.461 224.463 265.691C225.714 266.92 226.34 268.744 226.34 271.16V280.86H223.287V271.51C223.287 269.878 222.905 268.648 222.142 267.821C221.4 266.994 220.329 266.581 218.93 266.581C217.382 266.581 216.152 267.069 215.241 268.044C214.329 268.998 213.873 270.376 213.873 272.178V280.86H210.82V271.51C210.82 269.878 210.439 268.648 209.675 267.821C208.933 266.994 207.863 266.581 206.464 266.581C204.916 266.581 203.686 267.069 202.775 268.044C201.863 268.998 201.407 270.376 201.407 272.178V280.86H198.354V264.005H201.28V266.517C201.895 265.648 202.7 264.991 203.697 264.546C204.693 264.079 205.827 263.846 207.1 263.846C208.414 263.846 209.58 264.111 210.598 264.641C211.615 265.171 212.4 265.945 212.951 266.963C213.587 265.987 214.467 265.224 215.591 264.673C216.735 264.122 218.018 263.846 219.439 263.846ZM247.283 272.528C247.283 272.761 247.262 273.069 247.22 273.45H233.545C233.736 274.934 234.382 276.132 235.485 277.044C236.609 277.934 237.997 278.379 239.651 278.379C241.665 278.379 243.287 277.701 244.517 276.344L246.202 278.316C245.439 279.206 244.485 279.885 243.34 280.351C242.216 280.818 240.955 281.051 239.555 281.051C237.775 281.051 236.195 280.69 234.817 279.97C233.439 279.228 232.368 278.199 231.605 276.885C230.863 275.57 230.492 274.086 230.492 272.433C230.492 270.8 230.852 269.327 231.573 268.012C232.315 266.698 233.322 265.68 234.594 264.959C235.888 264.217 237.34 263.846 238.951 263.846C240.563 263.846 241.994 264.217 243.244 264.959C244.517 265.68 245.502 266.698 246.202 268.012C246.923 269.327 247.283 270.832 247.283 272.528ZM238.951 266.422C237.488 266.422 236.259 266.867 235.262 267.758C234.287 268.648 233.715 269.814 233.545 271.256H244.358C244.188 269.835 243.605 268.68 242.608 267.789C241.633 266.878 240.414 266.422 238.951 266.422ZM260.523 263.846C262.664 263.846 264.36 264.472 265.611 265.722C266.883 266.952 267.519 268.765 267.519 271.16V280.86H264.466V271.51C264.466 269.878 264.074 268.648 263.289 267.821C262.505 266.994 261.381 266.581 259.918 266.581C258.265 266.581 256.961 267.069 256.007 268.044C255.053 268.998 254.576 270.376 254.576 272.178V280.86H251.523V264.005H254.448V266.549C255.063 265.68 255.89 265.012 256.929 264.546C257.989 264.079 259.187 263.846 260.523 263.846ZM273.932 276.694C274.526 276.694 275.013 276.906 275.395 277.33C275.798 277.733 275.999 278.242 275.999 278.857C275.999 279.175 275.957 279.482 275.872 279.779C275.808 280.076 275.671 280.531 275.459 281.146L273.964 285.567H271.96L273.137 280.828C272.734 280.68 272.406 280.436 272.151 280.097C271.918 279.736 271.801 279.323 271.801 278.857C271.801 278.22 272.003 277.701 272.406 277.298C272.809 276.895 273.317 276.694 273.932 276.694ZM303.194 278.093V280.86H287.197V278.697L296.261 269.952C297.363 268.892 298.105 267.98 298.487 267.217C298.868 266.433 299.059 265.648 299.059 264.864C299.059 263.698 298.646 262.797 297.819 262.161C297.013 261.503 295.847 261.175 294.321 261.175C291.861 261.175 289.964 261.98 288.628 263.592L286.466 261.715C287.335 260.655 288.469 259.828 289.869 259.235C291.289 258.641 292.869 258.344 294.607 258.344C296.939 258.344 298.794 258.906 300.172 260.03C301.55 261.132 302.239 262.638 302.239 264.546C302.239 265.733 301.985 266.857 301.476 267.917C300.967 268.977 300.003 270.185 298.582 271.542L291.777 278.093H303.194ZM319.419 269.189C320.691 269.676 321.667 270.376 322.345 271.288C323.024 272.199 323.363 273.291 323.363 274.563C323.363 275.899 323.002 277.065 322.282 278.061C321.561 279.037 320.532 279.789 319.197 280.319C317.861 280.849 316.292 281.114 314.49 281.114C312.709 281.114 311.151 280.849 309.815 280.319C308.501 279.789 307.483 279.037 306.762 278.061C306.041 277.065 305.681 275.899 305.681 274.563C305.681 273.291 306.01 272.199 306.667 271.288C307.345 270.376 308.321 269.676 309.593 269.189C308.575 268.701 307.801 268.055 307.271 267.249C306.741 266.443 306.476 265.489 306.476 264.387C306.476 263.157 306.805 262.086 307.462 261.175C308.14 260.263 309.084 259.563 310.292 259.076C311.501 258.588 312.9 258.344 314.49 258.344C316.101 258.344 317.511 258.588 318.72 259.076C319.949 259.563 320.893 260.263 321.55 261.175C322.229 262.086 322.568 263.157 322.568 264.387C322.568 265.468 322.292 266.422 321.741 267.249C321.211 268.055 320.437 268.701 319.419 269.189ZM314.49 260.92C312.985 260.92 311.798 261.249 310.928 261.906C310.059 262.542 309.624 263.411 309.624 264.514C309.624 265.616 310.048 266.486 310.896 267.122C311.766 267.758 312.964 268.076 314.49 268.076C316.038 268.076 317.246 267.758 318.115 267.122C319.006 266.486 319.451 265.616 319.451 264.514C319.451 263.411 318.995 262.542 318.084 261.906C317.193 261.249 315.995 260.92 314.49 260.92ZM314.49 278.538C316.25 278.538 317.638 278.178 318.656 277.457C319.674 276.715 320.183 275.719 320.183 274.468C320.183 273.238 319.674 272.274 318.656 271.574C317.638 270.853 316.25 270.493 314.49 270.493C312.73 270.493 311.352 270.853 310.356 271.574C309.359 272.274 308.861 273.238 308.861 274.468C308.861 275.719 309.359 276.715 310.356 277.457C311.352 278.178 312.73 278.538 314.49 278.538ZM351.097 264.005L342.924 282.546C342.203 284.263 341.355 285.471 340.38 286.171C339.426 286.871 338.271 287.22 336.914 287.22C336.087 287.22 335.281 287.083 334.497 286.807C333.734 286.553 333.098 286.171 332.589 285.662L333.893 283.372C334.762 284.199 335.769 284.613 336.914 284.613C337.656 284.613 338.271 284.411 338.758 284.008C339.267 283.627 339.723 282.959 340.126 282.005L340.666 280.828L333.225 264.005H336.405L342.288 277.489L348.108 264.005H351.097ZM368.714 272.528C368.714 272.761 368.693 273.069 368.65 273.45H354.975C355.166 274.934 355.813 276.132 356.915 277.044C358.039 277.934 359.428 278.379 361.081 278.379C363.096 278.379 364.717 277.701 365.947 276.344L367.633 278.316C366.869 279.206 365.915 279.885 364.77 280.351C363.647 280.818 362.385 281.051 360.986 281.051C359.205 281.051 357.626 280.69 356.248 279.97C354.869 279.228 353.799 278.199 353.036 276.885C352.294 275.57 351.922 274.086 351.922 272.433C351.922 270.8 352.283 269.327 353.004 268.012C353.746 266.698 354.753 265.68 356.025 264.959C357.318 264.217 358.77 263.846 360.382 263.846C361.993 263.846 363.424 264.217 364.675 264.959C365.947 265.68 366.933 266.698 367.633 268.012C368.353 269.327 368.714 270.832 368.714 272.528ZM360.382 266.422C358.919 266.422 357.689 266.867 356.693 267.758C355.718 268.648 355.145 269.814 354.975 271.256H365.788C365.618 269.835 365.035 268.68 364.039 267.789C363.064 266.878 361.845 266.422 360.382 266.422ZM378.625 263.846C380.957 263.846 382.738 264.419 383.968 265.563C385.219 266.708 385.844 268.415 385.844 270.683V280.86H382.95V278.634C382.441 279.418 381.71 280.023 380.756 280.447C379.823 280.849 378.71 281.051 377.417 281.051C375.53 281.051 374.014 280.595 372.869 279.683C371.745 278.772 371.183 277.574 371.183 276.09C371.183 274.606 371.724 273.418 372.805 272.528C373.887 271.616 375.604 271.16 377.957 271.16H382.791V270.556C382.791 269.242 382.409 268.235 381.646 267.535C380.883 266.835 379.759 266.486 378.275 266.486C377.279 266.486 376.303 266.655 375.349 266.994C374.395 267.312 373.59 267.747 372.933 268.298L371.66 266.009C372.53 265.309 373.569 264.779 374.777 264.419C375.985 264.037 377.268 263.846 378.625 263.846ZM377.925 278.697C379.091 278.697 380.099 278.443 380.947 277.934C381.795 277.404 382.409 276.662 382.791 275.708V273.355H378.084C375.498 273.355 374.205 274.224 374.205 275.963C374.205 276.811 374.533 277.478 375.19 277.966C375.848 278.454 376.759 278.697 377.925 278.697ZM394.42 266.835C394.95 265.86 395.734 265.118 396.773 264.609C397.812 264.1 399.073 263.846 400.557 263.846V266.804C400.388 266.782 400.154 266.772 399.858 266.772C398.204 266.772 396.9 267.27 395.946 268.267C395.013 269.242 394.547 270.641 394.547 272.464V280.86H391.494V264.005H394.42V266.835ZM409.278 281.051C407.9 281.051 406.575 280.871 405.303 280.51C404.031 280.129 403.034 279.652 402.314 279.079L403.586 276.662C404.328 277.192 405.229 277.616 406.289 277.934C407.349 278.252 408.42 278.411 409.501 278.411C412.172 278.411 413.508 277.648 413.508 276.122C413.508 275.613 413.328 275.21 412.967 274.913C412.607 274.616 412.151 274.404 411.6 274.277C411.07 274.129 410.306 273.97 409.31 273.8C407.953 273.588 406.84 273.344 405.971 273.069C405.123 272.793 404.391 272.327 403.776 271.669C403.162 271.012 402.854 270.09 402.854 268.903C402.854 267.376 403.49 266.157 404.762 265.245C406.034 264.313 407.741 263.846 409.882 263.846C411.006 263.846 412.13 263.984 413.253 264.26C414.377 264.535 415.299 264.906 416.02 265.373L414.716 267.789C413.338 266.899 411.716 266.454 409.851 266.454C408.557 266.454 407.571 266.666 406.893 267.09C406.215 267.514 405.875 268.076 405.875 268.775C405.875 269.327 406.066 269.761 406.448 270.079C406.829 270.397 407.296 270.63 407.847 270.779C408.42 270.927 409.215 271.097 410.232 271.288C411.589 271.521 412.681 271.775 413.508 272.051C414.356 272.305 415.077 272.751 415.67 273.387C416.264 274.023 416.561 274.913 416.561 276.058C416.561 277.584 415.904 278.804 414.589 279.715C413.296 280.606 411.526 281.051 409.278 281.051ZM436.136 281.051C434.461 281.051 432.956 280.68 431.62 279.938C430.284 279.196 429.235 278.178 428.472 276.885C427.729 275.57 427.358 274.086 427.358 272.433C427.358 270.779 427.729 269.305 428.472 268.012C429.235 266.698 430.284 265.68 431.62 264.959C432.956 264.217 434.461 263.846 436.136 263.846C437.811 263.846 439.305 264.217 440.62 264.959C441.955 265.68 442.994 266.698 443.736 268.012C444.5 269.305 444.881 270.779 444.881 272.433C444.881 274.086 444.5 275.57 443.736 276.885C442.994 278.178 441.955 279.196 440.62 279.938C439.305 280.68 437.811 281.051 436.136 281.051ZM436.136 278.379C437.217 278.379 438.182 278.136 439.03 277.648C439.899 277.139 440.577 276.44 441.065 275.549C441.553 274.637 441.796 273.599 441.796 272.433C441.796 271.266 441.553 270.238 441.065 269.348C440.577 268.436 439.899 267.736 439.03 267.249C438.182 266.761 437.217 266.517 436.136 266.517C435.054 266.517 434.079 266.761 433.21 267.249C432.362 267.736 431.684 268.436 431.175 269.348C430.687 270.238 430.443 271.266 430.443 272.433C430.443 273.599 430.687 274.637 431.175 275.549C431.684 276.44 432.362 277.139 433.21 277.648C434.079 278.136 435.054 278.379 436.136 278.379ZM449.103 257.263H452.156V280.86H449.103V257.263ZM473.886 257.263V280.86H470.961V278.189C470.282 279.122 469.424 279.832 468.385 280.319C467.346 280.807 466.201 281.051 464.95 281.051C463.318 281.051 461.855 280.69 460.561 279.97C459.268 279.249 458.251 278.242 457.509 276.948C456.788 275.634 456.427 274.129 456.427 272.433C456.427 270.736 456.788 269.242 457.509 267.949C458.251 266.655 459.268 265.648 460.561 264.927C461.855 264.206 463.318 263.846 464.95 263.846C466.159 263.846 467.272 264.079 468.289 264.546C469.307 264.991 470.155 265.659 470.833 266.549V257.263H473.886ZM465.205 278.379C466.265 278.379 467.229 278.136 468.098 277.648C468.968 277.139 469.646 276.44 470.134 275.549C470.621 274.637 470.865 273.599 470.865 272.433C470.865 271.266 470.621 270.238 470.134 269.348C469.646 268.436 468.968 267.736 468.098 267.249C467.229 266.761 466.265 266.517 465.205 266.517C464.123 266.517 463.148 266.761 462.279 267.249C461.431 267.736 460.752 268.436 460.243 269.348C459.756 270.238 459.512 271.266 459.512 272.433C459.512 273.599 459.756 274.637 460.243 275.549C460.752 276.44 461.431 277.139 462.279 277.648C463.148 278.136 464.123 278.379 465.205 278.379Z" fill="white"/>
<path d="M171.664 155.853V161.053H146.62V127.661H170.996V132.86H152.822V141.542H168.945V146.646H152.822V155.853H171.664ZM210.156 135.293C213.368 135.293 215.913 136.231 217.789 138.108C219.665 139.952 220.603 142.735 220.603 146.456V161.053H214.641V147.219C214.641 144.993 214.148 143.323 213.162 142.21C212.176 141.065 210.761 140.493 208.916 140.493C206.913 140.493 205.307 141.161 204.098 142.496C202.89 143.8 202.286 145.676 202.286 148.125V161.053H196.323V147.219C196.323 144.993 195.83 143.323 194.844 142.21C193.858 141.065 192.443 140.493 190.598 140.493C188.563 140.493 186.941 141.145 185.733 142.449C184.556 143.752 183.968 145.645 183.968 148.125V161.053H178.005V135.579H183.682V138.823C184.636 137.678 185.828 136.804 187.259 136.2C188.69 135.595 190.28 135.293 192.029 135.293C193.938 135.293 195.623 135.659 197.086 136.39C198.581 137.09 199.757 138.139 200.616 139.539C201.665 138.203 203.017 137.169 204.671 136.438C206.324 135.675 208.153 135.293 210.156 135.293ZM252.403 148.459C252.403 148.873 252.371 149.461 252.307 150.224H232.32C232.67 152.1 233.576 153.595 235.039 154.708C236.534 155.789 238.378 156.33 240.573 156.33C243.371 156.33 245.677 155.408 247.489 153.563L250.685 157.236C249.541 158.604 248.094 159.637 246.345 160.337C244.595 161.037 242.624 161.387 240.429 161.387C237.631 161.387 235.166 160.83 233.035 159.717C230.905 158.604 229.251 157.061 228.074 155.09C226.93 153.086 226.357 150.828 226.357 148.316C226.357 145.835 226.914 143.609 228.027 141.638C229.172 139.634 230.746 138.076 232.749 136.963C234.753 135.85 237.011 135.293 239.523 135.293C242.004 135.293 244.214 135.85 246.154 136.963C248.125 138.044 249.652 139.586 250.733 141.59C251.846 143.562 252.403 145.851 252.403 148.459ZM239.523 140.063C237.615 140.063 235.993 140.636 234.657 141.781C233.354 142.894 232.558 144.388 232.272 146.265H246.726C246.472 144.42 245.693 142.926 244.389 141.781C243.085 140.636 241.463 140.063 239.523 140.063ZM263.807 139.3C265.524 136.629 268.546 135.293 272.871 135.293V140.97C272.362 140.874 271.901 140.827 271.487 140.827C269.166 140.827 267.353 141.51 266.049 142.878C264.745 144.214 264.093 146.153 264.093 148.698V161.053H258.13V135.579H263.807V139.3ZM302.978 135.579V157.189C302.978 166.157 298.399 170.641 289.24 170.641C286.791 170.641 284.47 170.323 282.275 169.687C280.081 169.083 278.268 168.192 276.837 167.015L279.509 162.531C280.622 163.454 282.021 164.185 283.706 164.726C285.424 165.298 287.157 165.584 288.906 165.584C291.705 165.584 293.756 164.948 295.06 163.676C296.364 162.404 297.016 160.464 297.016 157.857V156.521C295.998 157.634 294.758 158.477 293.295 159.049C291.832 159.622 290.226 159.908 288.477 159.908C286.06 159.908 283.866 159.399 281.894 158.381C279.954 157.332 278.412 155.869 277.267 153.993C276.154 152.116 275.597 149.97 275.597 147.553C275.597 145.136 276.154 143.005 277.267 141.161C278.412 139.284 279.954 137.837 281.894 136.82C283.866 135.802 286.06 135.293 288.477 135.293C290.321 135.293 291.991 135.595 293.486 136.2C295.012 136.804 296.284 137.726 297.302 138.966V135.579H302.978ZM289.383 154.851C291.641 154.851 293.486 154.183 294.917 152.848C296.379 151.48 297.111 149.715 297.111 147.553C297.111 145.422 296.379 143.689 294.917 142.353C293.486 141.018 291.641 140.35 289.383 140.35C287.093 140.35 285.217 141.018 283.754 142.353C282.323 143.689 281.608 145.422 281.608 147.553C281.608 149.715 282.323 151.48 283.754 152.848C285.217 154.183 287.093 154.851 289.383 154.851ZM334.764 148.459C334.764 148.873 334.733 149.461 334.669 150.224H314.682C315.031 152.1 315.938 153.595 317.401 154.708C318.895 155.789 320.74 156.33 322.934 156.33C325.733 156.33 328.038 155.408 329.851 153.563L333.047 157.236C331.902 158.604 330.455 159.637 328.706 160.337C326.957 161.037 324.985 161.387 322.791 161.387C319.992 161.387 317.528 160.83 315.397 159.717C313.266 158.604 311.613 157.061 310.436 155.09C309.291 153.086 308.719 150.828 308.719 148.316C308.719 145.835 309.275 143.609 310.388 141.638C311.533 139.634 313.107 138.076 315.111 136.963C317.114 135.85 319.372 135.293 321.885 135.293C324.365 135.293 326.575 135.85 328.515 136.963C330.487 138.044 332.013 139.586 333.095 141.59C334.208 143.562 334.764 145.851 334.764 148.459ZM321.885 140.063C319.977 140.063 318.355 140.636 317.019 141.781C315.715 142.894 314.92 144.388 314.634 146.265H329.088C328.833 144.42 328.054 142.926 326.75 141.781C325.446 140.636 323.825 140.063 321.885 140.063ZM354.946 135.293C358.158 135.293 360.734 136.231 362.674 138.108C364.614 139.984 365.584 142.767 365.584 146.456V161.053H359.621V147.219C359.621 144.993 359.096 143.323 358.047 142.21C356.997 141.065 355.502 140.493 353.563 140.493C351.368 140.493 349.635 141.161 348.363 142.496C347.091 143.8 346.455 145.692 346.455 148.173V161.053H340.492V135.579H346.169V138.871C347.154 137.694 348.395 136.804 349.889 136.2C351.384 135.595 353.07 135.293 354.946 135.293ZM385.068 161.387C382.428 161.387 380.059 160.83 377.96 159.717C375.861 158.604 374.223 157.061 373.047 155.09C371.87 153.086 371.282 150.828 371.282 148.316C371.282 145.804 371.87 143.562 373.047 141.59C374.223 139.618 375.845 138.076 377.912 136.963C380.011 135.85 382.397 135.293 385.068 135.293C387.58 135.293 389.775 135.802 391.651 136.82C393.559 137.837 394.99 139.3 395.944 141.208L391.365 143.88C390.633 142.703 389.711 141.828 388.598 141.256C387.517 140.652 386.324 140.35 385.02 140.35C382.794 140.35 380.95 141.081 379.487 142.544C378.024 143.975 377.292 145.899 377.292 148.316C377.292 150.733 378.008 152.673 379.439 154.136C380.902 155.567 382.762 156.282 385.02 156.282C386.324 156.282 387.517 155.996 388.598 155.424C389.711 154.819 390.633 153.929 391.365 152.752L395.944 155.424C394.958 157.332 393.511 158.811 391.603 159.86C389.727 160.878 387.548 161.387 385.068 161.387ZM424.624 135.579L412.698 163.104C411.585 165.871 410.233 167.81 408.643 168.924C407.053 170.068 405.129 170.641 402.871 170.641C401.599 170.641 400.343 170.434 399.103 170.021C397.863 169.607 396.845 169.035 396.05 168.303L398.435 163.915C399.007 164.455 399.675 164.885 400.439 165.203C401.234 165.521 402.029 165.68 402.824 165.68C403.873 165.68 404.732 165.409 405.4 164.869C406.099 164.328 406.735 163.422 407.308 162.15L407.737 161.148L396.622 135.579H402.824L410.838 154.422L418.899 135.579H424.624ZM453.221 161.387C450.582 161.387 448.212 160.83 446.113 159.717C444.015 158.604 442.377 157.061 441.2 155.09C440.023 153.086 439.435 150.828 439.435 148.316C439.435 145.804 440.023 143.562 441.2 141.59C442.377 139.618 443.999 138.076 446.066 136.963C448.165 135.85 450.55 135.293 453.221 135.293C455.733 135.293 457.928 135.802 459.804 136.82C461.712 137.837 463.143 139.3 464.097 141.208L459.518 143.88C458.786 142.703 457.864 141.828 456.751 141.256C455.67 140.652 454.477 140.35 453.173 140.35C450.947 140.35 449.103 141.081 447.64 142.544C446.177 143.975 445.446 145.899 445.446 148.316C445.446 150.733 446.161 152.673 447.592 154.136C449.055 155.567 450.916 156.282 453.173 156.282C454.477 156.282 455.67 155.996 456.751 155.424C457.864 154.819 458.786 153.929 459.518 152.752L464.097 155.424C463.111 157.332 461.665 158.811 459.756 159.86C457.88 160.878 455.702 161.387 453.221 161.387ZM478.983 135.293C482.736 135.293 485.598 136.2 487.57 138.012C489.573 139.793 490.575 142.496 490.575 146.122V161.053H484.946V157.952C484.215 159.065 483.165 159.924 481.798 160.528C480.462 161.1 478.84 161.387 476.932 161.387C475.024 161.387 473.354 161.069 471.923 160.432C470.492 159.765 469.379 158.858 468.584 157.713C467.821 156.537 467.439 155.217 467.439 153.754C467.439 151.464 468.282 149.636 469.967 148.268C471.685 146.869 474.372 146.169 478.029 146.169H484.612V145.788C484.612 144.007 484.071 142.639 482.99 141.685C481.941 140.731 480.367 140.254 478.268 140.254C476.837 140.254 475.421 140.477 474.022 140.922C472.655 141.367 471.494 141.987 470.54 142.783L468.202 138.442C469.538 137.424 471.144 136.645 473.02 136.104C474.897 135.564 476.884 135.293 478.983 135.293ZM478.172 157.046C479.667 157.046 480.987 156.712 482.132 156.044C483.308 155.344 484.135 154.358 484.612 153.086V150.129H478.458C475.024 150.129 473.307 151.258 473.307 153.516C473.307 154.597 473.736 155.456 474.595 156.092C475.453 156.728 476.646 157.046 478.172 157.046ZM498.227 125.657H504.19V161.053H498.227V125.657ZM512.016 125.657H517.979V161.053H512.016V125.657Z" fill="#DB3F3F"/>
<defs>
<filter id="filter0_d" x="0.746841" y="0.746353" width="1041.51" height="402.822" filterUnits="userSpaceOnUse" color-interpolation-filters="sRGB">
<feFlood flood-opacity="0" result="BackgroundImageFix"/>
<feColorMatrix in="SourceAlpha" type="matrix" values="0 0 0 0 0 0 0 0 0 0 0 0 0 0 0 0 0 0 127 0"/>
<feOffset/>
<feGaussianBlur stdDeviation="33.1268"/>
<feColorMatrix type="matrix" values="0 0 0 0 0 0 0 0 0 0 0 0 0 0 0 0 0 0 0.4 0"/>
<feBlend mode="normal" in2="BackgroundImageFix" result="effect1_dropShadow"/>
<feBlend mode="normal" in="SourceGraphic" in2="effect1_dropShadow" result="shape"/>
</filter>
<linearGradient id="paint0_linear" x1="976" y1="337.315" x2="67.0005" y2="337.315" gradientUnits="userSpaceOnUse">
<stop stop-color="#2D2D2D"/>
<stop offset="1" stop-color="#4C4C4C"/>
</linearGradient>
</defs>
</svg>
