<svg viewBox="0 0 300 155" fill="none" xmlns="http://www.w3.org/2000/svg">
<g filter="url(#filter0_d)">
<path d="M14 20.9285C14 16.5497 17.5497 13 21.9285 13H277.883C282.262 13 285.811 16.5497 285.811 20.9285V131.072C285.811 135.45 282.262 139 277.883 139H21.9285C17.5497 139 14 135.45 14 131.072V20.9285Z" fill="white"/>
</g>
<path d="M14.0001 20.9245C14.0001 16.5479 17.548 13 21.9246 13L277.887 13C282.263 13 285.811 16.5479 285.811 20.9245V131.075C285.811 135.452 282.263 139 277.887 139H21.9245C17.5479 139 14 135.452 14 131.075L14.0001 20.9245Z" fill="#3750B1"/>
<path d="M14.0001 20.9245C14.0001 16.5479 17.548 13 21.9246 13L277.887 13C282.263 13 285.811 16.5479 285.811 20.9245V131.075C285.811 135.452 282.263 139 277.887 139H21.9245C17.5479 139 14 135.452 14 131.075L14.0001 20.9245Z" fill="#192226" fill-opacity="0.5"/>
<path d="M14.0001 20.9245C14.0001 16.5479 17.548 13 21.9246 13L277.887 13C282.263 13 285.811 16.5479 285.811 20.9245V131.075C285.811 135.452 282.263 139 277.887 139H21.9245C17.5479 139 14 135.452 14 131.075L14.0001 20.9245Z" fill="url(#paint0_linear)" fill-opacity="0.7"/>
<path d="M58.5428 34.9565H59.9692V44.9414H58.5428V34.9565ZM66.7956 37.3101C67.756 37.3101 68.5168 37.5906 69.0778 38.1517C69.6484 38.7032 69.9337 39.5163 69.9337 40.5908V44.9414H68.5643V40.7477C68.5643 40.0155 68.3884 39.464 68.0366 39.0931C67.6847 38.7222 67.1807 38.5368 66.5246 38.5368C65.7828 38.5368 65.198 38.7555 64.7701 39.193C64.3421 39.6209 64.1282 40.239 64.1282 41.0473V44.9414H62.7588V37.3814H64.0711V38.5225C64.3469 38.1327 64.7178 37.8331 65.1837 37.6239C65.6592 37.4147 66.1965 37.3101 66.7956 37.3101ZM75.8047 45.027C75.0345 45.027 74.345 44.8606 73.7364 44.5277C73.1373 44.1949 72.6666 43.7385 72.3243 43.1584C71.9819 42.5688 71.8108 41.9031 71.8108 41.1614C71.8108 40.4197 71.9819 39.7588 72.3243 39.1787C72.6666 38.5891 73.1373 38.1327 73.7364 37.8093C74.345 37.4765 75.0345 37.3101 75.8047 37.3101C76.4894 37.3101 77.098 37.448 77.6305 37.7237C78.1726 37.9995 78.591 38.3989 78.8858 38.9219L77.8445 39.5923C77.6068 39.231 77.312 38.96 76.9601 38.7793C76.6083 38.5986 76.2184 38.5083 75.7905 38.5083C75.296 38.5083 74.849 38.6176 74.4496 38.8363C74.0597 39.0551 73.7507 39.3689 73.5225 39.7778C73.3037 40.1772 73.1944 40.6384 73.1944 41.1614C73.1944 41.6939 73.3037 42.1647 73.5225 42.5736C73.7507 42.973 74.0597 43.282 74.4496 43.5007C74.849 43.7194 75.296 43.8288 75.7905 43.8288C76.2184 43.8288 76.6083 43.7385 76.9601 43.5578C77.312 43.3771 77.6068 43.1061 77.8445 42.7447L78.8858 43.4009C78.591 43.9239 78.1726 44.328 77.6305 44.6133C77.098 44.8891 76.4894 45.027 75.8047 45.027ZM83.7852 45.027C83.0339 45.027 82.3588 44.8606 81.7597 44.5277C81.1606 44.1949 80.6899 43.7385 80.3475 43.1584C80.0147 42.5688 79.8483 41.9031 79.8483 41.1614C79.8483 40.4197 80.0147 39.7588 80.3475 39.1787C80.6899 38.5891 81.1606 38.1327 81.7597 37.8093C82.3588 37.4765 83.0339 37.3101 83.7852 37.3101C84.5364 37.3101 85.2068 37.4765 85.7964 37.8093C86.3955 38.1327 86.8615 38.5891 87.1943 39.1787C87.5367 39.7588 87.7078 40.4197 87.7078 41.1614C87.7078 41.9031 87.5367 42.5688 87.1943 43.1584C86.8615 43.7385 86.3955 44.1949 85.7964 44.5277C85.2068 44.8606 84.5364 45.027 83.7852 45.027ZM83.7852 43.8288C84.2702 43.8288 84.7028 43.7194 85.0832 43.5007C85.4731 43.2725 85.7774 42.9587 85.9961 42.5593C86.2148 42.1504 86.3242 41.6844 86.3242 41.1614C86.3242 40.6384 86.2148 40.1772 85.9961 39.7778C85.7774 39.3689 85.4731 39.0551 85.0832 38.8363C84.7028 38.6176 84.2702 38.5083 83.7852 38.5083C83.3002 38.5083 82.8628 38.6176 82.4729 38.8363C82.0925 39.0551 81.7882 39.3689 81.56 39.7778C81.3413 40.1772 81.2319 40.6384 81.2319 41.1614C81.2319 41.6844 81.3413 42.1504 81.56 42.5593C81.7882 42.9587 82.0925 43.2725 82.4729 43.5007C82.8628 43.7194 83.3002 43.8288 83.7852 43.8288ZM99.0588 37.3101C100.01 37.3101 100.761 37.5859 101.312 38.1374C101.874 38.689 102.154 39.5068 102.154 40.5908V44.9414H100.785V40.7477C100.785 40.0155 100.614 39.464 100.271 39.0931C99.9384 38.7222 99.4581 38.5368 98.8305 38.5368C98.1363 38.5368 97.5848 38.7555 97.1759 39.193C96.767 39.6209 96.5625 40.239 96.5625 41.0473V44.9414H95.1932V40.7477C95.1932 40.0155 95.022 39.464 94.6797 39.0931C94.3468 38.7222 93.8666 38.5368 93.239 38.5368C92.5448 38.5368 91.9932 38.7555 91.5843 39.193C91.1754 39.6209 90.971 40.239 90.971 41.0473V44.9414H89.6016V37.3814H90.9139V38.5083C91.1897 38.1184 91.5511 37.8236 91.998 37.6239C92.4449 37.4147 92.9537 37.3101 93.5243 37.3101C94.1138 37.3101 94.6369 37.429 95.0933 37.6667C95.5498 37.9044 95.9016 38.2515 96.1489 38.708C96.4341 38.2705 96.8288 37.9282 97.3328 37.681C97.8463 37.4337 98.4216 37.3101 99.0588 37.3101ZM104.674 37.3814H106.043V44.9414H104.674V37.3814ZM105.358 35.9265C105.092 35.9265 104.869 35.8409 104.688 35.6697C104.517 35.4985 104.431 35.2893 104.431 35.0421C104.431 34.7948 104.517 34.5856 104.688 34.4145C104.869 34.2338 105.092 34.1434 105.358 34.1434C105.625 34.1434 105.843 34.229 106.015 34.4002C106.195 34.5619 106.286 34.7663 106.286 35.0136C106.286 35.2703 106.195 35.489 106.015 35.6697C105.843 35.8409 105.625 35.9265 105.358 35.9265ZM112.694 37.3101C113.655 37.3101 114.416 37.5906 114.977 38.1517C115.547 38.7032 115.833 39.5163 115.833 40.5908V44.9414H114.463V40.7477C114.463 40.0155 114.287 39.464 113.935 39.0931C113.584 38.7222 113.08 38.5368 112.423 38.5368C111.682 38.5368 111.097 38.7555 110.669 39.193C110.241 39.6209 110.027 40.239 110.027 41.0473V44.9414H108.658V37.3814H109.97V38.5225C110.246 38.1327 110.617 37.8331 111.083 37.6239C111.558 37.4147 112.095 37.3101 112.694 37.3101ZM125.64 37.3814V43.9144C125.64 45.2362 125.312 46.2109 124.656 46.8385C124 47.4757 123.021 47.7942 121.718 47.7942C121.005 47.7942 120.325 47.6944 119.678 47.4947C119.031 47.3045 118.508 47.0287 118.109 46.6674L118.765 45.6118C119.117 45.9161 119.55 46.1539 120.063 46.325C120.586 46.5057 121.123 46.596 121.675 46.596C122.559 46.596 123.211 46.3868 123.629 45.9684C124.057 45.55 124.271 44.9129 124.271 44.057V43.4579C123.948 43.8478 123.548 44.1426 123.073 44.3423C122.607 44.5325 122.098 44.6276 121.547 44.6276C120.824 44.6276 120.168 44.4754 119.578 44.1711C118.998 43.8573 118.542 43.4247 118.209 42.8731C117.876 42.312 117.71 41.6749 117.71 40.9617C117.71 40.2485 117.876 39.6161 118.209 39.0646C118.542 38.5035 118.998 38.0708 119.578 37.7665C120.168 37.4622 120.824 37.3101 121.547 37.3101C122.117 37.3101 122.645 37.4147 123.13 37.6239C123.624 37.8331 124.029 38.1422 124.342 38.5511V37.3814H125.64ZM121.704 43.4294C122.198 43.4294 122.64 43.3248 123.03 43.1156C123.43 42.9064 123.739 42.6163 123.957 42.2455C124.186 41.8651 124.3 41.4372 124.3 40.9617C124.3 40.2295 124.057 39.6399 123.572 39.193C123.087 38.7365 122.464 38.5083 121.704 38.5083C120.933 38.5083 120.306 38.7365 119.821 39.193C119.336 39.6399 119.093 40.2295 119.093 40.9617C119.093 41.4372 119.203 41.8651 119.421 42.2455C119.65 42.6163 119.959 42.9064 120.348 43.1156C120.748 43.3248 121.2 43.4294 121.704 43.4294ZM139.534 43.7004V44.9414H132.287V34.9565H139.334V36.1975H133.714V39.2643H138.72V40.4767H133.714V43.7004H139.534ZM151.101 37.3101C152.052 37.3101 152.803 37.5859 153.354 38.1374C153.915 38.689 154.196 39.5068 154.196 40.5908V44.9414H152.827V40.7477C152.827 40.0155 152.655 39.464 152.313 39.0931C151.98 38.7222 151.5 38.5368 150.872 38.5368C150.178 38.5368 149.627 38.7555 149.218 39.193C148.809 39.6209 148.604 40.239 148.604 41.0473V44.9414H147.235V40.7477C147.235 40.0155 147.064 39.464 146.722 39.0931C146.389 38.7222 145.908 38.5368 145.281 38.5368C144.587 38.5368 144.035 38.7555 143.626 39.193C143.217 39.6209 143.013 40.239 143.013 41.0473V44.9414H141.643V37.3814H142.956V38.5083C143.232 38.1184 143.593 37.8236 144.04 37.6239C144.487 37.4147 144.996 37.3101 145.566 37.3101C146.156 37.3101 146.679 37.429 147.135 37.6667C147.592 37.9044 147.943 38.2515 148.191 38.708C148.476 38.2705 148.871 37.9282 149.375 37.681C149.888 37.4337 150.463 37.3101 151.101 37.3101ZM163.59 41.2042C163.59 41.3088 163.58 41.4467 163.561 41.6179H157.428C157.513 42.2835 157.803 42.8208 158.298 43.2297C158.802 43.6291 159.425 43.8288 160.166 43.8288C161.07 43.8288 161.797 43.5245 162.349 42.9159L163.105 43.8003C162.763 44.1997 162.335 44.504 161.821 44.7132C161.317 44.9224 160.751 45.027 160.124 45.027C159.325 45.027 158.616 44.8653 157.998 44.542C157.38 44.2092 156.9 43.748 156.558 43.1584C156.225 42.5688 156.058 41.9031 156.058 41.1614C156.058 40.4292 156.22 39.7683 156.543 39.1787C156.876 38.5891 157.328 38.1327 157.898 37.8093C158.479 37.4765 159.13 37.3101 159.853 37.3101C160.575 37.3101 161.217 37.4765 161.778 37.8093C162.349 38.1327 162.791 38.5891 163.105 39.1787C163.428 39.7683 163.59 40.4434 163.59 41.2042ZM159.853 38.4655C159.197 38.4655 158.645 38.6652 158.198 39.0646C157.761 39.464 157.504 39.987 157.428 40.6336H162.278C162.202 39.9965 161.94 39.4782 161.493 39.0788C161.056 38.6699 160.509 38.4655 159.853 38.4655ZM166.804 38.6509C167.041 38.2135 167.393 37.8807 167.859 37.6524C168.325 37.4242 168.891 37.3101 169.557 37.3101V38.6367C169.481 38.6271 169.376 38.6224 169.243 38.6224C168.501 38.6224 167.916 38.8459 167.488 39.2928C167.07 39.7302 166.861 40.3579 166.861 41.1757V44.9414H165.491V37.3814H166.804V38.6509ZM178.407 37.3814V43.9144C178.407 45.2362 178.079 46.2109 177.422 46.8385C176.766 47.4757 175.787 47.7942 174.484 47.7942C173.771 47.7942 173.091 47.6944 172.444 47.4947C171.798 47.3045 171.275 47.0287 170.875 46.6674L171.531 45.6118C171.883 45.9161 172.316 46.1539 172.829 46.325C173.352 46.5057 173.89 46.596 174.441 46.596C175.326 46.596 175.977 46.3868 176.395 45.9684C176.823 45.55 177.037 44.9129 177.037 44.057V43.4579C176.714 43.8478 176.315 44.1426 175.839 44.3423C175.373 44.5325 174.864 44.6276 174.313 44.6276C173.59 44.6276 172.934 44.4754 172.344 44.1711C171.764 43.8573 171.308 43.4247 170.975 42.8731C170.642 42.312 170.476 41.6749 170.476 40.9617C170.476 40.2485 170.642 39.6161 170.975 39.0646C171.308 38.5035 171.764 38.0708 172.344 37.7665C172.934 37.4622 173.59 37.3101 174.313 37.3101C174.883 37.3101 175.411 37.4147 175.896 37.6239C176.391 37.8331 176.795 38.1422 177.109 38.5511V37.3814H178.407ZM174.47 43.4294C174.964 43.4294 175.406 43.3248 175.796 43.1156C176.196 42.9064 176.505 42.6163 176.724 42.2455C176.952 41.8651 177.066 41.4372 177.066 40.9617C177.066 40.2295 176.823 39.6399 176.338 39.193C175.853 38.7365 175.231 38.5083 174.47 38.5083C173.7 38.5083 173.072 38.7365 172.587 39.193C172.102 39.6399 171.859 40.2295 171.859 40.9617C171.859 41.4372 171.969 41.8651 172.188 42.2455C172.416 42.6163 172.725 42.9064 173.115 43.1156C173.514 43.3248 173.966 43.4294 174.47 43.4294ZM187.856 41.2042C187.856 41.3088 187.846 41.4467 187.827 41.6179H181.694C181.779 42.2835 182.069 42.8208 182.564 43.2297C183.068 43.6291 183.691 43.8288 184.432 43.8288C185.336 43.8288 186.063 43.5245 186.615 42.9159L187.371 43.8003C187.028 44.1997 186.6 44.504 186.087 44.7132C185.583 44.9224 185.017 45.027 184.389 45.027C183.591 45.027 182.882 44.8653 182.264 44.542C181.646 44.2092 181.166 43.748 180.823 43.1584C180.491 42.5688 180.324 41.9031 180.324 41.1614C180.324 40.4292 180.486 39.7683 180.809 39.1787C181.142 38.5891 181.594 38.1327 182.164 37.8093C182.744 37.4765 183.396 37.3101 184.118 37.3101C184.841 37.3101 185.483 37.4765 186.044 37.8093C186.615 38.1327 187.057 38.5891 187.371 39.1787C187.694 39.7683 187.856 40.4434 187.856 41.2042ZM184.118 38.4655C183.462 38.4655 182.911 38.6652 182.464 39.0646C182.026 39.464 181.77 39.987 181.694 40.6336H186.543C186.467 39.9965 186.206 39.4782 185.759 39.0788C185.321 38.6699 184.775 38.4655 184.118 38.4655ZM193.794 37.3101C194.754 37.3101 195.515 37.5906 196.076 38.1517C196.647 38.7032 196.932 39.5163 196.932 40.5908V44.9414H195.563V40.7477C195.563 40.0155 195.387 39.464 195.035 39.0931C194.683 38.7222 194.179 38.5368 193.523 38.5368C192.781 38.5368 192.196 38.7555 191.768 39.193C191.34 39.6209 191.127 40.239 191.127 41.0473V44.9414H189.757V37.3814H191.069V38.5225C191.345 38.1327 191.716 37.8331 192.182 37.6239C192.658 37.4147 193.195 37.3101 193.794 37.3101ZM202.803 45.027C202.033 45.027 201.343 44.8606 200.735 44.5277C200.136 44.1949 199.665 43.7385 199.323 43.1584C198.98 42.5688 198.809 41.9031 198.809 41.1614C198.809 40.4197 198.98 39.7588 199.323 39.1787C199.665 38.5891 200.136 38.1327 200.735 37.8093C201.343 37.4765 202.033 37.3101 202.803 37.3101C203.488 37.3101 204.096 37.448 204.629 37.7237C205.171 37.9995 205.589 38.3989 205.884 38.9219L204.843 39.5923C204.605 39.231 204.31 38.96 203.958 38.7793C203.607 38.5986 203.217 38.5083 202.789 38.5083C202.294 38.5083 201.847 38.6176 201.448 38.8363C201.058 39.0551 200.749 39.3689 200.521 39.7778C200.302 40.1772 200.193 40.6384 200.193 41.1614C200.193 41.6939 200.302 42.1647 200.521 42.5736C200.749 42.973 201.058 43.282 201.448 43.5007C201.847 43.7194 202.294 43.8288 202.789 43.8288C203.217 43.8288 203.607 43.7385 203.958 43.5578C204.31 43.3771 204.605 43.1061 204.843 42.7447L205.884 43.4009C205.589 43.9239 205.171 44.328 204.629 44.6133C204.096 44.8891 203.488 45.027 202.803 45.027ZM214.249 37.3814L210.583 45.6974C210.26 46.4677 209.88 47.0097 209.442 47.3235C209.014 47.6373 208.496 47.7942 207.888 47.7942C207.517 47.7942 207.155 47.7324 206.803 47.6088C206.461 47.4947 206.176 47.3235 205.948 47.0953L206.532 46.0683C206.922 46.4391 207.374 46.6246 207.888 46.6246C208.22 46.6246 208.496 46.5342 208.715 46.3536C208.943 46.1824 209.148 45.8828 209.328 45.4549L209.571 44.9271L206.233 37.3814H207.659L210.298 43.4294L212.909 37.3814H214.249ZM222.653 45.027C221.883 45.027 221.193 44.8606 220.585 44.5277C219.986 44.1949 219.515 43.7385 219.173 43.1584C218.83 42.5688 218.659 41.9031 218.659 41.1614C218.659 40.4197 218.83 39.7588 219.173 39.1787C219.515 38.5891 219.986 38.1327 220.585 37.8093C221.193 37.4765 221.883 37.3101 222.653 37.3101C223.338 37.3101 223.946 37.448 224.479 37.7237C225.021 37.9995 225.439 38.3989 225.734 38.9219L224.693 39.5923C224.455 39.231 224.16 38.96 223.808 38.7793C223.457 38.5986 223.067 38.5083 222.639 38.5083C222.144 38.5083 221.697 38.6176 221.298 38.8363C220.908 39.0551 220.599 39.3689 220.371 39.7778C220.152 40.1772 220.043 40.6384 220.043 41.1614C220.043 41.6939 220.152 42.1647 220.371 42.5736C220.599 42.973 220.908 43.282 221.298 43.5007C221.697 43.7194 222.144 43.8288 222.639 43.8288C223.067 43.8288 223.457 43.7385 223.808 43.5578C224.16 43.3771 224.455 43.1061 224.693 42.7447L225.734 43.4009C225.439 43.9239 225.021 44.328 224.479 44.6133C223.946 44.8891 223.338 45.027 222.653 45.027ZM230.26 37.3101C231.306 37.3101 232.105 37.5668 232.656 38.0803C233.217 38.5939 233.498 39.3594 233.498 40.3769V44.9414H232.2V43.9429C231.972 44.2948 231.644 44.5658 231.216 44.756C230.797 44.9367 230.298 45.027 229.718 45.027C228.872 45.027 228.192 44.8225 227.678 44.4136C227.174 44.0047 226.922 43.4674 226.922 42.8018C226.922 42.1361 227.165 41.6036 227.65 41.2042C228.135 40.7953 228.905 40.5908 229.96 40.5908H232.129V40.3198C232.129 39.7302 231.957 39.2785 231.615 38.9647C231.273 38.6509 230.769 38.494 230.103 38.494C229.656 38.494 229.219 38.5701 228.791 38.7222C228.363 38.8649 228.001 39.0598 227.707 39.3071L227.136 38.28C227.526 37.9662 227.992 37.7285 228.534 37.5668C229.076 37.3957 229.651 37.3101 230.26 37.3101ZM229.946 43.9714C230.469 43.9714 230.921 43.8573 231.301 43.6291C231.682 43.3914 231.957 43.0585 232.129 42.6306V41.5751H230.017C228.857 41.5751 228.277 41.965 228.277 42.7447C228.277 43.1251 228.425 43.4247 228.719 43.6434C229.014 43.8621 229.423 43.9714 229.946 43.9714ZM236.032 34.3574H237.401V44.9414H236.032V34.3574ZM240.016 34.3574H241.385V44.9414H240.016V34.3574Z" fill="white"/>
<circle cx="149.906" cy="94.1844" r="26.7625" fill="url(#paint1_linear)"/>
<path fill-rule="evenodd" clip-rule="evenodd" d="M137.956 91.4498C136.303 88.4548 135.673 86.0403 135.673 84.4095C135.673 82.7786 136.074 82.3109 136.481 81.933C136.888 81.5551 138.722 80.4248 139.035 80.214C139.347 80.0032 140.54 79.5935 141.288 80.6691C142.036 81.7446 143.445 83.9041 144.416 85.3387C145.94 87.3706 144.726 88.2626 144.334 88.7973C143.612 89.7811 143.196 90.0237 143.196 91.2318C143.196 92.4398 146.574 95.8718 147.382 96.7174C148.183 97.5566 151.549 100.506 152.592 100.663C153.642 100.822 155.048 99.7108 155.347 99.429C156.867 98.2621 157.726 99.1468 158.426 99.5313C159.127 99.9159 162.291 101.887 163.272 102.551C164.195 103.216 164.138 104.243 164.138 104.243C164.138 104.243 163.481 106.159 162.003 107.625C161.64 107.986 161.022 108.41 159.465 108.41C157.907 108.41 156.243 108.126 152.288 105.952C149.051 104.173 145.966 101.387 144.351 99.7563C142.678 98.1255 139.844 94.871 137.956 91.4498Z" fill="white"/>
<defs>
<filter id="filter0_d" x="0.125193" y="0.710098" width="299.561" height="153.75" filterUnits="userSpaceOnUse" color-interpolation-filters="sRGB">
<feFlood flood-opacity="0" result="BackgroundImageFix"/>
<feColorMatrix in="SourceAlpha" type="matrix" values="0 0 0 0 0 0 0 0 0 0 0 0 0 0 0 0 0 0 127 0"/>
<feOffset dy="1.58491"/>
<feGaussianBlur stdDeviation="6.9374"/>
<feColorMatrix type="matrix" values="0 0 0 0 0.313889 0 0 0 0 0.322801 0 0 0 0 0.333333 0 0 0 0.4 0"/>
<feBlend mode="normal" in2="BackgroundImageFix" result="effect1_dropShadow"/>
<feBlend mode="normal" in="SourceGraphic" in2="effect1_dropShadow" result="shape"/>
</filter>
<linearGradient id="paint0_linear" x1="149.906" y1="-18.5" x2="115.262" y2="130.97" gradientUnits="userSpaceOnUse">
<stop stop-color="#3750B1"/>
<stop offset="1" stop-color="#25B8C8" stop-opacity="0.01"/>
</linearGradient>
<linearGradient id="paint1_linear" x1="149.906" y1="67.4219" x2="149.906" y2="120.947" gradientUnits="userSpaceOnUse">
<stop stop-color="#4CD964"/>
<stop offset="1" stop-color="#41B054"/>
</linearGradient>
</defs>
</svg>
