<svg viewBox="0 0 1003 516" fill="none" xmlns="http://www.w3.org/2000/svg">
<g filter="url(#filter0_d)">
<path d="M47 68.5146C47 53.871 58.871 42 73.5146 42H929.485C944.129 42 956 53.871 956 68.5146V436.859C956 451.502 944.129 463.373 929.485 463.373H73.5146C58.871 463.373 47 451.502 47 436.859V68.5146Z" fill="white"/>
</g>
<path d="M47.0002 68.5014C47.0002 53.8651 58.8653 42 73.5016 42L929.498 42C944.135 42 956 53.8651 956 68.5015V436.872C956 451.508 944.135 463.373 929.498 463.373H73.5015C58.8651 463.373 47 451.508 47 436.872L47.0002 68.5014Z" fill="#148A6E"/>
<path d="M47.0002 68.5014C47.0002 53.8651 58.8653 42 73.5016 42L929.498 42C944.135 42 956 53.8651 956 68.5015V436.872C956 451.508 944.135 463.373 929.498 463.373H73.5015C58.8651 463.373 47 451.508 47 436.872L47.0002 68.5014Z" fill="#192226" fill-opacity="0.72"/>
<path d="M47.0002 68.5014C47.0002 53.8651 58.8653 42 73.5016 42L929.498 42C944.135 42 956 53.8651 956 68.5015V436.872C956 451.508 944.135 463.373 929.498 463.373H73.5015C58.8651 463.373 47 451.508 47 436.872L47.0002 68.5014Z" fill="url(#paint0_linear)" fill-opacity="0.7"/>
<rect x="407.42" y="214.259" width="185.51" height="185.51" rx="92.7551" fill="#00CA9D"/>
<path d="M524.814 281.798C526.125 282.074 526.781 282.867 526.781 284.179C526.781 297.429 522.088 308.748 512.702 318.134C503.316 327.52 491.997 332.213 478.747 332.213C477.435 332.213 476.642 331.557 476.366 330.246L473.881 319.479C473.536 318.168 474.019 317.237 475.33 316.684L486.925 311.715C488.029 311.232 488.995 311.474 489.823 312.44L494.896 318.651C498.968 316.788 502.557 314.269 505.662 311.094C508.837 307.92 511.356 304.331 513.219 300.328L507.008 295.152C506.042 294.393 505.8 293.427 506.283 292.253L511.252 280.659C511.804 279.417 512.736 278.968 514.047 279.313L524.814 281.798Z" fill="white"/>
<path d="M196.069 118.212H200.839V151.604H196.069V118.212ZM223.668 126.083C226.88 126.083 229.424 127.021 231.301 128.897C233.209 130.742 234.163 133.461 234.163 137.054V151.604H229.583V137.579C229.583 135.13 228.995 133.286 227.818 132.046C226.642 130.805 224.956 130.185 222.762 130.185C220.281 130.185 218.325 130.917 216.894 132.379C215.463 133.811 214.748 135.878 214.748 138.581V151.604H210.168V126.321H214.557V130.137C215.479 128.834 216.719 127.832 218.278 127.132C219.868 126.433 221.665 126.083 223.668 126.083ZM253.797 151.89C251.221 151.89 248.915 151.333 246.88 150.22C244.876 149.107 243.302 147.581 242.157 145.641C241.013 143.669 240.44 141.443 240.44 138.962C240.44 136.482 241.013 134.272 242.157 132.332C243.302 130.36 244.876 128.834 246.88 127.752C248.915 126.639 251.221 126.083 253.797 126.083C256.087 126.083 258.122 126.544 259.903 127.466C261.715 128.388 263.115 129.724 264.101 131.473L260.618 133.715C259.823 132.507 258.837 131.6 257.661 130.996C256.484 130.392 255.18 130.09 253.749 130.09C252.095 130.09 250.601 130.455 249.265 131.187C247.961 131.918 246.928 132.968 246.164 134.335C245.433 135.671 245.067 137.213 245.067 138.962C245.067 140.743 245.433 142.317 246.164 143.685C246.928 145.021 247.961 146.054 249.265 146.786C250.601 147.517 252.095 147.883 253.749 147.883C255.18 147.883 256.484 147.581 257.661 146.976C258.837 146.372 259.823 145.466 260.618 144.257L264.101 146.452C263.115 148.201 261.715 149.552 259.903 150.506C258.122 151.429 256.087 151.89 253.797 151.89ZM280.485 151.89C277.973 151.89 275.715 151.333 273.712 150.22C271.708 149.107 270.134 147.581 268.989 145.641C267.876 143.669 267.319 141.443 267.319 138.962C267.319 136.482 267.876 134.272 268.989 132.332C270.134 130.36 271.708 128.834 273.712 127.752C275.715 126.639 277.973 126.083 280.485 126.083C282.998 126.083 285.24 126.639 287.211 127.752C289.215 128.834 290.773 130.36 291.886 132.332C293.031 134.272 293.604 136.482 293.604 138.962C293.604 141.443 293.031 143.669 291.886 145.641C290.773 147.581 289.215 149.107 287.211 150.22C285.24 151.333 282.998 151.89 280.485 151.89ZM280.485 147.883C282.107 147.883 283.554 147.517 284.826 146.786C286.13 146.022 287.148 144.973 287.879 143.637C288.611 142.27 288.976 140.711 288.976 138.962C288.976 137.213 288.611 135.671 287.879 134.335C287.148 132.968 286.13 131.918 284.826 131.187C283.554 130.455 282.107 130.09 280.485 130.09C278.863 130.09 277.401 130.455 276.097 131.187C274.825 131.918 273.807 132.968 273.044 134.335C272.312 135.671 271.947 137.213 271.947 138.962C271.947 140.711 272.312 142.27 273.044 143.637C273.807 144.973 274.825 146.022 276.097 146.786C277.401 147.517 278.863 147.883 280.485 147.883ZM331.564 126.083C334.744 126.083 337.256 127.005 339.101 128.849C340.977 130.694 341.915 133.429 341.915 137.054V151.604H337.336V137.579C337.336 135.13 336.763 133.286 335.618 132.046C334.505 130.805 332.899 130.185 330.8 130.185C328.479 130.185 326.634 130.917 325.267 132.379C323.899 133.811 323.216 135.878 323.216 138.581V151.604H318.636V137.579C318.636 135.13 318.064 133.286 316.919 132.046C315.806 130.805 314.2 130.185 312.101 130.185C309.779 130.185 307.935 130.917 306.567 132.379C305.2 133.811 304.516 135.878 304.516 138.581V151.604H299.937V126.321H304.325V130.09C305.248 128.786 306.456 127.8 307.951 127.132C309.446 126.433 311.147 126.083 313.055 126.083C315.027 126.083 316.776 126.48 318.302 127.275C319.829 128.07 321.005 129.231 321.832 130.758C322.786 129.295 324.106 128.15 325.792 127.323C327.509 126.496 329.433 126.083 331.564 126.083ZM350.341 126.321H354.921V151.604H350.341V126.321ZM352.631 121.456C351.741 121.456 350.993 121.169 350.389 120.597C349.817 120.024 349.53 119.325 349.53 118.498C349.53 117.671 349.817 116.971 350.389 116.399C350.993 115.795 351.741 115.493 352.631 115.493C353.522 115.493 354.253 115.779 354.825 116.351C355.43 116.892 355.732 117.576 355.732 118.403C355.732 119.261 355.43 119.993 354.825 120.597C354.253 121.169 353.522 121.456 352.631 121.456ZM377.164 126.083C380.376 126.083 382.921 127.021 384.797 128.897C386.705 130.742 387.659 133.461 387.659 137.054V151.604H383.08V137.579C383.08 135.13 382.491 133.286 381.315 132.046C380.138 130.805 378.452 130.185 376.258 130.185C373.778 130.185 371.822 130.917 370.391 132.379C368.96 133.811 368.244 135.878 368.244 138.581V151.604H363.665V126.321H368.053V130.137C368.975 128.834 370.216 127.832 371.774 127.132C373.364 126.433 375.161 126.083 377.164 126.083ZM420.459 126.321V148.169C420.459 152.589 419.362 155.849 417.168 157.948C414.973 160.079 411.698 161.144 407.341 161.144C404.956 161.144 402.682 160.81 400.519 160.142C398.357 159.506 396.608 158.584 395.272 157.376L397.466 153.846C398.643 154.863 400.09 155.658 401.807 156.231C403.556 156.835 405.353 157.137 407.198 157.137C410.155 157.137 412.334 156.437 413.733 155.038C415.164 153.639 415.88 151.508 415.88 148.646V146.643C414.798 147.946 413.463 148.932 411.873 149.6C410.314 150.236 408.613 150.554 406.768 150.554C404.351 150.554 402.157 150.045 400.185 149.028C398.245 147.978 396.719 146.531 395.606 144.687C394.493 142.81 393.936 140.68 393.936 138.295C393.936 135.909 394.493 133.795 395.606 131.95C396.719 130.074 398.245 128.627 400.185 127.609C402.157 126.592 404.351 126.083 406.768 126.083C408.676 126.083 410.441 126.433 412.063 127.132C413.717 127.832 415.069 128.865 416.118 130.233V126.321H420.459ZM407.293 146.547C408.947 146.547 410.426 146.197 411.729 145.498C413.065 144.798 414.099 143.828 414.83 142.588C415.593 141.316 415.975 139.885 415.975 138.295C415.975 135.846 415.164 133.874 413.542 132.379C411.92 130.853 409.837 130.09 407.293 130.09C404.717 130.09 402.618 130.853 400.996 132.379C399.374 133.874 398.563 135.846 398.563 138.295C398.563 139.885 398.929 141.316 399.661 142.588C400.424 143.828 401.457 144.798 402.761 145.498C404.097 146.197 405.608 146.547 407.293 146.547ZM466.921 147.453V151.604H442.688V118.212H466.253V122.362H447.458V132.618H464.202V136.673H447.458V147.453H466.921ZM505.604 126.083C508.784 126.083 511.296 127.005 513.141 128.849C515.017 130.694 515.955 133.429 515.955 137.054V151.604H511.376V137.579C511.376 135.13 510.803 133.286 509.658 132.046C508.545 130.805 506.939 130.185 504.84 130.185C502.519 130.185 500.674 130.917 499.307 132.379C497.939 133.811 497.256 135.878 497.256 138.581V151.604H492.676V137.579C492.676 135.13 492.104 133.286 490.959 132.046C489.846 130.805 488.24 130.185 486.141 130.185C483.82 130.185 481.975 130.917 480.608 132.379C479.24 133.811 478.556 135.878 478.556 138.581V151.604H473.977V126.321H478.366V130.09C479.288 128.786 480.496 127.8 481.991 127.132C483.486 126.433 485.187 126.083 487.095 126.083C489.067 126.083 490.816 126.48 492.342 127.275C493.869 128.07 495.046 129.231 495.872 130.758C496.826 129.295 498.146 128.15 499.832 127.323C501.549 126.496 503.473 126.083 505.604 126.083ZM547.371 139.106C547.371 139.455 547.339 139.916 547.275 140.489H526.763C527.049 142.715 528.019 144.512 529.673 145.879C531.359 147.215 533.442 147.883 535.922 147.883C538.943 147.883 541.376 146.865 543.221 144.83L545.749 147.787C544.604 149.123 543.173 150.141 541.456 150.84C539.77 151.54 537.878 151.89 535.779 151.89C533.108 151.89 530.738 151.349 528.671 150.268C526.604 149.155 524.998 147.612 523.853 145.641C522.74 143.669 522.184 141.443 522.184 138.962C522.184 136.514 522.724 134.303 523.806 132.332C524.919 130.36 526.429 128.834 528.337 127.752C530.277 126.639 532.456 126.083 534.873 126.083C537.29 126.083 539.436 126.639 541.312 127.752C543.221 128.834 544.699 130.36 545.749 132.332C546.83 134.303 547.371 136.561 547.371 139.106ZM534.873 129.947C532.678 129.947 530.834 130.614 529.339 131.95C527.876 133.286 527.018 135.035 526.763 137.197H542.982C542.728 135.067 541.853 133.333 540.358 131.998C538.896 130.63 537.067 129.947 534.873 129.947ZM558.118 130.567C558.913 129.104 560.09 127.991 561.648 127.228C563.207 126.464 565.099 126.083 567.325 126.083V130.519C567.071 130.487 566.721 130.471 566.275 130.471C563.795 130.471 561.839 131.219 560.408 132.713C559.009 134.176 558.309 136.275 558.309 139.01V151.604H553.73V126.321H558.118V130.567ZM596.921 126.321V148.169C596.921 152.589 595.824 155.849 593.63 157.948C591.436 160.079 588.16 161.144 583.803 161.144C581.418 161.144 579.144 160.81 576.982 160.142C574.819 159.506 573.07 158.584 571.734 157.376L573.929 153.846C575.105 154.863 576.552 155.658 578.27 156.231C580.019 156.835 581.816 157.137 583.66 157.137C586.618 157.137 588.796 156.437 590.195 155.038C591.626 153.639 592.342 151.508 592.342 148.646V146.643C591.261 147.946 589.925 148.932 588.335 149.6C586.777 150.236 585.075 150.554 583.231 150.554C580.814 150.554 578.62 150.045 576.648 149.028C574.708 147.978 573.181 146.531 572.068 144.687C570.955 142.81 570.399 140.68 570.399 138.295C570.399 135.909 570.955 133.795 572.068 131.95C573.181 130.074 574.708 128.627 576.648 127.609C578.62 126.592 580.814 126.083 583.231 126.083C585.139 126.083 586.904 126.433 588.526 127.132C590.179 127.832 591.531 128.865 592.58 130.233V126.321H596.921ZM583.756 146.547C585.409 146.547 586.888 146.197 588.192 145.498C589.528 144.798 590.561 143.828 591.293 142.588C592.056 141.316 592.437 139.885 592.437 138.295C592.437 135.846 591.626 133.874 590.005 132.379C588.383 130.853 586.3 130.09 583.756 130.09C581.18 130.09 579.081 130.853 577.459 132.379C575.837 133.874 575.026 135.846 575.026 138.295C575.026 139.885 575.392 141.316 576.123 142.588C576.886 143.828 577.92 144.798 579.224 145.498C580.559 146.197 582.07 146.547 583.756 146.547ZM628.521 139.106C628.521 139.455 628.489 139.916 628.426 140.489H607.914C608.2 142.715 609.17 144.512 610.823 145.879C612.509 147.215 614.592 147.883 617.072 147.883C620.094 147.883 622.526 146.865 624.371 144.83L626.899 147.787C625.754 149.123 624.323 150.141 622.606 150.84C620.92 151.54 619.028 151.89 616.929 151.89C614.258 151.89 611.889 151.349 609.822 150.268C607.755 149.155 606.149 147.612 605.004 145.641C603.891 143.669 603.334 141.443 603.334 138.962C603.334 136.514 603.875 134.303 604.956 132.332C606.069 130.36 607.58 128.834 609.488 127.752C611.428 126.639 613.606 126.083 616.023 126.083C618.44 126.083 620.587 126.639 622.463 127.752C624.371 128.834 625.85 130.36 626.899 132.332C627.98 134.303 628.521 136.561 628.521 139.106ZM616.023 129.947C613.829 129.947 611.984 130.614 610.49 131.95C609.027 133.286 608.168 135.035 607.914 137.197H624.132C623.878 135.067 623.003 133.333 621.509 131.998C620.046 130.63 618.217 129.947 616.023 129.947ZM648.38 126.083C651.592 126.083 654.136 127.021 656.012 128.897C657.92 130.742 658.874 133.461 658.874 137.054V151.604H654.295V137.579C654.295 135.13 653.707 133.286 652.53 132.046C651.353 130.805 649.668 130.185 647.474 130.185C644.993 130.185 643.037 130.917 641.606 132.379C640.175 133.811 639.46 135.878 639.46 138.581V151.604H634.88V126.321H639.269V130.137C640.191 128.834 641.431 127.832 642.99 127.132C644.58 126.433 646.376 126.083 648.38 126.083ZM678.509 151.89C675.933 151.89 673.627 151.333 671.592 150.22C669.588 149.107 668.014 147.581 666.869 145.641C665.724 143.669 665.152 141.443 665.152 138.962C665.152 136.482 665.724 134.272 666.869 132.332C668.014 130.36 669.588 128.834 671.592 127.752C673.627 126.639 675.933 126.083 678.509 126.083C680.798 126.083 682.834 126.544 684.615 127.466C686.427 128.388 687.827 129.724 688.812 131.473L685.33 133.715C684.535 132.507 683.549 131.6 682.373 130.996C681.196 130.392 679.892 130.09 678.461 130.09C676.807 130.09 675.313 130.455 673.977 131.187C672.673 131.918 671.639 132.968 670.876 134.335C670.145 135.671 669.779 137.213 669.779 138.962C669.779 140.743 670.145 142.317 670.876 143.685C671.639 145.021 672.673 146.054 673.977 146.786C675.313 147.517 676.807 147.883 678.461 147.883C679.892 147.883 681.196 147.581 682.373 146.976C683.549 146.372 684.535 145.466 685.33 144.257L688.812 146.452C687.827 148.201 686.427 149.552 684.615 150.506C682.834 151.429 680.798 151.89 678.509 151.89ZM716.788 126.321L704.528 154.132C703.447 156.708 702.175 158.52 700.712 159.57C699.281 160.619 697.548 161.144 695.512 161.144C694.272 161.144 693.064 160.937 691.887 160.524C690.742 160.142 689.788 159.57 689.025 158.807L690.981 155.372C692.284 156.612 693.795 157.233 695.512 157.233C696.625 157.233 697.548 156.93 698.279 156.326C699.042 155.754 699.726 154.752 700.33 153.321L701.141 151.556L689.979 126.321H694.749L703.574 146.547L712.304 126.321H716.788ZM744.892 151.89C742.316 151.89 740.01 151.333 737.975 150.22C735.971 149.107 734.397 147.581 733.252 145.641C732.107 143.669 731.535 141.443 731.535 138.962C731.535 136.482 732.107 134.272 733.252 132.332C734.397 130.36 735.971 128.834 737.975 127.752C740.01 126.639 742.316 126.083 744.892 126.083C747.181 126.083 749.217 126.544 750.998 127.466C752.81 128.388 754.21 129.724 755.195 131.473L751.713 133.715C750.918 132.507 749.932 131.6 748.756 130.996C747.579 130.392 746.275 130.09 744.844 130.09C743.19 130.09 741.696 130.455 740.36 131.187C739.056 131.918 738.022 132.968 737.259 134.335C736.528 135.671 736.162 137.213 736.162 138.962C736.162 140.743 736.528 142.317 737.259 143.685C738.022 145.021 739.056 146.054 740.36 146.786C741.696 147.517 743.19 147.883 744.844 147.883C746.275 147.883 747.579 147.581 748.756 146.976C749.932 146.372 750.918 145.466 751.713 144.257L755.195 146.452C754.21 148.201 752.81 149.552 750.998 150.506C749.217 151.429 747.181 151.89 744.892 151.89ZM770.331 126.083C773.829 126.083 776.5 126.941 778.345 128.659C780.221 130.376 781.159 132.936 781.159 136.339V151.604H776.818V148.264C776.055 149.441 774.958 150.347 773.527 150.983C772.128 151.588 770.458 151.89 768.518 151.89C765.688 151.89 763.414 151.206 761.697 149.839C760.011 148.471 759.169 146.674 759.169 144.448C759.169 142.222 759.979 140.441 761.601 139.106C763.223 137.738 765.799 137.054 769.329 137.054H776.58V136.148C776.58 134.176 776.008 132.666 774.863 131.616C773.718 130.567 772.032 130.042 769.806 130.042C768.312 130.042 766.849 130.296 765.418 130.805C763.986 131.282 762.778 131.934 761.792 132.761L759.884 129.326C761.188 128.277 762.746 127.482 764.559 126.941C766.372 126.369 768.296 126.083 770.331 126.083ZM769.281 148.36C771.031 148.36 772.541 147.978 773.813 147.215C775.085 146.42 776.008 145.307 776.58 143.876V140.346H769.52C765.64 140.346 763.7 141.65 763.7 144.257C763.7 145.529 764.193 146.531 765.179 147.263C766.165 147.994 767.532 148.36 769.281 148.36ZM789.634 116.208H794.214V151.604H789.634V116.208ZM802.957 116.208H807.537V151.604H802.957V116.208Z" fill="white"/>
<defs>
<filter id="filter0_d" x="0.599434" y="0.899725" width="1001.8" height="514.174" filterUnits="userSpaceOnUse" color-interpolation-filters="sRGB">
<feFlood flood-opacity="0" result="BackgroundImageFix"/>
<feColorMatrix in="SourceAlpha" type="matrix" values="0 0 0 0 0 0 0 0 0 0 0 0 0 0 0 0 0 0 127 0"/>
<feOffset dy="5.30029"/>
<feGaussianBlur stdDeviation="23.2003"/>
<feColorMatrix type="matrix" values="0 0 0 0 0.313889 0 0 0 0 0.322801 0 0 0 0 0.333333 0 0 0 0.4 0"/>
<feBlend mode="normal" in2="BackgroundImageFix" result="effect1_dropShadow"/>
<feBlend mode="normal" in="SourceGraphic" in2="effect1_dropShadow" result="shape"/>
</filter>
<linearGradient id="paint0_linear" x1="501.5" y1="-63.3433" x2="385.643" y2="436.52" gradientUnits="userSpaceOnUse">
<stop stop-color="#4CDDE6"/>
<stop offset="1" stop-color="#25B8C8" stop-opacity="0.01"/>
</linearGradient>
</defs>
</svg>
