<svg viewBox="0 0 668 530" fill="none" xmlns="http://www.w3.org/2000/svg">
<rect opacity="0.95" width="668" height="529.359" rx="100" fill="#E64D56"/>
<path d="M127.552 229.93V239.547H81.2327V177.789H126.316V187.405H92.7021V203.463H122.523V212.903H92.7021V229.93H127.552ZM198.743 191.905C204.684 191.905 209.389 193.64 212.86 197.11C216.33 200.522 218.065 205.668 218.065 212.55V239.547H207.037V213.961C207.037 209.844 206.125 206.756 204.302 204.698C202.478 202.58 199.861 201.522 196.45 201.522C192.744 201.522 189.774 202.757 187.539 205.227C185.304 207.639 184.186 211.109 184.186 215.638V239.547H173.158V213.961C173.158 209.844 172.246 206.756 170.423 204.698C168.599 202.58 165.982 201.522 162.571 201.522C158.806 201.522 155.807 202.727 153.571 205.139C151.395 207.55 150.307 211.05 150.307 215.638V239.547H139.279V192.434H149.778V198.434C151.542 196.316 153.748 194.699 156.395 193.581C159.042 192.464 161.982 191.905 165.217 191.905C168.746 191.905 171.864 192.581 174.569 193.934C177.334 195.228 179.51 197.169 181.098 199.757C183.039 197.287 185.539 195.375 188.597 194.022C191.656 192.611 195.038 191.905 198.743 191.905ZM276.878 216.255C276.878 217.02 276.819 218.108 276.702 219.52H239.735C240.382 222.99 242.058 225.754 244.764 227.813C247.528 229.813 250.94 230.813 254.998 230.813C260.174 230.813 264.438 229.107 267.791 225.696L273.702 232.489C271.585 235.018 268.908 236.93 265.673 238.224C262.438 239.518 258.792 240.165 254.733 240.165C249.557 240.165 244.999 239.135 241.058 237.077C237.118 235.018 234.059 232.166 231.883 228.519C229.765 224.813 228.707 220.637 228.707 215.991C228.707 211.403 229.736 207.286 231.795 203.639C233.912 199.933 236.823 197.051 240.529 194.993C244.234 192.934 248.41 191.905 253.057 191.905C257.645 191.905 261.733 192.934 265.321 194.993C268.967 196.993 271.79 199.845 273.79 203.551C275.849 207.197 276.878 211.432 276.878 216.255ZM253.057 200.727C249.528 200.727 246.528 201.786 244.058 203.904C241.646 205.962 240.176 208.727 239.647 212.197H266.379C265.909 208.786 264.468 206.021 262.056 203.904C259.645 201.786 256.645 200.727 253.057 200.727ZM297.971 199.316C301.147 194.375 306.734 191.905 314.734 191.905V202.404C313.792 202.227 312.94 202.139 312.175 202.139C307.881 202.139 304.529 203.404 302.117 205.933C299.706 208.403 298.5 211.991 298.5 216.696V239.547H287.472V192.434H297.971V199.316ZM370.418 192.434V232.401C370.418 248.987 361.948 257.281 345.009 257.281C340.48 257.281 336.186 256.692 332.128 255.516C328.07 254.399 324.717 252.752 322.07 250.575L327.011 242.282C329.069 243.988 331.657 245.341 334.775 246.341C337.951 247.399 341.156 247.929 344.391 247.929C349.567 247.929 353.361 246.752 355.773 244.4C358.184 242.047 359.39 238.459 359.39 233.636V231.166C357.508 233.224 355.214 234.783 352.508 235.842C349.803 236.9 346.832 237.43 343.597 237.43C339.127 237.43 335.069 236.489 331.422 234.606C327.834 232.665 324.982 229.96 322.864 226.49C320.806 223.019 319.776 219.049 319.776 214.579C319.776 210.109 320.806 206.168 322.864 202.757C324.982 199.286 327.834 196.61 331.422 194.728C335.069 192.846 339.127 191.905 343.597 191.905C347.009 191.905 350.097 192.464 352.861 193.581C355.684 194.699 358.037 196.404 359.919 198.698V192.434H370.418ZM345.274 228.078C349.45 228.078 352.861 226.843 355.508 224.372C358.214 221.843 359.566 218.579 359.566 214.579C359.566 210.638 358.214 207.433 355.508 204.962C352.861 202.492 349.45 201.257 345.274 201.257C341.039 201.257 337.569 202.492 334.863 204.962C332.216 207.433 330.893 210.638 330.893 214.579C330.893 218.579 332.216 221.843 334.863 224.372C337.569 226.843 341.039 228.078 345.274 228.078ZM429.207 216.255C429.207 217.02 429.148 218.108 429.03 219.52H392.063C392.71 222.99 394.387 225.754 397.092 227.813C399.857 229.813 403.268 230.813 407.326 230.813C412.502 230.813 416.767 229.107 420.119 225.696L426.03 232.489C423.913 235.018 421.237 236.93 418.002 238.224C414.767 239.518 411.12 240.165 407.062 240.165C401.886 240.165 397.327 239.135 393.387 237.077C389.446 235.018 386.387 232.166 384.211 228.519C382.094 224.813 381.035 220.637 381.035 215.991C381.035 211.403 382.064 207.286 384.123 203.639C386.24 199.933 389.152 197.051 392.857 194.993C396.563 192.934 400.739 191.905 405.385 191.905C409.973 191.905 414.061 192.934 417.649 194.993C421.296 196.993 424.119 199.845 426.119 203.551C428.177 207.197 429.207 211.432 429.207 216.255ZM405.385 200.727C401.856 200.727 398.857 201.786 396.386 203.904C393.975 205.962 392.504 208.727 391.975 212.197H418.708C418.237 208.786 416.796 206.021 414.385 203.904C411.973 201.786 408.973 200.727 405.385 200.727ZM466.533 191.905C472.473 191.905 477.237 193.64 480.825 197.11C484.413 200.58 486.207 205.727 486.207 212.55V239.547H475.179V213.961C475.179 209.844 474.208 206.756 472.267 204.698C470.326 202.58 467.562 201.522 463.974 201.522C459.916 201.522 456.71 202.757 454.357 205.227C452.005 207.639 450.828 211.138 450.828 215.726V239.547H439.8V192.434H450.299V198.522C452.122 196.346 454.416 194.699 457.181 193.581C459.945 192.464 463.062 191.905 466.533 191.905ZM522.243 240.165C517.362 240.165 512.98 239.135 509.098 237.077C505.216 235.018 502.187 232.166 500.01 228.519C497.834 224.813 496.746 220.637 496.746 215.991C496.746 211.344 497.834 207.197 500.01 203.551C502.187 199.904 505.186 197.051 509.009 194.993C512.891 192.934 517.303 191.905 522.243 191.905C526.89 191.905 530.948 192.846 534.419 194.728C537.948 196.61 540.595 199.316 542.359 202.845L533.889 207.786C532.537 205.609 530.831 203.992 528.772 202.933C526.772 201.816 524.567 201.257 522.155 201.257C518.038 201.257 514.627 202.61 511.921 205.315C509.215 207.962 507.863 211.521 507.863 215.991C507.863 220.461 509.186 224.049 511.833 226.754C514.538 229.401 517.979 230.724 522.155 230.724C524.567 230.724 526.772 230.195 528.772 229.136C530.831 228.019 532.537 226.372 533.889 224.196L542.359 229.136C540.536 232.665 537.86 235.4 534.33 237.341C530.86 239.224 526.831 240.165 522.243 240.165ZM595.402 192.434L573.346 243.341C571.287 248.458 568.787 252.046 565.847 254.104C562.906 256.222 559.347 257.281 555.171 257.281C552.819 257.281 550.495 256.898 548.201 256.134C545.907 255.369 544.025 254.31 542.555 252.958L546.966 244.841C548.025 245.841 549.26 246.635 550.672 247.223C552.142 247.811 553.613 248.105 555.083 248.105C557.024 248.105 558.612 247.605 559.847 246.605C561.141 245.605 562.318 243.929 563.376 241.576L564.17 239.724L543.614 192.434H555.083L569.905 227.284L584.815 192.434H595.402ZM284.92 341.165C280.038 341.165 275.656 340.135 271.774 338.077C267.892 336.018 264.863 333.166 262.687 329.519C260.51 325.813 259.422 321.637 259.422 316.991C259.422 312.344 260.51 308.197 262.687 304.551C264.863 300.904 267.862 298.051 271.686 295.993C275.568 293.934 279.979 292.905 284.92 292.905C289.566 292.905 293.625 293.846 297.095 295.728C300.624 297.61 303.271 300.316 305.035 303.845L296.565 308.786C295.213 306.609 293.507 304.992 291.448 303.933C289.449 302.816 287.243 302.257 284.831 302.257C280.714 302.257 277.303 303.61 274.597 306.315C271.891 308.962 270.539 312.521 270.539 316.991C270.539 321.461 271.862 325.049 274.509 327.754C277.214 330.401 280.655 331.724 284.831 331.724C287.243 331.724 289.449 331.195 291.448 330.136C293.507 329.019 295.213 327.372 296.565 325.196L305.035 330.136C303.212 333.665 300.536 336.4 297.007 338.341C293.536 340.224 289.507 341.165 284.92 341.165ZM332.567 292.905C339.507 292.905 344.801 294.581 348.447 297.934C352.153 301.228 354.006 306.227 354.006 312.932V340.547H343.595V334.812C342.242 336.871 340.301 338.459 337.772 339.577C335.302 340.635 332.302 341.165 328.773 341.165C325.244 341.165 322.156 340.577 319.509 339.4C316.862 338.165 314.804 336.489 313.333 334.371C311.922 332.195 311.216 329.754 311.216 327.048C311.216 322.814 312.775 319.432 315.892 316.902C319.068 314.314 324.038 313.02 330.802 313.02H342.977V312.315C342.977 309.021 341.977 306.492 339.978 304.727C338.037 302.963 335.125 302.08 331.243 302.08C328.596 302.08 325.979 302.492 323.391 303.316C320.862 304.139 318.715 305.286 316.951 306.756L312.628 298.728C315.098 296.846 318.068 295.405 321.538 294.405C325.009 293.405 328.685 292.905 332.567 292.905ZM331.067 333.136C333.831 333.136 336.272 332.519 338.39 331.283C340.566 329.989 342.095 328.166 342.977 325.813V320.343H331.596C325.244 320.343 322.068 322.431 322.068 326.607C322.068 328.607 322.862 330.195 324.45 331.372C326.038 332.548 328.244 333.136 331.067 333.136ZM368.159 275.083H379.187V340.547H368.159V275.083ZM393.662 275.083H404.69V340.547H393.662V275.083Z" fill="white"/>
</svg>
