<svg viewBox="0 0 846 707" fill="none" xmlns="http://www.w3.org/2000/svg">
<g filter="url(#filter0_d)">
<rect x="89" y="89" width="668" height="529.359" rx="100.83" fill="#E64D56"/>
</g>
<path d="M216.552 318.93V328.547H170.233V266.789H215.316V276.405H181.702V292.463H211.523V301.903H181.702V318.93H216.552ZM287.743 280.905C293.684 280.905 298.389 282.64 301.86 286.11C305.33 289.522 307.065 294.668 307.065 301.55V328.547H296.037V302.961C296.037 298.844 295.125 295.756 293.302 293.698C291.478 291.58 288.861 290.522 285.45 290.522C281.744 290.522 278.774 291.757 276.539 294.227C274.304 296.639 273.186 300.109 273.186 304.638V328.547H262.158V302.961C262.158 298.844 261.246 295.756 259.423 293.698C257.599 291.58 254.982 290.522 251.571 290.522C247.806 290.522 244.807 291.727 242.571 294.139C240.395 296.55 239.307 300.05 239.307 304.638V328.547H228.279V281.434H238.778V287.434C240.542 285.316 242.748 283.699 245.395 282.581C248.042 281.464 250.982 280.905 254.217 280.905C257.746 280.905 260.864 281.581 263.569 282.934C266.334 284.228 268.51 286.169 270.098 288.757C272.039 286.287 274.539 284.375 277.597 283.022C280.656 281.611 284.038 280.905 287.743 280.905ZM365.878 305.255C365.878 306.02 365.819 307.108 365.702 308.52H328.735C329.382 311.99 331.058 314.754 333.764 316.813C336.528 318.813 339.94 319.813 343.998 319.813C349.174 319.813 353.438 318.107 356.791 314.696L362.702 321.489C360.585 324.018 357.908 325.93 354.673 327.224C351.438 328.518 347.792 329.165 343.733 329.165C338.557 329.165 333.999 328.135 330.058 326.077C326.118 324.018 323.059 321.166 320.883 317.519C318.765 313.813 317.707 309.637 317.707 304.991C317.707 300.403 318.736 296.286 320.795 292.639C322.912 288.933 325.823 286.051 329.529 283.993C333.234 281.934 337.41 280.905 342.057 280.905C346.645 280.905 350.733 281.934 354.321 283.993C357.967 285.993 360.79 288.845 362.79 292.551C364.849 296.197 365.878 300.432 365.878 305.255ZM342.057 289.727C338.528 289.727 335.528 290.786 333.058 292.904C330.646 294.962 329.176 297.727 328.647 301.197H355.379C354.909 297.786 353.468 295.021 351.056 292.904C348.645 290.786 345.645 289.727 342.057 289.727ZM386.971 288.316C390.147 283.375 395.734 280.905 403.734 280.905V291.404C402.792 291.227 401.94 291.139 401.175 291.139C396.881 291.139 393.529 292.404 391.117 294.933C388.706 297.403 387.5 300.991 387.5 305.696V328.547H376.472V281.434H386.971V288.316ZM459.418 281.434V321.401C459.418 337.987 450.948 346.281 434.009 346.281C429.48 346.281 425.186 345.692 421.128 344.516C417.07 343.399 413.717 341.752 411.07 339.575L416.011 331.282C418.069 332.988 420.657 334.341 423.775 335.341C426.951 336.399 430.156 336.929 433.391 336.929C438.567 336.929 442.361 335.752 444.773 333.4C447.184 331.047 448.39 327.459 448.39 322.636V320.166C446.508 322.224 444.214 323.783 441.508 324.842C438.803 325.9 435.832 326.43 432.597 326.43C428.127 326.43 424.069 325.489 420.422 323.606C416.834 321.665 413.982 318.96 411.864 315.49C409.806 312.019 408.776 308.049 408.776 303.579C408.776 299.109 409.806 295.168 411.864 291.757C413.982 288.286 416.834 285.61 420.422 283.728C424.069 281.846 428.127 280.905 432.597 280.905C436.009 280.905 439.097 281.464 441.861 282.581C444.684 283.699 447.037 285.404 448.919 287.698V281.434H459.418ZM434.274 317.078C438.45 317.078 441.861 315.843 444.508 313.372C447.214 310.843 448.566 307.579 448.566 303.579C448.566 299.638 447.214 296.433 444.508 293.962C441.861 291.492 438.45 290.257 434.274 290.257C430.039 290.257 426.569 291.492 423.863 293.962C421.216 296.433 419.893 299.638 419.893 303.579C419.893 307.579 421.216 310.843 423.863 313.372C426.569 315.843 430.039 317.078 434.274 317.078ZM518.207 305.255C518.207 306.02 518.148 307.108 518.03 308.52H481.063C481.71 311.99 483.387 314.754 486.092 316.813C488.857 318.813 492.268 319.813 496.326 319.813C501.502 319.813 505.767 318.107 509.119 314.696L515.03 321.489C512.913 324.018 510.237 325.93 507.002 327.224C503.767 328.518 500.12 329.165 496.062 329.165C490.886 329.165 486.327 328.135 482.387 326.077C478.446 324.018 475.387 321.166 473.211 317.519C471.094 313.813 470.035 309.637 470.035 304.991C470.035 300.403 471.064 296.286 473.123 292.639C475.24 288.933 478.152 286.051 481.857 283.993C485.563 281.934 489.739 280.905 494.385 280.905C498.973 280.905 503.061 281.934 506.649 283.993C510.296 285.993 513.119 288.845 515.119 292.551C517.177 296.197 518.207 300.432 518.207 305.255ZM494.385 289.727C490.856 289.727 487.857 290.786 485.386 292.904C482.975 294.962 481.504 297.727 480.975 301.197H507.708C507.237 297.786 505.796 295.021 503.385 292.904C500.973 290.786 497.973 289.727 494.385 289.727ZM555.533 280.905C561.473 280.905 566.237 282.64 569.825 286.11C573.413 289.58 575.207 294.727 575.207 301.55V328.547H564.179V302.961C564.179 298.844 563.208 295.756 561.267 293.698C559.326 291.58 556.562 290.522 552.974 290.522C548.916 290.522 545.71 291.757 543.357 294.227C541.005 296.639 539.828 300.138 539.828 304.726V328.547H528.8V281.434H539.299V287.522C541.122 285.346 543.416 283.699 546.181 282.581C548.945 281.464 552.062 280.905 555.533 280.905ZM611.243 329.165C606.362 329.165 601.98 328.135 598.098 326.077C594.216 324.018 591.187 321.166 589.01 317.519C586.834 313.813 585.746 309.637 585.746 304.991C585.746 300.344 586.834 296.197 589.01 292.551C591.187 288.904 594.186 286.051 598.009 283.993C601.891 281.934 606.303 280.905 611.243 280.905C615.89 280.905 619.948 281.846 623.419 283.728C626.948 285.61 629.595 288.316 631.359 291.845L622.889 296.786C621.537 294.609 619.831 292.992 617.772 291.933C615.772 290.816 613.567 290.257 611.155 290.257C607.038 290.257 603.627 291.61 600.921 294.315C598.215 296.962 596.863 300.521 596.863 304.991C596.863 309.461 598.186 313.049 600.833 315.754C603.538 318.401 606.979 319.724 611.155 319.724C613.567 319.724 615.772 319.195 617.772 318.136C619.831 317.019 621.537 315.372 622.889 313.196L631.359 318.136C629.536 321.665 626.86 324.4 623.33 326.341C619.86 328.224 615.831 329.165 611.243 329.165ZM684.402 281.434L662.346 332.341C660.287 337.458 657.787 341.046 654.847 343.104C651.906 345.222 648.347 346.281 644.171 346.281C641.819 346.281 639.495 345.898 637.201 345.134C634.907 344.369 633.025 343.31 631.555 341.958L635.966 333.841C637.025 334.841 638.26 335.635 639.672 336.223C641.142 336.811 642.613 337.105 644.083 337.105C646.024 337.105 647.612 336.605 648.847 335.605C650.141 334.605 651.318 332.929 652.376 330.576L653.17 328.724L632.614 281.434H644.083L658.905 316.284L673.815 281.434H684.402ZM373.92 430.165C369.038 430.165 364.656 429.135 360.774 427.077C356.892 425.018 353.863 422.166 351.687 418.519C349.51 414.813 348.422 410.637 348.422 405.991C348.422 401.344 349.51 397.197 351.687 393.551C353.863 389.904 356.862 387.051 360.686 384.993C364.568 382.934 368.979 381.905 373.92 381.905C378.566 381.905 382.625 382.846 386.095 384.728C389.624 386.61 392.271 389.316 394.035 392.845L385.565 397.786C384.213 395.609 382.507 393.992 380.448 392.933C378.449 391.816 376.243 391.257 373.831 391.257C369.714 391.257 366.303 392.61 363.597 395.315C360.891 397.962 359.539 401.521 359.539 405.991C359.539 410.461 360.862 414.049 363.509 416.754C366.214 419.401 369.655 420.724 373.831 420.724C376.243 420.724 378.449 420.195 380.448 419.136C382.507 418.019 384.213 416.372 385.565 414.196L394.035 419.136C392.212 422.665 389.536 425.4 386.007 427.341C382.536 429.224 378.507 430.165 373.92 430.165ZM421.567 381.905C428.507 381.905 433.801 383.581 437.447 386.934C441.153 390.228 443.006 395.227 443.006 401.932V429.547H432.595V423.812C431.242 425.871 429.301 427.459 426.772 428.577C424.302 429.635 421.302 430.165 417.773 430.165C414.244 430.165 411.156 429.577 408.509 428.4C405.862 427.165 403.804 425.489 402.333 423.371C400.922 421.195 400.216 418.754 400.216 416.048C400.216 411.814 401.775 408.432 404.892 405.902C408.068 403.314 413.038 402.02 419.802 402.02H431.977V401.315C431.977 398.021 430.977 395.492 428.978 393.727C427.037 391.963 424.125 391.08 420.243 391.08C417.596 391.08 414.979 391.492 412.391 392.316C409.862 393.139 407.715 394.286 405.951 395.756L401.628 387.728C404.098 385.846 407.068 384.405 410.538 383.405C414.009 382.405 417.685 381.905 421.567 381.905ZM420.067 422.136C422.831 422.136 425.272 421.519 427.39 420.283C429.566 418.989 431.095 417.166 431.977 414.813V409.343H420.596C414.244 409.343 411.068 411.431 411.068 415.607C411.068 417.607 411.862 419.195 413.45 420.372C415.038 421.548 417.244 422.136 420.067 422.136ZM457.159 364.083H468.187V429.547H457.159V364.083ZM482.662 364.083H493.69V429.547H482.662V364.083Z" fill="white"/>
<defs>
<filter id="filter0_d" x="0.77359" y="0.77359" width="844.453" height="705.811" filterUnits="userSpaceOnUse" color-interpolation-filters="sRGB">
<feFlood flood-opacity="0" result="BackgroundImageFix"/>
<feColorMatrix in="SourceAlpha" type="matrix" values="0 0 0 0 0 0 0 0 0 0 0 0 0 0 0 0 0 0 127 0"/>
<feOffset/>
<feGaussianBlur stdDeviation="44.1132"/>
<feColorMatrix type="matrix" values="0 0 0 0 0 0 0 0 0 0 0 0 0 0 0 0 0 0 0.2 0"/>
<feBlend mode="normal" in2="BackgroundImageFix" result="effect1_dropShadow"/>
<feBlend mode="normal" in="SourceGraphic" in2="effect1_dropShadow" result="shape"/>
</filter>
</defs>
</svg>
