<svg viewBox="0 0 188 107" fill="none" xmlns="http://www.w3.org/2000/svg">
<g clip-path="url(#clip0)">
<rect width="187.25" height="107" rx="53.5" fill="#FF7364"/>
<path d="M33.2356 31.3905V35.938H39.3614V39.2818H33.2356V43.9229H41.2339V47.4004H28.6881V27.913H41.2339V31.3905H33.2356ZM43.3319 47.4004V33.5305H45.8999C46.417 33.5305 46.7559 33.7623 46.9164 34.226L47.1437 34.975C47.3756 34.7343 47.6163 34.5158 47.866 34.3196C48.1157 34.1146 48.3832 33.9407 48.6685 33.798C48.9627 33.6464 49.2748 33.5305 49.6047 33.4503C49.9436 33.3611 50.3136 33.3165 50.7149 33.3165C51.553 33.3165 52.2441 33.535 52.788 33.9719C53.3408 34.3999 53.7599 34.975 54.0452 35.6973C54.2771 35.2693 54.5579 34.9037 54.8879 34.6005C55.2267 34.2973 55.5878 34.0521 55.9712 33.8649C56.3636 33.6776 56.7737 33.5394 57.2017 33.4503C57.6387 33.3611 58.0711 33.3165 58.4991 33.3165C59.2927 33.3165 59.9971 33.4369 60.6124 33.6776C61.2276 33.9095 61.7403 34.2528 62.1505 34.7075C62.5696 35.1533 62.8861 35.7062 63.1001 36.366C63.3141 37.0169 63.4211 37.757 63.4211 38.5863V47.4004H59.2749V38.5863C59.2749 37.1507 58.6596 36.4329 57.4291 36.4329C56.8674 36.4329 56.3992 36.6201 56.0247 36.9946C55.6592 37.3602 55.4764 37.8908 55.4764 38.5863V47.4004H51.3301V38.5863C51.3301 37.7927 51.1741 37.2354 50.862 36.9144C50.5499 36.5934 50.0907 36.4329 49.4844 36.4329C49.1099 36.4329 48.7532 36.5176 48.4144 36.687C48.0844 36.8564 47.7724 37.0838 47.4781 37.3691V47.4004H43.3319ZM74.7119 38.8003C74.7119 38.4703 74.6673 38.1493 74.5782 37.8373C74.4979 37.5252 74.3597 37.2488 74.1635 37.008C73.9763 36.7583 73.7266 36.5577 73.4145 36.4061C73.1025 36.2546 72.7235 36.1788 72.2777 36.1788C71.493 36.1788 70.8777 36.4061 70.4319 36.8609C69.9861 37.3067 69.6918 37.9532 69.5492 38.8003H74.7119ZM69.4957 41.2078C69.6294 42.3669 69.9816 43.2096 70.5523 43.7356C71.123 44.2528 71.8586 44.5114 72.7592 44.5114C73.2407 44.5114 73.6553 44.4534 74.003 44.3375C74.3508 44.2216 74.6584 44.0923 74.9259 43.9496C75.2023 43.807 75.452 43.6777 75.6749 43.5618C75.9067 43.4458 76.1475 43.3879 76.3972 43.3879C76.7271 43.3879 76.9767 43.5083 77.1462 43.749L78.3499 45.2336C77.9219 45.7241 77.4582 46.1253 76.9589 46.4374C76.4685 46.7406 75.9602 46.9813 75.4342 47.1596C74.917 47.3291 74.3954 47.445 73.8693 47.5074C73.3521 47.5787 72.8572 47.6144 72.3847 47.6144C71.4127 47.6144 70.4988 47.4583 69.6428 47.1463C68.7957 46.8253 68.0512 46.3527 67.4092 45.7285C66.7761 45.1043 66.2723 44.3286 65.8978 43.4013C65.5322 42.4739 65.3494 41.395 65.3494 40.1645C65.3494 39.2372 65.5055 38.3589 65.8175 37.5296C66.1385 36.7004 66.5933 35.9737 67.1818 35.3495C67.7792 34.7253 68.497 34.2305 69.3352 33.8649C70.1822 33.4993 71.1363 33.3165 72.1974 33.3165C73.1158 33.3165 73.954 33.4592 74.7119 33.7445C75.4787 34.0298 76.1341 34.4445 76.678 34.9884C77.2309 35.5323 77.6589 36.2011 77.962 36.9946C78.2741 37.7793 78.4302 38.671 78.4302 39.6696C78.4302 39.9817 78.4168 40.2358 78.39 40.432C78.3633 40.6282 78.3142 40.7842 78.2429 40.9001C78.1716 41.0161 78.0735 41.0963 77.9487 41.1409C77.8327 41.1855 77.6812 41.2078 77.4939 41.2078H69.4957ZM84.3837 35.6705C84.8117 34.9215 85.3021 34.333 85.855 33.905C86.4167 33.477 87.0587 33.263 87.781 33.263C88.4051 33.263 88.9134 33.4101 89.3057 33.7044L89.0382 36.7539C88.9936 36.9501 88.9178 37.0838 88.8108 37.1551C88.7128 37.2265 88.5745 37.2621 88.3962 37.2621C88.3249 37.2621 88.2313 37.2577 88.1153 37.2488C87.9994 37.2398 87.879 37.2309 87.7542 37.222C87.6294 37.2042 87.5001 37.1908 87.3663 37.1819C87.2415 37.1641 87.1256 37.1551 87.0186 37.1551C86.4123 37.1551 85.9263 37.3156 85.5607 37.6366C85.204 37.9576 84.9009 38.4035 84.6512 38.9741V47.4004H80.505V33.5305H82.966C83.171 33.5305 83.3405 33.5483 83.4742 33.584C83.6169 33.6197 83.7328 33.6776 83.822 33.7579C83.92 33.8292 83.9914 33.9273 84.036 34.0521C84.0895 34.177 84.134 34.3286 84.1697 34.5069L84.3837 35.6705ZM96.0022 39.7365C96.6888 39.7365 97.1837 39.5671 97.4868 39.2283C97.7989 38.8805 97.9549 38.4347 97.9549 37.8908C97.9549 37.329 97.7989 36.8876 97.4868 36.5666C97.1837 36.2456 96.6888 36.0851 96.0022 36.0851C95.3156 36.0851 94.8163 36.2456 94.5042 36.5666C94.201 36.8876 94.0494 37.329 94.0494 37.8908C94.0494 38.1583 94.0851 38.4035 94.1564 38.6264C94.2367 38.8493 94.3571 39.0455 94.5176 39.2149C94.6781 39.3754 94.8787 39.5047 95.1194 39.6028C95.3691 39.6919 95.6634 39.7365 96.0022 39.7365ZM99.2122 47.9086C99.2122 47.5787 99.0651 47.3424 98.7708 47.1998C98.4766 47.0482 98.0932 46.9412 97.6206 46.8788C97.148 46.8163 96.6174 46.7807 96.0289 46.7718C95.4494 46.7539 94.8698 46.7183 94.2902 46.6648C94.0316 46.8431 93.8176 47.0437 93.6482 47.2666C93.4877 47.4806 93.4074 47.7258 93.4074 48.0023C93.4074 48.1984 93.4476 48.3768 93.5278 48.5373C93.617 48.6978 93.7686 48.836 93.9826 48.9519C94.1966 49.0678 94.4819 49.157 94.8386 49.2194C95.2042 49.2907 95.6634 49.3264 96.2162 49.3264C96.8136 49.3264 97.304 49.2907 97.6874 49.2194C98.0709 49.1481 98.374 49.05 98.5969 48.9251C98.8288 48.8003 98.9893 48.6487 99.0784 48.4704C99.1676 48.301 99.2122 48.1137 99.2122 47.9086ZM103.305 33.9585V35.4699C103.305 35.7017 103.238 35.8845 103.104 36.0183C102.979 36.152 102.761 36.2546 102.449 36.3259L101.446 36.5533C101.499 36.7494 101.539 36.9501 101.566 37.1551C101.602 37.3602 101.62 37.5742 101.62 37.7971C101.62 38.4926 101.473 39.1168 101.178 39.6696C100.893 40.2225 100.496 40.6951 99.9879 41.0874C99.4886 41.4708 98.8957 41.7695 98.2091 41.9835C97.5225 42.1886 96.7869 42.2911 96.0022 42.2911C95.7882 42.2911 95.5787 42.2867 95.3736 42.2778C95.1685 42.2599 94.9679 42.2332 94.7717 42.1975C94.4685 42.3848 94.3169 42.5943 94.3169 42.8261C94.3169 43.058 94.4418 43.2274 94.6914 43.3344C94.9411 43.4325 95.271 43.5038 95.6812 43.5484C96.0914 43.5841 96.555 43.6108 97.0722 43.6286C97.5983 43.6376 98.1333 43.6688 98.6772 43.7223C99.2211 43.7668 99.7517 43.8471 100.269 43.963C100.795 44.0789 101.263 44.2662 101.673 44.5248C102.083 44.7833 102.413 45.1311 102.663 45.568C102.913 45.996 103.037 46.5444 103.037 47.2131C103.037 47.8373 102.886 48.4481 102.583 49.0455C102.28 49.6429 101.834 50.1735 101.245 50.6371C100.657 51.1008 99.9344 51.4708 99.0784 51.7473C98.2224 52.0326 97.2416 52.1753 96.1359 52.1753C95.0481 52.1753 94.1074 52.0727 93.3138 51.8676C92.5292 51.6626 91.8738 51.3906 91.3477 51.0518C90.8305 50.7218 90.4471 50.3384 90.1974 49.9015C89.9478 49.4646 89.8229 49.0098 89.8229 48.5373C89.8229 47.922 90.0013 47.4093 90.3579 46.9991C90.7146 46.589 91.2139 46.2591 91.8559 46.0094C91.5171 45.8043 91.2496 45.5413 91.0534 45.2203C90.8573 44.8993 90.7592 44.4846 90.7592 43.9764C90.7592 43.7713 90.7949 43.5573 90.8662 43.3344C90.9375 43.1026 91.049 42.8796 91.2006 42.6656C91.3611 42.4427 91.5572 42.2332 91.7891 42.037C92.0209 41.8408 92.2973 41.667 92.6183 41.5154C91.8961 41.132 91.3254 40.6282 90.9063 40.004C90.4872 39.3709 90.2777 38.6353 90.2777 37.7971C90.2777 37.1016 90.4248 36.4775 90.7191 35.9246C91.0133 35.3629 91.4146 34.8903 91.9228 34.5069C92.44 34.1146 93.0463 33.8158 93.7418 33.6108C94.4373 33.3968 95.1908 33.2898 96.0022 33.2898C97.1792 33.2898 98.2224 33.5127 99.1319 33.9585H103.305ZM113.4 38.8003C113.4 38.4703 113.356 38.1493 113.266 37.8373C113.186 37.5252 113.048 37.2488 112.852 37.008C112.665 36.7583 112.415 36.5577 112.103 36.4061C111.791 36.2546 111.412 36.1788 110.966 36.1788C110.181 36.1788 109.566 36.4061 109.12 36.8609C108.674 37.3067 108.38 37.9532 108.237 38.8003H113.4ZM108.184 41.2078C108.318 42.3669 108.67 43.2096 109.241 43.7356C109.811 44.2528 110.547 44.5114 111.447 44.5114C111.929 44.5114 112.344 44.4534 112.691 44.3375C113.039 44.2216 113.347 44.0923 113.614 43.9496C113.891 43.807 114.14 43.6777 114.363 43.5618C114.595 43.4458 114.836 43.3879 115.085 43.3879C115.415 43.3879 115.665 43.5083 115.834 43.749L117.038 45.2336C116.61 45.7241 116.146 46.1253 115.647 46.4374C115.157 46.7406 114.648 46.9813 114.122 47.1596C113.605 47.3291 113.084 47.445 112.558 47.5074C112.04 47.5787 111.545 47.6144 111.073 47.6144C110.101 47.6144 109.187 47.4583 108.331 47.1463C107.484 46.8253 106.739 46.3527 106.097 45.7285C105.464 45.1043 104.961 44.3286 104.586 43.4013C104.22 42.4739 104.038 41.395 104.038 40.1645C104.038 39.2372 104.194 38.3589 104.506 37.5296C104.827 36.7004 105.282 35.9737 105.87 35.3495C106.467 34.7253 107.185 34.2305 108.023 33.8649C108.87 33.4993 109.825 33.3165 110.886 33.3165C111.804 33.3165 112.642 33.4592 113.4 33.7445C114.167 34.0298 114.822 34.4445 115.366 34.9884C115.919 35.5323 116.347 36.2011 116.65 36.9946C116.962 37.7793 117.118 38.671 117.118 39.6696C117.118 39.9817 117.105 40.2358 117.078 40.432C117.052 40.6282 117.002 40.7842 116.931 40.9001C116.86 41.0161 116.762 41.0963 116.637 41.1409C116.521 41.1855 116.369 41.2078 116.182 41.2078H108.184ZM123.018 35.0285C123.286 34.7788 123.562 34.547 123.848 34.333C124.133 34.119 124.436 33.9407 124.757 33.798C125.087 33.6464 125.439 33.5305 125.814 33.4503C126.197 33.3611 126.612 33.3165 127.058 33.3165C127.816 33.3165 128.484 33.4503 129.064 33.7178C129.652 33.9763 130.147 34.3419 130.549 34.8145C130.95 35.2782 131.253 35.8355 131.458 36.4864C131.663 37.1284 131.766 37.8283 131.766 38.5863V47.4004H127.619V38.5863C127.619 37.9086 127.463 37.3825 127.151 37.008C126.839 36.6246 126.38 36.4329 125.774 36.4329C125.319 36.4329 124.891 36.531 124.49 36.7271C124.097 36.9144 123.714 37.173 123.339 37.5029V47.4004H119.193V33.5305H121.761C122.278 33.5305 122.617 33.7623 122.778 34.226L123.018 35.0285ZM144.641 36.8208C144.516 36.9723 144.396 37.0927 144.28 37.1819C144.164 37.2711 143.999 37.3156 143.785 37.3156C143.58 37.3156 143.392 37.2666 143.223 37.1685C143.063 37.0704 142.88 36.9634 142.675 36.8475C142.47 36.7227 142.229 36.6112 141.952 36.5131C141.676 36.4151 141.333 36.366 140.923 36.366C140.414 36.366 139.973 36.4596 139.598 36.6469C139.233 36.8341 138.93 37.1016 138.689 37.4494C138.448 37.7971 138.27 38.2251 138.154 38.7334C138.038 39.2327 137.98 39.7989 137.98 40.432C137.98 41.7606 138.234 42.7816 138.742 43.4949C139.26 44.2082 139.968 44.5649 140.869 44.5649C141.351 44.5649 141.73 44.5069 142.006 44.391C142.291 44.2662 142.532 44.1324 142.728 43.9898C142.924 43.8382 143.103 43.7 143.263 43.5751C143.433 43.4503 143.642 43.3879 143.892 43.3879C144.222 43.3879 144.471 43.5083 144.641 43.749L145.845 45.2336C145.417 45.7241 144.966 46.1253 144.494 46.4374C144.021 46.7406 143.535 46.9813 143.036 47.1596C142.545 47.3291 142.051 47.445 141.551 47.5074C141.052 47.5787 140.566 47.6144 140.093 47.6144C139.246 47.6144 138.435 47.4539 137.659 47.1329C136.892 46.8119 136.215 46.3482 135.626 45.7419C135.046 45.1266 134.583 44.3732 134.235 43.4815C133.896 42.5898 133.727 41.5733 133.727 40.432C133.727 39.4333 133.874 38.5016 134.168 37.6366C134.471 36.7628 134.913 36.0093 135.492 35.3763C136.081 34.7343 136.803 34.2305 137.659 33.8649C138.524 33.4993 139.523 33.3165 140.655 33.3165C141.743 33.3165 142.697 33.4904 143.517 33.8381C144.338 34.1859 145.078 34.6941 145.738 35.3629L144.641 36.8208ZM160.633 33.5305L153.223 50.9983C153.098 51.2747 152.947 51.4753 152.768 51.6001C152.59 51.7339 152.305 51.8008 151.912 51.8008H148.809L151.484 46.1833L145.947 33.5305H149.612C149.933 33.5305 150.178 33.6018 150.347 33.7445C150.526 33.8872 150.655 34.0566 150.735 34.2528L153.009 40.2314C153.223 40.7753 153.397 41.3326 153.531 41.9033C153.629 41.6179 153.727 41.3326 153.825 41.0473C153.923 40.7619 154.025 40.4811 154.132 40.2046L156.192 34.2528C156.272 34.0477 156.415 33.8783 156.62 33.7445C156.825 33.6018 157.048 33.5305 157.289 33.5305H160.633ZM84.8451 68.8208C84.7203 68.9723 84.5999 69.0927 84.484 69.1819C84.3681 69.2711 84.2031 69.3156 83.9891 69.3156C83.7841 69.3156 83.5968 69.2666 83.4274 69.1685C83.2669 69.0704 83.0841 68.9634 82.879 68.8475C82.6739 68.7227 82.4332 68.6112 82.1568 68.5131C81.8804 68.4151 81.5371 68.366 81.1269 68.366C80.6186 68.366 80.1773 68.4596 79.8028 68.6469C79.4372 68.8341 79.134 69.1016 78.8933 69.4494C78.6525 69.7971 78.4742 70.2251 78.3583 70.7334C78.2424 71.2327 78.1844 71.7989 78.1844 72.432C78.1844 73.7606 78.4385 74.7816 78.9468 75.4949C79.4639 76.2082 80.1728 76.5649 81.0734 76.5649C81.5549 76.5649 81.9339 76.5069 82.2103 76.391C82.4956 76.2662 82.7364 76.1324 82.9325 75.9898C83.1287 75.8382 83.307 75.7 83.4675 75.5751C83.6369 75.4503 83.8465 75.3879 84.0961 75.3879C84.4261 75.3879 84.6757 75.5083 84.8451 75.749L86.0489 77.2336C85.6209 77.7241 85.1706 78.1253 84.698 78.4374C84.2254 78.7406 83.7395 78.9813 83.2401 79.1596C82.7497 79.3291 82.2549 79.445 81.7555 79.5074C81.2562 79.5787 80.7702 79.6144 80.2976 79.6144C79.4506 79.6144 78.6391 79.4539 77.8634 79.1329C77.0966 78.8119 76.4189 78.3482 75.8304 77.7419C75.2508 77.1266 74.7871 76.3732 74.4394 75.4815C74.1006 74.5898 73.9311 73.5733 73.9311 72.432C73.9311 71.4333 74.0783 70.5016 74.3725 69.6366C74.6757 68.7628 75.1171 68.0093 75.6966 67.3763C76.2851 66.7343 77.0074 66.2305 77.8634 65.8649C78.7283 65.4993 79.727 65.3165 80.8594 65.3165C81.9472 65.3165 82.9013 65.4904 83.7216 65.8381C84.542 66.1859 85.2821 66.6941 85.9419 67.3629L84.8451 68.8208ZM94.8183 73.7561C93.9891 73.7918 93.3069 73.8631 92.7719 73.9701C92.2369 74.0771 91.8134 74.2109 91.5013 74.3714C91.1892 74.5319 90.9708 74.7147 90.8459 74.9198C90.73 75.1248 90.6721 75.3478 90.6721 75.5885C90.6721 76.0611 90.8013 76.3955 91.0599 76.5916C91.3185 76.7789 91.6975 76.8725 92.1968 76.8725C92.7318 76.8725 93.1999 76.7789 93.6012 76.5916C94.0024 76.4044 94.4081 76.1012 94.8183 75.6821V73.7561ZM87.3551 67.4565C88.1932 66.7164 89.1206 66.1681 90.1371 65.8114C91.1625 65.4458 92.2592 65.263 93.4273 65.263C94.2655 65.263 95.0189 65.4012 95.6877 65.6776C96.3653 65.9451 96.936 66.3241 97.3997 66.8145C97.8723 67.296 98.2334 67.8711 98.4831 68.5399C98.7327 69.2086 98.8576 69.9398 98.8576 70.7334V79.4004H96.9583C96.566 79.4004 96.2673 79.3469 96.0622 79.2399C95.866 79.1329 95.7011 78.91 95.5673 78.5711L95.2731 77.8088C94.9253 78.103 94.5909 78.3616 94.2699 78.5845C93.9489 78.8074 93.6146 78.9991 93.2668 79.1596C92.928 79.3112 92.5624 79.4227 92.1701 79.494C91.7866 79.5743 91.3586 79.6144 90.8861 79.6144C90.253 79.6144 89.6778 79.5341 89.1607 79.3736C88.6435 79.2042 88.2021 78.959 87.8366 78.638C87.4799 78.317 87.2035 77.9202 87.0073 77.4476C86.8111 76.9661 86.7131 76.4133 86.7131 75.7891C86.7131 75.2898 86.8379 74.786 87.0876 74.2778C87.3372 73.7606 87.7697 73.2925 88.3849 72.8734C89.0002 72.4454 89.8294 72.0887 90.8727 71.8034C91.9159 71.5181 93.2311 71.3576 94.8183 71.3219V70.7334C94.8183 69.922 94.6489 69.3379 94.3101 68.9813C93.9801 68.6157 93.5076 68.4329 92.8923 68.4329C92.4019 68.4329 92.0006 68.4864 91.6886 68.5934C91.3765 68.7004 91.0956 68.8208 90.8459 68.9545C90.6052 69.0883 90.3689 69.2086 90.1371 69.3156C89.9052 69.4226 89.6288 69.4761 89.3078 69.4761C89.0225 69.4761 88.7817 69.4048 88.5856 69.2621C88.3894 69.1195 88.2289 68.9501 88.1041 68.7539L87.3551 67.4565ZM105.654 59.378V79.4004H101.508V59.378H105.654ZM112.603 59.378V79.4004H108.457V59.378H112.603Z" fill="white"/>
</g>
<defs>
<clipPath id="clip0">
<rect width="187.25" height="107" fill="white"/>
</clipPath>
</defs>
</svg>
