<svg id="Слой_1" data-name="Слой 1" xmlns="http://www.w3.org/2000/svg" viewBox="0 0 16 16"><defs><style>.cls-1{fill:#ffffff;}.cls-2{fill:#000000;}.cls-3{fill:#000000;}</style></defs><title>dV 2</title><circle class="cls-1" cx="8" cy="8" r="8"/><path class="cls-2" d="M7.45,5.07,5.86,10.69H4.26l.12-.42-.4.21a3,3,0,0,1-.39.18,2.56,2.56,0,0,1-.39.11,2.58,2.58,0,0,1-.46,0,1.66,1.66,0,0,1-1.15-.38,1.38,1.38,0,0,1-.43-1.09,2.63,2.63,0,0,1,.23-1.09,2.89,2.89,0,0,1,1.54-1.5A2.81,2.81,0,0,1,4,6.52a3.28,3.28,0,0,1,.71.07,3.26,3.26,0,0,1,.62.21l.49-1.73ZM5.14,7.58a2,2,0,0,0-.33-.09,1.88,1.88,0,0,0-.37,0,1.65,1.65,0,0,0-.68.14,1.45,1.45,0,0,0-.82.92,2,2,0,0,0-.11.64A.64.64,0,0,0,3,9.67a1,1,0,0,0,.63.17,1.43,1.43,0,0,0,.46-.08,3.33,3.33,0,0,0,.46-.19Z"/><path class="cls-3" d="M14.91,5.31,11,10.69H9.1L8.22,5.31H10l.52,3.84L13.1,5.31Z"/></svg>