<svg viewBox="0 0 101 120" fill="none" xmlns="http://www.w3.org/2000/svg">
<g clip-path="url(#clip0)">
<path d="M38.928 18.428C38.7308 18.428 32.2435 18.6 32.1205 18.3602C31.707 17.5554 38.038 15.3888 38.4578 14.5982C38.5793 14.3694 38.7355 14.2289 38.9312 14.2289C63.7675 14.2289 83.8919 34.5964 83.8919 59.1897C83.8919 83.5053 63.7675 104.06 41.7921 104.06C23.9116 104.06 11.7152 94.0338 6.32942 88.9431C4.30641 87.0322 7.46875 83.9834 9.62431 85.8502C15.0432 90.5416 26.5659 99.4906 41.3976 99.4906C61.0202 99.4937 79.0585 78.4572 79.0585 59.1913C79.0585 39.979 63.7644 18.428 38.928 18.428Z" fill="#000000"/>
<path d="M62.7639 71.9921L52.2101 53.7108V44.2538H42.1787V53.7124L31.625 71.9921C29.8118 75.1323 32.4676 79.0932 36.0955 79.0932L58.6847 79.0584C59.5115 79.058 60.3236 78.8401 61.0395 78.4265C61.7553 78.0129 62.3498 77.4182 62.7631 76.7022C63.1765 75.9862 63.3941 75.174 63.3943 74.3473C63.3944 73.5205 63.177 72.7083 62.7639 71.9921Z" fill="#000000"/>
<path d="M54.5882 42.2623C54.5882 43.4427 53.3258 44.4005 51.7683 44.4005H42.6742C41.9586 44.411 41.2589 44.1896 40.6796 43.7693C40.1699 43.3827 39.8543 42.8478 39.8543 42.2576C39.8543 41.0772 41.1167 40.1194 42.6742 40.1194H51.7683C52.4834 40.1092 53.1825 40.3307 53.7614 40.7506C54.2726 41.1372 54.5882 41.6722 54.5882 42.2623Z" fill="#000000"/>
<path d="M40.6496 73.1314L32.9647 57.7868V49.8478H25.6617V57.7868L17.9767 73.1314C16.6559 75.7683 18.5906 79.0885 21.2322 79.0885L36.7362 79.0632C39.3762 79.0585 41.9752 75.7683 40.6496 73.1314Z" fill="#000000"/>
<path opacity="0.2" d="M44.6988 53.7108L35.3018 71.97C34.478 75.1102 36.3496 79.0711 37.997 79.0711L37.066 79.09C33.4365 79.09 30.3263 74.2439 32.141 71.1021L42.1803 53.7124L44.6988 53.7108ZM44.7051 44.4021H42.1803V53.7124H44.7051V44.4021Z" fill="#000000"/>
<path d="M35.3838 64.6512L31.0175 72.3835C30.6311 73.0673 30.4307 73.8404 30.4362 74.6258C30.4417 75.4112 30.6529 76.1814 31.0488 76.8597C31.4448 77.5381 32.0115 78.1008 32.6927 78.4918C33.3738 78.8829 34.1455 79.0886 34.9309 79.0885H37.2743C38.0595 79.0883 38.8311 78.8824 39.512 78.4912C40.1929 78.1001 40.7594 77.5373 41.1552 76.8591C41.5509 76.1808 41.762 75.4107 41.7674 74.6254C41.7729 73.8401 41.5724 73.0672 41.1861 72.3835L36.8198 64.6512C36.7478 64.5242 36.6434 64.4186 36.5173 64.3451C36.3912 64.2716 36.2478 64.2328 36.1018 64.2328C35.9558 64.2328 35.8124 64.2716 35.6863 64.3451C35.5602 64.4186 35.4558 64.5242 35.3838 64.6512Z" fill="#000000"/>
<path opacity="0.15" d="M27.5663 57.7947L20.9529 72.8505C19.4806 75.915 25.1094 79.0868 26.2676 79.0868H21.2306C18.6805 79.0868 16.6686 75.8898 17.9436 73.2245L25.6601 57.7931L27.5663 57.7947ZM27.5648 49.8494H25.6617V57.7931H27.5663L27.5648 49.8494Z" fill="#000000"/>
<path d="M34.6958 48.142C34.6958 49.133 33.7774 49.9362 32.6444 49.9362H26.0167C25.4854 49.9414 24.9699 49.7548 24.565 49.4107C24.3802 49.2557 24.2308 49.0627 24.1271 48.8449C24.0234 48.6271 23.9677 48.3895 23.9637 48.1483C23.9637 47.1573 24.8821 46.3541 26.0151 46.3541H32.6428C33.1742 46.349 33.6896 46.5356 34.0946 46.8796C34.2793 47.0348 34.4286 47.2277 34.5323 47.4455C34.636 47.6633 34.6918 47.9008 34.6958 48.142Z" fill="#000000"/>
<path d="M76.5479 35.4311C78.6533 33.3257 80.3233 30.8262 81.4627 28.0753C82.602 25.3244 83.1883 22.376 83.1881 19.3985V16.7964H80.586C77.6085 16.7962 74.6601 17.3825 71.9092 18.5218C69.1583 19.6612 66.6588 21.3313 64.5534 23.4367L76.5479 35.4311Z" fill="#000000"/>
<path d="M76.5889 83.6252C78.6943 85.7306 80.3644 88.2301 81.5037 90.981C82.6431 93.7319 83.2294 96.6803 83.2292 99.6578V102.255H80.627C77.6495 102.255 74.7011 101.669 71.9502 100.53C69.1993 99.3904 66.6998 97.7204 64.5944 95.615L76.5889 83.6252Z" fill="#000000"/>
<path d="M83.0556 51.0818C89.0702 51.0828 94.8382 53.4724 99.0913 57.7253L100.93 59.5637L99.0913 61.4021C94.8382 65.6549 89.0702 68.0445 83.0556 68.0455V51.0818Z" fill="#000000"/>
<path d="M64.6433 95.6071C66.9435 101.161 66.9435 107.401 64.6433 112.954L63.6586 115.353L61.2537 114.355C55.6978 112.054 51.2835 107.639 48.9815 102.083L64.6433 95.6071Z" fill="#000000"/>
<path d="M76.5336 35.4185C82.0873 33.1183 88.3271 33.1183 93.8807 35.4185L96.2856 36.4127L95.2883 38.8176C92.9864 44.3735 88.5721 48.7878 83.0161 51.0898L76.5336 35.4185Z" fill="#000000"/>
<path d="M83.0477 68.0471C88.604 70.3494 93.0183 74.7643 95.3199 80.3209L96.3172 82.7258L93.9123 83.7183C91.1609 84.8588 88.2117 85.4458 85.2332 85.4458C82.2548 85.4458 79.3056 84.8588 76.5542 83.7183L83.0477 68.0471Z" fill="#000000"/>
<path d="M48.8932 16.951C51.1951 11.395 55.6094 6.98075 61.1654 4.67882L63.5703 3.68152L64.5628 6.08641C65.7033 8.83784 66.2903 11.7871 66.2903 14.7655C66.2903 17.7439 65.7033 20.6931 64.5628 23.4446L48.8932 16.951Z" fill="#000000"/>
<path d="M49.2893 102.039C49.3518 108.05 47.0246 113.839 42.8194 118.135L40.9984 119.994L39.1347 118.181C37.0068 116.098 35.31 113.617 34.1412 110.878C32.9723 108.14 32.3543 105.198 32.3225 102.221L49.2893 102.039Z" fill="#000000"/>
<path d="M49.0762 17.9625C49.1387 11.9517 46.8115 6.16216 42.6064 1.86679L40.7917 0L38.9328 1.82103C34.6343 6.02801 32.1915 12.1791 32.1205 18.1913L49.0762 17.9625Z" fill="#000000"/>
<path d="M33.0799 102.394C30.973 108.024 26.7157 112.587 21.2448 115.078L18.8778 116.158L17.8016 113.791C15.3119 108.316 15.0985 102.077 17.2082 96.445L33.0799 102.394Z" fill="#000000"/>
<path d="M18.4628 97.5938C16.4538 99.7914 14.0317 101.572 11.3347 102.833C8.63771 104.095 5.71864 104.812 2.74418 104.946L0.138885 105.064L0.022112 102.464C-0.111336 99.4891 0.34243 96.5174 1.3575 93.7184C2.37257 90.9193 3.92905 88.3475 5.93808 86.15L18.4628 97.5938Z" fill="#000000"/>
</g>
<defs>
<clipPath id="clip0">
<rect width="100.93" height="120" fill="white"/>
</clipPath>
</defs>
</svg>
