<svg viewBox="0 0 84 457" fill="none" xmlns="http://www.w3.org/2000/svg">
<path d="M76.2578 387.812C77.6641 387.344 78.7773 387.051 79.5976 386.934C80.418 386.816 81.043 386.973 81.4726 387.402C81.8633 387.832 82.0976 388.594 82.1758 389.687C82.293 390.781 82.3516 392.285 82.3516 394.199C82.3516 396.191 82.3125 397.754 82.2344 398.887C82.1953 399.98 82.0977 400.82 81.9414 401.406C81.7461 401.992 81.4922 402.402 81.1797 402.637C80.8672 402.871 80.457 403.066 79.9492 403.223L64.7148 408.32L64.7148 436.797L79.5391 441.602C80.0859 441.758 80.5547 441.973 80.9453 442.246C81.2969 442.48 81.5898 442.891 81.8242 443.477C82.0195 444.023 82.1562 444.824 82.2344 445.879C82.3125 446.895 82.3516 448.242 82.3516 449.922C82.3516 451.719 82.293 453.125 82.1758 454.141C82.0586 455.156 81.7852 455.859 81.3555 456.25C80.8867 456.641 80.2422 456.777 79.4219 456.66C78.6016 456.543 77.5078 456.25 76.1406 455.781L8.875 432.402C8.21093 432.168 7.68359 431.895 7.29296 431.582C6.86328 431.27 6.55078 430.781 6.35546 430.117C6.12109 429.414 5.98437 428.457 5.94531 427.246C5.86718 426.035 5.82812 424.434 5.82812 422.441C5.82812 420.137 5.86718 418.301 5.94531 416.934C5.98437 415.566 6.12109 414.512 6.35546 413.77C6.55078 412.988 6.86328 412.441 7.29296 412.129C7.72265 411.777 8.30859 411.484 9.05078 411.25L76.2578 387.812ZM20.6523 422.617L20.6523 422.676L52.8789 433.398L52.8789 411.895L20.6523 422.617ZM53.1719 325.41C57.8203 325.41 62 325.918 65.7109 326.934C69.4219 327.949 72.5859 329.414 75.2031 331.328C77.8203 333.242 79.832 335.605 81.2383 338.418C82.6445 341.191 83.3476 344.355 83.3476 347.91C83.3476 349.668 83.1719 351.309 82.8203 352.832C82.5078 354.355 81.9805 355.82 81.2383 357.227C80.4961 358.594 79.5586 359.961 78.4258 361.328C77.293 362.656 75.9258 364.023 74.3242 365.43L80.0078 365.43C80.4375 365.43 80.8086 365.547 81.1211 365.781C81.3945 365.977 81.6289 366.328 81.8242 366.836C82.0195 367.305 82.1562 367.949 82.2344 368.77C82.3125 369.59 82.3516 370.586 82.3516 371.758C82.3516 372.969 82.3125 373.984 82.2344 374.805C82.1562 375.586 82.0195 376.23 81.8242 376.738C81.6289 377.207 81.3945 377.539 81.1211 377.734C80.8086 377.93 80.4375 378.027 80.0078 378.027L2.95702 378.027C2.5664 378.027 2.21484 377.91 1.90234 377.676C1.58984 377.441 1.33593 377.051 1.14062 376.504C0.906243 375.918 0.730461 375.156 0.613274 374.219C0.496086 373.281 0.437493 372.09 0.437492 370.645C0.437492 369.199 0.496086 368.008 0.613274 367.07C0.730461 366.133 0.906242 365.391 1.14062 364.844C1.33593 364.258 1.58984 363.848 1.90234 363.613C2.21484 363.379 2.5664 363.262 2.95702 363.262L31.8437 363.262C30.5156 361.934 29.3828 360.605 28.4453 359.277C27.5078 357.949 26.7461 356.621 26.1601 355.293C25.5351 353.965 25.0859 352.598 24.8125 351.191C24.5391 349.785 24.4023 348.301 24.4023 346.738C24.4023 342.871 25.1836 339.59 26.7461 336.895C28.2695 334.199 30.3398 332.012 32.957 330.332C35.5742 328.613 38.6406 327.363 42.1562 326.582C45.6328 325.801 49.3047 325.41 53.1719 325.41ZM54.2266 340.703C52 340.703 49.8516 340.879 47.7812 341.23C45.7109 341.543 43.875 342.109 42.2734 342.93C40.6719 343.75 39.4023 344.824 38.4648 346.152C37.4883 347.441 37 349.082 37 351.074C37 352.051 37.1367 353.008 37.4101 353.945C37.6836 354.883 38.1523 355.859 38.8164 356.875C39.4805 357.852 40.3398 358.867 41.3945 359.922C42.4492 360.977 43.7578 362.09 45.3203 363.262L62.6641 363.262C65.3203 361.191 67.3516 359.219 68.7578 357.344C70.125 355.43 70.8086 353.437 70.8086 351.367C70.8086 349.453 70.3203 347.832 69.3437 346.504C68.3672 345.176 67.0976 344.082 65.5351 343.223C63.9726 342.324 62.1953 341.68 60.2031 341.289C58.2109 340.898 56.2187 340.703 54.2266 340.703ZM53.3476 260.723C57.8008 260.723 61.8633 261.309 65.5351 262.48C69.207 263.652 72.3711 265.43 75.0273 267.812C77.6836 270.195 79.7344 273.184 81.1797 276.777C82.625 280.371 83.3476 284.57 83.3476 289.375C83.3476 294.023 82.7031 298.066 81.4141 301.504C80.125 304.941 78.25 307.793 75.7891 310.059C73.3281 312.324 70.3008 314.004 66.707 315.098C63.1133 316.191 59.0117 316.738 54.4023 316.738C49.9492 316.738 45.8867 316.152 42.2148 314.98C38.5039 313.77 35.3398 311.973 32.7226 309.59C30.0664 307.207 28.0156 304.238 26.5703 300.684C25.125 297.09 24.4023 292.891 24.4023 288.086C24.4023 283.398 25.0469 279.336 26.3359 275.898C27.5859 272.461 29.4414 269.629 31.9023 267.402C34.3633 265.137 37.3906 263.457 40.9844 262.363C44.5781 261.27 48.6992 260.723 53.3476 260.723ZM53.9336 275.898C51.3555 275.898 48.9922 276.113 46.8437 276.543C44.6562 276.934 42.7617 277.617 41.1601 278.594C39.5586 279.57 38.3086 280.879 37.4101 282.52C36.5117 284.121 36.0625 286.152 36.0625 288.613C36.0625 290.801 36.4726 292.715 37.293 294.355C38.0742 295.996 39.2461 297.344 40.8086 298.398C42.332 299.453 44.1875 300.254 46.375 300.801C48.5234 301.309 50.9844 301.562 53.7578 301.562C56.3359 301.562 58.7187 301.348 60.9062 300.918C63.0547 300.488 64.9297 299.805 66.5312 298.867C68.1328 297.891 69.3828 296.582 70.2812 294.941C71.1406 293.301 71.5703 291.27 71.5703 288.848C71.5703 286.621 71.1797 284.687 70.3984 283.047C69.5781 281.406 68.4062 280.059 66.8828 279.004C65.3594 277.949 63.5234 277.168 61.375 276.66C59.1875 276.152 56.707 275.898 53.9336 275.898ZM80.0078 199.434C80.3984 199.434 80.75 199.531 81.0625 199.727C81.3359 199.922 81.5703 200.273 81.7656 200.781C81.9609 201.25 82.0976 201.895 82.1758 202.715C82.293 203.496 82.3515 204.492 82.3515 205.703C82.3515 206.992 82.293 208.047 82.1758 208.867C82.0976 209.648 81.9609 210.273 81.7656 210.742C81.5703 211.211 81.3359 211.543 81.0625 211.738C80.75 211.934 80.3984 212.031 80.0078 212.031L73.9726 212.031C77.0976 214.922 79.4414 217.871 81.0039 220.879C82.5664 223.848 83.3476 226.934 83.3476 230.137C83.3476 233.73 82.7617 236.758 81.5898 239.219C80.418 241.641 78.8164 243.613 76.7851 245.137C74.7539 246.621 72.4101 247.695 69.7539 248.359C67.0586 248.984 63.7187 249.297 59.7344 249.297L27.7422 249.297C27.3515 249.297 27.0195 249.199 26.7461 249.004C26.4336 248.77 26.1797 248.379 25.9844 247.832C25.789 247.246 25.6523 246.484 25.5742 245.547C25.457 244.57 25.3984 243.379 25.3984 241.973C25.3984 240.527 25.457 239.336 25.5742 238.398C25.6523 237.461 25.789 236.719 25.9844 236.172C26.1797 235.586 26.4336 235.176 26.7461 234.941C27.0195 234.707 27.3515 234.59 27.7422 234.59L57.2734 234.59C60.0078 234.59 62.0976 234.414 63.543 234.062C64.9883 233.711 66.2383 233.184 67.293 232.48C68.3086 231.738 69.1094 230.82 69.6953 229.727C70.2422 228.594 70.5156 227.285 70.5156 225.801C70.5156 223.926 69.832 222.051 68.4648 220.176C67.0976 218.262 65.1055 216.23 62.4883 214.082L27.7422 214.082C27.3515 214.082 27.0195 213.984 26.7461 213.789C26.4336 213.555 26.1797 213.164 25.9844 212.617C25.789 212.031 25.6523 211.27 25.5742 210.332C25.457 209.395 25.3984 208.203 25.3984 206.758C25.3984 205.312 25.457 204.121 25.5742 203.184C25.6523 202.246 25.789 201.504 25.9844 200.957C26.1797 200.41 26.4336 200.02 26.7461 199.785C27.0195 199.551 27.3515 199.434 27.7422 199.434L80.0078 199.434ZM74.8515 153.613C76.5703 153.613 77.8984 153.73 78.8359 153.965C79.7344 154.16 80.3789 154.434 80.7695 154.785C81.1211 155.137 81.4531 155.664 81.7656 156.367C82.039 157.031 82.2734 157.832 82.4687 158.77C82.7031 159.668 82.8789 160.664 82.9961 161.758C83.1133 162.812 83.1719 163.887 83.1719 164.98C83.1719 167.91 82.8008 170.449 82.0586 172.598C81.3164 174.746 80.1836 176.523 78.6601 177.93C77.0976 179.336 75.1445 180.371 72.8008 181.035C70.457 181.699 67.6836 182.031 64.4805 182.031L37.7031 182.031L37.7031 188.301C37.7031 189.043 37.2539 189.609 36.3555 190C35.418 190.391 33.875 190.586 31.7265 190.586C30.5937 190.586 29.6367 190.547 28.8555 190.469C28.0742 190.352 27.4687 190.195 27.039 190C26.5703 189.805 26.2383 189.57 26.043 189.297C25.8476 188.984 25.75 188.633 25.75 188.242L25.75 182.031L14.0898 182.031C13.6992 182.031 13.3476 181.934 13.0351 181.738C12.7226 181.504 12.4687 181.113 12.2734 180.566C12.039 179.98 11.8828 179.219 11.8047 178.281C11.6875 177.305 11.6289 176.113 11.6289 174.707C11.6289 173.262 11.6875 172.07 11.8047 171.133C11.8828 170.156 12.039 169.395 12.2734 168.848C12.4687 168.301 12.7226 167.91 13.0351 167.676C13.3476 167.441 13.6992 167.324 14.0898 167.324L25.75 167.324L25.75 155.957C25.75 155.566 25.8476 155.234 26.043 154.961C26.2383 154.648 26.5703 154.395 27.039 154.199C27.4687 154.004 28.0742 153.867 28.8555 153.789C29.6367 153.672 30.5937 153.613 31.7265 153.613C33.875 153.613 35.418 153.809 36.3555 154.199C37.2539 154.59 37.7031 155.156 37.7031 155.898L37.7031 167.324L62.2539 167.324C65.1055 167.324 67.2539 166.875 68.6992 165.977C70.1055 165.078 70.8086 163.477 70.8086 161.172C70.8086 160.391 70.75 159.687 70.6328 159.062C70.4765 158.437 70.3203 157.891 70.164 157.422C69.9687 156.914 69.8125 156.504 69.6953 156.191C69.539 155.84 69.4609 155.527 69.4609 155.254C69.4609 155.02 69.539 154.805 69.6953 154.609C69.8125 154.375 70.0859 154.199 70.5156 154.082C70.9062 153.965 71.4531 153.867 72.1562 153.789C72.8594 153.672 73.7578 153.613 74.8515 153.613ZM53.7578 53.0078C58.4062 53.0078 62.5664 53.6914 66.2383 55.0586C69.9101 56.4258 73.0156 58.4375 75.5547 61.0937C78.0937 63.75 80.0273 67.0312 81.3554 70.9375C82.6836 74.8437 83.3476 79.3359 83.3476 84.4141C83.3476 89.1797 82.7617 93.457 81.5898 97.2461C80.3789 101.035 78.5625 104.238 76.1406 106.855C73.7187 109.473 70.7109 111.484 67.1172 112.891C63.4844 114.258 59.2461 114.941 54.4023 114.941L8.28904 114.941C7.89842 114.941 7.54686 114.824 7.23436 114.59C6.92186 114.355 6.66795 113.945 6.47264 113.359C6.27732 112.734 6.12107 111.934 6.00389 110.957C5.8867 109.98 5.82811 108.73 5.82811 107.207C5.82811 105.723 5.8867 104.492 6.00389 103.516C6.12107 102.539 6.27732 101.758 6.47264 101.172C6.66795 100.586 6.92186 100.176 7.23436 99.9414C7.54686 99.668 7.89842 99.5312 8.28904 99.5312L53.0547 99.5312C56.0625 99.5312 58.6797 99.1602 60.9062 98.418C63.0937 97.6758 64.9101 96.6211 66.3554 95.2539C67.8008 93.8477 68.8945 92.1875 69.6367 90.2734C70.3398 88.3203 70.6914 86.1523 70.6914 83.7695C70.6914 81.3477 70.3203 79.1797 69.5781 77.2656C68.8359 75.3516 67.7617 73.7305 66.3554 72.4023C64.9101 71.0742 63.1523 70.0586 61.082 69.3555C58.9726 68.6133 56.5898 68.2422 53.9336 68.2422L8.28904 68.2422C7.89842 68.2422 7.54685 68.125 7.23435 67.8906C6.92185 67.6562 6.66795 67.2461 6.47264 66.6602C6.27732 66.0742 6.12107 65.293 6.00389 64.3164C5.8867 63.3008 5.8281 62.0508 5.8281 60.5664C5.8281 59.082 5.8867 57.8711 6.00389 56.9336C6.12107 55.957 6.27732 55.1758 6.47263 54.5898C6.66795 54.0039 6.92185 53.5937 7.23435 53.3594C7.54685 53.125 7.89842 53.0078 8.28904 53.0078L53.7578 53.0078ZM65.2422 0.566402C68.2109 0.566402 70.8281 1.13281 73.0937 2.26562C75.3594 3.35937 77.2539 4.92187 78.7773 6.95312C80.3008 8.98437 81.4336 11.3867 82.1758 14.1602C82.957 16.9336 83.3476 19.9414 83.3476 23.1836C83.3476 25.1367 83.1914 27.0117 82.8789 28.8086C82.6054 30.5664 82.2539 32.1484 81.8242 33.5547C81.3554 34.9609 80.8867 36.1328 80.4179 37.0703C79.9492 38.0078 79.5195 38.6914 79.1289 39.1211C78.6992 39.5508 78.0547 39.8828 77.1953 40.1172C76.2969 40.3516 74.9883 40.4687 73.2695 40.4687C72.1367 40.4687 71.2383 40.4297 70.5742 40.3516C69.8711 40.2734 69.3242 40.1562 68.9336 40C68.5039 39.8437 68.2304 39.6484 68.1133 39.4141C67.957 39.1797 67.8789 38.8867 67.8789 38.5352C67.8789 38.1055 68.1328 37.4805 68.6406 36.6602C69.1094 35.8008 69.6367 34.7461 70.2226 33.4961C70.8086 32.2461 71.3554 30.8008 71.8633 29.1602C72.3711 27.4805 72.625 25.5859 72.625 23.4766C72.625 22.1484 72.4883 20.9766 72.2148 19.9609C71.9414 18.9062 71.5508 18.0078 71.0429 17.2656C70.5351 16.4844 69.8906 15.8984 69.1094 15.5078C68.3281 15.1172 67.4297 14.9219 66.414 14.9219C65.2422 14.9219 64.2461 15.293 63.4258 16.0352C62.5664 16.7383 61.8242 17.6953 61.1992 18.9062C60.5742 20.0781 59.9883 21.4258 59.4414 22.9492C58.8945 24.4336 58.289 25.9766 57.625 27.5781C56.9609 29.1406 56.1992 30.6836 55.3398 32.207C54.4804 33.6914 53.4258 35.0391 52.1758 36.25C50.9258 37.4219 49.4219 38.3789 47.664 39.1211C45.9062 39.8242 43.7969 40.1758 41.3359 40.1758C38.8359 40.1758 36.5508 39.6875 34.4804 38.7109C32.3711 37.7344 30.5742 36.3281 29.0898 34.4922C27.6054 32.6562 26.4531 30.4297 25.6328 27.8125C24.8125 25.1562 24.4023 22.1875 24.4023 18.9062C24.4023 17.2656 24.5195 15.6836 24.7539 14.1602C24.9883 12.5977 25.2812 11.1914 25.6328 9.9414C25.9844 8.6914 26.375 7.63672 26.8047 6.77734C27.1953 5.91797 27.5469 5.3125 27.8594 4.96094C28.1328 4.57031 28.4258 4.29687 28.7383 4.14062C29.0117 3.98437 29.3633 3.86718 29.7929 3.78906C30.1836 3.71093 30.6914 3.65234 31.3164 3.61328C31.9023 3.53515 32.6445 3.49609 33.5429 3.49609C34.5976 3.49609 35.457 3.53515 36.1211 3.61328C36.7851 3.65234 37.3125 3.75 37.7031 3.90625C38.0937 4.02343 38.3672 4.19922 38.5234 4.43359C38.6406 4.66797 38.6992 4.9414 38.6992 5.2539C38.6992 5.60547 38.5039 6.15234 38.1133 6.89453C37.6836 7.63672 37.2344 8.57422 36.7656 9.70703C36.2969 10.8008 35.8672 12.0898 35.4765 13.5742C35.0469 15.0195 34.832 16.6797 34.832 18.5547C34.832 19.8828 34.9687 21.0352 35.2422 22.0117C35.5156 22.9883 35.9062 23.7891 36.414 24.4141C36.9219 25.0391 37.5273 25.5078 38.2304 25.8203C38.8945 26.1328 39.6172 26.2891 40.3984 26.2891C41.6094 26.2891 42.625 25.918 43.4453 25.1758C44.2656 24.4336 44.9883 23.457 45.6133 22.2461C46.2383 21.0352 46.8242 19.668 47.3711 18.1445C47.9179 16.582 48.5234 15.0195 49.1875 13.457C49.8125 11.8555 50.5547 10.293 51.414 8.76953C52.2734 7.20703 53.3281 5.82031 54.5781 4.60937C55.8281 3.39843 57.332 2.42187 59.0898 1.67968C60.8086 0.937496 62.8594 0.566402 65.2422 0.566402Z" fill="#d3d3d3"/>
</svg>
