<svg viewBox="0 0 82 126" fill="none" xmlns="http://www.w3.org/2000/svg">
<g clip-path="url(#clip0)">
<path d="M41.1909 55.0957L28.7705 60.3851L41.1909 65.6746L41.1909 55.0957ZM36.2481 33.5599L45.2466 33.5599C46.7047 33.5337 48.1151 34.0763 49.1755 35.0711C49.6795 35.5612 50.075 36.1503 50.3369 36.8009C50.5988 37.4514 50.7212 38.1491 50.6963 38.8494C50.6874 39.5377 50.5366 40.2169 50.2532 40.8451C49.9699 41.4732 49.5599 42.037 49.0487 42.5016C47.9884 43.4965 46.578 44.039 45.1198 44.0129L36.2481 44.0129L36.2481 43.1313L45.2466 43.1313C46.4244 43.1218 47.5555 42.6722 48.415 41.8719C48.8213 41.4796 49.1431 41.0095 49.3609 40.4899C49.5788 39.9703 49.6882 39.4122 49.6824 38.8494C49.6882 38.2865 49.5788 37.7284 49.3609 37.2088C49.1431 36.6892 48.8213 36.2191 48.415 35.8268C47.5555 35.0265 46.4244 34.5769 45.2466 34.5674L36.2481 34.5674L36.2481 33.5599ZM37.769 23.8624C36.8138 22.9324 36.2672 21.6649 36.2481 20.3361L36.2481 19.5805L37.262 19.5805L37.262 20.3361C37.2563 20.899 37.3657 21.4571 37.5835 21.9767C37.8014 22.4962 38.1232 22.9664 38.5294 23.3587L39.2899 23.8624L50.6963 23.8624L50.6963 24.744L36.2481 24.744L36.2481 23.8624L37.769 23.8624ZM39.1631 1.31912L38.6562 1.69695C38.0123 2.319 37.5005 3.06303 37.151 3.88503C36.8015 4.70704 36.6215 5.59032 36.6215 6.48268C36.6215 7.37503 36.8015 8.25833 37.151 9.08033C37.5005 9.90234 38.0123 10.6464 38.6562 11.2684C39.2822 11.9082 40.0309 12.4168 40.8581 12.7641C41.6853 13.1113 42.5742 13.2903 43.4722 13.2903C44.3702 13.2903 45.2591 13.1113 46.0864 12.7641C46.9136 12.4168 47.6623 11.9082 48.2883 11.2684C48.9322 10.6464 49.444 9.90234 49.7934 9.08033C50.1429 8.25833 50.323 7.37503 50.323 6.48268C50.323 5.59032 50.1429 4.70704 49.7934 3.88503C49.444 3.06303 48.9322 2.319 48.2883 1.69695L47.7814 1.31912L39.1631 1.31912ZM35.7412 6.48268C35.7469 4.57071 36.47 2.72959 37.769 1.31912L36.2481 1.31912L36.2481 0.437545L50.6963 0.437545L50.6963 1.31912L49.1755 1.31912C50.5057 2.77874 51.2211 4.69023 51.174 6.6589C51.1268 8.62756 50.3207 10.5031 48.922 11.8981C47.4735 13.3286 45.5144 14.1315 43.4722 14.1315C41.4301 14.1315 39.4709 13.3286 38.0225 11.8981C36.6011 10.4953 35.7832 8.5989 35.7412 6.60862L35.7412 6.48268ZM49.3022 70.2085L27.6299 61.0149L27.6299 60.0073L49.3022 50.8137L49.6824 51.6953L42.2048 54.8438L42.2048 66.1784L49.6824 69.3269L49.3022 70.2085Z" fill="#2E6E6F"/>
<path d="M0.000976535 125.37L0.000972995 44.3907L0.000972968 43.761L0.634667 43.761L22.307 43.761L22.307 44.8944L1.14162 44.8944L1.14163 124.867L80.8603 124.867L80.8603 44.8944L60.4554 44.8944L60.4554 43.761L81.3673 43.761L82.001 43.761L82.001 44.3907L82.001 125.37L82.001 126L81.3673 126L0.634671 126L0.000976562 126L0.000976535 125.37Z" fill="#2E6E6F"/>
</g>
<defs>
<clipPath id="clip0">
<rect width="125.562" height="82" fill="white" transform="translate(0.000976562 126) rotate(-90)"/>
</clipPath>
</defs>
</svg>
