<svg viewBox="0 0 104 529" fill="none" xmlns="http://www.w3.org/2000/svg">
<path d="M70.5156 472.133C71.4922 472.133 72.332 472.172 73.0352 472.25C73.6992 472.289 74.2852 472.367 74.793 472.484C75.2617 472.602 75.6719 472.758 76.0234 472.953C76.375 473.148 76.7852 473.461 77.2539 473.891C77.6836 474.32 78.25 475.16 78.9531 476.41C79.6562 477.621 80.3398 479.125 81.0039 480.922C81.6289 482.68 82.1562 484.711 82.5859 487.016C83.0156 489.281 83.2305 491.742 83.2305 494.398C83.2305 499.594 82.4297 504.281 80.8281 508.461C79.2266 512.641 76.8437 516.195 73.6797 519.125C70.4766 522.055 66.4922 524.301 61.7266 525.863C56.9609 527.426 51.4141 528.207 45.0859 528.207C38.6406 528.207 32.918 527.348 27.918 525.629C22.918 523.91 18.7187 521.508 15.3203 518.422C11.9219 515.336 9.34375 511.645 7.58594 507.348C5.82812 503.012 4.94922 498.246 4.94922 493.051C4.94922 490.941 5.125 488.91 5.47656 486.957C5.82812 485.004 6.29687 483.207 6.88281 481.566C7.42969 479.887 8.07422 478.383 8.8164 477.055C9.55859 475.727 10.2031 474.809 10.75 474.301C11.2578 473.754 11.6875 473.383 12.0391 473.187C12.3906 472.992 12.8398 472.836 13.3867 472.719C13.9336 472.602 14.5781 472.523 15.3203 472.484C16.0625 472.406 16.9805 472.367 18.0742 472.367C19.2461 472.367 20.2422 472.406 21.0625 472.484C21.8828 472.562 22.5469 472.699 23.0547 472.895C23.5625 473.09 23.9336 473.324 24.168 473.598C24.4023 473.871 24.5195 474.184 24.5195 474.535C24.5195 475.121 24.1875 475.863 23.5234 476.762C22.8203 477.66 22.0586 478.832 21.2383 480.277C20.3789 481.684 19.6172 483.383 18.9531 485.375C18.25 487.328 17.8984 489.672 17.8984 492.406C17.8984 495.414 18.5234 498.109 19.7734 500.492C20.9844 502.836 22.7422 504.848 25.0469 506.527C27.3125 508.168 30.0664 509.418 33.3086 510.277C36.5508 511.137 40.2031 511.566 44.2656 511.566C48.7187 511.566 52.5859 511.117 55.8672 510.219C59.1094 509.281 61.7852 507.973 63.8945 506.293C66.0039 504.574 67.5859 502.523 68.6406 500.141C69.6562 497.719 70.1641 495.004 70.1641 491.996C70.1641 489.262 69.8516 486.898 69.2266 484.906C68.5625 482.914 67.8398 481.215 67.0586 479.809C66.2773 478.363 65.5742 477.191 64.9492 476.293C64.3242 475.355 64.0117 474.633 64.0117 474.125C64.0117 473.734 64.0898 473.422 64.2461 473.187C64.4023 472.953 64.7148 472.758 65.1836 472.602C65.6523 472.445 66.3164 472.328 67.1758 472.25C67.9961 472.172 69.1094 472.133 70.5156 472.133ZM80.0078 447.172C80.3984 447.172 80.75 447.289 81.0625 447.523C81.3359 447.758 81.5703 448.168 81.7656 448.754C81.9609 449.301 82.0977 450.043 82.1758 450.98C82.293 451.918 82.3516 453.109 82.3516 454.555C82.3516 456 82.293 457.191 82.1758 458.129C82.0977 459.066 81.9609 459.828 81.7656 460.414C81.5703 460.961 81.3359 461.352 81.0625 461.586C80.75 461.82 80.3984 461.937 80.0078 461.937L2.95703 461.938C2.5664 461.938 2.21484 461.82 1.90234 461.586C1.58984 461.352 1.33593 460.961 1.14062 460.414C0.906247 459.828 0.730466 459.066 0.613278 458.129C0.49609 457.191 0.437497 456 0.437497 454.555C0.437497 453.109 0.49609 451.918 0.613278 450.98C0.730465 450.043 0.906246 449.301 1.14062 448.754C1.33593 448.168 1.58984 447.758 1.90234 447.523C2.21484 447.289 2.5664 447.172 2.95703 447.172L80.0078 447.172ZM80.0078 417.641C80.3984 417.641 80.75 417.758 81.0625 417.992C81.3359 418.227 81.5703 418.637 81.7656 419.223C81.9609 419.77 82.0977 420.512 82.1758 421.449C82.293 422.387 82.3516 423.578 82.3516 425.023C82.3516 426.469 82.293 427.66 82.1758 428.598C82.0977 429.535 81.9609 430.297 81.7656 430.883C81.5703 431.43 81.3359 431.82 81.0625 432.055C80.75 432.289 80.3984 432.406 80.0078 432.406L27.8594 432.406C27.4687 432.406 27.1367 432.289 26.8633 432.055C26.5508 431.82 26.2969 431.43 26.1016 430.883C25.8672 430.297 25.6914 429.535 25.5742 428.598C25.457 427.66 25.3984 426.469 25.3984 425.023C25.3984 423.578 25.457 422.387 25.5742 421.449C25.6914 420.512 25.8672 419.77 26.1016 419.223C26.2969 418.637 26.5508 418.227 26.8633 417.992C27.1367 417.758 27.4687 417.641 27.8594 417.641L80.0078 417.641ZM10.0469 416.527C13.0156 416.527 15.0664 417.133 16.1992 418.344C17.332 419.555 17.8984 421.801 17.8984 425.082C17.8984 428.402 17.3516 430.648 16.2578 431.82C15.1641 432.953 13.1914 433.52 10.3398 433.52C7.37109 433.52 5.32031 432.934 4.1875 431.762C3.01562 430.551 2.42968 428.285 2.42968 424.965C2.42968 421.684 2.99609 419.457 4.1289 418.285C5.22265 417.113 7.19531 416.527 10.0469 416.527ZM52.3516 354.594C54.1484 354.594 55.4766 355.004 56.3359 355.824C57.1953 356.605 57.625 357.699 57.625 359.105L57.625 390.922C59.8516 390.922 61.8828 390.668 63.7187 390.16C65.5156 389.613 67.0586 388.773 68.3476 387.641C69.5976 386.469 70.5547 384.984 71.2187 383.187C71.8828 381.352 72.2148 379.164 72.2148 376.625C72.2148 374.047 72.0391 371.781 71.6875 369.828C71.2969 367.875 70.8867 366.195 70.457 364.789C69.9883 363.344 69.5781 362.152 69.2266 361.215C68.8359 360.277 68.6406 359.516 68.6406 358.93C68.6406 358.578 68.7187 358.285 68.875 358.051C68.9922 357.816 69.2266 357.621 69.5781 357.465C69.9297 357.309 70.4375 357.211 71.1016 357.172C71.7266 357.094 72.5273 357.055 73.5039 357.055C74.3633 357.055 75.1055 357.074 75.7305 357.113C76.3164 357.152 76.8242 357.211 77.2539 357.289C77.6836 357.367 78.0547 357.484 78.3672 357.641C78.6406 357.797 78.9141 358.012 79.1875 358.285C79.4609 358.52 79.832 359.203 80.3008 360.336C80.7695 361.469 81.2383 362.914 81.707 364.672C82.1367 366.43 82.5078 368.441 82.8203 370.707C83.1719 372.973 83.3476 375.395 83.3476 377.973C83.3476 382.621 82.7617 386.703 81.5898 390.219C80.418 393.695 78.6406 396.605 76.2578 398.949C73.875 401.293 70.8672 403.051 67.2344 404.223C63.6016 405.355 59.3437 405.922 54.4609 405.922C49.8125 405.922 45.6328 405.316 41.9219 404.105C38.1719 402.895 35.0078 401.137 32.4297 398.832C29.8125 396.527 27.8203 393.734 26.4531 390.453C25.0859 387.133 24.4023 383.402 24.4023 379.262C24.4023 374.887 25.0469 371.156 26.3359 368.07C27.625 364.945 29.4219 362.387 31.7266 360.395C33.9922 358.402 36.6875 356.937 39.8125 356C42.9375 355.062 46.3359 354.594 50.0078 354.594L52.3516 354.594ZM48.1328 368.891C43.9922 368.773 40.75 369.613 38.4062 371.41C36.0234 373.168 34.832 375.902 34.832 379.613C34.832 381.488 35.1836 383.129 35.8867 384.535C36.5898 385.902 37.5469 387.055 38.7578 387.992C39.9297 388.891 41.3359 389.594 42.9766 390.102C44.5781 390.57 46.2969 390.844 48.1328 390.922L48.1328 368.891ZM80.0078 292.484C80.3984 292.484 80.75 292.602 81.0625 292.836C81.3359 293.07 81.5703 293.461 81.7656 294.008C81.9609 294.555 82.0976 295.316 82.1758 296.293C82.293 297.23 82.3516 298.402 82.3516 299.809C82.3516 301.254 82.293 302.465 82.1758 303.441C82.0976 304.379 81.9609 305.121 81.7656 305.668C81.5703 306.215 81.3359 306.605 81.0625 306.84C80.75 307.074 80.3984 307.191 80.0078 307.191L50.1836 307.191C47.6445 307.191 45.6523 307.387 44.207 307.777C42.7617 308.129 41.5312 308.656 40.5156 309.359C39.4609 310.062 38.6601 310.98 38.1133 312.113C37.5273 313.207 37.2344 314.496 37.2344 315.98C37.2344 317.855 37.918 319.75 39.2851 321.664C40.6523 323.578 42.6445 325.57 45.2617 327.641L80.0078 327.641C80.3984 327.641 80.75 327.758 81.0625 327.992C81.3359 328.227 81.5703 328.637 81.7656 329.223C81.9609 329.77 82.0976 330.512 82.1758 331.449C82.293 332.387 82.3516 333.578 82.3516 335.023C82.3516 336.469 82.293 337.66 82.1758 338.598C82.0976 339.535 81.9609 340.297 81.7656 340.883C81.5703 341.43 81.3359 341.82 81.0625 342.055C80.75 342.289 80.3984 342.406 80.0078 342.406L27.7422 342.406C27.3516 342.406 27.0195 342.309 26.7461 342.113C26.4336 341.918 26.1797 341.566 25.9844 341.059C25.7891 340.551 25.6523 339.906 25.5742 339.125C25.457 338.305 25.3984 337.289 25.3984 336.078C25.3984 334.828 25.457 333.793 25.5742 332.973C25.6523 332.152 25.7891 331.527 25.9844 331.098C26.1797 330.629 26.4336 330.297 26.7461 330.102C27.0195 329.906 27.3516 329.809 27.7422 329.809L33.7773 329.809C30.6523 326.918 28.3086 323.988 26.7461 321.02C25.1836 318.012 24.4023 314.887 24.4023 311.645C24.4023 308.09 24.9883 305.102 26.1601 302.68C27.332 300.219 28.9336 298.246 30.9648 296.762C32.957 295.238 35.3008 294.145 37.9961 293.48C40.6914 292.816 43.9336 292.484 47.7226 292.484L80.0078 292.484ZM74.8516 248.187C76.5703 248.187 77.8984 248.305 78.8359 248.539C79.7344 248.734 80.3789 249.008 80.7695 249.359C81.1211 249.711 81.4531 250.238 81.7656 250.941C82.0391 251.605 82.2734 252.406 82.4687 253.344C82.7031 254.242 82.8789 255.238 82.9961 256.332C83.1133 257.387 83.1719 258.461 83.1719 259.555C83.1719 262.484 82.8008 265.023 82.0586 267.172C81.3164 269.32 80.1836 271.098 78.6601 272.504C77.0976 273.91 75.1445 274.945 72.8008 275.609C70.457 276.273 67.6836 276.605 64.4805 276.605L37.7031 276.605L37.7031 282.875C37.7031 283.617 37.2539 284.184 36.3555 284.574C35.418 284.965 33.875 285.16 31.7266 285.16C30.5937 285.16 29.6367 285.121 28.8555 285.043C28.0742 284.926 27.4687 284.77 27.0391 284.574C26.5703 284.379 26.2383 284.145 26.043 283.871C25.8476 283.559 25.75 283.207 25.75 282.816L25.75 276.605L14.0898 276.605C13.6992 276.605 13.3476 276.508 13.0351 276.312C12.7226 276.078 12.4687 275.687 12.2734 275.141C12.0391 274.555 11.8828 273.793 11.8047 272.855C11.6875 271.879 11.6289 270.687 11.6289 269.281C11.6289 267.836 11.6875 266.645 11.8047 265.707C11.8828 264.73 12.0391 263.969 12.2734 263.422C12.4687 262.875 12.7226 262.484 13.0351 262.25C13.3476 262.016 13.6992 261.898 14.0898 261.898L25.75 261.898L25.75 250.531C25.75 250.141 25.8476 249.809 26.043 249.535C26.2383 249.223 26.5703 248.969 27.0391 248.773C27.4687 248.578 28.0742 248.441 28.8555 248.363C29.6367 248.246 30.5937 248.187 31.7266 248.187C33.875 248.187 35.418 248.383 36.3555 248.773C37.2539 249.164 37.7031 249.73 37.7031 250.473L37.7031 261.898L62.2539 261.898C65.1055 261.898 67.2539 261.449 68.6992 260.551C70.1055 259.652 70.8086 258.051 70.8086 255.746C70.8086 254.965 70.75 254.262 70.6328 253.637C70.4766 253.012 70.3203 252.465 70.1641 251.996C69.9687 251.488 69.8125 251.078 69.6953 250.766C69.5391 250.414 69.4609 250.102 69.4609 249.828C69.4609 249.594 69.5391 249.379 69.6953 249.184C69.8125 248.949 70.0859 248.773 70.5156 248.656C70.9062 248.539 71.4531 248.441 72.1562 248.363C72.8594 248.246 73.7578 248.187 74.8516 248.187ZM65.2422 200.727C68.2109 200.727 70.8281 201.293 73.0937 202.426C75.3594 203.52 77.2539 205.082 78.7773 207.113C80.3008 209.145 81.4336 211.547 82.1758 214.32C82.957 217.094 83.3476 220.102 83.3476 223.344C83.3476 225.297 83.1914 227.172 82.8789 228.969C82.6055 230.727 82.2539 232.309 81.8242 233.715C81.3555 235.121 80.8867 236.293 80.418 237.23C79.9492 238.168 79.5195 238.852 79.1289 239.281C78.6992 239.711 78.0547 240.043 77.1953 240.277C76.2969 240.512 74.9883 240.629 73.2695 240.629C72.1367 240.629 71.2383 240.59 70.5742 240.512C69.8711 240.434 69.3242 240.316 68.9336 240.16C68.5039 240.004 68.2305 239.809 68.1133 239.574C67.957 239.34 67.8789 239.047 67.8789 238.695C67.8789 238.266 68.1328 237.641 68.6406 236.82C69.1094 235.961 69.6367 234.906 70.2226 233.656C70.8086 232.406 71.3555 230.961 71.8633 229.32C72.3711 227.641 72.625 225.746 72.625 223.637C72.625 222.309 72.4883 221.137 72.2148 220.121C71.9414 219.066 71.5508 218.168 71.043 217.426C70.5351 216.645 69.8906 216.059 69.1094 215.668C68.3281 215.277 67.4297 215.082 66.414 215.082C65.2422 215.082 64.2461 215.453 63.4258 216.195C62.5664 216.898 61.8242 217.855 61.1992 219.066C60.5742 220.238 59.9883 221.586 59.4414 223.109C58.8945 224.594 58.289 226.137 57.625 227.738C56.9609 229.301 56.1992 230.844 55.3398 232.367C54.4805 233.852 53.4258 235.199 52.1758 236.41C50.9258 237.582 49.4219 238.539 47.664 239.281C45.9062 239.984 43.7969 240.336 41.3359 240.336C38.8359 240.336 36.5508 239.848 34.4805 238.871C32.3711 237.895 30.5742 236.488 29.0898 234.652C27.6055 232.816 26.4531 230.59 25.6328 227.973C24.8125 225.316 24.4023 222.348 24.4023 219.066C24.4023 217.426 24.5195 215.844 24.7539 214.32C24.9883 212.758 25.2812 211.352 25.6328 210.102C25.9844 208.852 26.375 207.797 26.8047 206.937C27.1953 206.078 27.5469 205.473 27.8594 205.121C28.1328 204.73 28.4258 204.457 28.7383 204.301C29.0117 204.145 29.3633 204.027 29.793 203.949C30.1836 203.871 30.6914 203.812 31.3164 203.773C31.9023 203.695 32.6445 203.656 33.543 203.656C34.5976 203.656 35.457 203.695 36.1211 203.773C36.7851 203.812 37.3125 203.91 37.7031 204.066C38.0937 204.184 38.3672 204.359 38.5234 204.594C38.6406 204.828 38.6992 205.102 38.6992 205.414C38.6992 205.766 38.5039 206.312 38.1133 207.055C37.6836 207.797 37.2344 208.734 36.7656 209.867C36.2969 210.961 35.8672 212.25 35.4765 213.734C35.0469 215.18 34.832 216.84 34.832 218.715C34.832 220.043 34.9687 221.195 35.2422 222.172C35.5156 223.148 35.9062 223.949 36.414 224.574C36.9219 225.199 37.5273 225.668 38.2305 225.98C38.8945 226.293 39.6172 226.449 40.3984 226.449C41.6094 226.449 42.625 226.078 43.4453 225.336C44.2656 224.594 44.9883 223.617 45.6133 222.406C46.2383 221.195 46.8242 219.828 47.3711 218.305C47.918 216.742 48.5234 215.18 49.1875 213.617C49.8125 212.016 50.5547 210.453 51.414 208.93C52.2734 207.367 53.3281 205.98 54.5781 204.77C55.8281 203.559 57.332 202.582 59.0898 201.84C60.8086 201.098 62.8594 200.727 65.2422 200.727Z" fill="#d3d3d3"/>
<path d="M59.2656 116.586C63.25 116.586 66.7461 117.328 69.7539 118.812C72.7617 120.297 75.2812 122.309 77.3125 124.848C79.3047 127.387 80.8086 130.355 81.8242 133.754C82.8398 137.152 83.3476 140.785 83.3476 144.652C83.3476 147.27 83.1328 149.711 82.7031 151.977C82.2734 154.203 81.7656 156.176 81.1797 157.895C80.5547 159.613 79.9101 161.059 79.2461 162.23C78.582 163.363 77.9961 164.184 77.4883 164.691C76.9805 165.199 76.2578 165.57 75.3203 165.805C74.3437 166 72.957 166.098 71.1601 166.098C69.9492 166.098 68.9336 166.059 68.1133 165.98C67.293 165.902 66.6289 165.785 66.1211 165.629C65.6133 165.434 65.2617 165.199 65.0664 164.926C64.832 164.613 64.7148 164.262 64.7148 163.871C64.7148 163.324 65.0469 162.562 65.7109 161.586C66.3359 160.57 67.039 159.281 67.8203 157.719C68.6015 156.156 69.3242 154.301 69.9883 152.152C70.6133 149.965 70.9258 147.445 70.9258 144.594C70.9258 142.719 70.7109 141.039 70.2812 139.555C69.8125 138.07 69.168 136.82 68.3476 135.805C67.5273 134.75 66.5117 133.949 65.3008 133.402C64.0898 132.855 62.7422 132.582 61.2578 132.582C59.539 132.582 58.0742 133.051 56.8633 133.988C55.6133 134.926 54.5195 136.156 53.582 137.68C52.6055 139.164 51.707 140.863 50.8867 142.777C50.0273 144.691 49.1289 146.664 48.1914 148.695C47.2539 150.727 46.1992 152.699 45.0273 154.613C43.8164 156.527 42.3906 158.246 40.75 159.77C39.0703 161.254 37.0976 162.465 34.832 163.402C32.5664 164.34 29.8515 164.809 26.6875 164.809C23.0547 164.809 19.8711 164.145 17.1367 162.816C14.3633 161.449 12.0781 159.633 10.2812 157.367C8.4453 155.062 7.07811 152.367 6.17967 149.281C5.28123 146.156 4.83201 142.855 4.83201 139.379C4.83201 137.582 4.96873 135.785 5.24217 133.988C5.51561 132.191 5.8867 130.512 6.35545 128.949C6.8242 127.387 7.35154 126 7.93748 124.789C8.52342 123.578 9.0117 122.777 9.40233 122.387C9.79295 121.996 10.125 121.742 10.3984 121.625C10.6719 121.469 11.043 121.352 11.5117 121.273C11.9414 121.156 12.5078 121.078 13.2109 121.039C13.875 121 14.7148 120.98 15.7305 120.98C16.8633 120.98 17.8203 121.02 18.6015 121.098C19.3828 121.137 20.0273 121.234 20.5351 121.391C21.043 121.508 21.414 121.703 21.6484 121.977C21.8828 122.211 22 122.543 22 122.973C22 123.402 21.7265 124.086 21.1797 125.023C20.6328 125.961 20.0469 127.113 19.4219 128.48C18.7578 129.848 18.1719 131.43 17.664 133.227C17.1172 135.023 16.8437 136.996 16.8437 139.145C16.8437 140.824 17.0586 142.289 17.4883 143.539C17.8789 144.789 18.4453 145.844 19.1875 146.703C19.8906 147.523 20.75 148.148 21.7656 148.578C22.7812 148.969 23.8555 149.164 24.9883 149.164C26.668 149.164 28.1328 148.715 29.3828 147.816C30.5937 146.879 31.6875 145.648 32.664 144.125C33.6015 142.562 34.5 140.805 35.3594 138.852C36.1797 136.898 37.0586 134.906 37.9961 132.875C38.9336 130.844 40.0078 128.852 41.2187 126.898C42.3906 124.945 43.8164 123.207 45.4961 121.684C47.1367 120.16 49.0898 118.93 51.3555 117.992C53.582 117.055 56.2187 116.586 59.2656 116.586ZM80.1836 61.1562C80.7304 61.1562 81.1601 61.3516 81.4726 61.7422C81.7851 62.1328 82 62.7578 82.1172 63.6172C82.2734 64.4375 82.3515 65.668 82.3515 67.3086C82.3515 69.0664 82.2734 70.3555 82.1172 71.1758C82 71.957 81.7851 72.5234 81.4726 72.875C81.1601 73.1875 80.7304 73.3437 80.1836 73.3437L76.0234 73.3437C78.3281 75.4922 80.125 77.9531 81.414 80.7266C82.7031 83.4609 83.3476 86.5078 83.3476 89.8672C83.3476 92.6406 82.9765 95.1992 82.2344 97.543C81.5312 99.8477 80.4765 101.859 79.0703 103.578C77.625 105.258 75.8476 106.566 73.7383 107.504C71.6289 108.441 69.168 108.91 66.3555 108.91C63.3086 108.91 60.6719 108.324 58.4453 107.152C56.1797 105.941 54.3242 104.164 52.8789 101.82C51.3945 99.4375 50.3008 96.4883 49.5976 92.9727C48.8945 89.457 48.5429 85.375 48.5429 80.7266L48.5429 75.6289L45.3789 75.6289C43.7383 75.6289 42.3125 75.8047 41.1015 76.1562C39.8515 76.4687 38.8164 77.0156 37.9961 77.7969C37.1758 78.5391 36.5703 79.5547 36.1797 80.8437C35.789 82.0937 35.5937 83.6562 35.5937 85.5312C35.5937 87.9922 35.8672 90.1992 36.414 92.1523C36.9609 94.0664 37.5664 95.7656 38.2304 97.25C38.8945 98.7344 39.5 99.9844 40.0469 101C40.5937 101.977 40.8672 102.777 40.8672 103.402C40.8672 103.832 40.7305 104.223 40.457 104.574C40.1836 104.887 39.793 105.16 39.2851 105.395C38.7773 105.59 38.1523 105.746 37.4101 105.863C36.668 105.98 35.8476 106.039 34.9492 106.039C33.7383 106.039 32.7812 105.941 32.0781 105.746C31.375 105.551 30.75 105.18 30.2031 104.633C29.6172 104.086 28.9922 103.129 28.3281 101.762C27.625 100.395 26.9804 98.793 26.3945 96.957C25.8086 95.1211 25.3398 93.1289 24.9883 90.9805C24.5976 88.793 24.4023 86.5469 24.4023 84.2422C24.4023 80.1406 24.8125 76.6445 25.6328 73.7539C26.414 70.8242 27.6445 68.4219 29.3242 66.5469C30.9648 64.6719 33.0937 63.3047 35.7109 62.4453C38.3281 61.5859 41.4336 61.1562 45.0273 61.1562L80.1836 61.1562ZM57.8008 75.6289L57.8008 81.2539C57.8008 83.6367 57.9765 85.668 58.3281 87.3477C58.6797 89.0273 59.207 90.3945 59.9101 91.4492C60.6133 92.5039 61.4726 93.2852 62.4883 93.793C63.4648 94.2617 64.5976 94.4961 65.8867 94.4961C68.0742 94.4961 69.7929 93.8125 71.0429 92.4453C72.2929 91.0391 72.9179 89.1055 72.9179 86.6445C72.9179 84.5742 72.3906 82.6797 71.3359 80.9609C70.2812 79.2031 68.7383 77.4258 66.707 75.6289L57.8008 75.6289ZM82 18.3242L100.516 24.6523C101.492 25.0039 102.195 25.9609 102.625 27.5234C103.055 29.0859 103.27 31.3711 103.27 34.3789C103.27 35.9414 103.191 37.1914 103.035 38.1289C102.918 39.0664 102.703 39.7695 102.391 40.2383C102.078 40.707 101.687 40.9609 101.219 41C100.75 41.0391 100.184 40.9219 99.5195 40.6484L82 33.6758C81.7656 34.1836 81.414 34.6523 80.9453 35.082C80.4375 35.4727 79.9101 35.7656 79.3633 35.9609L31.3164 53.9492C29.9492 54.457 28.914 54.7109 28.2109 54.7109C27.4687 54.7109 26.9023 54.4766 26.5117 54.0078C26.082 53.5391 25.789 52.7578 25.6328 51.6641C25.4765 50.5312 25.3984 49.0469 25.3984 47.2109C25.3984 45.5312 25.4375 44.2031 25.5156 43.2266C25.5547 42.25 25.6914 41.4883 25.9258 40.9414C26.1601 40.3945 26.5312 39.9844 27.039 39.7109C27.5078 39.4375 28.1914 39.1641 29.0898 38.8906L64.0703 26.5859L64.0703 26.4102L28.3867 15.1602C27.3711 14.9258 26.707 14.6328 26.3945 14.2812C26.0429 13.8906 25.789 13.2656 25.6328 12.4062C25.4765 11.5469 25.3984 10.043 25.3984 7.89453C25.3984 6.21484 25.4765 4.82812 25.6328 3.73437C25.789 2.60156 26.082 1.78125 26.5117 1.27344C26.9414 0.726562 27.5273 0.453124 28.2695 0.453124C28.9726 0.453124 29.8125 0.609374 30.789 0.921874L82 18.3242Z" fill="#FFD503"/>
</svg>
