<svg viewBox="0 0 169 670" fill="none" xmlns="http://www.w3.org/2000/svg">
<path d="M143.313 550.937C144.669 550.937 145.856 550.979 146.874 551.064C147.891 551.148 148.781 551.317 149.544 551.571C150.307 551.74 150.985 551.993 151.579 552.332C152.172 552.67 152.893 553.261 153.74 554.107C154.588 554.952 155.902 556.727 157.682 559.432C159.378 562.137 161.074 565.519 162.769 569.576C164.38 573.549 165.736 578.156 166.838 583.397C168.025 588.553 168.619 594.217 168.619 600.388C168.619 611.039 166.838 620.676 163.278 629.298C159.717 637.836 154.461 645.148 147.509 651.234C140.558 657.236 131.996 661.885 121.822 665.182C111.565 668.394 99.7808 670 86.471 670C72.8222 670 60.6569 668.267 49.9752 664.801C39.2935 661.251 30.2649 656.306 22.8894 649.966C15.4291 643.626 9.74919 636.06 5.84951 627.269C1.94984 618.393 -2.68442e-06 608.588 -3.15369e-06 597.852C-3.36061e-06 593.118 0.466262 588.511 1.39879 584.031C2.24655 579.551 3.34863 575.409 4.70504 571.605C6.06145 567.801 7.62979 564.42 9.41008 561.461C11.1904 558.502 12.6739 556.474 13.8608 555.375C14.9629 554.191 15.8106 553.43 16.4041 553.092C16.9975 552.754 17.7181 552.501 18.5658 552.332C19.3288 552.078 20.2613 551.909 21.3634 551.824C22.4655 551.655 23.7795 551.571 25.3055 551.571C27.001 551.571 28.4422 551.655 29.629 551.824C30.8159 551.993 31.8332 552.247 32.681 552.585C33.4439 552.923 34.0374 553.346 34.4612 553.853C34.8004 554.276 34.9699 554.825 34.9699 555.502C34.9699 556.685 34.1645 558.333 32.5538 560.447C30.8583 562.56 29.0356 565.307 27.0858 568.688C25.0512 571.985 23.2285 576.043 21.6178 580.861C19.9222 585.595 19.0745 591.301 19.0745 597.979C19.0745 605.249 20.5581 611.884 23.5252 617.886C26.4076 623.803 30.6887 628.875 36.3687 633.102C42.0487 637.328 49.0003 640.625 57.2235 642.992C65.3619 645.274 74.6872 646.416 85.1994 646.416C95.6268 646.416 104.867 645.317 112.921 643.119C120.89 640.836 127.587 637.624 133.013 633.482C138.354 629.256 142.423 624.099 145.22 618.013C147.933 611.927 149.29 605.037 149.29 597.345C149.29 590.836 148.484 585.172 146.874 580.354C145.263 575.451 143.483 571.309 141.533 567.928C139.498 564.462 137.675 561.63 136.065 559.432C134.454 557.234 133.649 555.502 133.649 554.234C133.649 553.642 133.776 553.135 134.03 552.712C134.284 552.289 134.793 551.951 135.556 551.698C136.234 551.444 137.209 551.275 138.481 551.19C139.752 551.021 141.363 550.937 143.313 550.937Z" fill="#E7E7E8" fill-opacity="0.7"/>
<path d="M104.91 418.306C114.235 418.306 122.84 419.532 130.724 421.983C138.523 424.435 145.263 428.112 150.943 433.015C156.623 437.833 161.074 443.919 164.295 451.274C167.432 458.543 169 466.997 169 476.633C169 486.016 167.601 494.216 164.804 501.232C162.006 508.164 157.937 513.954 152.596 518.603C147.255 523.253 140.77 526.718 133.14 529.001C125.51 531.283 116.863 532.424 107.199 532.424C97.8733 532.424 89.311 531.241 81.5117 528.874C73.6275 526.423 66.8455 522.788 61.1655 517.969C55.4856 513.066 51.0773 506.98 47.9406 499.71C44.8039 492.441 43.2355 483.945 43.2355 474.224C43.2355 464.841 44.6343 456.684 47.4319 449.752C50.2295 442.736 54.2987 436.903 59.6396 432.254C64.9804 427.605 71.4658 424.139 79.0956 421.857C86.7254 419.49 95.3301 418.306 104.91 418.306ZM106.309 440.369C100.12 440.369 94.2704 440.961 88.76 442.144C83.2496 443.243 78.4174 445.103 74.2634 447.723C70.1094 450.344 66.8455 453.894 64.4718 458.374C62.0133 462.855 60.784 468.434 60.784 475.112C60.784 481.282 61.8861 486.608 64.0903 491.088C66.2945 495.484 69.4312 499.119 73.5004 501.993C77.4848 504.867 82.2323 507.022 87.7427 508.459C93.2531 509.812 99.2721 510.488 105.8 510.488C112.073 510.488 117.965 509.939 123.476 508.84C128.986 507.656 133.818 505.754 137.972 503.134C142.041 500.429 145.305 496.836 147.764 492.356C150.137 487.876 151.324 482.297 151.324 475.619C151.324 469.533 150.222 464.249 148.018 459.769C145.814 455.289 142.72 451.612 138.735 448.738C134.751 445.864 130.003 443.75 124.493 442.398C118.982 441.045 112.921 440.369 106.309 440.369Z" fill="#E7E7E8" fill-opacity="0.7"/>
<path d="M56.4605 320.799C58.3256 320.799 59.8939 320.841 61.1655 320.925C62.4372 321.01 63.4545 321.179 64.2175 321.433C64.8957 321.686 65.4467 322.024 65.8706 322.447C66.2097 322.785 66.3792 323.292 66.3792 323.969C66.3792 324.645 66.2097 325.49 65.8706 326.505C65.4467 327.434 65.0652 328.533 64.7261 329.801C64.3022 330.985 63.9207 332.337 63.5816 333.859C63.2425 335.38 63.073 337.029 63.073 338.804C63.073 340.917 63.4969 342.988 64.3446 345.017C65.1924 347.046 66.5912 349.201 68.541 351.484C70.4908 353.682 73.0765 356.006 76.298 358.458C79.5194 360.909 83.4615 363.614 88.1242 366.573L163.405 366.573C164.083 366.573 164.676 366.742 165.185 367.08C165.609 367.418 165.99 367.967 166.33 368.728C166.669 369.489 166.923 370.546 167.093 371.898C167.262 373.251 167.347 374.984 167.347 377.097C167.347 379.126 167.262 380.816 167.093 382.169C166.923 383.521 166.669 384.62 166.33 385.466C165.99 386.226 165.609 386.776 165.185 387.114C164.676 387.368 164.083 387.494 163.405 387.494L48.9579 387.494C48.2797 387.494 47.7286 387.368 47.3047 387.114C46.7961 386.86 46.3722 386.353 46.0331 385.592C45.6092 384.832 45.3549 383.859 45.2701 382.676C45.1006 381.493 45.0158 379.929 45.0158 377.984C45.0158 376.125 45.1006 374.603 45.2701 373.42C45.3549 372.152 45.6092 371.18 46.0331 370.503C46.3722 369.827 46.7961 369.362 47.3047 369.109C47.7286 368.771 48.2797 368.601 48.9579 368.601L65.6163 368.601C61.0384 365.474 57.3082 362.557 54.4259 359.852C51.5435 357.063 49.297 354.442 47.6862 351.991C45.9907 349.539 44.8462 347.13 44.2528 344.763C43.5746 342.312 43.2355 339.861 43.2355 337.409C43.2355 336.31 43.3203 335.085 43.4898 333.732C43.5746 332.295 43.7865 330.816 44.1257 329.294C44.4648 327.773 44.8462 326.42 45.2701 325.237C45.694 323.969 46.1179 323.081 46.5418 322.574C46.9656 322.067 47.3895 321.728 47.8134 321.559C48.1525 321.39 48.6188 321.264 49.2122 321.179C49.8056 321.01 50.6958 320.925 51.8826 320.925C52.9847 320.841 54.5107 320.799 56.4605 320.799Z" fill="#E7E7E8" fill-opacity="0.7"/>
<path d="M155.012 237.619C157.471 237.619 159.42 237.788 160.862 238.126C162.303 238.465 163.362 238.972 164.041 239.648C164.719 240.324 165.355 241.339 165.948 242.691C166.542 244.044 167.008 245.608 167.347 247.383C167.771 249.073 168.11 250.891 168.364 252.835C168.619 254.779 168.746 256.723 168.746 258.668C168.746 264.585 167.983 269.657 166.457 273.883C164.846 278.11 162.472 281.576 159.336 284.281C156.114 286.986 152.087 288.972 147.255 290.24C142.338 291.424 136.573 292.016 129.961 292.016L63.073 292.016L63.073 307.992C63.073 309.26 62.3948 310.274 61.0384 311.035C59.682 311.796 57.4778 312.176 54.4259 312.176C52.8151 312.176 51.4587 312.092 50.3567 311.923C49.2546 311.669 48.3644 311.373 47.6862 311.035C46.9232 310.697 46.4146 310.274 46.1603 309.767C45.8212 309.176 45.6516 308.542 45.6516 307.865L45.6516 292.016L18.4387 292.016C17.8452 292.016 17.2942 291.889 16.7855 291.635C16.2769 291.297 15.853 290.748 15.5139 289.987C15.09 289.141 14.7933 288.043 14.6238 286.69C14.4542 285.337 14.3694 283.647 14.3694 281.618C14.3694 279.505 14.4542 277.772 14.6238 276.419C14.7933 275.067 15.09 274.01 15.5139 273.249C15.853 272.489 16.2769 271.939 16.7855 271.601C17.2942 271.263 17.8452 271.094 18.4387 271.094L45.6516 271.094L45.6516 241.804C45.6516 241.127 45.8212 240.536 46.1603 240.028C46.4146 239.521 46.9232 239.099 47.6862 238.76C48.3644 238.338 49.2546 238.042 50.3566 237.873C51.4587 237.704 52.8151 237.619 54.4259 237.619C57.4778 237.619 59.682 238 61.0384 238.76C62.3948 239.521 63.073 240.536 63.073 241.804L63.073 271.094L126.909 271.094C134.793 271.094 140.77 269.953 144.839 267.67C148.823 265.303 150.816 261.119 150.816 255.117C150.816 253.173 150.646 251.44 150.307 249.919C149.883 248.397 149.459 247.045 149.035 245.861C148.611 244.678 148.23 243.663 147.891 242.818C147.467 241.973 147.255 241.212 147.255 240.536C147.255 240.113 147.382 239.733 147.637 239.394C147.806 238.972 148.188 238.676 148.781 238.507C149.374 238.253 150.18 238.042 151.197 237.873C152.214 237.704 153.486 237.619 155.012 237.619Z" fill="#E7E7E8" fill-opacity="0.7"/>
<path d="M101.222 115.386C104.528 115.386 106.902 116.231 108.343 117.922C109.7 119.528 110.378 121.388 110.378 123.501L110.378 198.312C116.736 198.312 122.458 197.678 127.545 196.41C132.631 195.142 136.997 193.029 140.643 190.07C144.288 187.111 147.086 183.265 149.035 178.531C150.985 173.798 151.96 168.007 151.96 161.16C151.96 155.75 151.536 150.932 150.688 146.705C149.756 142.479 148.739 138.844 147.637 135.801C146.534 132.673 145.56 130.137 144.712 128.193C143.779 126.164 143.313 124.642 143.313 123.628C143.313 123.036 143.483 122.529 143.822 122.106C144.076 121.599 144.5 121.219 145.093 120.965C145.687 120.712 146.534 120.543 147.637 120.458C148.654 120.289 149.926 120.204 151.451 120.204C152.554 120.204 153.528 120.247 154.376 120.331C155.139 120.416 155.86 120.543 156.538 120.712C157.131 120.796 157.682 121.007 158.191 121.346C158.7 121.599 159.208 121.98 159.717 122.487C160.141 122.909 160.904 124.262 162.006 126.544C163.023 128.827 164.041 131.785 165.058 135.42C166.075 139.055 166.965 143.282 167.728 148.1C168.576 152.834 169 157.906 169 163.316C169 172.699 167.686 180.941 165.058 188.041C162.43 195.057 158.53 200.975 153.359 205.793C148.188 210.611 141.702 214.246 133.903 216.698C126.104 219.149 117.033 220.375 106.69 220.375C96.856 220.375 88.0394 219.107 80.24 216.571C72.3559 214.035 65.701 210.4 60.2754 205.666C54.765 200.848 50.5686 195.057 47.6862 188.295C44.7191 181.532 43.2355 173.967 43.2355 165.598C43.2355 156.638 44.6767 149.03 47.5591 142.774C50.4414 136.435 54.3411 131.236 59.2581 127.178C64.0903 123.121 69.8126 120.162 76.4251 118.302C82.9528 116.358 89.9468 115.386 97.4071 115.386L101.222 115.386ZM94.991 136.435C83.9701 136.181 75.323 138.632 69.0497 143.789C62.7763 148.861 59.6396 156.426 59.6396 166.486C59.6396 171.642 60.6145 176.165 62.5643 180.053C64.5142 183.941 67.0998 187.196 70.3213 189.816C73.5428 192.437 77.3153 194.466 81.6388 195.903C85.8776 197.34 90.3283 198.143 94.991 198.312L94.991 136.435Z" fill="#E7E7E8" fill-opacity="0.7"/>
<path d="M160.989 1.0144C162.176 0.338128 163.193 -7.13339e-06 164.041 -7.17045e-06C164.804 -7.2038e-06 165.439 0.422661 165.948 1.268C166.457 2.0288 166.796 3.25451 166.965 4.94512C167.22 6.55126 167.347 8.66454 167.347 11.285C167.347 13.821 167.262 15.8497 167.093 17.3713C167.008 18.8083 166.838 19.9918 166.584 20.9217C166.245 21.767 165.863 22.4432 165.439 22.9504C164.931 23.3731 164.38 23.7535 163.786 24.0916L118.389 51.48L163.786 78.7415C164.38 79.0796 164.931 79.5023 165.439 80.0095C165.863 80.4321 166.245 81.1084 166.584 82.0383C166.838 82.8835 167.008 84.0247 167.093 85.4618C167.262 86.8988 167.347 88.8008 167.347 91.1677C167.347 93.6191 167.22 95.6479 166.965 97.254C166.796 98.7756 166.457 99.9167 165.948 100.678C165.439 101.354 164.804 101.692 164.041 101.692C163.193 101.607 162.176 101.185 160.989 100.424L105.164 64.9205L51.3739 98.522C50.1871 99.1982 49.2122 99.5786 48.4492 99.6631C47.6014 99.6631 46.9232 99.2828 46.4146 98.522C45.8212 97.6766 45.4397 96.4509 45.2701 94.8448C45.1006 93.1542 45.0158 90.9564 45.0158 88.2513C45.0158 85.7999 45.1006 83.8556 45.2701 82.4186C45.3549 80.897 45.5244 79.7136 45.7788 78.8683C46.0331 78.0229 46.3722 77.389 46.7961 76.9663C47.2199 76.5436 47.7286 76.1633 48.322 75.8251L90.9217 49.8316L48.322 23.4576C47.8134 23.1195 47.3471 22.7391 46.9232 22.3165C46.4994 21.8938 46.1602 21.3443 45.9059 20.6681C45.5668 19.9073 45.3549 18.8929 45.2701 17.6249C45.1006 16.2724 45.0158 14.455 45.0158 12.1726C45.0158 9.72119 45.1006 7.73468 45.2701 6.21313C45.4397 4.60699 45.7788 3.42358 46.2874 2.66278C46.7113 1.90198 47.3471 1.56384 48.1949 1.64837C49.0426 1.73291 50.1023 2.15558 51.3739 2.91638L104.528 36.2642L160.989 1.0144Z" fill="#E7E7E8" fill-opacity="0.7"/>
</svg>
