<svg viewBox="0 0 83 274" fill="none" xmlns="http://www.w3.org/2000/svg">
<g clip-path="url(#clip0)">
<path fill-rule="evenodd" clip-rule="evenodd" d="M3.67345 211.84L3.67345 220.19L41.9551 197.357L80.1797 219.57L80.1797 211.283L41.9069 189.047L3.67345 211.84Z" fill="#43CE5F"/>
<path fill-rule="evenodd" clip-rule="evenodd" d="M3.67345 230.428L3.67345 238.779L41.9551 215.946L80.1797 238.158L80.1797 229.863L41.9069 207.627L3.67345 230.428Z" fill="#FE9D00"/>
<path fill-rule="evenodd" clip-rule="evenodd" d="M3.67345 248.039L3.67345 253.813L3.67345 256.39L5.87728 255.078L41.8902 233.597L78.3591 254.783L79.9714 255.722L79.9714 253.853L80.1158 253.774L80.1158 247.523L79.9714 247.435L41.8431 225.287L3.67345 248.039Z" fill="#43CE5F"/>
<path fill-rule="evenodd" clip-rule="evenodd" d="M19.394 257.831L19.394 263.771L19.394 266.173L21.4475 264.948L41.7732 252.829L62.3475 264.781L64.1534 265.831L64.1534 263.74L64.1534 257.536L41.726 244.51L19.394 257.831Z" fill="#43CE5F"/>
<path fill-rule="evenodd" clip-rule="evenodd" d="M35.1146 265.665L35.1146 272.035L35.1146 274L36.7918 272.998L41.9835 269.905L47.2224 272.95L48.429 273.651L48.429 272.259L48.429 265.371L41.9354 261.593L35.1146 265.665Z" fill="#43CE5F"/>
</g>
<g clip-path="url(#clip1)">
<path fill-rule="evenodd" clip-rule="evenodd" d="M61.6006 40.601L74.5249 46.7412C76.2473 47.6364 77.108 48.7439 77.104 50.0637C77.1011 51.3845 76.1883 52.4871 74.3647 53.3735L61.5524 59.545L81.9214 59.5959L81.9047 66.2282L47.7822 66.1431L47.7979 59.6057L67.5194 50.0637L47.846 40.4719L47.8627 33.9345L81.9853 34.0186L81.9686 40.6519L61.6006 40.601ZM63.6482 84.0294C63.6521 82.6304 63.1677 81.4759 62.195 80.567C61.2233 79.6571 60.0108 79.2012 58.5557 79.1973C57.1025 79.1944 55.9284 79.6288 55.0304 80.5015C54.1343 81.3742 53.6833 82.5423 53.6794 84.005L53.6715 87.2972C53.6666 89.2705 54.6707 90.2587 56.683 90.2635L63.6325 90.2812L63.6482 84.0294ZM81.892 71.2394L81.8733 78.9214L69.2035 85.5234L69.1927 90.2939L81.8448 90.3262L81.8271 96.9585L55.0372 96.8919C52.4817 96.8861 50.6217 96.2932 49.4584 95.1123C48.2951 93.9334 47.7173 91.959 47.7242 89.1913L47.7389 83.5608C47.7458 80.1894 48.7834 77.5116 50.8497 75.5285C52.915 73.5453 55.5295 72.5572 58.6923 72.565C60.9934 72.5709 62.9801 73.1726 64.6543 74.3691C66.3286 75.5666 67.484 77.041 68.1187 78.7923L81.892 71.2394ZM70.2882 111.961L56.7626 115.936L70.2666 120.169L70.2882 111.961ZM81.8153 101.635L81.7986 108.554L75.8995 110.448L75.87 121.853L81.7603 123.728L81.7426 130.647L50.5235 119.69C49.4387 119.21 48.6881 118.676 48.2744 118.086C47.8618 117.496 47.6554 116.772 47.6574 115.913C47.6594 115.054 47.8529 114.363 48.2371 113.839C48.6223 113.315 49.3896 112.848 50.5412 112.437L81.8153 101.635ZM53.5566 133.106L53.5261 145.083C53.5232 146.483 53.7924 147.462 54.3337 148.02C54.8761 148.578 55.8174 148.858 57.1585 148.861L61.9042 148.873L61.9356 136.42L67.877 136.911L67.8466 148.889L81.6974 148.923L81.6807 155.555L54.5067 155.488C51.9835 155.482 50.1953 154.928 49.143 153.829C48.0917 152.728 47.57 150.843 47.5768 148.17L47.6142 133.091L53.5566 133.106ZM75.2137 163.532C75.7108 163.041 76.7582 162.796 78.3558 162.8C79.9534 162.804 81.0077 163.054 81.5176 163.548C82.0256 164.043 82.2801 165.085 82.2761 166.675C82.2712 168.266 82.0128 169.316 81.5009 169.823C80.989 170.331 79.9338 170.582 78.3362 170.578C76.7385 170.574 75.6931 170.317 75.1989 169.807C74.7057 169.297 74.46 168.247 74.464 166.656C74.4679 165.065 74.7185 164.024 75.2137 163.532ZM7.70742 0.322937L7.68482 9.43636L35.865 9.5068L35.8483 16.1401L7.66714 16.0696L7.64553 25.1361L1.70216 25.1214L1.76504 0.308258L7.70742 0.322937ZM22.5752 34.2387L22.5909 28.0839C26.9367 28.0946 30.2724 29.1845 32.598 31.3526C34.9267 33.5226 36.0841 36.58 36.0752 40.5237C36.0526 49.2077 30.914 53.5379 20.6573 53.5124L17.7824 53.5046C9.70001 53.4851 4.63994 51.2456 2.60707 46.7872C1.78076 45.0359 1.37006 42.9188 1.37694 40.4376C1.38578 36.8109 2.3919 33.8631 4.39333 31.5933C6.39672 29.3245 9.28342 28.1935 13.0534 28.2032L13.0377 34.4061C11.1512 34.7514 9.72851 35.3687 8.76758 36.2571C7.80666 37.1454 7.32424 38.5435 7.31932 40.4523C7.31343 42.6791 8.01299 44.3354 9.41606 45.4204C10.4045 46.1855 12.0964 46.6356 14.4928 46.7686C15.2592 46.8351 16.2978 46.8684 17.6075 46.8723L20.5787 46.8792C24.2524 46.888 26.7618 46.3861 28.1069 45.3705C29.451 44.3247 30.126 42.6967 30.1319 40.4846C30.1378 38.2745 29.5256 36.7463 28.2975 35.899C27.0703 35.0537 25.1622 34.5009 22.5752 34.2387ZM35.7431 57.9395L35.7127 69.9646C35.7038 73.7821 35.0338 76.4609 33.7034 77.9998C32.375 79.5397 30.0317 80.3048 26.6773 80.297L1.56362 80.2344L1.62061 57.8544L7.56299 57.8691L7.52369 73.6167L15.5265 73.6363L15.555 62.6141L21.4964 63.1053L21.4698 73.651L26.2145 73.6628C27.5566 73.6657 28.4842 73.3663 28.9961 72.7636C29.5099 72.16 29.7683 71.0632 29.7713 69.4724L29.8008 57.9249L35.7431 57.9395ZM17.4296 98.5972C17.4336 97.1982 16.9492 96.0437 15.9765 95.1348C15.0047 94.2259 13.7923 93.769 12.3371 93.7651C10.884 93.7612 9.70886 94.1966 8.8118 95.0693C7.91474 95.942 7.46474 97.1101 7.46081 98.5728L7.45295 101.866C7.44804 103.838 8.45121 104.826 10.4644 104.831L17.4139 104.848L17.4296 98.5972ZM35.6734 85.8071L35.6537 93.4892L22.9849 100.091L22.9741 104.863L35.6252 104.894L35.6085 111.526L8.81868 111.46C6.2631 111.454 4.40316 110.861 3.23983 109.68C2.07651 108.501 1.49877 106.527 1.50565 103.759L1.52039 98.1286C1.52727 94.7572 2.56483 92.0794 4.6311 90.0963C6.6964 88.1131 9.31093 87.125 12.4737 87.1328C14.7748 87.1387 16.7615 87.7404 18.4358 88.9369C20.11 90.1344 21.2655 91.6088 21.9002 93.3601L35.6734 85.8071ZM35.5889 119.447L35.5722 126.08L1.44965 125.995L1.46635 119.362L35.5889 119.447ZM27.4859 139.946C26.7529 139.34 25.739 138.947 24.4459 138.769C23.1519 138.592 21.1318 138.499 18.3847 138.492C15.6365 138.485 13.6469 138.568 12.4157 138.739C11.1856 138.912 10.2031 139.299 9.46617 139.901C8.0582 141.042 7.35077 142.696 7.34488 144.858L7.33014 150.823L26.2125 150.87C27.4908 150.873 28.3702 150.445 28.8516 149.587C29.3331 148.73 29.5767 147.196 29.5817 144.985C29.5876 142.774 28.889 141.094 27.4859 139.946ZM11.1149 132.175C12.9051 131.956 15.3182 131.852 18.3522 131.859L22.0427 131.82C24.3752 131.953 26.3393 132.244 27.9349 132.693C29.5325 133.143 30.9837 134.022 32.2905 135.329C34.458 137.499 35.5358 140.65 35.525 144.785C35.5132 149.652 34.8579 152.991 33.559 154.801C32.261 156.611 29.9187 157.512 26.5319 157.503L1.37105 157.441L1.40347 144.223C1.4133 140.405 2.50686 137.419 4.68514 135.26C6.44683 133.516 8.59073 132.487 11.1149 132.175Z" fill="#151526"/>
</g>
<defs>
<clipPath id="clip0">
<rect width="85.0431" height="77.8438" fill="white" transform="translate(2.57936 274) rotate(-90)"/>
</clipPath>
<clipPath id="clip1">
<rect width="171.935" height="81.5506" fill="white" transform="translate(0.725357 172.048) rotate(-90)"/>
</clipPath>
</defs>
</svg>
