<svg viewBox="0 0 82 364" fill="none" xmlns="http://www.w3.org/2000/svg">
<path d="M32.0114 258.243C32.0114 259.643 33.2199 260.777 34.715 260.777L36.548 260.777C38.0404 260.777 39.2516 259.643 39.2516 258.243L39.2516 251.712C39.2516 250.649 40.1709 249.787 41.3037 249.787C42.4392 249.787 43.3584 250.649 43.3584 251.712L43.3584 258.243C43.3584 259.643 44.5669 260.777 46.062 260.777L52.0288 260.777C53.2671 260.777 54.2728 261.718 54.2728 262.879C54.2728 264.04 53.2671 264.981 52.0288 264.981L30.5542 264.981C29.0591 264.981 27.8506 263.846 27.8506 262.447L27.8506 250.446C27.8506 249.359 28.7968 248.482 29.9567 248.496C31.0949 248.51 32.0114 249.379 32.0114 250.446L32.0114 258.243Z" fill="#323232"/>
<path d="M46.0546 238.802L52.5686 238.802C53.7297 238.802 54.6699 239.766 54.6699 240.956C54.6699 242.146 53.7297 243.11 52.5686 243.11L36.7389 243.11C35.5805 243.11 34.6403 242.146 34.6403 240.956L34.6403 239.629C34.6403 239.172 35.0013 238.802 35.4458 238.802C36.2836 238.802 36.7012 237.428 36.1543 236.78C35.9415 236.528 35.7421 236.263 35.5562 235.984C35.2006 235.437 34.9205 234.879 34.7184 234.309C34.317 233.18 35.2761 232.16 36.4452 232.145L38.3553 232.12C38.4738 232.119 38.5708 232.217 38.5708 232.338C38.5708 234.438 39.2335 236.04 40.5616 237.144C41.8897 238.249 43.7216 238.802 46.0546 238.802Z" fill="#323232"/>
<path d="M43.3156 209.224C44.8228 209.224 46.046 210.388 46.046 211.824L46.046 221.599C46.046 223.111 47.5176 224.351 48.7272 223.371C49.0384 223.119 49.3279 222.822 49.5927 222.478C50.5019 221.3 50.9579 219.931 50.9579 218.372C50.9579 216.734 50.6029 215.373 49.893 214.288C49.3333 213.431 49.2623 212.245 50.0405 211.562C50.7094 210.977 51.7551 210.978 52.3149 211.658C53.8821 213.561 54.6684 215.903 54.6684 218.684C54.6684 221.456 53.7046 223.778 51.7743 225.649C49.8466 227.521 47.3019 228.456 44.1347 228.456C41.0439 228.456 38.532 227.503 36.6044 225.597C34.6767 223.691 33.7129 221.387 33.7129 218.684C33.7129 215.981 34.5675 213.728 36.2767 211.926C37.9886 210.125 40.2603 209.224 43.0999 209.224L43.3156 209.224ZM42.663 215.879C42.663 214.442 41.3552 213.171 40.0282 213.851C39.5641 214.089 39.1518 214.4 38.7886 214.785C37.8412 215.756 37.3689 217.021 37.3689 218.58C37.3689 220.139 37.8603 221.508 38.8433 222.686C39.2091 223.113 39.6159 223.46 40.0637 223.727C41.3415 224.491 42.663 223.237 42.663 221.801L42.663 215.879Z" fill="#323232"/>
<path d="M54.6684 196.062C54.6684 198.57 53.9831 200.872 52.6152 202.969C52.0937 203.769 50.9661 203.948 50.1142 203.453C49.1313 202.881 48.9074 201.65 49.4835 200.713C50.4664 199.11 50.9579 197.526 50.9579 195.96C50.9579 195.076 50.7395 194.38 50.3026 193.869C49.8302 193.325 49.2459 193.053 48.5552 193.053C47.5559 193.053 46.663 194.263 45.8739 196.682C45.8439 196.778 45.8002 196.872 45.762 196.967C45.7538 196.986 45.7456 197.007 45.7374 197.029C45.7238 197.064 45.7019 197.113 45.6855 197.148C45.6582 197.213 45.6528 197.271 45.6337 197.338C44.5033 201.214 42.603 203.152 39.9327 203.152C38.0432 203.152 36.5334 202.489 35.4057 201.163C34.2781 199.803 33.7129 198.017 33.7129 195.808C33.7129 194.089 34.1443 192.435 35.0071 190.843C35.4057 190.103 36.3859 189.865 37.1805 190.236C38.1197 190.676 38.42 191.785 38.0187 192.696C37.5491 193.769 37.3142 194.908 37.3142 196.114C37.3142 198.256 38.0433 199.327 39.4985 199.327C40.1156 199.327 40.5716 199.123 40.861 198.715C41.1149 198.273 41.3716 197.559 41.6255 196.573C42.0624 195.076 42.4992 193.818 42.9361 192.798C43.2637 192.118 43.6077 191.523 43.9709 191.013C44.9183 189.721 46.3545 189.075 48.2821 189.075C50.1743 189.075 51.7197 189.738 52.921 191.064C54.0869 192.356 54.6684 194.023 54.6684 196.062Z" fill="#323232"/>
<path d="M52.5449 178.708C53.7185 178.708 54.6688 179.594 54.6688 180.686C54.6688 181.779 53.7185 182.665 52.5449 182.665L28.5454 182.665C27.3746 182.665 26.4243 181.779 26.4243 180.686C26.4243 179.594 27.3746 178.708 28.5454 178.708L34.0048 178.708C35.0177 178.708 35.6794 176.945 35.1865 176.121C34.4595 174.971 34.0974 173.736 34.0974 172.417C34.0974 170.219 34.8053 168.477 36.2185 167.192C37.6344 165.907 39.6493 165.264 42.2606 165.264L52.5177 165.264C53.7049 165.264 54.6688 166.162 54.6688 167.268C54.6688 168.375 53.7049 169.272 52.5177 169.272L43.5676 169.272C39.8291 169.272 37.9612 170.709 37.9612 173.584C37.9612 175.038 38.4703 176.256 39.486 177.237C40.4635 178.217 41.8603 178.708 43.6765 178.708L52.5449 178.708Z" fill="#323232"/>
<path d="M54.6684 142.466C54.6684 145.131 53.9831 147.577 52.6152 149.804C52.0937 150.655 50.9661 150.845 50.1142 150.318C49.1313 149.711 48.9074 148.403 49.4835 147.407C50.4664 145.704 50.9579 144.021 50.9579 142.358C50.9579 141.419 50.7395 140.678 50.3026 140.136C49.8302 139.558 49.2459 139.269 48.5552 139.269C47.5559 139.269 46.663 140.554 45.8739 143.124C45.8439 143.226 45.8002 143.327 45.762 143.427C45.7538 143.448 45.7456 143.47 45.7374 143.493C45.7238 143.531 45.7019 143.582 45.6855 143.619C45.6582 143.689 45.6528 143.75 45.6337 143.822C44.5033 147.94 42.603 149.999 39.9327 149.999C38.0432 149.999 36.5334 149.294 35.4057 147.885C34.2781 146.44 33.7129 144.543 33.7129 142.195C33.7129 140.369 34.1443 138.611 35.0071 136.921C35.4057 136.135 36.3859 135.881 37.1805 136.276C38.1197 136.743 38.42 137.922 38.0187 138.889C37.5491 140.029 37.3142 141.24 37.3142 142.52C37.3142 144.796 38.0433 145.934 39.4985 145.934C40.1156 145.934 40.5716 145.718 40.861 145.284C41.1149 144.815 41.3716 144.056 41.6255 143.008C42.0624 141.419 42.4992 140.082 42.9361 138.998C43.2637 138.275 43.6077 137.643 43.9709 137.101C44.9183 135.729 46.3545 135.042 48.2821 135.042C50.1743 135.042 51.7197 135.747 52.921 137.156C54.0869 138.528 54.6684 140.299 54.6684 142.466Z" fill="#323232"/>
<path d="M44.1893 131.379C41.134 131.379 38.6248 130.371 36.659 128.354C34.6958 126.337 33.7129 123.851 33.7129 120.895C33.7129 118.594 34.3682 116.574 35.676 114.834C36.2931 114.017 37.4999 113.968 38.319 114.601C39.231 115.303 39.3156 116.576 38.7286 117.542C38.0405 118.67 37.6965 119.805 37.6965 120.947C37.6965 122.686 38.2972 124.181 39.4985 125.433C40.6617 126.65 42.1716 127.258 44.0255 127.258C45.9176 127.258 47.5204 126.65 48.8282 125.433C50.1033 124.181 50.7394 122.651 50.7394 120.843C50.7394 119.542 50.2971 118.287 49.4125 117.076C48.8118 116.257 48.8145 115.115 49.5845 114.438C50.319 113.794 51.4685 113.817 52.0801 114.568C53.8057 116.689 54.6684 118.989 54.6684 121.469C54.6684 124.251 53.7046 126.598 51.7743 128.51C49.8111 130.423 47.2828 131.379 44.1893 131.379Z" fill="#323232"/>
<path d="M52.4022 91.9973C53.4725 91.9973 54.3408 92.8821 54.3408 93.9737L54.3408 95.2072C54.3408 95.6176 54.0132 95.9502 53.6118 95.9502C52.9319 95.9502 52.5825 96.868 52.992 97.4212C54.1087 98.9266 54.6684 100.738 54.6684 102.853C54.6684 105.044 54.0678 106.844 52.8664 108.254C51.6295 109.627 50.0296 110.314 48.0637 110.314C46.1006 110.314 44.6098 109.572 43.5914 108.087C42.5702 106.602 42.0624 104.561 42.0624 101.963L42.0624 97.0636C42.0624 96.6332 41.721 96.2841 41.2978 96.2841C38.6057 96.2841 37.2596 97.8243 37.2596 100.905C37.2596 102.383 37.6665 103.905 38.4747 105.469C38.9061 106.302 38.734 107.355 37.9832 107.902C37.2433 108.441 36.2057 108.296 35.7279 107.508C34.3846 105.305 33.7129 102.901 33.7129 100.293C33.7129 97.7316 34.3491 95.7089 35.6242 94.2242C36.861 92.7394 38.734 91.9973 41.2432 91.9973L52.4022 91.9973ZM46.7558 96.3399C45.8221 96.3399 45.063 97.1126 45.063 98.0656L45.063 101.239C45.063 104.394 46.0268 105.971 47.9545 105.971C48.9374 105.971 49.7019 105.582 50.248 104.802C50.7558 104.023 51.0125 102.928 51.0125 101.518C51.0125 100.07 50.6302 98.845 49.8657 97.843C49.0657 96.8407 48.0282 96.3399 46.7558 96.3399Z" fill="#323232"/>
<path d="M52.6005 80.7135C53.744 80.7135 54.6699 81.5991 54.6699 82.6918C54.6699 83.7846 53.744 84.6704 52.6005 84.6704L37.0107 84.6704C35.8698 84.6704 34.9439 83.7846 34.9439 82.6918L34.9439 81.4158C34.9439 81.0277 35.2729 80.7135 35.6788 80.7135C36.4349 80.7135 36.8223 79.5588 36.3447 78.9963C36.1033 78.7097 35.8831 78.4026 35.6867 78.0754C34.9784 76.9256 34.6255 75.7079 34.6255 74.4228C34.6255 72.2244 35.3153 70.4826 36.6923 69.1974C38.0719 67.9123 40.0352 67.2696 42.5796 67.2696L52.574 67.2696C53.7307 67.2696 54.6699 68.1669 54.6699 69.2736C54.6699 70.3803 53.7307 71.2773 52.574 71.2773L43.8531 71.2773C40.2104 71.2773 38.3903 72.7148 38.3903 75.5896C38.3903 77.0438 38.8864 78.2615 39.8761 79.2423C40.8285 80.2231 42.1896 80.7135 43.9592 80.7135L52.6005 80.7135Z" fill="#323232"/>
<path d="M52.6005 55.7776C53.744 55.7776 54.6699 56.7101 54.6699 57.8601C54.6699 59.0104 53.744 59.9429 52.6005 59.9429L37.0107 59.9429C35.8698 59.9429 34.9439 59.0104 34.9439 57.8601L34.9439 56.5169C34.9439 56.1086 35.2729 55.7776 35.6788 55.7776C36.4349 55.7776 36.8223 54.5621 36.3447 53.97C36.1033 53.6684 35.8831 53.3453 35.6867 53.0007C34.9784 51.7903 34.6255 50.5085 34.6255 49.1557C34.6255 46.8416 35.3153 45.0084 36.6923 43.6553C38.0719 42.3025 40.0352 41.6262 42.5796 41.6262L52.574 41.6262C53.7307 41.6262 54.6699 42.5705 54.6699 43.7355C54.6699 44.9004 53.7307 45.845 52.574 45.845L43.8531 45.845C40.2104 45.845 38.3903 47.3581 38.3903 50.384C38.3903 51.9148 38.8864 53.1965 39.8761 54.229C40.8285 55.2614 42.1896 55.7776 43.9592 55.7776L52.6005 55.7776Z" fill="#323232"/>
<path d="M43.3156 16.9C44.8228 16.9 46.046 18.1207 46.046 19.6246L46.046 29.8636C46.046 31.4493 47.5176 32.7462 48.7272 31.7218C49.0384 31.4575 49.3279 31.1442 49.5927 30.7845C50.5019 29.5503 50.9579 28.1172 50.9579 26.4824C50.9579 24.7686 50.6029 23.341 49.893 22.2048C49.3333 21.3084 49.2623 20.066 50.0405 19.3494C50.7094 18.7364 51.7551 18.7364 52.3149 19.4502C53.8821 21.4446 54.6684 23.8968 54.6684 26.8093C54.6684 29.7137 53.7046 32.1468 51.7743 34.1058C49.8466 36.0675 47.3019 37.0483 44.1347 37.0483C41.0439 37.0483 38.532 36.0484 36.6044 34.0513C34.6767 32.0569 33.7129 29.6429 33.7129 26.8093C33.7129 23.9785 34.5675 21.619 36.2767 19.7309C37.9886 17.8427 40.2603 16.9 43.0999 16.9L43.3156 16.9ZM42.663 23.8723C42.663 22.3656 41.3552 21.036 40.0282 21.7471C39.5641 21.9977 39.1518 22.322 38.7886 22.7252C37.8412 23.7415 37.3689 25.0684 37.3689 26.7004C37.3689 28.3351 37.8603 29.7682 38.8433 31.0025C39.2091 31.4493 39.6159 31.8144 40.0637 32.095C41.3415 32.8933 42.663 31.5801 42.663 30.0761L42.663 23.8723Z" fill="#323232"/>
<path d="M46.0546 7.0946L52.5686 7.0946C53.7297 7.0946 54.6699 8.05926 54.6699 9.25057C54.6699 10.4391 53.7297 11.4038 52.5686 11.4038L36.7389 11.4038C35.5805 11.4038 34.6403 10.4391 34.6403 9.25057L34.6403 7.92383C34.6403 7.46499 35.0013 7.0946 35.4458 7.0946C36.2836 7.0946 36.7012 5.72363 36.1543 5.07407C35.9415 4.82254 35.7421 4.55719 35.5562 4.27802C35.2006 3.73073 34.9205 3.17238 34.7184 2.60298C34.317 1.47523 35.2761 0.455299 36.4452 0.438715L38.3553 0.413831C38.4738 0.413831 38.5708 0.51058 38.5708 0.632199C38.5708 2.73013 39.2335 4.33329 40.5616 5.43892C41.8897 6.54455 43.7216 7.0946 46.0546 7.0946Z" fill="#323232"/>
<g clip-path="url(#clip0)">
<path d="M28.8513 330.858L29.1062 330.247C29.496 329.311 30.0038 328.757 30.5173 328.281C30.7197 328.718 30.9783 329.138 31.2875 329.537C32.0089 330.428 32.7885 331.029 33.8229 331.5L35.369 332.208L35.161 330.513C35.0148 329.298 35.2846 328.484 35.5451 327.695C35.6538 327.373 35.7625 327.043 35.8375 326.699C35.9799 326.721 36.1242 326.738 36.2666 326.749C37.1211 326.825 37.9888 326.71 38.8452 326.412C39.919 326.015 40.736 325.472 41.5156 324.642L42.0384 324.082L41.6111 323.447C40.9721 322.504 40.2506 321.835 39.2706 321.279C38.5809 320.908 37.8763 320.669 37.153 320.567C37.2204 320.179 37.2336 319.795 37.2486 319.418C37.2804 318.589 37.3123 317.73 37.8782 316.647L38.6709 315.135L36.975 315.246C35.8431 315.319 34.9042 315.604 33.9298 316.173C33.3638 316.517 32.8728 316.922 32.4606 317.39C32.3669 317.282 32.2694 317.177 32.1739 317.073C31.6135 316.463 31.0326 315.832 30.6709 314.662L30.165 313.029L29.2898 314.029C30.982 308.382 35.9237 306.579 41.4706 306.579C49.2401 306.579 55.5384 313.835 55.5384 322.786C55.5384 331.736 49.2401 338.993 41.4706 338.993C35.7438 338.993 30.3036 336.916 28.8513 330.858Z" fill="#EF0304"/>
<path d="M32.7651 318.511C33.1755 317.917 33.7115 317.409 34.3842 317C35.0701 316.599 35.8647 316.275 37.0115 316.201C35.7579 318.599 36.723 320.093 35.7672 321.492C36.0671 321.462 36.3632 321.455 36.6611 321.481C37.3788 321.532 38.0853 321.739 38.7787 322.114C39.4702 322.506 40.1504 323.028 40.797 323.986C40.008 324.827 39.2528 325.233 38.507 325.51C37.7649 325.77 37.0359 325.863 36.3182 325.797C35.8516 325.757 35.3906 325.65 34.9352 325.482C35.1526 326.998 33.8802 328.076 34.1931 330.63C33.1456 330.152 32.5159 329.566 32.0156 328.948C31.5302 328.326 31.2098 327.662 31.0355 326.959C30.998 326.814 30.9718 326.671 30.9493 326.522C30.2109 327.407 28.9985 327.976 28.2077 329.88C27.5349 328.941 27.2763 328.117 27.1489 327.332C27.0346 326.548 27.0833 325.812 27.28 325.115C27.4712 324.418 27.8066 323.759 28.3032 323.144C28.5019 322.909 28.7305 322.681 28.9816 322.461C26.2625 321.615 24.0924 320.617 23.8994 320.526L24.2011 319.873C24.248 319.893 26.508 320.937 29.3058 321.8C29.2646 321.754 29.2252 321.705 29.1915 321.656C28.7549 320.999 28.4831 320.311 28.3595 319.597C28.232 318.887 28.2526 318.145 28.44 317.379C28.6443 316.608 28.9779 315.815 29.7368 314.945C30.4508 317.252 31.905 317.799 32.4297 319.07C32.5328 318.878 32.6415 318.69 32.7651 318.511ZM31.3803 323.306C31.3803 323.316 31.3859 323.325 31.3878 323.333C31.4028 323.299 31.4215 323.263 31.4384 323.229C31.4196 323.254 31.4009 323.28 31.3803 323.306Z" fill="#2A6A00"/>
</g>
<path d="M41.2576 284.964C62.0388 284.964 78.8852 301.898 78.8852 322.787C78.8852 343.676 62.0388 360.609 41.2576 360.609C20.4764 360.609 3.62988 343.676 3.62988 322.787C3.62988 301.898 20.4764 284.964 41.2576 284.964ZM41.2576 359.623C61.4969 359.623 77.9041 343.131 77.9041 322.787C77.9041 302.443 61.4969 285.95 41.2576 285.95C21.0182 285.95 4.61101 302.443 4.61101 322.787C4.61101 343.131 21.0182 359.623 41.2576 359.623Z" fill="#292929"/>
<path d="M33.2124 351.852L63.8758 350.873L65.4982 331.793L72.6368 317.442L65.4982 302.927L26.885 302.927L7.90283 324.78L11.7966 339.621L16.1771 353.482" stroke="#585858" stroke-width="1.36201"/>
<path d="M33.2124 351.852L63.8758 350.873L65.4982 331.793L72.6368 317.442L65.4982 302.927L26.885 302.927L7.90283 324.78L11.7966 339.621L16.1771 353.482" stroke="url(#paint0_linear)" stroke-width="1.36201"/>
<path d="M48.534 359.153L33.3056 351.998L25.0293 342.681L11.6216 339.686L7.86645 324.714L13.2482 310.457L9.73205 297.822" stroke="#585858" stroke-width="1.02151"/>
<path d="M33.9014 293.658L26.7756 302.706L24.9004 285.993" stroke="#585858" stroke-width="1.02151"/>
<path d="M25.2771 342.791L50.78 344.299L33.5281 351.964L14.2759 352.718" stroke="#585858" stroke-width="1.02151"/>
<path d="M25.2771 342.791L50.78 344.299L33.5281 351.964L14.2759 352.718" stroke="url(#paint1_linear)" stroke-width="1.02151"/>
<path d="M72.6587 317.281L50.4062 297.929L34.0293 293.657L43.9962 283.505L65.5329 302.956L72.6587 299.689" stroke="#585858" stroke-width="1.02151"/>
<path d="M72.6587 317.281L50.4062 297.929L34.0293 293.657L43.9962 283.505L65.5329 302.956L72.6587 299.689" stroke="url(#paint2_linear)" stroke-width="1.02151"/>
<path d="M24.7984 342.888L12.9528 310.771L26.8246 302.624L8.58862 298.864" stroke="#585858" stroke-width="1.02151"/>
<path d="M24.7984 342.888L12.9528 310.771L26.8246 302.624L8.58862 298.864" stroke="url(#paint3_linear)" stroke-width="1.02151"/>
<path d="M13.2672 310.299L2.98022 312.336L8.1237 325.183L3.46187 331.205L11.5527 339.753" stroke="#585858" stroke-width="1.02151"/>
<path d="M13.2672 310.299L2.98022 312.336L8.1237 325.183L3.46187 331.205L11.5527 339.753" stroke="url(#paint4_linear)" stroke-width="1.02151"/>
<path d="M58.6213 358.085L50.5164 344.141L65.1675 332.234L76.8573 336.151L72.9607 317.507L78.8835 314.844" stroke="#585858" stroke-width="1.02151"/>
<path d="M58.6213 358.085L50.5164 344.141L65.1675 332.234L76.8573 336.151L72.9607 317.507L78.8835 314.844" stroke="url(#paint5_linear)" stroke-width="1.02151"/>
<path d="M50.111 297.938L47.7212 284.059" stroke="#585858" stroke-width="1.02151"/>
<ellipse cx="24.9009" cy="342.686" rx="1.82587" ry="1.81646" transform="rotate(-90 24.9009 342.686)" fill="#323232"/>
<ellipse cx="65.9129" cy="331.917" rx="1.82587" ry="1.81646" transform="rotate(-90 65.9129 331.917)" fill="#323232"/>
<ellipse cx="65.4598" cy="302.555" rx="1.82587" ry="1.81646" transform="rotate(-90 65.4598 302.555)" fill="#323232"/>
<ellipse cx="13.3489" cy="310.555" rx="1.49232" ry="1.48463" transform="rotate(-90 13.3489 310.555)" fill="#323232"/>
<ellipse cx="12.1971" cy="339.368" rx="1.82587" ry="1.81646" transform="rotate(-90 12.1971 339.368)" fill="#323232"/>
<ellipse cx="26.1243" cy="302.556" rx="2.0867" ry="2.07595" transform="rotate(-90 26.1243 302.556)" fill="#323232"/>
<ellipse cx="33.5414" cy="351.948" rx="3.13006" ry="3.11392" transform="rotate(-90 33.5414 351.948)" fill="#323232"/>
<ellipse cx="34.1728" cy="293.627" rx="3.13006" ry="3.11392" transform="rotate(-90 34.1728 293.627)" fill="#323232"/>
<ellipse cx="50.189" cy="297.99" rx="2.49579" ry="2.48292" transform="rotate(-90 50.189 297.99)" fill="#323232"/>
<ellipse cx="72.6344" cy="317.282" rx="3.13006" ry="3.11392" transform="rotate(-90 72.6344 317.282)" fill="#323232"/>
<ellipse cx="7.90128" cy="325.027" rx="3.13006" ry="3.11392" transform="rotate(-90 7.90128 325.027)" fill="#323232"/>
<ellipse cx="48.7901" cy="359.153" rx="2.49579" ry="2.48292" transform="rotate(-90 48.7901 359.153)" fill="#323232"/>
<ellipse cx="50.7314" cy="344.636" rx="1.95048" ry="1.94043" transform="rotate(-90 50.7314 344.636)" fill="#323232"/>
<ellipse cx="63.6406" cy="350.768" rx="1.95048" ry="1.94043" transform="rotate(-90 63.6406 350.768)" fill="#323232"/>
<path d="M41.0007 281.575C63.6444 281.575 82.0007 300.027 82.0007 322.788C82.0007 345.549 63.6444 364 41.0007 364C18.3571 364 0.000731602 345.549 0.000730591 322.788C0.00072958 300.027 18.3571 281.575 41.0007 281.575ZM41.0007 360.246C61.5818 360.246 78.266 343.475 78.266 322.788C78.266 302.1 61.5818 285.329 41.0007 285.329C20.4197 285.329 3.73545 302.1 3.73545 322.788C3.73545 343.475 20.4197 360.246 41.0007 360.246Z" fill="#585858"/>
<defs>
<linearGradient id="paint0_linear" x1="12.5561" y1="350.64" x2="51.2771" y2="283.43" gradientUnits="userSpaceOnUse">
<stop/>
<stop offset="1" stop-color="#6A6A6A" stop-opacity="0"/>
</linearGradient>
<linearGradient id="paint1_linear" x1="16.8999" y1="352.16" x2="20.2899" y2="335.262" gradientUnits="userSpaceOnUse">
<stop/>
<stop offset="1" stop-color="#6A6A6A" stop-opacity="0"/>
</linearGradient>
<linearGradient id="paint2_linear" x1="36.8061" y1="315.324" x2="65.2212" y2="272.577" gradientUnits="userSpaceOnUse">
<stop/>
<stop offset="1" stop-color="#6A6A6A" stop-opacity="0"/>
</linearGradient>
<linearGradient id="paint3_linear" x1="9.89948" y1="340.413" x2="43.1788" y2="321.726" gradientUnits="userSpaceOnUse">
<stop/>
<stop offset="1" stop-color="#6A6A6A" stop-opacity="0"/>
</linearGradient>
<linearGradient id="paint4_linear" x1="2.85173" y1="338.097" x2="24.1161" y2="327.114" gradientUnits="userSpaceOnUse">
<stop/>
<stop offset="1" stop-color="#6A6A6A" stop-opacity="0"/>
</linearGradient>
<linearGradient id="paint5_linear" x1="52.5555" y1="355.653" x2="90.577" y2="321.842" gradientUnits="userSpaceOnUse">
<stop/>
<stop offset="1" stop-color="#6A6A6A" stop-opacity="0"/>
</linearGradient>
<clipPath id="clip0">
<rect width="32.4143" height="32.2472" fill="white" transform="translate(23.595 338.995) rotate(-90)"/>
</clipPath>
</defs>
</svg>
