<svg viewBox="0 0 174 683" fill="none" xmlns="http://www.w3.org/2000/svg">
<path d="M39.2109 359.195C45.5 359.195 51.125 359.977 56.0859 361.539C61.0469 363.102 65.2656 365.426 68.7422 368.512C72.1797 371.598 74.8164 375.426 76.6523 379.996C78.4492 384.527 79.3476 389.781 79.3476 395.758C79.3476 401.656 78.5859 406.812 77.0625 411.227C75.5 415.602 73.1367 419.254 69.9726 422.184C66.8086 425.113 62.7851 427.32 57.9023 428.805C53.0195 430.25 47.2383 430.973 40.5586 430.973C34.4258 430.973 28.918 430.191 24.0351 428.629C19.1133 427.066 14.9336 424.742 11.4961 421.656C8.05858 418.57 5.42186 414.762 3.58593 410.23C1.74999 405.66 0.832019 400.367 0.832018 394.352C0.832018 388.609 1.59374 383.551 3.11717 379.176C4.64061 374.762 6.98436 371.09 10.1484 368.16C13.3125 365.191 17.3164 362.965 22.1601 361.48C26.9648 359.957 32.6484 359.195 39.2109 359.195ZM40.0312 375.367C36.0469 375.367 32.4336 375.68 29.1914 376.305C25.9101 376.93 23.1172 378.004 20.8125 379.527C18.4687 381.012 16.6719 383.004 15.4219 385.504C14.1328 388.004 13.4883 391.129 13.4883 394.879C13.4883 398.668 14.2109 401.832 15.6562 404.371C17.0625 406.91 18.957 408.961 21.3398 410.523C23.7226 412.086 26.5156 413.199 29.7187 413.863C32.8828 414.488 36.2422 414.801 39.7969 414.801C43.9375 414.801 47.668 414.488 50.9883 413.863C54.2695 413.238 57.082 412.184 59.4258 410.699C61.7695 409.215 63.5664 407.223 64.8164 404.723C66.0273 402.223 66.6328 399.078 66.6328 395.289C66.6328 391.5 65.9297 388.336 64.5234 385.797C63.1172 383.258 61.2031 381.207 58.7812 379.645C56.3594 378.082 53.5469 376.988 50.3437 376.363C47.1015 375.699 43.664 375.367 40.0312 375.367ZM76.0078 297.496C76.3984 297.496 76.75 297.594 77.0625 297.789C77.3359 297.984 77.5703 298.336 77.7656 298.844C77.9609 299.312 78.0976 299.957 78.1758 300.777C78.293 301.559 78.3515 302.555 78.3515 303.766C78.3515 305.055 78.293 306.109 78.1758 306.93C78.0976 307.711 77.9609 308.336 77.7656 308.805C77.5703 309.273 77.3359 309.605 77.0625 309.801C76.75 309.996 76.3984 310.094 76.0078 310.094L69.9726 310.094C73.0976 312.984 75.4414 315.934 77.0039 318.941C78.5664 321.91 79.3476 324.996 79.3476 328.199C79.3476 331.793 78.7617 334.82 77.5898 337.281C76.418 339.703 74.8164 341.676 72.7851 343.199C70.7539 344.684 68.4101 345.758 65.7539 346.422C63.0586 347.047 59.7187 347.359 55.7344 347.359L23.7422 347.359C23.3515 347.359 23.0195 347.262 22.7461 347.066C22.4336 346.832 22.1797 346.441 21.9844 345.895C21.789 345.309 21.6523 344.547 21.5742 343.609C21.457 342.633 21.3984 341.441 21.3984 340.035C21.3984 338.59 21.457 337.398 21.5742 336.461C21.6523 335.523 21.789 334.781 21.9844 334.234C22.1797 333.648 22.4336 333.238 22.7461 333.004C23.0195 332.77 23.3515 332.652 23.7422 332.652L53.2734 332.652C56.0078 332.652 58.0976 332.477 59.543 332.125C60.9883 331.773 62.2383 331.246 63.293 330.543C64.3086 329.801 65.1094 328.883 65.6953 327.789C66.2422 326.656 66.5156 325.348 66.5156 323.863C66.5156 321.988 65.832 320.113 64.4648 318.238C63.0976 316.324 61.1055 314.293 58.4883 312.145L23.7422 312.145C23.3515 312.145 23.0195 312.047 22.7461 311.852C22.4336 311.617 22.1797 311.227 21.9844 310.68C21.789 310.094 21.6523 309.332 21.5742 308.395C21.457 307.457 21.3984 306.266 21.3984 304.82C21.3984 303.375 21.457 302.184 21.5742 301.246C21.6523 300.309 21.789 299.566 21.9844 299.02C22.1797 298.473 22.4336 298.082 22.7461 297.848C23.0195 297.613 23.3515 297.496 23.7422 297.496L76.0078 297.496ZM28.6054 249.039C30.0117 249.039 31.164 249.078 32.0625 249.156C32.9609 249.234 33.664 249.352 34.1719 249.508C34.6797 249.664 35.0312 249.879 35.2265 250.152C35.4219 250.387 35.5195 250.699 35.5195 251.09C35.5195 251.402 35.4609 251.754 35.3437 252.145C35.1875 252.535 35.0312 252.984 34.875 253.492C34.7187 253.961 34.582 254.488 34.4648 255.074C34.3086 255.66 34.2304 256.305 34.2304 257.008C34.2304 257.828 34.4062 258.648 34.7578 259.469C35.0703 260.289 35.5781 261.148 36.2812 262.047C36.9844 262.906 37.9219 263.824 39.0937 264.801C40.2656 265.738 41.7109 266.754 43.4297 267.848L76.0078 267.848C76.3984 267.848 76.75 267.965 77.0625 268.199C77.3359 268.434 77.5703 268.844 77.7656 269.43C77.9609 269.977 78.0976 270.719 78.1758 271.656C78.293 272.594 78.3515 273.785 78.3515 275.23C78.3515 276.676 78.293 277.867 78.1758 278.805C78.0976 279.742 77.9609 280.504 77.7656 281.09C77.5703 281.637 77.3359 282.027 77.0625 282.262C76.75 282.496 76.3984 282.613 76.0078 282.613L23.7422 282.613C23.3515 282.613 23.0195 282.516 22.7461 282.32C22.4336 282.125 22.1797 281.773 21.9844 281.266C21.789 280.758 21.6523 280.113 21.5742 279.332C21.457 278.512 21.3984 277.496 21.3984 276.285C21.3984 275.035 21.457 274 21.5742 273.18C21.6523 272.359 21.789 271.734 21.9844 271.305C22.1797 270.836 22.4336 270.504 22.7461 270.309C23.0195 270.113 23.3515 270.016 23.7422 270.016L30.2461 270.016C28.293 268.648 26.6914 267.359 25.4414 266.148C24.1523 264.937 23.1367 263.785 22.3945 262.691C21.6523 261.598 21.1445 260.504 20.8711 259.41C20.5586 258.316 20.4023 257.223 20.4023 256.129C20.4023 255.621 20.4414 255.074 20.5195 254.488C20.5586 253.902 20.6562 253.297 20.8125 252.672C20.9297 252.047 21.0859 251.5 21.2812 251.031C21.4375 250.562 21.6133 250.23 21.8086 250.035C22.0039 249.801 22.2187 249.645 22.4531 249.566C22.6875 249.449 23.0195 249.352 23.4492 249.273C23.8398 249.195 24.4453 249.137 25.2656 249.098C26.0859 249.059 27.1992 249.039 28.6054 249.039Z" fill="#d3d3d3"/>
<path d="M170.184 634.82C170.73 634.82 171.16 635.016 171.473 635.406C171.785 635.797 172 636.422 172.117 637.281C172.273 638.102 172.352 639.332 172.352 640.973C172.352 642.73 172.273 644.02 172.117 644.84C172 645.621 171.785 646.187 171.473 646.539C171.16 646.852 170.73 647.008 170.184 647.008L166.023 647.008C168.328 649.156 170.125 651.617 171.414 654.391C172.703 657.125 173.348 660.172 173.348 663.531C173.348 666.305 172.977 668.863 172.234 671.207C171.531 673.512 170.477 675.523 169.07 677.242C167.625 678.922 165.848 680.23 163.738 681.168C161.629 682.105 159.168 682.574 156.355 682.574C153.309 682.574 150.672 681.988 148.445 680.816C146.18 679.605 144.324 677.828 142.879 675.484C141.395 673.102 140.301 670.152 139.598 666.637C138.895 663.121 138.543 659.039 138.543 654.391L138.543 649.293L135.379 649.293C133.738 649.293 132.312 649.469 131.102 649.82C129.852 650.133 128.816 650.68 127.996 651.461C127.176 652.203 126.57 653.219 126.18 654.508C125.789 655.758 125.594 657.32 125.594 659.195C125.594 661.656 125.867 663.863 126.414 665.816C126.961 667.73 127.566 669.43 128.23 670.914C128.895 672.398 129.5 673.648 130.047 674.664C130.594 675.641 130.867 676.441 130.867 677.066C130.867 677.496 130.73 677.887 130.457 678.238C130.184 678.551 129.793 678.824 129.285 679.059C128.777 679.254 128.152 679.41 127.41 679.527C126.668 679.645 125.848 679.703 124.949 679.703C123.738 679.703 122.781 679.605 122.078 679.41C121.375 679.215 120.75 678.844 120.203 678.297C119.617 677.75 118.992 676.793 118.328 675.426C117.625 674.059 116.98 672.457 116.395 670.621C115.809 668.785 115.34 666.793 114.988 664.645C114.598 662.457 114.402 660.211 114.402 657.906C114.402 653.805 114.812 650.309 115.633 647.418C116.414 644.488 117.645 642.086 119.324 640.211C120.965 638.336 123.094 636.969 125.711 636.109C128.328 635.25 131.434 634.82 135.027 634.82L170.184 634.82ZM147.801 649.293L147.801 654.918C147.801 657.301 147.977 659.332 148.328 661.012C148.68 662.691 149.207 664.059 149.91 665.113C150.613 666.168 151.473 666.949 152.488 667.457C153.465 667.926 154.598 668.16 155.887 668.16C158.074 668.16 159.793 667.477 161.043 666.109C162.293 664.703 162.918 662.77 162.918 660.309C162.918 658.238 162.391 656.344 161.336 654.625C160.281 652.867 158.738 651.09 156.707 649.293L147.801 649.293ZM161.687 580.504C162.703 580.504 163.562 580.543 164.266 580.621C164.93 580.66 165.496 580.738 165.965 580.855C166.434 580.934 166.824 581.051 167.137 581.207C167.41 581.324 167.781 581.617 168.25 582.086C168.68 582.555 169.227 583.355 169.891 584.488C170.516 585.621 171.082 586.91 171.59 588.355C172.098 589.801 172.508 591.383 172.82 593.102C173.133 594.781 173.289 596.52 173.289 598.316C173.289 602.34 172.664 605.914 171.414 609.039C170.164 612.125 168.328 614.723 165.906 616.832C163.445 618.941 160.457 620.543 156.941 621.637C153.426 622.691 149.402 623.219 144.871 623.219C139.637 623.219 135.125 622.574 131.336 621.285C127.508 619.957 124.344 618.121 121.844 615.777C119.344 613.434 117.488 610.66 116.277 607.457C115.066 604.254 114.461 600.738 114.461 596.91C114.461 595.348 114.598 593.824 114.871 592.34C115.145 590.816 115.516 589.41 115.984 588.121C116.453 586.793 116.98 585.621 117.566 584.605C118.152 583.551 118.66 582.809 119.09 582.379C119.52 581.949 119.891 581.656 120.203 581.5C120.477 581.305 120.848 581.168 121.316 581.09C121.785 580.973 122.371 580.895 123.074 580.855C123.738 580.777 124.559 580.738 125.535 580.738C127.801 580.738 129.402 580.934 130.34 581.324C131.238 581.715 131.687 582.223 131.687 582.848C131.687 583.512 131.414 584.215 130.867 584.957C130.32 585.699 129.715 586.578 129.051 587.594C128.387 588.609 127.781 589.82 127.234 591.227C126.687 592.633 126.414 594.312 126.414 596.266C126.414 600.094 127.898 603.023 130.867 605.055C133.797 607.086 138.113 608.102 143.816 608.102C146.629 608.102 149.109 607.848 151.258 607.34C153.406 606.832 155.203 606.09 156.648 605.113C158.094 604.098 159.187 602.848 159.93 601.363C160.633 599.84 160.984 598.082 160.984 596.09C160.984 594.059 160.691 592.32 160.105 590.875C159.48 589.391 158.797 588.102 158.055 587.008C157.312 585.914 156.648 584.996 156.062 584.254C155.437 583.512 155.125 582.887 155.125 582.379C155.125 582.027 155.223 581.734 155.418 581.5C155.613 581.266 155.984 581.09 156.531 580.973C157.039 580.816 157.703 580.699 158.523 580.621C159.344 580.543 160.398 580.504 161.687 580.504ZM170.008 519.859C170.398 519.859 170.75 519.977 171.062 520.211C171.336 520.445 171.57 520.836 171.766 521.383C171.961 521.93 172.098 522.691 172.176 523.668C172.293 524.605 172.352 525.777 172.352 527.184C172.352 528.629 172.293 529.84 172.176 530.816C172.098 531.754 171.961 532.496 171.766 533.043C171.57 533.59 171.336 533.98 171.062 534.215C170.75 534.449 170.398 534.566 170.008 534.566L140.184 534.566C137.645 534.566 135.652 534.762 134.207 535.152C132.762 535.504 131.531 536.031 130.516 536.734C129.461 537.437 128.66 538.355 128.113 539.488C127.527 540.582 127.234 541.871 127.234 543.355C127.234 545.23 127.918 547.125 129.285 549.039C130.652 550.953 132.645 552.945 135.262 555.016L170.008 555.016C170.398 555.016 170.75 555.133 171.062 555.367C171.336 555.602 171.57 556.012 171.766 556.598C171.961 557.145 172.098 557.887 172.176 558.824C172.293 559.762 172.352 560.953 172.352 562.398C172.352 563.844 172.293 565.035 172.176 565.973C172.098 566.91 171.961 567.672 171.766 568.258C171.57 568.805 171.336 569.195 171.062 569.43C170.75 569.664 170.398 569.781 170.008 569.781L92.957 569.781C92.5664 569.781 92.2148 569.664 91.9023 569.43C91.5898 569.195 91.3359 568.805 91.1406 568.258C90.9062 567.672 90.7305 566.91 90.6133 565.973C90.4961 565.035 90.4375 563.844 90.4375 562.398C90.4375 560.953 90.4961 559.762 90.6133 558.824C90.7305 557.887 90.9062 557.145 91.1406 556.598C91.3359 556.012 91.5898 555.602 91.9023 555.367C92.2148 555.133 92.5664 555.016 92.957 555.016L121.844 555.016C119.344 552.477 117.488 549.898 116.277 547.281C115.027 544.625 114.402 541.871 114.402 539.02C114.402 535.465 114.988 532.477 116.16 530.055C117.332 527.594 118.934 525.621 120.965 524.137C122.996 522.613 125.379 521.52 128.113 520.855C130.809 520.191 134.09 519.859 137.957 519.859L170.008 519.859ZM170.008 490.562C170.398 490.562 170.75 490.68 171.062 490.914C171.336 491.148 171.57 491.559 171.766 492.145C171.961 492.691 172.098 493.434 172.176 494.371C172.293 495.309 172.352 496.5 172.352 497.945C172.352 499.391 172.293 500.582 172.176 501.52C172.098 502.457 171.961 503.219 171.766 503.805C171.57 504.352 171.336 504.742 171.062 504.977C170.75 505.211 170.398 505.328 170.008 505.328L117.859 505.328C117.469 505.328 117.137 505.211 116.863 504.977C116.551 504.742 116.297 504.352 116.102 503.805C115.867 503.219 115.691 502.457 115.574 501.52C115.457 500.582 115.398 499.391 115.398 497.945C115.398 496.5 115.457 495.309 115.574 494.371C115.691 493.434 115.867 492.691 116.102 492.145C116.297 491.559 116.551 491.148 116.863 490.914C117.137 490.68 117.469 490.562 117.859 490.562L170.008 490.562ZM100.047 489.449C103.016 489.449 105.066 490.055 106.199 491.266C107.332 492.477 107.898 494.723 107.898 498.004C107.898 501.324 107.352 503.57 106.258 504.742C105.164 505.875 103.191 506.441 100.34 506.441C97.3711 506.441 95.3203 505.855 94.1875 504.684C93.0156 503.473 92.4297 501.207 92.4297 497.887C92.4297 494.605 92.9961 492.379 94.1289 491.207C95.2226 490.035 97.1953 489.449 100.047 489.449ZM142.352 427.516C144.148 427.516 145.477 427.926 146.336 428.746C147.195 429.527 147.625 430.621 147.625 432.027L147.625 463.844C149.852 463.844 151.883 463.59 153.719 463.082C155.516 462.535 157.059 461.695 158.348 460.562C159.598 459.391 160.555 457.906 161.219 456.109C161.883 454.273 162.215 452.086 162.215 449.547C162.215 446.969 162.039 444.703 161.687 442.75C161.297 440.797 160.887 439.117 160.457 437.711C159.988 436.266 159.578 435.074 159.227 434.137C158.836 433.199 158.641 432.437 158.641 431.852C158.641 431.5 158.719 431.207 158.875 430.973C158.992 430.738 159.227 430.543 159.578 430.387C159.93 430.23 160.437 430.133 161.102 430.094C161.727 430.016 162.527 429.977 163.504 429.977C164.363 429.977 165.105 429.996 165.73 430.035C166.316 430.074 166.824 430.133 167.254 430.211C167.684 430.289 168.055 430.406 168.367 430.562C168.641 430.719 168.914 430.934 169.187 431.207C169.461 431.441 169.832 432.125 170.301 433.258C170.77 434.391 171.238 435.836 171.707 437.594C172.137 439.352 172.508 441.363 172.82 443.629C173.172 445.895 173.348 448.316 173.348 450.895C173.348 455.543 172.762 459.625 171.59 463.141C170.418 466.617 168.641 469.527 166.258 471.871C163.875 474.215 160.867 475.973 157.234 477.145C153.602 478.277 149.344 478.844 144.461 478.844C139.812 478.844 135.633 478.238 131.922 477.027C128.172 475.816 125.008 474.059 122.43 471.754C119.812 469.449 117.82 466.656 116.453 463.375C115.086 460.055 114.402 456.324 114.402 452.184C114.402 447.809 115.047 444.078 116.336 440.992C117.625 437.867 119.422 435.309 121.727 433.316C123.992 431.324 126.687 429.859 129.812 428.922C132.937 427.984 136.336 427.516 140.008 427.516L142.352 427.516ZM138.133 441.812C133.992 441.695 130.75 442.535 128.406 444.332C126.023 446.09 124.832 448.824 124.832 452.535C124.832 454.41 125.184 456.051 125.887 457.457C126.59 458.824 127.547 459.977 128.758 460.914C129.93 461.812 131.336 462.516 132.977 463.023C134.578 463.492 136.297 463.766 138.133 463.844L138.133 441.812ZM117.684 367.809C117.879 367.809 118.113 367.828 118.387 367.867C118.66 367.867 118.973 367.906 119.324 367.984C119.637 368.023 120.008 368.102 120.437 368.219C120.867 368.297 121.355 368.414 121.902 368.57L169.187 384.273C169.852 384.469 170.398 384.742 170.828 385.094C171.219 385.406 171.531 385.953 171.766 386.734C172 387.477 172.156 388.512 172.234 389.84C172.312 391.129 172.352 392.828 172.352 394.937C172.352 397.008 172.293 398.707 172.176 400.035C172.098 401.324 171.941 402.34 171.707 403.082C171.473 403.824 171.16 404.371 170.77 404.723C170.34 405.035 169.812 405.289 169.187 405.484L121.902 421.187C121.121 421.422 120.418 421.617 119.793 421.773C119.168 421.891 118.719 421.969 118.445 422.008C118.172 422.008 117.918 422.008 117.684 422.008C117.293 422.008 116.961 421.91 116.687 421.715C116.375 421.48 116.121 421.09 115.926 420.543C115.73 419.996 115.594 419.254 115.516 418.316C115.437 417.34 115.398 416.129 115.398 414.684C115.398 413.082 115.457 411.793 115.574 410.816C115.652 409.84 115.789 409.078 115.984 408.531C116.141 407.945 116.395 407.535 116.746 407.301C117.059 407.066 117.449 406.871 117.918 406.715L156.297 394.82L157.762 394.469L156.297 394.117L117.918 382.398C117.449 382.281 117.059 382.105 116.746 381.871C116.395 381.598 116.141 381.187 115.984 380.641C115.789 380.094 115.652 379.371 115.574 378.473C115.457 377.535 115.398 376.324 115.398 374.84C115.398 373.395 115.437 372.223 115.516 371.324C115.594 370.387 115.73 369.664 115.926 369.156C116.121 368.648 116.375 368.297 116.687 368.102C116.961 367.906 117.293 367.809 117.684 367.809ZM142.352 311.969C144.148 311.969 145.477 312.379 146.336 313.199C147.195 313.98 147.625 315.074 147.625 316.48L147.625 348.297C149.852 348.297 151.883 348.043 153.719 347.535C155.516 346.988 157.059 346.148 158.348 345.016C159.598 343.844 160.555 342.359 161.219 340.562C161.883 338.727 162.215 336.539 162.215 334C162.215 331.422 162.039 329.156 161.687 327.203C161.297 325.25 160.887 323.57 160.457 322.164C159.988 320.719 159.578 319.527 159.227 318.59C158.836 317.652 158.641 316.891 158.641 316.305C158.641 315.953 158.719 315.66 158.875 315.426C158.992 315.191 159.227 314.996 159.578 314.84C159.93 314.684 160.437 314.586 161.102 314.547C161.727 314.469 162.527 314.43 163.504 314.43C164.363 314.43 165.105 314.449 165.73 314.488C166.316 314.527 166.824 314.586 167.254 314.664C167.684 314.742 168.055 314.859 168.367 315.016C168.641 315.172 168.914 315.387 169.187 315.66C169.461 315.895 169.832 316.578 170.301 317.711C170.77 318.844 171.238 320.289 171.707 322.047C172.137 323.805 172.508 325.816 172.82 328.082C173.172 330.348 173.348 332.77 173.348 335.348C173.348 339.996 172.762 344.078 171.59 347.594C170.418 351.07 168.641 353.98 166.258 356.324C163.875 358.668 160.867 360.426 157.234 361.598C153.602 362.73 149.344 363.297 144.461 363.297C139.812 363.297 135.633 362.691 131.922 361.48C128.172 360.27 125.008 358.512 122.43 356.207C119.812 353.902 117.82 351.109 116.453 347.828C115.086 344.508 114.402 340.777 114.402 336.637C114.402 332.262 115.047 328.531 116.336 325.445C117.625 322.32 119.422 319.762 121.727 317.77C123.992 315.777 126.687 314.312 129.812 313.375C132.937 312.437 136.336 311.969 140.008 311.969L142.352 311.969ZM138.133 326.266C133.992 326.148 130.75 326.988 128.406 328.785C126.023 330.543 124.832 333.277 124.832 336.988C124.832 338.863 125.184 340.504 125.887 341.91C126.59 343.277 127.547 344.43 128.758 345.367C129.93 346.266 131.336 346.969 132.977 347.477C134.578 347.945 136.297 348.219 138.133 348.297L138.133 326.266ZM170.008 216.637C170.398 216.637 170.75 216.754 171.062 216.988C171.336 217.223 171.57 217.613 171.766 218.16C171.961 218.707 172.098 219.449 172.176 220.387C172.293 221.324 172.352 222.516 172.352 223.961C172.352 225.445 172.293 226.656 172.176 227.594C172.098 228.531 171.961 229.293 171.766 229.879C171.57 230.426 171.336 230.816 171.062 231.051C170.75 231.246 170.398 231.344 170.008 231.344L139.012 231.344C137.254 231.344 135.652 231.52 134.207 231.871C132.762 232.184 131.531 232.691 130.516 233.395C129.461 234.059 128.66 234.918 128.113 235.973C127.527 236.988 127.234 238.219 127.234 239.664C127.234 241.422 127.918 243.199 129.285 244.996C130.652 246.793 132.645 248.746 135.262 250.855L170.008 250.855C170.398 250.855 170.75 250.973 171.062 251.207C171.336 251.441 171.57 251.852 171.766 252.437C171.961 252.984 172.098 253.727 172.176 254.664C172.293 255.602 172.352 256.773 172.352 258.18C172.352 259.625 172.293 260.816 172.176 261.754C172.098 262.691 171.961 263.453 171.766 264.039C171.57 264.586 171.336 264.977 171.062 265.211C170.75 265.445 170.398 265.562 170.008 265.562L139.012 265.562C137.254 265.562 135.652 265.738 134.207 266.09C132.762 266.402 131.531 266.891 130.516 267.555C129.461 268.219 128.66 269.078 128.113 270.133C127.527 271.187 127.234 272.418 127.234 273.824C127.234 275.621 127.918 277.418 129.285 279.215C130.652 281.012 132.645 282.945 135.262 285.016L170.008 285.016C170.398 285.016 170.75 285.133 171.062 285.367C171.336 285.602 171.57 286.012 171.766 286.598C171.961 287.145 172.098 287.887 172.176 288.824C172.293 289.762 172.352 290.953 172.352 292.398C172.352 293.844 172.293 295.035 172.176 295.973C172.098 296.91 171.961 297.672 171.766 298.258C171.57 298.805 171.336 299.195 171.062 299.43C170.75 299.664 170.398 299.781 170.008 299.781L117.742 299.781C117.352 299.781 117.02 299.684 116.746 299.488C116.434 299.293 116.18 298.941 115.984 298.434C115.789 297.926 115.652 297.281 115.574 296.5C115.457 295.68 115.398 294.664 115.398 293.453C115.398 292.203 115.457 291.168 115.574 290.348C115.652 289.527 115.789 288.902 115.984 288.473C116.18 288.004 116.434 287.672 116.746 287.477C117.02 287.281 117.352 287.184 117.742 287.184L123.777 287.184C120.652 284.293 118.309 281.422 116.746 278.57C115.184 275.68 114.402 272.672 114.402 269.547C114.402 267.398 114.637 265.465 115.105 263.746C115.535 262.027 116.18 260.504 117.039 259.176C117.859 257.809 118.855 256.637 120.027 255.66C121.199 254.684 122.508 253.863 123.953 253.199C122.273 251.637 120.828 250.113 119.617 248.629C118.406 247.105 117.43 245.621 116.687 244.176C115.906 242.691 115.34 241.227 114.988 239.781C114.598 238.297 114.402 236.793 114.402 235.27C114.402 231.793 114.988 228.863 116.16 226.48C117.332 224.098 118.934 222.184 120.965 220.738C122.957 219.254 125.301 218.199 127.996 217.574C130.691 216.949 133.543 216.637 136.551 216.637L170.008 216.637ZM142.352 153.883C144.148 153.883 145.477 154.293 146.336 155.113C147.195 155.895 147.625 156.988 147.625 158.395L147.625 190.211C149.852 190.211 151.883 189.957 153.719 189.449C155.516 188.902 157.059 188.062 158.348 186.93C159.598 185.758 160.555 184.273 161.219 182.477C161.883 180.641 162.215 178.453 162.215 175.914C162.215 173.336 162.039 171.07 161.687 169.117C161.297 167.164 160.887 165.484 160.457 164.078C159.988 162.633 159.578 161.441 159.227 160.504C158.836 159.566 158.641 158.805 158.641 158.219C158.641 157.867 158.719 157.574 158.875 157.34C158.992 157.105 159.227 156.91 159.578 156.754C159.93 156.598 160.437 156.5 161.102 156.461C161.727 156.383 162.527 156.344 163.504 156.344C164.363 156.344 165.105 156.363 165.73 156.402C166.316 156.441 166.824 156.5 167.254 156.578C167.684 156.656 168.055 156.773 168.367 156.93C168.641 157.086 168.914 157.301 169.187 157.574C169.461 157.809 169.832 158.492 170.301 159.625C170.77 160.758 171.238 162.203 171.707 163.961C172.137 165.719 172.508 167.73 172.82 169.996C173.172 172.262 173.348 174.684 173.348 177.262C173.348 181.91 172.762 185.992 171.59 189.508C170.418 192.984 168.641 195.895 166.258 198.238C163.875 200.582 160.867 202.34 157.234 203.512C153.602 204.645 149.344 205.211 144.461 205.211C139.812 205.211 135.633 204.605 131.922 203.395C128.172 202.184 125.008 200.426 122.43 198.121C119.812 195.816 117.82 193.023 116.453 189.742C115.086 186.422 114.402 182.691 114.402 178.551C114.402 174.176 115.047 170.445 116.336 167.359C117.625 164.234 119.422 161.676 121.727 159.684C123.992 157.691 126.687 156.227 129.812 155.289C132.937 154.352 136.336 153.883 140.008 153.883L142.352 153.883ZM138.133 168.18C133.992 168.062 130.75 168.902 128.406 170.699C126.023 172.457 124.832 175.191 124.832 178.902C124.832 180.777 125.184 182.418 125.887 183.824C126.59 185.191 127.547 186.344 128.758 187.281C129.93 188.18 131.336 188.883 132.977 189.391C134.578 189.859 136.297 190.133 138.133 190.211L138.133 168.18ZM170.008 91.7734C170.398 91.7734 170.75 91.8906 171.062 92.125C171.336 92.3594 171.57 92.75 171.766 93.2969C171.961 93.8437 172.098 94.6055 172.176 95.582C172.293 96.5195 172.352 97.6914 172.352 99.0976C172.352 100.543 172.293 101.754 172.176 102.73C172.098 103.668 171.961 104.41 171.766 104.957C171.57 105.504 171.336 105.895 171.062 106.129C170.75 106.363 170.398 106.48 170.008 106.48L140.184 106.48C137.645 106.48 135.652 106.676 134.207 107.066C132.762 107.418 131.531 107.945 130.516 108.648C129.461 109.352 128.66 110.27 128.113 111.402C127.527 112.496 127.234 113.785 127.234 115.27C127.234 117.145 127.918 119.039 129.285 120.953C130.652 122.867 132.645 124.859 135.262 126.93L170.008 126.93C170.398 126.93 170.75 127.047 171.062 127.281C171.336 127.516 171.57 127.926 171.766 128.512C171.961 129.059 172.098 129.801 172.176 130.738C172.293 131.676 172.352 132.867 172.352 134.312C172.352 135.758 172.293 136.949 172.176 137.887C172.098 138.824 171.961 139.586 171.766 140.172C171.57 140.719 171.336 141.109 171.062 141.344C170.75 141.578 170.398 141.695 170.008 141.695L117.742 141.695C117.352 141.695 117.02 141.598 116.746 141.402C116.434 141.207 116.18 140.855 115.984 140.348C115.789 139.84 115.652 139.195 115.574 138.414C115.457 137.594 115.398 136.578 115.398 135.367C115.398 134.117 115.457 133.082 115.574 132.262C115.652 131.441 115.789 130.816 115.984 130.387C116.18 129.918 116.434 129.586 116.746 129.391C117.02 129.195 117.352 129.098 117.742 129.098L123.777 129.098C120.652 126.207 118.309 123.277 116.746 120.309C115.184 117.301 114.402 114.176 114.402 110.934C114.402 107.379 114.988 104.391 116.16 101.969C117.332 99.5078 118.934 97.5352 120.965 96.0508C122.957 94.5273 125.301 93.4336 127.996 92.7695C130.691 92.1055 133.934 91.7734 137.723 91.7734L170.008 91.7734ZM164.852 47.4766C166.57 47.4766 167.898 47.5937 168.836 47.8281C169.734 48.0234 170.379 48.2969 170.77 48.6484C171.121 49 171.453 49.5273 171.766 50.2305C172.039 50.8945 172.273 51.6953 172.469 52.6328C172.703 53.5312 172.879 54.5273 172.996 55.6211C173.113 56.6758 173.172 57.75 173.172 58.8437C173.172 61.7734 172.801 64.3125 172.059 66.4609C171.316 68.6094 170.184 70.3867 168.66 71.793C167.098 73.1992 165.145 74.2344 162.801 74.8984C160.457 75.5625 157.684 75.8945 154.48 75.8945L127.703 75.8945L127.703 82.1641C127.703 82.9062 127.254 83.4727 126.355 83.8633C125.418 84.2539 123.875 84.4492 121.727 84.4492C120.594 84.4492 119.637 84.4102 118.855 84.332C118.074 84.2148 117.469 84.0586 117.039 83.8633C116.57 83.668 116.238 83.4336 116.043 83.1602C115.848 82.8477 115.75 82.4961 115.75 82.1055L115.75 75.8945L104.09 75.8945C103.699 75.8945 103.348 75.7969 103.035 75.6016C102.723 75.3672 102.469 74.9766 102.273 74.4297C102.039 73.8437 101.883 73.082 101.805 72.1445C101.687 71.168 101.629 69.9766 101.629 68.5703C101.629 67.125 101.687 65.9336 101.805 64.9961C101.883 64.0195 102.039 63.2578 102.273 62.7109C102.469 62.1641 102.723 61.7734 103.035 61.5391C103.348 61.3047 103.699 61.1875 104.09 61.1875L115.75 61.1875L115.75 49.8203C115.75 49.4297 115.848 49.0977 116.043 48.8242C116.238 48.5117 116.57 48.2578 117.039 48.0625C117.469 47.8672 118.074 47.7305 118.855 47.6523C119.637 47.5352 120.594 47.4766 121.727 47.4766C123.875 47.4766 125.418 47.6719 126.355 48.0625C127.254 48.4531 127.703 49.0195 127.703 49.7617L127.703 61.1875L152.254 61.1875C155.105 61.1875 157.254 60.7383 158.699 59.8398C160.105 58.9414 160.809 57.3398 160.809 55.0351C160.809 54.2539 160.75 53.5508 160.633 52.9258C160.477 52.3008 160.32 51.7539 160.164 51.2851C159.969 50.7773 159.812 50.3672 159.695 50.0547C159.539 49.7031 159.461 49.3906 159.461 49.1172C159.461 48.8828 159.539 48.668 159.695 48.4726C159.812 48.2383 160.086 48.0625 160.516 47.9453C160.906 47.8281 161.453 47.7305 162.156 47.6523C162.859 47.5351 163.758 47.4766 164.852 47.4766ZM155.242 0.0156187C158.211 0.0156186 160.828 0.582025 163.094 1.71484C165.359 2.80859 167.254 4.37109 168.777 6.40234C170.301 8.43359 171.434 10.8359 172.176 13.6094C172.957 16.3828 173.348 19.3906 173.348 22.6328C173.348 24.5859 173.191 26.4609 172.879 28.2578C172.605 30.0156 172.254 31.5976 171.824 33.0039C171.355 34.4101 170.887 35.582 170.418 36.5195C169.949 37.457 169.52 38.1406 169.129 38.5703C168.699 39 168.055 39.332 167.195 39.5664C166.297 39.8008 164.988 39.918 163.27 39.918C162.137 39.918 161.238 39.8789 160.574 39.8008C159.871 39.7226 159.324 39.6055 158.934 39.4492C158.504 39.293 158.23 39.0976 158.113 38.8633C157.957 38.6289 157.879 38.3359 157.879 37.9844C157.879 37.5547 158.133 36.9297 158.641 36.1094C159.109 35.25 159.637 34.1953 160.223 32.9453C160.809 31.6953 161.355 30.25 161.863 28.6094C162.371 26.9297 162.625 25.0351 162.625 22.9258C162.625 21.5976 162.488 20.4258 162.215 19.4101C161.941 18.3555 161.551 17.457 161.043 16.7148C160.535 15.9336 159.891 15.3476 159.109 14.957C158.328 14.5664 157.43 14.3711 156.414 14.3711C155.242 14.3711 154.246 14.7422 153.426 15.4844C152.566 16.1875 151.824 17.1445 151.199 18.3555C150.574 19.5273 149.988 20.875 149.441 22.3984C148.895 23.8828 148.289 25.4258 147.625 27.0273C146.961 28.5898 146.199 30.1328 145.34 31.6562C144.48 33.1406 143.426 34.4883 142.176 35.6992C140.926 36.8711 139.422 37.8281 137.664 38.5703C135.906 39.2734 133.797 39.625 131.336 39.625C128.836 39.625 126.551 39.1367 124.48 38.1602C122.371 37.1836 120.574 35.7773 119.09 33.9414C117.605 32.1055 116.453 29.8789 115.633 27.2617C114.812 24.6055 114.402 21.6367 114.402 18.3555C114.402 16.7148 114.52 15.1328 114.754 13.6094C114.988 12.0469 115.281 10.6406 115.633 9.39062C115.984 8.14062 116.375 7.08593 116.805 6.22656C117.195 5.36718 117.547 4.76171 117.859 4.41015C118.133 4.01953 118.426 3.74609 118.738 3.58984C119.012 3.43359 119.363 3.3164 119.793 3.23828C120.184 3.16015 120.691 3.10156 121.316 3.0625C121.902 2.98437 122.645 2.94531 123.543 2.94531C124.598 2.94531 125.457 2.98437 126.121 3.0625C126.785 3.10156 127.312 3.19921 127.703 3.35546C128.094 3.47265 128.367 3.64843 128.523 3.88281C128.641 4.11718 128.699 4.39062 128.699 4.70312C128.699 5.05468 128.504 5.60156 128.113 6.34374C127.684 7.08593 127.234 8.02343 126.766 9.15624C126.297 10.25 125.867 11.5391 125.477 13.0234C125.047 14.4687 124.832 16.1289 124.832 18.0039C124.832 19.332 124.969 20.4844 125.242 21.4609C125.516 22.4375 125.906 23.2383 126.414 23.8633C126.922 24.4883 127.527 24.957 128.23 25.2695C128.895 25.582 129.617 25.7383 130.398 25.7383C131.609 25.7383 132.625 25.3672 133.445 24.625C134.266 23.8828 134.988 22.9062 135.613 21.6953C136.238 20.4844 136.824 19.1172 137.371 17.5937C137.918 16.0312 138.523 14.4687 139.187 12.9062C139.812 11.3047 140.555 9.74218 141.414 8.21874C142.273 6.65624 143.328 5.26953 144.578 4.05859C145.828 2.84765 147.332 1.87109 149.09 1.1289C150.809 0.386713 152.859 0.0156188 155.242 0.0156187Z" fill="#FFD503"/>
</svg>
