<svg viewBox="0 0 79 249" fill="none" xmlns="http://www.w3.org/2000/svg">
<path d="M8.50781 190.148C9.64062 190.148 10.6172 190.206 11.4375 190.323C12.2187 190.402 12.8633 190.538 13.3711 190.734C13.8398 190.929 14.1914 191.183 14.4258 191.495C14.6602 191.769 14.7773 192.081 14.7773 192.433L14.7773 211.417L75.8906 211.417C76.2812 211.417 76.6328 211.554 76.9453 211.827C77.2578 212.062 77.5117 212.472 77.707 213.058C77.9023 213.644 78.0586 214.445 78.1758 215.46C78.293 216.437 78.3516 217.667 78.3516 219.152C78.3516 220.636 78.293 221.886 78.1758 222.902C78.0586 223.878 77.9023 224.659 77.707 225.245C77.5117 225.831 77.2578 226.261 76.9453 226.534C76.6328 226.769 76.2812 226.886 75.8906 226.886L14.7773 226.886L14.7773 245.87C14.7773 246.261 14.6602 246.593 14.4258 246.866C14.1914 247.14 13.8398 247.374 13.3711 247.57C12.8633 247.765 12.2187 247.921 11.4375 248.038C10.6172 248.116 9.64062 248.155 8.50781 248.155C7.33594 248.155 6.33984 248.116 5.51953 248.038C4.69922 247.921 4.05469 247.765 3.58594 247.57C3.07812 247.374 2.72656 247.14 2.53125 246.866C2.29687 246.593 2.17969 246.261 2.17969 245.87L2.17968 192.433C2.17968 192.081 2.29687 191.769 2.53125 191.495C2.72656 191.183 3.07812 190.929 3.58593 190.734C4.05468 190.538 4.69921 190.402 5.51953 190.323C6.33984 190.206 7.33593 190.148 8.50781 190.148ZM75.8906 79.0234C76.2812 79.0234 76.6328 79.1406 76.9453 79.375C77.2578 79.5703 77.5117 79.9609 77.707 80.5469C77.9023 81.0937 78.0586 81.8359 78.1758 82.7734C78.293 83.7109 78.3516 84.9023 78.3516 86.3477C78.3516 87.7539 78.293 88.9258 78.1758 89.8633C78.0586 90.8008 77.9023 91.543 77.707 92.0898C77.5117 92.6367 77.2578 93.0273 76.9453 93.2617C76.6328 93.4961 76.2812 93.6133 75.8906 93.6133L14.1914 93.6133L14.1914 93.7305L75.832 115.703C76.3398 115.859 76.7695 116.113 77.1211 116.465C77.4336 116.816 77.6875 117.305 77.8828 117.93C78.0781 118.516 78.1953 119.277 78.2344 120.215C78.3125 121.152 78.3516 122.285 78.3516 123.613C78.3516 124.941 78.293 126.074 78.1758 127.012C78.0976 127.949 77.9609 128.73 77.7656 129.355C77.5312 129.941 77.2578 130.41 76.9453 130.762C76.6328 131.113 76.2617 131.348 75.832 131.465L14.1914 152.676L14.1914 152.793L75.8906 152.793C76.2812 152.793 76.6328 152.91 76.9453 153.145C77.2578 153.34 77.5117 153.73 77.707 154.316C77.9023 154.902 78.0586 155.664 78.1758 156.602C78.293 157.5 78.3516 158.672 78.3516 160.117C78.3516 161.523 78.293 162.695 78.1758 163.633C78.0586 164.57 77.9023 165.332 77.707 165.918C77.5117 166.465 77.2578 166.855 76.9453 167.09C76.6328 167.285 76.2812 167.383 75.8906 167.383L8.33203 167.383C6.33984 167.383 4.8164 166.855 3.76171 165.801C2.70703 164.746 2.17968 163.34 2.17968 161.582L2.17968 151.504C2.17968 149.707 2.33593 148.164 2.64843 146.875C2.92187 145.586 3.41015 144.473 4.11328 143.535C4.77734 142.598 5.67578 141.816 6.80859 141.191C7.90234 140.566 9.26952 140.02 10.9101 139.551L56.0859 123.145L56.0859 122.91L11.0273 105.918C9.38671 105.41 7.99999 104.863 6.86718 104.277C5.73437 103.652 4.8164 102.949 4.11327 102.168C3.41015 101.348 2.92187 100.391 2.64843 99.2969C2.33593 98.2031 2.17968 96.9336 2.17968 95.4883L2.17968 85.1172C2.17968 84.0625 2.3164 83.1641 2.58983 82.4219C2.86327 81.6406 3.27343 81.0156 3.8203 80.5469C4.32812 80.0391 4.97265 79.668 5.7539 79.4336C6.49608 79.1602 7.35546 79.0234 8.33202 79.0234L75.8906 79.0234ZM71.7305 0.946086C72.8633 0.946086 73.8398 1.00468 74.6601 1.12187C75.4414 1.19999 76.0859 1.33671 76.5937 1.53202C77.1016 1.72734 77.4726 1.98124 77.707 2.29374C77.9023 2.60624 78 2.9578 78 3.34843L78 46.9422C78 47.8016 77.9219 48.5437 77.7656 49.1687C77.6094 49.7937 77.3164 50.3016 76.8867 50.6922C76.418 51.0828 75.7539 51.3758 74.8945 51.5711C74.0351 51.7273 72.9219 51.8055 71.5547 51.8055C70.2656 51.8055 69.1719 51.7469 68.2734 51.6297C67.3359 51.5125 66.5156 51.2976 65.8125 50.9851C65.0703 50.6726 64.3672 50.282 63.7031 49.8133C63 49.3055 62.2383 48.6609 61.418 47.8797L47.3555 34.7547C44.6211 32.1375 42.1406 30.0281 39.9141 28.4266C37.6484 26.825 35.5976 25.575 33.7617 24.6766C31.8867 23.7781 30.168 23.1727 28.6055 22.8602C27.043 22.5086 25.5586 22.3328 24.1523 22.3328C22.8633 22.3328 21.6523 22.5477 20.5195 22.9773C19.3476 23.368 18.332 23.9734 17.4726 24.7937C16.6133 25.575 15.9492 26.5711 15.4805 27.782C14.9726 28.993 14.7187 30.4187 14.7187 32.0594C14.7187 34.3641 15.0117 36.4148 15.5976 38.2117C16.1836 39.9695 16.8476 41.532 17.5898 42.8992C18.293 44.2273 18.957 45.3406 19.582 46.2391C20.168 47.1375 20.4609 47.8406 20.4609 48.3484C20.4609 48.7 20.3437 49.0125 20.1094 49.2859C19.875 49.5203 19.4844 49.7156 18.9375 49.8719C18.3906 50.0281 17.668 50.1648 16.7695 50.282C15.832 50.3602 14.6992 50.3992 13.3711 50.3992C12.4726 50.3992 11.7305 50.3797 11.1445 50.3406C10.5195 50.2625 9.99218 50.1648 9.56249 50.0477C9.09374 49.9305 8.70311 49.7742 8.39061 49.5789C8.03905 49.3836 7.6289 49.0516 7.16015 48.5828C6.6914 48.075 6.10546 47.1766 5.40233 45.8875C4.66015 44.5594 3.95702 42.9383 3.29296 41.0242C2.58983 39.1102 2.0039 37.0008 1.53515 34.6961C1.0664 32.3914 0.83202 29.9891 0.83202 27.4891C0.83202 23.5437 1.33983 20.1062 2.35546 17.1766C3.33202 14.2078 4.71874 11.7469 6.51561 9.79375C8.27343 7.84062 10.3828 6.39531 12.8437 5.45781C15.2656 4.48124 17.8828 3.99296 20.6953 3.99296C23.1562 3.99296 25.5781 4.22734 27.9609 4.69609C30.3437 5.16484 32.9219 6.1414 35.6953 7.62578C38.4297 9.11015 41.4766 11.2 44.8359 13.8953C48.1562 16.5906 52.0234 20.1648 56.4375 24.618L65.5195 33.4656L65.5195 3.58281C65.5195 3.19218 65.6367 2.84062 65.8711 2.52812C66.1055 2.17656 66.4766 1.88359 66.9844 1.64921C67.4531 1.41484 68.0976 1.23906 68.918 1.12187C69.6992 1.00468 70.6367 0.946086 71.7305 0.946086Z" fill="#2E4565"/>
</svg>
