<svg viewBox="0 0 104 376" fill="none" xmlns="http://www.w3.org/2000/svg">
<path d="M78.0742 290.098C79.0117 290.332 79.7734 290.664 80.3594 291.094C80.9062 291.484 81.3359 292.09 81.6484 292.91C81.9219 293.73 82.0976 294.785 82.1758 296.074C82.293 297.363 82.3516 299.004 82.3516 300.996C82.3516 303.223 82.293 305.02 82.1758 306.387C82.0976 307.715 81.9219 308.77 81.6484 309.551C81.3359 310.332 80.9062 310.898 80.3594 311.25C79.7734 311.602 79.0117 311.875 78.0742 312.07L30.0273 324.199L30.0273 324.316L78.0742 335.801C78.9726 335.996 79.7148 336.27 80.3008 336.621C80.8476 336.973 81.2773 337.539 81.5898 338.32C81.9023 339.062 82.0976 340.098 82.1758 341.426C82.293 342.715 82.3516 344.434 82.3516 346.582C82.3516 348.848 82.293 350.664 82.1758 352.031C82.0976 353.359 81.9219 354.414 81.6484 355.195C81.3359 355.977 80.9062 356.543 80.3594 356.895C79.7734 357.246 79.0117 357.539 78.0742 357.773L11.9219 375C10.5156 375.352 9.42187 375.547 8.64062 375.586C7.82031 375.625 7.19531 375.41 6.76562 374.941C6.33593 374.434 6.08203 373.633 6.0039 372.539C5.88671 371.406 5.82812 369.844 5.82812 367.852C5.82812 366.016 5.86718 364.57 5.94531 363.516C5.98437 362.422 6.12109 361.602 6.35546 361.055C6.55078 360.508 6.86328 360.137 7.29296 359.941C7.68359 359.746 8.24999 359.59 8.99218 359.473L67.0586 346.172L67.0586 346.113L9.40234 332.285C8.66015 332.129 8.05468 331.934 7.58593 331.699C7.11718 331.426 6.76562 330.996 6.53124 330.41C6.2578 329.785 6.08202 328.945 6.0039 327.891C5.88671 326.836 5.82812 325.43 5.82812 323.672C5.82812 321.797 5.86718 320.312 5.9453 319.219C6.02343 318.086 6.19921 317.227 6.47265 316.641C6.70702 316.016 7.05859 315.566 7.52734 315.293C7.99609 315.02 8.62109 314.805 9.40234 314.648L67.0586 300.352L67.0586 300.234L9.16796 286.934C8.54296 286.816 8.01562 286.66 7.58593 286.465C7.11718 286.27 6.76562 285.898 6.53124 285.352C6.2578 284.805 6.08202 284.023 6.0039 283.008C5.88671 281.992 5.82812 280.566 5.82812 278.73C5.82812 277.012 5.88671 275.684 6.0039 274.746C6.08202 273.77 6.33593 273.066 6.76561 272.637C7.1953 272.207 7.83983 272.031 8.69921 272.109C9.51952 272.148 10.6523 272.344 12.0976 272.695L78.0742 290.098ZM80.0078 212.109C80.3984 212.109 80.75 212.227 81.0625 212.461C81.3359 212.695 81.5703 213.086 81.7656 213.633C81.9609 214.18 82.0976 214.941 82.1758 215.918C82.293 216.855 82.3516 218.027 82.3516 219.434C82.3516 220.879 82.293 222.09 82.1758 223.066C82.0976 224.004 81.9609 224.746 81.7656 225.293C81.5703 225.84 81.3359 226.23 81.0625 226.465C80.75 226.699 80.3984 226.816 80.0078 226.816L50.1836 226.816C47.6445 226.816 45.6523 227.012 44.207 227.402C42.7617 227.754 41.5312 228.281 40.5156 228.984C39.4609 229.687 38.6601 230.605 38.1133 231.738C37.5273 232.832 37.2344 234.121 37.2344 235.605C37.2344 237.48 37.918 239.375 39.2851 241.289C40.6523 243.203 42.6445 245.195 45.2617 247.266L80.0078 247.266C80.3984 247.266 80.75 247.383 81.0625 247.617C81.3359 247.852 81.5703 248.262 81.7656 248.848C81.9609 249.395 82.0976 250.137 82.1758 251.074C82.293 252.012 82.3516 253.203 82.3516 254.648C82.3516 256.094 82.293 257.285 82.1758 258.223C82.0976 259.16 81.9609 259.922 81.7656 260.508C81.5703 261.055 81.3359 261.445 81.0625 261.68C80.75 261.914 80.3984 262.031 80.0078 262.031L2.95702 262.031C2.5664 262.031 2.21483 261.914 1.90233 261.68C1.58983 261.445 1.33593 261.055 1.14061 260.508C0.906239 259.922 0.730458 259.16 0.613271 258.223C0.496083 257.285 0.437489 256.094 0.437489 254.648C0.437489 253.203 0.496083 252.012 0.61327 251.074C0.730458 250.137 0.906239 249.395 1.14061 248.848C1.33593 248.262 1.58983 247.852 1.90233 247.617C2.21483 247.383 2.5664 247.266 2.95702 247.266L31.8437 247.266C29.3437 244.727 27.4883 242.148 26.2773 239.531C25.0273 236.875 24.4023 234.121 24.4023 231.27C24.4023 227.715 24.9883 224.727 26.1601 222.305C27.332 219.844 28.9336 217.871 30.9648 216.387C32.9961 214.863 35.3789 213.77 38.1133 213.105C40.8086 212.441 44.0898 212.109 47.957 212.109L80.0078 212.109ZM82 169.512L100.516 175.84C101.492 176.191 102.195 177.148 102.625 178.711C103.055 180.273 103.27 182.559 103.27 185.566C103.27 187.129 103.191 188.379 103.035 189.316C102.918 190.254 102.703 190.957 102.391 191.426C102.078 191.895 101.687 192.148 101.219 192.187C100.75 192.227 100.184 192.109 99.5195 191.836L82 184.863C81.7656 185.371 81.414 185.84 80.9453 186.27C80.4375 186.66 79.9101 186.953 79.3633 187.148L31.3164 205.137C29.9492 205.645 28.914 205.898 28.2109 205.898C27.4687 205.898 26.9023 205.664 26.5117 205.195C26.082 204.727 25.789 203.945 25.6328 202.852C25.4765 201.719 25.3984 200.234 25.3984 198.398C25.3984 196.719 25.4375 195.391 25.5156 194.414C25.5547 193.437 25.6914 192.676 25.9258 192.129C26.1601 191.582 26.5312 191.172 27.039 190.898C27.5078 190.625 28.1914 190.352 29.0898 190.078L64.0703 177.773L64.0703 177.598L28.3867 166.348C27.3711 166.113 26.707 165.82 26.3945 165.469C26.043 165.078 25.789 164.453 25.6328 163.594C25.4765 162.734 25.3984 161.23 25.3984 159.082C25.3984 157.402 25.4765 156.016 25.6328 154.922C25.789 153.789 26.082 152.969 26.5117 152.461C26.9414 151.914 27.5273 151.641 28.2695 151.641C28.9726 151.641 29.8125 151.797 30.789 152.109L82 169.512Z" fill="#d3d3d3"/>
<path d="M53.7578 53.0273C58.4062 53.0273 62.5664 53.7109 66.2383 55.0781C69.9101 56.4453 73.0156 58.457 75.5547 61.1133C78.0937 63.7695 80.0273 67.0508 81.3554 70.957C82.6836 74.8633 83.3476 79.3555 83.3476 84.4336C83.3476 89.1992 82.7617 93.4766 81.5898 97.2656C80.3789 101.055 78.5625 104.258 76.1406 106.875C73.7187 109.492 70.7109 111.504 67.1172 112.91C63.4844 114.277 59.2461 114.961 54.4023 114.961L8.28905 114.961C7.89842 114.961 7.54686 114.844 7.23436 114.609C6.92186 114.375 6.66795 113.965 6.47264 113.379C6.27733 112.754 6.12108 111.953 6.00389 110.977C5.8867 110 5.82811 108.75 5.82811 107.227C5.82811 105.742 5.8867 104.512 6.00389 103.535C6.12108 102.559 6.27733 101.777 6.47264 101.191C6.66795 100.605 6.92186 100.195 7.23436 99.9609C7.54686 99.6875 7.89842 99.5508 8.28904 99.5508L53.0547 99.5508C56.0625 99.5508 58.6797 99.1797 60.9062 98.4375C63.0937 97.6953 64.9101 96.6406 66.3555 95.2734C67.8008 93.8672 68.8945 92.207 69.6367 90.293C70.3398 88.3398 70.6914 86.1719 70.6914 83.7891C70.6914 81.3672 70.3203 79.1992 69.5781 77.2852C68.8359 75.3711 67.7617 73.75 66.3554 72.4219C64.9101 71.0937 63.1523 70.0781 61.082 69.375C58.9726 68.6328 56.5898 68.2617 53.9336 68.2617L8.28904 68.2617C7.89842 68.2617 7.54686 68.1445 7.23436 67.9102C6.92186 67.6758 6.66795 67.2656 6.47264 66.6797C6.27732 66.0937 6.12107 65.3125 6.00389 64.3359C5.8867 63.3203 5.82811 62.0703 5.82811 60.5859C5.82811 59.1016 5.8867 57.8906 6.00389 56.9531C6.12107 55.9766 6.27732 55.1953 6.47264 54.6094C6.66795 54.0234 6.92186 53.6133 7.23436 53.3789C7.54686 53.1445 7.89842 53.0273 8.28904 53.0273L53.7578 53.0273ZM65.2422 0.585933C68.2109 0.585933 70.8281 1.15234 73.0937 2.28515C75.3594 3.3789 77.2539 4.9414 78.7773 6.97265C80.3008 9.0039 81.4336 11.4062 82.1758 14.1797C82.957 16.9531 83.3476 19.9609 83.3476 23.2031C83.3476 25.1562 83.1914 27.0312 82.8789 28.8281C82.6054 30.5859 82.2539 32.168 81.8242 33.5742C81.3554 34.9805 80.8867 36.1523 80.4179 37.0898C79.9492 38.0273 79.5195 38.7109 79.1289 39.1406C78.6992 39.5703 78.0547 39.9023 77.1953 40.1367C76.2969 40.3711 74.9883 40.4883 73.2695 40.4883C72.1367 40.4883 71.2383 40.4492 70.5742 40.3711C69.8711 40.293 69.3242 40.1758 68.9336 40.0195C68.5039 39.8633 68.2304 39.668 68.1133 39.4336C67.957 39.1992 67.8789 38.9062 67.8789 38.5547C67.8789 38.125 68.1328 37.5 68.6406 36.6797C69.1094 35.8203 69.6367 34.7656 70.2226 33.5156C70.8086 32.2656 71.3554 30.8203 71.8633 29.1797C72.3711 27.5 72.625 25.6055 72.625 23.4961C72.625 22.168 72.4883 20.9961 72.2148 19.9805C71.9414 18.9258 71.5508 18.0273 71.0429 17.2852C70.5351 16.5039 69.8906 15.918 69.1094 15.5273C68.3281 15.1367 67.4297 14.9414 66.414 14.9414C65.2422 14.9414 64.2461 15.3125 63.4258 16.0547C62.5664 16.7578 61.8242 17.7148 61.1992 18.9258C60.5742 20.0977 59.9883 21.4453 59.4414 22.9687C58.8945 24.4531 58.289 25.9961 57.625 27.5977C56.9609 29.1602 56.1992 30.7031 55.3398 32.2266C54.4804 33.7109 53.4258 35.0586 52.1758 36.2695C50.9258 37.4414 49.4219 38.3984 47.664 39.1406C45.9062 39.8437 43.7969 40.1953 41.3359 40.1953C38.8359 40.1953 36.5508 39.707 34.4804 38.7305C32.3711 37.7539 30.5742 36.3477 29.0898 34.5117C27.6054 32.6758 26.4531 30.4492 25.6328 27.832C24.8125 25.1758 24.4023 22.207 24.4023 18.9258C24.4023 17.2852 24.5195 15.7031 24.7539 14.1797C24.9883 12.6172 25.2812 11.2109 25.6328 9.96094C25.9844 8.71094 26.375 7.65625 26.8047 6.79687C27.1953 5.9375 27.5469 5.33203 27.8594 4.98047C28.1328 4.58984 28.4258 4.3164 28.7383 4.16015C29.0117 4.0039 29.3633 3.88672 29.7929 3.80859C30.1836 3.73047 30.6914 3.67187 31.3164 3.63281C31.9023 3.55468 32.6445 3.51562 33.5429 3.51562C34.5976 3.51562 35.457 3.55468 36.1211 3.63281C36.7851 3.67187 37.3125 3.76953 37.7031 3.92578C38.0937 4.04297 38.3672 4.21875 38.5234 4.45312C38.6406 4.6875 38.6992 4.96093 38.6992 5.27343C38.6992 5.625 38.5039 6.17187 38.1133 6.91406C37.6836 7.65625 37.2344 8.59375 36.7656 9.72656C36.2969 10.8203 35.8672 12.1094 35.4765 13.5937C35.0469 15.0391 34.832 16.6992 34.832 18.5742C34.832 19.9023 34.9687 21.0547 35.2422 22.0312C35.5156 23.0078 35.9062 23.8086 36.414 24.4336C36.9219 25.0586 37.5273 25.5273 38.2304 25.8398C38.8945 26.1523 39.6172 26.3086 40.3984 26.3086C41.6094 26.3086 42.625 25.9375 43.4453 25.1953C44.2656 24.4531 44.9883 23.4766 45.6133 22.2656C46.2383 21.0547 46.8242 19.6875 47.3711 18.1641C47.9179 16.6016 48.5234 15.0391 49.1875 13.4766C49.8125 11.875 50.5547 10.3125 51.414 8.78906C52.2734 7.22656 53.3281 5.83984 54.5781 4.6289C55.8281 3.41797 57.332 2.4414 59.0898 1.69921C60.8086 0.957027 62.8594 0.585934 65.2422 0.585933Z" fill="#FFD503"/>
</svg>
