<svg viewBox="0 0 40 260" fill="none" xmlns="http://www.w3.org/2000/svg">
<path d="M0 260L-1.02722e-05 25C-1.08757e-05 11.1929 11.1929 -4.89256e-07 25 -1.09278e-06L40 -1.74846e-06L40 260L0 260Z" fill="#2F80ED"/>
<path d="M14.536 192.232L26 192.232L26 193.784L20.784 193.784L20.784 199.968L26 199.968L26 201.52L14.536 201.52L14.536 199.968L19.648 199.968L19.648 193.784L14.536 193.784L14.536 192.232ZM22.352 185.48C22.3733 186.136 22.4267 186.696 22.512 187.16C22.592 187.619 22.6987 187.995 22.832 188.288C22.9653 188.576 23.1227 188.787 23.304 188.92C23.4853 189.048 23.688 189.112 23.912 189.112C24.1253 189.112 24.3093 189.077 24.464 189.008C24.6187 188.939 24.7467 188.845 24.848 188.728C24.944 188.605 25.016 188.464 25.064 188.304C25.1067 188.139 25.128 187.963 25.128 187.776C25.128 187.525 25.104 187.296 25.056 187.088C25.0027 186.88 24.928 186.685 24.832 186.504C24.736 186.317 24.6213 186.141 24.488 185.976C24.3547 185.805 24.2027 185.64 24.032 185.48L22.352 185.48ZM19.04 190.08C18.608 189.632 18.2853 189.149 18.072 188.632C17.8587 188.115 17.752 187.541 17.752 186.912C17.752 186.459 17.8267 186.056 17.976 185.704C18.1253 185.352 18.3333 185.056 18.6 184.816C18.8667 184.576 19.1893 184.395 19.568 184.272C19.9467 184.149 20.3627 184.088 20.816 184.088L26 184.088L26 184.72C26 184.859 25.9787 184.965 25.936 185.04C25.888 185.115 25.7973 185.173 25.664 185.216L24.896 185.376C25.0933 185.589 25.2693 185.797 25.424 186C25.5733 186.203 25.7013 186.416 25.808 186.64C25.9093 186.864 25.9867 187.104 26.04 187.36C26.0987 187.611 26.128 187.891 26.128 188.2C26.128 188.515 26.0853 188.811 26 189.088C25.9093 189.365 25.776 189.608 25.6 189.816C25.424 190.019 25.2027 190.181 24.936 190.304C24.664 190.421 24.344 190.48 23.976 190.48C23.656 190.48 23.3493 190.392 23.056 190.216C22.7573 190.04 22.4933 189.755 22.264 189.36C22.0347 188.965 21.848 188.451 21.704 187.816C21.5547 187.181 21.4693 186.403 21.448 185.48L20.816 185.48C20.1867 185.48 19.712 185.616 19.392 185.888C19.0667 186.16 18.904 186.557 18.904 187.08C18.904 187.432 18.9493 187.728 19.04 187.968C19.1253 188.203 19.224 188.408 19.336 188.584C19.4427 188.755 19.5413 188.904 19.632 189.032C19.7173 189.155 19.76 189.277 19.76 189.4C19.76 189.496 19.736 189.579 19.688 189.648C19.6347 189.717 19.5707 189.776 19.496 189.824L19.04 190.08ZM17.896 175.147L26 178.451L26 179.731L17.896 183.035L17.896 181.875C17.896 181.757 17.9253 181.661 17.984 181.587C18.0427 181.512 18.112 181.461 18.192 181.435L23.408 179.379C23.6053 179.315 23.7973 179.259 23.984 179.211C24.1707 179.163 24.3573 179.117 24.544 179.075C24.3573 179.032 24.1707 178.987 23.984 178.939C23.7973 178.891 23.6053 178.832 23.408 178.763L18.192 176.683C18.1067 176.651 18.0373 176.597 17.984 176.523C17.9253 176.448 17.896 176.36 17.896 176.259L17.896 175.147ZM21.064 168.635C20.7333 168.635 20.432 168.683 20.16 168.779C19.8827 168.87 19.6453 169.006 19.448 169.187C19.2453 169.363 19.0907 169.579 18.984 169.835C18.872 170.091 18.816 170.382 18.816 170.707C18.816 171.39 19.016 171.931 19.416 172.331C19.8107 172.726 20.36 172.971 21.064 173.067L21.064 168.635ZM24.864 167.483C25.0773 167.659 25.264 167.87 25.424 168.115C25.5787 168.361 25.7067 168.625 25.808 168.907C25.9093 169.185 25.984 169.473 26.032 169.771C26.0853 170.07 26.112 170.366 26.112 170.659C26.112 171.219 26.0187 171.737 25.832 172.211C25.64 172.681 25.3627 173.089 25 173.435C24.632 173.777 24.1787 174.043 23.64 174.235C23.1013 174.427 22.4827 174.523 21.784 174.523C21.2187 174.523 20.6907 174.438 20.2 174.267C19.7093 174.091 19.2853 173.841 18.928 173.515C18.5653 173.19 18.2827 172.793 18.08 172.323C17.872 171.854 17.768 171.326 17.768 170.739C17.768 170.254 17.8507 169.806 18.016 169.395C18.176 168.979 18.4107 168.622 18.72 168.323C19.024 168.019 19.4027 167.782 19.856 167.611C20.304 167.441 20.816 167.355 21.392 167.355C21.616 167.355 21.7653 167.379 21.84 167.427C21.9147 167.475 21.952 167.566 21.952 167.699L21.952 173.115C22.464 173.099 22.9093 173.03 23.288 172.907C23.6667 172.779 23.984 172.603 24.24 172.379C24.4907 172.155 24.68 171.889 24.808 171.579C24.9307 171.27 24.992 170.923 24.992 170.539C24.992 170.182 24.952 169.875 24.872 169.619C24.7867 169.358 24.696 169.134 24.6 168.947C24.504 168.761 24.416 168.606 24.336 168.483C24.2507 168.355 24.208 168.246 24.208 168.155C24.208 168.038 24.2533 167.947 24.344 167.883L24.864 167.483ZM22.352 157.121C22.3733 157.777 22.4267 158.337 22.512 158.801C22.592 159.259 22.6987 159.635 22.832 159.929C22.9653 160.217 23.1227 160.427 23.304 160.561C23.4853 160.689 23.688 160.753 23.912 160.753C24.1253 160.753 24.3093 160.718 24.464 160.649C24.6187 160.579 24.7467 160.486 24.848 160.369C24.944 160.246 25.016 160.105 25.064 159.945C25.1067 159.779 25.128 159.603 25.128 159.417C25.128 159.166 25.104 158.937 25.056 158.729C25.0027 158.521 24.928 158.326 24.832 158.145C24.736 157.958 24.6213 157.782 24.488 157.617C24.3547 157.446 24.2027 157.281 24.032 157.121L22.352 157.121ZM19.04 161.721C18.608 161.273 18.2853 160.79 18.072 160.273C17.8587 159.755 17.752 159.182 17.752 158.553C17.752 158.099 17.8267 157.697 17.976 157.345C18.1253 156.993 18.3333 156.697 18.6 156.457C18.8667 156.217 19.1893 156.035 19.568 155.913C19.9467 155.79 20.3627 155.729 20.816 155.729L26 155.729L26 156.361C26 156.499 25.9787 156.606 25.936 156.681C25.888 156.755 25.7973 156.814 25.664 156.857L24.896 157.017C25.0933 157.23 25.2693 157.438 25.424 157.641C25.5733 157.843 25.7013 158.057 25.808 158.281C25.9093 158.505 25.9867 158.745 26.04 159.001C26.0987 159.251 26.128 159.531 26.128 159.841C26.128 160.155 26.0853 160.451 26 160.729C25.9093 161.006 25.776 161.249 25.6 161.457C25.424 161.659 25.2027 161.822 24.936 161.945C24.664 162.062 24.344 162.121 23.976 162.121C23.656 162.121 23.3493 162.033 23.056 161.857C22.7573 161.681 22.4933 161.395 22.264 161.001C22.0347 160.606 21.848 160.091 21.704 159.457C21.5547 158.822 21.4693 158.043 21.448 157.121L20.816 157.121C20.1867 157.121 19.712 157.257 19.392 157.529C19.0667 157.801 18.904 158.198 18.904 158.721C18.904 159.073 18.9493 159.369 19.04 159.609C19.1253 159.843 19.224 160.049 19.336 160.225C19.4427 160.395 19.5413 160.545 19.632 160.673C19.7173 160.795 19.76 160.918 19.76 161.041C19.76 161.137 19.736 161.219 19.688 161.289C19.6347 161.358 19.5707 161.417 19.496 161.465L19.04 161.721ZM19.072 152.215C18.8747 152.039 18.696 151.853 18.536 151.655C18.376 151.458 18.24 151.25 18.128 151.031C18.0107 150.807 17.9227 150.573 17.864 150.327C17.8 150.077 17.768 149.807 17.768 149.519C17.768 149.077 17.8427 148.687 17.992 148.351C18.136 148.01 18.344 147.727 18.616 147.503C18.8827 147.274 19.2053 147.101 19.584 146.983C19.9627 146.866 20.3813 146.807 20.84 146.807L26 146.807L26 148.239L20.84 148.239C20.2267 148.239 19.752 148.381 19.416 148.663C19.0747 148.941 18.904 149.365 18.904 149.935C18.904 150.357 19.0053 150.751 19.208 151.119C19.4107 151.482 19.6853 151.818 20.032 152.127L26 152.127L26 153.559L17.896 153.559L17.896 152.703C17.896 152.501 17.9947 152.375 18.192 152.327L19.072 152.215ZM17.896 137.849L28.392 142.369C28.4987 142.417 28.584 142.478 28.648 142.553C28.712 142.622 28.744 142.731 28.744 142.881L28.744 143.937L25.528 142.457L17.896 145.801L17.896 144.569C17.896 144.446 17.928 144.35 17.992 144.281C18.0507 144.206 18.1173 144.155 18.192 144.129L23.296 141.961C23.52 141.875 23.7547 141.803 24 141.745C23.7493 141.67 23.512 141.59 23.288 141.505L18.192 139.401C18.1067 139.369 18.0373 139.315 17.984 139.241C17.9253 139.161 17.896 139.073 17.896 138.977L17.896 137.849ZM19.816 127.608C19.4747 127.864 19.232 128.149 19.088 128.464C18.9387 128.778 18.864 129.128 18.864 129.512C18.864 130.264 19.1333 130.842 19.672 131.248C20.2107 131.653 20.9787 131.856 21.976 131.856C22.504 131.856 22.9573 131.81 23.336 131.72C23.7093 131.629 24.0187 131.496 24.264 131.32C24.504 131.144 24.68 130.928 24.792 130.672C24.904 130.416 24.96 130.125 24.96 129.8C24.96 129.33 24.8533 128.922 24.64 128.576C24.4267 128.224 24.1253 127.901 23.736 127.608L19.816 127.608ZM17.896 126.184L28.744 126.184L28.744 127.608L24.792 127.608C25.1867 127.944 25.5067 128.33 25.752 128.768C25.992 129.205 26.112 129.704 26.112 130.264C26.112 130.728 26.024 131.149 25.848 131.528C25.6667 131.906 25.4027 132.229 25.056 132.496C24.7093 132.762 24.2773 132.968 23.76 133.112C23.2427 133.256 22.648 133.328 21.976 133.328C21.3787 133.328 20.824 133.248 20.312 133.088C19.7947 132.928 19.3467 132.698 18.968 132.4C18.5893 132.101 18.2933 131.736 18.08 131.304C17.8613 130.866 17.752 130.376 17.752 129.832C17.752 129.304 17.8453 128.856 18.032 128.488C18.2187 128.12 18.48 127.794 18.816 127.512L18.192 127.416C17.9947 127.362 17.896 127.234 17.896 127.032L17.896 126.184ZM17.896 117.27L26 117.27L26 118.118C26 118.321 25.9013 118.449 25.704 118.502L24.832 118.614C25.2213 118.966 25.536 119.361 25.776 119.798C26.0107 120.236 26.128 120.737 26.128 121.302C26.128 121.745 26.056 122.137 25.912 122.478C25.7627 122.814 25.5547 123.097 25.288 123.326C25.0213 123.556 24.6987 123.729 24.32 123.846C23.9413 123.958 23.5227 124.014 23.064 124.014L17.896 124.014L17.896 122.59L23.064 122.59C23.6773 122.59 24.152 122.452 24.488 122.174C24.824 121.892 24.992 121.462 24.992 120.886C24.992 120.465 24.8933 120.073 24.696 119.71C24.4933 119.342 24.216 119.004 23.864 118.694L17.896 118.694L17.896 117.27ZM21.064 109.589C20.7333 109.589 20.432 109.637 20.16 109.733C19.8827 109.823 19.6453 109.959 19.448 110.141C19.2453 110.317 19.0907 110.533 18.984 110.789C18.872 111.045 18.816 111.335 18.816 111.661C18.816 112.343 19.016 112.885 19.416 113.285C19.8107 113.679 20.36 113.925 21.064 114.021L21.064 109.589ZM24.864 108.437C25.0773 108.613 25.264 108.823 25.424 109.069C25.5787 109.314 25.7067 109.578 25.808 109.861C25.9093 110.138 25.984 110.426 26.032 110.725C26.0853 111.023 26.112 111.319 26.112 111.613C26.112 112.173 26.0187 112.69 25.832 113.165C25.64 113.634 25.3627 114.042 25 114.389C24.632 114.73 24.1787 114.997 23.64 115.189C23.1013 115.381 22.4827 115.477 21.784 115.477C21.2187 115.477 20.6907 115.391 20.2 115.221C19.7093 115.045 19.2853 114.794 18.928 114.469C18.5653 114.143 18.2827 113.746 18.08 113.277C17.872 112.807 17.768 112.279 17.768 111.693C17.768 111.207 17.8507 110.759 18.016 110.349C18.176 109.933 18.4107 109.575 18.72 109.277C19.024 108.973 19.4027 108.735 19.856 108.565C20.304 108.394 20.816 108.309 21.392 108.309C21.616 108.309 21.7653 108.333 21.84 108.381C21.9147 108.429 21.952 108.519 21.952 108.653L21.952 114.069C22.464 114.053 22.9093 113.983 23.288 113.861C23.6667 113.733 23.984 113.557 24.24 113.333C24.4907 113.109 24.68 112.842 24.808 112.533C24.9307 112.223 24.992 111.877 24.992 111.493C24.992 111.135 24.952 110.829 24.872 110.573C24.7867 110.311 24.696 110.087 24.6 109.901C24.504 109.714 24.416 109.559 24.336 109.437C24.2507 109.309 24.208 109.199 24.208 109.109C24.208 108.991 24.2533 108.901 24.344 108.837L24.864 108.437ZM19.232 101.839C19.3493 101.903 19.408 102.002 19.408 102.135C19.408 102.215 19.3787 102.306 19.32 102.407C19.2613 102.509 19.1973 102.634 19.128 102.783C19.0533 102.927 18.9867 103.101 18.928 103.303C18.864 103.506 18.832 103.746 18.832 104.023C18.832 104.263 18.864 104.479 18.928 104.671C18.9867 104.863 19.0693 105.029 19.176 105.167C19.2827 105.301 19.408 105.405 19.552 105.479C19.6907 105.549 19.8427 105.583 20.008 105.583C20.216 105.583 20.3893 105.525 20.528 105.407C20.6667 105.285 20.7867 105.125 20.888 104.927C20.9893 104.73 21.08 104.506 21.16 104.255C21.2347 104.005 21.3173 103.749 21.408 103.487C21.4933 103.221 21.5893 102.962 21.696 102.711C21.8027 102.461 21.936 102.237 22.096 102.039C22.256 101.842 22.4533 101.685 22.688 101.567C22.9173 101.445 23.1947 101.383 23.52 101.383C23.8933 101.383 24.24 101.45 24.56 101.583C24.8747 101.717 25.1493 101.914 25.384 102.175C25.6133 102.437 25.7947 102.757 25.928 103.135C26.0613 103.514 26.128 103.951 26.128 104.447C26.128 105.013 26.0373 105.525 25.856 105.983C25.6693 106.442 25.432 106.831 25.144 107.151L24.6 106.815C24.5307 106.773 24.4773 106.722 24.44 106.663C24.4027 106.605 24.384 106.53 24.384 106.439C24.384 106.343 24.4213 106.242 24.496 106.135C24.5707 106.029 24.6533 105.901 24.744 105.751C24.8347 105.597 24.9173 105.41 24.992 105.191C25.0667 104.973 25.104 104.701 25.104 104.375C25.104 104.098 25.0693 103.855 25 103.647C24.9253 103.439 24.8267 103.266 24.704 103.127C24.5813 102.989 24.44 102.887 24.28 102.823C24.12 102.754 23.9493 102.719 23.768 102.719C23.544 102.719 23.36 102.781 23.216 102.903C23.0667 103.021 22.9413 103.178 22.84 103.375C22.7333 103.573 22.6427 103.799 22.568 104.055C22.488 104.306 22.4053 104.565 22.32 104.831C22.2347 105.093 22.1387 105.351 22.032 105.607C21.92 105.858 21.7813 106.082 21.616 106.279C21.4507 106.477 21.248 106.637 21.008 106.759C20.7627 106.877 20.4667 106.935 20.12 106.935C19.8107 106.935 19.5147 106.871 19.232 106.743C18.944 106.615 18.6933 106.429 18.48 106.183C18.2613 105.938 18.088 105.637 17.96 105.279C17.832 104.922 17.768 104.514 17.768 104.055C17.768 103.522 17.8533 103.045 18.024 102.623C18.1893 102.197 18.4187 101.829 18.712 101.519L19.232 101.839ZM26 92.1176L26 93.5416L19.088 93.5416L19.088 97.7176L23.952 97.7176C24.2933 97.7176 24.5467 97.635 24.712 97.4696C24.8773 97.3043 24.96 97.091 24.96 96.8296C24.96 96.6803 24.9413 96.5523 24.904 96.4456C24.8613 96.3336 24.816 96.2376 24.768 96.1576C24.72 96.0776 24.6773 96.011 24.64 95.9576C24.5973 95.899 24.576 95.8483 24.576 95.8056C24.576 95.731 24.6213 95.6643 24.712 95.6056L25.392 95.1896C25.6213 95.435 25.8027 95.731 25.936 96.0776C26.064 96.4243 26.128 96.7816 26.128 97.1496C26.128 97.7896 25.9493 98.283 25.592 98.6296C25.2347 98.971 24.72 99.1416 24.048 99.1416L19.088 99.1416L19.088 100.118C19.088 100.203 19.064 100.275 19.016 100.334C18.9627 100.392 18.8827 100.422 18.776 100.422L18.208 100.422L18.032 99.0936L15.536 98.7656C15.456 98.7496 15.392 98.715 15.344 98.6616C15.2907 98.603 15.264 98.5283 15.264 98.4376L15.264 97.7176L18.056 97.7176L18.056 92.1176L26 92.1176ZM15.296 91.7656C15.4347 91.7656 15.5653 91.795 15.688 91.8536C15.8053 91.907 15.9093 91.9816 16 92.0776C16.0907 92.1683 16.1627 92.275 16.216 92.3976C16.2693 92.5203 16.296 92.651 16.296 92.7896C16.296 92.9283 16.2693 93.059 16.216 93.1816C16.1627 93.299 16.0907 93.403 16 93.4936C15.9093 93.5843 15.8053 93.6563 15.688 93.7096C15.5653 93.763 15.4347 93.7896 15.296 93.7896C15.1573 93.7896 15.0267 93.763 14.904 93.7096C14.776 93.6563 14.6667 93.5843 14.576 93.4936C14.48 93.403 14.4053 93.299 14.352 93.1816C14.2987 93.059 14.272 92.9283 14.272 92.7896C14.272 92.651 14.2987 92.5203 14.352 92.3976C14.4053 92.275 14.48 92.1683 14.576 92.0776C14.6667 91.9816 14.776 91.907 14.904 91.8536C15.0267 91.795 15.1573 91.7656 15.296 91.7656ZM17.768 86.3622C17.768 85.7702 17.8667 85.2369 18.064 84.7622C18.2613 84.2876 18.5413 83.8822 18.904 83.5462C19.2667 83.2102 19.7067 82.9542 20.224 82.7782C20.736 82.5969 21.3093 82.5062 21.944 82.5062C22.584 82.5062 23.16 82.5969 23.672 82.7782C24.184 82.9542 24.6213 83.2102 24.984 83.5462C25.3467 83.8822 25.6267 84.2876 25.824 84.7622C26.016 85.2369 26.112 85.7702 26.112 86.3622C26.112 86.9596 26.016 87.4982 25.824 87.9782C25.6267 88.4529 25.3467 88.8582 24.984 89.1942C24.6213 89.5302 24.184 89.7889 23.672 89.9702C23.16 90.1462 22.584 90.2342 21.944 90.2342C21.3093 90.2342 20.736 90.1462 20.224 89.9702C19.7067 89.7889 19.2667 89.5302 18.904 89.1942C18.5413 88.8582 18.2613 88.4529 18.064 87.9782C17.8667 87.4982 17.768 86.9596 17.768 86.3622ZM25 86.3622C25 85.5622 24.7333 84.9649 24.2 84.5702C23.6613 84.1756 22.912 83.9782 21.952 83.9782C20.9867 83.9782 20.2347 84.1756 19.696 84.5702C19.1573 84.9649 18.888 85.5622 18.888 86.3622C18.888 86.7676 18.9573 87.1222 19.096 87.4262C19.2347 87.7249 19.4347 87.9756 19.696 88.1782C19.9573 88.3756 20.28 88.5249 20.664 88.6262C21.0427 88.7222 21.472 88.7702 21.952 88.7702C22.912 88.7702 23.6613 88.5729 24.2 88.1782C24.7333 87.7782 25 87.1729 25 86.3622ZM19.072 79.3561C18.8747 79.1801 18.696 78.9935 18.536 78.7961C18.376 78.5988 18.24 78.3908 18.128 78.1721C18.0107 77.9481 17.9227 77.7135 17.864 77.4681C17.8 77.2175 17.768 76.9481 17.768 76.6601C17.768 76.2175 17.8427 75.8281 17.992 75.4921C18.136 75.1508 18.344 74.8681 18.616 74.6441C18.8827 74.4148 19.2053 74.2415 19.584 74.1241C19.9627 74.0068 20.3813 73.9481 20.84 73.9481L26 73.9481L26 75.3801L20.84 75.3801C20.2267 75.3801 19.752 75.5215 19.416 75.8041C19.0747 76.0815 18.904 76.5055 18.904 77.0761C18.904 77.4975 19.0053 77.8921 19.208 78.2601C19.4107 78.6228 19.6853 78.9588 20.032 79.2681L26 79.2681L26 80.7001L17.896 80.7001L17.896 79.8441C17.896 79.6415 17.9947 79.5161 18.192 79.4681L19.072 79.3561ZM19.232 67.0582C19.3493 67.1222 19.408 67.2209 19.408 67.3542C19.408 67.4342 19.3787 67.5249 19.32 67.6262C19.2613 67.7276 19.1973 67.8529 19.128 68.0022C19.0533 68.1462 18.9867 68.3196 18.928 68.5222C18.864 68.7249 18.832 68.9649 18.832 69.2422C18.832 69.4822 18.864 69.6982 18.928 69.8902C18.9867 70.0822 19.0693 70.2476 19.176 70.3862C19.2827 70.5196 19.408 70.6236 19.552 70.6982C19.6907 70.7676 19.8427 70.8022 20.008 70.8022C20.216 70.8022 20.3893 70.7436 20.528 70.6262C20.6667 70.5036 20.7867 70.3436 20.888 70.1462C20.9893 69.9489 21.08 69.7249 21.16 69.4742C21.2347 69.2236 21.3173 68.9676 21.408 68.7062C21.4933 68.4396 21.5893 68.1809 21.696 67.9302C21.8027 67.6796 21.936 67.4556 22.096 67.2582C22.256 67.0609 22.4533 66.9036 22.688 66.7862C22.9173 66.6636 23.1947 66.6022 23.52 66.6022C23.8933 66.6022 24.24 66.6689 24.56 66.8022C24.8747 66.9356 25.1493 67.1329 25.384 67.3942C25.6133 67.6556 25.7947 67.9756 25.928 68.3542C26.0613 68.7329 26.128 69.1702 26.128 69.6662C26.128 70.2316 26.0373 70.7436 25.856 71.2022C25.6693 71.6609 25.432 72.0502 25.144 72.3702L24.6 72.0342C24.5307 71.9916 24.4773 71.9409 24.44 71.8822C24.4027 71.8236 24.384 71.7489 24.384 71.6582C24.384 71.5622 24.4213 71.4609 24.496 71.3542C24.5707 71.2476 24.6533 71.1196 24.744 70.9702C24.8347 70.8156 24.9173 70.6289 24.992 70.4102C25.0667 70.1916 25.104 69.9196 25.104 69.5942C25.104 69.3169 25.0693 69.0742 25 68.8662C24.9253 68.6582 24.8267 68.4849 24.704 68.3462C24.5813 68.2076 24.44 68.1062 24.28 68.0422C24.12 67.9729 23.9493 67.9382 23.768 67.9382C23.544 67.9382 23.36 67.9996 23.216 68.1222C23.0667 68.2396 22.9413 68.3969 22.84 68.5942C22.7333 68.7916 22.6427 69.0182 22.568 69.2742C22.488 69.5249 22.4053 69.7836 22.32 70.0502C22.2347 70.3116 22.1387 70.5702 22.032 70.8262C21.92 71.0769 21.7813 71.3009 21.616 71.4982C21.4507 71.6956 21.248 71.8556 21.008 71.9782C20.7627 72.0956 20.4667 72.1542 20.12 72.1542C19.8107 72.1542 19.5147 72.0902 19.232 71.9622C18.944 71.8342 18.6933 71.6476 18.48 71.4022C18.2613 71.1569 18.088 70.8556 17.96 70.4982C17.832 70.1409 17.768 69.7329 17.768 69.2742C17.768 68.7409 17.8533 68.2636 18.024 67.8422C18.1893 67.4156 18.4187 67.0476 18.712 66.7382L19.232 67.0582ZM15.56 65.5239C15.4053 65.3585 15.2587 65.1772 15.12 64.9799C14.9813 64.7772 14.8587 64.5585 14.752 64.3239C14.6453 64.0839 14.5627 63.8279 14.504 63.5559C14.44 63.2785 14.408 62.9799 14.408 62.6599C14.408 62.2385 14.4693 61.8492 14.592 61.4919C14.7147 61.1292 14.888 60.8172 15.112 60.5559C15.336 60.2945 15.608 60.0892 15.928 59.9399C16.248 59.7905 16.608 59.7159 17.008 59.7159C17.4133 59.7159 17.7627 59.7772 18.056 59.8999C18.3493 60.0172 18.608 60.1692 18.832 60.3559C19.0507 60.5372 19.2427 60.7372 19.408 60.9559C19.568 61.1692 19.72 61.3719 19.864 61.5639C20.008 61.7559 20.152 61.9212 20.296 62.0599C20.44 62.1932 20.6 62.2705 20.776 62.2919L22 62.4359L22 63.4119L20.672 63.5079C20.432 63.5292 20.224 63.4839 20.048 63.3719C19.8667 63.2599 19.6987 63.1132 19.544 62.9319C19.384 62.7505 19.2293 62.5505 19.08 62.3319C18.9253 62.1132 18.7547 61.9105 18.568 61.7239C18.3813 61.5319 18.1707 61.3719 17.936 61.2439C17.696 61.1159 17.4107 61.0519 17.08 61.0519C16.8507 61.0519 16.6427 61.0972 16.456 61.1879C16.2693 61.2785 16.112 61.4012 15.984 61.5559C15.8507 61.7105 15.7493 61.8945 15.68 62.1079C15.6107 62.3159 15.576 62.5399 15.576 62.7799C15.576 63.1052 15.616 63.3852 15.696 63.6199C15.776 63.8492 15.864 64.0439 15.96 64.2039C16.056 64.3639 16.144 64.4945 16.224 64.5959C16.304 64.6919 16.344 64.7719 16.344 64.8359C16.344 64.9692 16.2827 65.0732 16.16 65.1479L15.56 65.5239ZM25.12 63.9639C24.9813 63.9639 24.8507 63.9399 24.728 63.8919C24.6053 63.8385 24.4987 63.7692 24.408 63.6839C24.3173 63.5932 24.2453 63.4865 24.192 63.3639C24.1387 63.2412 24.112 63.1105 24.112 62.9719C24.112 62.8332 24.1387 62.7025 24.192 62.5799C24.2453 62.4572 24.3173 62.3505 24.408 62.2599C24.4987 62.1692 24.6053 62.0972 24.728 62.0439C24.8507 61.9905 24.9813 61.9639 25.12 61.9639C25.264 61.9639 25.3973 61.9905 25.52 62.0439C25.6373 62.0972 25.7413 62.1692 25.832 62.2599C25.9227 62.3505 25.992 62.4572 26.04 62.5799C26.0933 62.7025 26.12 62.8332 26.12 62.9719C26.12 63.1105 26.0933 63.2412 26.04 63.3639C25.992 63.4865 25.9227 63.5932 25.832 63.6839C25.7413 63.7692 25.6373 63.8385 25.52 63.8919C25.3973 63.9399 25.264 63.9639 25.12 63.9639Z" fill="white"/>
</svg>
