<svg xmlns="http://www.w3.org/2000/svg" viewBox="0 0 887 278" preserveAspectRatio="xMinYMid">
    <g fill="#394B59" fill-rule="evenodd">
        <path fill-rule="nonzero" d="M119.729 220.16H0v-47.234L116.546 4h67.224v162.921H214v53.24h-30.23V273h-64.041v-52.84zM121 87l-55 81h55V87zm138.42 154.652C241.14 217.287 232 183.336 232 139.4c0-44.336 9.14-78.287 27.42-102.652C278.097 12.382 304.325 0 338.5 0s60.403 12.382 78.683 36.747C435.86 61.112 445 95.063 445 139.4c0 43.937-9.14 77.888-27.817 102.253C398.903 266.017 372.675 278 338.5 278c-34.175 0-60.403-11.983-79.08-36.348zM307.748 78.6C300.583 92.6 297 113 297 139s3.583 46.4 10.748 60.8c7.165 14 17.116 21.2 30.252 21.2s23.087-7.2 30.252-21.2C375.417 185.4 379 165 379 139s-3.583-46.4-10.748-60.4C361.087 64.2 351.136 57 338 57s-23.087 7.2-30.252 21.6zm272.98 141.56H461v-47.234L577.546 4h67.224v162.921H675v53.24h-30.23V273h-64.041v-52.84zM579 87l-55 81h55V87z"/>
        <g fill-rule="nonzero">
            <path d="M759.335 264.471c.097 4.275.15 8.586.15 12.933H835.172c0-4.347.053-8.658.152-12.933h-75.989zM797.33 235.106c14.013 0 26.71 1.335 36.035 3.5C833.437 100.318 886.66 0 886.66 0l-59.302 67.14-30.028-43.754-30.028 43.755L708 0s53.221 100.32 53.293 238.606c9.328-2.163 22.02-3.5 36.036-3.5"/>
        </g>
    </g>
</svg>
