<svg xmlns="http://www.w3.org/2000/svg" viewBox="0 0 749 749">
    <g fill="#FFF" fill-rule="nonzero">
        <path d="M156.4 331.001l-5.998-1.599c.4-1.072.598-2.14.598-3.207 0-2.674-1.852-5.077-5.554-7.212-3.7-2.142-8.404-3.965-14.104-5.478-5.697-1.511-11.903-2.627-18.6-3.34-6.706-.707-13.058-1.066-19.056-1.066-7.407 0-14.755.93-22.06 2.804-7.305 1.867-13.803 4.768-19.503 8.679-5.7 3.92-10.309 8.997-13.802 15.229-3.504 6.235-5.254 13.804-5.254 22.707 0 8.726 1.75 16.254 5.254 22.574 3.493 6.32 8.102 11.444 13.802 15.361 5.7 3.917 12.198 6.81 19.503 8.68s14.653 2.803 22.06 2.803c11.4 0 21.65-.84 30.755-2.535 9.101-1.694 16.853-3.517 23.264-5.478v-22.975h-38.413c-2.806 0-4.91.536-6.303 1.605-1.406 1.07-2.306 3.384-2.703 6.948h-5.399v-34.196h5.4c.396 3.028 1.296 4.942 2.702 5.743 1.393.801 3.497 1.202 6.303 1.202h75.02v4.809c-4.006.533-6.504 1.157-7.503 1.87-1.002.713-1.499 2.227-1.499 4.544v30.185c0 1.781.6 2.939 1.8 3.472 1.194.533 2.594 1.16 4.198 1.87v4.273a112.9 112.9 0 0 1-20.856 10.152 151.896 151.896 0 0 1-22.209 6.28 149.455 149.455 0 0 1-22.507 2.803c-7.5.356-14.847.536-22.05.536-14.007 0-26.765-1.558-38.264-4.677-11.507-3.113-21.36-7.749-29.557-13.892-8.205-6.146-14.557-13.627-19.057-22.439-4.506-8.814-6.752-18.83-6.752-30.052 0-11.22 2.246-21.24 6.752-30.054 4.5-8.815 10.852-16.337 19.057-22.574 8.198-6.23 18.05-10.994 29.557-14.293 11.5-3.293 24.257-4.939 38.264-4.939 8.8 0 17.204.53 25.203 1.602 8 1.07 15.106 2.268 21.313 3.605 6.196 1.337 11.348 2.583 15.45 3.74 4.096 1.16 6.653 1.738 7.649 1.738 1.803 0 3.202-.354 4.205-1.07a27.21 27.21 0 0 1 3.004-1.87l3.6 1.87-17.71 35.262zM607.109 384.163l3.004 1.337c0 1.6.393 3.028 1.194 4.273 1.396 2.138 4.152 4.232 8.258 6.28 4.095 2.046 8.796 3.872 14.1 5.474 5.3 1.602 10.855 2.895 16.657 3.873 5.8.984 11.004 1.47 15.603 1.47 3.4 0 7.804-.218 13.203-.669a86.247 86.247 0 0 0 15.904-2.807c5.2-1.42 9.7-3.378 13.501-5.875 3.805-2.492 5.71-5.787 5.71-9.884 0-4.096-1.756-7.121-5.253-9.083-3.504-1.955-8.102-3.38-13.803-4.273-5.703-.89-12.204-1.467-19.51-1.735a663.513 663.513 0 0 1-22.354-1.204 227.537 227.537 0 0 1-22.361-2.671c-7.302-1.246-13.803-3.34-19.503-6.276-5.697-2.94-10.309-6.945-13.8-12.025-3.503-5.075-5.253-11.707-5.253-19.9 0-5.52 1.45-10.95 4.35-16.295 2.895-5.343 7.349-10.06 13.357-14.16 6-4.091 13.597-7.43 22.807-10.02 9.194-2.577 20.003-3.87 32.406-3.87 10.6 0 19.807.713 27.612 2.139 7.804 1.425 14.55 2.936 20.247 4.541 5.71 1.6 10.507 3.119 14.408 4.538 3.904 1.429 7.15 2.141 9.756 2.141 2.799 0 4.797-.536 6.002-1.605l3.599 2.136-20.707 33.391-2.997-1.066c-.41-2.492-1.201-4.541-2.402-6.143-1.605-2.139-4.258-4.23-7.957-6.28-3.702-2.046-8.053-3.872-13.048-5.474-5.002-1.603-10.412-2.895-16.205-3.876a105.004 105.004 0 0 0-17.408-1.467c-4.404 0-8.953.312-13.657.934-4.698.624-8.953 1.56-12.747 2.806-3.805 1.246-6.955 2.896-9.459 4.94-2.501 2.052-3.752 4.588-3.752 7.615 0 4.277 1.75 7.481 5.25 9.616 3.504 2.135 8.106 3.74 13.807 4.807 5.707 1.069 12.207 1.784 19.509 2.138 7.298.362 14.749.804 22.355 1.337 7.602.533 15.053 1.47 22.358 2.806 7.295 1.335 13.802 3.473 19.502 6.409 5.704 2.942 10.303 6.906 13.806 11.89 3.5 4.985 5.254 11.485 5.254 19.499 0 9.265-2.756 16.828-8.251 22.707-5.512 5.878-12.36 10.51-20.558 13.892-8.208 3.384-17.058 5.657-26.56 6.809-9.502 1.16-18.361 1.74-26.556 1.74-11.4 0-20.962-.58-28.66-1.74-7.702-1.152-14.107-2.58-19.206-4.27-5.098-1.694-9.147-3.208-12.155-4.542-3.004-1.337-5.604-2.003-7.8-2.003-1.4 0-2.704.713-3.898 2.135l-4.205-2.135 16.506-32.325zM279.725 743.997c1.605 0 3.004-.398 4.205-1.199 1.201-.804 1.803-2.009 1.803-3.608V617.372c0-1.599-.602-2.712-1.803-3.34-1.2-.618-2.6-.93-4.205-.93v-4.81h56.12v4.81c-1.002 0-2.051.268-3.15.798-1.098.536-1.65 1.337-1.65 2.409 0 .89.397 2.047 1.197 3.47.798 1.428 1.697 2.939 2.7 4.538l42.913 69.457 43.224-68.653c1.39-2.312 2.444-4.144 3.15-5.475.694-1.337 1.045-2.542 1.045-3.605 0-1.961-1.304-2.94-3.898-2.94v-4.809h55.515v4.81c-1.608 0-3 .312-4.202.93-1.2.628-1.8 1.741-1.8 3.34V739.19c0 1.6.6 2.804 1.8 3.608 1.201.801 2.594 1.199 4.202 1.199v4.81h-47.118v-4.81c5.406 0 8.102-1.602 8.102-4.807V650.5h-.599l-60.315 98.307h-.903l-59.114-98.572h-.602v88.956c0 3.205 2.799 4.807 8.397 4.807v4.81h-45.014v-4.81zM378.308 536.457c36.054 0 68.711 3.045 92.7 7.975C471.193 229.306 608.11.699 608.11.699L455.555 153.697 378.308 53.99l-77.248 99.706L148.505.699s136.913 228.607 137.099 543.733c23.995-4.927 56.649-7.975 92.704-7.975"/>
    </g>
</svg>
