<svg xmlns="http://www.w3.org/2000/svg" viewBox="0 0 246 1024" preserveAspectRatio="xMinYMid">
    <path fill="#394B59" fill-rule="nonzero" d="M240 976.587v60.913H0v-63.436L95.357 904.5 0 834.936V771.5h240v60.553H88.929l74.642 54.425v36.044L88.93 976.587H240zM240.5 541v181H.5V546.757h48.571V656.15h45v-97.877h47.143v97.877h50.715V541H240.5zm0-95.58V506H.5v-63.09l151.071-109.688H.5V273h240v63.09L89.429 445.42H240.5zm-96.02-222.436H.5v-65.388h141.472c31.16 0 52.292-22.153 52.292-53.596 0-31.8-21.132-53.596-52.292-53.596H.5v-65.388h143.98c59.454-1.072 102.075 50.738 101 118.984 1.075 68.246-41.546 120.056-101 118.984z"/>
</svg>
