<?xml version="1.0" encoding="UTF-8"?>
<svg viewBox="0 0 1337 176" version="1.1" xmlns="http://www.w3.org/2000/svg" xmlns:xlink="http://www.w3.org/1999/xlink" preserveAspectRatio="xMinYMid">
    <!-- Generator: Sketch 52.6 (67491) - http://www.bohemiancoding.com/sketch -->
    <title>Services@2x</title>
    <desc>Created with Sketch.</desc>
    <g id="Page-1" stroke="none" stroke-width="1" fill="none" fill-rule="evenodd">
        <g id="Услуги" transform="translate(-51.000000, -230.000000)" fill="#394B59">
            <g id="Services" transform="translate(51.000000, 230.000000)">
                <path d="M0,161.83908 L10.320769,127.448276 C31.9692112,135.793103 49.8417623,139.83908 63.6866963,139.83908 C79.7971649,139.83908 89.3627556,133.770115 89.3627556,123.402299 C89.3627556,95.3333333 1.00690429,115.816092 1.00690429,51.5862069 C1.00690429,36.1609195 7.30005609,23.7701149 19.6346336,14.4137931 C31.9692112,4.8045977 48.0796798,1.13686838e-13 67.4625873,1.13686838e-13 C86.8454949,1.13686838e-13 107.235307,4.04597701 128.632023,12.137931 L118.311254,46.5287356 C100.942155,39.7011494 85.0834124,36.1609195 70.9867524,36.1609195 C55.883188,36.1609195 46.3175973,41.7241379 46.3175973,51.5862069 C46.3175973,78.8965517 134.673449,56.8965517 134.673449,123.402299 C134.673449,139.08046 128.380297,151.724138 115.793993,161.586207 C103.459416,171.195402 87.3489471,176 67.4625873,176 C45.5624191,176 23.1587986,171.195402 0,161.83908 Z M287.38352,172.383562 L159.92472,172.383562 L159.92472,2.4109589 L283.329164,2.4109589 L283.329164,36.8101761 L206.296411,36.8101761 L206.296411,68.6800391 L275.220453,68.6800391 L275.220453,102.067515 L206.296411,102.067515 L206.296411,137.984344 L287.38352,137.984344 L287.38352,172.383562 Z M358.42933,172.383562 L313.837233,172.383562 L313.837233,2.4109589 L390.859945,2.4109589 C408.848803,2.4109589 423.79729,7.72260274 435.198678,18.092955 C446.853431,28.4633072 452.680807,41.8688845 452.680807,58.3096869 C452.680807,82.8444227 438.999141,102.32045 416.956457,108.643836 L460.535097,172.383562 L410.368988,172.383562 L374.137909,115.978963 L358.42933,115.978963 L358.42933,172.383562 Z M358.327569,38.5753425 L358.327569,80.7671233 L383.127925,80.7671233 C396.9059,80.7671233 406.425229,72.278836 406.425229,59.5464051 C406.425229,47.3132852 396.9059,38.5753425 383.127925,38.5753425 L358.327569,38.5753425 Z M530.701095,172.383562 L461.737538,2.4109589 L509.986767,2.4109589 L551.920651,116.737769 L594.107149,2.4109589 L642.103764,2.4109589 L573.392821,172.383562 L530.701095,172.383562 Z M703.428281,172.383562 L657.735504,172.383562 L657.735504,2.4109589 L703.428281,2.4109589 L703.428281,172.383562 Z M727.487926,88 C726.730088,37.1788707 765.885042,-0.747345126 818.175851,0.0111791916 C840.40576,0.0111791916 861.877832,6.58505661 882.592065,19.9856529 L864.151345,50.579467 C850.510264,41.2243338 837.374409,36.6731879 824.491166,36.6731879 C809.587022,36.6731879 797.71423,41.4771752 788.367564,51.0851499 C779.27351,60.4402831 774.726483,72.8295137 774.726483,88 C774.726483,103.170486 779.27351,115.559717 788.367564,125.167692 C797.71423,134.522825 809.587022,139.326812 824.491166,139.326812 C837.374409,139.326812 850.510264,134.775666 864.151345,125.420533 L882.592065,156.014347 C861.877832,169.414943 840.40576,175.988821 818.175851,175.988821 C765.885042,176.747345 726.730088,138.821129 727.487926,88 Z M1030.49237,172.383562 L903.033571,172.383562 L903.033571,2.4109589 L1026.43801,2.4109589 L1026.43801,36.8101761 L949.405261,36.8101761 L949.405261,68.6800391 L1018.3293,68.6800391 L1018.3293,102.067515 L949.405261,102.067515 L949.405261,137.984344 L1030.49237,137.984344 L1030.49237,172.383562 Z M1047.32655,161.83908 L1057.64732,127.448276 C1079.29576,135.793103 1097.16831,139.83908 1111.01325,139.83908 C1127.12372,139.83908 1136.68931,133.770115 1136.68931,123.402299 C1136.68931,95.3333333 1048.33346,115.816092 1048.33346,51.5862069 C1048.33346,36.1609195 1054.62661,23.7701149 1066.96119,14.4137931 C1079.29576,4.8045977 1095.40623,1.13686838e-13 1114.78914,1.13686838e-13 C1134.17205,1.13686838e-13 1154.56186,4.04597701 1175.95857,12.137931 L1165.63781,46.5287356 C1148.26871,39.7011494 1132.40996,36.1609195 1118.3133,36.1609195 C1103.20974,36.1609195 1093.64415,41.7241379 1093.64415,51.5862069 C1093.64415,78.8965517 1182,56.8965517 1182,123.402299 C1182,139.08046 1175.70685,151.724138 1163.12054,161.586207 C1150.78597,171.195402 1134.6755,176 1114.78914,176 C1092.88897,176 1070.48535,171.195402 1047.32655,161.83908 Z" id="services" fill-rule="nonzero"></path>
                <g id="Crown" transform="translate(1223.000000, 0.000000)">
                    <g id="Group">
                        <path d="M32.51244,167.434948 C32.57364,170.141249 32.60724,172.870455 32.60724,175.622564 L56.57484,175.622564 L80.54244,175.622564 C80.54244,172.870455 80.57604,170.141249 80.63844,167.434948 L32.51244,167.434948 Z" id="Fill-1" fill-rule="nonzero"></path>
                        <path d="M56.5752,148.844164 C65.4504,148.844164 73.4916,149.689205 79.398,151.059836 C79.4436,63.5106849 113.1504,1.42108547e-14 113.1504,1.42108547e-14 L75.5928,42.506411 L56.5752,14.8056986 L37.5576,42.506411 L-2.84217094e-13,1.42108547e-14 C-2.84217094e-13,1.42108547e-14 33.7068,63.5118904 33.7524,151.059836 C39.66,149.690411 47.6988,148.844164 56.5752,148.844164" id="Fill-51" fill-rule="nonzero"></path>
                    </g>
                </g>
            </g>
        </g>
    </g>
</svg>