<svg xmlns="http://www.w3.org/2000/svg" viewBox="0 0 1111 230" preserveAspectRatio="xMinYMid">
    <g fill="#EFCC00" fill-rule="evenodd" opacity=".3">
        <path d="M66.548 47.917H0V0h195.206v47.917H129V230H66.548V47.917zM397.68 230H225.318V0h166.88v46.548H288.027v43.125h93.206v45.178h-93.206v48.601H397.68V230zm70.15 0h-62.882L498.246 0h57.756l92.955 230h-62.54l-17.087-46.548h-84.412L467.831 230zm59.641-162.658l-25.958 70.45h51.917l-25.959-70.45zM726.465 230h-57.78V0h60.173l65.985 91.384L860.827 0H921v230h-57.437V85.223l-51.626 71.533h-34.189l-51.283-71.533V230z"/>
        <g fill-rule="nonzero">
            <path d="M1004.78 218.807c.08 3.537.124 7.103.124 10.7h63.073c0-3.597.044-7.163.126-10.7h-63.323zM1036.441 194.512c11.678 0 22.258 1.105 30.03 2.896C1066.531 82.997 1110.882 0 1110.882 0l-49.418 55.548-25.023-36.2-25.023 36.2L962 0s44.351 82.998 44.411 197.408c7.773-1.79 18.35-2.896 30.03-2.896"/>
        </g>
    </g>
</svg>
