<svg xmlns="http://www.w3.org/2000/svg" xmlns:xlink="http://www.w3.org/1999/xlink" viewBox="0 0 689 223" preserveAspectRatio="xMinYMid">
    <defs>
        <path id="a" d="M.5.5h356v719H.5z"/>
    </defs>
    <g fill="none" fill-rule="evenodd" transform="matrix(0 1 1 0 0 -7)">
        <mask id="b" fill="#fff">
            <use xlink:href="#a"/>
        </mask>
        <path fill="#FFFFFF" fill-rule="nonzero" d="M87.602 688.5l.821-9.871c.594-13.672.876-27.346.876-41.017 0-41.579-2.584-83.127-6.692-124.449-5.548-54.912-15.245-109.334-28.646-162.746v-.002c-6.64-26.714-14.634-53.074-23.798-78.998l-.002-.006v-.002C21.6 246.686 11.61 222.479.5 198.825v-6.49c.268.571.539 1.148.804 1.72l-.002-.01c11.828 24.877 22.437 50.375 31.47 76.455l-.002-.008c9.191 26.002 17.21 52.447 23.875 79.252l-.003-.002c13.432 53.538 23.154 108.09 28.715 163.144 4.114 41.39 6.707 83.03 6.707 124.726 0 10.819-.177 21.64-.545 32.464a794.149 794.149 0 0 0 10.745-31.727l.002-.006.003-.005c5.252-16.167 10.081-32.459 14.06-48.977l.002-.014.003-.014c7.9-30.037 13.324-60.704 17.62-91.506 4.306-30.785 6.321-61.88 6.902-92.99v.008c.05-3.73.074-7.459.074-11.187 0-25.412-1.213-50.8-4.483-76.087C129.442 292.024 75.666 116.462.5 9.14V4.353c76.55 107.356 131.137 285.46 138.55 312.263 5.723 6.434 11.096 13.311 16.089 20.385l.002.005c6.129 8.764 11.757 17.862 17.067 27.13h.003l.002.005a425.66 425.66 0 0 1 14.717 28.484l-.002-.003c4.583 9.67 8.713 19.532 12.676 29.445l1.87 4.678.104-5.03c.105-5.187.158-10.378.158-15.568 0-36.391-2.612-72.8-8.03-108.792v-.003c-6.101-41.158-15.621-81.773-27.942-121.518l.003.005c-12.486-39.698-27.56-78.59-45.408-116.192v.003c-9.2-19.308-20.077-39.98-31.696-60.15h3.19c11.353 19.79 21.976 40.02 31.002 58.956v.003c17.91 37.723 33.027 76.735 45.55 116.547v.005c12.358 39.873 21.909 80.624 28.034 121.934v-.002c5.44 36.136 8.061 72.68 8.061 109.204 0 5.21-.053 10.417-.16 15.624l-.379 18.643-6.925-17.316c-3.95-9.886-8.057-19.696-12.605-29.287l-.002-.006a422.7 422.7 0 0 0-14.62-28.298l.002.008c-5.28-9.215-10.866-18.241-16.934-26.919l.003.003c-4.127-5.85-8.517-11.56-13.144-16.984 2.878 23.978 3.958 48.016 3.958 72.043 0 3.742-.027 7.481-.074 11.223l-.003.008c-.58 31.196-2.598 62.402-6.927 93.323-4.301 30.863-9.744 61.635-17.68 91.816-4 16.605-8.846 32.96-14.112 49.168l.003-.01c-4.166 13.172-8.727 26.516-13.805 40.022l-3.494 9.292M207.843 215.5c.657-5.446 1.114-10.89 1.455-16.325.108-1.744.155-3.484.233-5.225a297.6 297.6 0 0 0 .307-18.249c-.027-2.037-.06-4.07-.127-6.102a336.253 336.253 0 0 0-.369-7.862c-.11-1.99-.216-3.98-.363-5.961-.196-2.66-.449-5.311-.706-7.957-.186-1.926-.355-3.855-.571-5.773-.31-2.753-.685-5.49-1.056-8.23-.244-1.777-.457-3.562-.723-5.333-.46-3.07-.99-6.116-1.519-9.16-.246-1.415-.46-2.843-.72-4.251a423.737 423.737 0 0 0-2.66-13.19c-.17-.775-.366-1.53-.538-2.302-.807-3.59-1.635-7.17-2.525-10.713-.413-1.66-.867-3.29-1.3-4.937-.69-2.638-1.377-5.275-2.108-7.88-.51-1.81-1.048-3.594-1.574-5.39-.701-2.394-1.4-4.788-2.134-7.151-.577-1.857-1.172-3.69-1.765-5.53a469.584 469.584 0 0 0-2.212-6.75c-.623-1.848-1.26-3.672-1.898-5.499a606.238 606.238 0 0 0-2.295-6.462 517.853 517.853 0 0 0-2.02-5.438 512.8 512.8 0 0 0-2.355-6.171 575.635 575.635 0 0 0-4.528-11.286 784.76 784.76 0 0 0-2.148-5.147 684.882 684.882 0 0 0-2.502-5.79c-.718-1.638-1.43-3.28-2.15-4.887L166.5-.5h3.037c.638 1.428 1.272 2.88 1.907 4.334l.216.495a495.999 495.999 0 0 1 2.51 5.817 605.7 605.7 0 0 1 2.162 5.17 546.582 546.582 0 0 1 4.55 11.338 517.837 517.837 0 0 1 2.37 6.202 523.7 523.7 0 0 1 2.026 5.469 494.379 494.379 0 0 1 2.305 6.492c.646 1.835 1.283 3.67 1.912 5.527.757 2.244 1.491 4.516 2.223 6.788l.346 1.069c.48 1.491.962 2.98 1.427 4.491a463.088 463.088 0 0 1 1.984 6.63l.164.557.474 1.614c.374 1.264.748 2.532 1.108 3.81.67 2.389 1.306 4.802 1.935 7.218l.185.708.471 1.763c.286 1.066.568 2.128.84 3.205a452.993 452.993 0 0 1 2.536 10.78l.238 1.012c.105.432.208.866.305 1.304a434.034 434.034 0 0 1 2.677 13.278c.158.852.302 1.716.44 2.576.095.57.189 1.135.286 1.7.493 2.836 1.053 6.05 1.532 9.226.175 1.174.33 2.353.482 3.532l.242 1.84.027.185c.366 2.699.732 5.394 1.037 8.106.16 1.414.296 2.831.43 4.251l.146 1.564c.26 2.667.516 5.338.712 8.02.125 1.674.22 3.354.31 5.034l.056.977c.125 2.164.277 5.023.374 7.926a349.395 349.395 0 0 1 .147 8.399c9.472-50.94 14.1-95.873 14.1-136.53 0-14.54-.618-28.49-1.865-41.877h2.81c1.202 13.162 1.826 27.093 1.826 41.877 0 48.165-6.64 105.346-21.657 174.123" mask="url(#b)"/>
    </g>
</svg>
