<svg xmlns="http://www.w3.org/2000/svg" xmlns:xlink="http://www.w3.org/1999/xlink" viewBox="0 0 437 494">
    <defs>
        <path id="a" d="M498 38h437v494H498V38zm94.202 222.487l10.105-22.577-2.054-1.198c-.572.341-1.146.743-1.714 1.198-.572.458-1.37.684-2.399.684-.568 0-2.027-.37-4.364-1.113-2.34-.74-5.28-1.538-8.815-2.394-3.541-.856-7.596-1.624-12.16-2.308-4.564-.687-9.359-1.026-14.38-1.026-7.992 0-15.27 1.054-21.832 3.162-6.565 2.112-12.186 5.163-16.864 9.151-4.681 3.994-8.305 8.81-10.872 14.454-2.571 5.644-3.853 12.06-3.853 19.244 0 7.184 1.282 13.597 3.853 19.241 2.567 5.642 6.19 10.432 10.872 14.367 4.678 3.934 10.299 6.902 16.864 8.895 6.561 1.997 13.84 2.995 21.832 2.995 4.11 0 8.302-.115 12.58-.343a76.464 76.464 0 0 0 12.842-1.796 79.483 79.483 0 0 0 12.672-4.02 61.753 61.753 0 0 0 11.9-6.5v-2.736c-.916-.455-1.715-.856-2.396-1.197-.685-.342-1.027-1.083-1.027-2.224V285.12c0-1.484.283-2.453.855-2.91.57-.456 1.995-.856 4.281-1.197v-3.08h-42.803c-1.6 0-2.801-.256-3.596-.769-.802-.513-1.316-1.739-1.542-3.677h-3.08v21.895h3.08c.226-2.282.74-3.764 1.542-4.449.795-.684 1.995-1.027 3.596-1.027h21.917v14.71c-3.658 1.256-8.081 2.423-13.274 3.507-5.194 1.087-11.042 1.624-17.547 1.624-4.226 0-8.419-.598-12.586-1.795-4.168-1.198-7.876-3.05-11.128-5.557-3.252-2.508-5.882-5.79-7.875-9.836-1.999-4.047-2.998-8.867-2.998-14.454 0-5.7.999-10.547 2.998-14.539 1.993-3.99 4.623-7.24 7.875-9.75 3.252-2.505 6.96-4.362 11.128-5.558a45.29 45.29 0 0 1 12.586-1.795c3.422 0 7.046.23 10.873.683 3.82.456 7.361 1.17 10.612 2.138 3.252.97 5.936 2.137 8.047 3.507 2.112 1.368 3.169 2.906 3.169 4.619a6.47 6.47 0 0 1-.342 2.053l3.422 1.024zm257.154 34.038l-9.417 20.698 2.399 1.367c.681-.911 1.425-1.367 2.223-1.367 1.254 0 2.737.426 4.451 1.282 1.716.854 4.027 1.823 6.935 2.908 2.91 1.082 6.564 1.997 10.958 2.734 4.392.743 9.848 1.114 16.352 1.114 4.676 0 9.73-.371 15.152-1.114 5.421-.737 10.47-2.193 15.154-4.36 4.677-2.165 8.585-5.13 11.73-8.895 3.135-3.763 4.707-8.606 4.707-14.538 0-5.131-1-9.293-2.998-12.486a22.414 22.414 0 0 0-7.876-7.612c-3.253-1.88-6.966-3.25-11.128-4.103a103.794 103.794 0 0 0-12.756-1.797c-4.34-.342-8.59-.625-12.755-.857-4.166-.226-7.875-.684-11.131-1.369-3.252-.682-5.878-1.71-7.877-3.077-1.997-1.367-2.996-3.419-2.996-6.157 0-1.938.714-3.562 2.14-4.876 1.43-1.309 3.227-2.365 5.398-3.163 2.165-.797 4.592-1.397 7.273-1.797a53.125 53.125 0 0 1 7.792-.597c3.31 0 6.616.315 9.932.939 3.305.628 6.392 1.455 9.246 2.481 2.85 1.026 5.332 2.195 7.444 3.506 2.11 1.312 3.624 2.651 4.54 4.02.685 1.026 1.136 2.338 1.37 3.934l1.71.682 11.815-21.38-2.054-1.367c-.687.685-1.827 1.028-3.424 1.028-1.487 0-3.339-.456-5.566-1.371-2.226-.909-4.963-1.882-8.22-2.906-3.251-1.028-7.1-1.995-11.553-2.908-4.453-.912-9.706-1.369-15.754-1.369-7.077 0-13.243.828-18.489 2.478-5.255 1.658-9.589 3.796-13.013 6.415-3.428 2.625-5.969 5.646-7.62 9.067-1.656 3.422-2.483 6.9-2.483 10.433 0 5.246.999 9.493 2.998 12.742 1.991 3.253 4.623 5.817 7.873 7.7 3.253 1.88 6.962 3.22 11.128 4.018 4.167.8 8.418 1.367 12.758 1.71 4.336.343 8.587.6 12.754.771 4.168.172 7.877.541 11.132 1.11 3.252.572 5.876 1.485 7.875 2.737 1.995 1.256 2.997 3.193 2.997 5.816 0 2.623-1.087 4.733-3.258 6.328-2.169 1.599-4.736 2.853-7.703 3.762a44.39 44.39 0 0 1-9.074 1.797c-3.08.288-5.593.428-7.533.428-2.624 0-5.593-.311-8.902-.941a70.098 70.098 0 0 1-9.504-2.48c-3.026-1.025-5.708-2.195-8.045-3.505-2.343-1.31-3.915-2.651-4.712-4.02-.456-.798-.681-1.713-.681-2.737l-1.714-.856zm-186.79 230.396V528h25.683v-3.08c-3.194 0-4.79-1.025-4.79-3.077v-56.957h.343L717.529 528h.516l34.413-62.945h.341v56.788c0 2.052-1.538 3.078-4.622 3.078V528h26.883v-3.08c-.918 0-1.712-.254-2.398-.767-.685-.515-1.026-1.286-1.026-2.31v-77.998c0-1.024.341-1.737 1.026-2.138.686-.396 1.48-.596 2.398-.596v-3.08h-31.674v3.08c1.48 0 2.223.626 2.223 1.882 0 .68-.2 1.452-.596 2.308-.402.852-1.004 2.025-1.797 3.505l-24.662 43.958-24.484-44.472a69.023 69.023 0 0 1-1.54-2.906c-.457-.911-.683-1.652-.683-2.222 0-.686.315-1.199.942-1.542.626-.34 1.225-.511 1.797-.511v-3.08h-32.02v3.08c.916 0 1.714.2 2.4.596.685.401 1.028 1.114 1.028 2.138v77.998c0 1.024-.343 1.795-1.029 2.31-.685.513-1.483.768-2.399.768zm56.247-132.885c20.57 0 39.203 1.95 52.89 5.107C771.81 195.373 849.928 49 849.928 49l-87.042 97.962-44.073-63.84-44.074 63.84L587.698 49s78.117 146.373 78.222 348.143c13.691-3.155 32.322-5.107 52.893-5.107z"/>
    </defs>
    <use fill="#FFF" fill-rule="evenodd" transform="translate(-498 -38)" xlink:href="#a"/>
</svg>
