<svg xmlns="http://www.w3.org/2000/svg" viewBox="0 0 1440 54">
    <g fill="none" fill-rule="evenodd" stroke="#9C9C9C" opacity=".262">
        <path d="M125 53h-19.896v-5.531h-1.15V30.941l-3.451-3.33v19.611h-1.365v5.694h-.68v-5.365h-5.113V39.41h-6.163c-2.247-4.203-4.763-6.333-7.48-6.333h-.006c-4.274.005-7.495 5.289-8.219 6.58h-4.974v7.483h-4.771v5.776h-2.344v-5.528l-3.45-3.33v-9.13h-4.944l-6.22-6.002-5.834 5.632H33.4v8.965l-4.048 3.906V53h-2.386v-4.462h-5.752V38.3h-5.24V27.097h-5.688v-14.35L3.704 6.394v20.703H-1.92V37.93h-5.624v14.925h-4.729v-8.388h-3.962V25.101h-6.902v19.243h-3.323v8.51h-2.748V18.052l-7.861-7.586v26.478h-11.887v-8.265H-62.12v16.036h-3.642v2.837h-2.791v2.59h-3.153V53h-3.297V21.829L-97.764 1l-21.973 21.206V53h-9.486v-8.163h-2.493v-9.702l-4.729-4.564v14.575h-1.662v7.77h-2.172v-5.982h-2.429v-6.106h-1.981v-7.77h-1.278V19.303h-3.132v13.568h-1.853v7.954h-2.428v5.797h-2.94V53H-173M1315 53h-19.896v-5.531h-1.15V30.941l-3.451-3.33v19.611h-1.365v5.694h-.68v-5.365h-5.113V39.41h-6.163c-2.247-4.203-4.763-6.333-7.48-6.333h-.006c-4.274.005-7.495 5.289-8.219 6.58h-4.974v7.483h-4.771v5.776h-2.344v-5.528l-3.45-3.33v-9.13h-4.944l-6.22-6.002-5.834 5.632h-5.54v8.965l-4.048 3.906V53h-2.386v-4.462h-5.752V38.3h-5.24V27.097h-5.688v-14.35l-6.582-6.353v20.703h-5.624V37.93h-5.624v14.925h-4.729v-8.388h-3.962V25.101h-6.902v19.243h-3.323v8.51h-2.748V18.052l-7.861-7.586v26.478h-11.887v-8.265h-13.165v16.036h-3.642v2.837h-2.791v2.59h-3.153V53h-3.297V21.829L1092.236 1l-21.973 21.206V53h-9.486v-8.163h-2.493v-9.702l-4.729-4.564v14.575h-1.662v7.77h-2.172v-5.982h-2.429v-6.106h-1.981v-7.77h-1.278V19.303h-3.132v13.568h-1.853v7.954h-2.428v5.797h-2.94V53H1017M423 53h-19.896v-5.531h-1.15V30.941l-3.451-3.33v19.611h-1.365v5.694h-.68v-5.365h-5.113V39.41h-6.163c-2.247-4.203-4.763-6.333-7.48-6.333h-.006c-4.274.005-7.495 5.289-8.219 6.58h-4.974v7.483h-4.771v5.776h-2.344v-5.528l-3.45-3.33v-9.13h-4.944l-6.22-6.002-5.834 5.632h-5.54v8.965l-4.048 3.906V53h-2.386v-4.462h-5.752V38.3h-5.24V27.097h-5.688v-14.35l-6.582-6.353v20.703h-5.624V37.93h-5.624v14.925h-4.729v-8.388h-3.962V25.101h-6.902v19.243h-3.323v8.51h-2.748V18.052l-7.861-7.586v26.478h-11.887v-8.265H235.88v16.036h-3.642v2.837h-2.791v2.59h-3.153V53h-3.297V21.829L200.236 1l-21.973 21.206V53h-9.486v-8.163h-2.493v-9.702l-4.729-4.564v14.575h-1.662v7.77h-2.172v-5.982h-2.429v-6.106h-1.981v-7.77h-1.278V19.303H148.9v13.568h-1.853v7.954h-2.428v5.797h-2.94V53H125M1613 53h-19.896v-5.531h-1.15V30.941l-3.451-3.33v19.611h-1.365v5.694h-.68v-5.365h-5.113V39.41h-6.163c-2.247-4.203-4.763-6.333-7.48-6.333h-.006c-4.274.005-7.495 5.289-8.219 6.58h-4.974v7.483h-4.771v5.776h-2.344v-5.528l-3.45-3.33v-9.13h-4.944l-6.22-6.002-5.834 5.632h-5.54v8.965l-4.048 3.906V53h-2.386v-4.462h-5.752V38.3h-5.24V27.097h-5.688v-14.35l-6.582-6.353v20.703h-5.624V37.93h-5.624v14.925h-4.729v-8.388h-3.962V25.101h-6.902v19.243h-3.323v8.51h-2.748V18.052l-7.861-7.586v26.478h-11.887v-8.265h-13.165v16.036h-3.642v2.837h-2.791v2.59h-3.153V53h-3.297V21.829L1390.236 1l-21.973 21.206V53h-9.486v-8.163h-2.493v-9.702l-4.729-4.564v14.575h-1.662v7.77h-2.172v-5.982h-2.429v-6.106h-1.981v-7.77h-1.278V19.303h-3.132v13.568h-1.853v7.954h-2.428v5.797h-2.94V53H1315"/>
        <path d="M719 53h-19.896v-5.531h-1.15V30.941l-3.451-3.33v19.611h-1.365v5.694h-.68v-5.365h-5.113V39.41h-6.163c-2.247-4.203-4.763-6.333-7.48-6.333h-.006c-4.274.005-7.495 5.289-8.219 6.58h-4.974v7.483h-4.771v5.776h-2.344v-5.528l-3.45-3.33v-9.13h-4.944l-6.22-6.002-5.834 5.632h-5.54v8.965l-4.048 3.906V53h-2.386v-4.462h-5.752V38.3h-5.24V27.097h-5.688v-14.35l-6.582-6.353v20.703h-5.624V37.93h-5.624v14.925h-4.729v-8.388h-3.962V25.101h-6.902v19.243h-3.323v8.51h-2.748V18.052l-7.861-7.586v26.478h-11.887v-8.265H531.88v16.036h-3.642v2.837h-2.791v2.59h-3.153V53h-3.297V21.829L496.236 1l-21.973 21.206V53h-9.486v-8.163h-2.493v-9.702l-4.729-4.564v14.575h-1.662v7.77h-2.172v-5.982h-2.429v-6.106h-1.981v-7.77h-1.278V19.303H444.9v13.568h-1.853v7.954h-2.428v5.797h-2.94V53H421M1017 53h-19.896v-5.531h-1.15V30.941l-3.451-3.33v19.611h-1.365v5.694h-.68v-5.365h-5.113V39.41h-6.163c-2.247-4.203-4.763-6.333-7.48-6.333h-.006c-4.274.005-7.495 5.289-8.219 6.58h-4.974v7.483h-4.771v5.776h-2.344v-5.528l-3.45-3.33v-9.13h-4.944l-6.22-6.002-5.834 5.632h-5.54v8.965l-4.048 3.906V53h-2.386v-4.462h-5.752V38.3h-5.24V27.097h-5.688v-14.35l-6.582-6.353v20.703h-5.624V37.93h-5.624v14.925h-4.729v-8.388h-3.962V25.101h-6.902v19.243h-3.323v8.51h-2.748V18.052l-7.861-7.586v26.478h-11.887v-8.265H829.88v16.036h-3.642v2.837h-2.791v2.59h-3.153V53h-3.297V21.829L794.236 1l-21.973 21.206V53h-9.486v-8.163h-2.493v-9.702l-4.729-4.564v14.575h-1.662v7.77h-2.172v-5.982h-2.429v-6.106h-1.981v-7.77h-1.278V19.303H742.9v13.568h-1.853v7.954h-2.428v5.797h-2.94V53H719"/>
    </g>
</svg>
