<svg xmlns="http://www.w3.org/2000/svg" viewBox="0 0 22 28">
    <g fill="#2e414f" fill-rule="evenodd">
        <path d="M17.195 6.446h4.4a2.772 2.772 0 0 0-.434-.583L16.326.991a2.755 2.755 0 0 0-.579-.438v4.434c0 .787.637 1.458 1.448 1.458z"/>
        <path fill-rule="nonzero" d="M17.195 8.02c-1.65 0-3.01-1.37-3.01-3.032V.146H2.836C1.274.146 0 1.429 0 3.004v21.992c0 1.575 1.274 2.858 2.837 2.858h16.297c1.563 0 2.837-1.283 2.837-2.858V8.02h-4.776zM11 23.684c-3.329 0-6.021-2.712-6.021-6.066 0-3.355 2.692-6.067 6.021-6.067 3.329 0 6.021 2.712 6.021 6.067 0 3.354-2.692 6.066-6.021 6.066z"/>
        <path d="M13.692 16.683h-1.766v-1.779a.918.918 0 0 0-.926-.933.918.918 0 0 0-.926.933v1.78H8.308a.918.918 0 0 0-.926.933c0 .525.405.933.926.933h1.766v1.78c0 .524.405.933.926.933a.918.918 0 0 0 .926-.934V18.55h1.766a.918.918 0 0 0 .926-.933.936.936 0 0 0-.926-.934z"/>
    </g>
</svg>
