<svg xmlns="http://www.w3.org/2000/svg" viewBox="0 0 482 241">
    <g fill="#FFFFFF" fill-rule="nonzero">
        <path d="M220.875 234.173c.051 2.245.08 4.509.08 6.792H260.9c0-2.283.028-4.547.08-6.792h-40.105zM28.944 154.402l-1.104-.33c.074-.223.11-.443.11-.665 0-.553-.341-1.049-1.022-1.49-.681-.444-1.547-.82-2.596-1.134a20.645 20.645 0 0 0-3.424-.69 30.121 30.121 0 0 0-3.507-.22c-1.363 0-2.716.193-4.06.578a10.63 10.63 0 0 0-3.59 1.797c-1.05.808-1.897 1.858-2.54 3.147-.645 1.29-.967 2.853-.967 4.695 0 1.804.322 3.361.967 4.668.643 1.306 1.49 2.366 2.54 3.175 1.049.812 2.245 1.407 3.59 1.796 1.344.386 2.697.58 4.06.58 2.098 0 3.985-.176 5.66-.526 1.675-.348 3.102-.726 4.282-1.133v-4.749h-7.07c-.516 0-.903.11-1.16.332-.258.221-.424.698-.497 1.435h-.994v-7.07h.994c.073.626.239 1.023.497 1.188.257.167.644.248 1.16.248h13.809v.995c-.738.11-1.198.24-1.381.386-.185.148-.277.461-.277.94v6.241c0 .37.11.607.332.718.22.11.478.24.772.385v.885a19.86 19.86 0 0 1-3.838 2.098 25.54 25.54 0 0 1-4.088 1.3 24.59 24.59 0 0 1-4.142.58 77.995 77.995 0 0 1-4.06.111c-2.577 0-4.925-.324-7.042-.968-2.117-.643-3.931-1.603-5.44-2.873a13.01 13.01 0 0 1-3.507-4.639C.58 164.37.168 162.298.168 159.98c0-2.319.414-4.39 1.243-6.213a13.314 13.314 0 0 1 3.507-4.669c1.509-1.286 3.323-2.27 5.44-2.953 2.117-.682 4.465-1.022 7.043-1.022 1.62 0 3.166.111 4.639.332 1.472.221 2.78.47 3.923.744 1.14.278 2.088.534 2.843.774.754.241 1.225.36 1.408.36.332 0 .589-.074.774-.222.184-.145.368-.275.553-.386l.662.386-3.26 7.292zM54.46 153.96c-1.178 0-2.33.19-3.451.58a9.777 9.777 0 0 0-3.011 1.656 8.165 8.165 0 0 0-2.125 2.624c-.536 1.03-.802 2.209-.802 3.536 0 1.324.266 2.502.802 3.533a8.133 8.133 0 0 0 2.125 2.624 9.826 9.826 0 0 0 3.01 1.659 10.543 10.543 0 0 0 6.905 0 9.833 9.833 0 0 0 3.01-1.66 8.175 8.175 0 0 0 2.126-2.623c.534-1.031.8-2.21.8-3.533 0-1.327-.266-2.505-.8-3.536a8.207 8.207 0 0 0-2.126-2.624 9.784 9.784 0 0 0-3.01-1.656 10.477 10.477 0 0 0-3.452-.58m0-4.088c2.024 0 3.929.259 5.716.774 1.785.515 3.342 1.289 4.667 2.319 1.325 1.03 2.376 2.33 3.149 3.894.772 1.565 1.159 3.396 1.159 5.497 0 2.098-.387 3.929-1.16 5.494-.772 1.567-1.823 2.864-3.148 3.894-1.325 1.033-2.882 1.778-4.667 2.238-1.787.46-3.692.69-5.716.69-2.025 0-3.931-.23-5.718-.69-1.785-.46-3.341-1.205-4.667-2.238-1.325-1.03-2.374-2.327-3.147-3.894-.774-1.565-1.161-3.396-1.161-5.494 0-2.101.387-3.932 1.16-5.497.774-1.564 1.823-2.864 3.148-3.894 1.326-1.03 2.882-1.804 4.667-2.32 1.787-.514 3.693-.773 5.718-.773M83.567 150.203v.995c-.847 0-1.27.276-1.27.828v18.394h14.914c.44 0 .81-.103 1.103-.305a.98.98 0 0 0 .442-.855h.996v5.798h-.996c0-.293-.148-.46-.442-.496a8.899 8.899 0 0 0-1.103-.056H75.56v-.993c.957 0 1.436-.278 1.436-.831v-20.656c0-.552-.479-.828-1.436-.828v-.995h8.008zM119.526 170.42c1.14 0 2.228-.084 3.258-.248 1.03-.167 1.933-.534 2.707-1.106.772-.572 1.389-1.4 1.85-2.487.459-1.084.69-2.55.69-4.39 0-1.84-.231-3.285-.69-4.334-.461-1.052-1.078-1.842-1.85-2.376-.774-.535-1.677-.866-2.707-.996a26.85 26.85 0 0 0-3.258-.191h-7.182v16.128h7.182zm-13.754 3.093c.846 0 1.27-.278 1.27-.83v-20.657c0-.552-.424-.828-1.27-.828v-.995h15.356c2.17 0 4.032.35 5.577 1.05 1.548.7 2.808 1.612 3.784 2.734a10.81 10.81 0 0 1 2.155 3.868c.458 1.454.69 2.953.69 4.5 0 1.546-.221 3.048-.663 4.502a10.652 10.652 0 0 1-2.1 3.865c-.96 1.125-2.191 2.036-3.7 2.734-1.51.702-3.351 1.05-5.522 1.05h-15.577v-.993zM161.668 155.34c0-.7-.572-1.048-1.712-1.048h-13.477v5.523h8.506c.626 0 1.084-.046 1.38-.14.295-.093.44-.34.44-.745h.996v5.856h-1.106c.11-.405-.035-.654-.44-.748-.407-.092-.976-.137-1.712-.137h-8.064v6.518h14.14c.44 0 .809-.102 1.103-.305.294-.202.443-.469.443-.8h.995v5.8h-.995c0-.332-.15-.517-.443-.552a8.863 8.863 0 0 0-1.103-.056h-20.273v-.994a.96.96 0 0 0 .553-.192c.184-.13.278-.34.278-.637v-20.656c0-.294-.094-.507-.278-.636a.966.966 0 0 0-.553-.194v-.995h19.61c1.14 0 1.712-.33 1.712-.994h.993v6.132h-.993zM171.002 173.512c.663 0 .995-.277.995-.83v-20.656c0-.553-.332-.828-.995-.828v-.996h8.118v.996c-.257.035-.386.13-.386.275 0 .186.404.683 1.216 1.491l13.256 14.03v-14.968c0-.553-.37-.828-1.106-.828v-.996h6.74v.996c-.664 0-.996.275-.996.828v20.656c0 .553.332.83.995.83v.993h-7.18v-.993c.258 0 .387-.09.387-.277 0-.146-.175-.405-.526-.775-.35-.366-.744-.79-1.186-1.269l-13.698-14.58v16.071c0 .553.386.83 1.16.83v.993h-6.794v-.993zM227.117 165.392l.553.275c0 .331.073.628.221.885.256.443.764.876 1.518 1.297.756.426 1.622.801 2.595 1.133.976.332 2 .598 3.067.801 1.067.202 2.025.304 2.872.304.626 0 1.437-.046 2.43-.137a14.606 14.606 0 0 0 2.93-.579c.956-.297 1.786-.702 2.484-1.217.698-.515 1.05-1.195 1.05-2.044 0-.847-.322-1.473-.967-1.877-.645-.405-1.492-.699-2.54-.885-1.05-.184-2.248-.303-3.59-.359a105.642 105.642 0 0 1-4.117-.248 37.275 37.275 0 0 1-4.115-.553c-1.343-.256-2.54-.69-3.59-1.297a7.131 7.131 0 0 1-2.54-2.486c-.645-1.05-.969-2.42-.969-4.114 0-1.14.268-2.265.801-3.37.534-1.104 1.354-2.08 2.46-2.926 1.103-.848 2.503-1.539 4.197-2.072 1.693-.534 3.681-.802 5.965-.802 1.953 0 3.646.15 5.081.443 1.437.294 2.683.607 3.731.938a35.57 35.57 0 0 1 2.652.94c.717.293 1.315.441 1.793.441.515 0 .884-.11 1.106-.33l.663.442-3.81 6.903-.553-.22c-.076-.515-.222-.939-.442-1.27-.297-.444-.783-.875-1.465-1.298-.683-.424-1.484-.8-2.405-1.133a19.384 19.384 0 0 0-2.983-.8 17.184 17.184 0 0 0-3.2-.306c-.812 0-1.65.065-2.514.195-.866.13-1.648.323-2.349.58-.699.258-1.279.598-1.74 1.021-.46.424-.69.947-.69 1.573 0 .884.324 1.548.968 1.99.642.442 1.491.771 2.541.992 1.048.222 2.243.37 3.59.442 1.342.077 2.715.168 4.115.28 1.397.11 2.77.301 4.114.58 1.346.273 2.54.716 3.592 1.323a7.201 7.201 0 0 1 2.541 2.46c.641 1.03.966 2.372.966 4.031 0 1.915-.508 3.48-1.519 4.693-1.015 1.216-2.273 2.173-3.784 2.872a17.054 17.054 0 0 1-4.888 1.411c-1.75.237-3.379.358-4.889.358-2.099 0-3.857-.12-5.276-.358-1.418-.24-2.594-.534-3.536-.885-.938-.35-1.683-.664-2.235-.938-.553-.279-1.03-.415-1.435-.415-.259 0-.499.147-.72.441l-.772-.44 3.037-6.685zM267.384 173.512a.964.964 0 0 0 .553-.193c.183-.13.275-.34.275-.637v-18.39h-7.18c-.295 0-.571.073-.83.218-.255.148-.385.388-.385.72h-.996v-6.352h.996c0 .516.13.863.385 1.05.259.184.535.274.83.274h19.662c.296 0 .572-.09.83-.274.256-.187.386-.534.386-1.05h.995v6.352h-.995c0-.332-.13-.572-.385-.72a1.673 1.673 0 0 0-.831-.219h-7.18v18.391c0 .553.332.83.996.83v.993h-7.126v-.993zM303.95 164.344l-4.476-9.28-3.92 9.28h8.395zm-18.45 9.168a1.686 1.686 0 0 0 1.078-.636c.275-.35.485-.672.634-.965l8.231-17.952c.221-.513.394-.929.523-1.243.13-.311.194-.617.194-.91 0-.223-.046-.359-.138-.416a6.223 6.223 0 0 1-.304-.192v-.996h8.338v.995c-.107.075-.228.13-.358.166-.129.038-.19.185-.19.442 0 .221.08.488.247.802.165.311.34.672.523 1.076l8.948 18.778c.184.331.39.571.607.72.221.145.462.256.72.331v.994h-7.842v-.828c.183 0 .375-.054.58-.166.2-.11.302-.313.302-.608 0-.221-.039-.42-.11-.607a37.772 37.772 0 0 1-.276-.719l-1.49-3.149h-11.823l-1.545 2.982a9.593 9.593 0 0 0-.358.802c-.095.24-.14.453-.14.637 0 .293.091.477.278.553.182.073.441.11.773.11v.993H285.5v-.994zM319.855 173.512c.664 0 .995-.277.995-.83v-20.656c0-.553-.33-.828-.995-.828v-.996h8.118v.996c-.257.035-.386.13-.386.275 0 .186.405.683 1.216 1.491l13.256 14.03v-14.968c0-.553-.369-.828-1.105-.828v-.996h6.74v.996c-.664 0-.996.275-.996.828v20.656c0 .553.332.83.995.83v.993h-7.182v-.993c.26 0 .388-.09.388-.277 0-.146-.175-.405-.525-.775-.35-.366-.745-.79-1.187-1.269l-13.698-14.58v16.071c0 .553.386.83 1.16.83v.993h-6.794v-.993zM369.676 170.42c1.142 0 2.229-.084 3.259-.248 1.029-.167 1.933-.534 2.707-1.106.77-.572 1.388-1.4 1.85-2.487.458-1.084.69-2.55.69-4.39 0-1.84-.232-3.285-.69-4.334-.462-1.052-1.08-1.842-1.85-2.376-.774-.535-1.678-.866-2.707-.996a26.854 26.854 0 0 0-3.26-.191h-7.181v16.128h7.182zm-13.754 3.093c.847 0 1.27-.278 1.27-.83v-20.657c0-.552-.423-.828-1.27-.828v-.995h15.357c2.17 0 4.032.35 5.577 1.05 1.548.7 2.807 1.612 3.784 2.734a10.823 10.823 0 0 1 2.154 3.868c.459 1.454.69 2.953.69 4.5 0 1.546-.22 3.048-.662 4.502a10.667 10.667 0 0 1-2.1 3.865c-.96 1.125-2.192 2.036-3.7 2.734-1.51.702-3.352 1.05-5.523 1.05h-15.577v-.993zM405.246 164.344l-4.475-9.28-3.921 9.28h8.396zm-18.45 9.168a1.686 1.686 0 0 0 1.079-.636c.275-.35.485-.672.634-.965l8.231-17.952c.221-.513.394-.929.523-1.243.129-.311.194-.617.194-.91 0-.223-.046-.359-.138-.416a6.223 6.223 0 0 1-.304-.192v-.996h8.338v.995c-.107.075-.228.13-.358.166-.129.038-.191.185-.191.442 0 .221.081.488.248.802.165.311.34.672.523 1.076l8.948 18.778c.184.331.389.571.608.72.22.145.461.256.719.331v.994h-7.842v-.828c.183 0 .375-.054.58-.166.199-.11.302-.313.302-.608 0-.221-.039-.42-.111-.607a37.772 37.772 0 0 1-.275-.719l-1.491-3.149h-11.821l-1.546 2.982a9.593 9.593 0 0 0-.358.802c-.095.24-.141.453-.141.637 0 .293.092.477.279.553.182.073.442.11.773.11v.993h-7.403v-.994zM436.121 160.697c3.608 0 5.412-1.141 5.412-3.425 0-.92-.433-1.645-1.297-2.179-.866-.535-2.238-.801-4.115-.801h-8.728v6.405h8.728zm.11-10.494c3.277 0 5.836.545 7.678 1.629 1.84 1.087 2.762 2.937 2.762 5.551 0 .995-.186 1.879-.553 2.651a6.708 6.708 0 0 1-1.465 2.017 7.79 7.79 0 0 1-2.014 1.38 11.37 11.37 0 0 1-2.265.802l5.412 7.9c.294.404.615.709.966.911.35.202.728.358 1.133.468v.994h-8.45v-.994c.477 0 .717-.167.717-.498 0-.367-.274-.938-.828-1.713l-4.363-6.515h-7.678v7.896c0 .297.118.507.359.637.24.129.468.193.69.193v.994h-7.347v-.994c.663 0 .995-.277.995-.83v-20.656c0-.553-.332-.828-.995-.828v-.995h15.246zM467.88 170.42c1.14 0 2.228-.084 3.258-.248 1.03-.167 1.933-.534 2.708-1.106.77-.572 1.388-1.4 1.849-2.487.459-1.084.69-2.55.69-4.39 0-1.84-.231-3.285-.69-4.334-.461-1.052-1.078-1.842-1.85-2.376-.774-.535-1.677-.866-2.707-.996a26.85 26.85 0 0 0-3.258-.191h-7.182v16.128h7.182zm-13.755 3.093c.848 0 1.27-.278 1.27-.83v-20.657c0-.552-.422-.828-1.27-.828v-.995h15.357c2.17 0 4.032.35 5.577 1.05 1.549.7 2.807 1.612 3.784 2.734a10.825 10.825 0 0 1 2.155 3.868 14.89 14.89 0 0 1 .69 4.5c0 1.546-.221 3.048-.663 4.502a10.68 10.68 0 0 1-2.098 3.865c-.96 1.125-2.193 2.036-3.7 2.734-1.511.702-3.353 1.05-5.524 1.05h-15.578v-.993zM115.386 213.678a.752.752 0 0 0 .464-.15c.135-.1.2-.249.2-.449v-15.11c0-.2-.065-.338-.2-.416a.923.923 0 0 0-.464-.116v-.596h6.197v.596a.75.75 0 0 0-.347.1.323.323 0 0 0-.18.3c0 .11.042.253.131.431.086.175.186.364.297.563l4.741 8.615 4.771-8.518c.153-.285.27-.512.348-.677a1.07 1.07 0 0 0 .116-.447c0-.243-.143-.367-.432-.367v-.596h6.133v.596a.923.923 0 0 0-.464.116c-.135.078-.2.216-.2.415v15.111c0 .2.065.348.2.448a.752.752 0 0 0 .464.151v.596h-5.205v-.596c.598 0 .895-.199.895-.599v-11h-.065l-6.66 12.195h-.1l-6.53-12.23h-.068v11.035c0 .4.311.6.931.6v.595h-4.973v-.596zM157.277 208.177l-2.686-5.57-2.352 5.57h5.038zm-11.07 5.502c.266-.047.48-.173.647-.383.164-.212.291-.403.38-.58l4.938-10.769c.132-.31.237-.559.315-.748.08-.186.116-.37.116-.547 0-.131-.027-.212-.083-.247a3.121 3.121 0 0 1-.18-.118v-.595h5.002v.595a.698.698 0 0 1-.216.1c-.078.023-.116.112-.116.266 0 .133.052.293.151.482.097.186.202.401.313.645l5.37 11.268c.11.198.232.341.364.431.132.09.275.153.431.2v.595h-4.706v-.499a.747.747 0 0 0 .348-.096c.121-.067.184-.19.184-.368a.999.999 0 0 0-.068-.364 9.994 9.994 0 0 1-.164-.43l-.896-1.89h-7.093l-.927 1.791a5.16 5.16 0 0 0-.216.481 1.098 1.098 0 0 0-.084.38c0 .178.057.29.167.333.111.044.264.067.464.067v.595h-4.442v-.595zM172.453 213.678c.4 0 .6-.167.6-.499v-12.393c0-.33-.2-.499-.6-.499v-.595h4.874v.595c-.157.022-.232.078-.232.168 0 .111.242.408.728.893l7.953 8.42v-8.982c0-.33-.22-.499-.663-.499v-.595h4.042v.595c-.396 0-.596.168-.596.5v12.392c0 .332.2.5.596.5v.595h-4.307v-.596c.154 0 .232-.057.232-.167 0-.089-.105-.243-.315-.464a47.733 47.733 0 0 1-.712-.764l-8.218-8.749v9.645c0 .332.232.5.696.5v.595h-4.078v-.596zM209.075 208.177l-2.686-5.57-2.352 5.57h5.038zm-11.071 5.502c.267-.047.48-.173.648-.383.164-.212.29-.403.38-.58l4.938-10.769c.132-.31.237-.559.315-.748.079-.186.116-.37.116-.547 0-.131-.027-.212-.083-.247a3.121 3.121 0 0 1-.181-.118v-.595h5.003v.595a.698.698 0 0 1-.216.1c-.078.023-.116.112-.116.266 0 .133.052.293.15.482.098.186.203.401.314.645l5.37 11.268c.11.198.232.341.364.431.132.09.275.153.43.2v.595h-4.705v-.499a.747.747 0 0 0 .348-.096c.12-.067.184-.19.184-.368a.999.999 0 0 0-.068-.364 9.994 9.994 0 0 1-.164-.43l-.896-1.89h-7.093l-.927 1.791a5.16 5.16 0 0 0-.216.481 1.098 1.098 0 0 0-.084.38c0 .178.057.29.167.333.11.044.264.067.464.067v.595h-4.442v-.595zM237.177 204.498l-.4-.231c.047-.222.068-.343.068-.365 0-.2-.145-.415-.431-.647-.29-.232-.663-.447-1.127-.648a8.417 8.417 0 0 0-1.572-.48 9.352 9.352 0 0 0-4.095.099 5.506 5.506 0 0 0-1.922.897c-.553.41-.993.933-1.325 1.575-.331.639-.5 1.424-.5 2.352 0 .927.179 1.707.533 2.335a4.463 4.463 0 0 0 1.375 1.526 5.919 5.919 0 0 0 1.872.845 7.892 7.892 0 0 0 1.99.264c.95 0 1.85-.065 2.7-.2a7.35 7.35 0 0 0 2.335-.76v-2.087h-3.411c-.246 0-.453.048-.632.148-.175.1-.285.28-.331.547h-.596v-3.414h.596c.046.222.156.364.33.432.18.064.387.099.633.099h6.494v.596c-.2.09-.332.189-.396.297-.068.113-.1.278-.1.499v3.147c0 .199.027.337.083.415.054.078.192.159.413.248v.397c-.2.133-.513.315-.944.548a10.99 10.99 0 0 1-1.623.679c-.653.22-1.41.405-2.271.548-.861.143-1.824.215-2.883.215-1.438 0-2.735-.161-3.895-.482-1.16-.32-2.144-.798-2.947-1.441a6.437 6.437 0 0 1-1.86-2.335c-.428-.917-.643-1.961-.643-3.134 0-1.171.215-2.214.644-3.131a6.57 6.57 0 0 1 1.859-2.352c.803-.652 1.788-1.148 2.947-1.491 1.16-.343 2.457-.515 3.895-.515.86 0 1.623.078 2.286.232.664.156 1.239.32 1.724.499.507.175.917.342 1.227.496.308.154.54.232.696.232.175 0 .308-.017.396-.05.089-.034.2-.104.332-.215l.396.198-1.92 3.613zM262.96 202.775c0-.42-.342-.632-1.026-.632h-8.086v3.315h5.103c.374 0 .65-.027.827-.083.179-.054.265-.203.265-.446h.599v3.512h-.663c.064-.243-.022-.392-.265-.448-.245-.054-.588-.083-1.027-.083h-4.84v3.91h8.483c.267 0 .485-.06.663-.18a.554.554 0 0 0 .265-.48h.599v3.478h-.6c0-.199-.085-.309-.264-.332a5.76 5.76 0 0 0-.663-.032h-12.16v-.596c.11 0 .218-.04.328-.116.11-.078.168-.205.168-.383v-12.392c0-.178-.057-.305-.168-.383a.582.582 0 0 0-.328-.116v-.596h11.764c.684 0 1.027-.199 1.027-.596h.596v3.68h-.596zM274.593 213.678a.583.583 0 0 0 .28-.135c.078-.064.116-.219.116-.464v-12.128c0-.31-.026-.496-.081-.564-.056-.064-.161-.1-.315-.1v-.595h4.606v.595c-.22 0-.332.1-.332.3 0 .09.038.205.117.348.078.142.194.347.347.612l4.043 7.457 4.078-7.425c.154-.264.275-.479.365-.644.086-.167.13-.283.13-.348 0-.2-.087-.3-.263-.3v-.595h4.672v.595a.673.673 0 0 0-.317.084c-.096.054-.147.17-.147.348v12.46c0 .178.05.305.147.383a.519.519 0 0 0 .317.116v.596h-3.844v-.596c.464 0 .664-.167.596-.499v-9.313h-.068l-5.634 10.408h-.263l-5.335-10.408h.032-.067v9.313c0 .332.189.5.563.5v.595h-3.743v-.596zM316.582 202.775c0-.42-.343-.632-1.028-.632h-8.085v3.315h5.102c.375 0 .651-.027.828-.083.178-.054.264-.203.264-.446h.6v3.512h-.664c.064-.243-.022-.392-.264-.448-.246-.054-.589-.083-1.028-.083h-4.838v3.91h8.481c.268 0 .486-.06.664-.18a.555.555 0 0 0 .264-.48h.599v3.478h-.599c0-.199-.086-.309-.264-.332a5.767 5.767 0 0 0-.664-.032h-12.16v-.596c.11 0 .219-.04.329-.116.11-.078.167-.205.167-.383v-12.392c0-.178-.057-.305-.167-.383a.585.585 0 0 0-.329-.116v-.596h11.764c.685 0 1.028-.199 1.028-.596h.596v3.68h-.596zM327.814 213.678c.4 0 .6-.167.6-.499v-12.393c0-.33-.2-.499-.6-.499v-.595h4.873v.595c-.156.022-.23.078-.23.168 0 .111.241.408.726.893l7.953 8.42v-8.982c0-.33-.22-.499-.663-.499v-.595h4.043v.595c-.396 0-.596.168-.596.5v12.392c0 .332.2.5.596.5v.595h-4.307v-.596c.154 0 .232-.057.232-.167 0-.089-.106-.243-.315-.464a43.538 43.538 0 0 1-.712-.764l-8.218-8.749v9.645c0 .332.232.5.696.5v.595h-4.078v-.596zM359.066 213.678c.11 0 .221-.04.332-.116.11-.078.164-.205.164-.383v-11.036h-4.307c-.177 0-.342.046-.499.133-.154.09-.232.234-.232.43h-.596v-3.81h.596c0 .31.078.52.232.631a.845.845 0 0 0 .5.165h11.795a.839.839 0 0 0 .5-.165c.154-.11.232-.32.232-.63h.596v3.81h-.596c0-.197-.078-.342-.233-.43a1.005 1.005 0 0 0-.499-.134h-4.306v11.036c0 .332.2.5.595.5v.595h-4.274v-.596zM240.928 123.75c7.396 0 14.097.702 19.019 1.839C259.985 52.963 288.074.278 288.074.278l-31.298 35.26-15.848-22.978-15.848 22.979L193.782.278s28.089 52.686 28.127 125.31c4.923-1.135 11.622-1.837 19.019-1.837"/>
    </g>
</svg>
