<svg viewBox="0 0 20 40" fill="none" xmlns="http://www.w3.org/2000/svg">
<g clip-path="url(#clip0)">
<path d="M18.3166 28.383C17.8704 28.383 17.5087 28.7447 17.5087 29.1909V30.0046C17.5075 32.1272 16.6798 34.1222 15.178 35.6222C13.6774 37.1211 11.6832 37.9465 9.56236 37.9465C9.5608 37.9465 9.55924 37.9465 9.55767 37.9465C5.17596 37.944 1.61322 34.3772 1.61572 29.9954C1.61693 27.8729 2.44467 25.8778 3.94646 24.3777C5.44713 22.8788 7.44131 22.0535 9.56213 22.0535C9.56369 22.0535 9.56525 22.0535 9.56682 22.0535C10.6868 22.0542 11.7735 22.2856 12.7965 22.7415C13.2042 22.9231 13.6816 22.7399 13.8633 22.3323C14.0448 21.9248 13.8617 21.4472 13.4541 21.2656C12.223 20.717 10.9155 20.4385 9.56771 20.4377C9.56568 20.4377 9.56412 20.4377 9.56209 20.4377C7.01018 20.4377 4.61025 21.431 2.80455 23.2346C0.99744 25.0396 0.00142491 27.4404 -5.946e-05 29.9946C-0.00150477 32.5487 0.991698 34.9506 2.79678 36.7577C4.60185 38.5648 7.00256 39.5608 9.55674 39.5623C9.55873 39.5623 9.56033 39.5623 9.56236 39.5623C12.1143 39.5623 14.5142 38.5691 16.3199 36.7654C18.127 34.9604 19.123 32.5597 19.1245 30.005V29.1909C19.1245 28.7447 18.7628 28.383 18.3166 28.383Z" fill="#333333"/>
<path d="M19.7632 21.5548C19.4477 21.2394 18.9362 21.2394 18.6207 21.5548L9.5621 30.6134L7.50706 28.5583C7.19159 28.2428 6.68003 28.2428 6.36456 28.5583C6.04905 28.8738 6.04905 29.3853 6.36456 29.7009L8.99089 32.3272C9.14862 32.485 9.35542 32.5638 9.56218 32.5638C9.76894 32.5638 9.97569 32.485 10.1335 32.3272L19.7632 22.6974C20.0787 22.3819 20.0787 21.8703 19.7632 21.5548Z" fill="#333333"/>
</g>
<circle cx="10" cy="10" r="8.9" stroke="#333333" stroke-width="2.2"/>
<defs>
<clipPath id="clip0">
<rect width="20" height="20" fill="white" transform="translate(0 20)"/>
</clipPath>
</defs>
</svg>
