<svg viewBox="0 0 127 69" fill="none" xmlns="http://www.w3.org/2000/svg">
<g clip-path="url(#clip0)">
<path d="M102 12L93 20.5L103.5 31.5V33.5L94 43L91.5 42.5L82.5 33.5L81.5 41.5L77.5 43.5L94.5 60.5L97 59.5L117 39.5V24L108.5 15.5L104.5 11.5L102 12Z" fill="white"/>
<path d="M86.5 15L83.5 17L82 18V32.5L92.5 43L95 42.5L103.5 33.5L104 31.5L90.5 18L86.5 15Z" fill="white"/>
<path d="M117.573 39.614L117.881 23.5812C117.885 23.3531 117.796 23.133 117.634 22.9716L105.891 11.2529C104.577 9.94139 102.439 9.94097 101.126 11.2519L92.8027 19.5576L88.0437 14.8085C87.0604 13.8273 85.4608 13.827 84.4779 14.808L75.5537 23.7138C74.5707 24.6947 74.571 26.291 75.5542 27.2722L80.3132 32.0214L74.9598 37.3637C73.6485 38.6724 73.6508 40.8041 74.965 42.1155L92.7983 59.9121C94.1124 61.2236 96.2479 61.2265 97.5586 59.9185L117.326 40.1915C117.48 40.038 117.568 39.831 117.573 39.614ZM116.176 24.721L115.923 37.8825L109.455 31.4279L116.176 24.721ZM76.7437 26.0852C76.4163 25.7585 76.4161 25.2273 76.7432 24.9009L85.6674 15.9951C85.9945 15.6686 86.5269 15.6688 86.8542 15.9955L102.914 32.0225C103.242 32.3492 103.242 32.8805 102.915 33.2069L93.9905 42.1127C93.6635 42.4391 93.1311 42.4389 92.8037 42.1122L76.7437 26.0852ZM96.369 58.7315C95.7143 59.3849 94.646 59.382 93.9876 58.725L76.1544 40.9285C75.4961 40.2716 75.4937 39.2049 76.1492 38.5508L81.5026 33.2084L91.6143 43.2992C92.5975 44.2804 94.1971 44.2807 95.1801 43.2998L104.104 34.394C105.087 33.413 105.087 31.8167 104.104 30.8355L93.9921 20.7446L102.315 12.4389C102.973 11.7824 104.044 11.7829 104.702 12.4399L115.403 23.1187L107.671 30.8343C107.343 31.1621 107.343 31.6936 107.671 32.0213L115.403 39.737L96.369 58.7315Z" fill="#ABB4BD"/>
<path d="M87.638 21.8575L80.6442 25.0823L81.5554 25.9917L83.0119 25.3236L85.0312 27.3388L84.3548 28.7853L85.2586 29.6873L88.5055 22.7222L87.6385 21.857L87.638 21.8575ZM83.7786 24.9661L86.7973 23.5691L85.3825 26.5667L83.7786 24.9661Z" fill="#109CF1"/>
<path d="M88.776 31.7366L91.9178 26.1131L90.9191 25.1165L87.4754 31.8852L88.6127 33.0202L95.4754 29.6634L94.4841 28.6742L88.776 31.7366Z" fill="#109CF1"/>
<path d="M97.8295 32.0127L96.9401 31.1252L91.8269 36.2278L92.7163 37.1154L97.8295 32.0127Z" fill="#109CF1"/>
</g>
<g clip-path="url(#clip1)">
<path d="M22 18L9.5 30.5L17 39L39 59.5L55 43.5L51.5 41.5V32.5H44.5L42 31V21.9999L38 18L30 26L22 18Z" fill="white"/>
<path d="M31 30L13.5 47V49L24 58.5L40 43L41.5 40.5L31 30Z" fill="white"/>
<path d="M37.5 17.5C37.5 16.7 27.8333 17.1667 23 17.5V19L30 25.5C32.3333 23.1667 37.5 18.3 37.5 17.5Z" fill="white"/>
<path d="M38.2378 16.6821L22.1719 16.3747C21.9433 16.3704 21.7227 16.4592 21.5611 16.6205L9.8181 28.3392C8.50391 29.6507 8.50349 31.7843 9.81713 33.0952L18.14 41.401L13.381 46.1501C12.3978 47.1314 12.3976 48.7277 13.3805 49.7086L22.3047 58.6144C23.2877 59.5954 24.8873 59.5951 25.8705 58.6139L30.6295 53.8647L35.9828 59.207C37.2942 60.5157 39.4303 60.5134 40.7445 59.2019L58.5778 41.4054C59.8919 40.0939 59.8948 37.9628 58.5842 36.6549L38.8165 16.9278C38.6627 16.7744 38.4553 16.6863 38.2378 16.6821ZM23.314 18.0757L36.5027 18.328L30.0348 24.7826L23.314 18.0757ZM24.6811 57.4269C24.3537 57.7536 23.8213 57.7538 23.4943 57.4274L14.5701 48.5216C14.243 48.1952 14.2432 47.6638 14.5705 47.3371L30.6306 31.3101C30.958 30.9834 31.4904 30.9833 31.8174 31.3097L40.7416 40.2155C41.0687 40.5419 41.0685 41.0732 40.7411 41.3999L24.6811 57.4269ZM57.3947 37.8419C58.0495 38.4953 58.0466 39.5614 57.3882 40.2184L39.555 58.0149C38.8967 58.6719 37.8278 58.6742 37.1724 58.0201L31.8189 52.6777L41.9306 42.5869C42.9138 41.6057 42.9141 40.0094 41.9311 39.0285L33.007 30.1226C32.024 29.1417 30.4244 29.1419 29.4411 30.1231L19.3295 40.214L11.0066 31.9082C10.3487 31.2517 10.3492 30.1832 11.0076 29.5262L21.7084 18.8475L29.44 26.5631C29.7684 26.8909 30.301 26.8909 30.6294 26.5631L38.361 18.8475L57.3947 37.8419Z" fill="#ABB4BD"/>
<path d="M23.0967 45.214C22.6425 45.1549 22.2307 45.2332 21.8613 45.4488C21.6197 45.5879 21.1853 45.9704 20.558 46.5964L18.9027 48.2483L24.0114 53.3465L25.0429 52.3171L23.1158 50.394L23.7884 49.7228C24.2554 49.2567 24.5876 48.8765 24.785 48.582C24.9268 48.3618 25.0244 48.1033 25.0778 47.8065C25.1312 47.5097 25.108 47.1979 25.0081 46.871C24.9083 46.5441 24.7015 46.2242 24.3878 45.9112C23.9812 45.5055 23.5508 45.2732 23.0967 45.214ZM23.6194 47.4988C23.6555 47.6901 23.6316 47.8808 23.5479 48.0709C23.4643 48.2611 23.2192 48.559 22.8127 48.9647L22.2481 49.5281L20.7985 48.0814L21.2968 47.5841C21.6685 47.2131 21.9275 46.9778 22.0739 46.8782C22.2713 46.7414 22.4851 46.6787 22.715 46.6904C22.9451 46.702 23.153 46.8005 23.3388 46.9859C23.4899 47.1366 23.5833 47.3076 23.6194 47.4988Z" fill="#EB5757"/>
<path d="M29.1707 40.7871C28.7327 40.5726 28.2942 40.4597 27.8551 40.448C27.4161 40.4364 27.0025 40.5362 26.6145 40.7471C26.3265 40.9047 25.9698 41.1957 25.5447 41.62L23.6594 43.5014L28.7681 48.5996L30.7092 46.6625C31.0902 46.2823 31.3585 45.9427 31.5141 45.6435C31.7209 45.2425 31.8266 44.8657 31.8312 44.5133C31.8382 44.0473 31.7197 43.5651 31.4758 43.0666C31.276 42.6586 30.9658 42.2447 30.5454 41.8251C30.0668 41.3476 29.6086 41.0016 29.1707 40.7871ZM30.2649 43.8822C30.424 44.1802 30.4984 44.434 30.4879 44.6438C30.4774 44.8536 30.4095 45.0628 30.284 45.2715C30.1888 45.4314 29.9971 45.6552 29.709 45.9427L28.9389 46.7112L25.5552 43.3345L26.0186 42.8719C26.4391 42.4523 26.7377 42.1868 26.9142 42.0756C27.1488 41.9249 27.3882 41.8461 27.6321 41.8391C27.8761 41.8322 28.1386 41.8994 28.4197 42.0408C28.7008 42.1822 29.0388 42.45 29.4338 42.8442C29.8287 43.2383 30.1057 43.5843 30.2649 43.8822Z" fill="#EB5757"/>
<path d="M33.1906 35.715L32.3263 34.8525L28.8241 38.3475L33.9328 43.4457L34.9643 42.4163L32.7933 40.2498L34.926 38.1215L34.0617 37.259L31.929 39.3873L30.7198 38.1806L33.1906 35.715Z" fill="#EB5757"/>
</g>
<g clip-path="url(#clip2)">
<path d="M52.0268 15.2762V1.45488H69.5214H70.9793L81.9134 12.3665V41.4641L80.4556 42.919H52.7558L52.0268 40.7366V32.0074H43.2795V16.0037H52.0268V15.2762Z" fill="white"/>
<path d="M82.6044 11.8116L71.4619 0.257275C71.3033 0.0929191 71.0845 0 70.8559 0H54.2488C52.3903 0 50.8782 1.50836 50.8782 3.36231V15.1084H44.148C42.7575 15.1084 41.6262 16.237 41.6262 17.6243V30.219C41.6262 31.6062 42.7575 32.7348 44.148 32.7348H50.8782V40.29C50.8782 42.1407 52.3903 43.6464 54.2488 43.6464H79.4689C81.3274 43.6464 82.8395 42.1415 82.8395 40.2919V12.3936C82.8395 12.1766 82.7552 11.968 82.6044 11.8116ZM71.0643 2.26595L80.2113 11.7509H71.0643V2.26595ZM44.148 31.0561C43.685 31.0561 43.3085 30.6806 43.3085 30.219V17.6243C43.3085 17.1627 43.6851 16.7871 44.148 16.7871H66.8604C67.3234 16.7871 67.6999 17.1627 67.6999 17.6243V30.219C67.6999 30.6806 67.3233 31.0561 66.8604 31.0561H44.148ZM81.1573 40.2919C81.1573 41.2159 80.3998 41.9677 79.4688 41.9677H54.2488C53.3178 41.9677 52.5603 41.2152 52.5603 40.2901V32.7348H66.8604C68.2509 32.7348 69.3821 31.6062 69.3821 30.219V17.6243C69.3821 16.237 68.2509 15.1084 66.8604 15.1084H52.5603V3.36231C52.5603 2.43388 53.3178 1.67868 54.2488 1.67868H69.3821V12.5903C69.3821 13.0539 69.7587 13.4296 70.2231 13.4296H81.1573V40.2919Z" fill="#ABB4BD"/>
<path d="M61.4304 23.8333V25.0481H63.1011V25.963C62.881 26.1334 62.6173 26.2784 62.3101 26.3982C62.0029 26.5178 61.6965 26.5777 61.3909 26.5777C60.7732 26.5777 60.2739 26.3639 59.8928 25.9359C59.5116 25.5081 59.3211 24.8661 59.3211 24.0104C59.3211 23.217 59.5092 22.6185 59.8854 22.2152C60.2616 21.8119 60.7684 21.6102 61.4058 21.6102C61.8263 21.6102 62.1771 21.7129 62.4579 21.9176C62.7388 22.1226 62.9302 22.4022 63.0322 22.7562L64.4809 22.4857C64.3365 21.8234 64.012 21.3045 63.5076 20.9291C63.0034 20.5537 62.3027 20.366 61.4058 20.366C60.7158 20.366 60.1392 20.4856 59.676 20.7251C59.0682 21.0365 58.6066 21.4841 58.2912 22.0677C57.9758 22.6513 57.8181 23.3185 57.8181 24.0693C57.8181 24.7611 57.9594 25.4013 58.2419 25.9897C58.5245 26.5783 58.9466 27.0307 59.5085 27.3472C60.0703 27.6636 60.729 27.8218 61.4847 27.8218C62.0794 27.8218 62.6666 27.7096 63.2466 27.4849C63.8265 27.2603 64.2691 27.0006 64.5749 26.7055V23.8332H61.4304V23.8333Z" fill="#51CE85"/>
<path d="M56.4531 21.3025C56.1738 20.9401 55.8272 20.7049 55.4132 20.5965C55.1438 20.5243 54.5656 20.4885 53.6785 20.4885H51.3375V27.6984H52.7963V24.9787H53.7475C54.4079 24.9787 54.9122 24.9442 55.2604 24.8754C55.5167 24.8196 55.7688 24.7056 56.0169 24.5336C56.265 24.3616 56.4695 24.1246 56.6305 23.8229C56.7915 23.5214 56.872 23.1491 56.872 22.7065C56.872 22.1329 56.7323 21.6647 56.4531 21.3025ZM55.2038 23.2869C55.0937 23.4475 54.9418 23.5656 54.7479 23.641C54.554 23.7162 54.1696 23.754 53.5947 23.754H52.7963V21.7081H53.501C54.0267 21.7081 54.3766 21.7244 54.5507 21.7572C54.7872 21.8 54.9828 21.9064 55.1371 22.0769C55.2916 22.2474 55.3688 22.4639 55.3688 22.7262C55.3689 22.9392 55.3139 23.1262 55.2038 23.2869Z" fill="#51CE85"/>
<path d="M48.3314 20.4885V25.1458C48.3314 25.7294 48.2641 26.1138 48.1294 26.2991C47.9947 26.4844 47.7647 26.5769 47.4395 26.5769C47.1175 26.5769 46.8776 26.4475 46.7199 26.1885C46.6148 26.0179 46.554 25.7262 46.5376 25.3131L45.1626 25.4704C45.1658 26.241 45.3598 26.8253 45.7442 27.2236C46.1286 27.6221 46.6772 27.8212 47.3902 27.8212C47.9979 27.8212 48.4875 27.694 48.8588 27.4401C49.23 27.186 49.4863 26.849 49.6276 26.4294C49.7327 26.1082 49.7852 25.649 49.7852 25.0525V20.4885H48.3314Z" fill="#51CE85"/>
</g>
<defs>
<clipPath id="clip0">
<rect width="43.6915" height="43.6915" fill="white" transform="matrix(0.707835 0.706377 -0.707835 0.706377 96.0732 1.455)"/>
</clipPath>
<clipPath id="clip1">
<rect width="43.6915" height="43.6915" fill="white" transform="matrix(0.707835 -0.706378 0.707835 0.706378 0 38.1371)"/>
</clipPath>
<clipPath id="clip2">
<rect width="43.7365" height="43.6464" fill="white" transform="translate(40.3638)"/>
</clipPath>
</defs>
</svg>
