<svg viewBox="0 0 16 16" fill="none" xmlns="http://www.w3.org/2000/svg">
<g clip-path="url(#clip0)">
<path d="M14.7674 6.33887C14.5473 6.33887 14.3689 6.51725 14.3689 6.73735V13.9875C14.3681 14.6475 13.8334 15.1823 13.1734 15.1829H1.99241C1.33243 15.1823 0.797744 14.6475 0.796966 13.9875V3.60341C0.797744 2.94358 1.33243 2.40874 1.99241 2.40796H8.33136C8.55146 2.40796 8.72985 2.22957 8.72985 2.00948C8.72985 1.78953 8.55146 1.61099 8.33136 1.61099H1.99241C0.892539 1.61224 0.00124526 2.50353 0 3.60341V13.9876C0.00124526 15.0875 0.892539 15.9788 1.99241 15.98H13.1734C14.2733 15.9788 15.1646 15.0875 15.1659 13.9876V6.73735C15.1659 6.51725 14.9875 6.33887 14.7674 6.33887Z" fill="#7287D5"/>
<path d="M15.0079 0.586079C14.3076 -0.114224 13.1722 -0.114224 12.4719 0.586079L5.36272 7.69526C5.314 7.74398 5.27882 7.80438 5.26046 7.87069L4.32558 11.2458C4.28713 11.3842 4.3262 11.5324 4.42769 11.634C4.52933 11.7355 4.67752 11.7746 4.8159 11.7363L8.19102 10.8013C8.25733 10.7829 8.31772 10.7477 8.36644 10.699L15.4755 3.58964C16.1747 2.88887 16.1747 1.75444 15.4755 1.05367L15.0079 0.586079ZM6.23098 7.95428L10.1618 4.11105L12.0382 5.9875L8.10727 9.83073L6.23098 7.95428ZM5.85616 8.70641L7.35529 10.2057L5.28162 10.7802L5.85616 8.70641ZM14.912 3.02616L14.4894 3.44877L12.6128 1.57217L13.0355 1.14956C13.4245 0.760571 14.0553 0.760571 14.4442 1.14956L14.912 1.61715C15.3004 2.00661 15.3004 2.63686 14.912 3.02616Z" fill="#7287D5"/>
</g>
<defs>
<clipPath id="clip0">
<rect width="16" height="16" fill="white"/>
</clipPath>
</defs>
</svg>
