<svg viewBox="0 0 40 40" fill="none" xmlns="http://www.w3.org/2000/svg">
<path d="M0 6H40V33.8835H0V6Z" fill="#D60A2E"/>
<path d="M6.66534 11.0867L8.06726 13.9274L11.2019 14.3828L8.93342 16.594L9.46919 19.7163L6.66534 18.2421L3.86111 19.7163L4.39688 16.594L2.12842 14.3828L5.26303 13.9274L6.66534 11.0867Z" fill="#FED953"/>
<path d="M14.9694 16.5387L15.5298 17.6737L16.7825 17.8556L15.876 18.7395L16.0898 19.9868L14.9694 19.3979L13.849 19.9868L14.0629 18.7395L13.1567 17.8556L14.4094 17.6737L14.9694 16.5387Z" fill="#FED953"/>
<path d="M14.3062 11.5759L15.33 12.3205L16.5235 11.8994L16.1316 13.1032L16.9012 14.1082L15.6354 14.1075L14.9169 15.1498L14.5266 13.9455L13.3135 13.5848L14.3377 12.8413L14.3062 11.5759Z" fill="#FED953"/>
<path d="M12.6642 8.15073L12.425 9.39381L13.3135 10.2957L12.0573 10.4523L11.4742 11.5757L10.9373 10.4296L9.68848 10.2219L10.6127 9.35689L10.4239 8.10535L11.5323 8.71689L12.6642 8.15073Z" fill="#FED953"/>
<path d="M12.6642 20.8863L12.425 22.1294L13.3135 23.0309L12.0573 23.1875L11.4742 24.3109L10.9373 23.1648L9.68848 22.9575L10.6127 22.0925L10.4239 20.8409L11.5323 21.4525L12.6642 20.8863Z" fill="#FED953"/>
</svg>
