<svg viewBox="0 0 40 40" fill="none" xmlns="http://www.w3.org/2000/svg">
<g clip-path="url(#clip0)">
<path d="M40 6.66663H0V33.3336H40V6.66663Z" fill="#F0F0F0"/>
<path d="M22.5 6.66638H17.5V17.4997H0V22.4997H17.5V33.3329H22.5V22.4997H40V17.4997H22.5V6.66638Z" fill="#D80027"/>
<path d="M30.7642 24.6375L39.9997 29.7684V24.6375H30.7642Z" fill="#0052B4"/>
<path d="M24.3477 24.6375L39.9998 33.3331V30.8742L28.7738 24.6375H24.3477Z" fill="#0052B4"/>
<path d="M35.8306 33.3329L24.3477 26.9529V33.3329H35.8306Z" fill="#0052B4"/>
<path d="M24.3477 24.6375L39.9998 33.3331V30.8742L28.7738 24.6375H24.3477Z" fill="#F0F0F0"/>
<path d="M24.3477 24.6375L39.9998 33.3331V30.8742L28.7738 24.6375H24.3477Z" fill="#D80027"/>
<path d="M7.05789 24.6372L0 28.5583V24.6372H7.05789Z" fill="#0052B4"/>
<path d="M15.6524 25.7432V33.3331H1.9917L15.6524 25.7432Z" fill="#0052B4"/>
<path d="M11.226 24.6375L0 30.8742V33.3331L15.6522 24.6375H11.226Z" fill="#D80027"/>
<path d="M9.23555 15.362L0 10.2311V15.362H9.23555Z" fill="#0052B4"/>
<path d="M15.6522 15.362L0 6.66638V9.12529L11.226 15.362H15.6522Z" fill="#0052B4"/>
<path d="M4.16943 6.66638L15.6524 13.0464V6.66638H4.16943Z" fill="#0052B4"/>
<path d="M15.6522 15.362L0 6.66638V9.12529L11.226 15.362H15.6522Z" fill="#F0F0F0"/>
<path d="M15.6522 15.362L0 6.66638V9.12529L11.226 15.362H15.6522Z" fill="#D80027"/>
<path d="M32.9419 15.3619L39.9998 11.4408V15.3619H32.9419Z" fill="#0052B4"/>
<path d="M24.3477 14.2563V6.66638H38.0084L24.3477 14.2563Z" fill="#0052B4"/>
<path d="M28.7738 15.362L39.9998 9.12529V6.66638L24.3477 15.362H28.7738Z" fill="#D80027"/>
</g>
<defs>
<clipPath id="clip0">
<rect width="40" height="40" fill="white"/>
</clipPath>
</defs>
</svg>
