<svg viewBox="0 0 40 40" fill="none" xmlns="http://www.w3.org/2000/svg">
<path d="M28.9166 0H11.0835C9.59774 0 8.38174 1.21486 8.38174 2.70171V37.2971C8.38174 38.784 9.59774 40 11.0835 40H28.9166C30.4023 40 31.6183 38.7863 31.6183 37.2983V2.70171C31.6183 1.21486 30.4023 0 28.9166 0ZM17.1475 2.84514H22.8526C23.0332 2.84514 23.1795 2.99143 23.1795 3.17314C23.1795 3.35371 23.0332 3.5 22.8526 3.5H17.1475C16.9669 3.5 16.8206 3.35371 16.8206 3.17314C16.8206 2.99143 16.9669 2.84514 17.1475 2.84514ZM19.9999 38.2029C19.2536 38.2029 18.6491 37.5983 18.6491 36.8509C18.6491 36.1034 19.2536 35.5 19.9999 35.5C20.7462 35.5 21.3508 36.1034 21.3508 36.8509C21.3508 37.5983 20.7462 38.2029 19.9999 38.2029ZM28.9166 34H11.0835V5.5H28.9166V34Z" fill="#7287D5"/>
</svg>
