<svg viewBox="0 0 80 80" fill="none" xmlns="http://www.w3.org/2000/svg">
<path d="M48.0832 72.8652C47.4235 73.0296 46.751 73.1756 46.0834 73.2985C44.3382 73.623 43.1845 75.3015 43.5073 77.0482C43.6667 77.9075 44.1547 78.6232 44.8173 79.0905C45.5002 79.5711 46.3694 79.7882 47.255 79.6234C48.05 79.4759 48.8512 79.3023 49.6375 79.1061C51.3608 78.6772 52.4107 76.9314 51.9807 75.2089C51.5518 73.4849 49.8076 72.4359 48.0832 72.8652Z" fill="url(#paint0_linear)"/>
<path d="M71.864 29.7587C72.0893 30.4377 72.5194 30.9919 73.0626 31.3749C73.8681 31.9422 74.9221 32.1331 75.928 31.8005C77.6143 31.2406 78.528 29.4222 77.9701 27.7367C77.716 26.9684 77.4339 26.1976 77.1335 25.4471C76.4738 23.7979 74.6031 22.995 72.9531 23.6547C71.3048 24.314 70.5015 26.1852 71.1617 27.8349C71.4141 28.4657 71.6506 29.1132 71.864 29.7587Z" fill="url(#paint1_linear)"/>
<path d="M58.5295 68.2741C57.9622 68.6487 57.3766 69.0112 56.7868 69.3508C55.2478 70.2385 54.7207 72.2057 55.6081 73.7439C55.849 74.1623 56.1699 74.5044 56.5395 74.7658C57.5316 75.4638 58.879 75.5684 60.0007 74.9221C60.702 74.5176 61.3993 74.0874 62.075 73.6406C63.5563 72.6619 63.9641 70.6665 62.9849 69.1845C62.0059 67.702 60.0114 67.2947 58.5295 68.2741Z" fill="url(#paint2_linear)"/>
<path d="M79.9686 38.7407C79.8986 36.9657 78.4035 35.5841 76.6279 35.6534C74.8546 35.7234 73.4719 37.219 73.5416 38.9934C73.5682 39.6718 73.5751 40.3603 73.5595 41.0381C73.5345 42.1512 74.079 43.1435 74.9251 43.7399C75.4291 44.0948 76.0408 44.3096 76.7041 44.3247C78.4792 44.3641 79.9502 42.9562 79.9896 41.1803C80.0073 40.3705 80.0006 39.55 79.9686 38.7407Z" fill="url(#paint3_linear)"/>
<path d="M71.3385 59.8137C69.9151 58.7458 67.9013 59.0357 66.8353 60.4565C66.427 61.0006 65.9971 61.538 65.5568 62.0555C64.4064 63.4072 64.5689 65.4374 65.9206 66.5888C65.9976 66.6541 66.0755 66.7141 66.1563 66.7705C67.5001 67.7179 69.3677 67.5002 70.4542 66.2252C70.9799 65.6078 71.4924 64.9659 71.9803 64.316C73.0465 62.8952 72.7579 60.8801 71.3385 59.8137Z" fill="url(#paint4_linear)"/>
<path d="M76.0656 48.1877C74.3708 47.6563 72.566 48.5998 72.035 50.2945C71.8317 50.942 71.6064 51.5926 71.3633 52.2297C70.8293 53.6323 71.3409 55.1755 72.5137 56.0025C72.7289 56.1537 72.9659 56.2818 73.2233 56.3792C74.8826 57.0124 76.7407 56.1798 77.3732 54.5198C77.662 53.7623 77.9299 52.9883 78.1722 52.2185C78.7027 50.5234 77.76 48.7191 76.0656 48.1877Z" fill="url(#paint5_linear)"/>
<path d="M34.0501 73.3281C31.1748 72.8118 28.4166 71.9327 25.8011 70.7066C25.7702 70.6904 25.7425 70.672 25.71 70.6572C25.0969 70.3686 24.4848 70.0596 23.8913 69.7368C23.8851 69.7334 23.8793 69.7291 23.8728 69.7263C22.7786 69.1238 21.7107 68.457 20.6732 67.7267C5.5447 57.0698 1.90721 36.0916 12.5648 20.9633C14.8823 17.6749 17.6868 14.9315 20.8133 12.7571C20.8518 12.7303 20.8904 12.7036 20.9285 12.6766C31.4109 5.45399 45.4621 4.64004 56.878 11.2964C57.8439 11.8596 58.0833 13.1284 57.447 14.0478L56.0924 16.0049C55.3939 17.0154 55.8236 17.7518 57.0465 17.6417L67.9609 16.6646C69.1853 16.5545 69.9175 15.4954 69.5882 14.3129L66.6573 3.753C66.3292 2.56916 65.4892 2.42746 64.7899 3.43778L63.3936 5.45544C62.7713 6.3546 61.5446 6.58258 60.6083 6.01773C52.3729 1.04945 42.7369 -0.770938 33.1681 0.888339C32.1387 1.0665 31.1237 1.28456 30.1227 1.53838C30.115 1.53976 30.1088 1.54062 30.1026 1.54199C30.0639 1.55145 30.0247 1.56401 29.987 1.5745C21.1736 3.83778 13.484 8.97811 7.99698 16.3122C7.95072 16.3671 7.90309 16.4208 7.85941 16.4804C7.67695 16.7262 7.49587 16.9776 7.31857 17.229C7.02863 17.641 6.74281 18.0634 6.46938 18.4858C6.43516 18.5367 6.40902 18.5884 6.3791 18.6398C1.85115 25.6564 -0.332853 33.7681 0.0416956 42.0264C0.0425555 42.0536 0.0410078 42.0809 0.0416956 42.1088C0.0779811 42.9155 0.141954 43.7334 0.228798 44.5386C0.233441 44.5905 0.244963 44.6397 0.253733 44.6916C0.343501 45.5012 0.456141 46.3128 0.597328 47.1241C2.03224 55.4024 5.93731 62.8515 11.7889 68.6478C11.8025 68.6613 11.8166 68.6761 11.8303 68.6902C11.8352 68.6956 11.8405 68.6983 11.8451 68.7033C13.4173 70.254 15.1273 71.6882 16.9686 72.985C21.7872 76.3803 27.1528 78.6247 32.9151 79.6588C34.6635 79.973 36.3337 78.8091 36.6474 77.0615C36.9609 75.3128 35.798 73.6412 34.0501 73.3281Z" fill="url(#paint6_linear)"/>
<path d="M38.0279 14.3078C36.5897 14.3078 35.4248 15.4738 35.4248 16.9099V41.6162C35.4248 42.364 35.842 43.0494 36.5064 43.3928L59.1342 55.0901C59.5158 55.2877 59.9244 55.3807 60.3265 55.3807C61.2682 55.3807 62.1777 54.8679 62.6401 53.9732C63.2996 52.6961 62.8006 51.1273 61.5235 50.4678L41.7096 40.2241C41.0453 39.8807 40.6281 39.1953 40.6281 38.4475V16.9099C40.6279 15.4738 39.4644 14.3078 38.0279 14.3078Z" fill="url(#paint7_linear)"/>
<defs>
<linearGradient id="paint0_linear" x1="48.6275" y1="79.678" x2="48.6275" y2="72.7691" gradientUnits="userSpaceOnUse">
<stop offset="0.464088" stop-color="#7F7FD5"/>
<stop offset="1" stop-color="#109CF1"/>
</linearGradient>
<linearGradient id="paint1_linear" x1="75.2526" y1="31.9641" x2="75.2526" y2="23.4239" gradientUnits="userSpaceOnUse">
<stop offset="0.464088" stop-color="#7F7FD5"/>
<stop offset="1" stop-color="#109CF1"/>
</linearGradient>
<linearGradient id="paint2_linear" x1="60.1817" y1="75.3528" x2="60.1817" y2="67.7407" gradientUnits="userSpaceOnUse">
<stop offset="0.464088" stop-color="#7F7FD5"/>
<stop offset="1" stop-color="#109CF1"/>
</linearGradient>
<linearGradient id="paint3_linear" x1="77.4151" y1="44.3255" x2="77.4151" y2="35.6509" gradientUnits="userSpaceOnUse">
<stop offset="0.464088" stop-color="#7F7FD5"/>
<stop offset="1" stop-color="#109CF1"/>
</linearGradient>
<linearGradient id="paint4_linear" x1="69.4904" y1="67.3558" x2="69.4904" y2="59.1692" gradientUnits="userSpaceOnUse">
<stop offset="0.464088" stop-color="#7F7FD5"/>
<stop offset="1" stop-color="#109CF1"/>
</linearGradient>
<linearGradient id="paint5_linear" x1="75.4528" y1="56.5913" x2="75.4528" y2="48.0396" gradientUnits="userSpaceOnUse">
<stop offset="0.464088" stop-color="#7F7FD5"/>
<stop offset="1" stop-color="#109CF1"/>
</linearGradient>
<linearGradient id="paint6_linear" x1="41.8005" y1="79.71" x2="41.8005" y2="0.290339" gradientUnits="userSpaceOnUse">
<stop offset="0.464088" stop-color="#7F7FD5"/>
<stop offset="1" stop-color="#109CF1"/>
</linearGradient>
<linearGradient id="paint7_linear" x1="51.9286" y1="55.3807" x2="51.9286" y2="14.3078" gradientUnits="userSpaceOnUse">
<stop offset="0.464088" stop-color="#7F7FD5"/>
<stop offset="1" stop-color="#109CF1"/>
</linearGradient>
</defs>
</svg>
