<svg viewBox="0 0 42 31" fill="none" xmlns="http://www.w3.org/2000/svg">
<path d="M34.9833 11.6777C34.632 5.74343 29.686 1 23.7227 1C20.1027 1 16.5973 2.75587 14.4253 5.62079C14.376 5.59507 14.3233 5.57793 14.2733 5.55353C14.1413 5.49023 14.0073 5.42957 13.87 5.37616C13.7933 5.34649 13.7167 5.31946 13.6393 5.29243C13.5047 5.24561 13.3687 5.20473 13.2293 5.16715C13.152 5.14671 13.0753 5.12561 12.9967 5.10781C12.8473 5.07418 12.6953 5.04846 12.5413 5.02605C12.4733 5.01615 12.4067 5.00297 12.338 4.99506C12.118 4.97132 11.894 4.95615 11.6667 4.95615C8.35867 4.95615 5.66667 7.61798 5.66667 10.8904C5.66667 10.9754 5.67133 11.0585 5.67733 11.1416C2.90467 12.6364 1 15.769 1 18.9042C1 23.5745 4.84133 27.3744 9.56333 27.3744H13C13.368 27.3744 13.6667 27.0796 13.6667 26.715C13.6667 26.3504 13.368 26.0556 13 26.0556H9.56333C5.57667 26.0556 2.33333 22.8479 2.33333 18.9042C2.33333 16.1653 4.13667 13.3221 6.62133 12.1438L7 11.9651V11.5497C7 11.4686 7.00533 11.3856 7.01 11.3025L7.016 11.1871L7.008 11.0631C7.00467 11.0058 7 10.9484 7 10.8904C7 8.34592 9.09333 6.27487 11.6667 6.27487C11.8727 6.27487 12.076 6.29267 12.278 6.31905C12.33 6.32564 12.3813 6.33421 12.4327 6.34278C12.6113 6.3718 12.7873 6.41004 12.9607 6.45949C12.9833 6.46608 13.0067 6.47004 13.0287 6.47663C13.2193 6.534 13.4053 6.60719 13.5873 6.68895C13.6333 6.70939 13.6787 6.73181 13.724 6.75422C13.8853 6.83269 14.0433 6.91972 14.1953 7.01731C15.48 7.84085 16.3333 9.2677 16.3333 10.8904C16.3333 11.255 16.632 11.5497 17 11.5497C17.368 11.5497 17.6667 11.255 17.6667 10.8904C17.6667 9.07451 16.836 7.44919 15.5333 6.35993C17.444 3.88733 20.592 2.31872 23.7227 2.31872C28.8853 2.31872 33.1747 6.36388 33.6213 11.4752C32.94 11.4278 31.9193 11.4034 30.8993 11.5577C30.5353 11.6124 30.2853 11.9487 30.3407 12.3087C30.3907 12.635 30.6747 12.8691 30.9987 12.8691C31.032 12.8691 31.066 12.8665 31.1 12.8612C32.5827 12.6397 34.1287 12.8474 34.2227 12.8599C37.3267 13.4434 39.6667 16.2714 39.6667 19.4436C39.6667 23.0892 36.6673 26.0556 32.9813 26.0556H30.3333C29.9653 26.0556 29.6667 26.3504 29.6667 26.715C29.6667 27.0796 29.9653 27.3744 30.3333 27.3744H32.9813C37.4027 27.3744 41 23.8165 41 19.4436C41 15.8244 38.4487 12.5783 34.9833 11.6777Z" fill="#ABB4BD" stroke="#ABB4BD" stroke-width="0.6"/>
<path d="M21.927 14.9219L21.9282 14.923L27.2609 20.1973C27.4028 20.3377 27.4028 20.5626 27.2609 20.703C27.1895 20.7736 27.0957 20.8095 27.0005 20.8095C26.9053 20.8095 26.8115 20.7736 26.7401 20.703L22.5448 16.5537L22.0338 16.0483V16.767V30.3405C22.0338 30.5362 21.8728 30.6999 21.6672 30.6999C21.4615 30.6999 21.3005 30.5362 21.3005 30.3405V16.767V16.0483L20.7895 16.5537L16.5942 20.703L16.8052 20.9163L16.5942 20.703C16.5228 20.7736 16.429 20.8095 16.3338 20.8095C16.2386 20.8095 16.1448 20.7736 16.0735 20.703L15.8625 20.9163L16.0735 20.703C15.9315 20.5626 15.9315 20.3377 16.0735 20.1973L21.4061 14.923L21.1956 14.7102L21.4061 14.923C21.4394 14.8901 21.4795 14.8635 21.5262 14.8443C21.616 14.8075 21.7183 14.8075 21.8082 14.8443L21.9218 14.5667L21.808 14.8442C21.8557 14.8638 21.8956 14.8905 21.927 14.9219L21.927 14.9219Z" fill="#7287D5" stroke="#7287D5" stroke-width="0.6"/>
</svg>
