<svg xmlns="http://www.w3.org/2000/svg" xmlns:xlink="http://www.w3.org/1999/xlink" viewBox="0 0 160 160"><defs><style>.cls-1{fill:none;}.cls-2{clip-path:url(#clip-path);}.cls-3{fill:#f2f2f2;}.cls-4{fill:#231f20;}</style><clipPath id="clip-path"><rect class="cls-1" width="160" height="160"/></clipPath></defs><title>силуэт женщины</title><g id="Слой_2" data-name="Слой 2"><g class="cls-2"><path d="M105,63.1c.6-2.2,1.5-12.4,1.8-17s-2.6-16.9-4.6-20.7S93,13,84.4,15.9s-8.1,2.7-9.4,3.4S69.7,20,68.3,30a119.1,119.1,0,0,1-1.6,12.5c-.9,3.6-.7,14.5,0,19l.2,1.4c.5,3.6.8,5.3,3.8,8.1,0,0,.6.4.6,1.9s-.9,9.3-.7,11.9-.5,10.8.2,17c1.3,12-1.7,10.9-1.7,13.3s-1.6,8.1,3.2,15,8.8,10.5,9.7,11.8.4,5.8,6.9-4.8,10.2-12.5,11.1-19.7-.1-11.1.9-17.9.2-7.2.7-10.7-.2-5.4-.2-7.7.2-5.9.4-8.8a9.9,9.9,0,0,1,.4-2.5A39.6,39.6,0,0,0,105,63.1Z"/><path class="cls-3" d="M105,159.2c.4-9.6,3.4-35.1,2.7-42.9s-1.4-27.1-2.5-31.4-3.3-5.7-3.3-4.1a37.1,37.1,0,0,1-2.6,9.8c-1.4,3.4,9.5,7.5,1.4,11-3.3,1.5-6,6.9-6.1,7.7s-1.3,1.8-4.7,6.1S81,131.1,81,131.1a89.9,89.9,0,0,1-4.9-9.7,12.2,12.2,0,0,0-3.1-4.7c-3.8-12.8-4.5-13.5-5.2-17.3s4.2-8.3,3.4-12.1a21.3,21.3,0,0,1-.5-5.9c-1.2-.4-3.3,5.1-4.4,7.8s-2.5,24.1-2.7,29.9,1,46,1.5,54-2.3,35.7-4.9,46.2-2.8,20.5-2.7,21,11.2,1.9,13.7,2.8,22.4-.5,24-.9,2.1-7.6,2.3-8,.5-1.2.4-6S98.5,208,100,196,104.6,168.8,105,159.2Z"/><path d="M70.1,83.2c.4-.5,1.6-2.6.8-3s-1.3.5-2.9,3.6-2.5,3.4-4.3,4-3.4,1.3-4,2-26.2,4.8-28.5,5.9c0,0-1-.5-2,.9s-6.2,15.7-8.1,25.9S9.3,166.2,8.5,170.9c-.4,2.7-1.7,3.4-1.6,4.9s-.2,1.5-.4,2.7-.4,2.4,0,2.7-.1,1.3.3,2.3-.2,1.2.7,1.7.5,2.5,2.5,5.2S27.3,208.7,29.9,212c0,0,.9,2.4,5.6,4.4,0,0-4.4,6.1-4.7,16.3,0,0,.1-.1.8,0s-.4,5.5-.2,7.1,3,1.7,5.5,5.5,4.7,12.2,9.2,12.7,8.2-.9,10.3-9.1,3.1-19.2,4.7-24.8,3.3-11.7,4-14.7,3.6-16.3,3.5-22.1-.1-26-.2-30.2,1-41.2,1-46.6-.2-19.5-.1-22.7S69.7,83.7,70.1,83.2ZM41.2,186.3c-2-1.1-3.3-2.6-5.1-4s-.9-.4-.8-.8a1.2,1.2,0,0,1,.6-1,3.4,3.4,0,0,0,1.2-2.3,5.3,5.3,0,0,0-.4-2.6,8.3,8.3,0,0,1-.5-1.3c-.2-1.2.3-2.4.1-3.5s-.3-1-.4-1.5.8-2.3,1.4-3.3.8-4.2,1.1-5.2a19.9,19.9,0,0,0,.9,4.2c.2.6.5,1.3.7,2a16.1,16.1,0,0,1,.2,5.5,89.6,89.6,0,0,0,.1,9.8,8.5,8.5,0,0,0,.1,1.4A11,11,0,0,1,41.2,186.3Z"/><path class="cls-4" d="M53.4,101c.5,1.1,5.2,5.3,5.2,5.3s-5.4,3.4-5.8,5.6,2.9,20.6,3.7,24.1,2.1,21.3,2.4,21.3-.2-7-1.8-21c-.4-3.6-3.9-21.4-3.6-24.1s5.3-5.3,5.6-5.7,1.1,0-1-1.7a26.3,26.3,0,0,1-4-4c-.7-2.6,5.5-11.1,5.5-11.1S52.9,99.9,53.4,101Z"/><path d="M153.4,186.3c.3-.4.5-.6,0-1.8s-1.3-1.7-1-2.7.5-4-.6-8.6-6.2-38.2-7.3-51.7-3.5-18.4-3.8-19-1.4-.6-1.8-.9a22.3,22.3,0,0,0-6.9-3.2C128.2,97.2,104.1,85,104.1,85c-1.9-1-1.3,1.4-1.3,4.7s-1,18.6-1.5,23S99.8,146.9,100,153s-.9,21.6-2,26.6-3.6,8.4-4.6,11.6-1.1,15.7-.9,19.7,1.6,16,1.8,22.5,1.7,8.6,2,16.8,7.3,9.5,12.1,8.7,8.7-8.1,10.9-11.3,10.4-7.5,11.7-8.2.8-1,.7-2.4-1.6-6.4-1.5-6.3a6.2,6.2,0,0,0,1.1-.7s.3-.1-.7-4.3-1.9-6.4-1.8-7.4,1.7-1.7,7.2-7,15.3-19.3,16.1-20.3.1-.6,1.3-1.4S153.1,186.7,153.4,186.3Zm-26.1-7.4a1.1,1.1,0,0,1-.2.5c-1.2,1.7-3.2,3.1-3.6,5.2s-.1,2-.8,2.6a3.7,3.7,0,0,1-1.2.6,6,6,0,0,0-3.1,2.7l1-3.8a11.6,11.6,0,0,0,.4-2.2c.1-2-.8-3.8-1.2-5.8a1,1,0,0,1,0-.6c.1-.2.2-.3.2-.4a.9.9,0,0,0-.1-.5c-.4-1,.3-2,1-2.8a4.7,4.7,0,0,0,1.7-2.6c.1-.6-.2-1.2-.2-1.9s.9-2.2.8-3.3-.3-1-.4-1.5a4.4,4.4,0,0,1,.3-1.9l1.2-3.5c.1-.2.2-.5.4-.5s0,1.8,0,2.7a3.9,3.9,0,0,0,.3,1.7,4.8,4.8,0,0,0,.8,1.1,11.7,11.7,0,0,1,2,3.1,2.7,2.7,0,0,1,.3,1.1,3.8,3.8,0,0,1-.3,1.2,15.5,15.5,0,0,0-.6,4c-.1,1.3-.1,2.8.7,3.9S127.4,178.5,127.3,178.9Z"/><path class="cls-4" d="M114.7,140.2a219.8,219.8,0,0,1-3.2,22.2c-.8,3.6-5.7,17.6-5.4,17.7s3.1-9,4.2-11.8,2.4-10.5,2.8-12.7,1.5-11.5,2-16.2a60.3,60.3,0,0,0,0-10C115.2,132,115.1,134.3,114.7,140.2Z"/><path class="cls-4" d="M132.9,127.1a84.4,84.4,0,0,1,2.6-9.9,30.5,30.5,0,0,0-2,4.4A24,24,0,0,0,132.9,127.1Z"/><path d="M104.1,113.8a9.3,9.3,0,0,0-.3-1.1Z"/><path d="M107.9,47.9c1.4-4.4,2.2-9.1.9-13.6s-2.4-5.8-3.5-8.7-2.5-7.1-5.3-9.4-5.3-2.5-8.2-3a15.9,15.9,0,0,0-4.4-.3A5.9,5.9,0,0,0,83,16.3c.4-.4,4.1-.9,4.8-.7,4.6.7,8.3,4.1,10.2,8.4,1.1,2.4,1.8,5,3.1,7.3s2.6,3.6,3.7,5.6c1.9,3.5.3,6.6.6,10.4.2,2.1,1,4.2.7,6.3C107.8,51.6,107.3,49.8,107.9,47.9Z"/><path d="M69,35.6A16.1,16.1,0,0,0,70.3,30a22.4,22.4,0,0,1,1-5.7,7.6,7.6,0,0,1,3.2-3.9,19.1,19.1,0,0,1,5.2-1.9,5.4,5.4,0,0,0,3.3-2.3c-.3.6-2.8.5-3.5.6s-2.6,1.1-3.8,1.4-4.8.8-6.1,3.1-1.3,4.6-1.6,7c-.7,5.2-4.1,7.1-1.4,14.3a7.3,7.3,0,0,1,.6-4.2C67.9,37.5,68.6,36.6,69,35.6Z"/><path d="M139.6,98.5c-1-2.4-3.1-4.3-3-7s2.8-6.8,2.4-10.3-6.2-7.1-8.1-11.4-.3-8.1-1.7-11.9-3.2-4.7-4.4-7.3-1.5-7.7-2.3-11.5c-1.1-5.6-4.2-10.5-7.2-15.3s-3.6-7.4-7.8-10.6c-2.8-1.6-5-4.7-6.6-5.6-3.2-1.8-7-1.6-10.7-1.3l-8.6.6c-2.5.2-5.1.4-7.3,1.6s-1.9,1.4-2.9,2-1.5,2.3-3.4,3.4A7.5,7.5,0,0,0,64.5,18c-.8,1.9-.6,4-.7,6.1s-.4,10.6-.5,13.1,3.8,11.1,4.5,11.8-2.2-7.7-.2-4.6c.1.1,0,1.1.8-2.4s0-8,1.3-12.9c.8-3.2.4-7.9,3.5-9s5.4-.9,9.1-1.4c1.7-.3,3.3-1.2,5-1.7a11.5,11.5,0,0,1,12.9,5.2c2.5,4.4,1.7,10,3.5,14.8.8,2.2,2.2,4.3,2.5,6.7s-.4,4-.6,6c-.4,4,.3,8.6-1.1,12.3s-2.8,4.3-3.7,7.1-.6,3.6-1.4,5.2-3.3,3.1-4.4,5-1.2,7.8,1,11.2,5.5,5,3.8,8.6c-.7,1.4-3.5,2.9-2.8,7,.4,2.3,1.9,4.3,2.4,6.6s-1.8,4.7-1.7,7.4a4.5,4.5,0,0,0,1.5,3.4c.9.7,2.1.9,3,1.6a4.3,4.3,0,0,1,1.9,3c.1,1-.1,2.1,0,3.2a5.3,5.3,0,0,0,2.9,4.3,18.6,18.6,0,0,1,3.1,1.4,3.4,3.4,0,0,1,1.3,3.3,4.7,4.7,0,0,0,0-5.3,20,20,0,0,1-2.1-2.6c-1.1-2.3.8-5.3-.5-7.5a17.4,17.4,0,0,0-1.7-1.8,4.4,4.4,0,0,1-.5-4.9,7.3,7.3,0,0,0,.5,2.7c1,2.1,3.8,3.1,5.3,4.9a7.4,7.4,0,0,1,1.6,3.8,24.9,24.9,0,0,1-.2,4.3,6.7,6.7,0,0,0,.8,4.1c1,1.6,3,2.2,4.5,3.4a8.1,8.1,0,0,1,2.8,8.3,16.2,16.2,0,0,0,4.5-6.1,11.9,11.9,0,0,0,.5-7.5c-.4-1.4-1-2.8-.8-4.2s3-3.9,2.9-6.3-.5-1.7-.6-2.7.7-2.3,1-3.4a5.7,5.7,0,0,0,.2-1.3c.9,1.4,1.7,2.7,1.4,4.2s-.9,2.1-1.1,3.2a4.1,4.1,0,0,0,1.5,3.4,12,12,0,0,0,3.3,1.9,5.2,5.2,0,0,1-1.2-5.6c.5-1.1,1.3-2,1.8-3.1,1.1-2.7-.2-5.8.6-8.5s2.4-4.1,3.3-6.2a14.5,14.5,0,0,0,1.2-5.3A8.2,8.2,0,0,0,139.6,98.5Z"/></g></g></svg>