<svg id="Слой_1" data-name="Слой 1" xmlns="http://www.w3.org/2000/svg" xmlns:xlink="http://www.w3.org/1999/xlink" viewBox="0 0 160 160"><defs><style>.cls-1{fill:none;}.cls-2{clip-path:url(#clip-path);}.cls-3{fill:#c1c1c1;}.cls-4{fill:#c4c4c4;}.cls-5{fill:#231f20;}</style><clipPath id="clip-path"><rect class="cls-1" width="160" height="160"/></clipPath></defs><title>мужчина силуэт</title><g class="cls-2"><path d="M97.4,74c-2.1-1.3-4-1.7-4.5-3.2s.9-9.7.9-9.7c2-3.2,2.5-10.7,2.5-10.7,1.9.7,3.6-3.1,4.8-5.7s2.5-3.3,1.5-6.1-4.3-.9-4.3-.9-1.4-1.9-1.5-6.4.2-5-1.6-11.3-13.9-4.2-19.1-2.3-10.8-2.5-13.6-1.6S59,20.9,59.1,28,59,37.1,59,38h0c0-.1-2.5-1.6-3.7.3-3.2,6.1,6,15.1,6,15.1.1,5.6,3.2,7.2,3.2,8.7s-.1,9.2-.2,9.4-.7-.3-1.1,1.4S57.9,83.1,77.3,92.6C80.3,94.1,99.4,75.3,97.4,74Z"/><path d="M97.8,18.2C96.7,10.6,84.3,5,77.6,5S64.3,6.7,61,10.1s-4.8,6.2-5.2,13.1S58.6,37,59,38a70.5,70.5,0,0,0,.8-10.1c-.1-7.1.3-9.8,3.1-10.7s8.1,3.5,13.3,1.7,16.6-3.9,18.3,2.4,1.6,6.3,1.5,10.8,2,6.8,2.1,5.8C98.9,34.2,98.8,24,97.8,18.2Z"/><path class="cls-3" d="M63.2,73a5,5,0,0,0,1.3,4c1.7,1.8,12.7,8.8,13.7,9.7s.9.1,1.9-.7,12.5-11.3,13-12.5a1.9,1.9,0,0,0-.3-2.5c-.7-.8.6-.1,1.3.2s3.4,1.8,3.7,3.2-.4,34.6-3.4,47.8-12.1,37.1-13.8,40.5c0,0-12-28.7-15.3-37.9S58.4,90.6,58,86.4s-1.7-7.5.6-9.7l1.6-1.5.2-.2C61.8,73.4,62.9,72.4,63.2,73Z"/><path d="M75.8,89.5c.3,0,4.7-1.1,6-.6s2.2,2.9,3.1,3.9-2.3,2.9-3.2,4.7.6,3.3.6,5.7,3.8,30.4,4.1,39.1c0,0,.1,6.6,0,7.4s-6.6,14.2-6.6,14.2-8.8-23.2-9.1-25.6,2.3-32.4,3.8-36.2,1.3-3.6.2-4.8-2.7-2.5-1.8-3.8l2.8-3.9Z"/><path d="M155.3,179.6c0-4-7.9-63.4-8.9-69.1s-2.9-27.4-8-26.6c0,0-32.8-6.5-36.4-8.1s-4.1-3.4-5.2-2.7.7.4,0,5.3-.1,28.7-4.7,48.8c-2.8,12.1-10.9,31.6-11.2,32.7S66.8,123.8,65,116.7,59.6,87.6,59.4,82s2-6.6,2.2-7.1-.6-1.3-2.1.2-2.9,1.8-7.6,3.8S26.7,88,24.1,88.9s-2.6-1.4-3.6,3.8S9.3,168,7.5,184.5h0c.4,1.8,8.3,55.2,9.1,55.9s7.8-8,16.4-6.4a7.9,7.9,0,0,0,1.6,3.9c2.7,3.2,32.9,12.7,38.1,7.4s7.4-24.9,8.1-33.6c1.8,9.1,4.3,18.6,8.5,27,2.5,4.9,6,8.5,11.8,8.8,3.9.2,8.2-.8,12-1.6a65.8,65.8,0,0,0,11.7-3.9c3.8-1.7,6.2-2.6,7.1-6.9a18.4,18.4,0,0,0,.2-2.2c.3-.1,3.7-.5,5.7.9s7.1,5.9,8.8,7.4.6-1.1.9-1.9C148.6,236.2,155.4,181.7,155.3,179.6ZM39.5,176.7a31.5,31.5,0,0,1-.7,5.1c-.4,2.1.1,4.2-.5,6.3l-2.1,7.2c-.2.6-.5,1.3-1.1,1.4a35.8,35.8,0,0,1,.4-15.3,16.9,16.9,0,0,0,.9-5.9,29.8,29.8,0,0,0-.9-3.7c-.8-3.6-.2-7.3.5-10.9l1.4-7.4a30.1,30.1,0,0,1,1.3,6.6c.5,3.8,0,7.6.4,11.4A34.1,34.1,0,0,1,39.5,176.7ZM132,189.9a16.6,16.6,0,0,1-.7,2.3,96.9,96.9,0,0,0-1.7,12.6c0,.4-.3.9-.6.7a.5.5,0,0,1-.1-.3c-1.2-6.7-.2-20.5-2.2-27a14.5,14.5,0,0,1-.6-2.4,13.4,13.4,0,0,1,0-2.9c.6-6.9-1.1-16.4.1-23.2.1-.5.3-1.1.8-1.1s1.4,3.5,1.5,3.7c.7,2.9,1,3.8.9,5.4l-.6,10.1c-.1,2-.2,4.2,1.1,5.8s1.2,1.2,1.1,2-.7,1.3-.6,2a3.2,3.2,0,0,0,.6,1.3,7.8,7.8,0,0,1,.7,3.2l.4,5.1A11.5,11.5,0,0,1,132,189.9Z"/><path class="cls-4" d="M80.1,87.3a7.8,7.8,0,0,1,4,3.2c1.8,2.9,5,5.4,5.4,4.9a61.6,61.6,0,0,0,5.1-8.8,42.1,42.1,0,0,0,2.1-7.2c.1-1-.9,6.1-1.8,8.1s-4.4,8-5.4,8.6-4.6-3.3-5.6-4.6S81.1,87.6,80.1,87.3Z"/><path class="cls-4" d="M78.1,87.7s-.5-.6-2.4,2-4.3,5.9-4.7,7-10.5-6.5-11.1-8.9,2.1,1.7,3.3,2.6,6.6,6.7,7.2,5.6S76.3,86.4,78.1,87.7Z"/><path class="cls-5" d="M49.3,80.8c.1,1.3-1.2,3.1-.8,3.4s2.8.6,3.5,1.1-2.7,4.9-3.7,6.8,4.8,20.7,9.9,29.9S76,154.4,77.6,158.8s-20-37.2-22.4-41.6-8-23.7-7-25.1,3-4.5,3.2-5.7-4.7-1.1-3.3-2.6S49.2,79.1,49.3,80.8Z"/><path class="cls-5" d="M104.8,77.6c-.4,0,5.2,3.8,5.5,5s-5.9,3-4.7,3.8l4.7,3.4c1,.8,2.3,1.2-2.8,15.3s-8.1,22.7-11.8,31.2-13.5,24.3-12.2,23.2,13-23.6,15.4-29.3,7.6-19.8,8.7-22.6,5.1-15.3,4.5-17.1-6.8-4.3-5.7-4.5,4.5-2.6,4.9-3.5S106,77.6,104.8,77.6Z"/></g></svg>