<svg width="30" height="30" viewBox="0 0 30 30" fill="none" xmlns="http://www.w3.org/2000/svg">
<g clip-path="url(#clip0)">
<path d="M15.001 30.0004C23.2849 30.0004 30.0004 23.2849 30.0004 15.001C30.0004 6.71714 23.2849 0.00170898 15.001 0.00170898C6.71714 0.00170898 0.00170898 6.71714 0.00170898 15.001C0.00170898 23.2849 6.71714 30.0004 15.001 30.0004Z" fill="white"/>
<path d="M0.00012207 15.0002C0.00012207 20.6383 3.11247 25.5473 7.71094 28.1096V1.89014C3.11247 4.45275 0.00012207 9.36149 0.00012207 15.0002Z" fill="#D32027"/>
<path d="M14.9993 29.9997C14.8267 29.9997 14.6606 29.9938 14.4913 29.991C14.6596 29.9966 14.8289 29.9997 14.9993 29.9997Z" fill="white"/>
<path d="M14.9997 0C14.9949 0 14.991 0.000253335 14.9862 0.000253335C14.9908 0.000253335 14.9951 0 14.9997 0C23.2842 0 23.2842 30 14.9997 30C17.641 30 20.1209 29.3148 22.2766 28.1164V1.88336C20.1209 0.684955 17.6409 0 14.9997 0Z" fill="#E7E7E7"/>
<path d="M22.2762 1.88306V28.1158C26.8816 25.5553 29.9994 20.6425 29.9994 14.9998C29.9994 9.35638 26.8817 4.44358 22.2762 1.88306Z" fill="#B52025"/>
<path d="M14.9997 0C14.995 0 14.991 0 14.9862 0C12.3455 0.00234335 9.8655 0.689705 7.71069 1.89001V28.1093C9.73022 29.2345 12.0359 29.9091 14.4917 29.9908C14.6611 29.9936 14.8271 29.9995 14.9997 29.9995C23.2841 29.9997 23.2841 0 14.9997 0Z" fill="#F3F1F2"/>
<path d="M20.8205 14.7289C20.6142 14.5318 20.191 14.5536 20.1154 14.2261C20.0155 13.4215 20.3857 12.9531 20.6192 12.4154C19.4374 12.6918 18.5056 13.1468 18.5066 11.812C17.828 12.6416 17.0985 13.4713 16.7972 13.3206C16.3693 13.0691 17.2079 10.9338 17.2996 9.80068C16.8856 9.98967 16.0926 10.4041 16.0926 10.4041C16.0926 10.4041 15.3719 8.99445 14.9904 8.2991V8.2915C14.989 8.2929 14.989 8.2941 14.9885 8.2953C14.9875 8.29435 14.9875 8.29296 14.9866 8.2915V8.2991C14.6046 8.99445 13.8843 10.4041 13.8843 10.4041C13.8843 10.4041 13.0909 9.98967 12.6774 9.80068C12.7686 10.934 13.6072 13.0693 13.1792 13.3206C12.8778 13.4715 12.1485 12.6416 11.4704 11.812C11.4704 13.1468 10.5392 12.6919 9.35779 12.4154C9.59086 12.9528 9.96104 13.4213 9.86015 14.2261C9.7858 14.5536 9.36228 14.5318 9.15601 14.7289C10.5271 16.0995 12.9033 17.1174 11.7714 18.249L14.8231 17.9643C14.9231 18.9955 14.6002 20.261 14.8804 20.9651C14.946 20.9651 14.9245 20.9651 14.9863 20.9651C14.9873 20.9651 14.9887 20.9651 14.9901 20.9651C15.0517 20.9651 15.029 20.9651 15.0941 20.9651C15.38 20.2356 15.0534 18.9957 15.1533 17.9643L18.2046 18.249C17.0737 17.1174 19.45 16.0995 20.8205 14.7289Z" fill="#D32027"/>
</g>
<defs>
<clipPath id="clip0">
<rect width="30" height="30" fill="white"/>
</clipPath>
</defs>
</svg>
