<svg width="30" height="30" viewBox="0 0 30 30" fill="none" xmlns="http://www.w3.org/2000/svg">
<g clip-path="url(#clip0)">
<path d="M15.001 30.0004C23.2849 30.0004 30.0004 23.2849 30.0004 15.001C30.0004 6.71714 23.2849 0.00170898 15.001 0.00170898C6.71714 0.00170898 0.00170898 6.71714 0.00170898 15.001C0.00170898 23.2849 6.71714 30.0004 15.001 30.0004Z" fill="#D62427"/>
<path d="M0.000976562 15.0001C0.000976562 6.71515 6.71664 0 15.0006 0C23.2851 0 23.2851 30 15.0006 30C6.71682 29.9997 0.000976562 23.2841 0.000976562 15.0001Z" fill="#DC3027"/>
<path d="M8.65244 4.12988L9.35234 6.28513H11.6186L9.78529 7.61641L10.4856 9.77165L8.65244 8.43993L6.81937 9.77165L7.51965 7.61641L5.68652 6.28513H7.95216L8.65244 4.12988Z" fill="#F8D12E"/>
<path d="M13.9386 2.9043L13.7179 3.66031L14.3683 4.1039L13.5815 4.12689L13.3612 4.88335L13.0953 4.14178L12.308 4.16572L12.9311 3.68375L12.6652 2.94268L13.316 3.38627L13.9386 2.9043Z" fill="#F8D12E"/>
<path d="M13.9386 9.67456L13.7179 10.4303L14.3683 10.8739L13.5815 10.8972L13.3612 11.6534L13.0953 10.9118L12.308 10.936L12.9311 10.454L12.6652 9.71294L13.316 10.1561L13.9386 9.67456Z" fill="#F8D12E"/>
<path d="M15.858 4.96777L15.6373 5.72379L16.2879 6.16738L15.5009 6.19081L15.2803 6.94683L15.0145 6.20525L14.2274 6.22919L14.8501 5.74722L14.5845 5.00615L15.2354 5.44974L15.858 4.96777Z" fill="#F8D12E"/>
<path d="M15.858 7.72803L15.6373 8.48404L16.2879 8.92764L15.5009 8.95082L15.2803 9.70709L15.0145 8.96576L14.2274 8.9897L14.8501 8.50773L14.5845 7.7666L15.2354 8.20975L15.858 7.72803Z" fill="#F8D12E"/>
</g>
<defs>
<clipPath id="clip0">
<rect width="30" height="30" fill="white"/>
</clipPath>
</defs>
</svg>
