<svg width="30" height="30" viewBox="0 0 30 30" fill="none" xmlns="http://www.w3.org/2000/svg">
<g clip-path="url(#clip0)">
<path d="M14.9999 0V30C23.2845 30 30.0001 23.2843 30.0001 15.0002C30.0001 6.71546 23.2844 0 14.9999 0Z" fill="#214391"/>
<path d="M14.9998 0C6.71572 0 0 6.71546 0 15.0002C0 23.2843 6.71572 30 14.9998 30C23.2843 30 23.2843 0 14.9998 0Z" fill="#2B479D"/>
<path d="M14.9741 2.60132L15.34 3.72727H16.5242L15.5662 4.42313L15.9321 5.54908L14.9741 4.85279L14.0163 5.54908L14.3823 4.42313L13.424 3.72727H14.6082L14.9741 2.60132Z" fill="#F8D12E"/>
<path d="M14.9741 23.8567L15.34 24.9832H16.5242L15.5662 25.679L15.9321 26.8049L14.9741 26.1091L14.0163 26.8049L14.3823 25.679L13.424 24.9832H14.6082L14.9741 23.8567Z" fill="#F8D12E"/>
<path d="M20.8075 4.48511L21.1732 5.61132H22.3574L21.3993 6.30762L21.7653 7.43357L20.8075 6.73727L19.8495 7.43357L20.2154 6.30762L19.2576 5.61132H20.4418L20.8075 4.48511Z" fill="#F8D12E"/>
<path d="M24.7878 8.41211L25.1535 9.53807H26.3378L25.3797 10.2342L25.7456 11.3601L24.7878 10.6643L23.8298 11.3601L24.1957 10.2342L23.2377 9.53807H24.4216L24.7878 8.41211Z" fill="#F8D12E"/>
<path d="M24.8824 18.333L25.2481 19.4594H26.4323L25.4743 20.1553L25.8404 21.281L24.8824 20.5854L23.9244 21.281L24.2903 20.1553L23.3323 19.4594H24.5165L24.8824 18.333Z" fill="#F8D12E"/>
<path d="M5.30431 8.41211L5.67001 9.53807H6.85398L5.89617 10.2342L6.26187 11.3601L5.30431 10.6643L4.34632 11.3601L4.7122 10.2342L3.75439 9.53807H4.93862L5.30431 8.41211Z" fill="#F8D12E"/>
<path d="M25.7099 13.1436L26.0756 14.2695H27.2598L26.3018 14.9654L26.6677 16.0916L25.7099 15.396L24.7519 16.0916L25.118 14.9654L24.1598 14.2695H25.3438L25.7099 13.1436Z" fill="#F8D12E"/>
<path d="M4.39972 13.1436L4.76541 14.2695H5.94938L4.99139 14.9654L5.35752 16.0916L4.39972 15.396L3.44166 16.0916L3.8076 14.9654L2.84961 14.2695H4.03377L4.39972 13.1436Z" fill="#F8D12E"/>
<path d="M5.17621 18.333L5.5419 19.4594H6.72587L5.76813 20.1553L6.13376 21.281L5.17621 20.5854L4.21821 21.281L4.58409 20.1553L3.6261 19.4594H4.81032L5.17621 18.333Z" fill="#F8D12E"/>
<path d="M20.9792 22.4277L21.3449 23.5537H22.5291L21.5709 24.25L21.937 25.3759L20.9792 24.6801L20.0209 25.3759L20.3871 24.25L19.4291 23.5537H20.6133L20.9792 22.4277Z" fill="#F8D12E"/>
<path d="M9.32958 4.48511L9.69521 5.61132H10.8794L9.92144 6.30762L10.2876 7.43357L9.32958 6.73727L8.37178 7.43357L8.73766 6.30762L7.77966 5.61132H8.96363L9.32958 4.48511Z" fill="#F8D12E"/>
<path d="M8.89782 22.3555L9.2637 23.4819H10.4479L9.48993 24.1775L9.85581 25.3035L8.89782 24.6081L7.94001 25.3035L8.3059 24.1775L7.3479 23.4819H8.53187L8.89782 22.3555Z" fill="#F8D12E"/>
</g>
<defs>
<clipPath id="clip0">
<rect width="30" height="30" fill="white"/>
</clipPath>
</defs>
</svg>
