<svg width="30" height="30" viewBox="0 0 30 30" fill="none" xmlns="http://www.w3.org/2000/svg">
<g clip-path="url(#clip0)">
<path d="M15.0011 30.0004C23.285 30.0004 30.0004 23.285 30.0004 15.0011C30.0004 6.71715 23.285 0.00170898 15.0011 0.00170898C6.71715 0.00170898 0.00170898 6.71715 0.00170898 15.0011C0.00170898 23.285 6.71715 30.0004 15.0011 30.0004Z" fill="white"/>
<path d="M29.1423 9.99898C29.1406 9.99423 29.1392 9.99024 29.1375 9.98594C27.2178 4.57291 22.2798 0.590416 16.3467 0.0617676C18.6424 1.32034 19.3129 5.30784 19.9003 9.99892C20.3015 13.2032 20.3041 16.7338 19.9079 19.942C19.3255 24.6585 18.6522 28.6741 16.3467 29.938C22.2905 29.4084 27.2355 25.4121 29.1478 19.9846C29.1528 19.9702 29.157 19.956 29.1622 19.942C29.7022 18.3943 29.9994 16.7321 29.9994 15.0003C29.9994 13.2458 29.6956 11.5633 29.1423 9.99898Z" fill="#D32027"/>
<path d="M20.6729 9.99878C20.0858 5.30763 18.643 1.3202 16.347 0.0616239C15.903 0.0222935 15.4539 0 14.9997 0C8.47446 0 2.9252 4.1675 0.861848 9.98573C0.860201 9.98997 0.858744 9.99403 0.857098 9.99878C0.303876 11.5631 0 13.2456 0 15.0001C0 16.7322 0.297226 18.3941 0.837211 19.9418C0.842214 19.9558 0.846711 19.97 0.851651 19.9844C2.90696 25.8176 8.46375 29.9997 14.9996 29.9997C15.4539 29.9997 15.903 29.9775 16.347 29.9377C18.6524 28.6739 20.0981 24.6582 20.6805 19.9418C21.0768 16.7333 21.0742 13.203 20.6729 9.99878Z" fill="#DB2727"/>
<path d="M17.5681 7.26587H12.4102V22.739H17.5681V7.26587Z" fill="white"/>
<path d="M22.7265 12.4233H7.25342V17.5813H22.7265V12.4233Z" fill="white"/>
</g>
<defs>
<clipPath id="clip0">
<rect width="30" height="30" fill="white"/>
</clipPath>
</defs>
</svg>
