<svg width="30" height="30" viewBox="0 0 30 30" fill="none" xmlns="http://www.w3.org/2000/svg">
<g clip-path="url(#clip0)">
<path d="M2.64181 6.5C1.67451 7.90399 0.939396 9.48044 0.493652 11.1748H7.31687L2.64181 6.5Z" fill="#29337A"/>
<path d="M10.7988 0.599854C9.07056 1.10317 7.46998 1.90631 6.06055 2.95385L10.7988 7.69212V0.599854Z" fill="#29337A"/>
<path d="M6.41345 27.2956C7.73548 28.2207 9.21249 28.9369 10.7993 29.399V22.9104L6.41345 27.2956Z" fill="#29337A"/>
<path d="M0.666016 19.4285C1.16198 21.035 1.92199 22.5254 2.89328 23.8513L7.31607 19.4285H0.666016Z" fill="#29337A"/>
<path d="M2.88899 6.15283C2.80514 6.26747 2.72249 6.38375 2.64148 6.50123L7.31654 11.176H0.493325C0.382744 11.5969 0.292494 12.0258 0.21814 12.4607H9.19737L2.88899 6.15283Z" fill="white"/>
<path d="M6.0647 27.0483C6.17882 27.1333 6.29612 27.2143 6.41259 27.2958L10.7985 22.9104V29.399C11.2198 29.5222 11.6478 29.6285 12.0831 29.714V21.03L6.0647 27.0483Z" fill="white"/>
<path d="M0.33252 18.144C0.42562 18.5793 0.535505 19.008 0.665529 19.4287H7.31565L2.89286 23.8515C3.37388 24.5087 3.90727 25.1255 4.48684 25.6958L12.0385 18.144H0.33252Z" fill="white"/>
<path d="M10.7985 0.600423V7.69268L6.06018 2.95467C5.40695 3.44044 4.79635 3.97973 4.23059 4.56354L12.0829 12.4159V0.2854C11.6478 0.371408 11.2199 0.477999 10.7985 0.600423Z" fill="white"/>
<path d="M10.7993 19.384L10.7543 19.4293H10.7993V19.384Z" fill="#D32030"/>
<path d="M12.0388 18.1448H12.0838V18.0996L12.0388 18.1448Z" fill="#D32030"/>
<path d="M17.8114 12.46H17.7681V12.5035L17.8114 12.46Z" fill="#D32030"/>
<path d="M10.8436 11.1759L10.7993 11.1313V11.1759H10.8436Z" fill="#D32030"/>
<path d="M12.0837 12.4158V12.4601H12.1281L12.0837 12.4158Z" fill="#D32030"/>
<path d="M19.0522 26.078V29.4405C20.6597 28.9905 22.1585 28.2811 23.499 27.357L19.8556 23.7136C19.5645 24.7365 19.458 25.2654 19.0522 26.078Z" fill="#252F6C"/>
<path d="M19.8747 6.86952L23.852 2.89221C22.4231 1.84581 20.8022 1.04837 19.0521 0.558105V4.01221C19.5199 4.94892 19.5592 5.66066 19.8747 6.86952Z" fill="#252F6C"/>
<path d="M27.045 23.9387C28.0466 22.5912 28.8273 21.0703 29.3343 19.4285H22.5348L27.045 23.9387Z" fill="#252F6C"/>
<path d="M29.5064 11.175C29.0511 9.44489 28.294 7.83887 27.2962 6.41284L22.5334 11.175H29.5064Z" fill="#252F6C"/>
<path d="M20.7509 18.3984L21.7816 19.4292L26.7155 24.3631C26.8276 24.2229 26.9388 24.0832 27.0459 23.9394L22.5357 19.4292H29.3353C29.4648 19.0088 29.5749 18.5799 29.6678 18.1445H20.8472C20.8328 18.3267 20.7681 18.2175 20.7509 18.3984Z" fill="#E7E7E7"/>
<path d="M19.7188 7.62234L24.1907 3.15002C24.0786 3.06313 23.9664 2.97668 23.852 2.89282L19.8747 6.87013C19.9159 7.02739 19.6805 7.46129 19.7188 7.62234Z" fill="#E7E7E7"/>
<path d="M19.0524 3.73638V0.558413C18.6315 0.440485 18.2031 0.340544 17.7677 0.259033V1.80919C18.2457 2.32739 18.6741 2.97827 19.0524 3.73638Z" fill="#E7E7E7"/>
<path d="M20.6494 12.4608H29.7818C29.7076 12.026 29.6172 11.5973 29.5066 11.1762H22.5337L27.2964 6.41397C26.8282 5.7451 26.3078 5.11606 25.7394 4.5332L20.3749 9.8972C20.5193 10.8702 20.584 11.4353 20.6494 12.4608Z" fill="#E7E7E7"/>
<path d="M19.6392 23.4973L23.4995 27.3581C24.1416 26.9159 24.7462 26.4237 25.3104 25.8894L20.2327 20.8115C20.0707 21.7506 19.8784 22.6577 19.6392 23.4973Z" fill="#E7E7E7"/>
<path d="M17.7681 28.0129V29.7407C18.2034 29.6597 18.6316 29.5592 19.0527 29.4413V26.0789C18.6742 26.8373 18.2458 27.4954 17.7681 28.0129Z" fill="#E7E7E7"/>
<path d="M20.3747 9.89612L25.7387 4.53212C25.2558 4.03615 24.738 3.57457 24.1905 3.14941L19.9756 7.36498C20.1629 8.14798 20.248 9.04422 20.3747 9.89612Z" fill="#D71F28"/>
<path d="M14.2517 0.0184935C14.5016 0.00639672 14.7508 0 15.0001 0C14.7493 0 14.4997 0.00639672 14.2517 0.0184935Z" fill="#D32030"/>
<path d="M15.0003 30.0001C14.7509 30.0001 14.5017 29.9933 14.2523 29.9812C14.5003 29.9937 14.7495 30.0001 15.0003 30.0001Z" fill="#D32030"/>
<path d="M14.9998 30.0003C15.9462 30.0003 16.8703 29.9086 17.768 29.7407V28.0129C16.98 28.867 16.0583 30.0003 14.9998 30.0003Z" fill="#D32030"/>
<path d="M29.7811 12.4597H20.7674C20.8868 14.341 20.8723 16.2755 20.7242 18.1439H29.667C29.8835 17.1295 29.9995 16.0784 29.9995 14.9998C29.9995 14.1334 29.9223 13.286 29.7811 12.4597Z" fill="#D71F28"/>
<path d="M20.7505 18.3984C20.6672 19.2847 20.3768 19.9753 20.2323 20.8114L25.31 25.8891C25.8123 25.413 26.282 24.9038 26.7149 24.3631L21.7812 19.4289L20.7505 18.3984Z" fill="#D71F28"/>
<path d="M17.768 1.92054V0.259099C16.8706 0.0916442 15.9465 0 14.9998 0C16.0583 0 16.98 1.06673 17.768 1.92054Z" fill="#D32030"/>
<path d="M19.0522 26.7274C19.458 25.9146 19.8059 24.9788 20.0972 23.9561L19.0522 22.9111V26.7274Z" fill="#29337A"/>
<path d="M20.2272 6.51773C19.9112 5.30887 19.52 4.2099 19.0522 3.27319V7.69219L20.2272 6.51773Z" fill="#29337A"/>
<path d="M21.0417 18.689C21.0587 18.5081 21.0741 18.3264 21.0888 18.144H20.4967L21.0417 18.689Z" fill="white"/>
<path d="M19.0524 7.6919V3.27265C18.6739 2.51454 18.2457 1.86321 17.7677 1.34546V9.57291L20.3476 6.99301C20.3088 6.83195 20.268 6.67418 20.2273 6.51693L19.0524 7.6919Z" fill="white"/>
<path d="M17.8108 12.4603H21.1313C21.0662 11.4348 20.9625 10.4259 20.8182 9.45312L17.8108 12.4603Z" fill="white"/>
<path d="M17.7681 28.6546C18.246 28.1364 18.6742 27.4855 19.0527 26.7274V22.9111L20.0977 23.9561C20.3373 23.116 20.5384 22.2186 20.7009 21.2795L17.7681 18.3469L17.7681 28.6546Z" fill="white"/>
<path d="M17.768 28.6543V18.3466L20.7006 21.2794C20.8448 20.4431 20.9583 19.5758 21.0414 18.6893L20.4964 18.1443H21.0885C21.2366 16.2759 21.251 14.3413 21.1317 12.4601H17.8111L20.8184 9.4529C20.6916 8.60074 20.5349 7.77652 20.3475 6.99327L17.7681 9.57317V1.34572C16.98 0.491661 16.0582 0 14.9997 0C14.7503 0 14.5012 0.00639672 14.2513 0.0184935C13.5136 0.0554172 12.79 0.146175 12.0837 0.285446V12.4159L4.23121 4.56352C3.74873 5.06139 3.29995 5.59188 2.88923 6.15251L7.91243 11.1757L9.19754 12.4604H0.218375C0.0777107 13.2864 0 14.1338 0 15.0003C0 16.0791 0.116534 17.1299 0.332503 18.1443H12.0388L4.48702 25.6961C4.98153 26.1819 5.50802 26.6342 6.06536 27.0482L12.0835 21.03V29.7141C12.7898 29.8534 13.5138 29.9441 14.2516 29.9811C14.501 29.9932 14.7501 30 14.9996 30C16.0582 30 16.98 29.5083 17.768 28.6543Z" fill="#E51D35"/>
</g>
<defs>
<clipPath id="clip0">
<rect width="30" height="30" fill="white"/>
</clipPath>
</defs>
</svg>
