<svg width="30" height="30" viewBox="0 0 30 30" fill="none" xmlns="http://www.w3.org/2000/svg">
<g clip-path="url(#clip0)">
<path d="M29.9344 16.4026H0.0684814V16.403H29.9344V16.4026Z" fill="#C42126"/>
<path d="M28.3771 8.21411H1.62341V8.21455H28.3771V8.21411Z" fill="#C42126"/>
<path d="M29.4409 10.9436H0.560425V10.944H29.4409V10.9436Z" fill="#C42126"/>
<path d="M6.44773 27.3203H23.554L23.5549 27.3193H6.44678L6.44773 27.3203Z" fill="#C42126"/>
<path d="M15.0008 0C14.7062 0 14.4139 0.0106402 14.1238 0.0272337H15.8781C15.5877 0.0106402 15.2955 0 15.0008 0Z" fill="#C42126"/>
<path d="M29.9379 13.6736H0.0625V13.674H29.9379V13.6736Z" fill="#C42126"/>
<path d="M19.4333 5.4848H26.5959C25.7452 4.44909 24.7564 3.53227 23.6609 2.7561H18.2825C18.7275 3.53911 19.1103 4.46303 19.4333 5.4848Z" fill="#E7E7E7"/>
<path d="M18.282 2.75698H23.6605C21.437 1.18129 18.7675 0.194537 15.8766 0.0275879H15.4148C16.7755 0.198844 17.4005 1.20586 18.282 2.75698Z" fill="#DC3027"/>
<path d="M29.4401 10.9438C29.1734 9.99263 28.8157 9.08004 28.3762 8.21509H20.1359C20.3028 9.09119 20.4345 10.0063 20.5321 10.9438H29.4401Z" fill="#E7E7E7"/>
<path d="M19.6732 8.21424H28.3768C27.8808 7.23871 27.2849 6.32327 26.5962 5.48511H18.9933C19.2614 6.33372 19.489 7.24916 19.6732 8.21424Z" fill="#DC3027"/>
<path d="M20.8485 16.403H29.9326C29.9757 15.9414 30.0001 15.4736 30.0001 15.0009C30.0001 14.5535 29.9767 14.1118 29.9383 13.6741H20.8507C20.8802 14.5817 20.8797 15.4959 20.8485 16.403Z" fill="#E7E7E7"/>
<path d="M29.938 13.6733C29.8558 12.7361 29.687 11.8242 29.4404 10.9446H20.1498C20.2431 11.8382 20.3047 12.7524 20.3348 13.6733H29.938Z" fill="#DC3027"/>
<path d="M19.98 21.8607H28.3377C28.7835 20.9967 29.1467 20.0834 29.4191 19.1316H20.3841C20.2846 20.0705 20.1495 20.9854 19.98 21.8607Z" fill="#E7E7E7"/>
<path d="M29.419 19.1313C29.6707 18.2519 29.8455 17.3401 29.9324 16.4026H20.565C20.533 17.3242 20.4696 18.2381 20.3744 19.1313H29.419Z" fill="#DC3027"/>
<path d="M23.554 27.3193C24.6653 26.5462 25.668 25.6284 26.5323 24.5906H19.4945C19.1656 25.6166 18.775 26.5391 18.3219 27.3193H23.554Z" fill="#E7E7E7"/>
<path d="M19.2299 24.59H26.5324C27.2292 23.7528 27.8341 22.8373 28.3374 21.8608H19.9184C19.7315 22.8266 19.5016 23.7425 19.2299 24.59Z" fill="#DC3027"/>
<path d="M14.4559 29.9891C14.4256 29.9882 14.3953 29.9868 14.365 29.9858C14.3953 29.9867 14.4257 29.9882 14.4559 29.9891Z" fill="#DC3027"/>
<path d="M15 29.9997C18.1801 29.9997 21.1266 29.0071 23.5534 27.3196H18.1247C17.1612 28.9796 16.5255 29.9997 15 29.9997Z" fill="#DC3027"/>
<path d="M15.0001 30.0001C14.8179 30.0001 14.637 29.9959 14.4565 29.9895C14.6389 29.9956 14.82 30.0001 15.0001 30.0001Z" fill="#C42126"/>
<path d="M18.7792 2.7561H6.33928C5.24366 3.53227 4.25508 4.44903 3.40405 5.4848H19.9298C19.6067 4.46303 19.2243 3.53911 18.7792 2.7561Z" fill="#F3F4F5"/>
<path d="M6.33948 2.75698H18.7794C17.8977 1.20586 16.7762 0.198844 15.4155 0.0275879H14.1231C11.2322 0.194537 8.5627 1.18129 6.33948 2.75698Z" fill="#E73625"/>
<path d="M0.559448 10.9438H21.0057C20.9081 10.0061 20.7764 9.09119 20.6094 8.21509H1.62334C1.18373 9.08011 0.826149 9.99263 0.559448 10.9438Z" fill="#F3F4F5"/>
<path d="M3.40423 5.48486C2.71597 6.32303 2.11962 7.23841 1.6239 8.21401H20.6098C20.4257 7.24911 20.1981 6.33374 19.93 5.48486C19.93 5.48486 3.40423 5.48486 3.40423 5.48486Z" fill="#E73625"/>
<path d="M0.00012207 14.9997C0.00012207 15.4724 0.0247591 15.9402 0.0676364 16.4018H21.1891C21.2203 15.4947 21.2208 14.5807 21.1912 13.6731H0.0619363C0.0235558 14.1106 0.00012207 14.5523 0.00012207 14.9997Z" fill="#F3F4F5"/>
<path d="M0.0625 13.6733H21.1915C21.1614 12.7522 21.0996 11.8382 21.0065 10.9446H0.559864C0.313304 11.8244 0.144455 12.7361 0.0625 13.6733Z" fill="#E73625"/>
<path d="M20.9986 19.1311H0.581299C0.8537 20.0832 1.21724 20.9962 1.66273 21.8602H20.5946C20.7642 20.9851 20.8989 20.0702 20.9986 19.1311Z" fill="#F3F4F5"/>
<path d="M0.58059 19.1313H20.9979C21.0929 18.2381 21.1566 17.3239 21.1886 16.4026H0.0671387C0.154033 17.3403 0.329089 18.2519 0.58059 19.1313Z" fill="#E73625"/>
<path d="M6.44619 27.3193H18.7336C19.1867 26.5389 19.5775 25.6166 19.9062 24.5906H3.4679C4.33216 25.6284 5.33467 26.5462 6.44619 27.3193Z" fill="#F3F4F5"/>
<path d="M1.66284 21.8608C2.16616 22.8373 2.771 23.7528 3.46781 24.59H19.9062C20.1776 23.7426 20.4076 22.8267 20.5944 21.8608H1.66284Z" fill="#E73625"/>
<path d="M14.3653 29.9858C14.3956 29.9867 14.4259 29.9881 14.4562 29.9891C14.6367 29.9955 14.8177 29.9997 14.9998 29.9997C16.5253 29.9997 17.7692 28.9796 18.7329 27.3196H6.4469C8.71091 28.8942 11.4285 29.8633 14.3653 29.9858Z" fill="#E73625"/>
<path d="M14.6899 0.00756836C7.00325 0.163941 0.738222 6.09893 0.0639648 13.6483H14.6902V0.00756836H14.6899Z" fill="#283991"/>
<path d="M3.00167 8.4978L3.23018 9.20145H3.97055L3.3716 9.63655L3.60037 10.3407L3.00167 9.90534L2.40316 10.3407L2.63148 9.63655L2.03271 9.20145H2.77309L3.00167 8.4978Z" fill="#EFEFEF"/>
<path d="M3.00167 10.9841L3.23018 11.6882H3.97055L3.3716 12.1233L3.60037 12.8275L3.00167 12.3921L2.40316 12.8275L2.63148 12.1233L2.03271 11.6882H2.77309L3.00167 10.9841Z" fill="#EFEFEF"/>
<path d="M5.48813 4.7688L5.7167 5.4727H6.45682L5.85806 5.90806L6.08663 6.6117L5.48813 6.17685L4.88936 6.6117L5.11794 5.90806L4.51892 5.4727H5.2593L5.48813 4.7688Z" fill="#EFEFEF"/>
<path d="M5.48813 7.25537L5.7167 7.95927H6.45682L5.85806 8.39412L6.08663 9.09827L5.48813 8.66342L4.88936 9.09827L5.11794 8.39412L4.51892 7.95927H5.2593L5.48813 7.25537Z" fill="#EFEFEF"/>
<path d="M5.48813 9.74072L5.7167 10.4449H6.45682L5.85806 10.8795L6.08663 11.5836L5.48813 11.1483L4.88936 11.5836L5.11794 10.8795L4.51892 10.4449H5.2593L5.48813 9.74072Z" fill="#EFEFEF"/>
<path d="M1.11414 11.5842L0.885381 10.88L1.48414 10.4452H0.744209L0.727616 10.3938C0.646358 10.6451 0.572953 10.8995 0.505249 11.1567L0.515699 11.1489L1.11414 11.5842Z" fill="#EFEFEF"/>
<path d="M2.40277 7.85531L3.00128 7.42001L3.60004 7.85531L3.37127 7.15115L3.97003 6.71585H3.22966L3.00109 6.01221L2.77251 6.71585H2.49967C2.449 6.79262 2.39998 6.86982 2.35071 6.94772L2.63115 7.15115L2.40277 7.85531Z" fill="#EFEFEF"/>
<path d="M5.48831 3.69017L6.08682 4.12503L5.85824 3.42138L6.45675 2.98608H6.02925C5.66615 3.25753 5.31585 3.54482 4.97929 3.84794L4.88904 4.12503L5.48831 3.69017Z" fill="#EFEFEF"/>
<path d="M7.37537 2.88194L7.97412 2.44665L8.57263 2.88194L8.34406 2.17779L8.94256 1.74294H8.20244L8.17141 1.64819C7.92061 1.77632 7.6724 1.90964 7.42983 2.05151L7.60368 2.17773L7.37537 2.88194Z" fill="#EFEFEF"/>
<path d="M7.97475 3.52588L8.20332 4.22933H8.94345L8.34469 4.66463L8.57326 5.36878L7.97475 4.93342L7.37599 5.36878L7.60456 4.66463L7.00562 4.22933H7.74593L7.97475 3.52588Z" fill="#EFEFEF"/>
<path d="M7.97475 6.01245L8.20332 6.71591H8.94345L8.34469 7.15121L8.57326 7.85536L7.97475 7.42L7.37599 7.85536L7.60456 7.15121L7.00562 6.71591H7.74593L7.97475 6.01245Z" fill="#EFEFEF"/>
<path d="M7.97475 8.4978L8.20332 9.20145H8.94345L8.34469 9.63655L8.57326 10.3407L7.97475 9.90534L7.37599 10.3407L7.60456 9.63655L7.00562 9.20145H7.74593L7.97475 8.4978Z" fill="#EFEFEF"/>
<path d="M7.97475 10.9841L8.20332 11.6882H8.94345L8.34469 12.1233L8.57326 12.8275L7.97475 12.3921L7.37599 12.8275L7.60456 12.1233L7.00562 11.6882H7.74593L7.97475 10.9841Z" fill="#EFEFEF"/>
<path d="M10.4613 2.28223L10.6899 2.98613H11.43L10.8315 3.42149L11.0598 4.12513L10.4613 3.69028L9.86238 4.12513L10.0911 3.42149L9.49219 2.98613H10.2325L10.4613 2.28223Z" fill="#EFEFEF"/>
<path d="M10.4613 4.7688L10.6899 5.4727H11.43L10.8315 5.90806L11.0598 6.6117L10.4613 6.17685L9.86238 6.6117L10.0911 5.90806L9.49219 5.4727H10.2325L10.4613 4.7688Z" fill="#EFEFEF"/>
<path d="M10.4613 7.25537L10.6899 7.95927H11.43L10.8315 8.39412L11.0598 9.09827L10.4613 8.66342L9.86238 9.09827L10.0911 8.39412L9.49219 7.95927H10.2325L10.4613 7.25537Z" fill="#EFEFEF"/>
<path d="M10.4613 9.74072L10.6899 10.4449H11.43L10.8315 10.8795L11.0598 11.5836L10.4613 11.1483L9.86238 11.5836L10.0911 10.8795L9.49219 10.4449H10.2325L10.4613 9.74072Z" fill="#EFEFEF"/>
<path d="M12.9468 1.03931L13.1754 1.7432H13.9155L13.3167 2.17806L13.5453 2.88221L12.9468 2.44685L12.3479 2.88221L12.5766 2.17806L11.9777 1.7432H12.7178L12.9468 1.03931Z" fill="#EFEFEF"/>
<path d="M12.9468 3.52588L13.1754 4.22933H13.9155L13.3167 4.66463L13.5453 5.36878L12.9468 4.93342L12.3479 5.36878L12.5766 4.66463L11.9777 4.22933H12.7178L12.9468 3.52588Z" fill="#EFEFEF"/>
<path d="M12.9468 6.01245L13.1754 6.71591H13.9155L13.3167 7.15121L13.5453 7.85536L12.9468 7.42L12.3479 7.85536L12.5766 7.15121L11.9777 6.71591H12.7178L12.9468 6.01245Z" fill="#EFEFEF"/>
<path d="M12.9468 8.4978L13.1754 9.20145H13.9155L13.3167 9.63655L13.5453 10.3407L12.9468 9.90534L12.3479 10.3407L12.5766 9.63655L11.9777 9.20145H12.7178L12.9468 8.4978Z" fill="#EFEFEF"/>
<path d="M12.9468 10.9841L13.1754 11.6882H13.9155L13.3167 12.1233L13.5453 12.8275L12.9468 12.3921L12.3479 12.8275L12.5766 12.1233L11.9777 11.6882H12.7178L12.9468 10.9841Z" fill="#EFEFEF"/>
</g>
<defs>
<clipPath id="clip0">
<rect width="30" height="30" fill="white"/>
</clipPath>
</defs>
</svg>
