<svg viewBox="0 0 26 51" fill="none" xmlns="http://www.w3.org/2000/svg">
<path d="M0.388411 49.725C0.388411 50.4292 0.959629 51.0033 1.66293 50.9684C7.99149 50.6547 13.9967 48.0135 18.4985 43.5312C23.3016 38.749 26 32.263 26 25.5C26 18.737 23.3016 12.251 18.4985 7.46878C13.9967 2.98655 7.9915 0.345268 1.66294 0.0315629C0.959635 -0.00329951 0.388418 0.570837 0.388416 1.275C0.388416 1.97916 0.959816 2.54634 1.66291 2.58508C7.31176 2.8963 12.6661 5.268 16.6875 9.2719C21.0103 13.5759 23.4388 19.4133 23.4388 25.5C23.4388 31.5867 21.0103 37.4241 16.6875 41.7281C12.6661 45.732 7.31175 48.1037 1.66291 48.4149C0.959812 48.4537 0.388411 49.0208 0.388411 49.725Z" fill="#DA1728"/>
</svg>
