<svg viewBox="0 0 54 52" fill="none" xmlns="http://www.w3.org/2000/svg">
<path d="M28 50.7C28 51.418 28.5824 52.0034 29.2995 51.9675C35.722 51.6464 41.816 48.9535 46.3848 44.3848C51.2607 39.5088 54 32.8956 54 26C54 19.1044 51.2607 12.4912 46.3848 7.61523C41.816 3.04645 35.722 0.353618 29.2995 0.0324639C28.5824 -0.00339329 28 0.58203 28 1.3C28 2.01797 28.5826 2.59623 29.2995 2.63608C35.0319 2.95468 40.4652 5.37263 44.5463 9.4537C48.9347 13.8421 51.4 19.7939 51.4 26C51.4 32.2061 48.9346 38.1579 44.5463 42.5463C40.4652 46.6274 35.0319 49.0453 29.2995 49.3639C28.5826 49.4038 28 49.982 28 50.7Z" fill="#DA1728"/>
<path d="M26 50.7C26 51.418 25.4176 52.0034 24.7005 51.9675C18.278 51.6464 12.184 48.9535 7.61523 44.3848C2.73928 39.5088 0 32.8956 0 26C0 19.1044 2.73928 12.4912 7.61522 7.61523C12.184 3.04645 18.278 0.353618 24.7005 0.0324639C25.4176 -0.00339329 26 0.58203 26 1.3C26 2.01797 25.4174 2.59623 24.7005 2.63608C18.9681 2.95468 13.5348 5.37263 9.4537 9.4537C5.06535 13.8421 2.6 19.7939 2.6 26C2.6 32.2061 5.06535 38.1579 9.4537 42.5463C13.5348 46.6274 18.9681 49.0453 24.7005 49.3639C25.4174 49.4038 26 49.982 26 50.7Z" fill="#459313"/>
</svg>
