<svg viewBox="0 0 26 51" fill="none" xmlns="http://www.w3.org/2000/svg">
<path d="M0.499998 49.725C0.499998 50.4292 1.07123 51.0033 1.77451 50.9682C8.07347 50.6532 14.0503 48.0121 18.5312 43.5312C23.3134 38.749 26 32.263 26 25.5C26 18.737 23.3134 12.251 18.5312 7.46878C14.0503 2.98787 8.07347 0.346819 1.77452 0.0318397C1.07123 -0.00332801 0.500006 0.570837 0.500004 1.275C0.500004 1.97916 1.07141 2.54631 1.77449 2.58538C7.39669 2.89786 12.7255 5.26931 16.7281 9.2719C21.0321 13.5759 23.45 19.4133 23.45 25.5C23.45 31.5867 21.0321 37.4241 16.7281 41.7281C12.7255 45.7307 7.39668 48.1021 1.77449 48.4146C1.07141 48.4537 0.499998 49.0208 0.499998 49.725Z" fill="#459313"/>
</svg>
