<svg viewBox="0 0 663 195" fill="none" xmlns="http://www.w3.org/2000/svg">
<path d="M557.5 100.5L566 226L409 155.5L319 250.5" stroke="#C0C0C0"/>
<path d="M155 164L409 155L556.5 99.0004C471.667 94.8337 304.6 86.3004 315 85.5004M721.5 6.00035C773.531 -4.37932 556.5 101.5 556.5 101.5L738 227.5" stroke="#C0C0C0"/>
<path d="M156.5 163.5L7 209" stroke="#C0C0C0"/>
<path d="M141 55.5002L156 164.5L319.5 85.0002" stroke="#C0C0C0"/>
<path d="M5.5 207.5L141.5 55.5002L320 87.5002V250L153 165.5" stroke="#C0C0C0"/>
<path d="M143 62.0002C145.761 62.0002 148 59.7617 148 57.0002C148 54.2388 145.761 52.0002 143 52.0002C140.239 52.0002 138 54.2388 138 57.0002C138 59.7617 140.239 62.0002 143 62.0002Z" fill="#808080"/>
<path d="M318.237 92.1173C321.551 92.0514 324.183 89.3122 324.117 85.9991C324.051 82.6861 321.312 80.0538 317.999 80.1197C314.686 80.1856 312.053 82.9248 312.119 86.2378C312.185 89.5509 314.924 92.1832 318.237 92.1173Z" fill="#808080"/>
<path d="M156.317 172.077C160.734 171.989 164.244 168.337 164.156 163.919C164.068 159.502 160.416 155.992 155.998 156.08C151.581 156.168 148.071 159.82 148.159 164.237C148.247 168.655 151.899 172.165 156.317 172.077Z" fill="#808080"/>
<path d="M409.198 160.138C411.959 160.083 414.152 157.8 414.097 155.039C414.043 152.278 411.76 150.085 408.999 150.14C406.238 150.194 404.045 152.477 404.099 155.238C404.154 157.999 406.437 160.193 409.198 160.138Z" fill="#808080"/>
<path d="M556.317 108.077C560.734 107.989 564.244 104.337 564.156 99.9192C564.068 95.5018 560.416 91.992 555.998 92.0799C551.581 92.1678 548.071 95.82 548.159 100.237C548.247 104.655 551.899 108.165 556.317 108.077Z" fill="#808080"/>
</svg>
