<svg viewBox="0 0 397 90" fill="none" xmlns="http://www.w3.org/2000/svg">
<path d="M115.357 35.5668C113.829 35.5668 112.59 36.8932 112.59 38.5341V40.546C112.59 42.184 113.829 43.5133 115.357 43.5133H122.489C123.649 43.5133 124.59 44.5223 124.59 45.7656C124.59 47.0119 123.649 48.0208 122.489 48.0208H115.357C113.829 48.0208 112.59 49.3472 112.59 50.9881V57.5371C112.59 58.8962 111.562 60 110.295 60C109.028 60 108 58.8962 108 57.5371V33.9674C108 32.3264 109.239 31 110.767 31H123.871C125.058 31 126.015 32.0386 126 33.3116C125.985 34.5608 125.036 35.5668 123.871 35.5668H115.357Z" fill="#323232"/>
<path d="M136.705 50.5442V57.6937C136.705 58.9681 135.651 60 134.352 60C133.053 60 132 58.9681 132 57.6937V40.3196C132 39.0482 133.053 38.0162 134.352 38.0162H135.801C136.3 38.0162 136.705 38.4125 136.705 38.9003C136.705 39.8199 138.204 40.2782 138.913 39.678C139.188 39.4444 139.477 39.2256 139.781 39.0216C140.378 38.6313 140.988 38.3237 141.61 38.102C142.843 37.6614 143.957 38.714 143.973 39.9973L144 42.0936C144.002 42.2237 143.895 42.3302 143.762 42.3302C141.47 42.3302 139.721 43.0576 138.514 44.5153C137.308 45.973 136.705 47.9836 136.705 50.5442Z" fill="#323232"/>
<path d="M169 47.5396C169 49.1938 167.729 50.5363 166.16 50.5363H155.488C153.836 50.5363 152.482 52.1515 153.552 53.4791C153.827 53.8207 154.152 54.1384 154.527 54.4291C155.814 55.427 157.308 55.9274 159.011 55.9274C160.799 55.9274 162.285 55.5379 163.47 54.7587C164.405 54.1444 165.701 54.0665 166.446 54.9205C167.085 55.6547 167.085 56.8025 166.342 57.4168C164.263 59.1369 161.706 60 158.67 60C155.643 60 153.108 58.9422 151.065 56.8235C149.021 54.7078 148 51.9148 148 48.4386C148 45.0463 149.041 42.2893 151.122 40.1736C153.203 38.0579 155.719 37 158.67 37C161.622 37 164.081 37.938 166.049 39.8139C168.016 41.6929 169 44.1862 169 47.3028V47.5396ZM161.733 46.8233C163.302 46.8233 164.689 45.3879 163.947 43.9315C163.688 43.422 163.348 42.9695 162.927 42.5709C161.868 41.5311 160.486 41.0127 158.784 41.0127C157.081 41.0127 155.587 41.5521 154.3 42.6309C153.834 43.0325 153.455 43.479 153.163 43.9704C152.33 45.3729 153.698 46.8233 155.267 46.8233H161.733Z" fill="#323232"/>
<path d="M183.371 60C180.632 60 178.119 59.2478 175.829 57.7465C174.955 57.1741 174.76 55.9364 175.301 55.0014C175.925 53.9226 177.269 53.6769 178.293 54.3092C180.043 55.388 181.773 55.9274 183.482 55.9274C184.447 55.9274 185.208 55.6877 185.765 55.2082C186.359 54.6898 186.656 54.0485 186.656 53.2903C186.656 52.1935 185.336 51.2136 182.695 50.3475C182.589 50.3145 182.486 50.2666 182.383 50.2246C182.362 50.2156 182.339 50.2066 182.316 50.1976C182.277 50.1827 182.224 50.1587 182.185 50.1407C182.114 50.1108 182.051 50.1048 181.978 50.0838C177.746 48.8431 175.63 46.7574 175.63 43.8266C175.63 41.7528 176.354 40.0956 177.802 38.858C179.287 37.6203 181.236 37 183.649 37C185.525 37 187.332 37.4735 189.069 38.4205C189.877 38.858 190.138 39.9338 189.732 40.8059C189.252 41.8368 188.041 42.1664 187.047 41.7259C185.875 41.2104 184.631 40.9527 183.315 40.9527C180.976 40.9527 179.806 41.7528 179.806 43.3501C179.806 44.0274 180.029 44.5278 180.475 44.8455C180.957 45.1242 181.737 45.4059 182.814 45.6846C184.447 46.164 185.821 46.6435 186.935 47.123C187.677 47.4826 188.327 47.8602 188.884 48.2588C190.294 49.2986 191 50.8749 191 52.9906C191 55.0674 190.276 56.7635 188.828 58.0821C187.417 59.3617 185.598 60 183.371 60Z" fill="#323232"/>
<path d="M202.321 57.6689C202.321 58.957 201.354 60 200.16 60C198.967 60 198 58.957 198 57.6689V31.3281C198 30.043 198.967 29 200.16 29C201.354 29 202.321 30.043 202.321 31.3281V37.3201C202.321 38.4318 204.246 39.158 205.146 38.6171C206.401 37.8191 207.749 37.4217 209.189 37.4217C211.59 37.4217 213.492 38.1987 214.895 39.7497C216.298 41.3038 217 43.5153 217 46.3813V57.6391C217 58.9421 216.02 60 214.812 60C213.603 60 212.624 58.9421 212.624 57.6391V47.8158C212.624 43.7125 211.054 41.6624 207.916 41.6624C206.327 41.6624 204.998 42.2212 203.927 43.336C202.856 44.4089 202.321 45.942 202.321 47.9353V57.6689Z" fill="#323232"/>
<path d="M241.894 60C238.984 60 236.314 59.2478 233.881 57.7465C232.953 57.1741 232.745 55.9364 233.32 55.0014C233.983 53.9226 235.411 53.6769 236.499 54.3092C238.358 55.388 240.196 55.9274 242.012 55.9274C243.038 55.9274 243.846 55.6877 244.438 55.2082C245.069 54.6898 245.385 54.0485 245.385 53.2903C245.385 52.1935 243.982 51.2136 241.175 50.3475C241.064 50.3145 240.954 50.2666 240.845 50.2246C240.822 50.2156 240.798 50.2066 240.773 50.1976C240.731 50.1827 240.675 50.1587 240.635 50.1407C240.559 50.1108 240.492 50.1048 240.414 50.0838C235.917 48.8431 233.669 46.7574 233.669 43.8266C233.669 41.7528 234.438 40.0956 235.977 38.858C237.554 37.6203 239.626 37 242.189 37C244.183 37 246.103 37.4735 247.949 38.4205C248.807 38.858 249.084 39.9338 248.653 40.8059C248.143 41.8368 246.856 42.1664 245.8 41.7259C244.555 41.2104 243.233 40.9527 241.834 40.9527C239.349 40.9527 238.107 41.7528 238.107 43.3501C238.107 44.0274 238.343 44.5278 238.817 44.8455C239.33 45.1242 240.158 45.4059 241.302 45.6846C243.038 46.164 244.497 46.6435 245.681 47.123C246.47 47.4826 247.16 47.8602 247.751 48.2588C249.25 49.2986 250 50.8749 250 52.9906C250 55.0674 249.231 56.7635 247.692 58.0821C246.193 59.3617 244.26 60 241.894 60Z" fill="#323232"/>
<path d="M254 48.4985C254 45.1452 255.101 42.3911 257.303 40.2335C259.505 38.0788 262.22 37 265.447 37C267.959 37 270.166 37.7192 272.065 39.1547C272.958 39.8319 273.011 41.1565 272.32 42.0555C271.553 43.0564 270.163 43.1493 269.108 42.505C267.877 41.7499 266.638 41.3722 265.39 41.3722C263.492 41.3722 261.859 42.0315 260.492 43.3501C259.164 44.6267 258.499 46.2839 258.499 48.3187C258.499 50.3954 259.164 52.1545 260.492 53.59C261.859 54.9894 263.53 55.6877 265.504 55.6877C266.924 55.6877 268.295 55.2022 269.617 54.2313C270.512 53.572 271.759 53.575 272.497 54.4201C273.202 55.2262 273.176 56.4878 272.356 57.1591C270.04 59.053 267.528 60 264.821 60C261.783 60 259.22 58.9422 257.132 56.8235C255.044 54.6688 254 51.8938 254 48.4985Z" fill="#323232"/>
<path d="M297 57.5127C297 58.6874 296.034 59.6404 294.842 59.6404H293.495C293.047 59.6404 292.684 59.2808 292.684 58.8403C292.684 58.0941 291.682 57.7105 291.078 58.16C289.434 59.3857 287.457 60 285.146 60C282.755 60 280.789 59.3407 279.249 58.0221C277.75 56.6646 277 54.9085 277 52.7509C277 50.5962 277.811 48.96 279.432 47.8422C281.053 46.7214 283.282 46.1641 286.119 46.1641H291.468C291.938 46.1641 292.319 45.7894 292.319 45.3249C292.319 42.3702 290.637 40.8928 287.274 40.8928C285.66 40.8928 283.999 41.3393 282.29 42.2263C281.381 42.6998 280.231 42.511 279.634 41.6869C279.045 40.8748 279.204 39.736 280.064 39.2116C282.469 37.7372 285.095 37 287.942 37C290.739 37 292.947 37.6983 294.569 39.0977C296.19 40.4553 297 42.511 297 45.265V57.5127ZM292.258 51.3154C292.258 50.2906 291.415 49.4575 290.374 49.4575H286.909C283.464 49.4575 281.742 50.5153 281.742 52.631C281.742 53.7098 282.167 54.5489 283.018 55.1483C283.869 55.7057 285.065 55.9874 286.605 55.9874C288.186 55.9874 289.523 55.5678 290.617 54.7287C291.711 53.8507 292.258 52.7119 292.258 51.3154Z" fill="#323232"/>
<path d="M309.321 57.7287C309.321 58.9837 308.354 60 307.16 60C305.967 60 305 58.9837 305 57.7287V40.6179C305 39.3657 305.967 38.3494 307.16 38.3494H308.554C308.977 38.3494 309.321 38.7105 309.321 39.1561C309.321 39.986 310.581 40.4111 311.196 39.887C311.508 39.622 311.844 39.3803 312.201 39.1648C313.457 38.3873 314.786 38 316.189 38C318.59 38 320.492 38.7571 321.895 40.2684C323.298 41.7827 324 43.9375 324 46.7301V57.6995C324 58.9692 323.02 60 321.812 60C320.603 60 319.624 58.9692 319.624 57.6995V48.1279C319.624 44.1297 318.054 42.1321 314.915 42.1321C313.327 42.1321 311.998 42.6766 310.927 43.7628C309.856 44.8082 309.321 46.3021 309.321 48.2444V57.7287Z" fill="#323232"/>
<path d="M336.548 57.7287C336.548 58.9837 335.53 60 334.274 60C333.018 60 332 58.9837 332 57.7287V40.6179C332 39.3657 333.018 38.3494 334.274 38.3494H335.741C336.187 38.3494 336.548 38.7105 336.548 39.1561C336.548 39.986 337.875 40.4111 338.522 39.887C338.851 39.622 339.204 39.3803 339.58 39.1648C340.902 38.3873 342.301 38 343.779 38C346.305 38 348.307 38.7571 349.784 40.2684C351.262 41.7827 352 43.9375 352 46.7301V57.6995C352 58.9692 350.969 60 349.697 60C348.425 60 347.394 58.9692 347.394 57.6995V48.1279C347.394 44.1297 345.741 42.1321 342.437 42.1321C340.766 42.1321 339.366 42.6766 338.239 43.7628C337.112 44.8082 336.548 46.3021 336.548 48.2444V57.7287Z" fill="#323232"/>
<path d="M379 47.5396C379 49.1938 377.667 50.5363 376.025 50.5363H364.845C363.114 50.5363 361.698 52.1515 362.816 53.4791C363.105 53.8207 363.447 54.1384 363.839 54.4291C365.187 55.427 366.752 55.9274 368.537 55.9274C370.408 55.9274 371.967 55.5379 373.208 54.7587C374.186 54.1444 375.543 54.0665 376.326 54.9205C376.995 55.6547 376.995 56.8025 376.215 57.4168C374.038 59.1369 371.36 60 368.18 60C365.009 60 362.352 58.9422 360.213 56.8235C358.071 54.7078 357 51.9148 357 48.4386C357 45.0463 358.092 42.2893 360.272 40.1736C362.45 38.0579 365.086 37 368.18 37C371.271 37 373.847 37.938 375.909 39.8139C377.971 41.6929 379 44.1862 379 47.3028V47.5396ZM371.387 46.8233C373.032 46.8233 374.484 45.3879 373.708 43.9315C373.434 43.422 373.08 42.9695 372.639 42.5709C371.53 41.5311 370.081 41.0127 368.299 41.0127C366.514 41.0127 364.949 41.5521 363.601 42.6309C363.114 43.0325 362.715 43.479 362.409 43.9704C361.537 45.3729 362.971 46.8233 364.613 46.8233H371.387Z" fill="#323232"/>
<path d="M389.705 50.5442V57.6937C389.705 58.9681 388.652 60 387.351 60C386.053 60 385 58.9681 385 57.6937V40.3196C385 39.0482 386.053 38.0162 387.351 38.0162H388.8C389.301 38.0162 389.705 38.4125 389.705 38.9003C389.705 39.8199 391.202 40.2782 391.911 39.678C392.186 39.4444 392.476 39.2256 392.781 39.0216C393.378 38.6313 393.988 38.3237 394.61 38.102C395.841 37.6614 396.955 38.714 396.973 39.9973L397 42.0936C397 42.2237 396.894 42.3302 396.762 42.3302C394.471 42.3302 392.72 43.0576 391.513 44.5153C390.306 45.973 389.705 47.9836 389.705 50.5442Z" fill="#323232"/>
<g clip-path="url(#clip0)">
<path d="M36.1868 31.6654L36.8532 31.9451C37.8754 32.3729 38.4801 32.9303 39.0005 33.4939C38.5233 33.716 38.0646 33.9999 37.6286 34.3392C36.6557 35.1311 35.9996 35.9867 35.4854 37.1221L34.7121 38.8189L36.5632 38.5906C37.8898 38.4302 38.7784 38.7264 39.6401 39.0123C39.9919 39.1316 40.3518 39.2508 40.7282 39.3331C40.7035 39.4894 40.685 39.6478 40.6727 39.8041C40.5904 40.742 40.7159 41.6943 41.0408 42.6343C41.4748 43.8128 42.0672 44.7096 42.9742 45.5652L43.5851 46.139L44.2782 45.6701C45.3087 44.9687 46.0388 44.1769 46.6456 43.1012C47.0508 42.3443 47.312 41.5709 47.423 40.777C47.8467 40.851 48.2663 40.8654 48.6777 40.8819C49.5827 40.9168 50.5206 40.9518 51.7032 41.573L53.3548 42.443L53.2335 40.5816C53.1533 39.3393 52.8427 38.3088 52.2215 37.2393C51.8451 36.6182 51.4029 36.0793 50.8929 35.6268C51.0101 35.5239 51.1253 35.417 51.2384 35.3121C51.9048 34.6971 52.5938 34.0595 53.8711 33.6625L55.6543 33.1072L54.5622 32.1467C60.7284 34.004 62.6968 39.4277 62.6968 45.5158C62.6968 54.0433 54.774 60.9562 45.0001 60.9562C35.2283 60.9562 27.3035 54.0433 27.3035 45.5158C27.3035 39.2303 29.5722 33.2594 36.1868 31.6654Z" fill="#EF0304"/>
<path d="M49.669 35.9602C50.3169 36.4106 50.8722 36.9988 51.3185 37.7372C51.7566 38.49 52.1104 39.3621 52.1906 40.6209C49.5723 39.2449 47.9413 40.3041 46.4131 39.2551C46.446 39.5842 46.4542 39.9092 46.4254 40.2362C46.3699 41.024 46.1437 41.7994 45.7344 42.5604C45.3065 43.3194 44.7368 44.066 43.6899 44.7756C42.7726 43.9097 42.3283 43.0808 42.026 42.2622C41.7421 41.4477 41.6413 40.6476 41.7133 39.8598C41.7565 39.3477 41.8738 38.8417 42.0568 38.3419C40.4011 38.5805 39.2246 37.184 36.4356 37.5274C36.958 36.3777 37.5977 35.6866 38.2723 35.1375C38.9511 34.6047 39.6771 34.253 40.4443 34.0618C40.6027 34.0206 40.759 33.9918 40.9215 33.9671C39.9548 33.1568 39.3336 31.826 37.2542 30.9581C38.2805 30.2197 39.1794 29.9358 40.037 29.796C40.8927 29.6705 41.6969 29.724 42.4579 29.9399C43.2189 30.1497 43.9388 30.5179 44.6093 31.063C44.8664 31.281 45.1153 31.5319 45.3559 31.8075C46.2794 28.8231 47.3695 26.4413 47.4682 26.2295L48.1819 26.5606C48.1593 26.6121 47.0198 29.0925 46.0778 32.1633C46.1272 32.1181 46.1807 32.0749 46.2342 32.0379C46.952 31.5586 47.7027 31.2604 48.4822 31.1247C49.2576 30.9848 50.068 31.0074 50.9051 31.2131C51.7464 31.4373 52.6123 31.8034 53.5625 32.6364C51.0429 33.42 50.4465 35.0161 49.0581 35.592C49.2679 35.7051 49.4736 35.8244 49.669 35.9602ZM44.4324 34.4402C44.4221 34.4402 44.4118 34.4464 44.4036 34.4484C44.4406 34.4649 44.4797 34.4855 44.5167 34.504C44.49 34.4834 44.4612 34.4628 44.4324 34.4402Z" fill="#2A6A00"/>
</g>
<path d="M86.2985 45.2815C86.2985 68.0901 67.8085 86.5801 44.9998 86.5801C22.1912 86.5801 3.70117 68.0901 3.70117 45.2815C3.70117 22.4728 22.1912 3.98279 44.9998 3.98279C67.8085 3.98279 86.2985 22.4728 86.2985 45.2815ZM4.77802 45.2815C4.77802 67.4954 22.7859 85.5033 44.9998 85.5033C67.2137 85.5033 85.2217 67.4954 85.2217 45.2815C85.2217 23.0676 67.2137 5.05964 44.9998 5.05964C22.7859 5.05964 4.77802 23.0676 4.77802 45.2815Z" fill="#292929"/>
<path d="M13.2641 36.4509L14.3325 70.1059L35.1666 71.8866L50.8366 79.7216L66.6848 71.8866V29.5062L42.8235 8.67212L26.6193 12.9458L11.4834 17.7536" stroke="#585858" stroke-width="2"/>
<path d="M13.2641 36.4509L14.3325 70.1059L35.1666 71.8866L50.8366 79.7216L66.6848 71.8866V29.5062L42.8235 8.67212L26.6193 12.9458L11.4834 17.7536" stroke="url(#paint0_linear)" stroke-width="2"/>
<path d="M5.29175 53.2679L13.1038 36.5538L23.2776 27.47L26.5478 12.7544L42.8956 8.63281L58.4625 14.5396L72.2591 10.6804" stroke="#585858" stroke-width="1.5"/>
<path d="M76.8067 37.2095L66.9275 29.3885L85.1765 27.3303" stroke="#585858" stroke-width="1.5"/>
<path d="M23.1575 27.742L21.511 55.733L13.1411 36.7979L12.3179 15.6675" stroke="#585858" stroke-width="1.5"/>
<path d="M23.1575 27.742L21.511 55.733L13.1411 36.7979L12.3179 15.6675" stroke="url(#paint1_linear)" stroke-width="1.5"/>
<path d="M51.0115 79.745L72.1419 55.3215L76.8071 37.3469L87.8919 48.2863L66.6535 71.924L70.221 79.745" stroke="#585858" stroke-width="1.5"/>
<path d="M51.0115 79.745L72.1419 55.3215L76.8071 37.3469L87.8919 48.2863L66.6535 71.924L70.221 79.745" stroke="url(#paint2_linear)" stroke-width="1.5"/>
<path d="M23.0522 27.219L58.1215 14.2177L67.0171 29.4429L71.1228 9.42773" stroke="#585858" stroke-width="1.5"/>
<path d="M23.0522 27.219L58.1215 14.2177L67.0171 29.4429L71.1228 9.42773" stroke="url(#paint3_linear)" stroke-width="1.5"/>
<path d="M58.6352 14.5596L56.4113 3.26904L42.3836 8.91433L35.8081 3.79768L26.4741 12.6778" stroke="#585858" stroke-width="1.5"/>
<path d="M58.6352 14.5596L56.4113 3.26904L42.3836 8.91433L35.8081 3.79768L26.4741 12.6778" stroke="url(#paint4_linear)" stroke-width="1.5"/>
<path d="M6.4585 64.3409L21.6837 55.4453L34.685 71.5259L30.4082 84.3561L50.7655 80.0793L53.6737 86.58" stroke="#585858" stroke-width="1.5"/>
<path d="M6.4585 64.3409L21.6837 55.4453L34.685 71.5259L30.4082 84.3561L50.7655 80.0793L53.6737 86.58" stroke="url(#paint5_linear)" stroke-width="1.5"/>
<path d="M72.1328 55.0006L87.2874 52.3777" stroke="#585858" stroke-width="1.5"/>
<circle cx="23.2725" cy="27.3305" r="1.99367" fill="#323232"/>
<circle cx="35.0318" cy="72.3445" r="1.99367" fill="#323232"/>
<circle cx="67.0916" cy="71.8445" r="1.99367" fill="#323232"/>
<circle cx="58.3563" cy="14.6512" r="1.62947" fill="#323232"/>
<circle cx="26.8953" cy="13.386" r="1.99367" fill="#323232"/>
<circle cx="67.092" cy="28.6718" r="2.27848" fill="#323232"/>
<circle cx="13.1592" cy="36.8127" r="3.41772" fill="#323232"/>
<circle cx="76.8406" cy="37.5052" r="3.41772" fill="#323232"/>
<circle cx="72.077" cy="55.0848" r="2.72516" fill="#323232"/>
<circle cx="51.0112" cy="79.7216" r="3.41772" fill="#323232"/>
<circle cx="42.5542" cy="8.67199" r="3.41772" fill="#323232"/>
<circle cx="5.29181" cy="53.5504" r="2.72516" fill="#323232"/>
<circle cx="21.1427" cy="55.6802" r="2.12974" fill="#323232"/>
<circle cx="14.4476" cy="69.8506" r="2.12974" fill="#323232"/>
<path d="M90 45C90 69.8528 69.8528 90 45 90C20.1472 90 0 69.8528 0 45C0 20.1472 20.1472 0 45 0C69.8528 0 90 20.1472 90 45ZM4.09908 45C4.09908 67.589 22.411 85.9009 45 85.9009C67.589 85.9009 85.9009 67.589 85.9009 45C85.9009 22.411 67.589 4.09908 45 4.09908C22.411 4.09908 4.09908 22.411 4.09908 45Z" fill="#585858"/>
<defs>
<linearGradient id="paint0_linear" x1="14.5874" y1="13.7793" x2="88.163" y2="55.9492" gradientUnits="userSpaceOnUse">
<stop/>
<stop offset="1" stop-color="#6A6A6A" stop-opacity="0"/>
</linearGradient>
<linearGradient id="paint1_linear" x1="12.9274" y1="18.5475" x2="31.3859" y2="22.2315" gradientUnits="userSpaceOnUse">
<stop/>
<stop offset="1" stop-color="#6A6A6A" stop-opacity="0"/>
</linearGradient>
<linearGradient id="paint2_linear" x1="53.1486" y1="40.3946" x2="99.9717" y2="71.3588" gradientUnits="userSpaceOnUse">
<stop/>
<stop offset="1" stop-color="#6A6A6A" stop-opacity="0"/>
</linearGradient>
<linearGradient id="paint3_linear" x1="25.7553" y1="10.8665" x2="46.32" y2="47.3018" gradientUnits="userSpaceOnUse">
<stop/>
<stop offset="1" stop-color="#6A6A6A" stop-opacity="0"/>
</linearGradient>
<linearGradient id="paint4_linear" x1="28.2826" y1="3.12802" x2="40.3726" y2="26.416" gradientUnits="userSpaceOnUse">
<stop/>
<stop offset="1" stop-color="#6A6A6A" stop-opacity="0"/>
</linearGradient>
<linearGradient id="paint5_linear" x1="9.11343" y1="57.6834" x2="46.2459" y2="99.2238" gradientUnits="userSpaceOnUse">
<stop/>
<stop offset="1" stop-color="#6A6A6A" stop-opacity="0"/>
</linearGradient>
<clipPath id="clip0">
<rect width="35.3933" height="35.3933" fill="white" transform="translate(27.3035 25.8971)"/>
</clipPath>
</defs>
</svg>
