<svg viewBox="0 0 402 100" fill="none" xmlns="http://www.w3.org/2000/svg">
<path d="M10.4042 36.9754C10.4042 37.4628 10.7808 37.858 11.2455 37.858C11.7101 37.858 12.0867 37.4628 12.0867 36.9754V30.0761C12.0867 29.719 11.8818 29.3973 11.5674 29.2606C11.2532 29.1241 10.8912 29.1996 10.6506 29.452L8.51887 31.6884C8.19032 32.0332 8.19032 32.592 8.51887 32.9366C8.84739 33.2812 9.38009 33.2812 9.70861 32.9366L10.4042 32.2068V36.9754Z" fill="#ED1B34"/>
<path d="M15.3729 21.6898L16.0685 20.96V25.7286C16.0685 26.216 16.4452 26.6113 16.9098 26.6113C17.3744 26.6113 17.751 26.216 17.751 25.7286V18.8292C17.751 18.4722 17.5461 18.1505 17.2317 18.0138C16.9175 17.8773 16.5555 17.9527 16.3149 18.2052L14.1832 20.4416C13.8546 20.7863 13.8546 21.3452 14.1832 21.6898C14.5118 22.0344 15.0445 22.0344 15.3729 21.6898Z" fill="#ED1B34"/>
<path d="M6.23923 25.6334L6.60225 25.2526V27.7413C6.60225 27.9956 6.79884 28.2019 7.04131 28.2019C7.28379 28.2019 7.48037 27.9956 7.48037 27.7413V24.1406C7.48037 23.9542 7.37342 23.7863 7.20932 23.715C7.04535 23.6437 6.85643 23.6831 6.73087 23.8149L5.61835 24.982C5.44688 25.162 5.44688 25.4536 5.61835 25.6334C5.78982 25.8133 6.06783 25.8133 6.23923 25.6334Z" fill="#ED1B34"/>
<path d="M36.0664 15.3782L36.4294 14.9973V17.486C36.4294 17.7404 36.6259 17.9466 36.8685 17.9466C37.1109 17.9466 37.3075 17.7404 37.3075 17.486V13.8853C37.3075 13.6989 37.2005 13.5311 37.0365 13.4597C36.8725 13.3885 36.6836 13.4278 36.558 13.5596L35.4455 14.7268C35.274 14.9067 35.274 15.1983 35.4455 15.3782C35.617 15.5581 35.895 15.5581 36.0664 15.3782Z" fill="#ED1B34"/>
<path d="M24.9675 29.2606C24.6533 29.1241 24.2913 29.1996 24.0507 29.452L21.919 31.6884C21.5905 32.0332 21.5905 32.592 21.919 32.9366C22.2476 33.2812 22.7803 33.2812 23.1087 32.9366L23.8043 32.2068V36.9754C23.8043 37.4628 24.181 37.858 24.6456 37.858C25.1102 37.858 25.4869 37.4628 25.4869 36.9754V30.0761C25.4869 29.7191 25.282 29.3973 24.9675 29.2606Z" fill="#ED1B34"/>
<path d="M21.311 40.1231C20.9969 39.9866 20.6349 40.062 20.3942 40.3145L18.2625 42.5509C17.934 42.8955 17.934 43.4545 18.2625 43.799C18.5911 44.1437 19.1238 44.1437 19.4522 43.799L20.1478 43.0693V45.6815C20.1478 46.1688 20.5245 46.564 20.9891 46.564C21.4537 46.564 21.8304 46.1688 21.8304 45.6815V40.9385C21.8304 40.5815 21.6255 40.2597 21.311 40.1231Z" fill="#ED1B34"/>
<path d="M19.8849 34.8246V32.2269C19.8849 30.5543 18.5878 29.1935 16.9936 29.1935H16.9522C15.3578 29.1935 14.0608 30.5543 14.0608 32.2269V34.8246C14.0608 36.4973 15.3578 37.858 16.9522 37.858H16.9936C18.5878 37.858 19.8849 36.4973 19.8849 34.8246ZM18.2024 34.8246C18.2024 35.5239 17.6601 36.0928 16.9936 36.0928H16.9522C16.2857 36.0928 15.7434 35.5239 15.7434 34.8246V32.2269C15.7434 31.5276 16.2857 30.9587 16.9522 30.9587H16.9936C17.6601 30.9587 18.2024 31.5276 18.2024 32.2269V34.8246Z" fill="#ED1B34"/>
<path d="M30.4561 29.1934H30.4147C28.8205 29.1934 27.5234 30.5541 27.5234 32.2268V34.8245C27.5234 36.497 28.8205 37.8578 30.4147 37.8578H30.4561C32.0505 37.8578 33.3475 36.497 33.3475 34.8245V32.2268C33.3475 30.5542 32.0505 29.1934 30.4561 29.1934ZM31.6649 34.8246C31.6649 35.5239 31.1227 36.0927 30.4561 36.0927H30.4147C29.7482 36.0927 29.206 35.5239 29.206 34.8246V32.2269C29.206 31.5276 29.7482 30.9587 30.4147 30.9587H30.4561C31.1227 30.9587 31.6649 31.5276 31.6649 32.2269V34.8246Z" fill="#ED1B34"/>
<path d="M22.6578 17.9465H22.6164C21.0221 17.9465 19.7251 19.3073 19.7251 20.98V23.5777C19.7251 25.2502 21.0221 26.611 22.6164 26.611H22.6578C23.1224 26.611 23.4991 26.2158 23.4991 25.7284C23.4991 25.2409 23.1224 24.8457 22.6578 24.8457H22.6164C21.9499 24.8457 21.4077 24.2769 21.4077 23.5777V20.98C21.4077 20.2807 21.9499 19.7118 22.6164 19.7118H22.6578C23.3243 19.7118 23.8666 20.2807 23.8666 20.98C23.8666 21.4673 24.2433 21.8625 24.7079 21.8625C25.1725 21.8625 25.5492 21.4673 25.5492 20.98C25.5493 19.3073 24.2522 17.9465 22.6578 17.9465Z" fill="#ED1B34"/>
<path d="M30.4561 17.9465H30.4147C28.8205 17.9465 27.5234 19.3073 27.5234 20.98V23.5777C27.5234 25.2502 28.8205 26.611 30.4147 26.611H30.4561C32.0505 26.611 33.3475 25.2502 33.3475 23.5777V20.98C33.3475 19.3073 32.0505 17.9465 30.4561 17.9465ZM31.6649 23.5778C31.6649 24.2771 31.1227 24.8459 30.4561 24.8459H30.4147C29.7482 24.8459 29.206 24.2771 29.206 23.5778V20.98C29.206 20.2807 29.7482 19.7118 30.4147 19.7118H30.4561C31.1227 19.7118 31.6649 20.2807 31.6649 20.98V23.5778Z" fill="#ED1B34"/>
<path d="M13.0624 40.056H13.021C11.4267 40.056 10.1296 41.4168 10.1296 43.0895V45.6872C10.1296 47.3598 11.4267 48.7205 13.021 48.7205H13.0624C14.6567 48.7205 15.9537 47.3598 15.9537 45.6872V43.0895C15.9538 41.4169 14.6568 40.056 13.0624 40.056ZM14.2713 45.6873C14.2713 46.3866 13.729 46.9554 13.0625 46.9554H13.0211C12.3546 46.9554 11.8123 46.3866 11.8123 45.6873V43.0895C11.8123 42.3902 12.3546 41.8213 13.0211 41.8213H13.0625C13.729 41.8213 14.2713 42.3902 14.2713 43.0895V45.6873Z" fill="#ED1B34"/>
<path d="M21.3113 51.3856C21.1015 51.2943 20.8597 51.3448 20.699 51.5134L19.2754 53.0069C19.056 53.2372 19.056 53.6104 19.2754 53.8405C19.4949 54.0707 19.8506 54.0707 20.0699 53.8405L20.5344 53.3531V55.0977C20.5344 55.4232 20.786 55.6871 21.0963 55.6871C21.4066 55.6871 21.6582 55.4232 21.6582 55.0977V51.9301C21.6582 51.6916 21.5213 51.4768 21.3113 51.3856Z" fill="#ED1B34"/>
<path d="M15.8026 51.3407H15.775C14.7102 51.3407 13.844 52.2495 13.844 53.3666V55.1014C13.844 56.2184 14.7102 57.1272 15.775 57.1272H15.8026C16.8673 57.1272 17.7336 56.2184 17.7336 55.1014V53.3666C17.7336 52.2496 16.8674 51.3407 15.8026 51.3407ZM16.6099 55.1015C16.6099 55.5685 16.2478 55.9484 15.8027 55.9484H15.775C15.3299 55.9484 14.9677 55.5685 14.9677 55.1015V53.3666C14.9677 52.8996 15.3299 52.5196 15.775 52.5196H15.8027C16.2478 52.5196 16.6099 52.8996 16.6099 53.3666V55.1015Z" fill="#ED1B34"/>
<path d="M1.51774 41.6017C1.51774 41.8572 1.7151 42.0642 1.95852 42.0642C2.20196 42.0642 2.39931 41.8572 2.39931 41.6017V37.9869C2.39931 37.7999 2.29193 37.6313 2.1272 37.5597C1.96259 37.4882 1.77293 37.5277 1.64686 37.66L0.529984 38.8317C0.357844 39.0123 0.357844 39.3051 0.529984 39.4857C0.702124 39.6663 0.981229 39.6663 1.15331 39.4857L1.51774 39.1033V41.6017Z" fill="#ED1B34"/>
<path d="M6.48504 40.4749V39.1138C6.48504 38.2375 5.80546 37.5245 4.97016 37.5245H4.94847C4.11316 37.5245 3.43359 38.2375 3.43359 39.1138V40.4749C3.43359 41.3512 4.11316 42.0642 4.94847 42.0642H4.97016C5.80546 42.0642 6.48504 41.3512 6.48504 40.4749ZM5.60347 40.4749C5.60347 40.8413 5.31938 41.1394 4.97016 41.1394H4.94847C4.59925 41.1394 4.31516 40.8413 4.31516 40.4749V39.1138C4.31516 38.7475 4.59925 38.4494 4.94847 38.4494H4.97016C5.31938 38.4494 5.60347 38.7475 5.60347 39.1138V40.4749Z" fill="#ED1B34"/>
<path d="M52.7114 41.8886L63.2597 40.7566L59.276 51.3407" stroke="black"/>
<path d="M53.0483 41.3791L66.963 63.2266L70.8905 54.6234L73.9203 39.3981L63.316 40.6999" stroke="black"/>
<path d="M51.365 59.6609L59.22 51.0012L58.3224 69.2264L64.4942 58.9252" stroke="black"/>
<path d="M45.9285 49.6422L63.4279 40.7566L70.778 54.9632L59.1076 51.2276" stroke="black"/>
<path d="M52.936 41.8885L51.1967 59.7174L40.6484 61.4721L45.799 49.773" stroke="black"/>
<path d="M52.7601 41.8804H40.2129L45.8423 49.9475" stroke="black"/>
<path d="M51.0459 59.5178L51.3888 69.0628L64.4846 58.8262" stroke="black"/>
<path d="M52.9658 41.6038L58.8623 31.4364L63.1819 40.5663" stroke="black"/>
<path d="M52.7956 44.1526C53.9887 44.1526 54.9558 43.177 54.9558 41.9735C54.9558 40.77 53.9887 39.7944 52.7956 39.7944C51.6026 39.7944 50.6355 40.77 50.6355 41.9735C50.6355 43.177 51.6026 44.1526 52.7956 44.1526Z" fill="#323232"/>
<path d="M59.1627 52.7345C59.9645 52.7345 60.6145 52.0789 60.6145 51.27C60.6145 50.4612 59.9645 49.8055 59.1627 49.8055C58.3609 49.8055 57.7109 50.4612 57.7109 51.27C57.7109 52.0789 58.3609 52.7345 59.1627 52.7345Z" fill="#323232"/>
<path d="M51.1684 61.8683C52.3614 61.8683 53.3286 60.8927 53.3286 59.6892C53.3286 58.4857 52.3614 57.5101 51.1684 57.5101C49.9754 57.5101 49.0083 58.4857 49.0083 59.6892C49.0083 60.8927 49.9754 61.8683 51.1684 61.8683Z" fill="#323232"/>
<path d="M45.7121 50.895C46.3087 50.895 46.7922 50.4072 46.7922 49.8055C46.7922 49.2038 46.3087 48.7159 45.7121 48.7159C45.1156 48.7159 44.6321 49.2038 44.6321 49.8055C44.6321 50.4072 45.1156 50.895 45.7121 50.895Z" fill="#323232"/>
<path d="M64.396 60.0092C64.9925 60.0092 65.4761 59.5214 65.4761 58.9196C65.4761 58.3179 64.9925 57.8301 64.396 57.8301C63.7995 57.8301 63.3159 58.3179 63.3159 58.9196C63.3159 59.5214 63.7995 60.0092 64.396 60.0092Z" fill="#323232"/>
<path d="M71.0531 56.5013C72.0408 56.5013 72.8416 55.6936 72.8416 54.6972C72.8416 53.7008 72.0408 52.8931 71.0531 52.8931C70.0654 52.8931 69.2646 53.7008 69.2646 54.6972C69.2646 55.6936 70.0654 56.5013 71.0531 56.5013Z" fill="#323232"/>
<path d="M63.3159 41.8445C63.9124 41.8445 64.396 41.3567 64.396 40.755C64.396 40.1532 63.9124 39.6654 63.3159 39.6654C62.7194 39.6654 62.2358 40.1532 62.2358 40.755C62.2358 41.3567 62.7194 41.8445 63.3159 41.8445Z" fill="#323232"/>
<path d="M36.4103 25.3724L43.325 21.6711L56.731 27.7924L70.2466 21.6711L87.5156 32.3319L70.933 42.4861L56.731 33.3441L41.0672 42.3124V60.2489L55.8843 68.5054V87.7227L24.5566 69.5019V46.2983L36.4103 40.3195V25.3724Z" fill="#ED1B34"/>
<path d="M56.7615 7.25726L38.3977 0.03125L43.1202 18.2251L56.7615 23.6801V7.25726Z" fill="#30CA4C"/>
<path d="M56.7615 7.25726L75.1253 0.03125L70.267 17.7649L56.7615 23.6801V7.25726Z" fill="#3A7F0D"/>
<path d="M87.4808 70.2137V32.2678L70.9114 42.482V59.5652L55.8596 68.5507V87.7509L87.4808 70.2137Z" fill="#B0101E"/>
<path d="M120.357 41.5668C118.829 41.5668 117.59 42.8932 117.59 44.5341V46.546C117.59 48.184 118.829 49.5133 120.357 49.5133H127.489C128.649 49.5133 129.59 50.5223 129.59 51.7656C129.59 53.0119 128.649 54.0208 127.489 54.0208H120.357C118.829 54.0208 117.59 55.3472 117.59 56.9881V63.5371C117.59 64.8962 116.562 66 115.295 66C114.028 66 113 64.8962 113 63.5371V39.9674C113 38.3264 114.239 37 115.767 37H128.871C130.058 37 131.015 38.0386 131 39.3116C130.985 40.5608 130.036 41.5668 128.871 41.5668H120.357Z" fill="#B0101E"/>
<path d="M141.705 56.5442V63.6937C141.705 64.9681 140.651 66 139.352 66C138.053 66 137 64.9681 137 63.6937V46.3196C137 45.0482 138.053 44.0162 139.352 44.0162H140.801C141.3 44.0162 141.705 44.4125 141.705 44.9003C141.705 45.8199 143.204 46.2782 143.913 45.678C144.188 45.4444 144.477 45.2256 144.781 45.0216C145.378 44.6313 145.988 44.3237 146.61 44.102C147.843 43.6614 148.957 44.714 148.973 45.9973L149 48.0936C149.002 48.2237 148.895 48.3302 148.762 48.3302C146.47 48.3302 144.721 49.0576 143.514 50.5153C142.308 51.973 141.705 53.9836 141.705 56.5442Z" fill="#B0101E"/>
<path d="M174 53.5396C174 55.1938 172.729 56.5363 171.16 56.5363H160.488C158.836 56.5363 157.482 58.1515 158.552 59.4791C158.827 59.8207 159.152 60.1384 159.527 60.4291C160.814 61.427 162.308 61.9274 164.011 61.9274C165.799 61.9274 167.285 61.5379 168.47 60.7587C169.405 60.1444 170.701 60.0665 171.446 60.9205C172.085 61.6547 172.085 62.8025 171.342 63.4168C169.263 65.1369 166.706 66 163.67 66C160.643 66 158.108 64.9422 156.065 62.8235C154.021 60.7078 153 57.9148 153 54.4386C153 51.0463 154.041 48.2893 156.122 46.1736C158.203 44.0579 160.719 43 163.67 43C166.622 43 169.081 43.938 171.049 45.8139C173.016 47.6929 174 50.1862 174 53.3028V53.5396ZM166.733 52.8233C168.302 52.8233 169.689 51.3879 168.947 49.9315C168.688 49.422 168.348 48.9695 167.927 48.5709C166.868 47.5311 165.486 47.0127 163.784 47.0127C162.081 47.0127 160.587 47.5521 159.3 48.6309C158.834 49.0325 158.455 49.479 158.163 49.9704C157.33 51.3729 158.698 52.8233 160.267 52.8233H166.733Z" fill="#B0101E"/>
<path d="M188.371 66C185.632 66 183.119 65.2478 180.829 63.7465C179.955 63.1741 179.76 61.9364 180.301 61.0014C180.925 59.9226 182.269 59.6769 183.293 60.3092C185.043 61.388 186.773 61.9274 188.482 61.9274C189.447 61.9274 190.208 61.6877 190.765 61.2082C191.359 60.6898 191.656 60.0485 191.656 59.2903C191.656 58.1935 190.336 57.2136 187.695 56.3475C187.589 56.3145 187.486 56.2666 187.383 56.2246C187.362 56.2156 187.339 56.2066 187.316 56.1976C187.277 56.1827 187.224 56.1587 187.185 56.1407C187.114 56.1108 187.051 56.1048 186.978 56.0838C182.746 54.8431 180.63 52.7574 180.63 49.8266C180.63 47.7528 181.354 46.0956 182.802 44.858C184.287 43.6203 186.236 43 188.649 43C190.525 43 192.332 43.4735 194.069 44.4205C194.877 44.858 195.138 45.9338 194.732 46.8059C194.252 47.8368 193.041 48.1664 192.047 47.7259C190.875 47.2104 189.631 46.9527 188.315 46.9527C185.976 46.9527 184.806 47.7528 184.806 49.3501C184.806 50.0274 185.029 50.5278 185.475 50.8455C185.957 51.1242 186.737 51.4059 187.814 51.6846C189.447 52.164 190.821 52.6435 191.935 53.123C192.677 53.4826 193.327 53.8602 193.884 54.2588C195.294 55.2986 196 56.8749 196 58.9906C196 61.0674 195.276 62.7635 193.828 64.0821C192.417 65.3617 190.598 66 188.371 66Z" fill="#B0101E"/>
<path d="M207.321 63.6689C207.321 64.957 206.354 66 205.16 66C203.967 66 203 64.957 203 63.6689V37.3281C203 36.043 203.967 35 205.16 35C206.354 35 207.321 36.043 207.321 37.3281V43.3201C207.321 44.4318 209.246 45.158 210.146 44.6171C211.401 43.8191 212.749 43.4217 214.189 43.4217C216.59 43.4217 218.492 44.1987 219.895 45.7497C221.298 47.3038 222 49.5153 222 52.3813V63.6391C222 64.9421 221.02 66 219.812 66C218.603 66 217.624 64.9421 217.624 63.6391V53.8158C217.624 49.7125 216.054 47.6624 212.916 47.6624C211.327 47.6624 209.998 48.2212 208.927 49.336C207.856 50.4089 207.321 51.942 207.321 53.9353V63.6689Z" fill="#B0101E"/>
<path d="M246.894 66C243.984 66 241.314 65.2478 238.881 63.7465C237.953 63.1741 237.745 61.9364 238.32 61.0014C238.983 59.9226 240.411 59.6769 241.499 60.3092C243.358 61.388 245.196 61.9274 247.012 61.9274C248.038 61.9274 248.846 61.6877 249.438 61.2082C250.069 60.6898 250.385 60.0485 250.385 59.2903C250.385 58.1935 248.982 57.2136 246.175 56.3475C246.064 56.3145 245.954 56.2666 245.845 56.2246C245.822 56.2156 245.798 56.2066 245.773 56.1976C245.731 56.1827 245.675 56.1587 245.635 56.1407C245.559 56.1108 245.492 56.1048 245.414 56.0838C240.917 54.8431 238.669 52.7574 238.669 49.8266C238.669 47.7528 239.438 46.0956 240.977 44.858C242.554 43.6203 244.626 43 247.189 43C249.183 43 251.103 43.4735 252.949 44.4205C253.807 44.858 254.084 45.9338 253.653 46.8059C253.143 47.8368 251.856 48.1664 250.8 47.7259C249.555 47.2104 248.233 46.9527 246.834 46.9527C244.349 46.9527 243.107 47.7528 243.107 49.3501C243.107 50.0274 243.343 50.5278 243.817 50.8455C244.33 51.1242 245.158 51.4059 246.302 51.6846C248.038 52.164 249.497 52.6435 250.681 53.123C251.47 53.4826 252.16 53.8602 252.751 54.2588C254.25 55.2986 255 56.8749 255 58.9906C255 61.0674 254.231 62.7635 252.692 64.0821C251.193 65.3617 249.26 66 246.894 66Z" fill="#B0101E"/>
<path d="M259 54.4985C259 51.1452 260.101 48.3911 262.303 46.2335C264.505 44.0788 267.22 43 270.447 43C272.959 43 275.166 43.7192 277.065 45.1547C277.958 45.8319 278.011 47.1565 277.32 48.0555C276.553 49.0564 275.163 49.1493 274.108 48.505C272.877 47.7499 271.638 47.3722 270.39 47.3722C268.492 47.3722 266.859 48.0315 265.492 49.3501C264.164 50.6267 263.499 52.2839 263.499 54.3187C263.499 56.3954 264.164 58.1545 265.492 59.59C266.859 60.9894 268.53 61.6877 270.504 61.6877C271.924 61.6877 273.295 61.2022 274.617 60.2313C275.512 59.572 276.759 59.575 277.497 60.4201C278.202 61.2262 278.176 62.4878 277.356 63.1591C275.04 65.053 272.528 66 269.821 66C266.783 66 264.22 64.9422 262.132 62.8235C260.044 60.6688 259 57.8938 259 54.4985Z" fill="#B0101E"/>
<path d="M302 63.5127C302 64.6874 301.034 65.6404 299.842 65.6404H298.495C298.047 65.6404 297.684 65.2808 297.684 64.8403C297.684 64.0941 296.682 63.7105 296.078 64.16C294.434 65.3857 292.457 66 290.146 66C287.755 66 285.789 65.3407 284.249 64.0221C282.75 62.6646 282 60.9085 282 58.7509C282 56.5962 282.811 54.96 284.432 53.8422C286.053 52.7214 288.282 52.1641 291.119 52.1641H296.468C296.938 52.1641 297.319 51.7894 297.319 51.3249C297.319 48.3702 295.637 46.8928 292.274 46.8928C290.66 46.8928 288.999 47.3393 287.29 48.2263C286.381 48.6998 285.231 48.511 284.634 47.6869C284.045 46.8748 284.204 45.736 285.064 45.2116C287.469 43.7372 290.095 43 292.942 43C295.739 43 297.947 43.6983 299.569 45.0977C301.19 46.4553 302 48.511 302 51.265V63.5127ZM297.258 57.3154C297.258 56.2906 296.415 55.4575 295.374 55.4575H291.909C288.464 55.4575 286.742 56.5153 286.742 58.631C286.742 59.7098 287.167 60.5489 288.018 61.1483C288.869 61.7057 290.065 61.9874 291.605 61.9874C293.186 61.9874 294.523 61.5678 295.617 60.7287C296.711 59.8507 297.258 58.7119 297.258 57.3154Z" fill="#B0101E"/>
<path d="M314.321 63.7287C314.321 64.9837 313.354 66 312.16 66C310.967 66 310 64.9837 310 63.7287V46.6179C310 45.3657 310.967 44.3494 312.16 44.3494H313.554C313.977 44.3494 314.321 44.7105 314.321 45.1561C314.321 45.986 315.581 46.4111 316.196 45.887C316.508 45.622 316.844 45.3803 317.201 45.1648C318.457 44.3873 319.786 44 321.189 44C323.59 44 325.492 44.7571 326.895 46.2684C328.298 47.7827 329 49.9375 329 52.7301V63.6995C329 64.9692 328.02 66 326.812 66C325.603 66 324.624 64.9692 324.624 63.6995V54.1279C324.624 50.1297 323.054 48.1321 319.915 48.1321C318.327 48.1321 316.998 48.6766 315.927 49.7628C314.856 50.8082 314.321 52.3021 314.321 54.2444V63.7287Z" fill="#B0101E"/>
<path d="M341.548 63.7287C341.548 64.9837 340.53 66 339.274 66C338.018 66 337 64.9837 337 63.7287V46.6179C337 45.3657 338.018 44.3494 339.274 44.3494H340.741C341.187 44.3494 341.548 44.7105 341.548 45.1561C341.548 45.986 342.875 46.4111 343.522 45.887C343.851 45.622 344.204 45.3803 344.58 45.1648C345.902 44.3873 347.301 44 348.779 44C351.305 44 353.307 44.7571 354.784 46.2684C356.262 47.7827 357 49.9375 357 52.7301V63.6995C357 64.9692 355.969 66 354.697 66C353.425 66 352.394 64.9692 352.394 63.6995V54.1279C352.394 50.1297 350.741 48.1321 347.437 48.1321C345.766 48.1321 344.366 48.6766 343.239 49.7628C342.112 50.8082 341.548 52.3021 341.548 54.2444V63.7287Z" fill="#B0101E"/>
<path d="M384 53.5396C384 55.1938 382.667 56.5363 381.025 56.5363H369.845C368.114 56.5363 366.698 58.1515 367.816 59.4791C368.105 59.8207 368.447 60.1384 368.839 60.4291C370.187 61.427 371.752 61.9274 373.537 61.9274C375.408 61.9274 376.967 61.5379 378.208 60.7587C379.186 60.1444 380.543 60.0665 381.326 60.9205C381.995 61.6547 381.995 62.8025 381.215 63.4168C379.038 65.1369 376.36 66 373.18 66C370.009 66 367.352 64.9422 365.213 62.8235C363.071 60.7078 362 57.9148 362 54.4386C362 51.0463 363.092 48.2893 365.272 46.1736C367.45 44.0579 370.086 43 373.18 43C376.271 43 378.847 43.938 380.909 45.8139C382.971 47.6929 384 50.1862 384 53.3028V53.5396ZM376.387 52.8233C378.032 52.8233 379.484 51.3879 378.708 49.9315C378.434 49.422 378.08 48.9695 377.639 48.5709C376.53 47.5311 375.081 47.0127 373.299 47.0127C371.514 47.0127 369.949 47.5521 368.601 48.6309C368.114 49.0325 367.715 49.479 367.409 49.9704C366.537 51.3729 367.971 52.8233 369.613 52.8233H376.387Z" fill="#B0101E"/>
<path d="M394.705 56.5442V63.6937C394.705 64.9681 393.652 66 392.351 66C391.053 66 390 64.9681 390 63.6937V46.3196C390 45.0482 391.053 44.0162 392.351 44.0162H393.8C394.301 44.0162 394.705 44.4125 394.705 44.9003C394.705 45.8199 396.202 46.2782 396.911 45.678C397.186 45.4444 397.476 45.2256 397.781 45.0216C398.378 44.6313 398.988 44.3237 399.61 44.102C400.841 43.6614 401.955 44.714 401.973 45.9973L402 48.0936C402 48.2237 401.894 48.3302 401.762 48.3302C399.471 48.3302 397.72 49.0576 396.513 50.5153C395.306 51.973 394.705 53.9836 394.705 56.5442Z" fill="#B0101E"/>
</svg>
