<svg viewBox="0 0 508 383" fill="none" xmlns="http://www.w3.org/2000/svg">
<g clip-path="url(#clip0)">
<path d="M220.797 110.292L223.13 111.271C226.708 112.769 228.824 114.72 230.646 116.692C228.976 117.47 227.37 118.463 225.844 119.651C222.438 122.423 220.142 125.418 218.342 129.392L215.635 135.332L222.114 134.533C226.758 133.971 229.868 135.008 232.885 136.009C234.116 136.426 235.376 136.844 236.693 137.132C236.607 137.679 236.542 138.233 236.499 138.78C236.211 142.063 236.65 145.397 237.788 148.687C239.307 152.812 241.38 155.951 244.555 158.946L246.694 160.955L249.12 159.313C252.727 156.858 255.283 154.087 257.406 150.321C258.825 147.672 259.739 144.965 260.128 142.186C261.611 142.445 263.08 142.495 264.52 142.553C267.687 142.675 270.97 142.798 275.11 144.972L280.891 148.017L280.466 141.502C280.186 137.153 279.099 133.546 276.924 129.803C275.607 127.628 274.059 125.742 272.273 124.158C272.684 123.798 273.087 123.424 273.483 123.057C275.816 120.904 278.227 118.672 282.698 117.283L288.94 115.339L285.117 111.977C306.701 118.478 313.591 137.463 313.591 158.773C313.591 188.623 285.859 212.82 251.647 212.82C217.442 212.82 189.702 188.623 189.702 158.773C189.702 136.772 197.643 115.872 220.797 110.292Z" fill="#EF0304"/>
<path d="M267.989 125.325C270.257 126.902 272.201 128.961 273.763 131.545C275.297 134.18 276.535 137.233 276.816 141.639C267.651 136.823 261.942 140.53 256.593 136.859C256.708 138.011 256.737 139.148 256.636 140.293C256.441 143.05 255.649 145.764 254.217 148.428C252.719 151.085 250.725 153.698 247.06 156.182C243.849 153.151 242.294 150.25 241.236 147.384C240.243 144.533 239.89 141.733 240.142 138.975C240.293 137.183 240.703 135.411 241.344 133.662C235.548 134.497 231.43 129.609 221.668 130.811C223.496 126.786 225.736 124.367 228.097 122.445C230.473 120.581 233.014 119.349 235.7 118.68C236.254 118.536 236.801 118.435 237.37 118.349C233.986 115.512 231.812 110.854 224.533 107.816C228.126 105.231 231.272 104.238 234.274 103.748C237.269 103.309 240.084 103.496 242.748 104.252C245.412 104.986 247.932 106.275 250.279 108.183C251.179 108.946 252.05 109.824 252.892 110.789C256.125 100.343 259.94 92.0057 260.286 91.2642L262.784 92.4233C262.705 92.6033 258.716 101.286 255.419 112.035C255.592 111.876 255.779 111.725 255.966 111.596C258.479 109.918 261.107 108.874 263.835 108.399C266.549 107.909 269.386 107.989 272.316 108.709C275.261 109.493 278.292 110.775 281.618 113.691C272.799 116.434 270.711 122.02 265.851 124.036C266.585 124.432 267.305 124.85 267.989 125.325ZM249.659 120.005C249.623 120.005 249.587 120.026 249.559 120.033C249.688 120.091 249.825 120.163 249.955 120.228C249.861 120.156 249.76 120.084 249.659 120.005Z" fill="#2A6A00"/>
</g>
<path d="M245.486 381.377C239.962 381.377 234.96 379.811 230.482 376.677C230.051 376.375 229.947 375.787 230.232 375.345L232.845 371.305C233.158 370.821 233.814 370.703 234.289 371.029C238.142 373.679 241.94 375.004 245.681 375.004C247.367 375.004 248.697 374.629 249.67 373.88C250.707 373.067 251.226 372.068 251.226 370.88C251.226 369.141 248.854 367.587 244.11 366.218C244.055 366.202 244.001 366.181 243.95 366.159C243.835 366.108 243.698 366.057 243.541 366.007C243.477 365.976 243.421 365.953 243.372 365.937C243.292 365.911 243.206 365.902 243.125 365.881C235.684 363.94 231.963 360.67 231.963 356.072C231.963 352.823 233.228 350.23 235.757 348.293C238.352 346.356 241.757 345.387 245.973 345.387C249.836 345.387 253.53 346.416 257.056 348.472C257.505 348.734 257.658 349.303 257.418 349.765L255.526 353.412C255.255 353.934 254.594 354.108 254.081 353.82C251.417 352.322 248.519 351.573 245.389 351.573C241.303 351.573 239.26 352.823 239.26 355.322C239.26 356.384 239.649 357.165 240.427 357.665C241.27 358.103 242.632 358.54 244.513 358.977C247.367 359.727 249.767 360.477 251.713 361.227C253.01 361.789 254.145 362.383 255.118 363.008C257.582 364.632 258.815 367.1 258.815 370.412C258.815 373.661 257.55 376.316 255.021 378.378C252.556 380.378 249.378 381.377 245.486 381.377Z" fill="#585858"/>
<path d="M266.956 363.382C266.956 358.134 268.836 353.823 272.598 350.449C276.36 347.074 280.998 345.387 286.511 345.387C291.632 345.387 296.008 346.989 299.64 350.191C300.034 350.538 300.064 351.136 299.726 351.539L296.494 355.397C296.139 355.821 295.508 355.873 295.069 355.535C292.211 353.331 289.326 352.229 286.413 352.229C283.17 352.229 280.381 353.26 278.046 355.322C275.776 357.322 274.641 359.915 274.641 363.101C274.641 366.35 275.776 369.1 278.046 371.349C280.381 373.536 283.235 374.629 286.608 374.629C289.709 374.629 292.673 373.388 295.5 370.905C295.916 370.539 296.55 370.55 296.933 370.951L300.017 374.18C300.401 374.582 300.384 375.223 299.966 375.589C295.559 379.448 290.718 381.377 285.44 381.377C280.252 381.377 275.874 379.722 272.306 376.41C268.739 373.036 266.956 368.693 266.956 363.382Z" fill="#585858"/>
<path d="M339.726 379.815C339.726 380.367 339.278 380.815 338.726 380.815H333.819C333.266 380.815 332.819 380.367 332.819 379.815V378.799C332.819 377.875 331.623 377.404 330.908 377.99C328.151 380.248 324.767 381.377 320.755 381.377C316.928 381.377 313.782 380.347 311.318 378.285C308.918 376.16 307.718 373.411 307.718 370.037C307.718 366.663 309.015 364.101 311.61 362.351C314.204 360.602 317.771 359.727 322.311 359.727H331.235C331.787 359.727 332.235 359.28 332.235 358.727V358.415C332.235 353.791 329.543 351.48 324.16 351.48C321.035 351.48 317.798 352.499 314.45 354.538C313.998 354.813 313.407 354.709 313.091 354.284L310.838 351.245C310.511 350.804 310.6 350.18 311.05 349.865C315.318 346.88 320.044 345.387 325.23 345.387C329.705 345.387 333.24 346.481 335.834 348.668C338.429 350.792 339.726 354.01 339.726 358.321V379.815ZM332.137 365.882C332.137 365.33 331.69 364.882 331.137 364.882H323.576C318.063 364.882 315.307 366.538 315.307 369.849C315.307 371.536 315.988 372.849 317.35 373.786C318.712 374.661 320.625 375.098 323.09 375.098C325.619 375.098 327.76 374.442 329.511 373.13C331.262 371.755 332.137 369.974 332.137 367.787V365.882Z" fill="#585858"/>
<path d="M359.915 379.815C359.915 380.367 359.467 380.815 358.915 380.815H353.326C352.774 380.815 352.326 380.367 352.326 379.815V346.95C352.326 346.398 352.774 345.95 353.326 345.95H358.915C359.467 345.95 359.915 346.398 359.915 346.95V348.512C359.915 349.534 361.456 350.017 362.193 349.308C363.014 348.517 363.941 347.835 364.974 347.262C367.179 346.012 369.514 345.387 371.978 345.387C376.194 345.387 379.534 346.606 381.999 349.043C384.464 351.48 385.696 354.947 385.696 359.446V379.815C385.696 380.367 385.248 380.815 384.696 380.815H379.01C378.458 380.815 378.01 380.367 378.01 379.815V361.695C378.01 355.26 375.254 352.042 369.741 352.042C366.952 352.042 364.617 352.917 362.736 354.666C360.855 356.353 359.915 358.759 359.915 361.883V379.815Z" fill="#585858"/>
<path d="M405.761 379.815C405.761 380.367 405.314 380.815 404.761 380.815H399.173C398.62 380.815 398.173 380.367 398.173 379.815V346.95C398.173 346.398 398.62 345.95 399.173 345.95H404.761C405.314 345.95 405.761 346.398 405.761 346.95V348.512C405.761 349.534 407.303 350.017 408.039 349.308C408.861 348.517 409.788 347.835 410.82 347.262C413.025 346.012 415.36 345.387 417.825 345.387C422.041 345.387 425.381 346.606 427.846 349.043C430.31 351.48 431.543 354.947 431.543 359.446V379.815C431.543 380.367 431.095 380.815 430.543 380.815H424.857C424.305 380.815 423.857 380.367 423.857 379.815V361.695C423.857 355.26 421.1 352.042 415.587 352.042C412.798 352.042 410.464 352.917 408.583 354.666C406.702 356.353 405.761 358.759 405.761 361.883V379.815Z" fill="#585858"/>
<path d="M477.681 365.569C477.681 366.121 477.233 366.569 476.681 366.569H450.354C449.771 366.569 449.305 367.068 449.424 367.639C449.841 369.654 450.991 371.328 452.873 372.661C455.078 374.223 457.64 375.004 460.558 375.004C464.674 375.004 467.858 373.906 470.108 371.709C470.537 371.291 471.235 371.262 471.648 371.696L474.579 374.77C474.952 375.162 474.948 375.781 474.55 376.147C470.755 379.634 465.896 381.377 459.975 381.377C454.786 381.377 450.44 379.722 446.938 376.41C443.436 373.099 441.684 368.725 441.684 363.289C441.684 357.978 443.468 353.666 447.035 350.355C450.603 347.043 454.916 345.387 459.975 345.387C465.034 345.387 469.249 346.856 472.622 349.792C475.995 352.729 477.681 356.634 477.681 361.508V365.569ZM469.093 360.758C469.645 360.758 470.098 360.309 470.051 359.759C469.85 357.416 468.924 355.531 467.271 354.104C465.455 352.479 463.088 351.667 460.169 351.667C457.251 351.667 454.689 352.51 452.483 354.198C450.615 355.671 449.562 357.525 449.325 359.76C449.266 360.309 449.721 360.758 450.273 360.758H469.093Z" fill="#585858"/>
<path d="M495.611 365.819V379.815C495.611 380.367 495.164 380.815 494.611 380.815H489.023C488.471 380.815 488.023 380.367 488.023 379.815V346.95C488.023 346.398 488.471 345.95 489.023 345.95H494.611C495.164 345.95 495.611 346.398 495.611 346.95V349.074C495.611 350.102 497.154 350.568 497.86 349.82C498.666 348.966 499.57 348.207 500.573 347.543C502.403 346.368 504.303 345.672 506.275 345.456C506.829 345.395 507.292 345.844 507.299 346.401L507.378 352.403C507.381 352.617 507.208 352.792 506.994 352.792C503.297 352.792 500.476 353.948 498.53 356.259C496.584 358.571 495.611 361.758 495.611 365.819Z" fill="#585858"/>
<path d="M9.07492 343.823C8.52264 343.823 8.07492 344.271 8.07492 344.823V355.382C8.07492 355.935 8.52264 356.382 9.07492 356.382H28.1865C28.7387 356.382 29.1865 356.83 29.1865 357.382V362.505C29.1865 363.058 28.7387 363.505 28.1865 363.505H9.07492C8.52264 363.505 8.07492 363.953 8.07492 364.505V381.438C8.07492 381.99 7.62721 382.438 7.07492 382.438H1C0.447715 382.438 0 381.99 0 381.438V337.607C0 337.054 0.447715 336.607 1 336.607H30.7024C31.2599 336.607 31.7098 337.063 31.7023 337.62L31.632 342.837C31.6246 343.384 31.1791 343.823 30.6321 343.823H9.07492Z" fill="#585858"/>
<path d="M49.6002 367.442V381.438C49.6002 381.99 49.1525 382.438 48.6002 382.438H43.0117C42.4595 382.438 42.0117 381.99 42.0117 381.438V348.572C42.0117 348.02 42.4595 347.572 43.0117 347.572H48.6002C49.1525 347.572 49.6002 348.02 49.6002 348.572V350.696C49.6002 351.725 51.143 352.19 51.8492 351.442C52.655 350.589 53.5593 349.83 54.5619 349.166C56.3914 347.991 58.292 347.295 60.2637 347.079C60.818 347.018 61.2808 347.466 61.2881 348.024L61.367 354.025C61.3698 354.239 61.197 354.414 60.9829 354.414C57.286 354.414 54.4646 355.57 52.5189 357.882C50.5731 360.194 49.6002 363.38 49.6002 367.442Z" fill="#585858"/>
<path d="M104.563 367.192C104.563 367.744 104.115 368.192 103.563 368.192H77.2358C76.6529 368.192 76.1872 368.691 76.3055 369.261C76.7232 371.277 77.8729 372.951 79.7546 374.284C81.9598 375.846 84.5217 376.627 87.4404 376.627C91.5565 376.627 94.7398 375.529 96.9905 373.332C97.4194 372.913 98.1168 372.885 98.5304 373.319L101.461 376.393C101.834 376.784 101.83 377.404 101.432 377.769C97.6365 381.256 92.778 383 86.8566 383C81.6679 383 77.3224 381.344 73.82 378.033C70.3176 374.721 68.5664 370.347 68.5664 364.911C68.5664 359.6 70.3501 355.289 73.9173 351.977C77.4845 348.666 81.7976 347.01 86.8566 347.01C91.9156 347.01 96.1314 348.478 99.5041 351.415C102.877 354.352 104.563 358.257 104.563 363.131V367.192ZM95.9746 362.381C96.5269 362.381 96.9801 361.932 96.9329 361.382C96.7321 359.039 95.8055 357.153 94.1532 355.726C92.3372 354.102 89.9698 353.29 87.0512 353.29C84.1326 353.29 81.5706 354.133 79.3654 355.82C77.4966 357.293 76.4436 359.147 76.2066 361.382C76.1483 361.932 76.6026 362.381 77.1549 362.381H95.9746Z" fill="#585858"/>
<path d="M127.358 383C121.833 383 116.832 381.433 112.353 378.299C111.923 377.998 111.818 377.409 112.104 376.968L114.717 372.927C115.03 372.443 115.685 372.325 116.16 372.652C120.014 375.302 123.811 376.627 127.552 376.627C129.239 376.627 130.568 376.252 131.541 375.502C132.579 374.69 133.098 373.69 133.098 372.503C133.098 370.764 130.726 369.209 125.981 367.841C125.927 367.825 125.873 367.804 125.821 367.781C125.706 367.731 125.57 367.68 125.412 367.629C125.348 367.599 125.292 367.575 125.244 367.56C125.164 367.534 125.078 367.525 124.996 367.503C117.555 365.562 113.835 362.293 113.835 357.695C113.835 354.445 115.099 351.852 117.629 349.915C120.223 347.978 123.628 347.01 127.844 347.01C131.707 347.01 135.402 348.038 138.928 350.094C139.376 350.356 139.529 350.926 139.29 351.387L137.397 355.034C137.126 355.557 136.465 355.731 135.952 355.442C133.288 353.945 130.391 353.196 127.26 353.196C123.174 353.196 121.131 354.445 121.131 356.945C121.131 358.007 121.52 358.788 122.299 359.288C123.142 359.725 124.504 360.163 126.385 360.6C129.239 361.35 131.638 362.1 133.584 362.849C134.881 363.412 136.016 364.005 136.989 364.63C139.454 366.255 140.686 368.723 140.686 372.034C140.686 375.283 139.421 377.939 136.892 380.001C134.427 382 131.249 383 127.358 383Z" fill="#585858"/>
<path d="M158.848 381.438C158.848 381.99 158.4 382.438 157.848 382.438H152.259C151.707 382.438 151.259 381.99 151.259 381.438V334.795C151.259 334.243 151.707 333.795 152.259 333.795H157.848C158.4 333.795 158.848 334.243 158.848 334.795V349.754C158.848 350.801 160.555 351.323 161.331 350.62C162.061 349.96 162.887 349.381 163.809 348.884C166.015 347.635 168.382 347.01 170.911 347.01C175.127 347.01 178.468 348.228 180.932 350.665C183.397 353.102 184.629 356.57 184.629 361.069V381.438C184.629 381.99 184.181 382.438 183.629 382.438H177.943C177.391 382.438 176.943 381.99 176.943 381.438V363.318C176.943 356.882 174.187 353.664 168.674 353.664C165.885 353.664 163.55 354.539 161.669 356.289C159.788 357.976 158.848 360.381 158.848 363.505V381.438Z" fill="#585858"/>
<path d="M396.189 156.666C396.189 235.58 332.216 299.552 253.302 299.552C174.388 299.552 110.416 235.58 110.416 156.666C110.416 77.752 174.388 13.7795 253.302 13.7795C332.216 13.7795 396.189 77.752 396.189 156.666ZM114.142 156.666C114.142 233.522 176.446 295.827 253.302 295.827C330.159 295.827 392.463 233.522 392.463 156.666C392.463 79.8096 330.159 17.5052 253.302 17.5052C176.446 17.5052 114.142 79.8096 114.142 156.666Z" fill="#292929"/>
<path d="M143.501 126.114L147.197 242.555L219.279 248.716L273.495 275.823L328.327 248.716V102.087L245.771 30.0043L189.707 44.7904L137.34 61.4248" stroke="#585858" stroke-width="2"/>
<path d="M143.501 126.114L147.197 242.555L219.279 248.716L273.495 275.823L328.327 248.716V102.087L245.771 30.0043L189.707 44.7904L137.34 61.4248" stroke="url(#paint0_linear)" stroke-width="2"/>
<path d="M115.918 184.298L142.946 126.47L178.146 95.0414L189.46 44.1276L246.021 29.8678L299.88 50.3043L347.614 36.9522" stroke="#585858" stroke-width="1.5"/>
<path d="M363.348 128.739L329.167 101.679L392.306 94.5583" stroke="#585858" stroke-width="1.5"/>
<path d="M177.73 95.9828L172.034 192.827L143.075 127.315L140.227 54.2069" stroke="#585858" stroke-width="1.5"/>
<path d="M177.73 95.9828L172.034 192.827L143.075 127.315L140.227 54.2069" stroke="url(#paint1_linear)" stroke-width="1.5"/>
<path d="M274.1 275.905L347.208 191.403L363.349 129.214L401.701 167.063L328.219 248.845L340.562 275.905" stroke="#585858" stroke-width="1.5"/>
<path d="M274.1 275.905L347.208 191.403L363.349 129.214L401.701 167.063L328.219 248.845L340.562 275.905" stroke="url(#paint2_linear)" stroke-width="1.5"/>
<path d="M177.367 94.173L298.7 49.1908L329.478 101.867L343.683 32.6184" stroke="#585858" stroke-width="1.5"/>
<path d="M177.367 94.173L298.7 49.1908L329.478 101.867L343.683 32.6184" stroke="url(#paint3_linear)" stroke-width="1.5"/>
<path d="M300.477 50.3738L292.783 11.3103L244.249 30.842L221.499 13.1393L189.205 43.8632" stroke="#585858" stroke-width="1.5"/>
<path d="M300.477 50.3738L292.783 11.3103L244.249 30.842L221.499 13.1393L189.205 43.8632" stroke="url(#paint4_linear)" stroke-width="1.5"/>
<path d="M119.955 222.609L172.631 191.831L217.613 247.467L202.817 291.858L273.249 277.061L283.311 299.552" stroke="#585858" stroke-width="1.5"/>
<path d="M119.955 222.609L172.631 191.831L217.613 247.467L202.817 291.858L273.249 277.061L283.311 299.552" stroke="url(#paint5_linear)" stroke-width="1.5"/>
<path d="M347.177 190.293L399.609 181.218" stroke="#585858" stroke-width="1.5"/>
<circle cx="178.129" cy="94.5589" r="6.89777" fill="#323232"/>
<circle cx="218.814" cy="250.3" r="6.89777" fill="#323232"/>
<circle cx="329.735" cy="248.57" r="6.89777" fill="#323232"/>
<circle cx="299.512" cy="50.6909" r="5.63769" fill="#323232"/>
<circle cx="190.663" cy="46.3133" r="6.89777" fill="#323232"/>
<circle cx="329.736" cy="99.1996" r="7.88316" fill="#323232"/>
<circle cx="143.138" cy="127.366" r="11.8247" fill="#323232"/>
<circle cx="363.465" cy="129.762" r="11.8247" fill="#323232"/>
<circle cx="346.984" cy="190.584" r="9.42859" fill="#323232"/>
<circle cx="274.1" cy="275.823" r="11.8247" fill="#323232"/>
<circle cx="244.84" cy="30.0037" r="11.8247" fill="#323232"/>
<circle cx="115.918" cy="185.275" r="9.42859" fill="#323232"/>
<circle cx="170.76" cy="192.644" r="7.36855" fill="#323232"/>
<circle cx="147.596" cy="241.671" r="7.36855" fill="#323232"/>
<path d="M408.994 155.692C408.994 241.679 339.288 311.385 253.302 311.385C167.315 311.385 97.6095 241.679 97.6095 155.692C97.6095 69.7059 167.315 0 253.302 0C339.288 0 408.994 69.7059 408.994 155.692ZM111.792 155.692C111.792 233.846 175.148 297.203 253.302 297.203C331.456 297.203 394.812 233.846 394.812 155.692C394.812 77.5384 331.456 14.1821 253.302 14.1821C175.148 14.1821 111.792 77.5384 111.792 155.692Z" fill="#585858"/>
<defs>
<linearGradient id="paint0_linear" x1="148.079" y1="47.6744" x2="402.638" y2="193.575" gradientUnits="userSpaceOnUse">
<stop/>
<stop offset="1" stop-color="#6A6A6A" stop-opacity="0"/>
</linearGradient>
<linearGradient id="paint1_linear" x1="142.336" y1="64.1713" x2="206.199" y2="76.9173" gradientUnits="userSpaceOnUse">
<stop/>
<stop offset="1" stop-color="#6A6A6A" stop-opacity="0"/>
</linearGradient>
<linearGradient id="paint2_linear" x1="281.495" y1="139.759" x2="443.494" y2="246.89" gradientUnits="userSpaceOnUse">
<stop/>
<stop offset="1" stop-color="#6A6A6A" stop-opacity="0"/>
</linearGradient>
<linearGradient id="paint3_linear" x1="186.719" y1="37.5962" x2="257.869" y2="163.656" gradientUnits="userSpaceOnUse">
<stop/>
<stop offset="1" stop-color="#6A6A6A" stop-opacity="0"/>
</linearGradient>
<linearGradient id="paint4_linear" x1="195.462" y1="10.8224" x2="237.291" y2="91.3949" gradientUnits="userSpaceOnUse">
<stop/>
<stop offset="1" stop-color="#6A6A6A" stop-opacity="0"/>
</linearGradient>
<linearGradient id="paint5_linear" x1="129.14" y1="199.575" x2="257.612" y2="343.297" gradientUnits="userSpaceOnUse">
<stop/>
<stop offset="1" stop-color="#6A6A6A" stop-opacity="0"/>
</linearGradient>
<clipPath id="clip0">
<rect width="123.889" height="123.889" fill="white" transform="translate(189.702 90.1011)"/>
</clipPath>
</defs>
</svg>
