<svg viewBox="0 0 695 322" fill="none" xmlns="http://www.w3.org/2000/svg">
<path opacity="0.15" d="M476.765 162.505L478.589 160.652V172.76C478.589 173.997 479.576 175.001 480.795 175.001C482.013 175.001 483 173.997 483 172.76V155.242C483 154.335 482.463 153.518 481.639 153.171C480.815 152.825 479.866 153.016 479.235 153.657L473.646 159.336C472.785 160.211 472.785 161.63 473.646 162.505C474.508 163.38 475.904 163.38 476.765 162.505Z" fill="#ED1B34"/>
<path opacity="0.15" d="M494.553 153H494.447C490.341 153 487 156.455 487 160.702V167.298C487 171.545 490.341 175 494.447 175H494.553C495.75 175 496.72 173.997 496.72 172.759C496.72 171.521 495.75 170.518 494.553 170.518H494.447C492.73 170.518 491.334 169.073 491.334 167.298V160.702C491.334 158.927 492.73 157.482 494.447 157.482H494.553C496.27 157.482 497.666 158.927 497.666 160.702C497.666 161.94 498.637 162.943 499.833 162.943C501.03 162.943 502 161.94 502 160.702C502 156.455 498.66 153 494.553 153Z" fill="#ED1B34"/>
<path opacity="0.3" d="M471.05 218H470.95C467.118 218 464 221.141 464 225.002V230.998C464 234.859 467.118 238 470.95 238H471.05C474.882 238 478 234.859 478 230.998V225.002C478 221.141 474.882 218 471.05 218ZM473.956 230.999C473.956 232.613 472.652 233.926 471.05 233.926H470.951C469.348 233.926 468.045 232.613 468.045 230.999V225.002C468.045 223.388 469.348 222.075 470.951 222.075H471.05C472.652 222.075 473.956 223.388 473.956 225.002V230.999Z" fill="#ED1B34"/>
<path opacity="0.25" d="M597 114.998V109.002C597 105.141 593.882 102 590.05 102H589.95C586.118 102 583 105.141 583 109.002V114.998C583 118.859 586.118 122 589.95 122H590.05C593.882 122 597 118.859 597 114.998ZM592.955 114.998C592.955 116.612 591.652 117.926 590.05 117.926H589.95C588.348 117.926 587.045 116.612 587.045 114.998V109.002C587.045 107.388 588.348 106.075 589.95 106.075H590.05C591.652 106.075 592.955 107.388 592.955 109.002V114.998Z" fill="#ED1B34"/>
<path opacity="0.35" d="M580.965 281.276L582.885 279.272V292.363C582.885 293.701 583.925 294.785 585.208 294.785C586.491 294.785 587.53 293.701 587.53 292.363V273.423C587.53 272.443 586.965 271.559 586.097 271.185C585.229 270.809 584.23 271.017 583.566 271.71L577.68 277.849C576.773 278.795 576.773 280.33 577.68 281.276C578.587 282.221 580.058 282.221 580.965 281.276Z" fill="#ED1B34"/>
<path opacity="0.1" d="M257.765 309.505L259.589 307.652V319.76C259.589 320.997 260.576 322.001 261.795 322.001C263.013 322.001 264 320.997 264 319.76V302.242C264 301.335 263.463 300.518 262.639 300.171C261.815 299.825 260.866 300.016 260.235 300.657L254.646 306.336C253.785 307.211 253.785 308.63 254.646 309.505C255.508 310.38 256.904 310.38 257.765 309.505Z" fill="#ED1B34"/>
<path opacity="0.1" d="M275.553 300H275.447C271.341 300 268 303.455 268 307.702V314.298C268 318.545 271.341 322 275.447 322H275.553C276.75 322 277.72 320.997 277.72 319.759C277.72 318.521 276.75 317.518 275.553 317.518H275.447C273.73 317.518 272.334 316.073 272.334 314.298V307.702C272.334 305.927 273.73 304.482 275.447 304.482H275.553C277.27 304.482 278.666 305.927 278.666 307.702C278.666 308.94 279.637 309.943 280.833 309.943C282.03 309.943 283 308.94 283 307.702C283 303.455 279.66 300 275.553 300Z" fill="#ED1B34"/>
<path opacity="0.3" d="M502.05 302H501.95C498.118 302 495 305.141 495 309.002V314.998C495 318.859 498.118 322 501.95 322H502.05C505.882 322 509 318.859 509 314.998V309.002C509 305.141 505.882 302 502.05 302ZM504.956 314.999C504.956 316.613 503.652 317.926 502.05 317.926H501.951C500.348 317.926 499.045 316.613 499.045 314.999V309.002C499.045 307.388 500.348 306.075 501.951 306.075H502.05C503.652 306.075 504.956 307.388 504.956 309.002V314.999Z" fill="#ED1B34"/>
<path opacity="0.25" d="M694.142 110.519V103.36C694.142 98.7503 690.547 95 686.128 95H686.014C681.595 95 678 98.7503 678 103.36V110.519C678 115.128 681.595 118.879 686.014 118.879H686.128C690.547 118.879 694.142 115.128 694.142 110.519ZM689.479 110.519C689.479 112.446 687.976 114.014 686.128 114.014H686.014C684.166 114.014 682.663 112.446 682.663 110.519V103.36C682.663 101.433 684.166 99.865 686.014 99.865H686.128C687.976 99.865 689.479 101.433 689.479 103.36V110.519Z" fill="#ED1B34"/>
<path opacity="0.25" d="M577.965 182.276L579.885 180.272V193.363C579.885 194.701 580.925 195.785 582.208 195.785C583.491 195.785 584.53 194.701 584.53 193.363V174.423C584.53 173.443 583.965 172.559 583.097 172.185C582.229 171.809 581.23 172.017 580.566 172.71L574.68 178.849C573.773 179.795 573.773 181.33 574.68 182.276C575.587 183.221 577.058 183.221 577.965 182.276Z" fill="#ED1B34"/>
<path opacity="0.15" d="M515.638 97.1755C514.815 96.8187 513.866 97.016 513.235 97.6754L507.646 103.517C506.785 104.418 506.785 105.878 507.646 106.777C508.508 107.678 509.904 107.678 510.765 106.777L512.589 104.871V111.695C512.589 112.968 513.576 114 514.794 114C516.012 114 517 112.968 517 111.695V99.3055C517 98.3726 516.463 97.5324 515.638 97.1755Z" fill="#ED1B34"/>
<path opacity="0.05" d="M153.765 109.505L155.589 107.652V119.76C155.589 120.997 156.576 122.001 157.795 122.001C159.013 122.001 160 120.997 160 119.76V102.242C160 101.335 159.463 100.518 158.639 100.171C157.815 99.8247 156.866 100.016 156.235 100.657L150.646 106.336C149.785 107.211 149.785 108.63 150.646 109.505C151.508 110.38 152.904 110.38 153.765 109.505Z" fill="#ED1B34"/>
<path opacity="0.05" d="M171.553 100H171.447C167.341 100 164 103.455 164 107.702V114.298C164 118.545 167.341 122 171.447 122H171.553C172.75 122 173.72 120.997 173.72 119.759C173.72 118.521 172.75 117.518 171.553 117.518H171.447C169.73 117.518 168.334 116.073 168.334 114.298V107.702C168.334 105.927 169.73 104.482 171.447 104.482H171.553C173.27 104.482 174.666 105.927 174.666 107.702C174.666 108.94 175.637 109.943 176.833 109.943C178.03 109.943 179 108.94 179 107.702C179 103.455 175.66 100 171.553 100Z" fill="#ED1B34"/>
<path opacity="0.05" d="M172.05 230H171.95C168.118 230 165 233.141 165 237.002V242.998C165 246.859 168.118 250 171.95 250H172.05C175.882 250 179 246.859 179 242.998V237.002C179 233.141 175.882 230 172.05 230ZM174.956 242.999C174.956 244.613 173.652 245.926 172.05 245.926H171.951C170.348 245.926 169.045 244.613 169.045 242.999V237.002C169.045 235.388 170.348 234.075 171.951 234.075H172.05C173.652 234.075 174.956 235.388 174.956 237.002V242.999Z" fill="#ED1B34"/>
<path opacity="0.05" d="M272.142 192.519V185.36C272.142 180.75 268.547 177 264.128 177H264.014C259.595 177 256 180.75 256 185.36V192.519C256 197.128 259.595 200.879 264.014 200.879H264.128C268.547 200.879 272.142 197.128 272.142 192.519ZM267.479 192.519C267.479 194.446 265.976 196.014 264.128 196.014H264.014C262.166 196.014 260.663 194.446 260.663 192.519V185.36C260.663 183.433 262.166 181.865 264.014 181.865H264.128C265.976 181.865 267.479 183.433 267.479 185.36V192.519Z" fill="#ED1B34"/>
<path opacity="0.05" d="M415.965 281.276L417.885 279.272V292.363C417.885 293.701 418.925 294.785 420.208 294.785C421.491 294.785 422.53 293.701 422.53 292.363V273.423C422.53 272.443 421.965 271.559 421.097 271.185C420.229 270.809 419.23 271.017 418.566 271.71L412.68 277.849C411.773 278.795 411.773 280.33 412.68 281.276C413.587 282.221 415.058 282.221 415.965 281.276Z" fill="#ED1B34"/>
<path opacity="0.15" d="M355.64 242.236C354.53 241.756 353.252 242.022 352.402 242.908L344.87 250.764C343.71 251.975 343.71 253.939 344.87 255.149C346.031 256.36 347.913 256.36 349.073 255.149L351.531 252.585V261.762C351.531 263.474 352.862 264.862 354.503 264.862C356.145 264.862 357.475 263.474 357.475 261.762V245.1C357.475 243.846 356.751 242.716 355.64 242.236Z" fill="#ED1B34"/>
<path opacity="0.05" d="M3.7652 36.5047L5.58882 34.6519V46.7597C5.58882 47.9971 6.57643 49.0007 7.79452 49.0007C9.01262 49.0007 10 47.9971 10 46.7597V29.2417C10 28.3352 9.46288 27.5182 8.6385 27.1712C7.81481 26.8247 6.86573 27.0162 6.23491 27.6572L0.645981 33.3356C-0.215327 34.2109 -0.215327 35.6299 0.645981 36.5047C1.50752 37.3798 2.90412 37.3798 3.7652 36.5047Z" fill="#ED1B34"/>
<path opacity="0.05" d="M21.5532 27H21.4466C17.3405 27 14 30.4552 14 34.7022V41.298C14 45.5448 17.3405 49 21.4466 49H21.5532C22.7498 49 23.72 47.9966 23.72 46.7589C23.72 45.5212 22.7498 44.5178 21.5532 44.5178H21.4466C19.73 44.5178 18.3336 43.0734 18.3336 41.298V34.7022C18.3336 32.9266 19.73 31.4822 21.4466 31.4822H21.5532C23.2698 31.4822 24.6664 32.9266 24.6664 34.7022C24.6664 35.9397 25.6366 36.943 26.8332 36.943C28.0298 36.943 29 35.9397 29 34.7022C29.0002 30.4552 25.6597 27 21.5532 27Z" fill="#ED1B34"/>
<path opacity="0.05" d="M22.0498 157H21.9502C18.1177 157 15 160.141 15 164.002V169.998C15 173.859 18.1177 177 21.9502 177H22.0498C25.882 177 29 173.859 29 169.998V164.002C29.0003 160.141 25.8823 157 22.0498 157ZM24.9556 169.999C24.9556 171.613 23.6523 172.926 22.0501 172.926H21.9505C20.3484 172.926 19.0448 171.613 19.0448 169.999V164.002C19.0448 162.388 20.3484 161.075 21.9505 161.075H22.0501C23.6523 161.075 24.9556 162.388 24.9556 164.002V169.999Z" fill="#ED1B34"/>
<path opacity="0.05" d="M115.142 64.5188V57.3597C115.142 52.7503 111.547 49 107.128 49H107.014C102.595 49 99 52.7503 99 57.3597V64.5188C99 69.1282 102.595 72.8785 107.014 72.8785H107.128C111.547 72.8785 115.142 69.1282 115.142 64.5188ZM110.479 64.5188C110.479 66.4461 108.976 68.014 107.128 68.014H107.014C105.166 68.014 103.663 66.4461 103.663 64.5188V57.3597C103.663 55.4329 105.166 53.865 107.014 53.865H107.128C108.976 53.865 110.479 55.4329 110.479 57.3597V64.5188Z" fill="#ED1B34"/>
<path opacity="0.05" d="M107.389 134.072L109.03 132.303V143.861C109.03 145.042 109.919 146 111.015 146C112.111 146 113 145.042 113 143.861V127.139C113 126.274 112.516 125.494 111.775 125.163C111.033 124.832 110.179 125.015 109.611 125.627L104.581 131.047C103.806 131.883 103.806 133.237 104.581 134.072C105.357 134.907 106.614 134.907 107.389 134.072Z" fill="#ED1B34"/>
<path opacity="0.05" d="M183.366 20.2065C182.378 19.7867 181.239 20.0188 180.482 20.7946L173.775 27.6671C172.742 28.7266 172.742 30.4441 173.775 31.5029C174.809 32.5621 176.485 32.5621 177.518 31.5029L179.706 29.2603V37.2879C179.706 38.7858 180.891 40 182.353 40C183.815 40 185 38.7858 185 37.2879V22.7123C185 21.6148 184.355 20.6263 183.366 20.2065Z" fill="#ED1B34"/>
<path opacity="0.05" d="M369.389 74.208L371.03 72.6078V83.0645C371.03 84.1333 371.919 85 373.015 85C374.111 85 375 84.1333 375 83.0645V67.9354C375 67.1525 374.517 66.4469 373.775 66.1472C373.033 65.8479 372.179 66.0134 371.611 66.567L366.581 71.471C365.806 72.227 365.806 73.4524 366.581 74.208C367.357 74.9638 368.614 74.9638 369.389 74.208Z" fill="#ED1B34"/>
<path opacity="0.05" d="M385.546 66H385.454C381.895 66 379 68.984 379 72.6519V78.3483C379 82.016 381.895 85 385.454 85H385.546C386.583 85 387.424 84.1334 387.424 83.0645C387.424 81.9956 386.583 81.129 385.546 81.129H385.454C383.966 81.129 382.756 79.8816 382.756 78.3483V72.6519C382.756 71.1184 383.966 69.871 385.454 69.871H385.546C387.034 69.871 388.244 71.1184 388.244 72.6519C388.244 73.7206 389.085 74.5872 390.122 74.5872C391.159 74.5872 392 73.7206 392 72.6519C392 68.984 389.105 66 385.546 66Z" fill="#ED1B34"/>
<path opacity="0.05" d="M385.546 179H385.454C381.895 179 379 181.67 379 184.952V190.048C379 193.33 381.895 196 385.454 196H385.546C389.105 196 392 193.33 392 190.048V184.952C392 181.67 389.105 179 385.546 179ZM388.244 190.049C388.244 191.421 387.034 192.537 385.546 192.537H385.454C383.966 192.537 382.756 191.421 382.756 190.049V184.952C382.756 183.58 383.966 182.464 385.454 182.464H385.546C387.034 182.464 388.244 183.58 388.244 184.952V190.049Z" fill="#ED1B34"/>
<path opacity="0.05" d="M466 98.648V92.352C466 88.2982 462.882 85 459.05 85H458.95C455.118 85 452 88.2982 452 92.352V98.648C452 102.702 455.118 106 458.95 106H459.05C462.882 106 466 102.702 466 98.648ZM461.955 98.648C461.955 100.343 460.652 101.722 459.05 101.722H458.95C457.348 101.722 456.045 100.343 456.045 98.648V92.352C456.045 90.6574 457.348 89.2786 458.95 89.2786H459.05C460.652 89.2786 461.955 90.6574 461.955 92.352V98.648Z" fill="#ED1B34"/>
<path opacity="0.05" d="M406.389 134.072L408.03 132.303V143.861C408.03 145.042 408.919 146 410.015 146C411.111 146 412 145.042 412 143.861V127.139C412 126.274 411.516 125.494 410.775 125.163C410.033 124.832 409.179 125.015 408.611 125.627L403.581 131.047C402.806 131.883 402.806 133.237 403.581 134.072C404.357 134.907 405.614 134.907 406.389 134.072Z" fill="#ED1B34"/>
<path opacity="0.05" d="M535.366 63.2065C534.378 62.7867 533.239 63.0188 532.482 63.7946L525.775 70.6671C524.742 71.7266 524.742 73.4441 525.775 74.5029C526.809 75.5621 528.485 75.5621 529.518 74.5029L531.706 72.2603V80.2879C531.706 81.7858 532.891 83 534.353 83C535.815 83 537 81.7858 537 80.2879V65.7123C537 64.6148 536.355 63.6263 535.366 63.2065Z" fill="#ED1B34"/>
<path opacity="0.05" d="M240.389 11.208L242.03 9.60781V20.0645C242.03 21.1333 242.919 22 244.015 22C245.111 22 246 21.1333 246 20.0645V4.93535C246 4.15247 245.517 3.44692 244.775 3.14724C244.033 2.84793 243.179 3.01336 242.611 3.56695L237.581 8.47101C236.806 9.22695 236.806 10.4524 237.581 11.208C238.357 11.9638 239.614 11.9638 240.389 11.208Z" fill="#ED1B34"/>
<path opacity="0.05" d="M255.546 3H255.454C251.895 3 249 5.98402 249 9.65188V15.3483C249 19.016 251.895 22 255.454 22H255.546C256.583 22 257.424 21.1334 257.424 20.0645C257.424 18.9956 256.583 18.129 255.546 18.129H255.454C253.966 18.129 252.756 16.8816 252.756 15.3483V9.65188C252.756 8.11841 253.966 6.87098 255.454 6.87098H255.546C257.034 6.87098 258.244 8.11841 258.244 9.65188C258.244 10.7206 259.085 11.5872 260.122 11.5872C261.159 11.5872 262 10.7206 262 9.65188C262 5.98402 259.105 3 255.546 3Z" fill="#ED1B34"/>
<path opacity="0.05" d="M256.043 116H255.957C252.672 116 250 118.67 250 121.952V127.048C250 130.33 252.672 133 255.957 133H256.043C259.327 133 262 130.33 262 127.048V121.952C262 118.67 259.328 116 256.043 116ZM258.533 127.049C258.533 128.421 257.416 129.537 256.043 129.537H255.958C254.584 129.537 253.467 128.421 253.467 127.049V121.952C253.467 120.58 254.584 119.464 255.958 119.464H256.043C257.416 119.464 258.533 120.58 258.533 121.952V127.049Z" fill="#ED1B34"/>
<path opacity="0.05" d="M336 35.648V29.352C336 25.2982 332.882 22 329.05 22H328.95C325.118 22 322 25.2982 322 29.352V35.648C322 39.7018 325.118 43 328.95 43H329.05C332.882 43 336 39.7018 336 35.648ZM331.955 35.648C331.955 37.343 330.652 38.7218 329.05 38.7218H328.95C327.348 38.7218 326.045 37.343 326.045 35.648V29.352C326.045 27.6574 327.348 26.2786 328.95 26.2786H329.05C330.652 26.2786 331.955 27.6574 331.955 29.352V35.648Z" fill="#ED1B34"/>
<path opacity="0.1" d="M330.389 114.072L332.03 112.303V123.861C332.03 125.042 332.919 126 334.015 126C335.111 126 336 125.042 336 123.861V107.139C336 106.274 335.516 105.494 334.775 105.163C334.033 104.832 333.179 105.015 332.611 105.627L327.581 111.047C326.806 111.883 326.806 113.237 327.581 114.072C328.357 114.907 329.614 114.907 330.389 114.072Z" fill="#ED1B34"/>
<path opacity="0.05" d="M405.502 0.206512C404.596 -0.213278 403.552 0.0188118 402.858 0.794616L396.711 7.66706C395.763 8.72662 395.763 10.4441 396.711 11.5029C397.658 12.5621 399.194 12.5621 400.141 11.5029L402.147 9.26025V17.2879C402.147 18.7858 403.234 20 404.574 20C405.914 20 407 18.7858 407 17.2879V2.71234C407 1.61483 406.409 0.626302 405.502 0.206512Z" fill="#ED1B34"/>
<path opacity="0.25" d="M667.64 195.236C666.53 194.756 665.252 195.022 664.402 195.908L656.87 203.764C655.71 204.975 655.71 206.939 656.87 208.149C658.031 209.36 659.913 209.36 661.073 208.149L663.531 205.585V214.762C663.531 216.474 664.862 217.862 666.503 217.862C668.145 217.862 669.475 216.474 669.475 214.762V198.1C669.475 196.846 668.751 195.716 667.64 195.236Z" fill="#ED1B34"/>
</svg>
