<svg viewBox="0 0 529 526" fill="none" xmlns="http://www.w3.org/2000/svg">
<path d="M55.0385 194.491C55.0385 197.054 57.0308 199.133 59.489 199.133C61.9468 199.133 63.939 197.054 63.939 194.491V158.2C63.939 156.322 62.8553 154.629 61.1919 153.911C59.5299 153.193 57.615 153.589 56.3421 154.917L45.0652 166.681C43.3272 168.494 43.3272 171.434 45.0652 173.246C46.8031 175.059 49.6211 175.059 51.359 173.246L55.0385 169.408V194.491Z" fill="#ED1B34"/>
<path d="M81.323 114.088L85.0025 110.25V135.333C85.0025 137.896 86.9952 139.975 89.453 139.975C91.9108 139.975 93.903 137.896 93.903 135.333V99.0418C93.903 97.1639 92.8193 95.4715 91.1559 94.7526C89.4939 94.0346 87.579 94.4315 86.3061 95.7594L75.0292 107.523C73.2914 109.336 73.2914 112.276 75.0292 114.088C76.7676 115.901 79.5855 115.901 81.323 114.088Z" fill="#ED1B34"/>
<path d="M33.0053 134.832L34.9257 132.828V145.919C34.9257 147.257 35.9656 148.342 37.2483 148.342C38.531 148.342 39.5709 147.257 39.5709 145.919V126.979C39.5709 125.999 39.0051 125.116 38.1371 124.741C37.2697 124.366 36.2703 124.573 35.6061 125.266L29.7208 131.406C28.8138 132.352 28.8138 133.886 29.7208 134.832C30.6279 135.778 32.0986 135.778 33.0053 134.832Z" fill="#ED1B34"/>
<path d="M190.791 80.8893L192.712 78.8859V91.9764C192.712 93.3144 193.751 94.3992 195.034 94.3992C196.317 94.3992 197.357 93.3144 197.357 91.9764V73.0367C197.357 72.0567 196.791 71.1735 195.923 70.7984C195.055 70.4238 194.056 70.6305 193.392 71.3235L187.507 77.4629C186.6 78.4093 186.6 79.9434 187.507 80.8893C188.414 81.8356 189.884 81.8356 190.791 80.8893Z" fill="#ED1B34"/>
<path d="M132.079 153.911C130.417 153.193 128.502 153.589 127.229 154.917L115.952 166.681C114.214 168.494 114.214 171.434 115.952 173.246C117.691 175.059 120.509 175.059 122.246 173.246L125.925 169.408V194.491C125.925 197.054 127.918 199.133 130.376 199.133C132.834 199.133 134.826 197.054 134.826 194.491V158.2C134.826 156.322 133.742 154.629 132.079 153.911Z" fill="#ED1B34"/>
<path d="M112.735 211.048C111.073 210.33 109.158 210.727 107.886 212.055L96.6087 223.818C94.8708 225.631 94.8708 228.571 96.6087 230.383C98.347 232.196 101.165 232.196 102.902 230.383L106.582 226.545V240.285C106.582 242.849 108.575 244.927 111.032 244.927C113.49 244.927 115.483 242.849 115.483 240.285V215.337C115.483 213.459 114.399 211.767 112.735 211.048Z" fill="#ED1B34"/>
<path d="M105.191 183.177V169.513C105.191 160.715 98.33 153.557 89.8964 153.557H89.6774C81.2433 153.557 74.382 160.715 74.382 169.513V183.177C74.382 191.975 81.2433 199.133 89.6774 199.133H89.8964C98.33 199.133 105.191 191.975 105.191 183.177ZM96.2908 183.177C96.2908 186.855 93.4223 189.848 89.8964 189.848H89.6774C86.1515 189.848 83.283 186.855 83.283 183.177V169.513C83.283 165.835 86.1515 162.843 89.6774 162.843H89.8964C93.4223 162.843 96.2908 165.835 96.2908 169.513V183.177Z" fill="#ED1B34"/>
<path d="M161.113 153.557H160.894C152.461 153.557 145.599 160.715 145.599 169.513V183.177C145.599 191.975 152.461 199.132 160.894 199.132H161.113C169.547 199.132 176.409 191.975 176.409 183.177V169.513C176.409 160.716 169.547 153.557 161.113 153.557ZM167.508 183.178C167.508 186.856 164.639 189.848 161.113 189.848H160.894C157.368 189.848 154.5 186.856 154.5 183.178V169.514C154.5 165.835 157.368 162.843 160.894 162.843H161.113C164.639 162.843 167.508 165.835 167.508 169.514V183.178Z" fill="#ED1B34"/>
<path d="M119.86 94.3987H119.641C111.207 94.3987 104.346 101.556 104.346 110.354V124.018C104.346 132.816 111.207 139.974 119.641 139.974H119.86C122.318 139.974 124.31 137.895 124.31 135.331C124.31 132.767 122.318 130.689 119.86 130.689H119.641C116.115 130.689 113.247 127.696 113.247 124.018V110.354C113.247 106.676 116.115 103.684 119.641 103.684H119.86C123.386 103.684 126.254 106.676 126.254 110.354C126.254 112.918 128.247 114.997 130.705 114.997C133.163 114.997 135.155 112.918 135.155 110.354C135.156 101.556 128.294 94.3987 119.86 94.3987Z" fill="#ED1B34"/>
<path d="M161.113 94.3987H160.894C152.461 94.3987 145.599 101.556 145.599 110.354V124.018C145.599 132.816 152.461 139.974 160.894 139.974H161.113C169.547 139.974 176.409 132.816 176.409 124.018V110.354C176.409 101.556 169.547 94.3987 161.113 94.3987ZM167.508 124.019C167.508 127.697 164.639 130.689 161.113 130.689H160.894C157.368 130.689 154.5 127.697 154.5 124.019V110.354C154.5 106.676 157.368 103.684 160.894 103.684H161.113C164.639 103.684 167.508 106.676 167.508 110.354V124.019Z" fill="#ED1B34"/>
<path d="M69.1007 210.694H68.8818C60.4477 210.694 53.5863 217.852 53.5863 226.65V240.314C53.5863 249.112 60.4477 256.269 68.8818 256.269H69.1007C77.5344 256.269 84.3957 249.112 84.3957 240.314V226.65C84.3962 217.853 77.5348 210.694 69.1007 210.694ZM75.4956 240.315C75.4956 243.993 72.6271 246.985 69.1012 246.985H68.8822C65.3563 246.985 62.4878 243.993 62.4878 240.315V226.65C62.4878 222.972 65.3563 219.98 68.8822 219.98H69.1012C72.6271 219.98 75.4956 222.972 75.4956 226.65V240.315Z" fill="#ED1B34"/>
<path d="M112.737 270.288C111.627 269.808 110.348 270.073 109.498 270.96L101.967 278.816C100.806 280.027 100.806 281.99 101.967 283.201C103.128 284.411 105.01 284.411 106.17 283.201L108.627 280.637V289.814C108.627 291.526 109.958 292.914 111.6 292.914C113.241 292.914 114.572 291.526 114.572 289.814V273.152C114.572 271.898 113.848 270.768 112.737 270.288Z" fill="#ED1B34"/>
<path d="M83.5958 270.052H83.4495C77.8168 270.052 73.2347 274.832 73.2347 280.708V289.833C73.2347 295.709 77.8168 300.489 83.4495 300.489H83.5958C89.228 300.489 93.8105 295.709 93.8105 289.833V280.708C93.811 274.832 89.2285 270.052 83.5958 270.052ZM87.8664 289.834C87.8664 292.29 85.951 294.288 83.5962 294.288H83.45C81.0952 294.288 79.1793 292.29 79.1793 289.834V280.708C79.1793 278.251 81.0952 276.253 83.45 276.253H83.5962C85.951 276.253 87.8664 278.251 87.8664 280.708V289.834Z" fill="#ED1B34"/>
<path d="M8.02857 218.825C8.02857 220.169 9.07258 221.258 10.3603 221.258C11.6481 221.258 12.692 220.169 12.692 218.825V199.811C12.692 198.828 12.124 197.941 11.2526 197.564C10.3818 197.188 9.37848 197.396 8.71162 198.092L2.80333 204.255C1.89271 205.205 1.89271 206.745 2.80333 207.695C3.71395 208.645 5.19041 208.645 6.10071 207.695L8.02857 205.684V218.825Z" fill="#ED1B34"/>
<path d="M34.3057 212.898V205.739C34.3057 201.13 30.7108 197.379 26.292 197.379H26.1773C21.7585 197.379 18.1636 201.13 18.1636 205.739V212.898C18.1636 217.508 21.7585 221.258 26.1773 221.258H26.292C30.7108 221.258 34.3057 217.508 34.3057 212.898ZM29.6422 212.898C29.6422 214.826 28.1394 216.393 26.292 216.393H26.1773C24.3299 216.393 22.8271 214.826 22.8271 212.898V205.739C22.8271 203.812 24.3299 202.244 26.1773 202.244H26.292C28.1394 202.244 29.6422 203.812 29.6422 205.739V212.898Z" fill="#ED1B34"/>
<path d="M278.844 220.334L334.644 214.379L313.571 270.052" stroke="black"/>
<path d="M280.625 217.654L354.234 332.572L375.01 287.32L391.038 207.234L334.941 214.082" stroke="black"/>
<path d="M271.72 313.816L313.273 268.266L308.525 364.13L341.174 309.946" stroke="black"/>
<path d="M242.962 261.117L335.534 214.379L374.417 289.106L312.68 269.456" stroke="black"/>
<path d="M280.031 220.334L270.83 314.114L215.03 323.343L242.277 261.806" stroke="black"/>
<path d="M279.1 220.291H212.726L242.505 262.724" stroke="black"/>
<path d="M270.033 313.063L271.847 363.27L341.124 309.425" stroke="black"/>
<path d="M280.189 218.836L311.381 165.355L334.232 213.379" stroke="black"/>
<path d="M279.289 232.243C285.6 232.243 290.716 227.111 290.716 220.781C290.716 214.451 285.6 209.319 279.289 209.319C272.978 209.319 267.862 214.451 267.862 220.781C267.862 227.111 272.978 232.243 279.289 232.243Z" fill="#323232"/>
<path d="M312.97 277.384C317.212 277.384 320.65 273.935 320.65 269.68C320.65 265.426 317.212 261.977 312.97 261.977C308.729 261.977 305.29 265.426 305.29 269.68C305.29 273.935 308.729 277.384 312.97 277.384Z" fill="#323232"/>
<path d="M270.681 325.427C276.992 325.427 282.109 320.296 282.109 313.965C282.109 307.635 276.992 302.503 270.681 302.503C264.37 302.503 259.254 307.635 259.254 313.965C259.254 320.296 264.37 325.427 270.681 325.427Z" fill="#323232"/>
<path d="M241.817 267.708C244.972 267.708 247.531 265.142 247.531 261.977C247.531 258.812 244.972 256.246 241.817 256.246C238.661 256.246 236.103 258.812 236.103 261.977C236.103 265.142 238.661 267.708 241.817 267.708Z" fill="#323232"/>
<path d="M340.654 315.648C343.81 315.648 346.368 313.082 346.368 309.917C346.368 306.752 343.81 304.186 340.654 304.186C337.499 304.186 334.941 306.752 334.941 309.917C334.941 313.082 337.499 315.648 340.654 315.648Z" fill="#323232"/>
<path d="M375.871 297.197C381.096 297.197 385.332 292.948 385.332 287.707C385.332 282.466 381.096 278.218 375.871 278.218C370.646 278.218 366.41 282.466 366.41 287.707C366.41 292.948 370.646 297.197 375.871 297.197Z" fill="#323232"/>
<path d="M334.941 220.102C338.096 220.102 340.654 217.536 340.654 214.371C340.654 211.206 338.096 208.64 334.941 208.64C331.785 208.64 329.227 211.206 329.227 214.371C329.227 217.536 331.785 220.102 334.941 220.102Z" fill="#323232"/>
<path d="M192.611 133.459L229.189 113.99L300.107 146.188L371.605 113.99L462.958 170.066L375.236 223.477L300.107 175.39L217.246 222.563V316.91L295.628 360.339V461.422L129.905 365.58V243.529L192.611 212.08V133.459Z" fill="#ED1B34"/>
<path d="M300.269 38.1731L203.124 0.164307L228.106 95.8639L300.269 124.557V38.1731Z" fill="#30CA4C"/>
<path d="M300.269 38.1731L397.413 0.164307L371.713 93.4434L300.269 124.557V38.1731Z" fill="#3A7F0D"/>
<path d="M462.774 369.324V169.729L375.122 223.456V313.313L295.498 360.577V461.57L462.774 369.324Z" fill="#B0101E"/>
<path d="M76.17 486.301C73.6294 486.301 71.57 488.363 71.57 490.915V494.043C71.57 496.59 73.6294 498.657 76.17 498.657H88.0265C89.9558 498.657 91.5202 500.226 91.5202 502.159C91.5202 504.097 89.9558 505.666 88.0265 505.666H76.17C73.6294 505.666 71.57 507.728 71.57 510.28V520.463C71.57 522.576 69.8616 524.293 67.7548 524.293C65.6475 524.293 63.9391 522.576 63.9391 520.463V483.814C63.9391 481.262 65.999 479.2 68.5391 479.2H90.3247C92.2976 479.2 93.8897 480.815 93.8639 482.794C93.8386 484.737 92.2617 486.301 90.3247 486.301H76.17Z" fill="#585858"/>
<path d="M110.811 509.537V520.694C110.811 522.682 109.205 524.293 107.225 524.293C105.245 524.293 103.64 522.682 103.64 520.694V493.582C103.64 491.598 105.245 489.987 107.225 489.987H109.433C110.194 489.987 110.811 490.606 110.811 491.367C110.811 492.802 113.096 493.517 114.176 492.58C114.595 492.216 115.036 491.874 115.499 491.556C116.41 490.947 117.34 490.467 118.288 490.121C120.166 489.434 121.864 491.076 121.889 493.079L121.93 496.35C121.933 496.553 121.77 496.719 121.567 496.719C118.074 496.719 115.407 497.854 113.569 500.129C111.73 502.404 110.811 505.541 110.811 509.537Z" fill="#585858"/>
<path d="M162.75 505.661C162.75 508.208 160.69 510.275 158.15 510.275H140.863C138.187 510.275 135.993 512.762 137.727 514.806C138.173 515.332 138.699 515.821 139.306 516.269C141.39 517.805 143.811 518.576 146.569 518.576C149.466 518.576 151.874 517.976 153.792 516.776C155.308 515.83 157.406 515.711 158.614 517.026C159.648 518.156 159.647 519.923 158.444 520.869C155.078 523.517 150.936 524.846 146.018 524.846C141.114 524.846 137.008 523.218 133.698 519.955C130.388 516.698 128.734 512.398 128.734 507.045C128.734 501.822 130.419 497.577 133.79 494.32C137.161 491.062 141.237 489.434 146.018 489.434C150.799 489.434 154.782 490.878 157.97 493.766C161.156 496.659 162.75 500.498 162.75 505.297V505.661ZM150.979 504.558C153.519 504.558 155.768 502.348 154.565 500.106C154.145 499.321 153.594 498.625 152.913 498.011C151.197 496.41 148.96 495.612 146.201 495.612C143.444 495.612 141.023 496.442 138.938 498.103C138.184 498.722 137.57 499.409 137.097 500.166C135.747 502.325 137.964 504.558 140.505 504.558H150.979Z" fill="#585858"/>
<path d="M184.291 524.846C179.77 524.846 175.621 523.688 171.841 521.377C170.398 520.495 170.076 518.59 170.969 517.15C171.999 515.489 174.218 515.111 175.908 516.084C178.797 517.745 181.653 518.576 184.475 518.576C186.068 518.576 187.324 518.207 188.244 517.468C189.225 516.67 189.715 515.683 189.715 514.515C189.715 512.827 187.535 511.318 183.175 509.984C183.001 509.934 182.831 509.86 182.661 509.795C182.625 509.781 182.588 509.768 182.549 509.754C182.485 509.731 182.398 509.694 182.334 509.666C182.217 509.62 182.113 509.611 181.991 509.578C175.005 507.668 171.511 504.457 171.511 499.944C171.511 496.751 172.707 494.2 175.097 492.294C177.549 490.389 180.767 489.434 184.75 489.434C187.848 489.434 190.83 490.163 193.699 491.621C195.033 492.294 195.462 493.951 194.793 495.293C194.001 496.881 192.001 497.388 190.36 496.71C188.425 495.916 186.371 495.519 184.199 495.519C180.337 495.519 178.407 496.751 178.407 499.211C178.407 500.254 178.774 501.024 179.51 501.513C180.307 501.942 181.594 502.376 183.371 502.805C186.068 503.543 188.336 504.282 190.175 505.02C191.4 505.573 192.473 506.155 193.392 506.769C195.721 508.37 196.886 510.797 196.886 514.054C196.886 517.252 195.691 519.863 193.3 521.893C190.971 523.863 187.968 524.846 184.291 524.846Z" fill="#585858"/>
<path d="M214.049 520.694C214.049 522.683 212.443 524.293 210.463 524.293C208.483 524.293 206.877 522.683 206.877 520.694V480.026C206.877 478.042 208.483 476.432 210.463 476.432C212.443 476.432 214.049 478.042 214.049 480.026V489.277C214.049 490.994 217.244 492.115 218.737 491.28C220.821 490.048 223.058 489.434 225.448 489.434C229.432 489.434 232.589 490.634 234.918 493.028C237.247 495.428 238.412 498.842 238.412 503.267V520.648C238.412 522.66 236.785 524.293 234.78 524.293C232.774 524.293 231.149 522.66 231.149 520.648V505.482C231.149 499.147 228.544 495.981 223.334 495.981C220.698 495.981 218.492 496.844 216.715 498.565C214.937 500.222 214.049 502.589 214.049 505.666V520.694Z" fill="#585858"/>
<path d="M281.432 524.846C276.912 524.846 272.762 523.688 268.983 521.377C267.54 520.495 267.217 518.59 268.111 517.15C269.14 515.489 271.359 515.111 273.05 516.084C275.939 517.745 278.794 518.576 281.616 518.576C283.21 518.576 284.466 518.207 285.385 517.468C286.366 516.67 286.856 515.683 286.856 514.515C286.856 512.827 284.676 511.318 280.316 509.984C280.142 509.934 279.972 509.86 279.802 509.795C279.766 509.781 279.729 509.768 279.691 509.754C279.626 509.731 279.539 509.694 279.476 509.666C279.358 509.62 279.254 509.611 279.133 509.578C272.146 507.668 268.653 504.457 268.653 499.944C268.653 496.751 269.848 494.2 272.239 492.294C274.69 490.389 277.908 489.434 281.892 489.434C284.989 489.434 287.972 490.163 290.84 491.621C292.174 492.294 292.604 493.951 291.935 495.293C291.142 496.881 289.142 497.388 287.501 496.71C285.567 495.916 283.513 495.519 281.34 495.519C277.479 495.519 275.548 496.751 275.548 499.211C275.548 500.254 275.916 501.024 276.651 501.513C277.448 501.942 278.735 502.376 280.513 502.805C283.21 503.543 285.477 504.282 287.316 505.02C288.542 505.573 289.615 506.155 290.534 506.769C292.863 508.37 294.027 510.797 294.027 514.054C294.027 517.252 292.832 519.863 290.442 521.893C288.113 523.863 285.109 524.846 281.432 524.846Z" fill="#585858"/>
<path d="M301.72 507.138C301.72 501.975 303.498 497.734 307.053 494.412C310.608 491.095 314.99 489.434 320.2 489.434C324.255 489.434 327.816 490.541 330.883 492.751C332.323 493.794 332.409 495.833 331.294 497.217C330.056 498.759 327.813 498.902 326.109 497.91C324.122 496.747 322.122 496.165 320.108 496.165C317.043 496.165 314.408 497.181 312.201 499.211C310.056 501.176 308.983 503.728 308.983 506.861C308.983 510.058 310.056 512.767 312.201 514.977C314.408 517.132 317.104 518.207 320.292 518.207C322.584 518.207 324.797 517.459 326.931 515.964C328.376 514.949 330.388 514.954 331.58 516.255C332.717 517.496 332.676 519.439 331.351 520.472C327.613 523.388 323.559 524.846 319.188 524.846C314.285 524.846 310.148 523.218 306.777 519.955C303.406 516.638 301.72 512.365 301.72 507.138Z" fill="#585858"/>
<path d="M370.487 521.017C370.487 522.825 369.026 524.293 367.223 524.293H365.187C364.509 524.293 363.96 523.739 363.96 523.061C363.96 521.912 362.444 521.321 361.531 522.013C359.045 523.9 356.054 524.846 352.56 524.846C348.944 524.846 345.971 523.831 343.642 521.801C341.374 519.711 340.24 517.007 340.24 513.685C340.24 510.367 341.466 507.848 343.918 506.127C346.369 504.402 349.74 503.543 354.031 503.543H362.121C362.832 503.543 363.408 502.967 363.408 502.251C363.408 497.702 360.865 495.427 355.778 495.427C353.337 495.427 350.824 496.115 348.24 497.48C346.866 498.209 345.127 497.919 344.224 496.65C343.333 495.4 343.573 493.646 344.874 492.839C348.511 490.569 352.482 489.434 356.789 489.434C361.018 489.434 364.358 490.509 366.81 492.663C369.262 494.754 370.487 497.919 370.487 502.159V521.017ZM363.316 511.475C363.316 509.897 362.04 508.614 360.467 508.614H355.226C350.016 508.614 347.411 510.243 347.411 513.5C347.411 515.161 348.055 516.453 349.342 517.376C350.629 518.234 352.437 518.668 354.766 518.668C357.157 518.668 359.179 518.022 360.834 516.73C362.489 515.378 363.316 513.625 363.316 511.475Z" fill="#585858"/>
<path d="M389.565 520.694C389.565 522.682 387.96 524.293 385.98 524.293C384 524.293 382.394 522.682 382.394 520.694V493.582C382.394 491.598 384 489.987 385.98 489.987H388.293C388.996 489.987 389.565 490.559 389.565 491.265C389.565 492.58 391.658 493.254 392.677 492.423C393.197 492.004 393.753 491.621 394.346 491.279C396.43 490.047 398.637 489.434 400.966 489.434C404.95 489.434 408.106 490.633 410.435 493.028C412.764 495.427 413.929 498.842 413.929 503.266V520.647C413.929 522.659 412.303 524.293 410.297 524.293C408.292 524.293 406.666 522.659 406.666 520.647V505.481C406.666 499.146 404.061 495.981 398.851 495.981C396.216 495.981 394.009 496.844 392.232 498.565C390.454 500.221 389.565 502.588 389.565 505.666V520.694Z" fill="#585858"/>
<path d="M432.89 520.694C432.89 522.682 431.285 524.293 429.305 524.293C427.324 524.293 425.719 522.682 425.719 520.694V493.582C425.719 491.598 427.324 489.987 429.305 489.987H431.617C432.32 489.987 432.89 490.559 432.89 491.265C432.89 492.58 434.982 493.254 436.002 492.423C436.521 492.004 437.077 491.621 437.671 491.279C439.755 490.047 441.961 489.434 444.29 489.434C448.274 489.434 451.43 490.633 453.76 493.028C456.089 495.427 457.253 498.842 457.253 503.266V520.647C457.253 522.659 455.627 524.293 453.622 524.293C451.616 524.293 449.99 522.659 449.99 520.647V505.481C449.99 499.146 447.385 495.981 442.175 495.981C439.54 495.981 437.334 496.844 435.556 498.565C433.779 500.221 432.89 502.588 432.89 505.666V520.694Z" fill="#585858"/>
<path d="M500.853 505.661C500.853 508.208 498.792 510.275 496.253 510.275H478.966C476.289 510.275 474.099 512.762 475.829 514.806C476.275 515.332 476.804 515.821 477.411 516.269C479.495 517.805 481.914 518.576 484.674 518.576C487.568 518.576 489.978 517.976 491.896 516.776C493.41 515.83 495.507 515.711 496.717 517.026C497.752 518.156 497.752 519.923 496.547 520.869C493.18 523.517 489.04 524.846 484.122 524.846C479.219 524.846 475.111 523.218 471.804 519.955C468.492 516.698 466.836 512.398 466.836 507.045C466.836 501.822 468.524 497.577 471.896 494.32C475.263 491.062 479.338 489.434 484.122 489.434C488.902 489.434 492.885 490.878 496.073 493.766C499.261 496.659 500.853 500.498 500.853 505.297V505.661ZM489.081 504.558C491.625 504.558 493.87 502.348 492.669 500.106C492.246 499.321 491.699 498.625 491.018 498.011C489.302 496.41 487.062 495.612 484.306 495.612C481.546 495.612 479.127 496.442 477.043 498.103C476.289 498.722 475.672 499.409 475.198 500.166C473.851 502.325 476.068 504.558 478.607 504.558H489.081Z" fill="#585858"/>
<path d="M517.799 509.537V520.694C517.799 522.682 516.193 524.293 514.211 524.293C512.233 524.293 510.627 522.682 510.627 520.694V493.582C510.627 491.598 512.233 489.987 514.211 489.987H516.419C517.182 489.987 517.799 490.606 517.799 491.367C517.799 492.802 520.08 493.517 521.161 492.58C521.58 492.216 522.022 491.874 522.486 491.556C523.397 490.947 524.326 490.467 525.274 490.121C527.151 489.434 528.848 491.076 528.876 493.079L528.917 496.35C528.917 496.553 528.756 496.719 528.554 496.719C525.062 496.719 522.394 497.854 520.554 500.129C518.714 502.404 517.799 505.541 517.799 509.537Z" fill="#585858"/>
</svg>
