<svg viewBox="0 0 139 89" fill="none" xmlns="http://www.w3.org/2000/svg">
<g clip-path="url(#clip0)">
<g filter="url(#filter0_d)">
<rect width="139" height="89" rx="2" fill="url(#paint0_linear)"/>
<rect width="139" height="89" rx="2" fill="white"/>
<rect x="0.5" y="0.5" width="138" height="88" rx="1.5" stroke="#7287D5"/>
</g>
<g clip-path="url(#clip1)">
<path d="M12.0468 60.2315C12.2211 60.4593 12.4432 60.6446 12.6967 60.7739C12.9502 60.9031 13.2289 60.973 13.5123 60.9786H42.1108C44.3719 60.9786 44.4556 60.2741 44.4556 59.1641C44.4556 58.0541 44.4556 40.1444 44.4556 38.1805C44.4556 36.2167 44.5603 35.7684 44.8115 35.4269C44.9224 35.2655 44.9854 35.075 44.9928 34.8781C45.0002 34.6813 44.9518 34.4864 44.8534 34.3168C44.665 33.9753 44.665 33.2495 44.665 32.7159C44.665 32.1822 44.665 17.6026 44.665 15.3612C44.665 13.1198 44.665 11.1559 44.665 10.3234C44.665 9.49089 44.33 9.02127 43.1785 9.02127H13.5751C12.5911 8.99993 12.1514 8.95723 12.1514 9.83244C12.1514 10.7076 12.0468 60.2315 12.0468 60.2315Z" fill="#1F3756"/>
<path d="M11 38.3086C11 38.3086 11 37.2627 11 36.3448C11 35.4269 11.335 34.7865 11.8584 34.7865H44.5185C44.5185 34.7865 44.1207 35.1921 44.1207 36.238C44.1207 37.284 44.1207 52.376 44.1207 54.3398C44.1207 55.4499 44.1207 58.8653 44.1207 59.2709C44.1207 59.6765 43.8695 60.2315 42.8017 60.2315H12.8633C12.0677 60.2315 11 60.018 11 58.2889C11 56.5599 11 38.3086 11 38.3086Z" fill="#F5F6F8"/>
<path d="M11.8583 34.765C11.6158 34.7432 11.391 34.6266 11.2309 34.4396C11.0709 34.2526 10.9881 34.0096 10.9999 33.7617C10.9999 32.8438 11.0208 11.0491 11.0208 10.5368C11.0208 10.0245 11.1883 9.57619 11.9629 9.57619H42.7807C44.0159 9.57619 44.3509 10.1952 44.3509 11.412C44.3509 12.6287 44.3299 33.3775 44.3299 33.8685C44.3299 34.3594 44.3299 34.7437 44.6021 34.7437L11.8583 34.765Z" fill="#F5F6F8"/>
<g style="mix-blend-mode:multiply">
<g style="mix-blend-mode:multiply">
<path d="M11 36.3233C11 36.6649 11 37.0278 11 37.348C11.4606 36.7076 12.2143 35.6189 13.4704 35.6189H38.5936C41.9224 35.6189 43.5554 36.238 44.1207 38.458C44.1207 37.2626 44.1207 36.4301 44.1207 36.2166C44.1207 35.1706 44.5185 34.7651 44.5185 34.7651H11.8584C11.3559 34.7651 11 35.4054 11 36.3233Z" fill="#E5E5E5"/>
</g>
</g>
<g style="mix-blend-mode:multiply">
<g style="mix-blend-mode:multiply">
<path d="M41.4826 33.7832H13.3866C12.8776 33.8029 12.375 33.6617 11.9478 33.3789C11.5205 33.0962 11.1894 32.6856 10.9999 32.2036C10.9999 33.0788 10.9999 33.6338 10.9999 33.7619C10.9881 34.0098 11.0709 34.2527 11.2309 34.4397C11.391 34.6268 11.6158 34.7434 11.8583 34.7652H44.6021C44.3299 34.7652 44.3299 34.1461 44.3299 33.89C44.3299 33.6338 44.3299 32.9721 44.3299 31.7126C43.995 33.0574 42.5713 33.7832 41.4826 33.7832Z" fill="#E5E5E5"/>
</g>
</g>
<g style="mix-blend-mode:multiply">
<path d="M11.6487 34.9146L44.3088 34.8292C44.3088 34.8292 13.3236 34.3168 11.6487 34.9146Z" fill="#DDDBD1"/>
</g>
<path opacity="0.8" d="M11.5443 59.8045H11.5652L11.6071 59.8472L11.6699 59.8899L11.8374 59.9753L12.0886 60.0607L12.4236 60.1247L12.8214 60.1674L12.4236 60.1247L12.0886 60.0394L11.8584 60.018L11.6909 59.9113L11.6281 59.8686L11.5862 59.8259L11.5443 59.8045Z" fill="white"/>
<path d="M20.9998 9.00951H12.6324C12.6324 9.00951 11.163 8.63213 10.9998 12.6216V33L11.1834 12.8372C11.2437 11.9407 11.4183 11.1256 11.6782 10.5274C11.938 9.92918 12.2676 9.5838 12.612 9.54862L20.9998 9.00951Z" fill="#1F3756"/>
<path d="M21.9998 60.9896H12.7769C12.7769 60.9896 11.1572 61.3984 10.9998 57.0766V35L11.2022 56.843C11.2687 57.8142 11.4611 58.6972 11.7475 59.3452C12.034 59.9933 12.3972 60.3675 12.7769 60.4056L21.9998 60.9896Z" fill="#1F3756"/>
<path d="M20.6484 29.6393C22.8623 28.8444 24.025 26.37 23.2454 24.1126C22.4657 21.8553 20.0389 20.6698 17.825 21.4647C15.611 22.2596 14.4483 24.734 15.228 26.9914C16.0076 29.2487 18.4344 30.4342 20.6484 29.6393Z" stroke="#ED8585" stroke-width="0.5" stroke-miterlimit="10"/>
<path d="M20.4261 28.9949C22.2911 28.3253 23.2705 26.2409 22.6137 24.3394C21.957 22.4379 19.9128 21.4393 18.0478 22.1089C16.1829 22.7785 15.2034 24.8628 15.8602 26.7644C16.5169 28.6659 18.5612 29.6645 20.4261 28.9949Z" stroke="#ED8585" stroke-width="2" stroke-miterlimit="10"/>
<path d="M17.6156 24.4974L20.8607 24.5401" stroke="#ED8585" stroke-width="0.5" stroke-miterlimit="10"/>
<path d="M17.5944 26.5466L20.8394 26.5679" stroke="#ED8585" stroke-width="0.5" stroke-miterlimit="10"/>
<path d="M34.2347 11.9924L13.9133 12.1009C13.6916 12.102 13.5129 12.2827 13.514 12.5043C13.5152 12.7259 13.6958 12.9047 13.9174 12.9035L34.2389 12.795C34.4605 12.7938 34.6393 12.6132 34.6381 12.3915C34.637 12.1699 34.4564 11.9912 34.2347 11.9924Z" fill="#353535"/>
<path d="M27.4516 14.0993L13.9133 14.1715C13.6916 14.1727 13.5129 14.3533 13.514 14.575C13.5152 14.7966 13.6958 14.9753 13.9174 14.9742L27.4557 14.9019C27.6774 14.9007 27.8561 14.7201 27.855 14.4984C27.8538 14.2768 27.6732 14.0981 27.4516 14.0993Z" fill="#353535"/>
<path d="M41.7716 16.0934L13.9133 16.2421C13.6916 16.2433 13.5129 16.4239 13.514 16.6456C13.5152 16.8672 13.6958 17.0459 13.9174 17.0448L41.7757 16.896C41.9974 16.8948 42.1761 16.7142 42.175 16.4926C42.1738 16.2709 41.9932 16.0922 41.7716 16.0934Z" fill="#353535"/>
<path d="M41.8973 21.2796L28.3589 21.3518C28.1373 21.353 27.9586 21.5337 27.9597 21.7553C27.9608 21.9769 28.1414 22.1556 28.3631 22.1545L41.9014 22.0822C42.123 22.081 42.3018 21.9004 42.3006 21.6787C42.2995 21.4571 42.1189 21.2784 41.8973 21.2796Z" fill="#353535"/>
<path d="M41.9392 23.6276L33.8023 23.671C33.5807 23.6722 33.4019 23.8529 33.4031 24.0745C33.4042 24.2961 33.5848 24.4748 33.8064 24.4737L41.9434 24.4302C42.165 24.429 42.3437 24.2484 42.3426 24.0268C42.3415 23.8051 42.1609 23.6264 41.9392 23.6276Z" fill="#353535"/>
<path d="M21.3279 42.518L14.3145 42.5555C13.9676 42.5573 13.6879 42.8455 13.6897 43.1992L13.7336 51.7483C13.7354 52.102 14.0181 52.3872 14.365 52.3854L21.3784 52.3479C21.7253 52.3461 22.005 52.0579 22.0032 51.7042L21.9593 43.155C21.9575 42.8014 21.6748 42.5162 21.3279 42.518Z" fill="#606060"/>
<mask id="mask0" mask-type="alpha" maskUnits="userSpaceOnUse" x="13" y="42" width="9" height="11">
<path d="M18.9555 42.5299L16.6922 42.5419C15.0354 42.5508 13.6992 43.9011 13.7077 45.5579L13.7275 49.4111C13.736 51.0679 15.086 52.4039 16.7428 52.395L19.0061 52.3829C20.6629 52.3741 21.9991 51.0238 21.9906 49.367L21.9708 45.5138C21.9623 43.857 20.6123 42.521 18.9555 42.5299Z" fill="#5E9BC9"/>
</mask>
<g mask="url(#mask0)">
<path d="M18.3485 43.8298C18.5603 43.5562 18.8502 43.3562 19.1781 43.2575C19.506 43.1587 19.8559 43.166 20.1796 43.2784C20.5033 43.3907 20.7849 43.6026 20.9856 43.8849C21.1863 44.1671 21.2963 44.5058 21.3004 44.8545C21.2749 45.1696 21.233 45.4831 21.1748 45.7937C21.1456 45.9484 21.1473 46.1075 21.1796 46.2615C21.212 46.4155 21.2745 46.5613 21.3632 46.6903C21.5092 46.8362 21.6707 46.9651 21.8448 47.0745C22.1174 47.3039 22.3096 47.6172 22.3927 47.9675C22.4757 48.3177 22.4451 48.686 22.3054 49.017C22.1797 49.2945 21.9495 49.572 21.9704 49.8922C21.9913 50.2124 22.2844 50.4899 22.41 50.8101C22.4612 51.0017 22.4609 51.2038 22.4094 51.3953C22.3578 51.5868 22.2568 51.7606 22.1169 51.8988C21.838 52.172 21.5014 52.3765 21.1329 52.4965C20.5886 52.71 19.8977 52.838 19.4581 52.4538C19.0184 52.0696 19.0394 51.7707 18.8719 51.4078C18.7044 51.0449 18.3903 50.6607 17.9926 50.6607" fill="#353535"/>
<path d="M17.6262 55.2588C19.9734 55.2588 21.8762 53.959 21.8762 52.3556C21.8762 50.7523 19.9734 49.4525 17.6262 49.4525C15.279 49.4525 13.3762 50.7523 13.3762 52.3556C13.3762 53.959 15.279 55.2588 17.6262 55.2588Z" fill="white"/>
<path d="M16.9459 47.9071V49.6788C16.9459 49.7938 16.9681 49.9076 17.0113 50.0138C17.0544 50.12 17.1176 50.2164 17.1973 50.2977C17.277 50.379 17.3717 50.4434 17.4758 50.4874C17.58 50.5314 17.6916 50.5541 17.8043 50.5541C17.917 50.5541 18.0286 50.5314 18.1328 50.4874C18.2369 50.4434 18.3316 50.379 18.4113 50.2977C18.491 50.2164 18.5542 50.12 18.5973 50.0138C18.6405 49.9076 18.6627 49.7938 18.6627 49.6788V47.9071H16.9459Z" fill="#FFCF9C"/>
<path d="M17.8447 49.2183C19.186 49.2111 20.2676 48.0967 20.2605 46.7292C20.2535 45.3616 19.1605 44.2588 17.8193 44.266C16.478 44.2731 15.3964 45.3876 15.4035 46.7551C15.4105 48.1226 16.5035 49.2255 17.8447 49.2183Z" fill="#FFCF9C"/>
<path d="M18.8301 43.8939C17.867 42.5704 15.7316 42.4423 15.1454 43.9366C14.8313 44.7477 15.2919 45.2814 14.2032 46.4982C13.6798 47.0959 13.0099 47.8003 12.8633 48.6968C12.3609 51.7921 15.4175 52.3044 16.4225 51.0236C17.4274 49.7428 17.218 49.1451 16.3597 48.2486C15.5013 47.352 15.8572 46.6903 16.7156 46.4768C17.5739 46.2633 17.867 46.306 17.9927 45.3881C18.0104 45.2697 18.0512 45.156 18.1127 45.0539C18.1742 44.9518 18.2552 44.8633 18.3508 44.7937C18.4465 44.724 18.5548 44.6746 18.6695 44.6484C18.7842 44.6222 18.9029 44.6197 19.0185 44.641C19.835 44.8545 20.6097 45.9645 20.2328 47.7149L20.8818 46.6049L20.2328 44.3208" fill="#353535"/>
</g>
<path d="M32.3464 43.0185H24.4072C24.1714 43.0185 23.9802 43.2096 23.9802 43.4454C23.9802 43.6812 24.1714 43.8724 24.4072 43.8724H32.3464C32.5822 43.8724 32.7733 43.6812 32.7733 43.4454C32.7733 43.2096 32.5822 43.0185 32.3464 43.0185Z" fill="#353535"/>
<path d="M36.6913 44.911L24.3815 44.9767C24.1599 44.9779 23.9811 45.1585 23.9823 45.3802C23.9834 45.6018 24.164 45.7805 24.3857 45.7793L36.6954 45.7136C36.917 45.7124 37.0958 45.5318 37.0946 45.3102C37.0935 45.0885 36.9129 44.9098 36.6913 44.911Z" fill="#353535"/>
<path d="M32.4766 47.004L24.3815 47.0472C24.1599 47.0484 23.9811 47.229 23.9823 47.4506C23.9834 47.6723 24.164 47.851 24.3856 47.8498L32.4807 47.8066C32.7023 47.8054 32.8811 47.6248 32.88 47.4031C32.8788 47.1815 32.6982 47.0028 32.4766 47.004Z" fill="#353535"/>
<path d="M41.3489 49.209H24.4072C24.1714 49.209 23.9802 49.4002 23.9802 49.636C23.9802 49.8717 24.1714 50.0629 24.4072 50.0629H41.3489C41.5846 50.0629 41.7758 49.8717 41.7758 49.636C41.7758 49.4002 41.5846 49.209 41.3489 49.209Z" fill="#353535"/>
<path d="M34.1462 51.1148L24.3815 51.1669C24.1599 51.1681 23.9811 51.3487 23.9823 51.5704C23.9834 51.792 24.164 51.9707 24.3857 51.9695L34.1503 51.9174C34.3719 51.9162 34.5507 51.7356 34.5495 51.5139C34.5484 51.2923 34.3678 51.1136 34.1462 51.1148Z" fill="#353535"/>
</g>
<g opacity="0.7">
<path d="M70 70C83.8071 70 95 58.8071 95 45C95 31.1929 83.8071 20 70 20C56.1929 20 45 31.1929 45 45C45 58.8071 56.1929 70 70 70Z" fill="#EB5757"/>
<path d="M61 54L70 45L79 36" stroke="white" stroke-width="2" stroke-miterlimit="10" stroke-linecap="round"/>
<path d="M61 36L70 45L79 54" stroke="white" stroke-width="2" stroke-miterlimit="10" stroke-linecap="round"/>
</g>
</g>
<defs>
<filter id="filter0_d" x="-20" y="-20" width="179" height="129" filterUnits="userSpaceOnUse" color-interpolation-filters="sRGB">
<feFlood flood-opacity="0" result="BackgroundImageFix"/>
<feColorMatrix in="SourceAlpha" type="matrix" values="0 0 0 0 0 0 0 0 0 0 0 0 0 0 0 0 0 0 127 0"/>
<feOffset/>
<feGaussianBlur stdDeviation="10"/>
<feColorMatrix type="matrix" values="0 0 0 0 0 0 0 0 0 0 0 0 0 0 0 0 0 0 0.15 0"/>
<feBlend mode="normal" in2="BackgroundImageFix" result="effect1_dropShadow"/>
<feBlend mode="normal" in="SourceGraphic" in2="effect1_dropShadow" result="shape"/>
</filter>
<linearGradient id="paint0_linear" x1="139" y1="89" x2="0" y2="89" gradientUnits="userSpaceOnUse">
<stop stop-color="#2D2D2D"/>
<stop offset="1" stop-color="#4C4C4C"/>
</linearGradient>
<clipPath id="clip0">
<rect width="139" height="89" fill="white"/>
</clipPath>
<clipPath id="clip1">
<rect width="34" height="52" fill="white" transform="translate(11 9)"/>
</clipPath>
</defs>
</svg>
