<svg viewBox="0 0 139 89" fill="none" xmlns="http://www.w3.org/2000/svg">
<g clip-path="url(#clip0)">
<g filter="url(#filter0_d)">
<rect width="139" height="89" rx="2" fill="url(#paint0_linear)"/>
<rect width="139" height="89" rx="2" fill="white"/>
<rect x="0.5" y="0.5" width="138" height="88" rx="1.5" stroke="#7287D5"/>
</g>
<g clip-path="url(#clip1)">
<path d="M46.5392 81.8768C46.7956 82.2099 47.1222 82.4807 47.495 82.6696C47.8678 82.8585 48.2776 82.9607 48.6944 82.9688H90.751C94.0761 82.9688 94.1993 81.9392 94.1993 80.3169C94.1993 78.6946 94.1993 52.5189 94.1993 49.6486C94.1993 46.7783 94.3532 46.1232 94.7227 45.624C94.8858 45.3882 94.9783 45.1097 94.9893 44.822C95.0002 44.5343 94.929 44.2494 94.7843 44.0016C94.5072 43.5025 94.5072 42.4417 94.5072 41.6617C94.5072 40.8818 94.5072 19.5731 94.5072 16.2972C94.5072 13.0213 94.5072 10.1511 94.5072 8.93432C94.5072 7.71757 94.0146 7.0312 92.3212 7.0312H48.7867C47.3397 7 46.6931 6.9376 46.6931 8.21675C46.6931 9.49589 46.5392 81.8768 46.5392 81.8768Z" fill="#1F3756"/>
<path d="M45 49.8357C45 49.8357 45 48.307 45 46.9655C45 45.6239 45.4926 44.688 46.2623 44.688H94.2919C94.2919 44.688 93.7069 45.2807 93.7069 46.8095C93.7069 48.3382 93.7069 70.3957 93.7069 73.2659C93.7069 74.8883 93.7069 79.8801 93.7069 80.4728C93.7069 81.0656 93.3374 81.8768 91.7672 81.8768H47.7401C46.5702 81.8768 45 81.5648 45 79.0377C45 76.5106 45 49.8357 45 49.8357Z" fill="#F5F6F8"/>
<path d="M46.262 44.6568C45.9054 44.625 45.5748 44.4545 45.3395 44.1812C45.1042 43.9078 44.9824 43.5528 44.9997 43.1904C44.9997 41.8489 45.0305 9.99504 45.0305 9.24627C45.0305 8.4975 45.2768 7.84233 46.4159 7.84233H91.7361C93.5526 7.84233 94.0452 8.74709 94.0452 10.5254C94.0452 12.3037 94.0144 42.6289 94.0144 43.3464C94.0144 44.064 94.0144 44.6256 94.4147 44.6256L46.262 44.6568Z" fill="#F5F6F8"/>
<g style="mix-blend-mode:multiply">
<g style="mix-blend-mode:multiply">
<path d="M45 46.9343C45 47.4335 45 47.9639 45 48.4319C45.6773 47.4959 46.7857 45.9048 48.633 45.9048H85.5788C90.4741 45.9048 92.8756 46.8095 93.7069 50.0542C93.7069 48.3071 93.7069 47.0903 93.7069 46.7783C93.7069 45.2496 94.2919 44.6568 94.2919 44.6568H46.2623C45.5234 44.6568 45 45.5928 45 46.9343Z" fill="#E5E5E5"/>
</g>
</g>
<g style="mix-blend-mode:multiply">
<g style="mix-blend-mode:multiply">
<path d="M89.8273 43.2218H48.5095C47.761 43.2506 47.022 43.0442 46.3936 42.6309C45.7653 42.2176 45.2784 41.6176 44.9997 40.9131C44.9997 42.1922 44.9997 43.0034 44.9997 43.1906C44.9824 43.5529 45.1042 43.9079 45.3395 44.1813C45.5748 44.4547 45.9054 44.6251 46.262 44.6569H94.4147C94.0144 44.6569 94.0144 43.7522 94.0144 43.3778C94.0144 43.0034 94.0144 42.0362 94.0144 40.1955C93.5218 42.161 91.4282 43.2218 89.8273 43.2218Z" fill="#E5E5E5"/>
</g>
</g>
<g style="mix-blend-mode:multiply">
<path d="M45.954 44.8751L93.9835 44.7503C93.9835 44.7503 48.417 44.0016 45.954 44.8751Z" fill="#DDDBD1"/>
</g>
<path opacity="0.8" d="M45.8002 81.253H45.831L45.8925 81.3154L45.9849 81.3778L46.2312 81.5026L46.6007 81.6274L47.0933 81.721L47.6782 81.7834L47.0933 81.721L46.6007 81.5962L46.262 81.565L46.0157 81.409L45.9233 81.3466L45.8617 81.2842L45.8002 81.253Z" fill="white"/>
<path d="M60 7.01371H47.449C47.449 7.01371 45.2449 6.46337 45 12.2813V41.9998L45.2755 12.5958C45.366 11.2883 45.6278 10.0997 46.0176 9.2273C46.4074 8.3549 46.9017 7.85122 47.4184 7.79991L60 7.01371Z" fill="#1F3756"/>
<path d="M61 81.9862H47.5849C47.5849 81.9862 45.229 82.5209 45 76.8692V47.9998L45.2945 76.5637C45.3912 77.8338 45.6711 78.9884 46.0877 79.8359C46.5043 80.6834 47.0326 81.1727 47.5849 81.2225L61 81.9862Z" fill="#1F3756"/>
<path d="M59.189 37.1653C62.4448 36.0034 64.1547 32.387 63.0081 29.0878C61.8616 25.7886 58.2928 24.0559 55.037 25.2178C51.7812 26.3796 50.0713 29.996 51.2179 33.2952C52.3644 36.5944 55.9332 38.3271 59.189 37.1653Z" stroke="#ED8585" stroke-width="0.5" stroke-miterlimit="10"/>
<path d="M58.8619 36.2236C61.6045 35.2449 63.0448 32.1986 62.079 29.4194C61.1132 26.6403 58.107 25.1808 55.3644 26.1594C52.6218 27.1381 51.1815 30.1845 52.1473 32.9636C53.1131 35.7427 56.1194 37.2023 58.8619 36.2236Z" stroke="#ED8585" stroke-width="2" stroke-miterlimit="10"/>
<path d="M54.7286 29.6503L59.5008 29.7127" stroke="#ED8585" stroke-width="0.5" stroke-miterlimit="10"/>
<path d="M54.6978 32.6453L59.4699 32.6765" stroke="#ED8585" stroke-width="0.5" stroke-miterlimit="10"/>
<path d="M79.1724 11.3737L49.2806 11.5323C48.9567 11.5341 48.6954 11.7981 48.6971 12.122C48.6988 12.4459 48.9627 12.7071 49.2867 12.7054L79.1785 12.5468C79.5024 12.5451 79.7636 12.2811 79.762 11.9572C79.7603 11.6332 79.4963 11.372 79.1724 11.3737Z" fill="#353535"/>
<path d="M69.1972 14.4529L49.2806 14.5586C48.9567 14.5603 48.6954 14.8243 48.6971 15.1482C48.6988 15.4721 48.9628 15.7333 49.2867 15.7316L69.2032 15.626C69.5272 15.6242 69.7884 15.3602 69.7867 15.0363C69.7851 14.7124 69.5211 14.4512 69.1972 14.4529Z" fill="#353535"/>
<path d="M90.256 17.3675L49.2806 17.5849C48.9567 17.5866 48.6954 17.8506 48.6971 18.1745C48.6988 18.4984 48.9628 18.7596 49.2867 18.7579L90.2621 18.5405C90.586 18.5388 90.8472 18.2748 90.8456 17.9509C90.8439 17.6269 90.5799 17.3657 90.256 17.3675Z" fill="#353535"/>
<path d="M90.441 24.9473L70.5244 25.053C70.2005 25.0547 69.9392 25.3187 69.9409 25.6426C69.9426 25.9665 70.2065 26.2278 70.5305 26.226L90.447 26.1204C90.7709 26.1186 91.0322 25.8547 91.0305 25.5307C91.0288 25.2068 90.7649 24.9456 90.441 24.9473Z" fill="#353535"/>
<path d="M90.5027 28.3791L78.5294 28.4426C78.2055 28.4443 77.9442 28.7083 77.9459 29.0322C77.9476 29.3562 78.2115 29.6174 78.5355 29.6156L90.5088 29.5521C90.8327 29.5504 91.094 29.2864 91.0923 28.9625C91.0906 28.6385 90.8267 28.3773 90.5027 28.3791Z" fill="#353535"/>
<path d="M60.1878 55.9881L49.874 56.0429C49.3638 56.0456 48.9525 56.4668 48.9552 56.9837L49.0197 69.4786C49.0224 69.9955 49.4381 70.4124 49.9482 70.4097L60.2621 70.3549C60.7722 70.3522 61.1836 69.931 61.1809 69.4141L61.1163 56.9192C61.1136 56.4023 60.698 55.9854 60.1878 55.9881Z" fill="#606060"/>
<mask id="mask0" mask-type="alpha" maskUnits="userSpaceOnUse" x="48" y="55" width="14" height="16">
<path d="M58.1107 55.9979L51.9589 56.0305C50.3021 56.0393 48.9659 57.3896 48.9745 59.0464L49.0179 67.4471C49.0265 69.104 50.3765 70.44 52.0333 70.4312L58.1851 70.3985C59.842 70.3898 61.1782 69.0395 61.1696 67.3827L61.1262 58.9819C61.1176 57.3251 59.7676 55.9891 58.1107 55.9979Z" fill="#5E9BC9"/>
</mask>
<g mask="url(#mask0)">
<path d="M55.8065 57.9053C56.1181 57.5054 56.5443 57.2131 57.0266 57.0688C57.5088 56.9245 58.0233 56.9351 58.4994 57.0994C58.9754 57.2636 59.3895 57.5732 59.6846 57.9858C59.9798 58.3983 60.1416 58.8934 60.1476 59.4029C60.1101 59.8634 60.0484 60.3217 59.9629 60.7756C59.92 61.0017 59.9224 61.2342 59.97 61.4593C60.0176 61.6844 60.1094 61.8975 60.24 62.0859C60.4546 62.2993 60.6921 62.4877 60.9481 62.6475C61.349 62.9827 61.6317 63.4407 61.7539 63.9526C61.876 64.4646 61.8309 65.0028 61.6254 65.4866C61.4407 65.8922 61.102 66.2978 61.1328 66.7658C61.1636 67.2337 61.5947 67.6393 61.7794 68.1073C61.8546 68.3873 61.8542 68.6827 61.7784 68.9625C61.7026 69.2424 61.5541 69.4965 61.3484 69.6984C60.9381 70.0977 60.4431 70.3966 59.9013 70.572C59.1008 70.884 58.0848 71.0712 57.4383 70.5096C56.7917 69.948 56.8225 69.5112 56.5762 68.9809C56.3299 68.4505 55.8681 67.8889 55.2831 67.8889" fill="#353535"/>
<path d="M54.7443 74.6092C58.196 74.6092 60.9943 72.7095 60.9943 70.3661C60.9943 68.0228 58.196 66.1231 54.7443 66.1231C51.2925 66.1231 48.4943 68.0228 48.4943 70.3661C48.4943 72.7095 51.2925 74.6092 54.7443 74.6092Z" fill="white"/>
<path d="M53.7435 63.8644V66.4539C53.7435 66.6219 53.7762 66.7882 53.8396 66.9434C53.9031 67.0986 53.996 67.2396 54.1133 67.3584C54.2305 67.4771 54.3696 67.5714 54.5228 67.6357C54.6759 67.6999 54.8401 67.733 55.0058 67.733C55.1716 67.733 55.3358 67.6999 55.4889 67.6357C55.6421 67.5714 55.7812 67.4771 55.8984 67.3584C56.0157 67.2396 56.1086 67.0986 56.1721 66.9434C56.2355 66.7882 56.2682 66.6219 56.2682 66.4539V63.8644H53.7435Z" fill="#FFCF9C"/>
<path d="M55.0657 65.7809C57.0381 65.7704 58.6287 64.1417 58.6184 62.1429C58.608 60.1442 57.0007 58.5324 55.0283 58.5429C53.0559 58.5534 51.4653 60.1821 51.4756 62.1808C51.4859 64.1796 53.0933 65.7914 55.0657 65.7809Z" fill="#FFCF9C"/>
<path d="M56.5145 57.9989C55.0982 56.0646 51.9578 55.8774 51.0958 58.0613C50.6339 59.2469 51.3113 60.0269 49.7103 61.8052C48.9406 62.6787 47.9554 63.7083 47.7399 65.0187C47.0009 69.5425 51.496 70.2912 52.9739 68.4193C54.4517 66.5474 54.1438 65.6738 52.8815 64.3635C51.6192 63.0531 52.1426 62.086 53.4049 61.774C54.6672 61.462 55.0982 61.5244 55.283 60.1829C55.309 60.0097 55.369 59.8436 55.4595 59.6944C55.55 59.5452 55.6691 59.4158 55.8097 59.314C55.9503 59.2122 56.1097 59.14 56.2783 59.1017C56.447 59.0634 56.6215 59.0597 56.7916 59.0909C57.9923 59.4029 59.1315 61.0252 58.5773 63.5835L59.5317 61.9612L58.5773 58.6229" fill="#353535"/>
</g>
<path d="M76.3952 56.7196H64.7121C64.3675 56.7196 64.0881 56.999 64.0881 57.3436C64.0881 57.6882 64.3675 57.9676 64.7121 57.9676H76.3952C76.7398 57.9676 77.0192 57.6882 77.0192 57.3436C77.0192 56.999 76.7398 56.7196 76.3952 56.7196Z" fill="#353535"/>
<path d="M82.7845 59.4856L64.6747 59.5817C64.3507 59.5834 64.0895 59.8474 64.0912 60.1713C64.0928 60.4953 64.3568 60.7565 64.6807 60.7547L82.7905 60.6586C83.1145 60.6569 83.3757 60.3929 83.374 60.069C83.3724 59.7451 83.1084 59.4839 82.7845 59.4856Z" fill="#353535"/>
<path d="M76.5864 62.5445L64.6747 62.6077C64.3507 62.6094 64.0895 62.8734 64.0912 63.1973C64.0928 63.5213 64.3568 63.7825 64.6807 63.7807L76.5925 63.7175C76.9164 63.7158 77.1776 63.4518 77.176 63.1279C77.1743 62.804 76.9103 62.5428 76.5864 62.5445Z" fill="#353535"/>
<path d="M89.6341 65.7672H64.7121C64.3675 65.7672 64.0881 66.0466 64.0881 66.3912C64.0881 66.7358 64.3675 67.0152 64.7121 67.0152H89.6341C89.9787 67.0152 90.2581 66.7358 90.2581 66.3912C90.2581 66.0466 89.9787 65.7672 89.6341 65.7672Z" fill="#353535"/>
<path d="M79.0417 68.5526L64.6747 68.6288C64.3507 68.6305 64.0895 68.8945 64.0912 69.2184C64.0928 69.5424 64.3568 69.8036 64.6807 69.8018L79.0477 69.7256C79.3717 69.7239 79.6329 69.4599 79.6312 69.136C79.6296 68.812 79.3656 68.5508 79.0417 68.5526Z" fill="#353535"/>
</g>
<g opacity="0.7">
<path d="M70 70C83.8071 70 95 58.8071 95 45C95 31.1929 83.8071 20 70 20C56.1929 20 45 31.1929 45 45C45 58.8071 56.1929 70 70 70Z" fill="#51CE85"/>
<path d="M83 35L67 53L57 45" stroke="white" stroke-width="2" stroke-miterlimit="10" stroke-linecap="round" stroke-linejoin="round"/>
</g>
</g>
<defs>
<filter id="filter0_d" x="-20" y="-20" width="179" height="129" filterUnits="userSpaceOnUse" color-interpolation-filters="sRGB">
<feFlood flood-opacity="0" result="BackgroundImageFix"/>
<feColorMatrix in="SourceAlpha" type="matrix" values="0 0 0 0 0 0 0 0 0 0 0 0 0 0 0 0 0 0 127 0"/>
<feOffset/>
<feGaussianBlur stdDeviation="10"/>
<feColorMatrix type="matrix" values="0 0 0 0 0 0 0 0 0 0 0 0 0 0 0 0 0 0 0.15 0"/>
<feBlend mode="normal" in2="BackgroundImageFix" result="effect1_dropShadow"/>
<feBlend mode="normal" in="SourceGraphic" in2="effect1_dropShadow" result="shape"/>
</filter>
<linearGradient id="paint0_linear" x1="139" y1="89" x2="0" y2="89" gradientUnits="userSpaceOnUse">
<stop stop-color="#2D2D2D"/>
<stop offset="1" stop-color="#4C4C4C"/>
</linearGradient>
<clipPath id="clip0">
<rect width="139" height="89" fill="white"/>
</clipPath>
<clipPath id="clip1">
<rect width="50" height="76" fill="white" transform="translate(45 7)"/>
</clipPath>
</defs>
</svg>
