<svg viewBox="0 0 138 89" fill="none" xmlns="http://www.w3.org/2000/svg">
<g clip-path="url(#clip0)">
<g filter="url(#filter0_d)">
<rect width="138" height="89" rx="2" fill="url(#paint0_linear)"/>
<rect width="138" height="89" rx="2" fill="white"/>
<rect x="0.5" y="0.5" width="137" height="88" rx="1.5" stroke="#7287D5"/>
</g>
<g clip-path="url(#clip1)">
<path d="M34.3092 79.3447C34.6939 79.8355 35.1837 80.2346 35.7429 80.513C36.3022 80.7914 36.9168 80.942 37.542 80.9539H100.627C105.615 80.9539 105.799 79.4367 105.799 77.0459C105.799 74.6551 105.799 36.0804 105.799 31.8505C105.799 27.6206 106.03 26.6551 106.584 25.9194C106.829 25.572 106.968 25.1616 106.984 24.7376C107.001 24.3135 106.894 23.8938 106.677 23.5286C106.261 22.793 106.261 21.2298 106.261 20.0804C106.261 18.9309 106.261 -12.4714 106.261 -17.2989C106.261 -22.1265 106.261 -26.3564 106.261 -28.1495C106.261 -29.9426 105.522 -30.9541 102.982 -30.9541H37.6805C35.5099 -31.0001 34.5401 -31.0921 34.5401 -29.207C34.5401 -27.3219 34.3092 79.3447 34.3092 79.3447Z" fill="#1F3756"/>
<path d="M32 32.1262C32 32.1262 32 29.8733 32 27.8963C32 25.9193 32.7389 24.54 33.8935 24.54H105.938C105.938 24.54 105.06 25.4136 105.06 27.6664C105.06 29.9193 105.06 62.4251 105.06 66.6549C105.06 69.0457 105.06 76.4021 105.06 77.2756C105.06 78.1492 104.506 79.3446 102.151 79.3446H36.1102C34.3553 79.3446 32 78.8848 32 75.1607C32 71.4366 32 32.1262 32 32.1262Z" fill="#F5F6F8"/>
<path d="M33.8933 24.4941C33.3584 24.4472 32.8626 24.196 32.5096 23.7932C32.1566 23.3904 31.9739 22.8671 31.9999 22.3332C31.9999 20.3562 32.046 -26.5864 32.046 -27.6898C32.046 -28.7932 32.4155 -29.7588 34.1242 -29.7588H102.105C104.829 -29.7588 105.568 -28.4254 105.568 -25.8047C105.568 -23.1841 105.522 21.5056 105.522 22.5631C105.522 23.6205 105.522 24.4481 106.122 24.4481L33.8933 24.4941Z" fill="#F5F6F8"/>
<g style="mix-blend-mode:multiply">
<g style="mix-blend-mode:multiply">
<path d="M32 27.8504C32 28.586 32 29.3676 32 30.0573C33.016 28.678 34.6786 26.3332 37.4495 26.3332H92.8682C100.211 26.3332 103.813 27.6665 105.06 32.4481C105.06 29.8734 105.06 28.0803 105.06 27.6205C105.06 25.3676 105.938 24.4941 105.938 24.4941H33.8935C32.7851 24.4941 32 25.8734 32 27.8504Z" fill="#E5E5E5"/>
</g>
</g>
<g style="mix-blend-mode:multiply">
<g style="mix-blend-mode:multiply">
<path d="M99.2412 22.3793H37.2646C36.1418 22.4218 35.0333 22.1176 34.0908 21.5086C33.1484 20.8995 32.418 20.0153 31.9999 18.977C31.9999 20.8621 31.9999 22.0575 31.9999 22.3334C31.9739 22.8673 32.1566 23.3905 32.5096 23.7934C32.8626 24.1962 33.3584 24.4474 33.8933 24.4943H106.122C105.522 24.4943 105.522 23.1609 105.522 22.6092C105.522 22.0575 105.522 20.6322 105.522 17.9196C104.783 20.8161 101.643 22.3793 99.2412 22.3793Z" fill="#E5E5E5"/>
</g>
</g>
<g style="mix-blend-mode:multiply">
<path d="M33.4314 24.8159L105.476 24.632C105.476 24.632 37.126 23.5285 33.4314 24.8159Z" fill="#DDDBD1"/>
</g>
<path opacity="0.8" d="M33.2004 78.4252H33.2466L33.339 78.5172L33.4775 78.6092L33.847 78.7931L34.4012 78.977L35.1401 79.1149L36.0176 79.2069L35.1401 79.1149L34.4012 78.931L33.8932 78.885L33.5237 78.6551L33.3852 78.5632L33.2928 78.4712L33.2004 78.4252Z" fill="white"/>
<path d="M54.0004 80.9793H35.5546C35.5546 80.9793 32.3153 81.797 32.0004 73.1533V29L32.4053 72.686C32.5382 74.6285 32.9231 76.3945 33.4959 77.6906C34.0688 78.9867 34.7952 79.7351 35.5546 79.8113L54.0004 80.9793Z" fill="#1F3756"/>
<path d="M53.2839 13.454C58.1676 11.7418 60.7324 6.41237 59.0126 1.55038C57.2928 -3.31161 51.9395 -5.86504 47.0558 -4.15286C42.1722 -2.44068 39.6073 2.88873 41.3271 7.75072C43.047 12.6127 48.4002 15.1661 53.2839 13.454Z" stroke="#ED8585" stroke-width="0.5" stroke-miterlimit="10"/>
<path d="M52.7934 12.0663C56.9073 10.6241 59.0678 6.13475 57.6191 2.03918C56.1704 -2.05638 51.661 -4.2073 47.5472 -2.76502C43.4333 -1.32275 41.2728 3.16656 42.7215 7.26213C44.1702 11.3577 48.6796 13.5086 52.7934 12.0663Z" stroke="#ED8585" stroke-width="2" stroke-miterlimit="10"/>
<path d="M46.5936 2.3792L53.7519 2.47115" stroke="#ED8585" stroke-width="0.5" stroke-miterlimit="10"/>
<path d="M46.5471 6.79304L53.7054 6.83901" stroke="#ED8585" stroke-width="0.5" stroke-miterlimit="10"/>
<path d="M100.27 0.505823L82.2792 0.599605C81.8018 0.602093 81.4168 0.991096 81.4193 1.46847C81.4219 1.94584 81.8109 2.33081 82.2882 2.32832L100.279 2.23454C100.756 2.23205 101.141 1.84304 101.139 1.36567C101.136 0.888303 100.747 0.503335 100.27 0.505823Z" fill="#353535"/>
<path d="M54.7821 41.1931L39.3112 41.2738C38.5461 41.2778 37.929 41.8985 37.933 42.6603L38.0299 61.0738C38.0339 61.8356 38.6574 62.4499 39.4226 62.4459L54.8934 62.3652C55.6586 62.3613 56.2756 61.7405 56.2716 60.9787L56.1748 42.5652C56.1708 41.8034 55.5472 41.1891 54.7821 41.1931Z" fill="#606060"/>
<mask id="mask0" mask-type="alpha" maskUnits="userSpaceOnUse" x="37" y="41" width="20" height="22">
<path d="M53.1664 41.1994L40.9388 41.2632C39.282 41.2718 37.9459 42.622 37.9546 44.2788L38.0347 59.5009C38.0434 61.1577 39.3936 62.4938 41.0504 62.4852L53.2781 62.4215C54.9349 62.4128 56.2709 61.0627 56.2622 59.4059L56.1822 44.1838C56.1735 42.5269 54.8233 41.1908 53.1664 41.1994Z" fill="#5E9BC9"/>
</mask>
<g mask="url(#mask0)">
<path d="M48.2098 44.0182C48.6772 43.4289 49.3165 42.9982 50.0399 42.7855C50.7633 42.5728 51.5351 42.5885 52.2491 42.8305C52.9631 43.0725 53.5843 43.5289 54.027 44.1368C54.4698 44.7447 54.7124 45.4743 54.7215 46.2251C54.6652 46.9039 54.5727 47.5792 54.4444 48.2481C54.38 48.5813 54.3836 48.924 54.455 49.2557C54.5264 49.5875 54.6642 49.9015 54.86 50.1792C55.182 50.4936 55.5383 50.7712 55.9222 51.0068C56.5235 51.5008 56.9477 52.1757 57.1309 52.9301C57.3141 53.6845 57.2465 54.4777 56.9382 55.1907C56.6611 55.7884 56.1531 56.3861 56.1993 57.0757C56.2455 57.7654 56.8921 58.3631 57.1691 59.0527C57.2819 59.4654 57.2814 59.9007 57.1677 60.3131C57.0539 60.7255 56.8312 61.1 56.5226 61.3976C55.9073 61.986 55.1648 62.4264 54.352 62.6849C53.1513 63.1447 51.6273 63.4206 50.6574 62.593C49.6876 61.7654 49.7338 61.1217 49.3643 60.3401C48.9949 59.5585 48.3021 58.7309 47.4247 58.7309" fill="#353535"/>
<path d="M46.6166 68.6345C51.7942 68.6345 55.9916 65.835 55.9916 62.3816C55.9916 58.9282 51.7942 56.1287 46.6166 56.1287C41.4389 56.1287 37.2416 58.9282 37.2416 62.3816C37.2416 65.835 41.4389 68.6345 46.6166 68.6345Z" fill="white"/>
<path d="M45.1156 52.8002V56.6163C45.1156 56.8638 45.1646 57.1089 45.2597 57.3376C45.3549 57.5663 45.4944 57.7741 45.6702 57.9492C45.846 58.1242 46.0547 58.2631 46.2845 58.3578C46.5142 58.4525 46.7604 58.5013 47.0091 58.5013C47.2577 58.5013 47.5039 58.4525 47.7337 58.3578C47.9634 58.2631 48.1721 58.1242 48.348 57.9492C48.5238 57.7741 48.6633 57.5663 48.7584 57.3376C48.8536 57.1089 48.9025 56.8638 48.9025 56.6163V52.8002H45.1156Z" fill="#FFCF9C"/>
<path d="M47.099 55.6245C50.0576 55.6091 52.4435 53.2088 52.428 50.2633C52.4125 47.3178 50.0015 44.9425 47.0429 44.9579C44.0842 44.9734 41.6983 47.3736 41.7138 50.3191C41.7293 53.2646 44.1403 55.6399 47.099 55.6245Z" fill="#FFCF9C"/>
<path d="M49.2719 44.1564C47.1475 41.3058 42.4369 41.0299 41.1438 44.2483C40.451 45.9955 41.4671 47.1449 39.0656 49.7656C37.911 51.0529 36.4332 52.5702 36.1099 54.5012C35.0015 61.1679 41.7442 62.2713 43.9609 59.5127C46.1776 56.7541 45.7158 55.4667 43.8224 53.5357C41.9289 51.6047 42.714 50.1794 44.6075 49.7196C46.5009 49.2598 47.1475 49.3518 47.4246 47.3748C47.4636 47.1196 47.5537 46.8749 47.6894 46.6549C47.8251 46.435 48.0037 46.2444 48.2147 46.0944C48.4256 45.9444 48.6647 45.838 48.9176 45.7815C49.1706 45.725 49.4324 45.7196 49.6875 45.7656C51.4886 46.2254 53.1974 48.6162 52.3661 52.3863L53.7977 49.9955L52.3661 45.0759" fill="#353535"/>
</g>
<path d="M79.1097 42.271H61.5522C61.0444 42.271 60.6327 42.6827 60.6327 43.1906C60.6327 43.6984 61.0444 44.1101 61.5522 44.1101H79.1097C79.6175 44.1101 80.0292 43.6984 80.0292 43.1906C80.0292 42.6827 79.6175 42.271 79.1097 42.271Z" fill="#353535"/>
<path d="M88.6926 46.3471L61.497 46.4888C61.0197 46.4913 60.6347 46.8803 60.6372 47.3577C60.6397 47.8351 61.0288 48.22 61.5061 48.2175L88.7017 48.0758C89.1791 48.0733 89.5641 47.6843 89.5615 47.2069C89.559 46.7296 89.17 46.3446 88.6926 46.3471Z" fill="#353535"/>
<path d="M79.3956 50.855L61.497 50.9483C61.0197 50.9507 60.6347 51.3397 60.6372 51.8171C60.6397 52.2945 61.0288 52.6794 61.5061 52.677L79.4046 52.5837C79.882 52.5812 80.267 52.1922 80.2644 51.7148C80.2619 51.2374 79.8729 50.8525 79.3956 50.855Z" fill="#353535"/>
<path d="M98.9681 55.6044H61.5522C61.0444 55.6044 60.6327 56.016 60.6327 56.5239C60.6327 57.0317 61.0444 57.4434 61.5522 57.4434H98.9681C99.4759 57.4434 99.8876 57.0317 99.8876 56.5239C99.8876 56.016 99.4759 55.6044 98.9681 55.6044Z" fill="#353535"/>
<path d="M83.0785 59.709L61.497 59.8215C61.0197 59.824 60.6347 60.213 60.6372 60.6904C60.6397 61.1678 61.0288 61.5527 61.5061 61.5502L83.0875 61.4377C83.5649 61.4352 83.9499 61.0462 83.9474 60.5689C83.9448 60.0915 83.5558 59.7065 83.0785 59.709Z" fill="#353535"/>
</g>
<rect x="25" width="89" height="1" fill="#7287D5"/>
<g opacity="0.7">
<path d="M69 70C82.8071 70 94 58.8071 94 45C94 31.1929 82.8071 20 69 20C55.1929 20 44 31.1929 44 45C44 58.8071 55.1929 70 69 70Z" fill="#EB5757"/>
<path d="M60 54L69 45L78 36" stroke="white" stroke-width="2" stroke-miterlimit="10" stroke-linecap="round"/>
<path d="M60 36L69 45L78 54" stroke="white" stroke-width="2" stroke-miterlimit="10" stroke-linecap="round"/>
</g>
</g>
<defs>
<filter id="filter0_d" x="-20" y="-20" width="178" height="129" filterUnits="userSpaceOnUse" color-interpolation-filters="sRGB">
<feFlood flood-opacity="0" result="BackgroundImageFix"/>
<feColorMatrix in="SourceAlpha" type="matrix" values="0 0 0 0 0 0 0 0 0 0 0 0 0 0 0 0 0 0 127 0"/>
<feOffset/>
<feGaussianBlur stdDeviation="10"/>
<feColorMatrix type="matrix" values="0 0 0 0 0 0 0 0 0 0 0 0 0 0 0 0 0 0 0.15 0"/>
<feBlend mode="normal" in2="BackgroundImageFix" result="effect1_dropShadow"/>
<feBlend mode="normal" in="SourceGraphic" in2="effect1_dropShadow" result="shape"/>
</filter>
<linearGradient id="paint0_linear" x1="138" y1="89" x2="0" y2="89" gradientUnits="userSpaceOnUse">
<stop stop-color="#2D2D2D"/>
<stop offset="1" stop-color="#4C4C4C"/>
</linearGradient>
<clipPath id="clip0">
<rect width="138" height="89" fill="white"/>
</clipPath>
<clipPath id="clip1">
<rect width="75" height="112" fill="white" transform="translate(32 -31)"/>
</clipPath>
</defs>
</svg>
