<svg viewBox="0 0 17 16" fill="none" xmlns="http://www.w3.org/2000/svg">
<path fill-rule="evenodd" clip-rule="evenodd" d="M8.00134 9.41547L14.2238 3.44404C14.3774 3.29404 14.631 3.29761 14.7882 3.45119L15.8812 4.51904C16.0384 4.67262 16.0419 4.92262 15.8883 5.07262L8.29068 12.3655C8.21209 12.444 8.10493 12.4798 8.00134 12.4726C7.89418 12.4762 7.7906 12.4405 7.71201 12.3655L0.114342 5.07262C-0.0392542 4.92262 -0.0356822 4.67262 0.121486 4.51904L1.21452 3.45119C1.37169 3.29761 1.6253 3.29404 1.7789 3.44404L8.00134 9.41547Z" fill="#868D93"/>
<mask id="mask0" mask-type="alpha" maskUnits="userSpaceOnUse" x="0" y="3" width="17" height="10">
<path fill-rule="evenodd" clip-rule="evenodd" d="M8.00134 9.41547L14.2238 3.44404C14.3774 3.29404 14.631 3.29761 14.7882 3.45119L15.8812 4.51904C16.0384 4.67262 16.0419 4.92262 15.8883 5.07262L8.29068 12.3655C8.21209 12.444 8.10493 12.4798 8.00134 12.4726C7.89418 12.4762 7.7906 12.4405 7.71201 12.3655L0.114342 5.07262C-0.0392542 4.92262 -0.0356822 4.67262 0.121486 4.51904L1.21452 3.45119C1.37169 3.29761 1.6253 3.29404 1.7789 3.44404L8.00134 9.41547Z" fill="white"/>
</mask>
<g mask="url(#mask0)">
<rect width="16" height="16" fill="#868D93"/>
</g>
</svg>
