<svg viewBox="0 0 26 26" fill="none" xmlns="http://www.w3.org/2000/svg">
<g clip-path="url(#clip0)">
<path d="M13.0016 0.428223L0 10.1351V25.5718H26V10.1351L13.0016 0.428223ZM9.4048 7.35482C9.78629 6.65755 10.3119 6.13256 10.9788 5.78409C11.644 5.43267 12.4031 5.25582 13.2615 5.25582C13.9853 5.25582 14.6315 5.39802 15.1971 5.67817C15.7623 5.96257 16.1925 6.36269 16.4939 6.88344C16.7881 7.40484 16.9407 7.97331 16.9407 8.58885C16.9407 9.32339 16.7139 9.98764 16.2601 10.5819C15.6913 11.3312 14.9653 11.7052 14.0765 11.7052C13.8372 11.7052 13.6584 11.6653 13.5358 11.5809C13.4165 11.4953 13.3328 11.3743 13.2929 11.2119C12.9588 11.5427 12.5636 11.7087 12.1197 11.7087C11.6408 11.7087 11.2439 11.543 10.9288 11.2155C10.613 10.8846 10.4558 10.4437 10.4558 9.89775C10.4558 9.2165 10.6447 8.60128 11.0255 8.04359C11.4884 7.36234 12.0775 7.02041 12.7986 7.02041C13.3122 7.02041 13.6914 7.21687 13.9346 7.61046L14.0428 7.13057H15.1869L14.5338 10.2292C14.4929 10.4273 14.4727 10.5515 14.4727 10.6094C14.4727 10.6839 14.4897 10.7336 14.5214 10.7719C14.5537 10.8082 14.5943 10.8258 14.6381 10.8258C14.7806 10.8258 14.9581 10.7447 15.1761 10.5744C15.4707 10.3577 15.708 10.0599 15.8891 9.69344C16.0702 9.32437 16.1634 8.9419 16.1634 8.54669C16.1634 7.83896 15.9077 7.24662 15.3945 6.76674C14.8803 6.29274 14.1621 6.05247 13.2442 6.05247C12.4619 6.05247 11.8003 6.21167 11.2576 6.53235C10.715 6.84813 10.3054 7.29827 10.0269 7.8772C9.75262 8.45254 9.61565 9.05632 9.61565 9.68167C9.61565 10.2884 9.77223 10.8428 10.0769 11.3403C10.3858 11.8415 10.8157 12.2037 11.3701 12.4338C11.9245 12.6617 12.561 12.7757 13.2752 12.7757C13.9607 12.7757 14.5531 12.68 15.0509 12.4877C15.5485 12.2959 15.9463 12.0115 16.2493 11.6244H17.1669C16.8793 12.2102 16.4389 12.6679 15.8433 13.0023C15.1595 13.3825 14.3265 13.5711 13.3446 13.5711C12.3907 13.5711 11.5708 13.4119 10.8791 13.0912C10.1858 12.7689 9.67318 12.2955 9.33288 11.6692C8.99683 11.0422 8.8311 10.359 8.8311 9.62021C8.83175 8.81049 9.0207 8.05471 9.4048 7.35482ZM0.916616 10.4414L10.5091 16.8747L0.916616 24.2992V10.4414ZM1.64527 24.7931L13.0016 16.0045L24.3544 24.7931H1.64527ZM25.0824 24.2992L15.4919 16.8747L25.0827 10.4414V24.2992H25.0824ZM13.4698 8.06157C13.6221 8.23515 13.6983 8.4849 13.6983 8.81082C13.6983 9.10208 13.6414 9.41754 13.5306 9.75195C13.4214 10.0906 13.2877 10.3489 13.1353 10.5238C13.0314 10.6463 12.9202 10.7369 12.8111 10.7938C12.6675 10.8752 12.5149 10.9147 12.3501 10.9147C12.1298 10.9167 11.9481 10.8284 11.7974 10.6552C11.6502 10.4816 11.5774 10.2152 11.5774 9.84937C11.5774 9.5751 11.629 9.25932 11.7365 8.90496C11.8441 8.5493 12.0013 8.27863 12.2115 8.08478C12.423 7.89257 12.6515 7.79679 12.898 7.79679C13.1288 7.79842 13.3207 7.88635 13.4698 8.06157Z" fill="#FFC400"/>
</g>
<defs>
<clipPath id="clip0">
<rect width="26" height="26" fill="white"/>
</clipPath>
</defs>
</svg>
