<svg viewBox="0 0 26 26" fill="none" xmlns="http://www.w3.org/2000/svg">
<g clip-path="url(#clip0)">
<path d="M25.4171 20.5476L21.4018 16.5319C20.602 15.7353 19.2776 15.7595 18.4499 16.5875L16.427 18.6099C16.2992 18.5395 16.1669 18.4659 16.0278 18.3879C14.7504 17.68 13.002 16.7099 11.1621 14.8687C9.31684 13.0236 8.34579 11.2725 7.63581 9.99425C7.56089 9.85883 7.4891 9.72826 7.41822 9.60427L8.77589 8.24861L9.44338 7.5803C10.2723 6.75117 10.2951 5.42711 9.49723 4.62823L5.48194 0.612049C4.68404 -0.185706 3.35901 -0.161504 2.5301 0.667623L1.39846 1.80577L1.42938 1.83647C1.04992 2.32065 0.732839 2.87908 0.496874 3.48128C0.279359 4.05449 0.143935 4.60149 0.0820118 5.14961C-0.448181 9.54503 1.5604 13.5621 7.01142 19.0132C14.5464 26.5477 20.6186 25.9785 20.8806 25.9507C21.4511 25.8825 21.9979 25.7462 22.5535 25.5304C23.1505 25.2972 23.7085 24.9805 24.1924 24.6019L24.2172 24.6239L25.3636 23.5013C26.1908 22.6723 26.2146 21.3478 25.4171 20.5476Z" fill="#FFC400"/>
</g>
<defs>
<clipPath id="clip0">
<rect width="26" height="26" fill="white"/>
</clipPath>
</defs>
</svg>
