<?xml version="1.0" encoding="utf-8"?>
<!-- Generator: Adobe Illustrator 21.0.2, SVG Export Plug-In . SVG Version: 6.00 Build 0)  -->
<svg version="1.1" id="Layer_1" xmlns="http://www.w3.org/2000/svg" xmlns:xlink="http://www.w3.org/1999/xlink" x="0px" y="0px"
	 viewBox="0 0 34 34" style="enable-background:new 0 0 34 34;" xml:space="preserve">
<style type="text/css">
	.st0{display:none;fill:#7A965A;}
	.st1{display:none;}
	.st2{display:inline;fill:#7A965A;}
	.st3{fill:#7A965A;}
</style>
<path id="Forma_1" class="st0" d="M0,3.3v27.4h34V3.3H0z M17,20.2L3.5,5.3h26.9L17,20.2z M11.4,16.9L2,27.1V6.8L11.4,16.9z
	 M12.7,18.5l4.3,4.4l4.3-4.4L31,28.6H3L12.7,18.5z M22.8,16.4L32,6.8v20.3L22.8,16.4z"/>
<path class="st0" d="M16.9,22.5h0.3c2.3,0,4.1-2.1,5.5-3.7c3-3.5,2.5-9.6,2.5-10.2C25,4.3,23,2.2,21.4,1.2C20.1,0.4,18.7,0,17.1,0
	H17c-0.9,0-2.6,0.1-4.2,1.1S9.2,4.2,9,8.5c-0.1,0.6-0.6,6.7,2.5,10.2C12.7,20.4,14.6,22.4,16.9,22.5z M11,8.8C11,8.7,11,8.7,11,8.8
	c0.3-5.9,4.2-6.5,5.9-6.5H17c2.1,0,5.7,0.9,5.9,6.5c0,0,0,0,0,0.1s0.7,5.7-1.8,8.6c-1.1,1.4-2.4,3-4.1,3l0,0c-1.7,0-3.3-1.8-4.1-2.9
	C10.3,14.5,11,8.8,11,8.8z M33,26.2L33,26.2c0-0.1,0-0.1,0-0.2c0-1.5-0.1-5.2-3.5-6.3h-0.1c-3.5-0.9-6.5-2.9-6.5-3
	c-0.5-0.3-1.1-0.2-1.4,0.3s-0.3,1.1,0.2,1.4c0.1,0.1,3.2,2.3,7.1,3.3c1.8,0.6,2,2.6,2.1,4.4c0,0.1,0,0.1,0,0.2c0,0.7,0,1.8-0.2,2.4
	c-1.3,0.7-6.2,3.2-13.8,3.2c-7.5,0-12.5-2.5-13.8-3.2C3.1,28,3,27,3,26.3c0-0.1,0-0.1,0-0.2c0.1-1.8,0.3-3.7,2.1-4.4
	c3.9-1,7-3.2,7.1-3.3c0.5-0.3,0.5-0.9,0.2-1.3c-0.3-0.5-0.9-0.7-1.4-0.4c0,0-2.9,2.1-6.5,3H4.4C1.1,20.8,1,24.5,1,26
	c0,0.1,0,0.1,0,0.2l0,0c0,0.4,0,2.5,0.4,3.5c0.1,0.2,0.2,0.4,0.4,0.5C2,30.4,7.6,34,17,34s15-3.6,15.3-3.7c0.2-0.1,0.3-0.3,0.4-0.5
	C33.1,28.7,33.1,26.6,33,26.2z"/>
<path class="st0" d="M6.9,22.6c3.3,4,7.3,7.1,11.9,9.3c1.7,0.8,4.1,1.8,6.7,2c0.2,0,0.3,0,0.5,0c1.7,0,3.1-0.6,4.3-1.8l0,0
	c0.4-0.5,0.9-0.9,1.4-1.4c0.3-0.3,0.7-0.6,1-1c1.5-1.6,1.5-3.5,0-5l-4.2-4.2c-0.7-0.7-1.6-1.1-2.5-1.1s-1.8,0.4-2.5,1.1L21,22.9
	c-0.2-0.1-0.5-0.3-0.7-0.4c-0.3-0.1-0.5-0.3-0.8-0.4c-2.3-1.5-4.4-3.3-6.3-5.8c-1-1.3-1.7-2.3-2.1-3.4c0.7-0.6,1.3-1.2,1.9-1.8
	c0.2-0.2,0.4-0.4,0.6-0.7c0.8-0.8,1.2-1.6,1.2-2.5s-0.4-1.8-1.2-2.5l-2.1-2.1c-0.2-0.2-0.5-0.5-0.7-0.7c-0.5-0.5-0.9-1-1.4-1.4
	C8.6,0.5,7.8,0.1,6.9,0.1S5.1,0.5,4.4,1.2L1.8,3.8c-1,1-1.5,2.1-1.6,3.4c-0.1,1.7,0.2,3.5,1,5.6C2.3,16.2,4.2,19.3,6.9,22.6z
	 M1.9,7.4C1.9,6.5,2.3,5.7,3,5l2.6-2.6C6,2,6.4,1.8,6.9,1.8c0.4,0,0.9,0.2,1.3,0.6C8.6,2.9,9,3.3,9.5,3.8C9.7,4,10,4.3,10.2,4.5
	l2.1,2.1C12.8,7.1,13,7.5,13,7.9c0,0.4-0.2,0.9-0.7,1.3c-0.2,0.2-0.4,0.4-0.7,0.7c-0.7,0.7-1.3,1.3-1.9,1.9l0,0
	c-0.6,0.6-0.5,1.1-0.4,1.6c0,0,0,0,0,0.1c0.5,1.3,1.3,2.5,2.5,4c2.1,2.6,4.3,4.6,6.8,6.2c0.3,0.2,0.6,0.4,0.9,0.5s0.5,0.3,0.8,0.4
	c0,0,0,0,0.1,0c0.2,0.1,0.4,0.2,0.7,0.2c0.6,0,0.9-0.4,1-0.5l2.6-2.6c0.4-0.4,0.8-0.6,1.3-0.6s1,0.3,1.2,0.6l4.2,4.2
	c0.8,0.8,0.8,1.8,0,2.6c-0.3,0.3-0.6,0.6-0.9,0.9c-0.5,0.5-1,1-1.5,1.5c-0.8,0.9-1.8,1.3-3,1.3c-0.1,0-0.2,0-0.4,0
	c-2.3-0.1-4.4-1-6-1.8c-4.4-2.1-8.2-5.1-11.4-8.9c-2.6-3.1-4.4-6.1-5.5-9.2C2,10.4,1.7,8.8,1.9,7.4z"/>
<rect x="17.8" y="20.9" class="st0" width="7.4" height="1.8"/>
<rect x="8.3" y="13.3" class="st0" width="16.9" height="3.7"/>
<rect x="8.3" y="7.8" class="st0" width="16.9" height="1.8"/>
<g class="st1">
	<path class="st2" d="M29.7,1.1v30.4l-1.9-2l-0.7-0.8l-0.7,0.8l-2.7,3l-2.6-3l-0.7-0.8l-0.7,0.8l-2.8,3l-2.8-3l-0.7-0.8l-0.7,0.8
		L10,32.4l-2.1-2.8l-0.7-0.9l-0.8,0.7l-2.5,2.2V1.1H29.7 M30.7,0.1H2.8v33.8l4.1-3.7l2.8,3.7l3.5-3.8l3.5,3.8l3.5-3.8l3.4,3.8
		l3.5-3.8l3.7,3.9V0.1H30.7z"/>
</g>
<path id="Эллипс_1" class="st3" d="M24.9,14.9c-0.2-0.4-0.6-0.6-1-0.4c-0.4,0.2-0.6,0.6-0.4,1c0.4,1,0.6,2.1,0.6,3.2
	c0,4.8-3.9,8.8-8.8,8.8s-8.8-3.9-8.8-8.8s3.9-8.8,8.8-8.8c1.1,0,2.2,0.2,3.2,0.6c0.4,0.2,0.9,0,1-0.4c0.2-0.4,0-0.9-0.4-1
	c-1.2-0.5-2.5-0.7-3.8-0.7C9.5,8.3,4.9,13,4.9,18.7S9.5,29,15.2,29s10.4-4.6,10.4-10.4C25.6,17.4,25.3,16.1,24.9,14.9z M29.8,14.5
	c-0.1-0.4-0.6-0.7-1-0.5c-0.4,0.1-0.7,0.6-0.5,1c0.3,1.2,0.5,2.5,0.5,3.7c0,7.5-6.1,13.5-13.5,13.5S1.7,26.1,1.7,18.7
	S7.8,5.1,15.2,5.1c1.3,0,2.5,0.2,3.7,0.5c0.4,0.1,0.9-0.1,1-0.5c0.1-0.4-0.1-0.9-0.5-1c-1.4-0.4-2.8-0.6-4.2-0.6
	c-8.3,0-15.1,6.8-15.1,15.1s6.8,15.1,15.1,15.1S30.4,27,30.4,18.7C30.4,17.3,30.2,15.9,29.8,14.5L29.8,14.5z M33.8,5.4
	c-0.2-0.6-0.8-1-1.5-1h-2.8V1.6c0-0.9-0.7-1.6-1.6-1.6c-0.4,0-0.8,0.2-1.1,0.5l-4.6,4.6c-0.4,0.4-0.7,1.1-0.7,1.7v4.5L15,17.8
	c-0.3,0.3-0.3,0.8,0,1.1s0.8,0.3,1.1,0l6.5-6.5h4.5c0.6,0,1.2-0.3,1.7-0.7l4.6-4.6C33.9,6.6,34,6,33.8,5.4L33.8,5.4z M23,6.8
	c0-0.2,0.1-0.4,0.2-0.6l4.6-4.6v3.2L23,9.7V6.8L23,6.8z M27.7,10.6c-0.1,0.1-0.4,0.2-0.6,0.2h-2.9L29.1,6l3.2,0L27.7,10.6z
	 M15.2,16.9c1.1,0,2.1,0.9,2.1,2.1s-0.9,2.1-2.1,2.1s-2.1-0.9-2.1-2.1S14,16.9,15.2,16.9L15.2,16.9z"/>
<circle class="st3" cx="15.2" cy="19" r="2.1"/>
</svg>
