<?xml version="1.0" encoding="utf-8"?>
<!-- Generator: Adobe Illustrator 21.0.2, SVG Export Plug-In . SVG Version: 6.00 Build 0)  -->
<svg version="1.1" id="Layer_1" xmlns="http://www.w3.org/2000/svg" xmlns:xlink="http://www.w3.org/1999/xlink" x="0px" y="0px"
	 viewBox="0 0 34 34" style="enable-background:new 0 0 34 34;" xml:space="preserve">
<style type="text/css">
	.st0{display:none;fill:#7A965A;}
	.st1{fill:#7A965A;}
</style>
<path id="Forma_1" class="st0" d="M0,3.3v27.4h34V3.3H0z M17,20.2L3.5,5.3h26.9L17,20.2z M11.4,16.9L2,27.1V6.8L11.4,16.9z
	 M12.7,18.5l4.3,4.4l4.3-4.4L31,28.6H3L12.7,18.5z M22.8,16.4L32,6.8v20.3L22.8,16.4z"/>
<path class="st0" d="M16.9,22.5h0.3c2.3,0,4.1-2.1,5.5-3.7c3-3.5,2.5-9.6,2.5-10.2C25,4.3,23,2.2,21.4,1.2C20.1,0.4,18.7,0,17.1,0
	H17c-0.9,0-2.6,0.1-4.2,1.1S9.2,4.2,9,8.5c-0.1,0.6-0.6,6.7,2.5,10.2C12.7,20.4,14.6,22.4,16.9,22.5z M11,8.8C11,8.7,11,8.7,11,8.8
	c0.3-5.9,4.2-6.5,5.9-6.5H17c2.1,0,5.7,0.9,5.9,6.5c0,0,0,0,0,0.1s0.7,5.7-1.8,8.6c-1.1,1.4-2.4,3-4.1,3l0,0c-1.7,0-3.3-1.8-4.1-2.9
	C10.3,14.5,11,8.8,11,8.8z M33,26.2L33,26.2c0-0.1,0-0.1,0-0.2c0-1.5-0.1-5.2-3.5-6.3h-0.1c-3.5-0.9-6.5-2.9-6.5-3
	c-0.5-0.3-1.1-0.2-1.4,0.3s-0.3,1.1,0.2,1.4c0.1,0.1,3.2,2.3,7.1,3.3c1.8,0.6,2,2.6,2.1,4.4c0,0.1,0,0.1,0,0.2c0,0.7,0,1.8-0.2,2.4
	c-1.3,0.7-6.2,3.2-13.8,3.2c-7.5,0-12.5-2.5-13.8-3.2C3.1,28,3,27,3,26.3c0-0.1,0-0.1,0-0.2c0.1-1.8,0.3-3.7,2.1-4.4
	c3.9-1,7-3.2,7.1-3.3c0.5-0.3,0.5-0.9,0.2-1.3c-0.3-0.5-0.9-0.7-1.4-0.4c0,0-2.9,2.1-6.5,3H4.4C1.1,20.8,1,24.5,1,26
	c0,0.1,0,0.1,0,0.2l0,0c0,0.4,0,2.5,0.4,3.5c0.1,0.2,0.2,0.4,0.4,0.5C2,30.4,7.6,34,17,34s15-3.6,15.3-3.7c0.2-0.1,0.3-0.3,0.4-0.5
	C33.1,28.7,33.1,26.6,33,26.2z"/>
<path id="Forma_1_1_" class="st1" d="M13.4,24l-2.1-1.1v-0.2c0.8-0.8,0.5-0.3,1.5-1.6c0.3-0.5,0.8-1.8,0.8-2.3v-0.6
	c0-0.5,0-0.6-0.1-1.3c-0.4-2.6-1.2-3.4-4.2-3.4c-0.1,0-1.6-0.1-2.5,0.1c-1.9,0.8-2.1,2.8-2.2,3.2c-0.1,0.4-0.1,0.9-0.1,1.3v0.6
	c0.1,0.6,0.3,1.2,0.5,1.8c0.7,1.2,0.9,1.4,1.7,2.2v0.2l-2.1,1c-0.8,0.4-1.3,1.2-1.3,2.1v0.8c0,0.5,0,1.5,5.7,1.5s5.7-1.1,5.7-1.5
	v-0.7C14.7,25.2,14.2,24.4,13.4,24z M17.6,17.6H30c0.3,0,0.6-0.3,0.6-0.6c0-0.3-0.3-0.6-0.6-0.6H17.6c-0.3,0-0.6,0.3-0.6,0.6
	C17,17.3,17.3,17.6,17.6,17.6z M22.1,19.8h-4.5c-0.3,0-0.6,0.3-0.6,0.6c0,0.3,0.3,0.6,0.6,0.6h4.5c0.3,0,0.6-0.3,0.6-0.6
	C22.7,20.1,22.4,19.8,22.1,19.8z M31.3,7.9H21V2.3h-6.6c-0.3,0-1.3,0-1.3,0v5.7H2.7C1.2,7.9,0,9.1,0,10.6v18.5
	c0,1.5,1.2,2.6,2.7,2.7h28.7c1.5,0,2.6-1.2,2.7-2.7V10.6C34,9.1,32.8,7.9,31.3,7.9z M17,4h2.3v4.5h-4.5V4H17z M32.9,29.1
	c0,0.8-0.7,1.5-1.5,1.5H2.7c-0.8,0-1.5-0.7-1.5-1.5V10.6c0-0.8,0.7-1.5,1.5-1.5H13v3.4H21V9.1h10.4c0.8,0,1.5,0.7,1.5,1.5V29.1z"/>
</svg>
