<?xml version="1.0" encoding="utf-8"?>
<!-- Generator: Adobe Illustrator 21.0.2, SVG Export Plug-In . SVG Version: 6.00 Build 0)  -->
<svg version="1.1" id="Capa_1" xmlns="http://www.w3.org/2000/svg" xmlns:xlink="http://www.w3.org/1999/xlink" x="0px" y="0px"
	 viewBox="0 0 34 34" style="enable-background:new 0 0 34 34;" xml:space="preserve">
<style type="text/css">
	.st0{fill:#7A965A;}
	.st1{fill:none;stroke:#7A965A;stroke-width:2;stroke-linecap:round;stroke-linejoin:round;stroke-miterlimit:10;}
</style>
<g>
	<g>
		<path class="st0" d="M29.9,2.3h-4.6v-1c0-0.7-0.5-1.2-1.2-1.2c-0.7,0-1.2,0.5-1.2,1.2v1h-4.4v-1c0-0.7-0.5-1.2-1.2-1.2
			S16,0.7,16,1.3v1h-4.4v-1c0-0.7-0.5-1.2-1.2-1.2S9.2,0.7,9.2,1.3v1H4.6c-0.7,0-1.2,0.5-1.2,1.2v29.3c0,0.7,0.5,1.2,1.2,1.2h25.4
			c0.7,0,1.2-0.5,1.2-1.2V3.5C31.2,2.8,30.6,2.3,29.9,2.3z M28.7,31.6H5.8V4.7h3.4v0.6c0,0.7,0.5,1.2,1.2,1.2s1.2-0.5,1.2-1.2V4.7
			H16v0.6c0,0.7,0.5,1.2,1.2,1.2s1.2-0.5,1.2-1.2V4.7h4.4v0.6c0,0.7,0.5,1.2,1.2,1.2s1.2-0.5,1.2-1.2V4.7h3.4L28.7,31.6L28.7,31.6z"
			/>
	</g>
</g>
<image style="display:none;overflow:visible;" width="47" height="52" xlink:href="../1.png"  transform="matrix(0.7179 0 0 0.7179 0 -0.6243)">
</image>
<polyline class="st1" points="9.3,14.5 10.5,16.5 14.2,12.3 "/>
<polyline class="st1" points="9.3,22.7 10.5,24.7 14.2,20.5 "/>
<line class="st1" x1="17.3" y1="14.4" x2="25.4" y2="14.4"/>
<line class="st1" x1="17.3" y1="22.1" x2="25.4" y2="22.1"/>
</svg>
