<?xml version="1.0" encoding="utf-8"?>
<!-- Generator: Adobe Illustrator 21.0.2, SVG Export Plug-In . SVG Version: 6.00 Build 0)  -->
<svg version="1.1" id="Слой_1" xmlns="http://www.w3.org/2000/svg" xmlns:xlink="http://www.w3.org/1999/xlink" x="0px" y="0px"
	 viewBox="0 0 34 34" style="enable-background:new 0 0 34 34;" xml:space="preserve">
<style type="text/css">
	.st0{fill:#7A965A;}
</style>
<g>
	<g>
		<g>
			<path class="st0" d="M19.4,22.5h-0.7v-7.6c0-0.4-0.3-0.8-0.8-0.8h-3.3c-0.4,0-0.8,0.3-0.8,0.8v1.7c0,0.4,0.3,0.8,0.8,0.8h0.7v5.2
				h-0.7c-0.4,0-0.8,0.3-0.8,0.8V25c0,0.4,0.3,0.8,0.8,0.8h4.8c0.4,0,0.8-0.3,0.8-0.8v-1.7C20.2,22.8,19.8,22.5,19.4,22.5z"/>
			<path class="st0" d="M17,0C7.6,0,0,7.6,0,17s7.6,17,17,17s17-7.6,17-17S26.4,0,17,0z M17,31.4C8.9,31.4,2.6,25.1,2.6,17
				S8.9,2.6,17,2.6S31.4,8.9,31.4,17S25.1,31.4,17,31.4z"/>
		</g>
	</g>
</g>
<circle class="st0" cx="17" cy="10.3" r="2.1"/>
</svg>
