<svg viewBox="0 0 34 34" fill="none" xmlns="http://www.w3.org/2000/svg">
<g clip-path="url(#clip0)">
<path d="M17 8.18518C12.1393 8.18518 8.18518 12.1393 8.18518 17C8.18518 21.8607 12.1393 25.8148 17 25.8148C21.8607 25.8148 25.8148 21.8607 25.8148 17C25.8148 12.1393 21.8607 8.18518 17 8.18518ZM17 24.5556C12.8337 24.5556 9.44444 21.1663 9.44444 17C9.44444 12.8337 12.8337 9.44444 17 9.44444C21.1663 9.44444 24.5556 12.8337 24.5556 17C24.5556 21.1663 21.1663 24.5556 17 24.5556Z" fill="#7A965A"/>
<path d="M32.2496 13.2222H31.7453C31.2932 13.2222 30.9008 12.9176 30.7603 12.4879C30.5324 11.7913 30.2521 11.114 29.9208 10.4605C29.7163 10.0571 29.7783 9.56407 30.0981 9.24428L30.4539 8.88848C30.7845 8.55793 30.9664 8.11781 30.9664 7.65063C30.9664 7.18281 30.7845 6.74333 30.4539 6.41215L27.5872 3.54544C26.9261 2.88496 25.7733 2.8837 25.1109 3.54544L24.7547 3.90163C24.4351 4.22124 23.9424 4.2834 23.5392 4.07914C22.8855 3.74797 22.2084 3.46768 21.512 3.23981C21.0823 3.09923 20.7778 2.70685 20.7778 2.25478V1.75037C20.7778 0.785148 19.9926 0 19.0274 0H14.9726C14.0074 0 13.2222 0.785148 13.2222 1.75037V2.25478C13.2222 2.70685 12.9177 3.09923 12.488 3.23982C11.7915 3.46773 11.1143 3.74812 10.4602 4.07958C10.057 4.28394 9.56422 4.22182 9.24456 3.90216L8.88848 3.54607C8.22674 2.8837 7.07326 2.88496 6.41215 3.54607L3.54544 6.41278C3.21489 6.74333 3.03293 7.18344 3.03293 7.65126C3.03293 8.11844 3.21489 8.55793 3.54544 8.88911L3.90135 9.24501C4.22109 9.56476 4.28315 10.0577 4.07869 10.461C3.74762 11.1141 3.46728 11.7911 3.23963 12.4875C3.09909 12.9174 2.70659 13.2222 2.25429 13.2222H1.75037C0.785148 13.2222 0 14.0074 0 14.9726V19.0268C0 19.9926 0.785148 20.7778 1.75037 20.7778H2.25478C2.70685 20.7778 3.09923 21.0823 3.23982 21.512C3.46773 22.2085 3.74812 22.8857 4.07958 23.5398C4.28394 23.943 4.22182 24.4358 3.90216 24.7554L3.54607 25.1115C3.21552 25.4421 3.03356 25.8822 3.03356 26.3494C3.03356 26.8172 3.21552 27.2567 3.54607 27.5879L6.41278 30.4546C7.07389 31.1163 8.22737 31.1169 8.88911 30.4546L9.24544 30.0982C9.56498 29.7787 10.0575 29.7165 10.4607 29.9207C11.1148 30.2521 11.7921 30.5327 12.4887 30.7608C12.9183 30.9014 13.2229 31.2938 13.2229 31.7458V32.2503C13.2229 33.2155 14.008 34.0006 14.9732 34.0006H19.0274C19.9926 34.0006 20.7778 33.2155 20.7778 32.2503V31.7458C20.7778 31.2938 21.0823 30.9014 21.512 30.7608C22.2085 30.5329 22.8857 30.2525 23.5398 29.921C23.943 29.7167 24.4358 29.7788 24.7554 30.0985L25.1115 30.4546C25.7739 31.1169 26.9261 31.1157 27.5879 30.4546L30.4546 27.5879C30.7851 27.2573 30.9671 26.8172 30.9671 26.3494C30.9671 25.8822 30.7851 25.4427 30.4546 25.1115L30.0982 24.7552C29.7787 24.4356 29.7165 23.9431 29.9207 23.54C30.2521 22.8858 30.5327 22.2085 30.7608 21.5119C30.9014 21.0823 31.2938 20.7778 31.7458 20.7778H32.2503C33.2155 20.7778 34.0006 19.9926 34.0006 19.0274V14.9726C34 14.0074 33.2149 13.2222 32.2496 13.2222ZM32.7407 19.0274C32.7407 19.2981 32.5204 19.5185 32.2496 19.5185H30.4877C30.1951 19.5185 29.941 19.7202 29.8747 20.0052V20.0052C29.5466 21.4137 28.9938 22.7504 28.2294 23.9788V23.9788C28.0746 24.2273 28.1115 24.5497 28.3186 24.7568L29.5636 26.0018C29.7557 26.1939 29.7557 26.5055 29.5636 26.6969L26.6969 29.5636C26.5055 29.755 26.1939 29.7563 26.0018 29.5636L24.7568 28.3186C24.5497 28.1115 24.2273 28.0746 23.9788 28.2294V28.2294C22.751 28.9938 21.4143 29.5473 20.0052 29.8747V29.8747C19.7202 29.941 19.5185 30.1951 19.5185 30.4877V32.2496C19.5185 32.5204 19.2981 32.7407 19.0274 32.7407H14.9726C14.7019 32.7407 14.4815 32.5204 14.4815 32.2496V30.4877C14.4815 30.1951 14.2798 29.941 13.9948 29.8747V29.8747C12.5863 29.5466 11.2496 28.9938 10.0212 28.2294V28.2294C9.7727 28.0746 9.45027 28.1115 9.24325 28.3186L7.99819 29.5636C7.80552 29.7563 7.49385 29.755 7.30307 29.5636L4.43637 26.6969C4.24433 26.5049 4.24433 26.1932 4.43637 26.0018L5.68143 24.7568C5.88846 24.5497 5.92539 24.2273 5.77056 23.9788V23.9788C5.00619 22.751 4.45274 21.4143 4.12533 20.0052V20.0052C4.05896 19.7202 3.80492 19.5185 3.51227 19.5185H1.75037C1.47963 19.5185 1.25926 19.2981 1.25926 19.0274V14.9726C1.25926 14.7019 1.47963 14.4815 1.75037 14.4815H3.51227C3.80492 14.4815 4.05896 14.2798 4.12533 13.9948V13.9948C4.45337 12.5857 5.00619 11.249 5.77056 10.0212V10.0212C5.92539 9.7727 5.88846 9.45027 5.68143 9.24325L4.43637 7.99819C4.24433 7.80615 4.24433 7.49448 4.43637 7.30307L7.30307 4.43637C7.49448 4.24496 7.80615 4.2437 7.99819 4.43637L9.24325 5.68143C9.45027 5.88846 9.7727 5.92539 10.0212 5.77056V5.77056C11.249 5.00619 12.5857 4.45274 13.9948 4.12533V4.12533C14.2798 4.05896 14.4815 3.80492 14.4815 3.51227V1.75037C14.4815 1.47963 14.7019 1.25926 14.9726 1.25926H19.0268C19.2981 1.25926 19.5185 1.47963 19.5185 1.75037V3.51227C19.5185 3.80492 19.7202 4.05896 20.0052 4.12533V4.12533C21.4137 4.45337 22.7504 5.00619 23.9788 5.77056V5.77056C24.2273 5.92539 24.5497 5.88846 24.7568 5.68143L26.0018 4.43637C26.1945 4.2437 26.5061 4.24496 26.6969 4.43637L29.5636 7.30307C29.7557 7.49511 29.7557 7.80678 29.5636 7.99819L28.3186 9.24325C28.1115 9.45027 28.0746 9.7727 28.2294 10.0212V10.0212C28.9938 11.2483 29.5473 12.585 29.8747 13.9948V13.9948C29.941 14.2798 30.1951 14.4815 30.4877 14.4815H32.2496C32.5204 14.4815 32.7407 14.7019 32.7407 14.9726V19.0274Z" fill="#7A965A"/>
<path d="M17 12C14.243 12 12 14.243 12 17C12 19.757 14.243 22 17 22C19.757 22 22 19.757 22 17C22 14.243 19.757 12 17 12ZM17 21C14.7945 21 13 19.2055 13 17C13 14.7945 14.7945 13 17 13C19.2055 13 21 14.7945 21 17C21 19.2055 19.2055 21 17 21Z" fill="#7A965A"/>
</g>
<defs>
<clipPath id="clip0">
<rect width="34" height="34" fill="white"/>
</clipPath>
</defs>
</svg>
