<?xml version="1.0" encoding="utf-8"?>
<!-- Generator: Adobe Illustrator 21.0.2, SVG Export Plug-In . SVG Version: 6.00 Build 0)  -->
<svg version="1.1" id="Слой_1" xmlns="http://www.w3.org/2000/svg" xmlns:xlink="http://www.w3.org/1999/xlink" x="0px" y="0px"
	 viewBox="0 0 34 34" style="enable-background:new 0 0 34 34;" xml:space="preserve">
<style type="text/css">
	.st0{fill:#7A965A;}
</style>
<g>
	<g>
		<polygon class="st0" points="1.9,0 32.1,0 32.1,34 19.6,34 19.6,32.1 27.8,32.1 27.8,3.8 6.2,3.8 6.2,34 1.9,34 		"/>
		<polygon class="st0" points="5.7,32.1 13.9,32.1 13.9,25.9 19.6,25.9 19.6,34 5.7,34 		"/>
	</g>
	<polygon class="st0" points="5.7,10.1 10.1,10.1 10.1,3.7 13.9,3.6 13.9,10.1 20.1,10.1 20.1,3.8 23.9,3.7 23.9,10.1 27.9,10.1 
		27.9,13.9 5.7,13.9 	"/>
	<polygon class="st0" points="5.7,21.9 27.9,21.9 27.9,18 23.9,18 23.9,13.6 19.6,13.6 19.6,18.2 13.9,18.2 13.9,13.6 10.1,13.6 
		10.1,18.2 5.7,18.2 	"/>
</g>
</svg>
