<?xml version="1.0" encoding="utf-8"?>
<!-- Generator: Adobe Illustrator 17.1.0, SVG Export Plug-In . SVG Version: 6.00 Build 0)  -->
<!DOCTYPE svg PUBLIC "-//W3C//DTD SVG 1.1//EN" "http://www.w3.org/Graphics/SVG/1.1/DTD/svg11.dtd">
<svg version="1.1" id="Layer_1" xmlns="http://www.w3.org/2000/svg" xmlns:xlink="http://www.w3.org/1999/xlink" x="0px" y="0px"
	 viewBox="0 0 34 34" enable-background="new 0 0 34 34" xml:space="preserve">
<image display="none" overflow="visible" width="67" height="53" xlink:href="91E9B25F.jpg"  transform="matrix(0.5075 0 0 0.5075 0 3.5522)">
</image>
<path id="Forma_1" display="none" fill="#7A965A" d="M0,3.3v27.4h34V3.3H0z M17,20.2L3.5,5.3h26.9L17,20.2z M11.4,16.9L2,27.1V6.8
	L11.4,16.9z M12.7,18.5l4.3,4.4l4.3-4.4L31,28.6H3L12.7,18.5z M22.8,16.4L32,6.8v20.3L22.8,16.4z"/>
<path display="none" fill="#7A965A" d="M16.9,22.5h0.3c2.3,0,4.1-2.1,5.5-3.7c3-3.5,2.5-9.6,2.5-10.2c-0.2-4.3-2.2-6.4-3.8-7.4
	C20.1,0.4,18.7,0,17.1,0H17c-0.9,0-2.6,0.1-4.2,1.1c-1.6,1-3.6,3.1-3.8,7.4c-0.1,0.6-0.6,6.7,2.5,10.2
	C12.7,20.4,14.6,22.4,16.9,22.5z M11,8.8C11,8.7,11,8.7,11,8.8c0.3-5.9,4.2-6.5,5.9-6.5H17c2.1,0,5.7,0.9,5.9,6.5c0,0,0,0,0,0.1
	c0,0.1,0.7,5.7-1.8,8.6c-1.1,1.4-2.4,3-4.1,3H17c-1.7,0-3.3-1.8-4.1-2.9C10.3,14.5,11,8.8,11,8.8z M33,26.2L33,26.2
	c0-0.1,0-0.1,0-0.2c0-1.5-0.1-5.2-3.5-6.3c0,0-0.1,0-0.1,0c-3.5-0.9-6.5-2.9-6.5-3c-0.5-0.3-1.1-0.2-1.4,0.3
	c-0.3,0.5-0.3,1.1,0.2,1.4c0.1,0.1,3.2,2.3,7.1,3.3c1.8,0.6,2,2.6,2.1,4.4c0,0.1,0,0.1,0,0.2c0,0.7,0,1.8-0.2,2.4
	c-1.3,0.7-6.2,3.2-13.8,3.2c-7.5,0-12.5-2.5-13.8-3.2C3.1,28,3,27,3,26.3c0-0.1,0-0.1,0-0.2c0.1-1.8,0.3-3.7,2.1-4.4
	c3.9-1,7-3.2,7.1-3.3c0.5-0.3,0.5-0.9,0.2-1.3c-0.3-0.5-0.9-0.7-1.4-0.4c0,0-2.9,2.1-6.5,3c0,0-0.1,0-0.1,0C1.1,20.8,1,24.5,1,26
	c0,0.1,0,0.1,0,0.2v0c0,0.4,0,2.5,0.4,3.5c0.1,0.2,0.2,0.4,0.4,0.5C2,30.4,7.6,34,17,34s15-3.6,15.3-3.7c0.2-0.1,0.3-0.3,0.4-0.5
	C33.1,28.7,33.1,26.6,33,26.2z"/>
<path fill="#7A965A" d="M6.9,22.6c3.3,4,7.3,7.1,11.9,9.3c1.7,0.8,4.1,1.8,6.7,2c0.2,0,0.3,0,0.5,0c1.7,0,3.1-0.6,4.3-1.8
	c0,0,0,0,0,0c0.4-0.5,0.9-0.9,1.4-1.4c0.3-0.3,0.7-0.6,1-1c1.5-1.6,1.5-3.5,0-5l-4.2-4.2c-0.7-0.7-1.6-1.1-2.5-1.1s-1.8,0.4-2.5,1.1
	L21,22.9c-0.2-0.1-0.5-0.3-0.7-0.4c-0.3-0.1-0.5-0.3-0.8-0.4c-2.3-1.5-4.4-3.3-6.3-5.8c-1-1.3-1.7-2.3-2.1-3.4
	c0.7-0.6,1.3-1.2,1.9-1.8c0.2-0.2,0.4-0.4,0.6-0.7c0.8-0.8,1.2-1.6,1.2-2.5s-0.4-1.8-1.2-2.5l-2.1-2.1c-0.2-0.2-0.5-0.5-0.7-0.7
	c-0.5-0.5-0.9-1-1.4-1.4C8.6,0.5,7.8,0.1,6.9,0.1C6,0.1,5.1,0.5,4.4,1.2L1.8,3.8c-1,1-1.5,2.1-1.6,3.4c-0.1,1.7,0.2,3.5,1,5.6
	C2.3,16.2,4.2,19.3,6.9,22.6z M1.9,7.4C1.9,6.5,2.3,5.7,3,5l2.6-2.6C6,2,6.4,1.8,6.9,1.8c0.4,0,0.9,0.2,1.3,0.6
	C8.6,2.9,9,3.3,9.5,3.8C9.7,4,10,4.3,10.2,4.5l2.1,2.1C12.8,7.1,13,7.5,13,7.9s-0.2,0.9-0.7,1.3c-0.2,0.2-0.4,0.4-0.7,0.7
	c-0.7,0.7-1.3,1.3-1.9,1.9l0,0c-0.6,0.6-0.5,1.1-0.4,1.6c0,0,0,0,0,0.1c0.5,1.3,1.3,2.5,2.5,4c2.1,2.6,4.3,4.6,6.8,6.2
	c0.3,0.2,0.6,0.4,0.9,0.5c0.3,0.1,0.5,0.3,0.8,0.4c0,0,0,0,0.1,0c0.2,0.1,0.4,0.2,0.7,0.2c0.6,0,0.9-0.4,1-0.5l2.6-2.6
	c0.4-0.4,0.8-0.6,1.3-0.6c0.5,0,1,0.3,1.2,0.6l4.2,4.2c0.8,0.8,0.8,1.8,0,2.6c-0.3,0.3-0.6,0.6-0.9,0.9c-0.5,0.5-1,1-1.5,1.5
	c-0.8,0.9-1.8,1.3-3,1.3c-0.1,0-0.2,0-0.4,0c-2.3-0.1-4.4-1-6-1.8c-4.4-2.1-8.2-5.1-11.4-8.9c-2.6-3.1-4.4-6.1-5.5-9.2
	C2,10.4,1.7,8.8,1.9,7.4z"/>
</svg>
