<svg viewBox="0 0 139 42" fill="none" xmlns="http://www.w3.org/2000/svg">
<path fill-rule="evenodd" clip-rule="evenodd" d="M118.176 31.2668L115.002 37.9761C114.54 38.8702 113.967 39.3171 113.285 39.315C112.602 39.3135 112.033 38.8396 111.574 37.893L108.385 31.2418L108.359 41.8158L104.931 41.8072L104.975 24.0933L108.354 24.1014L113.285 34.3394L118.242 24.1264L121.621 24.1351L121.578 41.849L118.149 41.8403L118.176 31.2668ZM95.7307 32.3297C96.4537 32.3318 97.0504 32.0803 97.5201 31.5753C97.9904 31.0709 98.226 30.4415 98.228 29.6861C98.2295 28.9317 98.005 28.3222 97.554 27.856C97.103 27.3908 96.4992 27.1567 95.7433 27.1546L94.0418 27.1506C93.0219 27.148 92.5112 27.6693 92.5087 28.7139L92.4996 32.3216L95.7307 32.3297ZM102.341 41.8005L98.3706 41.7909L94.9585 35.2136L92.493 35.208L92.4763 41.7761L89.0486 41.7669L89.083 27.8595C89.086 26.5329 89.3924 25.5673 90.0027 24.9634C90.612 24.3595 91.6324 24.0596 93.0629 24.0632L95.9729 24.0708C97.7153 24.0744 99.0993 24.613 100.124 25.6857C101.149 26.7578 101.66 28.1151 101.656 29.757C101.653 30.9515 101.342 31.9829 100.723 32.852C100.104 33.7212 99.3425 34.321 98.4374 34.6505L102.341 41.8005ZM81.2951 35.7767L79.2407 28.7552L77.0527 35.7655L81.2951 35.7767ZM86.6316 41.7608L83.0557 41.7521L82.0768 38.6897L76.1825 38.6744L75.2132 41.7322L71.6373 41.723L77.3005 25.5163C77.5483 24.9532 77.8244 24.5635 78.1293 24.3488C78.4342 24.1346 78.8083 24.0275 79.2523 24.0285C79.6962 24.0295 80.0537 24.13 80.3242 24.3294C80.5953 24.5294 80.8365 24.9277 81.0488 25.5255L86.6316 41.7608ZM70.3666 27.0909L64.1766 27.0751C63.453 27.0735 62.9468 27.2133 62.6586 27.4943C62.3704 27.7759 62.2253 28.2645 62.2238 28.9608L62.2177 31.4244L68.654 31.4407L68.4002 34.525L62.2096 34.5092L62.1919 41.6996L58.7642 41.6909L58.7991 27.5841C58.8021 26.2743 59.0883 25.346 59.6566 24.7997C60.2255 24.2539 61.1998 23.9831 62.5813 23.9867L70.3742 24.006L70.3666 27.0909ZM54.6417 38.3337C54.8955 38.5917 55.0219 39.1355 55.0199 39.9648C55.0179 40.7942 54.8889 41.3415 54.6336 41.6062C54.3777 41.8699 53.8392 42.002 53.017 42C52.1949 41.9974 51.6523 41.8633 51.3904 41.5975C51.128 41.3318 50.998 40.784 51 39.9546C51.002 39.1253 51.135 38.5826 51.3985 38.326C51.6619 38.07 52.205 37.9424 53.0271 37.9445C53.8493 37.9465 54.3873 38.0766 54.6417 38.3337ZM138.992 3.28939L134.282 3.27765L134.246 17.9067L130.818 17.8981L130.854 3.26847L126.168 3.25725L126.176 0.171891L139 0.204535L138.992 3.28939ZM121.464 11.0076L124.645 11.0158C124.639 13.2718 124.076 15.0035 122.955 16.2108C121.834 17.4196 120.254 18.0205 118.216 18.0159C113.727 18.0041 111.49 15.3365 111.503 10.012L111.507 8.51955C111.517 4.32379 112.674 1.69697 114.978 0.641657C115.884 0.212696 116.978 -0.000510061 118.26 0.00306037C120.134 0.00765092 121.658 0.529954 122.831 1.56895C124.004 2.60896 124.588 4.10752 124.583 6.06463L121.377 6.05647C121.199 5.07715 120.88 4.33858 120.421 3.83974C119.962 3.3409 119.239 3.09046 118.252 3.08791C117.102 3.08485 116.246 3.44801 115.685 4.17638C115.289 4.6895 115.057 5.56783 114.988 6.81187C114.954 7.20972 114.936 7.74885 114.934 8.42876L114.931 9.97119C114.926 11.8783 115.186 13.181 115.711 13.8793C116.251 14.577 117.093 14.9275 118.236 14.9305C119.378 14.9336 120.168 14.6158 120.606 13.9782C121.043 13.3412 121.328 12.3506 121.464 11.0076ZM109.215 17.8435L103 17.8277C101.027 17.8231 99.6423 17.4752 98.8469 16.7846C98.0511 16.095 97.6556 14.8785 97.6597 13.1371L97.6921 0.099972L109.259 0.129556L109.251 3.21441L101.112 3.194L101.102 7.34845L106.799 7.36325L106.545 10.4476L101.095 10.4338L101.088 12.8969C101.087 13.5936 101.242 14.0751 101.553 14.3409C101.865 14.6076 102.432 14.7418 103.254 14.7433L109.222 14.7586L109.215 17.8435ZM88.2016 8.33644C88.9247 8.33848 89.5214 8.08702 89.9911 7.58206C90.4609 7.07761 90.697 6.44819 90.699 5.69279C90.701 4.93841 90.476 4.32838 90.025 3.86269C89.574 3.39701 88.9702 3.1634 88.2143 3.16136L86.5123 3.15728C85.4929 3.15473 84.9822 3.6755 84.9797 4.72062L84.9711 8.32828L88.2016 8.33644ZM94.8119 17.8073L90.8416 17.7971L87.4295 11.2203L84.9635 11.2147L84.9473 17.7823L81.5196 17.7736L81.554 3.86626C81.557 2.5396 81.8634 1.57405 82.4737 0.970137C83.083 0.366224 84.1034 0.066308 85.5339 0.0698784L88.4439 0.0775293C90.1863 0.0810997 91.5702 0.619724 92.5952 1.69238C93.6201 2.76453 94.1308 4.12181 94.1268 5.76369C94.1237 6.95826 93.8128 7.9896 93.1944 8.85874C92.5755 9.72789 91.8135 10.3277 90.9084 10.6572L94.8119 17.8073ZM77.4259 17.7634L73.9977 17.7547L74.0416 0.0408049L77.4699 0.0494759L77.4259 17.7634ZM66.8317 13.5569C67.1447 13.1764 67.3479 12.65 67.44 11.9788C67.5315 11.307 67.5795 10.2584 67.5831 8.83222C67.5866 7.40558 67.5436 6.37271 67.4551 5.7336C67.3661 5.095 67.1659 4.58494 66.8549 4.20239C66.2649 3.47148 65.4103 3.10423 64.2929 3.10117L61.21 3.09352L61.1857 12.8959C61.1842 13.5595 61.4051 14.016 61.8486 14.2659C62.2915 14.5158 63.0844 14.6423 64.2271 14.6449C65.3699 14.6479 66.2381 14.2853 66.8317 13.5569ZM70.848 5.05828C70.9608 5.98761 71.0149 7.24032 71.0113 8.81539L71.031 10.7312C70.9623 11.9421 70.8121 12.9617 70.58 13.79C70.3474 14.6194 69.8934 15.3727 69.2178 16.0511C68.0963 17.1763 66.4676 17.7359 64.3308 17.7302C61.8152 17.7241 60.0895 17.3839 59.154 16.7096C58.2186 16.0358 57.7529 14.8198 57.7574 13.0616L57.7898 0L64.621 0.016832C66.594 0.0219326 68.1378 0.589631 69.2532 1.72044C70.1548 2.63498 70.6867 3.74793 70.848 5.05828Z" fill="white"/>
<path fill-rule="evenodd" clip-rule="evenodd" d="M32.1611 1.56226H27.8408L39.6542 21.2333L28.1617 40.875H32.4492L43.9538 21.2085L32.1611 1.56226Z" fill="white"/>
<path fill-rule="evenodd" clip-rule="evenodd" d="M22.5435 1.56226H18.2227L30.0361 21.2333L18.5441 40.875H22.8356L34.3402 21.2085L22.5435 1.56226Z" fill="white"/>
<path fill-rule="evenodd" clip-rule="evenodd" d="M13.4316 1.56226H10.4446H9.11133L9.79013 2.69469L20.904 21.1999L9.94249 39.9394L9.45655 40.7679H10.4239L10.4649 40.8422H13.6989L13.7445 40.7679L25.2036 21.1757L13.4316 1.56226Z" fill="white"/>
<path fill-rule="evenodd" clip-rule="evenodd" d="M8.36607 9.64026H5.2925H4.0498L4.68355 10.6955L10.9542 21.1398L4.77011 31.712L4.22697 32.6399H5.3087H8.51844L15.2583 21.1156L8.36607 9.64026Z" fill="white"/>
<path fill-rule="evenodd" clip-rule="evenodd" d="M4.31222 17.7183H1.01643H0L0.518337 18.5801L2.11891 21.2479L0.54314 23.9399L0.180709 24.5599H0.901016H4.46458L6.41898 21.2232L4.31222 17.7183Z" fill="white"/>
</svg>
