<svg viewBox="0 0 15 15" fill="none" xmlns="http://www.w3.org/2000/svg">
<path d="M9.65753 7.73973C9.52055 7.60274 9.52055 7.39726 9.65753 7.26027L14.7945 2.12329C14.9315 1.9863 15 1.78082 15 1.64384C15 1.50685 14.9315 1.30137 14.7945 1.16438L13.8356 0.205479C13.6986 0.0684932 13.4932 0 13.3562 0C13.1507 0 13.0137 0.0684932 12.8767 0.205479L7.73973 5.34247C7.60274 5.47945 7.39726 5.47945 7.26027 5.34247L2.12329 0.205479C1.9863 0.0684932 1.78082 0 1.64384 0C1.50685 0 1.30137 0.0684932 1.16438 0.205479L0.205479 1.16438C0.0684932 1.30137 0 1.50685 0 1.64384C0 1.78082 0.0684932 1.9863 0.205479 2.12329L5.34247 7.26027C5.47945 7.39726 5.47945 7.60274 5.34247 7.73973L0.205479 12.8767C0.0684932 13.0137 0 13.2192 0 13.3562C0 13.4932 0.0684932 13.6986 0.205479 13.8356L1.16438 14.7945C1.30137 14.9315 1.50685 15 1.64384 15C1.78082 15 1.9863 14.9315 2.12329 14.7945L7.26027 9.65753C7.39726 9.52055 7.60274 9.52055 7.73973 9.65753L12.8767 14.7945C13.0137 14.9315 13.2192 15 13.3562 15C13.4932 15 13.6986 14.9315 13.8356 14.7945L14.7945 13.8356C14.9315 13.6986 15 13.4932 15 13.3562C15 13.2192 14.9315 13.0137 14.7945 12.8767L9.65753 7.73973Z" fill="#FFFFFF"/>
</svg>
