<svg id="Слой_1" data-name="Слой 1" xmlns="http://www.w3.org/2000/svg" xmlns:xlink="http://www.w3.org/1999/xlink" viewBox="0 0 20 40"><defs><style>.cls-1{fill:none;stroke:#7287d5;}.cls-2{fill:url(#Безымянный_градиент_2);}</style><linearGradient id="Безымянный_градиент_2" x1="10" y1="17.15" x2="10" y2="5.15" gradientTransform="matrix(1, 0, 0, -1, 0, 41.32)" gradientUnits="userSpaceOnUse"><stop offset="0" stop-color="#109cf1"/><stop offset="0.63" stop-color="#7287d5"/></linearGradient></defs><title>radio</title><path class="cls-1" d="M10,.59h0a9.5,9.5,0,0,1,9.5,9.5h0a9.5,9.5,0,0,1-9.5,9.5h0a9.5,9.5,0,0,1-9.5-9.5h0A9.5,9.5,0,0,1,10,.59Z" transform="translate(0 -0.09)"/><path class="cls-1" d="M10,20.67h0a9.5,9.5,0,0,1,9.5,9.5h0a9.5,9.5,0,0,1-9.5,9.5h0a9.5,9.5,0,0,1-9.5-9.5h0A9.5,9.5,0,0,1,10,20.67Z" transform="translate(0 -0.09)"/><path class="cls-2" d="M10,24.17h0a6,6,0,0,1,6,6h0a6,6,0,0,1-6,6h0a6,6,0,0,1-6-6H4A6,6,0,0,1,10,24.17Z" transform="translate(0 -0.09)"/></svg>