<svg viewBox="0 0 15 30" fill="none" xmlns="http://www.w3.org/2000/svg">
<path d="M11.9445 21.3911V19.0278C11.9445 16.8069 9.95058 15 7.50003 15C5.04947 15 3.05558 16.8069 3.05558 19.0278V21.3911C2.11086 21.5538 1.38892 22.3772 1.38892 23.368L1.38892 27.9922C1.38892 29.0992 2.28975 30 3.39697 30H11.6031C12.7103 30 13.6111 29.0992 13.6111 27.9919V23.3677C13.6111 22.3772 12.8892 21.5538 11.9445 21.3911ZM3.77151 19.0278C3.77151 17.1131 5.35558 15.7571 7.50003 15.7571C9.64447 15.7571 11.1916 17.1131 11.1916 19.0278V21.3597H3.77151V19.0278ZM12.8597 27.9919C12.8597 28.7928 12.4039 29.2455 11.6031 29.2455H3.39697C2.59614 29.2455 2.13219 28.7928 2.13219 27.9919V23.3677C2.13219 22.5669 2.59614 22.0961 3.39697 22.0961H11.6031C12.4039 22.0961 12.8597 22.5669 12.8597 23.3677V27.9919Z" fill="white"/>
<path d="M7.50001 24C6.67276 24 6.00001 24.6727 6.00001 25.5C6.00001 26.3273 6.67275 27 7.5 27C8.32725 27 9 26.3273 9 25.5C9 24.6727 8.32726 24 7.50001 24ZM8.25 25.5C8.25 25.9136 7.91362 26.25 7.5 26.25C7.08637 26.25 6.75 25.9136 6.75 25.5C6.75 25.0864 7.08638 24.75 7.50001 24.75C7.91363 24.75 8.25 25.0864 8.25 25.5Z" fill="white"/>
<path d="M3.05553 6.33188V4.02778C3.05553 1.80694 5.04942 0 7.49997 0C8.2204 0 8.90136 0.15617 9.50379 0.433115C9.68648 0.517097 9.746 0.741908 9.64336 0.914801V0.914801C9.54732 1.07658 9.34291 1.1347 9.16825 1.06475C8.67107 0.865644 8.10681 0.757058 7.49997 0.757058C5.35553 0.757058 3.76514 2.11306 3.76514 4.02778V6.3005H11.603C12.7103 6.3005 13.6111 7.20133 13.6111 8.30855V12.9919C13.6111 14.0992 12.7103 15 11.603 15H3.39692C2.2897 15 1.38886 14.0992 1.38886 12.9919V8.30855C1.38886 7.318 2.11081 6.49466 3.05553 6.33188ZM2.14132 12.9919C2.14132 13.7928 2.59609 14.2611 3.39692 14.2611H11.603C12.4039 14.2611 12.8764 13.7928 12.8764 12.9919V8.30855C12.8764 7.50772 12.4039 7.04448 11.603 7.04448H3.39692C2.59609 7.04448 2.14132 7.50772 2.14132 8.30855V12.9919Z" fill="white"/>
<path d="M7.50001 9C6.67276 9 6.00001 9.67275 6.00001 10.5C6.00001 11.3273 6.67275 12 7.5 12C8.32725 12 9 11.3273 9 10.5C9 9.67275 8.32726 9 7.50001 9ZM8.25 10.5C8.25 10.9136 7.91362 11.25 7.5 11.25C7.08637 11.25 6.75 10.9136 6.75 10.5C6.75 10.0864 7.08638 9.75 7.50001 9.75C7.91363 9.75 8.25 10.0864 8.25 10.5Z" fill="white"/>
</svg>
