<svg viewBox="0 0 20 6" fill="none" xmlns="http://www.w3.org/2000/svg">
<path d="M2.27271 5.27272C3.5279 5.27272 4.54542 4.25519 4.54542 3.00001C4.54542 1.74482 3.5279 0.727295 2.27271 0.727295C1.01753 0.727295 0 1.74482 0 3.00001C0 4.25519 1.01753 5.27272 2.27271 5.27272Z" fill="#1899EE"/>
<path d="M10 5.27272C11.2552 5.27272 12.2727 4.25519 12.2727 3.00001C12.2727 1.74482 11.2552 0.727295 10 0.727295C8.74482 0.727295 7.72729 1.74482 7.72729 3.00001C7.72729 4.25519 8.74482 5.27272 10 5.27272Z" fill="#1899EE"/>
<path d="M17.7273 5.27272C18.9825 5.27272 20 4.25519 20 3.00001C20 1.74482 18.9825 0.727295 17.7273 0.727295C16.4721 0.727295 15.4546 1.74482 15.4546 3.00001C15.4546 4.25519 16.4721 5.27272 17.7273 5.27272Z" fill="#1899EE"/>
</svg>
