<svg viewBox="0 0 15 15" fill="none" xmlns="http://www.w3.org/2000/svg">
<g clip-path="url(#clip0)">
<path d="M3.64807 14.3731V1.53434L5.90435 3.79062C5.97793 3.86419 6.07296 3.90098 6.17106 3.90098C6.26916 3.90098 6.36419 3.86419 6.43777 3.79062C6.58492 3.64347 6.58492 3.40742 6.43777 3.26027L3.54077 0.363278C3.39975 0.222261 3.15144 0.222261 3.01042 0.363278L0.110362 3.26027C-0.0367872 3.40742 -0.0367872 3.64347 0.110362 3.79062C0.257511 3.93777 0.493562 3.93777 0.640711 3.79062L2.897 1.53434V14.3731C2.897 14.5815 3.0656 14.7501 3.27407 14.7501C3.47946 14.7471 3.64807 14.5785 3.64807 14.3731Z" fill="#FFFFFF"/>
<path d="M11.4591 14.6367C11.5327 14.7103 11.6277 14.7471 11.7258 14.7471C11.8239 14.7471 11.919 14.7103 11.9925 14.6367L14.8896 11.7397C15.0367 11.5926 15.0367 11.3565 14.8896 11.2094C14.7424 11.0622 14.5064 11.0622 14.3592 11.2094L12.1029 13.4656V0.626916C12.1029 0.418455 11.9343 0.249847 11.7258 0.249847C11.5174 0.249847 11.3488 0.418455 11.3488 0.626916V13.4656L9.09555 11.2094C8.9484 11.0622 8.71235 11.0622 8.5652 11.2094C8.41805 11.3565 8.41805 11.5926 8.5652 11.7397L11.4591 14.6367Z" fill="#FFFFFF"/>
</g>
<defs>
<clipPath id="clip0">
<rect width="15" height="15" fill="white"/>
</clipPath>
</defs>
</svg>
