<svg viewBox="0 0 7 15" fill="none" xmlns="http://www.w3.org/2000/svg">
<path d="M3.64807 14.3731V1.53434L5.90435 3.79062C5.97793 3.86419 6.07296 3.90098 6.17106 3.90098C6.26916 3.90098 6.36419 3.86419 6.43777 3.79062C6.58492 3.64347 6.58492 3.40742 6.43777 3.26027L3.54077 0.363278C3.39975 0.222261 3.15144 0.222261 3.01042 0.363278L0.110362 3.26027C-0.0367872 3.40742 -0.0367872 3.64347 0.110362 3.79062C0.257511 3.93777 0.493562 3.93777 0.640711 3.79062L2.897 1.53434V14.3731C2.897 14.5815 3.0656 14.7501 3.27407 14.7501C3.47946 14.7471 3.64807 14.5785 3.64807 14.3731Z" fill="#FFFFFF"/>
</svg>
