<svg viewBox="0 0 7 15" fill="none" xmlns="http://www.w3.org/2000/svg">
<path d="M3.45913 14.6367C3.53271 14.7103 3.62774 14.7471 3.72584 14.7471C3.82394 14.7471 3.91897 14.7103 3.99255 14.6367L6.88955 11.7397C7.0367 11.5926 7.0367 11.3565 6.88955 11.2094C6.7424 11.0622 6.50635 11.0622 6.3592 11.2094L4.10291 13.4656V0.626916C4.10291 0.418455 3.9343 0.249847 3.72584 0.249847C3.51738 0.249847 3.34877 0.418455 3.34877 0.626916V13.4656L1.09555 11.2094C0.948398 11.0622 0.712345 11.0622 0.565196 11.2094C0.418047 11.3565 0.418047 11.5926 0.565196 11.7397L3.45913 14.6367Z" fill="#FFFFFF"/>
</svg>
