<svg viewBox="0 0 12 12" fill="none" xmlns="http://www.w3.org/2000/svg">
<path fill-rule="evenodd" clip-rule="evenodd" d="M6.00098 7.06179L10.6678 2.58322C10.783 2.47072 10.9732 2.47339 11.0911 2.58857L11.9109 3.38947C12.0287 3.50464 12.0314 3.69214 11.9162 3.80464L6.21798 9.27429C6.15904 9.33322 6.07867 9.36 6.00098 9.35465C5.92061 9.35732 5.84292 9.33054 5.78398 9.27429L0.0857262 3.80464C-0.0294712 3.69214 -0.0267922 3.50464 0.0910842 3.38947L0.910861 2.58857C1.02874 2.47339 1.21895 2.47072 1.33414 2.58322L6.00098 7.06179Z" fill="#626D75"/>
<mask id="mask0" mask-type="alpha" maskUnits="userSpaceOnUse" x="0" y="2" width="13" height="8">
<path fill-rule="evenodd" clip-rule="evenodd" d="M6.00098 7.06179L10.6678 2.58322C10.783 2.47072 10.9732 2.47339 11.0911 2.58857L11.9109 3.38947C12.0287 3.50464 12.0314 3.69214 11.9162 3.80464L6.21798 9.27429C6.15904 9.33322 6.07867 9.36 6.00098 9.35465C5.92061 9.35732 5.84292 9.33054 5.78398 9.27429L0.0857262 3.80464C-0.0294712 3.69214 -0.0267922 3.50464 0.0910842 3.38947L0.910861 2.58857C1.02874 2.47339 1.21895 2.47072 1.33414 2.58322L6.00098 7.06179Z" fill="white"/>
</mask>
<g mask="url(#mask0)">
<rect width="12" height="12" fill="#626D75"/>
</g>
</svg>
