<svg viewBox="0 0 12 12" fill="none" xmlns="http://www.w3.org/2000/svg">
<path fill-rule="evenodd" clip-rule="evenodd" d="M6.00098 4.79548L10.6678 9.27405C10.783 9.38655 10.9732 9.38387 11.0911 9.26869L11.9109 8.4678C12.0287 8.35262 12.0314 8.16512 11.9162 8.05262L6.21798 2.58298C6.15904 2.52405 6.07867 2.49727 6.00098 2.50262C5.92061 2.49994 5.84292 2.52673 5.78398 2.58298L0.0857262 8.05262C-0.0294712 8.16512 -0.0267922 8.35262 0.0910842 8.4678L0.910861 9.26869C1.02874 9.38387 1.21895 9.38655 1.33414 9.27405L6.00098 4.79548Z" fill="#626D75"/>
<mask id="mask0" mask-type="alpha" maskUnits="userSpaceOnUse" x="0" y="2" width="13" height="8">
<path fill-rule="evenodd" clip-rule="evenodd" d="M6.00098 4.79548L10.6678 9.27405C10.783 9.38655 10.9732 9.38387 11.0911 9.26869L11.9109 8.4678C12.0287 8.35262 12.0314 8.16512 11.9162 8.05262L6.21798 2.58298C6.15904 2.52405 6.07867 2.49727 6.00098 2.50262C5.92061 2.49994 5.84292 2.52673 5.78398 2.58298L0.0857262 8.05262C-0.0294712 8.16512 -0.0267922 8.35262 0.0910842 8.4678L0.910861 9.26869C1.02874 9.38387 1.21895 9.38655 1.33414 9.27405L6.00098 4.79548Z" fill="white"/>
</mask>
<g mask="url(#mask0)">
<rect width="12" height="12" fill="#626D75"/>
</g>
</svg>
