<svg viewBox="0 0 13 15" fill="none" xmlns="http://www.w3.org/2000/svg">
<path d="M8.51739 7.50003C8.51739 7.76886 8.41514 8.03765 8.21108 8.24261L1.78626 14.6923C1.37757 15.1026 0.714932 15.1026 0.306399 14.6923C-0.102133 14.2822 -0.102133 13.6171 0.306399 13.2068L5.99143 7.50003L0.306597 1.79324C-0.101935 1.38295 -0.101935 0.717948 0.306597 0.307863C0.715129 -0.102619 1.37776 -0.102619 1.78646 0.307863L8.21127 6.75744C8.41538 6.9625 8.51739 7.23129 8.51739 7.50003Z" fill="white"/>
<path d="M13.0001 7.50003C13.0001 7.76886 12.8978 8.03765 12.6937 8.24261L6.26893 14.6923C5.86023 15.1026 5.1976 15.1026 4.78907 14.6923C4.38053 14.2822 4.38053 13.6171 4.78907 13.2068L10.4741 7.50003L4.78926 1.79324C4.38073 1.38295 4.38073 0.717948 4.78926 0.307863C5.1978 -0.102619 5.86043 -0.102619 6.26913 0.307863L12.6939 6.75744C12.898 6.9625 13.0001 7.23129 13.0001 7.50003Z" fill="white"/>
</svg>
