<svg viewBox="0 0 13 15" fill="none" xmlns="http://www.w3.org/2000/svg">
<path d="M8.51739 7.50002C8.51739 7.76886 8.41514 8.03765 8.21108 8.24261L1.78626 14.6923C1.37757 15.1026 0.714932 15.1026 0.306399 14.6923C-0.102133 14.2822 -0.102133 13.6171 0.306399 13.2068L5.99143 7.50003L0.306597 1.79324C-0.101935 1.38295 -0.101935 0.717948 0.306597 0.307863C0.71513 -0.102619 1.37776 -0.102619 1.78646 0.307863L8.21127 6.75744C8.41538 6.9625 8.51739 7.23129 8.51739 7.50002Z" fill="#282828"/>
<path d="M13 7.50002C13 7.76886 12.8977 8.03765 12.6937 8.24261L6.26887 14.6923C5.86017 15.1026 5.19754 15.1026 4.789 14.6923C4.38047 14.2822 4.38047 13.6171 4.789 13.2068L10.474 7.50003L4.7892 1.79324C4.38067 1.38295 4.38067 0.717948 4.7892 0.307863C5.19773 -0.102619 5.86037 -0.102619 6.26907 0.307863L12.6939 6.75744C12.898 6.9625 13 7.23129 13 7.50002Z" fill="#282828"/>
</svg>
