<svg xmlns="http://www.w3.org/2000/svg" viewBox="0 0 128 128">
    <path fill="#00A098" fill-rule="nonzero" d="M77.275 46.725c.45.475.725 1.1.725 1.775 0 .675-.25 1.3-.725 1.775-.475.45-1.1.725-1.775.725-.675 0-1.3-.25-1.775-.725A2.582 2.582 0 0 1 73 48.5c0-.675.25-1.3.725-1.775.475-.45 1.1-.725 1.775-.725.675 0 1.325.25 1.775.725zM75.5 24.475c5.25 0 9.5 4.25 9.5 9.5s-4.25 9.5-9.5 9.5-9.5-4.25-9.5-9.5 4.25-9.5 9.5-9.5zm0 14c2.475 0 4.5-2.025 4.5-4.5s-2.025-4.5-4.5-4.5a4.513 4.513 0 0 0-4.5 4.5c0 2.475 2.025 4.5 4.5 4.5zm35.4 7.95c3.25 3.25 3.25 8.55 0 11.8a8.353 8.353 0 0 1-5.9 2.45 8.353 8.353 0 0 1-5.9-2.45c-.225-.2-.425-.45-.625-.675L87.5 63.1v28.375c0 1.375-1.125 2.5-2.5 2.5a2.507 2.507 0 0 1-2.5-2.5V61.55c0-.95.525-1.8 1.4-2.25l12.775-6.45a8.34 8.34 0 0 1 2.425-6.425c3.25-3.25 8.55-3.25 11.8 0zm-3.525 8.275a3.35 3.35 0 0 0 0-4.725c-.65-.65-1.5-.975-2.375-.975s-1.725.325-2.375.975a3.284 3.284 0 0 0 .025 4.725 3.35 3.35 0 0 0 4.725 0zm19.175-31.475c.875.4 1.45 1.3 1.45 2.275v37.675c-.275 11.6-1.025 22.05-7.7 32.45-7.4 11.575-21.325 21.8-43.75 32.15a2.559 2.559 0 0 1-2.1 0c-19.5-9-32.8-18.125-40.65-27.85a2.504 2.504 0 0 1 .375-3.525 2.504 2.504 0 0 1 3.525.375c5.5 6.85 14 13.4 25.8 19.9V100l-6.35-4.15c-1.525 1.275-3.425 1.9-5.3 1.9a8.353 8.353 0 0 1-5.9-2.45c-3.25-3.25-3.25-8.55 0-11.8s8.55-3.25 11.8 0c2.2 2.2 2.9 5.35 2.125 8.15l7.5 4.875c.7.475 1.125 1.25 1.125 2.1v20.7c1.45.725 2.95 1.475 4.5 2.225V57.075c0-1.375 1.125-2.5 2.5-2.5s2.5 1.125 2.5 2.5v64.475c19.45-9.35 31.6-18.5 38.1-28.625C122.075 83.6 122.75 74.3 123 63.1v-36L75.5 5.25 28 27.1v6.125c1.2-.225 2.4-.325 3.65-.325 10.85 0 19.875 8.1 21.3 18.575.425-.05.875-.075 1.3-.075 6.75 0 12.25 5.5 12.25 12.25S61 75.9 54.25 75.9h-42c-.475 0-.95-.025-1.425-.075V94.45a8.435 8.435 0 0 1 3.425 2.075c3.25 3.25 3.25 8.55 0 11.8a8.353 8.353 0 0 1-5.9 2.45 8.353 8.353 0 0 1-5.9-2.45c-3.25-3.25-3.25-8.55 0-11.8a8.481 8.481 0 0 1 3.375-2.05v-20.4C2.325 71.9 0 68.05 0 63.65c0-6.1 4.5-11.175 10.325-12.1.625-4.75 2.825-9.125 6.3-12.525a21.715 21.715 0 0 1 6.375-4.3V25.5c0-.975.575-1.875 1.45-2.275l50-23c.675-.3 1.425-.3 2.1 0l50 23zm-115.825 81.55c1.3-1.3 1.3-3.425.025-4.725-.65-.65-1.5-.975-2.375-.975S6.65 99.4 6 100.05a3.35 3.35 0 0 0 0 4.725 3.35 3.35 0 0 0 4.725 0zM31.675 37.9c-9.325-.125-15.425 8.175-16.3 13.9 2.075.55 4 1.625 5.55 3.175a2.49 2.49 0 0 1 0 3.525 2.56 2.56 0 0 1-1.775.725c-.65 0-1.275-.225-1.775-.725a7.217 7.217 0 0 0-4.575-2.1c-.05-.025-.075-.025-.125-.025h-.425c-4 0-7.25 3.25-7.25 7.25s3.25 7.25 7.25 7.25h42c4 0 7.25-3.25 7.25-7.25s-3.25-7.25-7.25-7.25c-.925 0-1.825.15-2.675.5-.025 0-.05.025-.075.025-.025 0-.025.025-.05.025-.875.375-1.65.9-2.325 1.575-.8.775-1.375 1.7-1.725 2.725a2.493 2.493 0 0 1-2.35 1.675 2.4 2.4 0 0 1-.825-.15c-1.3-.45-1.975-1.875-1.525-3.175a12.306 12.306 0 0 1 5.4-6.525c-.7-8.475-7.8-15.15-16.425-15.15zm22.55 53.875a3.35 3.35 0 0 0 0-4.725c-.65-.65-1.5-.975-2.375-.975s-1.725.325-2.375.975a3.35 3.35 0 0 0 0 4.725c1.3 1.3 3.425 1.3 4.75 0zM27.25 81.2c.45.475.725 1.1.725 1.775 0 .675-.25 1.3-.725 1.775a2.629 2.629 0 0 1-1.775.725c-.675 0-1.3-.25-1.775-.725a2.582 2.582 0 0 1-.725-1.775c0-.675.25-1.325.725-1.775.475-.45 1.1-.725 1.775-.725.675 0 1.3.25 1.775.725zm4.15 32.35c3.25 3.25 3.25 8.55 0 11.8a8.353 8.353 0 0 1-5.9 2.45 8.353 8.353 0 0 1-5.9-2.45c-3.25-3.25-3.25-8.55 0-11.8a8.481 8.481 0 0 1 3.375-2.05V92.85c0-1.375 1.125-2.5 2.5-2.5s2.5 1.125 2.5 2.5v18.65c1.25.375 2.425 1.075 3.425 2.05zm-3.525 8.3c1.3-1.325 1.3-3.45.025-4.725-.65-.65-1.5-.975-2.375-.975s-1.725.325-2.375.975a3.35 3.35 0 0 0 0 4.725 3.35 3.35 0 0 0 4.725 0z"/>
</svg>
