<svg xmlns="http://www.w3.org/2000/svg" viewBox="0 0 128 128">
    <path fill="#00A098" fill-rule="nonzero" d="M110.149 123.582H94.714l-4.279-14.051a2.39 2.39 0 1 0-4.572 1.392l3.319 10.898-21.56-21.561 11.494-11.494.893 2.932a2.39 2.39 0 0 0 4.572-1.393L66.82 31.987c2.696-1.03 4.616-3.644 4.616-6.698 0-3.953-3.215-7.17-7.168-7.17-3.953 0-7.17 3.217-7.17 7.17 0 3.054 1.921 5.667 4.617 6.698l-27.893 91.595h-5.956a2.39 2.39 0 0 0 0 4.78l62.09.005 20.192-.005a2.39 2.39 0 0 0 0-4.78zM75.955 78.388l-8.332-8.334 4.442-4.442 3.89 12.776zM64.27 22.898a2.393 2.393 0 0 1 2.39 2.39 2.393 2.393 0 0 1-2.39 2.39 2.393 2.393 0 0 1-2.39-2.39 2.393 2.393 0 0 1 2.39-2.39zm0 17.112l6.218 20.42-6.244 6.245-6.205-6.206 6.23-20.459zM56.46 65.65l4.404 4.405-8.26 8.26 3.856-12.664zm7.783 7.784l11.722 11.723L64.243 96.88 52.522 85.157l11.721-11.723zM49.41 88.804l11.454 11.456-21.486 21.488L49.41 88.804zm-5.107 34.778l19.94-19.943 19.94 19.943h-39.88zm-25.912 0a2.39 2.39 0 1 1 .004 4.78 2.39 2.39 0 0 1-.007-4.78h.003zM75.71 13.846c6.308 6.31 6.308 16.576 0 22.886-.467.466-1.079.7-1.69.7a2.39 2.39 0 0 1-1.69-4.08c4.445-4.446 4.445-11.68 0-16.127a2.39 2.39 0 0 1 3.38-3.38zm-19.505 3.38c-4.446 4.445-4.446 11.68 0 16.126a2.39 2.39 0 0 1-3.38 3.38c-6.308-6.31-6.308-16.576 0-22.886a2.39 2.39 0 1 1 3.38 3.38zM82.855 6.7c4.965 4.965 7.7 11.567 7.7 18.589 0 7.022-2.735 13.623-7.7 18.589-.466.466-1.078.7-1.69.7a2.39 2.39 0 0 1-1.69-4.08 21.37 21.37 0 0 0 6.3-15.21 21.369 21.369 0 0 0-6.3-15.208 2.39 2.39 0 0 1 3.38-3.38zM49.06 40.498a2.39 2.39 0 0 1-3.38 3.38c-4.964-4.966-7.699-11.567-7.699-18.59 0-7.021 2.735-13.623 7.7-18.588a2.39 2.39 0 1 1 3.379 3.38 21.37 21.37 0 0 0-6.3 15.209 21.37 21.37 0 0 0 6.3 15.209zm38.064 59.126c.444.444.7 1.06.7 1.69 0 .63-.256 1.245-.7 1.689a2.4 2.4 0 0 1-1.69.7 2.393 2.393 0 0 1-2.39-2.39c0-.628.254-1.245.7-1.69a2.404 2.404 0 0 1 1.69-.7c.629 0 1.245.256 1.69.7z"/>
</svg>
