<svg xmlns="http://www.w3.org/2000/svg" viewBox="0 0 128 128">
    <path fill="#00A098" fill-rule="nonzero" d="M36.74 116.338a2.5 2.5 0 1 1-2.317 4.431l-.087-.046a2.5 2.5 0 1 1 2.317-4.43l.087.045zM91.405 6.15a2.5 2.5 0 0 1-2.16 4.509l-.066-.032a2.5 2.5 0 0 1 2.135-4.521l.091.043zm20.082 49.654l.006 16.357a2.5 2.5 0 0 1-2.5 2.5h-5.12a40.836 40.836 0 0 1-4.121 9.955l3.636 3.636a2.5 2.5 0 0 1 0 3.536L91.82 103.354a2.5 2.5 0 0 1-3.535 0l-3.636-3.636a40.846 40.846 0 0 1-9.955 4.122v5.146a2.5 2.5 0 0 1-2.498 2.5l-16.358.006a2.5 2.5 0 0 1-2.5-2.5v-5.152a40.83 40.83 0 0 1-9.956-4.121l-3.649 3.649a2.5 2.5 0 0 1-3.535 0L24.633 91.802a2.5 2.5 0 0 1 0-3.536l3.649-3.649a40.844 40.844 0 0 1-4.122-9.955h-5.152a2.5 2.5 0 0 1-2.5-2.5l.006-16.358a2.5 2.5 0 0 1 2.5-2.499h5.146a40.842 40.842 0 0 1 4.121-9.955l-3.636-3.635a2.501 2.501 0 0 1 .002-3.537l11.572-11.56a2.5 2.5 0 0 1 3.535.001l3.63 3.63a40.836 40.836 0 0 1 9.954-4.121v-5.12a2.5 2.5 0 0 1 2.5-2.5h.001l16.357.006a2.5 2.5 0 0 1 2.5 2.5v5.114a40.834 40.834 0 0 1 9.953 4.12l3.617-3.616a2.5 2.5 0 0 1 3.535 0L103.368 36.2a2.5 2.5 0 0 1 0 3.535L99.75 43.35a40.844 40.844 0 0 1 4.121 9.954h5.115a2.5 2.5 0 0 1 2.5 2.5zm3.234-30.83A64.123 64.123 0 0 1 128 64c0 9.519-2.04 18.68-6.066 27.228a2.5 2.5 0 1 1-4.523-2.13C121.12 81.222 123 72.778 123 64a59.115 59.115 0 0 0-12.049-35.727c-1.099.49-2.281.736-3.464.736a8.474 8.474 0 0 1-6.01-2.486c-3.315-3.314-3.315-8.706 0-12.02 3.314-3.315 8.706-3.315 12.02 0 2.837 2.836 3.243 7.195 1.224 10.47zm-4.76-1.986a3.504 3.504 0 0 0 0-4.95 3.49 3.49 0 0 0-2.474-1.023 3.49 3.49 0 0 0-2.475 1.023 3.504 3.504 0 0 0 0 4.95 3.5 3.5 0 0 0 4.832.107c.027-.025.052-.051.08-.075l.004-.002.034-.03zm-83.438 78.489c3.314 3.314 3.314 8.706 0 12.02a8.474 8.474 0 0 1-6.01 2.486 8.474 8.474 0 0 1-6.01-2.486c-2.837-2.836-3.244-7.195-1.224-10.47A64.123 64.123 0 0 1 0 64c0-8.839 1.77-17.399 5.258-25.443a2.5 2.5 0 0 1 4.587 1.99C6.63 47.959 5 55.85 5 64a59.115 59.115 0 0 0 12.049 35.727c3.122-1.39 6.917-.808 9.474 1.75zm-3.535 8.485a3.504 3.504 0 0 0 0-4.95 3.49 3.49 0 0 0-2.475-1.023c-.846 0-1.69.308-2.357.916-.027.025-.052.051-.081.075l-.004.002c-.01.011-.023.02-.033.03a3.504 3.504 0 0 0 0 4.95 3.504 3.504 0 0 0 4.95 0zm90.51-8.486c3.313 3.315 3.313 8.707 0 12.022a8.474 8.474 0 0 1-6.011 2.485 8.498 8.498 0 0 1-4.46-1.262A64.123 64.123 0 0 1 64 128a63.829 63.829 0 0 1-21.437-3.68 2.5 2.5 0 1 1 1.674-4.71A58.847 58.847 0 0 0 64 123a59.115 59.115 0 0 0 35.727-12.049c-1.39-3.122-.808-6.917 1.75-9.474 3.314-3.315 8.706-3.315 12.02 0zm-3.536 8.486a3.504 3.504 0 0 0 0-4.95 3.49 3.49 0 0 0-2.475-1.023 3.49 3.49 0 0 0-2.475 1.023 3.501 3.501 0 0 0-.106 4.832c.024.027.05.053.073.081l.003.004.03.033a3.504 3.504 0 0 0 4.95 0zM82.857 2.824a2.5 2.5 0 0 1-1.472 4.779 59.115 59.115 0 0 0-53.112 9.446c1.39 3.122.808 6.917-1.75 9.474a8.474 8.474 0 0 1-6.01 2.486 8.474 8.474 0 0 1-6.01-2.486c-3.315-3.314-3.315-8.706 0-12.02 2.836-2.837 7.195-3.244 10.47-1.224A64.123 64.123 0 0 1 64 0c6.427 0 12.77.95 18.857 2.824zm-59.87 20.164a3.502 3.502 0 0 0 .062-4.882l-.029-.031-.003-.004-.03-.033a3.49 3.49 0 0 0-2.474-1.023 3.49 3.49 0 0 0-2.475 1.023 3.504 3.504 0 0 0 0 4.95 3.504 3.504 0 0 0 4.95 0zm78.917 46.674h4.588l-.005-11.357h-4.583a2.5 2.5 0 0 1-2.444-1.975 35.928 35.928 0 0 0-4.968-11.997 2.5 2.5 0 0 1 .331-3.125l3.241-3.241-8.03-8.03-3.241 3.24a2.5 2.5 0 0 1-3.125.332A35.926 35.926 0 0 0 71.67 28.54a2.5 2.5 0 0 1-1.975-2.444v-4.584l-11.357-.004v4.587a2.5 2.5 0 0 1-1.974 2.445 35.937 35.937 0 0 0-11.999 4.967 2.5 2.5 0 0 1-3.125-.332l-3.255-3.255-8.035 8.026 3.26 3.26a2.5 2.5 0 0 1 .331 3.125 35.932 35.932 0 0 0-4.967 11.998 2.5 2.5 0 0 1-2.445 1.975h-4.616l-.004 11.357h4.62a2.5 2.5 0 0 1 2.444 1.975 35.922 35.922 0 0 0 4.968 11.998 2.5 2.5 0 0 1-.332 3.125l-3.273 3.273 8.03 8.031 3.274-3.273a2.495 2.495 0 0 1 3.125-.332 35.927 35.927 0 0 0 11.998 4.968 2.5 2.5 0 0 1 1.975 2.444v4.62l11.357-.004v-4.616a2.5 2.5 0 0 1 1.975-2.444 35.932 35.932 0 0 0 11.998-4.968 2.5 2.5 0 0 1 3.125.332l3.26 3.26 8.032-8.03-3.261-3.261a2.5 2.5 0 0 1-.332-3.125 35.932 35.932 0 0 0 4.968-11.998 2.5 2.5 0 0 1 2.444-1.975zM84.472 57.416c2.474 7.714.456 16.062-5.269 21.787C75.011 83.394 69.506 85.49 64 85.49s-11.011-2.096-15.203-6.287c-8.383-8.383-8.383-22.023 0-30.406a21.494 21.494 0 0 1 21.353-5.402 2.5 2.5 0 1 1-1.426 4.792 16.501 16.501 0 0 0-16.391 4.146c-6.433 6.433-6.433 16.901 0 23.335 6.433 6.433 16.901 6.433 23.335 0a16.451 16.451 0 0 0 4.042-16.724 2.5 2.5 0 1 1 4.762-1.528zm-5.038-8.384a2.5 2.5 0 0 1-3.588 3.482l-.18-.183a2.5 2.5 0 1 1 3.538-3.532c.078.077.154.155.23.233z"/>
</svg>
