<svg xmlns="http://www.w3.org/2000/svg" viewBox="0 0 55 55">
    <path fill="#00A098" fill-rule="nonzero" d="M27.5 13.213c-7.878 0-14.287 6.41-14.287 14.287 0 7.878 6.41 14.287 14.287 14.287 7.878 0 14.287-6.41 14.287-14.287 0-7.878-6.41-14.287-14.287-14.287zm7.52 23.81a12.08 12.08 0 0 1-7.52 2.616 12.08 12.08 0 0 1-7.52-2.617v-1.776c0-1.29.92-2.397 2.188-2.633l1.608-.3a5.351 5.351 0 0 0 3.724 1.506 5.352 5.352 0 0 0 3.724-1.506l1.608.3a2.68 2.68 0 0 1 2.188 2.633v1.776zm-10.743-8.575V26.73a3.226 3.226 0 0 1 3.223-3.223 3.226 3.226 0 0 1 3.223 3.223v1.718a3.226 3.226 0 0 1-3.223 3.223 3.226 3.226 0 0 1-3.223-3.223zm19.336 20.024a1.074 1.074 0 0 1-.257 1.497A27.32 27.32 0 0 1 27.5 55a27.42 27.42 0 0 1-9.22-1.585 1.074 1.074 0 0 1 .721-2.024 25.276 25.276 0 0 0 8.499 1.46 25.183 25.183 0 0 0 14.616-4.636 1.074 1.074 0 0 1 1.497.257zm-5.822-46.48a1.074 1.074 0 1 1-.805 1.992A25.21 25.21 0 0 0 27.5 2.148a25.157 25.157 0 0 0-14.923 4.857 1.073 1.073 0 0 1-1.266-1.736A27.291 27.291 0 0 1 27.5 0c3.557 0 7.02.67 10.29 1.991zm11.78 9.105C53.125 15.862 55 21.514 55 27.5c0 3.579-.678 7.06-2.015 10.349a1.075 1.075 0 0 1-1.99-.81 25.206 25.206 0 0 0 1.857-9.539c0-5.467-1.696-10.63-4.913-14.998a4.066 4.066 0 0 1-1.753.394 4.055 4.055 0 0 1-2.887-1.195 4.055 4.055 0 0 1-1.195-2.887c0-1.09.424-2.115 1.195-2.886a4.055 4.055 0 0 1 2.887-1.196c1.09 0 2.115.425 2.886 1.196a4.055 4.055 0 0 1 1.196 2.886c0 .826-.244 1.614-.697 2.283zm-2.018-.916a1.92 1.92 0 0 0 .566-1.367 1.92 1.92 0 0 0-.566-1.367 1.92 1.92 0 0 0-1.367-.567 1.92 1.92 0 0 0-1.367.567 1.92 1.92 0 0 0-.567 1.367c0 .517.201 1.002.567 1.367.365.366.85.567 1.367.567a1.92 1.92 0 0 0 1.367-.567zM27.5 42.871a4.087 4.087 0 0 1 4.082 4.082 4.087 4.087 0 0 1-4.082 4.082 4.088 4.088 0 0 1-4.027-3.416 20.585 20.585 0 0 1-14.22-10.73 1.074 1.074 0 0 1 1.91-.984 18.434 18.434 0 0 0 12.534 9.568 4.088 4.088 0 0 1 3.803-2.602zm0 6.015a1.936 1.936 0 0 0 1.934-1.933 1.936 1.936 0 0 0-1.934-1.934 1.936 1.936 0 0 0-1.934 1.934c0 1.066.868 1.933 1.934 1.933zm-16.407-4.979a3.226 3.226 0 0 1 0 4.558 3.213 3.213 0 0 1-2.279.942c-.825 0-1.65-.314-2.279-.942a3.228 3.228 0 0 1-.544-3.833l-.02-.022C2.066 39.701 0 33.784 0 27.5c0-2.918.455-5.79 1.353-8.54a1.074 1.074 0 1 1 2.042.667A25.32 25.32 0 0 0 2.148 27.5c0 5.763 1.885 11.19 5.45 15.702a3.228 3.228 0 0 1 3.495.705zm-1.52 3.038c.204-.203.315-.472.315-.76 0-.286-.111-.556-.314-.759a1.067 1.067 0 0 0-.76-.314c-.287 0-.556.111-.76.314a1.067 1.067 0 0 0-.314.76c0 .287.112.556.315.76.203.202.472.314.76.314.286 0 .556-.112.759-.315zm27.578-12.092a4.829 4.829 0 0 0-3.925-4.352l-.711-.133a5.34 5.34 0 0 0 .356-1.92V26.73a5.377 5.377 0 0 0-5.371-5.37 5.377 5.377 0 0 0-5.371 5.37v1.72c0 .676.127 1.322.356 1.92l-.711.132a4.829 4.829 0 0 0-3.925 4.352A12.075 12.075 0 0 1 15.36 27.5c0-6.693 5.446-12.139 12.139-12.139S39.639 20.807 39.639 27.5c0 2.762-.928 5.31-2.488 7.353zm9.727-5.418c.586.09.988.64.897 1.226a20.535 20.535 0 0 1-3.553 8.73 20.708 20.708 0 0 1-6.937 6.147 1.07 1.07 0 0 1-1.456-.431 1.074 1.074 0 0 1 .43-1.457c5.013-2.725 8.524-7.703 9.393-13.317.09-.587.64-.989 1.226-.898zM19.099 9.928c.285.52.095 1.173-.425 1.458-4.975 2.731-8.461 7.695-9.326 13.28a1.075 1.075 0 0 1-2.123-.33 20.54 20.54 0 0 1 3.529-8.693 20.711 20.711 0 0 1 6.886-6.14 1.074 1.074 0 0 1 1.459.425zm26.106 7.199a1.074 1.074 0 1 1-1.852 1.087c-2.792-4.754-7.49-7.973-12.902-8.846a3.227 3.227 0 0 1-2.951 1.93 3.226 3.226 0 0 1-3.223-3.223A3.226 3.226 0 0 1 27.5 4.852a3.228 3.228 0 0 1 3.107 2.368l.057.006c6.102.945 11.402 4.553 14.541 9.9zM27.5 9.149A1.075 1.075 0 0 0 27.5 7a1.075 1.075 0 0 0 0 2.149zM9.573 8.054c.2.2.315.477.315.76 0 .282-.115.56-.315.76-.2.2-.475.314-.759.314-.283 0-.56-.115-.76-.315-.2-.2-.314-.477-.314-.759 0-.283.115-.56.314-.76.2-.2.477-.314.76-.314.282 0 .56.115.76.314zm37.373 37.373c.2.2.314.477.314.759 0 .283-.115.56-.314.76-.2.2-.477.314-.76.314-.282 0-.56-.115-.76-.314-.2-.2-.314-.477-.314-.76 0-.282.115-.56.315-.76.2-.2.477-.314.759-.314.283 0 .56.115.76.315z"/>
</svg>
