<svg xmlns="http://www.w3.org/2000/svg" viewBox="0 0 128 128">
    <path fill="#00A098" fill-rule="nonzero" d="M50.596 85.88c.465.467.732 1.11.732 1.767a2.504 2.504 0 0 1-2.495 2.5c-.66 0-1.3-.265-1.767-.733a2.515 2.515 0 0 1-.729-1.767c0-.658.265-1.3.729-1.768a2.512 2.512 0 0 1 1.766-.732c.657 0 1.3.267 1.764.732zm68.671-.67c4.678 0 8.483 3.813 8.484 8.5 0 4.687-3.806 8.5-8.484 8.5-3.81 0-7.04-2.53-8.108-6h-4.784a2.493 2.493 0 0 1-1.764-.732L92.259 83.1 66.37 97.472v13.903c3.463 1.07 5.988 4.307 5.988 8.124 0 4.688-3.806 8.5-8.484 8.5-4.677 0-8.483-3.813-8.483-8.5 0-3.817 2.525-7.054 5.988-8.124V97.472l-5.547-3.08a2.503 2.503 0 0 1-.973-3.398 2.493 2.493 0 0 1 3.392-.975l3.129 1.737V65.472l-23.832-13.23v26.285l3.447 1.913a2.503 2.503 0 0 1 .973 3.399 2.493 2.493 0 0 1-3.392.975L35.492 83.1 23.14 95.478a2.493 2.493 0 0 1-1.764.732h-4.784c-1.068 3.47-4.299 6-8.109 6-4.677 0-8.483-3.813-8.483-8.5 0-4.687 3.806-8.5 8.483-8.5 3.81 0 7.04 2.529 8.109 6h3.75l12.217-12.241V49.03L20.342 36.788h-3.75c-1.068 3.471-4.299 6-8.109 6C3.806 42.79 0 38.976 0 34.29c0-4.687 3.806-8.5 8.483-8.5 3.81 0 7.04 2.53 8.109 6h4.784c.661 0 1.296.264 1.764.733l12.352 12.377L61.38 30.526V16.624c-3.463-1.07-5.988-4.307-5.988-8.124 0-4.687 3.806-8.5 8.483-8.5 4.678 0 8.484 3.813 8.484 8.5 0 3.817-2.525 7.054-5.988 8.124v13.903l25.888 14.371 12.352-12.376a2.493 2.493 0 0 1 1.764-.732h4.784c1.068-3.471 4.298-6 8.108-6 4.678 0 8.484 3.813 8.484 8.5 0 4.687-3.806 8.5-8.484 8.5-3.81 0-7.04-2.53-8.108-6h-3.75L95.192 49.03V78.97l12.217 12.24h3.75c1.068-3.47 4.298-6 8.108-6zm0-54.42a3.5 3.5 0 0 0 0 7 3.5 3.5 0 0 0 0-7zm-110.783 7a3.5 3.5 0 0 0 0-7 3.5 3.5 0 0 0 0 7zm0 59.42a3.5 3.5 0 0 0 0-7 3.5 3.5 0 0 0 0 7zM60.382 8.5a3.5 3.5 0 0 0 3.493 3.5 3.5 3.5 0 0 0 0-7 3.5 3.5 0 0 0-3.493 3.5zm6.987 111a3.5 3.5 0 0 0-3.494-3.5 3.5 3.5 0 0 0 0 7 3.5 3.5 0 0 0 3.494-3.5zM84.33 51.854a2.52 2.52 0 0 1 .731 1.767 2.5 2.5 0 0 1-2.495 2.5 2.5 2.5 0 0 1-2.495-2.5c0-.657.267-1.3.731-1.767a2.51 2.51 0 0 1 1.764-.733c.659 0 1.3.267 1.764.733zm5.872 26.672V49.473L63.875 34.858 40.202 48 63.875 61.14l8.476-4.705a2.493 2.493 0 0 1 3.392.975 2.503 2.503 0 0 1-.973 3.399l-8.4 4.662v26.284l23.832-13.23zm29.065 18.683a3.5 3.5 0 0 0 0-7 3.5 3.5 0 0 0 0 7z"/>
</svg>
