<svg xmlns="http://www.w3.org/2000/svg" viewBox="0 0 128 128">
    <path fill="#00A098" fill-rule="nonzero" d="M109.492 91.003a18.4 18.4 0 0 0-11.185 3.778L78.716 75.19a18.402 18.402 0 0 0 3.778-11.186 18.41 18.41 0 0 0-.918-5.746l20.164-9.776c2.636 3.645 6.92 6.023 11.752 6.023 7.995 0 14.499-6.504 14.499-14.499 0-7.994-6.504-14.499-14.499-14.499-7.995 0-14.499 6.505-14.499 14.499 0 1.38.198 2.715.56 3.98l-20.162 9.776c-2.881-4.315-7.526-7.354-12.895-8.083v-6.645c3.47-1.07 5.999-4.307 5.999-8.124 0-4.687-3.813-8.5-8.5-8.5-4.686 0-8.498 3.814-8.498 8.5 0 3.817 2.529 7.054 5.999 8.124v6.645a18.401 18.401 0 0 0-8.686 3.605l-16.16-16.16a20.571 20.571 0 0 0 3.627-18.016 2.5 2.5 0 1 0-4.824 1.313 15.549 15.549 0 0 1-3.949 14.998c-.016.016-.033.029-.05.045-.013.014-.025.03-.039.044-6.046 6-15.846 5.988-21.875-.041-6.043-6.043-6.043-15.876 0-21.919 3.822-3.822 9.25-5.364 14.519-4.127A2.5 2.5 0 0 0 25.202.553c-6.967-1.635-14.144.405-19.198 5.46-7.992 7.992-7.992 20.996 0 28.989 3.996 3.996 9.245 5.994 14.495 5.994a20.45 20.45 0 0 0 12.614-4.338l16.161 16.16a18.4 18.4 0 0 0-3.778 11.185c0 10.2 8.299 18.499 18.499 18.499 4.2 0 8.076-1.41 11.185-3.778L94.77 98.315a18.4 18.4 0 0 0-3.778 11.186c0 10.2 8.299 18.498 18.499 18.498s18.498-8.298 18.498-18.498c0-10.2-8.298-18.498-18.498-18.498zm4-60.497c5.237 0 9.499 4.262 9.499 9.5 0 5.237-4.262 9.499-9.5 9.499-5.237 0-9.499-4.262-9.499-9.5 0-5.237 4.262-9.499 9.5-9.499zm-52.997.403c0-1.93 1.57-3.5 3.5-3.5s3.5 1.57 3.5 3.5-1.57 3.5-3.5 3.5-3.5-1.57-3.5-3.5zm3.5 46.594c-7.444 0-13.499-6.056-13.499-13.5 0-7.443 6.055-13.498 13.499-13.498 7.444 0 13.499 6.055 13.499 13.499 0 7.443-6.055 13.499-13.499 13.499zM109.492 123c-7.444 0-13.499-6.055-13.499-13.499 0-7.443 6.056-13.499 13.499-13.499 7.444 0 13.499 6.056 13.499 13.5 0 7.443-6.056 13.498-13.499 13.498zM35.079 6.098a2.5 2.5 0 1 1-3.553 3.519l-.064-.065a2.5 2.5 0 1 1 3.527-3.544l.09.09zm6.373 80.449a2.5 2.5 0 0 1 0 3.535l-15.094 15.094a14.414 14.414 0 0 1 2.64 8.325c0 7.995-6.505 14.499-14.5 14.499C6.505 128 0 121.496 0 113.5c0-7.994 6.504-14.499 14.499-14.499 3.096 0 5.966.979 8.324 2.639l15.094-15.094a2.5 2.5 0 0 1 3.535 0zM14.499 123c5.237 0 9.499-4.261 9.499-9.499s-4.262-9.5-9.5-9.5c-5.237 0-9.498 4.262-9.498 9.5s4.261 9.5 9.499 9.5zm32.89-42.39a2.52 2.52 0 0 1 .732 1.767c0 .657-.267 1.302-.732 1.767a2.518 2.518 0 0 1-1.767.733 2.519 2.519 0 0 1-1.767-.733 2.518 2.518 0 0 1-.733-1.767c0-.657.267-1.302.733-1.767a2.518 2.518 0 0 1 1.767-.733c.657 0 1.302.268 1.767.733z"/>
</svg>
