<svg xmlns="http://www.w3.org/2000/svg" viewBox="0 0 128 128">
    <path fill="#00A098" fill-rule="nonzero" d="M121.988 60.779a2.506 2.506 0 0 0-2.51-2.5h-6.67a49.052 49.052 0 0 0-5.299-12.741l4.717-4.696c.98-.977.98-2.56 0-3.536L98.09 23.232a2.52 2.52 0 0 0-3.551 0l-1.422 1.415c-.133-10-5.586-19.29-14.305-24.31a2.52 2.52 0 0 0-2.511-.002A2.498 2.498 0 0 0 75.044 2.5v19.65l-10.546 6.063-10.546-6.063V2.5c0-.893-.48-1.719-1.257-2.166a2.52 2.52 0 0 0-2.511.002C41.477 5.351 36.027 14.623 35.88 24.607l-1.406-1.4a2.52 2.52 0 0 0-3.551 0L16.787 37.282c-.98.976-.98 2.559 0 3.535l4.74 4.72a49.06 49.06 0 0 0-5.299 12.743h-6.71a2.506 2.506 0 0 0-2.51 2.499L7 80.683c0 .663.264 1.299.735 1.768.471.47 1.11.733 1.776.733h6.717a49.06 49.06 0 0 0 5.299 12.742l-4.757 4.736c-.98.977-.98 2.56 0 3.536l14.136 14.074a2.52 2.52 0 0 0 3.55 0l4.758-4.736a49.517 49.517 0 0 0 12.798 5.276v6.688c0 .663.265 1.3.736 1.768.47.469 1.11.732 1.775.732h.001l19.991-.007c1.386 0 2.51-1.12 2.51-2.5v-6.681a49.505 49.505 0 0 0 12.798-5.276l4.74 4.72a2.517 2.517 0 0 0 3.552-.001l14.129-14.082a2.493 2.493 0 0 0-.001-3.535l-4.733-4.712a49.058 49.058 0 0 0 5.299-12.743h6.677c.666 0 1.304-.263 1.775-.732.471-.47.736-1.105.735-1.769l-.008-19.903zM48.93 7.362v16.231c0 .894.478 1.719 1.255 2.165l13.058 7.506a2.52 2.52 0 0 0 2.51 0l13.058-7.506a2.498 2.498 0 0 0 1.255-2.165V7.363c5.04 4.42 8.035 10.852 8.035 17.659 0 12.958-10.588 23.5-23.603 23.5-13.015 0-23.603-10.542-23.603-23.5 0-6.807 2.995-13.24 8.035-17.66zm61.892 70.822a2.508 2.508 0 0 0-2.455 1.974 44.147 44.147 0 0 1-6.146 14.78 2.492 2.492 0 0 0 .333 3.125l4.363 4.344-10.579 10.544-4.368-4.35a2.52 2.52 0 0 0-3.139-.331 44.567 44.567 0 0 1-14.845 6.12 2.503 2.503 0 0 0-1.983 2.444v6.16l-14.969.005v-6.165a2.502 2.502 0 0 0-1.983-2.444 44.557 44.557 0 0 1-14.845-6.12 2.52 2.52 0 0 0-3.139.332l-4.386 4.367-10.585-10.539 4.386-4.366a2.492 2.492 0 0 0 .333-3.125 44.168 44.168 0 0 1-6.146-14.78 2.508 2.508 0 0 0-2.455-1.975h-6.19l.004-14.904h6.187a2.508 2.508 0 0 0 2.455-1.975 44.147 44.147 0 0 1 6.146-14.78 2.492 2.492 0 0 0-.333-3.125l-4.37-4.35L32.698 28.51l4.24 4.222c1.905 6.741 6.244 12.477 12.009 16.206v48.097c-.067-.039-.134-.075-.2-.115a2.517 2.517 0 0 0-3.446.857 2.494 2.494 0 0 0 .86 3.43 35.7 35.7 0 0 0 43.55-5.353 35.408 35.408 0 0 0 10.363-22.708 35.374 35.374 0 0 0-7.014-23.654 2.519 2.519 0 0 0-3.516-.501 2.493 2.493 0 0 0-.503 3.5c9.065 12.044 7.827 29.167-2.881 39.828a30.787 30.787 0 0 1-6.077 4.702V68.419c0-1.38-1.124-2.5-2.51-2.5a2.506 2.506 0 0 0-2.512 2.5v30.978a30.616 30.616 0 0 1-21.092.01V51.525a28.587 28.587 0 0 0 10.53 1.998c13.08 0 24.14-8.782 27.545-20.735l4.271-4.253L106.9 39.073l-4.346 4.327a2.492 2.492 0 0 0-.333 3.125 44.158 44.158 0 0 1 6.146 14.78 2.508 2.508 0 0 0 2.455 1.975h6.146l.006 14.903h-6.152zM39.392 49.06a2.518 2.518 0 0 0-3.514.51c-7.462 9.971-9.113 23.314-4.309 34.822a2.511 2.511 0 0 0 3.283 1.35 2.496 2.496 0 0 0 1.354-3.268c-4.127-9.889-2.71-21.351 3.698-29.915.83-1.108.6-2.674-.513-3.5zM40.5 89.986l-.005-.004a2.528 2.528 0 0 0-3.557-.008 2.5 2.5 0 0 0 .004 3.542c.492.49 1.14.737 1.788.737.64 0 1.28-.24 1.769-.725a2.501 2.501 0 0 0 0-3.542zm38.847-33.67a2.536 2.536 0 0 0-1.775-.732 2.503 2.503 0 0 0-2.51 2.5c-.001.66.265 1.302.735 1.767a2.52 2.52 0 0 0 3.55 0 2.509 2.509 0 0 0 .736-1.767c0-.658-.269-1.303-.736-1.768z"/>
</svg>
