<svg xmlns="http://www.w3.org/2000/svg" viewBox="0 0 128 128">
    <path fill="#00A098" fill-rule="nonzero" d="M120.311 87.862a10.415 10.415 0 0 0-4.892-6.363 10.554 10.554 0 0 0-2.75-1.105V73.11a2.498 2.498 0 0 0-2.499-2.495c-1.38 0-2.5 1.117-2.5 2.495v7.29c-.072.017-.145.033-.217.052a10.433 10.433 0 0 0-4.867 2.871l-11.176-6.44a30.21 30.21 0 0 0 2.927-13.005c0-4.651-1.052-9.062-2.93-13.009l11.186-6.445a10.5 10.5 0 0 0 5.077 2.921v8.05a2.497 2.497 0 0 0 2.5 2.495c1.38 0 2.5-1.117 2.5-2.494V47.35c.942-.23 1.868-.592 2.75-1.1a10.411 10.411 0 0 0 4.891-6.362 10.39 10.39 0 0 0-1.049-7.951c-2.895-5.004-9.328-6.725-14.342-3.836a10.466 10.466 0 0 0-2.33 1.827L73.916 13.406c.271-.93.42-1.911.42-2.927C74.336 4.7 69.626 0 63.836 0c-5.788 0-10.498 4.7-10.498 10.479 0 1.016.148 1.997.42 2.927l-28.671 16.52a10.54 10.54 0 0 0-2.334-1.824c-5.014-2.889-11.447-1.168-14.342 3.836a10.393 10.393 0 0 0-1.049 7.951 10.412 10.412 0 0 0 4.892 6.363c.882.508 1.807.869 2.75 1.1v7.545a2.497 2.497 0 0 0 2.5 2.495c1.38 0 2.5-1.117 2.5-2.495v-7.552a10.503 10.503 0 0 0 5.076-2.921l11.191 6.448a30.207 30.207 0 0 0-2.929 13.007c0 4.648 1.052 9.056 2.927 13.001l-11.182 6.444a10.436 10.436 0 0 0-4.866-2.871c-.072-.02-.145-.035-.218-.053v-6.791a2.497 2.497 0 0 0-2.5-2.495c-1.38 0-2.499 1.117-2.499 2.495v6.785c-.952.234-1.877.602-2.75 1.105a10.41 10.41 0 0 0-4.892 6.363 10.39 10.39 0 0 0 1.05 7.951c1.942 3.358 5.478 5.237 9.11 5.237 1.78 0 3.582-.451 5.231-1.402a10.54 10.54 0 0 0 2.334-1.824l28.67 16.521c-.27.93-.42 1.911-.42 2.927 0 5.778 4.71 10.479 10.5 10.479 5.789 0 10.499-4.7 10.499-10.479 0-1.016-.149-1.997-.42-2.927l28.67-16.521a10.527 10.527 0 0 0 7.566 3.226c3.631 0 7.168-1.879 9.11-5.237a10.391 10.391 0 0 0 1.05-7.951zm-15.453-52.106a5.456 5.456 0 0 1 2.562-3.333c2.626-1.513 5.996-.612 7.512 2.01.735 1.27.93 2.748.55 4.165a5.455 5.455 0 0 1-2.562 3.332c-2.626 1.514-5.997.613-7.513-2.009a5.445 5.445 0 0 1-.55-4.165zm-82.592 4.165a5.464 5.464 0 0 1-3.339 2.558 5.473 5.473 0 0 1-4.173-.549 5.454 5.454 0 0 1-2.563-3.332 5.444 5.444 0 0 1 .55-4.166 5.505 5.505 0 0 1 7.512-2.009 5.454 5.454 0 0 1 2.563 3.333 5.441 5.441 0 0 1-.55 4.165zm.55 52.073a5.451 5.451 0 0 1-2.563 3.333c-2.625 1.513-5.996.612-7.512-2.009a5.444 5.444 0 0 1-.55-4.165 5.454 5.454 0 0 1 2.563-3.333 5.476 5.476 0 0 1 4.173-.548 5.463 5.463 0 0 1 3.339 2.557c.734 1.27.93 2.75.55 4.165zm48.595-74.27l28.685 16.53a10.46 10.46 0 0 0-.006 5.85L88.9 46.553c-5.066-7.276-13.226-12.251-22.564-13.01V20.655a10.505 10.505 0 0 0 5.075-2.931zM63.84 77.466a11.57 11.57 0 0 0 7.963-3.17l3.294.614a5.446 5.446 0 0 1 4.453 5.35v3.649a25.402 25.402 0 0 1-15.71 5.418 25.405 25.405 0 0 1-15.71-5.418v-3.65a5.446 5.446 0 0 1 4.452-5.349l3.294-.613a11.574 11.574 0 0 0 7.964 3.169zm-6.605-11.582v-3.635c0-3.635 2.963-6.592 6.605-6.592 3.642 0 6.605 2.957 6.605 6.592v3.635c0 3.635-2.963 6.592-6.605 6.592-3.642 0-6.605-2.957-6.605-6.592zm18.78 4.121l-1.246-.232c.436-1.216.675-2.525.675-3.89V62.25c0-6.387-5.205-11.582-11.604-11.582-6.4 0-11.605 5.195-11.605 11.582v3.635c0 1.364.24 2.673.675 3.89l-1.245.231a10.445 10.445 0 0 0-8.438 8.835 25.277 25.277 0 0 1-4.885-14.962c0-14.032 11.438-25.448 25.497-25.448 14.06 0 25.498 11.416 25.498 25.448 0 4.615-1.238 8.947-3.398 12.683-.008.013-.017.024-.024.037l-.013.025c-.445.765-.93 1.505-1.45 2.217a10.445 10.445 0 0 0-8.438-8.835zM63.836 4.99c3.032 0 5.5 2.462 5.5 5.489 0 3.026-2.468 5.489-5.5 5.489-3.033 0-5.5-2.463-5.5-5.49 0-3.026 2.467-5.488 5.5-5.488zm-36.25 35.116c.535-1.822.563-3.76.058-5.641-.02-.072-.042-.143-.063-.214l28.68-16.527a10.505 10.505 0 0 0 5.075 2.93v12.89c-9.336.76-17.495 5.736-22.559 13.011l-11.191-6.449zm28.675 69.92L27.582 93.5c.02-.071.043-.142.063-.214.505-1.881.477-3.82-.058-5.642l11.188-6.447C43.84 88.475 52 93.452 61.337 94.213v12.883a10.503 10.503 0 0 0-5.075 2.93zm7.575 12.735c-3.033 0-5.5-2.462-5.5-5.489 0-3.027 2.467-5.489 5.5-5.489 3.032 0 5.5 2.462 5.5 5.489 0 3.027-2.468 5.489-5.5 5.489zm7.574-12.734a10.503 10.503 0 0 0-5.075-2.931V94.214c9.34-.759 17.501-5.736 22.567-13.014l11.183 6.444a10.391 10.391 0 0 0-.058 5.642l.063.213-28.68 16.528zm43.521-16.709c-1.516 2.621-4.885 3.522-7.512 2.01a5.454 5.454 0 0 1-2.562-3.334 5.443 5.443 0 0 1 .55-4.165 5.463 5.463 0 0 1 3.339-2.557 5.549 5.549 0 0 1 1.386-.188l.037.002.045-.002c.94.006 1.868.254 2.705.736a5.454 5.454 0 0 1 2.562 3.333 5.445 5.445 0 0 1-.55 4.165zm-95.66-31.016a2.51 2.51 0 0 1 .732 1.764c0 .658-.268 1.3-.733 1.763a2.51 2.51 0 0 1-1.767.731 2.51 2.51 0 0 1-1.767-.73 2.505 2.505 0 0 1-.733-1.764c0-.656.268-1.3.733-1.764a2.516 2.516 0 0 1 1.767-.731c.657 0 1.302.267 1.767.73zm92.666-.188c.465.464.73 1.108.73 1.764 0 .656-.265 1.3-.73 1.764a2.524 2.524 0 0 1-1.767.731c-.66 0-1.302-.267-1.77-.731a2.507 2.507 0 0 1-.73-1.764c0-.656.265-1.3.73-1.764a2.523 2.523 0 0 1 1.77-.73c.657 0 1.3.266 1.767.73z"/>
</svg>
