<svg xmlns="http://www.w3.org/2000/svg" viewBox="0 0 128 128">
    <path fill="#00A098" fill-rule="nonzero" d="M125.5 109h-3V59.126c0-7.79-6.337-14.126-14.126-14.126h-1.737a15.41 15.41 0 0 0 .798-4.895c0-8.535-6.944-15.479-15.478-15.479-.823 0-1.638.064-2.442.193a27.47 27.47 0 0 0-2.48-8.854 2.5 2.5 0 1 0-4.524 2.13 22.591 22.591 0 0 1 2.159 9.697l-.003.225a2.5 2.5 0 0 0 3.423 2.349 10.423 10.423 0 0 1 3.867-.74c5.778 0 10.478 4.701 10.478 10.479s-4.7 10.479-10.478 10.479a2.5 2.5 0 0 0 0 5c4.774 0 9.05-2.175 11.891-5.584h4.526c5.032 0 9.125 4.094 9.125 9.126V109h-107V59.126c0-5.032 4.094-9.126 9.126-9.126h4.526c2.842 3.409 7.118 5.583 11.892 5.583a2.5 2.5 0 0 0 0-5c-5.778 0-10.479-4.7-10.479-10.478s4.701-10.479 10.48-10.479c.15 0 .299.005.448.012.065.002.129 0 .193-.002.056.008.111.017.168.021a10.479 10.479 0 0 1 6.6 3.038 2.492 2.492 0 0 0 1.767.733 2.5 2.5 0 0 0 1.768-4.268 15.486 15.486 0 0 0-7.73-4.197C40.636 13.603 50.175 5 61.877 5c2.845 0 5.618.516 8.244 1.535a2.5 2.5 0 1 0 1.809-4.66A27.669 27.669 0 0 0 61.879 0a27.639 27.639 0 0 0-19.415 7.906c-4.648 4.538-7.514 10.441-8.21 16.823-7.695.89-13.689 7.446-13.689 15.376 0 1.71.283 3.355.798 4.895h-1.738C11.836 45 5.5 51.337 5.5 59.126V109h-3a2.5 2.5 0 0 0-2.5 2.5v4.25C0 122.505 5.495 128 12.25 128h103.5c6.755 0 12.25-5.495 12.25-12.25v-4.25a2.5 2.5 0 0 0-2.5-2.5zm-52.124 5a2.84 2.84 0 0 1-2.709 2H57.334a2.84 2.84 0 0 1-2.71-2h18.753zM123 115.75c0 3.998-3.252 7.25-7.25 7.25H12.25C8.252 123 5 119.748 5 115.75V114h44.543c.418 3.929 3.751 7 7.79 7h13.335c4.037 0 7.371-3.071 7.789-7H123v1.75zM81.484 8.094a2.5 2.5 0 0 1-3.535 3.536l-.024-.023a2.5 2.5 0 1 1 3.503-3.569l.056.056zM65.84 78.228c.468.467.733 1.112.733 1.77 0 .657-.265 1.3-.733 1.767a2.518 2.518 0 0 1-1.767.733c-.658 0-1.3-.268-1.768-.733a2.524 2.524 0 0 1-.733-1.767c0-.658.268-1.303.733-1.77a2.516 2.516 0 0 1 1.768-.73c.66 0 1.302.265 1.767.73zm-1.767-31.065a2.5 2.5 0 0 1 2.5 2.5v21.584a2.5 2.5 0 0 1-5 0V49.662a2.5 2.5 0 0 1 2.5-2.5zm0 38.584c5.239 0 9.5 4.262 9.5 9.5s-4.261 9.5-9.5 9.5c-5.238 0-9.5-4.262-9.5-9.5s4.262-9.5 9.5-9.5zm0 14c2.482 0 4.5-2.019 4.5-4.5s-2.018-4.5-4.5-4.5a4.505 4.505 0 0 0-4.5 4.5c0 2.481 2.019 4.5 4.5 4.5zM51.517 36.672a2.5 2.5 0 0 1 2.5 2.5v13.875a2.5 2.5 0 0 1-.994 1.996l-10.197 7.691v8.68c3.403 1.055 5.881 4.231 5.881 7.975 0 4.604-3.745 8.349-8.349 8.349-4.603 0-8.348-3.745-8.348-8.349 0-3.72 2.447-6.879 5.816-7.954v-9.947a2.5 2.5 0 0 1 .995-1.995L49.017 51.8V39.172a2.5 2.5 0 0 1 2.5-2.5zm-7.81 42.717a3.352 3.352 0 0 0-3.349-3.348 3.352 3.352 0 0 0-3.348 3.348 3.352 3.352 0 0 0 3.349 3.349 3.352 3.352 0 0 0 3.348-3.349zm46.467-7.954c3.369 1.075 5.816 4.234 5.816 7.955 0 4.603-3.745 8.348-8.348 8.348-4.604 0-8.349-3.745-8.349-8.348 0-3.745 2.478-6.921 5.881-7.976v-8.68l-10.197-7.691a2.5 2.5 0 0 1-.994-1.995V39.172a2.5 2.5 0 0 1 5 0v12.63l10.197 7.691a2.5 2.5 0 0 1 .994 1.996v9.946zm-2.533 11.303a3.352 3.352 0 0 0 3.349-3.349 3.352 3.352 0 0 0-3.349-3.348 3.352 3.352 0 0 0-3.348 3.348 3.352 3.352 0 0 0 3.348 3.349z"/>
</svg>
