<svg width="24" height="114" viewBox="0 0 24 114" fill="none" xmlns="http://www.w3.org/2000/svg">
<path d="M24 101.153C24 103.581 23.4889 105.779 22.4667 107.748C21.4222 109.695 19.9889 111.229 18.1667 112.351C16.3444 113.45 14.2889 114 12 114C9.71111 114 7.65556 113.439 5.83333 112.317C4.01111 111.195 2.58889 109.66 1.56667 107.714C0.522222 105.745 -4.56949e-07 103.546 -5.63053e-07 101.119C-6.49137e-07 99.1495 0.333333 97.3518 1 95.726C1.66667 94.1001 2.63333 92.7261 3.9 91.604L6.53334 94.4894C4.71111 96.2297 3.8 98.3709 3.8 100.913C3.8 102.562 4.15556 104.039 4.86667 105.344C5.55556 106.649 6.52222 107.668 7.76667 108.401C9.01111 109.134 10.4222 109.5 12 109.5C13.5778 109.5 14.9889 109.134 16.2333 108.401C17.4778 107.668 18.4556 106.649 19.1667 105.344C19.8556 104.039 20.2 102.562 20.2 100.913C20.2 98.3709 19.2778 96.2297 17.4333 94.4894L20.1 91.604C21.3667 92.7261 22.3333 94.1115 23 95.7603C23.6667 97.3862 24 99.1838 24 101.153Z" fill="#3A3B39"/>
<path d="M23.9 80.1645C23.9 82.0193 23.5111 83.691 22.7333 85.1795C21.9556 86.668 20.8778 87.8359 19.5 88.6832C18.1 89.5076 16.5222 89.9198 14.7667 89.9198C13.0111 89.9198 11.4444 89.5076 10.0667 88.6832C8.68889 87.8359 7.61111 86.668 6.83333 85.1795C6.05556 83.691 5.66667 82.0193 5.66667 80.1645C5.66667 78.2867 6.05556 76.6035 6.83333 75.115C7.61111 73.6266 8.68889 72.4701 10.0667 71.6457C11.4444 70.7984 13.0111 70.3748 14.7667 70.3748C16.5222 70.3748 18.1 70.7984 19.5 71.6457C20.8778 72.4701 21.9556 73.6266 22.7333 75.115C23.5111 76.6035 23.9 78.2867 23.9 80.1645ZM20.3333 80.1645C20.3333 78.5844 19.8222 77.2791 18.8 76.2486C17.7778 75.2181 16.4333 74.7028 14.7667 74.7028C13.1 74.7028 11.7556 75.2181 10.7333 76.2486C9.71111 77.2791 9.2 78.5844 9.2 80.1645C9.2 81.7445 9.71111 83.0498 10.7333 84.0803C11.7556 85.0879 13.1 85.5917 14.7667 85.5917C16.4333 85.5917 17.7778 85.0879 18.8 84.0803C19.8222 83.0498 20.3333 81.7445 20.3333 80.1645Z" fill="#3A3B39"/>
<path d="M8.46667 62.1813C6.6 60.9447 5.66667 58.7692 5.66667 55.6549L9.63333 55.6549C9.56667 56.0213 9.53333 56.3533 9.53333 56.651C9.53333 58.3227 10.0111 59.628 10.9667 60.5669C11.9 61.5058 13.2556 61.9752 15.0333 61.9752L23.6667 61.9752L23.6667 66.2689L5.86667 66.2689L5.86667 62.1813L8.46667 62.1813Z" fill="#3A3B39"/>
<path d="M22.7 40.3153C23.1 40.8191 23.4 41.4374 23.6 42.1702C23.8 42.8801 23.9 43.6358 23.9 44.4373C23.9 46.4524 23.3889 48.0096 22.3667 49.1088C21.3444 50.208 19.8556 50.7576 17.9 50.7576L9.33333 50.7576L9.33333 53.7804L6 53.7804L6 50.7576L1.93333 50.7576L1.93333 46.4639L6 46.4639L6 41.5519L9.33333 41.5519L9.33333 46.4639L17.8 46.4639C18.6667 46.4639 19.3333 46.2463 19.8 45.8113C20.2444 45.3762 20.4667 44.7464 20.4667 43.922C20.4667 42.9602 20.2222 42.1587 19.7333 41.5175L22.7 40.3153Z" fill="#3A3B39"/>
<path d="M14.8667 20.1434C15.1556 20.1434 15.5667 20.1663 16.1 20.2121L16.1 34.6046C17.4111 34.3528 18.4556 33.7001 19.2333 32.6467C19.9889 31.5704 20.3667 30.2422 20.3667 28.6622C20.3667 26.647 19.7222 24.9867 18.4333 23.6814L21 21.38C21.9556 22.2044 22.6778 23.2463 23.1667 24.5058C23.6556 25.7653 23.9 27.1851 23.9 28.7652C23.9 30.7804 23.5111 32.5551 22.7333 34.0894C21.9556 35.6237 20.8778 36.8145 19.5 37.6618C18.1 38.4862 16.5222 38.8984 14.7667 38.8984C13.0333 38.8984 11.4778 38.4976 10.1 37.6961C8.7 36.8717 7.61111 35.7382 6.83333 34.2955C6.05555 32.8528 5.66666 31.2269 5.66666 29.4178C5.66666 27.6317 6.05555 26.0401 6.83333 24.6432C7.58889 23.2234 8.66667 22.1243 10.0667 21.3457C11.4444 20.5442 13.0444 20.1434 14.8667 20.1434ZM9 29.4178C9 30.7918 9.4 31.9597 10.2 32.9215C10.9778 33.8604 12.0222 34.4329 13.3333 34.639L13.3333 24.231C12.0444 24.4142 11 24.9753 10.2 25.9142C9.4 26.8531 9 28.021 9 29.4178Z" fill="#3A3B39"/>
<path d="M23.6667 4.84331L17.5 9.54922L23.6667 14.2895L23.6667 19.0297L14.6333 11.885L5.86666 18.7206L5.86666 13.946L11.7 9.44617L5.86666 4.94635L5.86666 0.309148L14.5667 7.17908L23.6667 -1.9631e-06L23.6667 4.84331Z" fill="#3A3B39"/>
</svg>
