<svg width="1037" height="575" viewBox="0 0 1037 575" fill="none" xmlns="http://www.w3.org/2000/svg">
<path d="M4 42.5284C55.3333 0.195091 186.9 -40.3716 302.5 136.028C447 356.528 591.452 527.378 830 531.028C991.5 533.5 998.5 533.5 998.5 533.5" stroke="#00CA9D" stroke-width="11" stroke-linejoin="round"/>
<path d="M1035.2 537.39C1037.35 535.242 1037.35 531.76 1035.2 529.612L1000.2 494.61C998.055 492.462 994.573 492.462 992.425 494.61C990.277 496.758 990.277 500.241 992.425 502.389L1023.54 533.501L992.425 564.614C990.277 566.762 990.277 570.244 992.425 572.392C994.573 574.54 998.055 574.54 1000.2 572.392L1035.2 537.39ZM998.316 539.001H1031.32V528.001H998.316V539.001Z" fill="#00CA9D"/>
</svg>
