<svg width="261" height="260" viewBox="0 0 261 260" fill="none" xmlns="http://www.w3.org/2000/svg">
<g clip-path="url(#clip0)">
<path d="M136.403 60.8213C153.199 60.8213 166.814 47.2059 166.814 30.4106C166.814 13.6153 153.199 0 136.403 0C119.607 0 105.991 13.6153 105.991 30.4106C105.991 47.2059 119.607 60.8213 136.403 60.8213Z" fill="#00CA9D"/>
<path d="M136.403 260C146.479 260 154.648 251.832 154.648 241.756C154.648 231.68 146.479 223.511 136.403 223.511C126.326 223.511 118.158 231.68 118.158 241.756C118.158 251.832 126.326 260 136.403 260Z" fill="#00CA9D"/>
<path d="M61.6756 88.7256C76.7931 88.7256 89.0482 76.471 89.0482 61.3541C89.0482 46.2372 76.7931 33.9825 61.6756 33.9825C46.5581 33.9825 34.303 46.2372 34.303 61.3541C34.303 76.471 46.5581 88.7256 61.6756 88.7256Z" fill="#00CA9D"/>
<path d="M211.13 225.998C219.528 225.998 226.336 219.19 226.336 210.792C226.336 202.395 219.528 195.587 211.13 195.587C202.732 195.587 195.924 202.395 195.924 210.792C195.924 219.19 202.732 225.998 211.13 225.998Z" fill="#00CA9D"/>
<path d="M30.7211 160.411C44.1546 160.411 55.0446 149.521 55.0446 136.088C55.0446 122.655 44.1546 111.765 30.7211 111.765C17.2876 111.765 6.39755 122.655 6.39755 136.088C6.39755 149.521 17.2876 160.411 30.7211 160.411Z" fill="#00CA9D"/>
<path d="M242.074 148.234C248.788 148.234 254.231 142.792 254.231 136.078C254.231 129.364 248.788 123.922 242.074 123.922C235.36 123.922 229.917 129.364 229.917 136.078C229.917 142.792 235.36 148.234 242.074 148.234Z" fill="#00CA9D"/>
<path d="M46.6271 195.765C38.3088 204.083 38.3088 217.542 46.6271 225.86C54.9356 234.178 68.4146 234.178 76.7231 225.86C85.0415 217.542 85.0415 204.083 76.7231 195.765C68.4146 187.437 54.9454 187.358 46.6271 195.765Z" fill="#00CA9D"/>
<path d="M211.12 70.4714C216.155 70.4714 220.237 66.3895 220.237 61.3541C220.237 56.3188 216.155 52.2369 211.12 52.2369C206.084 52.2369 202.002 56.3188 202.002 61.3541C202.002 66.3895 206.084 70.4714 211.12 70.4714Z" fill="#00CA9D"/>
</g>
<defs>
<clipPath id="clip0">
<rect x="0.309814" width="260" height="260" fill="white"/>
</clipPath>
</defs>
</svg>
