<svg viewBox="0 0 2017 894" fill="none" xmlns="http://www.w3.org/2000/svg">
<path opacity="0.85" d="M1621.82 0H117.332H99.966H17.8743H0.508789V894H99.966H1381.86H1482.9L2016.49 402.774L1621.82 0Z" fill="#FFD503"/>
<path d="M469.608 513.504C469.608 516.043 469.507 518.227 469.304 520.056C469.203 521.782 469 523.306 468.696 524.627C468.392 525.845 467.986 526.912 467.479 527.826C466.973 528.74 466.162 529.807 465.047 531.026C463.932 532.143 461.752 533.616 458.509 535.444C455.367 537.273 451.464 539.05 446.801 540.777C442.24 542.402 436.969 543.774 430.989 544.891C425.11 546.008 418.724 546.567 411.831 546.567C398.35 546.567 386.186 544.485 375.341 540.32C364.495 536.155 355.271 529.959 347.668 521.732C340.066 513.402 334.238 503.042 330.183 490.649C326.129 478.257 324.102 463.833 324.102 447.378C324.102 430.618 326.332 415.737 330.792 402.735C335.251 389.733 341.485 378.814 349.493 369.977C357.501 361.14 367.079 354.436 378.229 349.865C389.481 345.294 401.847 343.008 415.328 343.008C420.802 343.008 426.073 343.465 431.141 344.38C436.209 345.294 440.872 346.513 445.129 348.036C449.487 349.458 453.39 351.134 456.836 353.064C460.283 354.994 462.665 356.67 463.982 358.092C465.401 359.413 466.364 360.53 466.871 361.444C467.378 362.359 467.783 363.527 468.088 364.949C468.392 366.371 468.594 368.047 468.696 369.977C468.898 371.907 469 374.294 469 377.138C469 380.185 468.898 382.775 468.696 384.908C468.493 387.042 468.138 388.768 467.631 390.089C467.125 391.409 466.516 392.374 465.807 392.984C465.097 393.593 464.286 393.898 463.374 393.898C461.854 393.898 459.928 393.035 457.596 391.308C455.265 389.479 452.224 387.499 448.474 385.366C444.825 383.131 440.415 381.15 435.246 379.423C430.178 377.595 424.096 376.681 417.001 376.681C409.196 376.681 402.202 378.306 396.019 381.556C389.937 384.705 384.717 389.276 380.358 395.269C376.101 401.161 372.857 408.322 370.627 416.753C368.397 425.183 367.282 434.681 367.282 445.245C367.282 456.824 368.448 466.88 370.779 475.413C373.212 483.844 376.608 490.802 380.966 496.287C385.426 501.772 390.748 505.886 396.931 508.628C403.215 511.269 410.26 512.59 418.065 512.59C425.16 512.59 431.293 511.777 436.462 510.152C441.632 508.425 446.041 506.546 449.69 504.514C453.441 502.483 456.482 500.655 458.813 499.029C461.246 497.404 463.121 496.592 464.438 496.592C465.452 496.592 466.263 496.795 466.871 497.201C467.479 497.607 467.986 498.42 468.392 499.639C468.797 500.858 469.101 502.585 469.304 504.819C469.507 506.952 469.608 509.847 469.608 513.504Z" fill="#3F3E40"/>
<path d="M633.208 468.861C633.208 480.441 631.687 491.005 628.646 500.553C625.605 510.101 620.993 518.329 614.81 525.236C608.627 532.143 600.873 537.476 591.548 541.234C582.222 544.993 571.326 546.872 558.858 546.872C546.796 546.872 536.305 545.196 527.385 541.844C518.465 538.492 511.065 533.616 505.186 527.217C499.307 520.817 494.949 512.945 492.111 503.6C489.272 494.255 487.853 483.59 487.853 471.604C487.853 460.024 489.374 449.46 492.415 439.912C495.557 430.262 500.22 422.035 506.403 415.229C512.586 408.322 520.289 402.989 529.513 399.231C538.839 395.472 549.735 393.593 562.203 393.593C574.367 393.593 584.908 395.269 593.828 398.621C602.748 401.872 610.097 406.697 615.875 413.096C621.754 419.495 626.112 427.367 628.95 436.712C631.789 446.057 633.208 456.774 633.208 468.861ZM593.828 470.385C593.828 463.681 593.271 457.535 592.156 451.949C591.142 446.261 589.368 441.334 586.834 437.169C584.3 433.005 580.904 429.754 576.647 427.418C572.491 425.082 567.22 423.914 560.835 423.914C555.158 423.914 550.192 424.98 545.934 427.113C541.677 429.145 538.18 432.192 535.443 436.255C532.706 440.217 530.628 445.042 529.209 450.73C527.892 456.317 527.233 462.716 527.233 469.928C527.233 476.632 527.79 482.828 528.905 488.516C530.02 494.103 531.794 498.979 534.227 503.143C536.761 507.308 540.157 510.558 544.414 512.894C548.671 515.129 553.942 516.247 560.226 516.247C566.004 516.247 571.022 515.231 575.279 513.199C579.536 511.066 583.033 508.019 585.77 504.057C588.507 500.096 590.534 495.322 591.852 489.735C593.169 484.047 593.828 477.597 593.828 470.385Z" fill="#3F3E40"/>
<path d="M750.738 414.924C750.738 418.581 750.637 421.577 750.434 423.914C750.231 426.25 749.927 428.078 749.522 429.399C749.116 430.719 748.559 431.634 747.849 432.141C747.241 432.649 746.43 432.903 745.416 432.903C744.606 432.903 743.693 432.751 742.68 432.446C741.666 432.04 740.5 431.634 739.183 431.227C737.966 430.821 736.598 430.465 735.077 430.161C733.557 429.754 731.885 429.551 730.06 429.551C727.931 429.551 725.803 430.008 723.674 430.923C721.545 431.735 719.316 433.056 716.984 434.884C714.754 436.712 712.372 439.15 709.838 442.197C707.405 445.245 704.77 449.003 701.932 453.472V538.187C701.932 539.203 701.628 540.117 701.02 540.93C700.411 541.641 699.347 542.25 697.827 542.758C696.407 543.266 694.482 543.621 692.049 543.824C689.616 544.129 686.525 544.282 682.774 544.282C679.024 544.282 675.932 544.129 673.499 543.824C671.067 543.621 669.09 543.266 667.57 542.758C666.151 542.25 665.137 541.641 664.529 540.93C663.921 540.117 663.617 539.203 663.617 538.187V402.278C663.617 401.262 663.87 400.399 664.377 399.688C664.884 398.875 665.796 398.215 667.114 397.707C668.431 397.199 670.104 396.844 672.131 396.641C674.26 396.336 676.895 396.183 680.037 396.183C683.281 396.183 685.967 396.336 688.096 396.641C690.224 396.844 691.846 397.199 692.961 397.707C694.177 398.215 695.039 398.875 695.546 399.688C696.053 400.399 696.306 401.262 696.306 402.278V419.19C699.854 414.112 703.199 409.947 706.341 406.697C709.483 403.345 712.473 400.704 715.312 398.774C718.15 396.844 720.988 395.523 723.826 394.812C726.664 394 729.502 393.593 732.341 393.593C733.658 393.593 735.077 393.695 736.598 393.898C738.118 394 739.689 394.253 741.311 394.66C742.933 394.965 744.352 395.371 745.568 395.879C746.785 396.285 747.646 396.742 748.153 397.25C748.761 397.758 749.167 398.317 749.37 398.926C749.674 399.535 749.927 400.399 750.13 401.516C750.333 402.532 750.485 404.106 750.586 406.239C750.687 408.373 750.738 411.268 750.738 414.924Z" fill="#3F3E40"/>
<path d="M854.584 524.779C854.584 529.248 854.28 532.702 853.672 535.14C853.165 537.476 852.456 539.152 851.543 540.168C850.631 541.082 849.263 541.945 847.438 542.758C845.715 543.469 843.637 544.078 841.204 544.586C838.873 545.196 836.288 545.653 833.45 545.958C830.713 546.262 827.926 546.415 825.088 546.415C817.485 546.415 810.897 545.45 805.322 543.52C799.747 541.59 795.135 538.644 791.486 534.683C787.837 530.62 785.151 525.541 783.428 519.446C781.704 513.352 780.843 506.14 780.843 497.81V428.18H764.574C762.648 428.18 761.178 427.012 760.165 424.676C759.151 422.238 758.644 418.225 758.644 412.639C758.644 409.693 758.746 407.204 758.948 405.173C759.252 403.141 759.658 401.567 760.165 400.45C760.672 399.231 761.28 398.367 761.989 397.859C762.8 397.352 763.712 397.098 764.726 397.098H780.843V366.777C780.843 365.761 781.096 364.847 781.603 364.035C782.211 363.222 783.225 362.562 784.644 362.054C786.164 361.444 788.141 361.038 790.574 360.835C793.108 360.53 796.199 360.378 799.848 360.378C803.599 360.378 806.69 360.53 809.123 360.835C811.657 361.038 813.634 361.444 815.053 362.054C816.472 362.562 817.485 363.222 818.094 364.035C818.702 364.847 819.006 365.761 819.006 366.777V397.098H848.502C849.516 397.098 850.378 397.352 851.087 397.859C851.898 398.367 852.557 399.231 853.064 400.45C853.571 401.567 853.925 403.141 854.128 405.173C854.432 407.204 854.584 409.693 854.584 412.639C854.584 418.225 854.077 422.238 853.064 424.676C852.05 427.012 850.58 428.18 848.655 428.18H819.006V492.021C819.006 499.436 820.172 505.022 822.503 508.781C824.834 512.437 828.99 514.266 834.971 514.266C836.998 514.266 838.822 514.113 840.444 513.809C842.066 513.402 843.485 512.996 844.701 512.59C846.019 512.082 847.083 511.676 847.894 511.371C848.807 510.965 849.618 510.761 850.327 510.761C850.935 510.761 851.493 510.965 852 511.371C852.608 511.676 853.064 512.387 853.368 513.504C853.672 514.52 853.925 515.942 854.128 517.77C854.432 519.599 854.584 521.935 854.584 524.779Z" fill="#3F3E40"/>
<path d="M1003.59 466.271C1003.59 470.944 1002.52 474.397 1000.39 476.632C998.368 478.866 995.529 479.984 991.88 479.984H909.32C909.32 485.774 909.979 491.056 911.297 495.83C912.716 500.502 914.895 504.514 917.835 507.866C920.876 511.117 924.727 513.606 929.39 515.332C934.154 517.059 939.83 517.923 946.419 517.923C953.109 517.923 958.988 517.465 964.056 516.551C969.124 515.535 973.483 514.469 977.132 513.352C980.882 512.133 983.974 511.066 986.407 510.152C988.839 509.136 990.816 508.628 992.336 508.628C993.249 508.628 994.009 508.831 994.617 509.238C995.225 509.542 995.732 510.152 996.138 511.066C996.543 511.98 996.796 513.301 996.898 515.028C997.101 516.653 997.202 518.735 997.202 521.275C997.202 523.509 997.151 525.439 997.05 527.064C996.948 528.588 996.796 529.909 996.594 531.026C996.391 532.143 996.087 533.108 995.681 533.921C995.276 534.632 994.718 535.343 994.009 536.054C993.401 536.765 991.627 537.73 988.687 538.949C985.748 540.168 981.997 541.387 977.436 542.606C972.875 543.723 967.655 544.688 961.776 545.5C955.897 546.415 949.612 546.872 942.922 546.872C930.86 546.872 920.267 545.348 911.145 542.301C902.123 539.254 894.572 534.632 888.49 528.436C882.408 522.24 877.847 514.418 874.806 504.972C871.867 495.525 870.397 484.453 870.397 471.756C870.397 459.669 871.968 448.8 875.11 439.15C878.253 429.399 882.814 421.171 888.794 414.467C894.775 407.662 902.022 402.481 910.537 398.926C919.152 395.371 928.833 393.593 939.577 393.593C950.93 393.593 960.61 395.269 968.618 398.621C976.727 401.973 983.366 406.646 988.535 412.639C993.705 418.53 997.506 425.539 999.939 433.665C1002.37 441.791 1003.59 450.628 1003.59 460.176V466.271ZM966.489 455.301C966.793 444.534 964.614 436.103 959.951 430.008C955.39 423.812 948.294 420.714 938.665 420.714C933.799 420.714 929.542 421.628 925.893 423.457C922.345 425.285 919.355 427.774 916.922 430.923C914.591 433.97 912.767 437.627 911.449 441.893C910.233 446.057 909.523 450.527 909.32 455.301H966.489Z" fill="#3F3E40"/>
<path d="M1148.18 535.444C1148.99 537.171 1149.35 538.593 1149.25 539.711C1149.25 540.828 1148.54 541.742 1147.12 542.453C1145.7 543.164 1143.52 543.621 1140.58 543.824C1137.64 544.129 1133.74 544.282 1128.87 544.282C1124.31 544.282 1120.61 544.18 1117.77 543.977C1115.04 543.875 1112.86 543.621 1111.24 543.215C1109.71 542.707 1108.55 542.148 1107.74 541.539C1107.03 540.828 1106.47 539.965 1106.07 538.949L1080.98 490.649L1055.89 538.949C1055.49 539.965 1054.93 540.828 1054.22 541.539C1053.51 542.148 1052.39 542.707 1050.87 543.215C1049.45 543.621 1047.43 543.875 1044.79 543.977C1042.16 544.18 1038.71 544.282 1034.45 544.282C1029.99 544.282 1026.45 544.129 1023.81 543.824C1021.17 543.621 1019.25 543.164 1018.03 542.453C1016.82 541.742 1016.16 540.828 1016.06 539.711C1016.06 538.593 1016.51 537.171 1017.42 535.444L1054.98 468.556L1020.31 405.782C1019.4 403.954 1018.89 402.43 1018.79 401.211C1018.79 399.891 1019.45 398.875 1020.77 398.164C1022.09 397.453 1024.16 396.945 1027 396.641C1029.94 396.336 1033.9 396.183 1038.86 396.183C1043.32 396.183 1046.87 396.285 1049.51 396.488C1052.24 396.59 1054.37 396.793 1055.89 397.098C1057.41 397.402 1058.53 397.91 1059.24 398.621C1059.95 399.231 1060.55 400.043 1061.06 401.059L1085.24 446.464L1109.26 401.059C1109.56 400.246 1110.02 399.535 1110.63 398.926C1111.24 398.317 1112.2 397.809 1113.52 397.402C1114.83 396.996 1116.61 396.691 1118.84 396.488C1121.17 396.285 1124.31 396.183 1128.26 396.183C1132.72 396.183 1136.27 396.285 1138.91 396.488C1141.64 396.691 1143.57 397.148 1144.68 397.859C1145.9 398.57 1146.46 399.586 1146.36 400.907C1146.36 402.126 1145.8 403.751 1144.68 405.782L1110.93 467.49L1148.18 535.444Z" fill="#3F3E40"/>
</svg>
