<svg viewBox="0 0 118 36" fill="none" xmlns="http://www.w3.org/2000/svg">
<g clip-path="url(#clip0)">
<path fill-rule="evenodd" clip-rule="evenodd" d="M27.5094 1.30115H23.814L33.9188 18.2003L24.0885 35.0744H27.7558L37.5966 18.1791L27.5094 1.30115Z" fill="#43CE5F"/>
<path fill-rule="evenodd" clip-rule="evenodd" d="M19.2831 1.30115H15.5872L25.692 18.2003L15.8621 35.0744H19.5329L29.3737 18.1791L19.2831 1.30115Z" fill="#FE9D00"/>
<path fill-rule="evenodd" clip-rule="evenodd" d="M11.4892 1.30115H8.93417H7.7937L8.37433 2.27401L17.8808 18.1717L8.50465 34.2706L8.08899 34.9824H8.91642L8.95149 35.0462H11.7178L11.7568 34.9824L21.5585 18.1509L11.4892 1.30115Z" fill="#43CE5F"/>
<path fill-rule="evenodd" clip-rule="evenodd" d="M7.15588 8.24084H4.52683H3.46387L4.00596 9.14735L9.36971 18.12L4.08 27.2024L3.61541 27.9996H4.54069H7.28621L13.0513 18.0992L7.15588 8.24084Z" fill="#43CE5F"/>
<path fill-rule="evenodd" clip-rule="evenodd" d="M3.68855 15.1807H0.869423H0L0.443371 15.9211L1.81245 18.2129L0.464587 20.5256L0.154574 21.0582H0.770703H3.81888L5.49061 18.1917L3.68855 15.1807Z" fill="#43CE5F"/>
</g>
<g clip-path="url(#clip1)">
<path fill-rule="evenodd" clip-rule="evenodd" d="M99.8996 26.8729L97.1823 32.5782C96.7861 33.3386 96.296 33.7185 95.7119 33.7168C95.1273 33.7155 94.6394 33.3125 94.2471 32.5075L91.5159 26.8516L91.4934 35.8434L88.5582 35.836L88.5958 20.7728L91.489 20.7798L95.7119 29.4857L99.9568 20.801L102.85 20.8084L102.813 35.8716L99.8771 35.8642L99.8996 26.8729ZM80.6801 27.7768C81.2993 27.7785 81.8102 27.5647 82.2124 27.1353C82.6151 26.7063 82.8169 26.1711 82.8186 25.5287C82.8199 24.8872 82.6277 24.3689 82.2414 23.9725C81.8552 23.5769 81.3382 23.3778 80.6909 23.3761L79.234 23.3726C78.3606 23.3705 77.9233 23.8137 77.9212 24.702L77.9134 27.7698L80.6801 27.7768ZM86.3405 35.8304L82.9407 35.8221L80.019 30.2291L77.9078 30.2243L77.8935 35.8095L74.9583 35.8017L74.9877 23.9755C74.9903 22.8474 75.2527 22.0263 75.7753 21.5128C76.2971 20.9992 77.1708 20.7442 78.3957 20.7472L80.8875 20.7537C82.3796 20.7568 83.5646 21.2148 84.4423 22.1269C85.3199 23.0386 85.7572 24.1928 85.7538 25.589C85.7512 26.6048 85.4849 27.4818 84.9554 28.2209C84.4254 28.96 83.7729 29.4701 82.9979 29.7503L86.3405 35.8304ZM68.319 30.708L66.5598 24.7372L64.6863 30.6984L68.319 30.708ZM72.8887 35.7965L69.8266 35.7892L68.9884 33.185L63.9411 33.172L63.1111 35.7722L60.0491 35.7644L64.8984 21.9829C65.1106 21.5041 65.347 21.1727 65.6081 20.9901C65.8692 20.808 66.1896 20.7169 66.5698 20.7177C66.9499 20.7186 67.256 20.804 67.4877 20.9736C67.7197 21.1437 67.9263 21.4824 68.1081 21.9907L72.8887 35.7965ZM58.961 23.3219L53.6605 23.3084C53.0409 23.3071 52.6075 23.426 52.3607 23.665C52.1139 23.9044 51.9896 24.3199 51.9883 24.912L51.9831 27.0069L57.4945 27.0208L57.2771 29.6436L51.9762 29.6301L51.961 35.7445L49.0259 35.7371L49.0557 23.7413C49.0583 22.6275 49.3034 21.8381 49.7901 21.3735C50.2772 20.9094 51.1115 20.6791 52.2944 20.6822L58.9675 20.6986L58.961 23.3219ZM45.4958 32.8823C45.7131 33.1017 45.8214 33.5641 45.8196 34.2693C45.8179 34.9746 45.7075 35.44 45.4888 35.6651C45.2698 35.8893 44.8086 36.0017 44.1046 36C43.4006 35.9978 42.936 35.8837 42.7117 35.6577C42.487 35.4318 42.3757 34.9659 42.3775 34.2607C42.3792 33.5554 42.4931 33.0939 42.7186 32.8758C42.9442 32.658 43.4092 32.5496 44.1133 32.5513C44.8173 32.5531 45.278 32.6637 45.4958 32.8823ZM117.725 3.08207L113.692 3.07209L113.661 15.512L110.725 15.5047L110.756 3.06428L106.744 3.05474L106.75 0.43108L117.731 0.458839L117.725 3.08207ZM102.715 9.64535L105.439 9.65229C105.434 11.5707 104.952 13.0432 103.993 14.0699C103.032 15.0978 101.679 15.6088 99.9338 15.6049C96.0907 15.5949 94.1744 13.3265 94.1856 8.7987L94.1891 7.52959C94.1977 3.96168 95.1888 1.72795 97.1619 0.83055C97.9369 0.465779 98.8739 0.284477 99.972 0.287514C101.577 0.291417 102.882 0.735562 103.886 1.61908C104.89 2.50347 105.391 3.77778 105.386 5.44202L102.641 5.43508C102.488 4.60231 102.215 3.97426 101.822 3.55007C101.429 3.12588 100.81 2.91291 99.9655 2.91074C98.98 2.90814 98.247 3.21696 97.7668 3.83633C97.4282 4.27267 97.229 5.01956 97.1701 6.07744C97.1407 6.41576 97.126 6.87421 97.1242 7.45238L97.1212 8.764C97.1173 10.3857 97.3394 11.4935 97.7889 12.0873C98.2517 12.6806 98.9722 12.9786 99.9512 12.9812C100.929 12.9838 101.606 12.7136 101.981 12.1714C102.355 11.6297 102.599 10.7874 102.715 9.64535ZM92.2264 15.4583L86.9046 15.4448C85.2151 15.4409 84.0296 15.1451 83.3486 14.5578C82.6671 13.9714 82.3285 12.937 82.3319 11.4562L82.3596 0.369924L92.2641 0.395081L92.2576 3.01831L85.2883 3.00096L85.2797 6.53373L90.1576 6.54631L89.9403 9.16911L85.2732 9.15739L85.268 11.2519C85.2667 11.8444 85.3992 12.2538 85.6659 12.4798C85.933 12.7066 86.4184 12.8207 87.1224 12.822L92.2329 12.835L92.2264 15.4583ZM74.2331 7.37388C74.8522 7.37561 75.3631 7.16178 75.7654 6.73238C76.1676 6.30342 76.3698 5.76819 76.3715 5.12583C76.3733 4.48433 76.1806 3.96559 75.7944 3.56959C75.4082 3.17359 74.8912 2.97494 74.2439 2.9732L72.7865 2.96973C71.9136 2.96756 71.4763 3.41041 71.4741 4.29913L71.4667 7.36694L74.2331 7.37388ZM79.8934 15.4275L76.4936 15.4188L73.5719 9.82621L71.4603 9.82144L71.4464 15.4062L68.5112 15.3988L68.5407 3.57262C68.5433 2.44448 68.8057 1.62342 69.3283 1.10988C69.85 0.596334 70.7238 0.341297 71.9487 0.344333L74.4404 0.350839C75.9325 0.353876 77.1176 0.8119 77.9952 1.72404C78.8729 2.63576 79.3102 3.78992 79.3067 5.18612C79.3041 6.20192 79.0378 7.07894 78.5083 7.81802C77.9783 8.55711 77.3258 9.06718 76.5508 9.34737L79.8934 15.4275ZM65.0058 15.3902L62.0702 15.3828L62.1079 0.319611L65.0435 0.326985L65.0058 15.3902ZM55.934 11.8132C56.2021 11.4896 56.3761 11.042 56.4549 10.4712C56.5333 9.89995 56.5744 9.00819 56.5775 7.79547C56.5805 6.58231 56.5437 5.704 56.4679 5.16053C56.3917 4.61749 56.2202 4.18376 55.954 3.85845C55.4487 3.23691 54.7169 2.92462 53.7601 2.92202L51.1202 2.91552L51.0994 11.251C51.0981 11.8153 51.2873 12.2035 51.667 12.416C52.0463 12.6286 52.7252 12.7361 53.7038 12.7383C54.6823 12.7409 55.4257 12.4325 55.934 11.8132ZM59.3732 4.58626C59.4698 5.37653 59.5161 6.44178 59.5131 7.78115L59.5299 9.41026C59.4711 10.4399 59.3425 11.307 59.1437 12.0114C58.9446 12.7166 58.5557 13.3573 57.9773 13.9341C57.0169 14.8909 55.6223 15.3667 53.7925 15.362C51.6385 15.3568 50.1607 15.0675 49.3597 14.4941C48.5587 13.9211 48.1599 12.8871 48.1638 11.392L48.1915 0.284912L54.0411 0.299226C55.7305 0.303563 57.0524 0.786309 58.0076 1.7479C58.7796 2.52559 59.2351 3.472 59.3732 4.58626Z" fill="white"/>
</g>
<defs>
<clipPath id="clip0">
<rect width="37.6364" height="34.3636" fill="white" transform="translate(0 0.818115)"/>
</clipPath>
<clipPath id="clip1">
<rect width="76.0909" height="36" fill="white" transform="translate(41.7273)"/>
</clipPath>
</defs>
</svg>
