<?xml version="1.0" standalone="no"?>
<!DOCTYPE svg PUBLIC "-//W3C//DTD SVG 20010904//EN"
 "http://www.w3.org/TR/2001/REC-SVG-20010904/DTD/svg10.dtd">
<svg version="1.0" xmlns="http://www.w3.org/2000/svg"
 width="512.000000pt" height="512.000000pt" viewBox="0 0 512.000000 512.000000"
 preserveAspectRatio="xMidYMid meet">
<metadata>
Created by potrace 1.11, written by Peter Selinger 2001-2013
</metadata>
<g transform="translate(0.000000,512.000000) scale(0.100000,-0.100000)"
fill="#000000" stroke="none">
<path d="M0 2560 l0 -2560 2560 0 2560 0 0 2560 0 2560 -2560 0 -2560 0 0
-2560z m2637 2255 c76 -50 83 -157 14 -219 -20 -18 -21 -28 -21 -243 l0 -224
-62 3 -63 3 -3 220 c-2 215 -3 220 -26 245 -33 35 -46 64 -46 100 0 106 119
172 207 115z m-867 -165 c30 0 79 -48 91 -91 9 -29 9 -49 2 -74 -10 -32 -5
-50 73 -236 46 -110 84 -204 84 -208 0 -7 -121 -64 -126 -58 -1 1 -38 90 -82
197 -45 107 -87 198 -94 201 -97 45 -118 70 -118 141 0 42 17 80 50 105 20 17
72 32 88 27 8 -2 22 -4 32 -4z m1661 -18 c37 -21 59 -63 59 -112 0 -52 -24
-93 -66 -116 -29 -16 -41 -39 -115 -216 -45 -109 -85 -198 -89 -198 -4 0 -33
11 -64 25 -48 21 -56 29 -51 45 3 11 38 95 76 187 l70 168 -17 52 c-15 43 -16
58 -6 90 27 89 120 123 203 75z m-1158 -290 c13 -14 57 -186 57 -222 0 -9
-128 -35 -135 -28 -10 10 -45 203 -39 220 15 48 85 66 117 30z m691 -1 c24
-26 24 -47 1 -162 l-18 -96 -65 14 c-36 7 -68 15 -70 18 -10 10 34 199 51 221
23 30 76 32 101 5z m-1846 -148 c35 -22 62 -73 62 -118 0 -38 7 -47 162 -202
l163 -163 -50 -50 -50 -50 -170 170 c-94 94 -174 168 -177 165 -13 -13 -85 16
-113 45 -26 27 -30 39 -30 90 0 51 4 63 30 90 48 50 117 59 173 23z m3040 0
c58 -37 78 -121 42 -180 -27 -44 -63 -65 -115 -67 -44 -1 -48 -4 -205 -161
l-160 -160 -50 50 -50 50 164 165 c152 154 164 168 169 209 12 97 122 147 205
94z m-2543 -99 c14 -6 135 -174 135 -188 0 -6 -102 -76 -111 -76 -3 0 -32 39
-64 87 -65 98 -73 134 -36 165 24 19 48 22 76 12z m1983 -10 c40 -28 30 -73
-38 -174 l-60 -89 -59 41 -60 41 60 88 c75 112 105 130 157 93z m-985 -278
c77 -32 112 -114 82 -191 -43 -115 -201 -128 -265 -23 -74 121 53 269 183 214z
m-433 -213 c25 -32 20 -69 -12 -95 -62 -54 -141 31 -92 100 23 33 76 30 104
-5z m870 0 c25 -32 20 -69 -12 -95 -44 -38 -108 -7 -108 52 0 66 79 94 120 43z
m-1833 -44 c51 -34 93 -64 93 -67 0 -2 -16 -31 -36 -63 l-35 -59 -92 61 c-51
34 -98 69 -104 77 -19 24 -16 69 7 92 33 33 67 25 167 -41z m2873 41 c27 -27
26 -74 -2 -100 -28 -26 -178 -124 -182 -119 -16 20 -66 99 -68 107 -5 18 173
132 205 132 15 0 36 -9 47 -20z m-3437 -74 c41 -17 66 -45 82 -92 12 -35 17
-38 186 -109 96 -40 191 -79 211 -88 l37 -15 -26 -65 c-23 -59 -28 -65 -47
-57 -11 4 -109 45 -216 90 -181 76 -200 82 -261 80 -53 0 -71 3 -92 21 -82 64
-73 184 16 228 49 25 67 26 110 7z m3934 -11 c60 -39 80 -123 43 -182 -27 -45
-69 -64 -138 -62 -50 1 -80 -9 -251 -80 -106 -45 -197 -81 -200 -81 -4 0 -18
29 -32 64 l-25 63 195 81 c145 59 197 85 199 99 19 100 127 151 209 98z
m-2739 -35 c100 -61 95 -202 -9 -258 -164 -88 -305 152 -150 255 44 29 113 31
159 3z m1598 -22 c76 -76 57 -195 -39 -239 -52 -23 -79 -24 -124 -3 -108 52
-118 197 -17 265 23 16 42 19 87 16 51 -3 63 -8 93 -39z m-816 -326 c66 -33
92 -121 56 -190 -35 -67 -127 -92 -193 -52 -155 94 -26 324 137 242z m-460
-74 c25 -28 26 -62 0 -88 -41 -41 -120 -12 -120 45 0 58 79 87 120 43z m880 0
c11 -12 20 -31 20 -43 0 -32 -36 -65 -70 -65 -37 0 -70 31 -70 65 0 58 79 87
120 43z m-1446 -9 c17 -14 26 -30 26 -50 0 -65 -80 -93 -119 -43 -27 35 -26
59 4 89 30 30 54 31 89 4z m2000 0 c50 -40 21 -119 -44 -119 -35 0 -70 34 -70
67 0 29 42 73 68 73 11 0 31 -9 46 -21z m-2656 -83 c62 -13 115 -26 118 -29 4
-4 -14 -126 -21 -135 -4 -5 -212 40 -241 53 -52 23 -53 104 -2 125 30 11 16
13 146 -14z m3386 13 c34 -16 51 -58 35 -91 -15 -33 -34 -41 -152 -64 -81 -15
-100 -16 -107 -5 -6 11 -20 88 -21 118 0 6 150 42 213 52 4 1 18 -4 32 -10z
m-3883 -269 c10 0 36 -16 58 -35 l38 -35 242 0 241 0 0 -60 0 -60 -241 0 -242
0 -37 -34 c-50 -45 -98 -53 -153 -27 -53 25 -77 65 -77 125 0 36 6 52 31 81
30 34 81 57 107 49 8 -2 22 -4 33 -4z m1082 -22 c40 -28 71 -99 62 -141 -10
-46 -39 -89 -73 -109 -38 -23 -115 -23 -152 -1 -39 23 -70 82 -70 134 0 119
135 186 233 117z m662 8 c54 -36 73 -122 41 -184 -47 -92 -184 -95 -242 -6
-42 63 -10 168 60 200 38 17 107 12 141 -10z m872 7 c96 -45 98 -199 4 -248
-119 -61 -254 68 -194 185 37 72 117 98 190 63z m682 -11 c92 -68 93 -189 2
-249 -96 -64 -231 10 -231 126 0 113 141 189 229 123z m1029 1 c68 -42 81
-146 26 -204 -56 -58 -143 -58 -199 1 l-29 30 -228 0 -228 0 0 60 0 60 227 0
227 0 32 31 c49 48 117 57 172 22z m-3717 -422 l15 -69 -105 -21 c-141 -28
-165 -27 -190 5 -51 65 -17 99 124 129 61 13 117 23 126 24 11 1 19 -17 30
-68z m3145 49 c55 -11 109 -22 122 -25 13 -3 30 -20 39 -40 16 -34 16 -36 -4
-63 -11 -15 -31 -29 -44 -31 -26 -4 -211 28 -229 39 -8 5 -8 25 1 73 7 37 13
67 15 67 1 0 46 -9 100 -20z m-1576 -68 c43 -21 73 -71 73 -122 0 -106 -120
-175 -210 -120 -155 94 -26 324 137 242z m-1026 -63 c17 -14 26 -30 26 -50 0
-65 -80 -93 -119 -43 -27 35 -26 59 4 89 30 30 54 31 89 4z m2000 0 c50 -40
21 -119 -44 -119 -35 0 -70 34 -70 67 0 29 42 73 68 73 11 0 31 -9 46 -21z
m-1434 -19 c26 -26 25 -60 0 -88 -41 -44 -120 -15 -120 43 0 34 33 65 70 65
17 0 39 -9 50 -20z m880 -2 c11 -12 20 -31 20 -43 0 -32 -36 -65 -70 -65 -37
0 -70 31 -70 65 0 58 79 87 120 43z m-1902 -182 c14 -32 21 -60 16 -65 -5 -4
-103 -47 -219 -95 -187 -77 -212 -90 -225 -118 -9 -17 -31 -39 -50 -50 -92
-49 -200 15 -200 117 0 103 104 165 202 120 33 -15 36 -14 233 69 110 46 204
83 209 82 5 -1 21 -28 34 -60z m3082 -31 c183 -76 185 -76 218 -61 97 47 202
-17 202 -121 0 -66 -67 -133 -133 -133 -44 0 -96 29 -120 67 -19 30 -44 44
-202 109 -99 41 -190 78 -202 83 l-21 10 26 65 c15 36 32 64 37 62 6 -2 93
-39 195 -81z m-2390 -43 c19 -9 45 -33 58 -52 20 -29 23 -44 20 -88 -8 -88
-60 -136 -150 -137 -110 0 -178 115 -126 214 39 75 122 101 198 63z m1578 -2
c100 -61 95 -211 -8 -262 -69 -35 -143 -14 -194 54 -27 38 -27 118 0 156 53
70 136 92 202 52z m-2140 -168 c12 -20 29 -47 38 -59 16 -22 14 -23 -91 -93
-59 -38 -118 -70 -131 -70 -51 0 -83 71 -51 113 11 15 195 145 207 146 3 1 15
-16 28 -37z m2715 -33 c51 -34 98 -69 105 -77 30 -38 -5 -112 -54 -112 -18 0
-186 101 -218 131 -8 7 59 119 71 119 2 0 45 -28 96 -61z m-1813 -96 c50 -64
-29 -143 -93 -93 -52 41 -27 120 39 120 23 0 38 -7 54 -27z m873 -5 c17 -23
18 -31 8 -57 -7 -16 -26 -35 -42 -42 -26 -10 -34 -9 -57 8 -34 25 -41 76 -16
104 26 29 81 22 107 -13z m-421 -24 c130 -66 81 -274 -64 -274 -56 0 -105 22
-133 58 -15 20 -20 43 -20 89 0 59 2 65 36 99 53 53 113 62 181 28z m-1155
-94 l49 -49 -173 -173 c-163 -163 -173 -175 -173 -211 0 -129 -147 -189 -235
-97 -26 28 -30 38 -30 91 0 57 2 63 37 94 25 23 50 36 81 40 41 6 56 19 218
181 96 96 174 174 175 174 1 0 23 -22 51 -50z m2405 -137 c158 -158 169 -167
208 -169 153 -8 177 -222 29 -264 -76 -22 -157 33 -166 113 -5 42 -14 54 -179
218 l-174 174 47 47 c26 27 52 48 58 48 5 0 85 -75 177 -167z m-2164 -58 c28
-20 52 -38 52 -41 0 -2 -31 -51 -69 -108 -74 -109 -99 -128 -144 -105 -57 31
-51 73 28 192 36 53 69 97 73 97 4 0 31 -16 60 -35z m1836 -65 c76 -112 83
-147 35 -182 -46 -35 -72 -18 -150 99 -39 58 -68 107 -65 110 10 10 101 72
107 72 3 1 36 -44 73 -99z m-1579 -75 c35 -14 59 -30 57 -37 -2 -7 -43 -109
-92 -225 -82 -198 -88 -215 -78 -248 22 -71 -23 -148 -97 -165 -88 -20 -165
40 -165 128 0 24 7 56 16 72 18 30 62 60 89 60 18 0 35 36 136 282 35 87 66
158 69 158 3 0 32 -11 65 -25z m1279 -83 c122 -300 135 -327 169 -345 86 -47
91 -181 8 -230 -56 -33 -124 -26 -166 16 -43 43 -53 93 -31 152 l17 43 -80
194 c-44 107 -81 199 -83 206 -3 12 89 59 117 61 6 0 28 -43 49 -97z m-966 -9
c23 -3 44 -9 46 -12 3 -3 -7 -60 -20 -126 -18 -91 -29 -124 -45 -137 -24 -20
-51 -23 -79 -8 -40 21 -42 44 -20 158 29 148 28 145 53 138 12 -4 41 -9 65
-13z m662 -40 c7 -32 18 -87 25 -122 18 -89 -2 -131 -63 -131 -44 0 -61 30
-86 155 -13 66 -22 122 -19 125 4 4 48 14 125 29 4 0 12 -25 18 -56z m-320
-226 c0 -235 1 -245 21 -263 67 -60 64 -157 -7 -213 -41 -33 -86 -36 -138 -12
-89 43 -102 157 -27 225 20 18 21 28 21 256 0 130 3 240 7 243 3 4 33 7 65 7
l58 0 0 -243z"/>
</g>
</svg>
