<svg viewBox="0 0 30 30" fill="none" xmlns="http://www.w3.org/2000/svg">
<g opacity="0.9">
<path d="M4.28571 21.4287C1.92268 21.4287 0 23.3514 0 25.7144C0 28.0775 1.92268 30.0001 4.28571 30.0001C6.64875 30.0001 8.57143 28.0775 8.57143 25.7144C8.57143 23.3514 6.64875 21.4287 4.28571 21.4287Z" fill="white"/>
<path d="M15.0001 21.4287C12.637 21.4287 10.7144 23.3514 10.7144 25.7144C10.7144 28.0775 12.637 30.0001 15.0001 30.0001C17.3631 30.0001 19.2858 28.0775 19.2858 25.7144C19.2858 23.3514 17.3631 21.4287 15.0001 21.4287Z" fill="white"/>
<path d="M25.7144 21.4287C23.3514 21.4287 21.4287 23.3514 21.4287 25.7144C21.4287 28.0775 23.3514 30.0001 25.7144 30.0001C28.0775 30.0001 30.0001 28.0775 30.0001 25.7144C30.0001 23.3514 28.0775 21.4287 25.7144 21.4287Z" fill="white"/>
<path d="M4.28571 10.7144C1.92268 10.7144 0 12.637 0 15.0001C0 17.3631 1.92268 19.2858 4.28571 19.2858C6.64875 19.2858 8.57143 17.3631 8.57143 15.0001C8.57143 12.637 6.64875 10.7144 4.28571 10.7144Z" fill="white"/>
<path d="M15.0001 10.7144C12.637 10.7144 10.7144 12.637 10.7144 15.0001C10.7144 17.3631 12.637 19.2858 15.0001 19.2858C17.3631 19.2858 19.2858 17.3631 19.2858 15.0001C19.2858 12.637 17.3631 10.7144 15.0001 10.7144Z" fill="white"/>
<path d="M25.7144 10.7144C23.3514 10.7144 21.4287 12.637 21.4287 15.0001C21.4287 17.3631 23.3514 19.2858 25.7144 19.2858C28.0775 19.2858 30.0001 17.3631 30.0001 15.0001C30.0001 12.637 28.0775 10.7144 25.7144 10.7144Z" fill="white"/>
<path d="M4.28571 0C1.92268 0 0 1.92268 0 4.28571C0 6.64875 1.92268 8.57143 4.28571 8.57143C6.64875 8.57143 8.57143 6.64875 8.57143 4.28571C8.57143 1.92268 6.64875 0 4.28571 0Z" fill="white"/>
<path d="M15.0001 0C12.637 0 10.7144 1.92268 10.7144 4.28571C10.7144 6.64875 12.637 8.57143 15.0001 8.57143C17.3631 8.57143 19.2858 6.64875 19.2858 4.28571C19.2858 1.92268 17.3631 0 15.0001 0Z" fill="white"/>
<path d="M25.7144 8.57143C28.0775 8.57143 30.0001 6.64875 30.0001 4.28571C30.0001 1.92268 28.0775 0 25.7144 0C23.3514 0 21.4287 1.92268 21.4287 4.28571C21.4287 6.64875 23.3514 8.57143 25.7144 8.57143Z" fill="white"/>
</g>
</svg>
