<svg xmlns="http://www.w3.org/2000/svg" viewBox="0 0 40 33">
    <g fill-rule="evenodd">
        <path d="M15.223 3.992L19.248 5.5V7.22c.235-.02.47-.028.713-.028.242 0 .478.007.713.028V.777c0-.394-.32-.713-.713-.713-.394 0-.713.32-.713.713v.98l-4.025 1.508c-.152.056-.253.201-.253.364 0 .162.101.307.253.363zM19.148 13.866c.489-.34 1.137-.34 1.626 0l5.734 4.02h3.434v-.713c0-.393-.32-.712-.713-.712h-2.852c-.394 0-.713-.32-.713-.713 0-.394.32-.713.713-.713h.677c-.366-3.643-3.432-6.417-7.094-6.417-3.661 0-6.727 2.774-7.093 6.417h.678c.394 0 .713.319.713.713 0 .393-.32.713-.713.713h-2.852c-.393 0-.712.319-.712.712v.713h3.433l5.734-4.02zM19.248 22.877v7.129h1.426v-7.13c0-.393-.32-.712-.713-.712-.394 0-.713.319-.713.713zM39.21 31.431H.712c-.394 0-.713.32-.713.713 0 .394.32.713.713.713h38.496c.394 0 .713-.319.713-.713 0-.393-.32-.713-.713-.713zM25.664 24.302v5.704h1.426v-5.704c0-.393-.32-.712-.713-.712-.394 0-.713.319-.713.712zM12.832 24.302v5.704h1.426v-5.704c0-.393-.32-.712-.713-.712-.394 0-.713.319-.713.712z"/>
        <path d="M30.654 30.006v-7.1c0-.233-.113-.451-.304-.585l-10.395-7.286L9.571 22.32c-.19.134-.303.352-.303.584v7.1h2.138v-5.703c0-1.18.958-2.138 2.139-2.138 1.181 0 2.139.957 2.139 2.138v5.704h2.138v-7.13c0-1.18.958-2.138 2.139-2.138 1.181 0 2.139.957 2.139 2.139v7.129h2.138v-5.704c0-1.18.958-2.138 2.14-2.138 1.18 0 2.138.957 2.138 2.138v5.704h2.138z"/>
        <path fill-rule="nonzero" d="M1.426 30.006h6.416v-7.102c0-.696.34-1.35.91-1.75l2.628-1.842H1.426c-.394 0-.713.32-.713.713v9.268c0 .393.32.713.713.713zm3.564-7.842c0-.394.32-.713.713-.713.394 0 .713.319.713.713v1.426c0 .393-.32.712-.713.712-.394 0-.713-.319-.713-.712v-1.426zm0 4.277c0-.394.32-.713.713-.713.394 0 .713.32.713.713v1.426c0 .394-.32.713-.713.713-.394 0-.713-.32-.713-.713V26.44zM2.14 22.164c0-.394.319-.713.713-.713.393 0 .712.319.712.713v1.426c0 .393-.319.712-.712.712-.394 0-.713-.319-.713-.712v-1.426zm0 4.277c0-.394.319-.713.713-.713.393 0 .712.32.712.713v1.426c0 .394-.319.713-.712.713-.394 0-.713-.32-.713-.713V26.44zM38.496 30.006c.394 0 .713-.32.713-.713v-9.268c0-.394-.319-.713-.713-.713h-9.955l2.628 1.842c.571.4.911 1.054.911 1.751v7.1h6.416zm-2.138-7.842c0-.394.319-.713.712-.713.394 0 .713.319.713.713v1.426c0 .393-.319.712-.713.712-.393 0-.712-.319-.712-.712v-1.426zm0 4.277c0-.394.319-.713.712-.713.394 0 .713.32.713.713v1.426c0 .394-.319.713-.713.713-.393 0-.712-.32-.712-.713V26.44zm-2.852-4.277c0-.394.32-.713.713-.713.394 0 .713.319.713.713v1.426c0 .393-.32.712-.713.712-.394 0-.713-.319-.713-.712v-1.426zm0 4.277c0-.394.32-.713.713-.713.394 0 .713.32.713.713v1.426c0 .394-.32.713-.713.713-.394 0-.713-.32-.713-.713V26.44z"/>
    </g>
</svg>
