<svg xmlns="http://www.w3.org/2000/svg" viewBox="0 0 30 31">
    <g fill-rule="evenodd">
        <path fill-rule="nonzero" d="M9.804 15.826c.381-.079.78-.252 1.156-.524 1.082-.782 1.562-2.067 1.072-2.871-.534-.875-1.993-.816-3.114.18-1.073.925-1.302 1.893-1.302 2.91 0 .718.23 2 1.634 3.115.663-.513 1.453-.934 2.35-1.238l.011-.005c-.689-.287-1.587-.854-1.807-1.567zm-.174-2.473c0-.3.24-.542.535-.542.295 0 .535.243.535.543 0 .3-.24.542-.535.542-.295 0-.535-.242-.535-.543zM22.337 15.521c-.003-1.017-.23-1.985-1.304-2.91-1.12-.995-2.58-1.056-3.114-.18-.49.804-.011 2.089 1.07 2.871.377.272.776.445 1.158.524-.133.429-.536.865-1.15 1.233-.846.504-1.302.567-6.71 2.362-2.001.68-3.192 2.031-3.192 3.615 0 1.127.576 1.998 1.377 2.635.503-.519 1.132-.969 1.866-1.329-.845-.428-1.106-.752-1.106-1.306 0-.916 1.83-1.44 2.675-1.718v2.317l2.138-.953v-1.363c.845.28 2.671.803 2.671 1.717 0 1.52-4.353 2.417-6.206 3.694-.899.624-1.382 1.416-1.382 2.347 0 .534.062 1.197 1 1.856.267.212.637-.098.464-.397-.62-1.241.038-1.861 1.317-2.398v1.794c0 .59.479 1.069 1.069 1.069s1.069-.479 1.069-1.069v-1.793c1.228.515 2.001 1.243 1.314 2.397-.17.293.192.612.461.397.91-.689.98-1.279.98-1.842 0-.867-.474-1.709-1.374-2.353 1.82-.658 3.43-1.764 3.43-3.7 0-1.338-.85-2.51-2.32-3.251.687-.247 1.032-.413 1.49-.686 2.01-1.201 2.309-2.759 2.309-3.58zm-2.55-1.625c-.296 0-.535-.242-.535-.543 0-.3.24-.543.534-.543.295 0 .535.243.535.543 0 .3-.24.543-.535.543z"/>
        <path d="M29.934 2.14h-7.322c-1.436 0-2.514.635-3.44 1.562C18.163 4.71 17.64 6.95 16.035 6.95v-2.97c.637-.37 1.07-1.051 1.07-1.84C17.105.956 16.147 0 14.966 0c-1.18 0-2.138.957-2.138 2.138 0 .79.433 1.471 1.069 1.842v12.74c.66-.21 1.384-.442 2.138-.684V10.68c.464-.233.838-.61 1.068-1.075.372.636 1.078 1.086 1.866 1.086.8 0 1.488-.443 1.855-1.093 1.252 1.253 3.58 1.277 4.832.025l-1.816-1.817.833.345c1.637.678 3.513-.1 4.19-1.736l-2.58-1.069c2.5 0 3.65-1.569 3.65-3.207zM10.763 3.702C9.836 2.775 8.758 2.14 7.322 2.14H0c0 1.638 1.15 3.207 3.65 3.207l-2.58 1.07c.677 1.636 2.554 2.413 4.19 1.735l.833-.345-1.816 1.817c1.252 1.252 3.58 1.228 4.832-.025.367.65 1.056 1.093 1.855 1.093h.023c1.045-.012 1.843-.955 1.843-2v-2.15c-.842-.692-1.325-2.098-2.067-2.84z"/>
    </g>
</svg>
