<svg xmlns="http://www.w3.org/2000/svg" viewBox="0 0 27 35">
    <g fill="#0E2B6C">
        <path d="M17.167 9.333L21.833 9.333 17.167 4.667z"/>
        <path d="M16.843 10.127v-5.46H.833V35H23V10.733h-5.542c-.34 0-.615-.271-.615-.606zM4.528 8.307h4.926V9.52H4.528V8.307zm0 7.28h9.852V16.8H4.528v-1.213zm0 7.28h4.31v1.213h-4.31v-1.213zM6.99 31.36H4.528v-1.213H6.99v1.213zm12.315 0H8.222v-1.213h11.084v1.213zm0-3.64H4.528v-1.213h14.778v1.213zm0-3.64h-9.237v-1.213h9.237v1.213zm0-3.64H4.528v-1.213h14.778v1.213zm0-3.64H15.61v-1.213h3.695V16.8zm0-3.64H4.528v-1.213h14.778v1.213z"/>
        <path d="M4.333 0v2.427h12.93c.013 0 .025.007.038.007.054.003.108.014.159.032.02.005.038.012.057.02.067.029.128.07.18.12l6.158 6.067c.05.052.093.112.123.178l.02.057c.018.05.028.103.031.156 0 .013.008.025.008.038v21.231H26.5V0H4.333z"/>
    </g>
</svg>
