<svg xmlns="http://www.w3.org/2000/svg" viewBox="0 0 37 37">
    <g fill="#0E2B6C">
        <path d="M35.939 20H21.06c-.586 0-1.061.475-1.061 1.061V35.94c0 .586.475 1.061 1.061 1.061H35.94c.586 0 1.061-.475 1.061-1.061V21.06c0-.586-.475-1.061-1.061-1.061zm-6.836 5.436c-.043.578-.154 1.13-.33 1.644-.199.582-.475 1.13-.82 1.627-.343.493-.755.95-1.226 1.358-.413.358-.873.689-1.365.982-.13.077-.272.114-.413.114-.26 0-.516-.125-.673-.354l-.051-.074c-.13-.19-.174-.427-.12-.65.053-.223.2-.414.4-.523.314-.17.616-.367.899-.584.364-.278.69-.597.97-.949.278-.347.51-.736.69-1.153.093-.218.17-.448.228-.687h-2.315c-.449 0-.814-.365-.814-.814 0-.448.365-.813.814-.813h3.314c.226 0 .443.095.596.26.154.166.233.39.216.616zm3.099 3.421h-.65v3.52c0 .448-.365.813-.813.813h-.068c-.448 0-.813-.365-.813-.814v-7.753c0-.448.365-.813.813-.813h.068c.448 0 .813.365.813.813v2.608h.65c.448 0 .813.365.813.813 0 .449-.365.813-.813.813zM16.91 26.821H10.18V22.72l.394.395c.425.425 1.115.425 1.54 0 .426-.426.426-1.116 0-1.541L9.86 19.319c-.312-.312-.78-.405-1.188-.236-.407.168-.672.566-.672 1.006v7.822C8 28.512 8.488 29 9.09 29h7.82c.602 0 1.09-.488 1.09-1.09 0-.6-.488-1.089-1.09-1.089zM20.09 10.179h6.731v4.102l-.394-.395c-.425-.425-1.115-.425-1.54 0-.426.426-.426 1.115 0 1.541l2.253 2.254c.209.208.488.319.77.319.141 0 .283-.027.417-.083.407-.169.673-.566.673-1.006V9.089C29 8.488 28.512 8 27.91 8h-7.82C19.487 8 19 8.488 19 9.09c0 .6.488 1.089 1.09 1.089zM17 15.939V1.06C17 .475 16.525 0 15.939 0H1.06C.475 0 0 .475 0 1.061V15.94C0 16.525.475 17 1.061 17H15.94c.586 0 1.061-.475 1.061-1.061zm-4.955-3.416c-.151.22-.401.35-.668.35h-.276c-.337 0-.644-.212-.761-.528l-.644-1.728H7.288L6.66 12.34c-.116.32-.423.535-.764.535h-.273c-.267 0-.517-.131-.67-.351-.15-.22-.185-.5-.09-.75l2.701-7.122c.12-.314.425-.525.76-.525h.365c.336 0 .641.212.76.526l2.687 7.122c.095.25.06.53-.092.75z"/>
        <path d="M8 9h1l-.502-2c-.163.656-.34 1.374-.498 2z"/>
    </g>
</svg>
