<svg xmlns="http://www.w3.org/2000/svg" viewBox="0 0 33 33">
    <g fill="#0E2B6C" fill-rule="evenodd">
        <path d="M33 22.348c0-4.09-2.346-7.74-5.86-9.515-.109 7.841-6.466 14.198-14.307 14.307C14.61 30.654 18.258 33 22.348 33c1.917 0 3.782-.51 5.42-1.48l5.185 1.433-1.434-5.185C32.49 26.13 33 24.265 33 22.348z"/>
        <path fill-rule="nonzero" d="M24.75 12.375C24.75 5.551 19.199 0 12.375 0S0 5.551 0 12.375c0 2.224.592 4.39 1.716 6.29l-1.67 6.04 6.039-1.671c1.9 1.124 4.066 1.716 6.29 1.716 6.824 0 12.375-5.551 12.375-12.375zm-14.274-2.88H8.577c0-2.094 1.704-3.798 3.798-3.798 2.094 0 3.798 1.704 3.798 3.798 0 1.063-.45 2.085-1.235 2.803l-1.614 1.476v1.481h-1.898v-2.317l2.23-2.041c.398-.365.618-.863.618-1.402 0-1.047-.852-1.9-1.899-1.9-1.047 0-1.899.853-1.899 1.9zm.95 7.66h1.898v1.898h-1.898v-1.899z"/>
    </g>
</svg>
