<svg xmlns="http://www.w3.org/2000/svg" xmlns:xlink="http://www.w3.org/1999/xlink" viewBox="0 0 30 34">
    <defs>
        <path id="prefix__a" d="M23.843 11.015v14.181c0 1.127-.938 2.043-2.096 2.043H20.23c.052.171.083.35.083.537v4.083c0 1.068-.892 1.933-1.99 1.933-1.097 0-1.986-.865-1.986-1.933v-4.083c0-.187.028-.366.078-.537h-3.69c.05.171.081.35.081.537v4.083c0 1.068-.891 1.933-1.988 1.933-1.096 0-1.988-.865-1.988-1.933v-4.083c0-.187.028-.366.08-.537H7.4c-1.16 0-2.099-.916-2.099-2.043V11.015h18.543zm-21.855 0c1.096 0 1.986.866 1.986 1.933v8.274c0 1.067-.89 1.932-1.986 1.932-1.1 0-1.988-.865-1.988-1.932v-8.274c0-1.067.889-1.933 1.988-1.933zm25.17 0c1.096 0 1.985.866 1.985 1.933v8.274c0 1.067-.889 1.932-1.986 1.932-1.098 0-1.988-.865-1.988-1.932v-8.274c0-1.067.89-1.933 1.988-1.933zM20.148.63c.099-.148.307-.19.457-.09.153.099.196.298.094.447l-.826 1.206-.37.537-.37.544c2.81 1.275 4.71 3.69 4.71 6.452H5.3c0-2.762 1.9-5.177 4.712-6.452L9.64 2.73l-.37-.537L8.444.987c-.1-.15-.058-.348.094-.447.153-.098.358-.058.46.09l.885 1.293.373.542.376.553c1.198-.452 2.533-.706 3.94-.706 1.408 0 2.741.254 3.939.706l.378-.553L20.15.63zm-1.602 4.585c-.55 0-.995.43-.995.966 0 .534.445.966.995.966.549 0 .993-.432.993-.966 0-.536-.444-.966-.993-.966zm-7.949 0c-.549 0-.993.43-.993.966 0 .534.444.966.993.966.55 0 .995-.432.995-.966 0-.536-.445-.966-.995-.966z"/>
    </defs>
    <g fill="none" fill-rule="evenodd">
        <mask id="prefix__b" fill="#fff">
            <use xlink:href="#prefix__a"/>
        </mask>
        <path fill="#0E2B6C" d="M0 33.83L29.143 33.83 29.143 0.461 0 0.461z" mask="url(#prefix__b)"/>
    </g>
</svg>
