<svg xmlns="http://www.w3.org/2000/svg" viewBox="0 0 34 34">
    <g fill="none" transform="translate(2 2)">
        <path fill="#0E2B6C" d="M13.997 1.885l.091-.003v6.382c-1.575-.112-3.094-.5-4.503-1.14.808-2.08 2.287-4.569 4.412-5.239zm2.023.07c.144.016.287.034.429.054 1.945.813 3.31 3.147 4.074 5.115-1.408.64-2.927 1.028-4.503 1.14V1.956zm4.741 1.429c.99.51 1.909 1.14 2.738 1.869-.406.339-.83.65-1.27.936-.395-.978-.88-1.934-1.468-2.805zm4.1 3.247c1.731 2.022 2.88 4.559 3.183 7.349H23.79c-.074-2.086-.387-4.092-.915-5.915.695-.42 1.358-.9 1.986-1.434zm3.257 9.28c-.032.99-.169 1.952-.401 2.876-.52 1.723-1.392 3.324-2.578 4.717-.708-.633-1.465-1.194-2.264-1.677.528-1.823.84-3.83.914-5.915h4.329zm-26.256 0h4.457c.074 2.087.386 4.093.914 5.916-.798.483-1.556 1.044-2.264 1.677-1.825-2.144-2.905-4.78-3.107-7.592zm3.107-9.523c.708.633 1.466 1.194 2.264 1.677-.528 1.823-.84 3.83-.914 5.915H1.862c.202-2.811 1.282-5.448 3.107-7.592zm9.12 3.812v3.78H8.251c.066-1.764.316-3.458.732-5.008 1.6.7 3.322 1.117 5.104 1.228zm0 5.712v3.78c-1.783.111-3.504.529-5.105 1.228-.416-1.55-.666-3.244-.732-5.008h5.836zm0 5.716v6.406c-2.175-.627-3.685-3.156-4.504-5.266 1.409-.64 2.928-1.028 4.503-1.14zm1.931 0c1.576.112 3.095.5 4.503 1.14-.82 2.11-2.329 4.639-4.503 5.266v-6.406zm0-1.936v-3.78h5.837c-.067 1.764-.317 3.458-.733 5.008-1.6-.7-3.321-1.117-5.104-1.228zm0-5.712V10.2c1.783-.111 3.504-.529 5.104-1.228.416 1.55.666 3.244.733 5.008H16.02zM7.88 6.189c-.543-.352-1.062-.746-1.554-1.18 1.034-.91 2.187-1.645 3.424-2.187-.773 1.015-1.389 2.174-1.87 3.367zm0 17.514c.481 1.193 1.097 2.352 1.87 3.366-1.236-.541-2.39-1.275-3.424-2.186.492-.434 1.011-.828 1.554-1.18zm14.35 0c.543.352 1.062.746 1.554 1.18-1.034.91-2.187 1.645-3.424 2.186.773-1.014 1.389-2.173 1.87-3.366z"/>
        <circle cx="15" cy="15" r="16" stroke="#0E2B6C" stroke-width="2"/>
    </g>
</svg>
