<svg xmlns="http://www.w3.org/2000/svg" viewBox="0 0 30 36">
    <path fill="#0E2B6C" d="M29.295 26.202c-.096.271-.189.562-.296.848-.886 2.399-2.231 4.529-3.863 6.481-.315.38-.682.724-1.061 1.043-.749.634-1.611 1.017-2.608 1.052-.749.024-1.468-.112-2.161-.394-.502-.205-.996-.434-1.505-.619-1.652-.6-3.295-.521-4.92.121-.586.232-1.164.488-1.761.689-.692.232-1.41.326-2.141.188-.638-.119-1.196-.416-1.714-.799-.643-.476-1.183-1.056-1.688-1.67-2.391-2.916-3.996-6.213-4.771-9.906-.334-1.588-.494-3.189-.396-4.812.115-1.946.567-3.799 1.607-5.469 1.305-2.099 3.146-3.474 5.568-4.041 1.457-.343 2.874-.203 4.263.332.731.28 1.464.557 2.198.832.676.254 1.349.254 2.026-.005.749-.286 1.499-.571 2.251-.85.771-.281 1.555-.511 2.373-.576 1.224-.099 2.418.06 3.58.449 1.647.551 2.987 1.526 3.999 2.946l.077.113c-2.552 1.779-4.005 4.129-3.794 7.311.213 3.184 1.927 5.338 4.737 6.736zM14.98 8.253c.753.02 1.477-.125 2.174-.402 3.179-1.262 4.841-4.625 4.791-7.197-.004-.207-.018-.414-.027-.654-.327.049-.625.072-.911.144-2.321.569-4.107 1.864-5.281 3.961-.687 1.228-1.069 2.532-.952 3.957.008.151.063.189.206.191z"/>
</svg>
