<svg xmlns="http://www.w3.org/2000/svg" viewBox="0 0 66 66">
    <g fill="none">
        <path fill="#0E2B6C" d="M26.502 61.722h-1.06c-.549 0-.998.55-.998 1.222 0 .673.45 1.223.998 1.223h1.06c.549 0 .998-.55.998-1.223 0-.672-.449-1.222-.998-1.222z"/>
        <path fill="#0E2B6C" d="M32.966 49.846h-5.601v-1.884c2.424-1.072 4.52-2.804 6.026-4.99 1.547-2.2 2.465-4.784 2.643-7.465 2.096-.399 3.465-2.42 3.068-4.51-.137-.742-.493-1.43-1.013-1.98-.535-.535-1.22-.893-1.945-1.058v-6.022h2.109c.616-.013 1.096-.508 1.096-1.127 0-5.733-4.643-10.42-10.355-10.42h-9.532c-1.959-.015-3.78.989-4.821 2.653-3.506.165-5.478 2.13-6.533 3.794-.726 1.169-1.205 2.46-1.424 3.808 0 .055.013.096.013.151v7.163c-.767.124-1.479.495-2.013 1.059-1.493 1.485-1.507 3.918-.014 5.416.548.55 1.26.922 2.027 1.073.233 3.547 1.74 6.901 4.26 9.403 1.41 1.403 3.095 2.516 4.93 3.272v1.664H10.34C4.63 49.846 0 54.493 0 60.226v4.33c0 .605.493 1.1 1.096 1.1.602 0 1.095-.495 1.095-1.1v-4.29c-.04-4.357 3.342-7.973 7.67-8.22v1.402c-2.41.536-4.122 2.68-4.109 5.155v5.857c-.027.55.411 1.031.959 1.045H8.464c.603 0 1.096-.495 1.096-1.1 0-.605-.493-1.1-1.096-1.1h-.548V58.59c-.013-.825.302-1.623.877-2.2.548-.577 1.315-.907 2.109-.921h.041c1.698 0 3.013 1.43 3.013 3.12v4.73h-.917c-.603 0-1.096.495-1.096 1.1 0 .605.493 1.1 1.096 1.1h2.081c.548.013 1.014-.413 1.028-.976v-5.94c0-2.557-1.78-4.688-4.11-5.183v-1.374h4.493l3.862 3.987v7.135c0 .605.493 1.1 1.096 1.1.603 0 1.096-.495 1.096-1.1v-7.122l4.122-4.014h5.314v5.458c-1.917.481-3.246 2.213-3.218 4.193 0 2.392 1.93 4.33 4.314 4.317 2.383 0 4.314-1.939 4.3-4.33 0-1.142-.452-2.242-1.26-3.053-.547-.536-1.219-.92-1.944-1.127V52.1c4.013.606 6.985 4.07 6.985 8.14v4.289c0 .605.493 1.1 1.095 1.1.603 0 1.096-.495 1.096-1.1v-4.29c0-5.732-4.684-10.393-10.423-10.393zM6.697 33.197h-.013c-.562-.275-.932-.839-.932-1.47 0-.44.178-.853.493-1.156.124-.123.178-.233.452-.316v2.942zm29.83-2.626c.315.303.493.729.493 1.169 0 .646-.48 1.196-.89 1.47v-2.955c.15.083.274.193.397.316zM16.257 14.61s0-.014.014-.014c.164-.357.397-.687.67-.962.672-.674 1.562-1.045 2.507-1.045h9.533c4.136 0 7.56 3.162 8.094 7.149H19.448c-.04 0-.068-.014-.11-.028-.04 0-.068-.013-.109-.027-1.862-.11-3.328-1.664-3.314-3.547-.014-.523.11-1.045.342-1.526zm-7.382 6.269c0-.605.918-4.757 4.93-5.527-.41 2.585 1.014 5.114 3.438 6.09-3.19 3.383-6.724 3.823-8.368 3.823v-4.386zM25.173 50.45l-3.711 3.574-3.41-3.547V48.87c1.081.247 2.177.371 3.286.371 1.288 0 2.575-.165 3.835-.495v1.705zm.603-4.207c-4.602 1.746-9.793.605-13.258-2.887-2.356-2.351-3.67-5.554-3.643-8.895v-6.998c2.191 0 6.916-.715 10.834-5.527h14.23v12.525c0 5.21-3.301 9.953-8.163 11.782zm8.834 13.94c.835.825.835 2.173.013 2.998v.013c-.835.839-2.177.839-2.999 0-.835-.838-.835-2.186 0-3.01.397-.4.931-.62 1.493-.62.548-.013 1.096.22 1.493.62z"/>
        <path fill="#0E2B6C" d="M26.502 58.056h-1.06c-.549 0-.998.55-.998 1.222 0 .672.45 1.222.998 1.222h1.06c.549 0 .998-.55.998-1.222 0-.672-.449-1.222-.998-1.222z"/>
        <path fill="#1B326A" d="M17.869 28.722c-.592 0-1.076.471-1.076 1.047v.563c-.013.655-.564 1.178-1.223 1.178-.659 0-1.196-.536-1.196-1.178v-.563c0-.576-.484-1.047-1.076-1.047-.591 0-1.075.471-1.075 1.047v.563c-.014.864.336 1.702.968 2.317 1.317 1.283 3.455 1.283 4.772 0 .632-.615.981-1.44.981-2.304v-.563c0-.602-.484-1.06-1.075-1.06zM29.458 28.722c-.604 0-1.097.47-1.097 1.046v.562c.013.628-.508 1.163-1.18 1.177h-.014c-.315 0-.617-.131-.823-.34-.22-.223-.33-.523-.315-.824v-.562c0-.575-.494-1.046-1.098-1.046-.603 0-1.097.47-1.097 1.046v.562c-.014.863.329 1.686.96 2.314.617.614 1.482.954 2.373.954 1.88 0 3.402-1.464 3.388-3.255v-.588c0-.575-.493-1.046-1.097-1.046z"/>
        <path fill="#0E2B6C" d="M64.84 6.016L53.855.134c-.328-.179-.712-.179-1.027 0L42.131 6.016c-.356.193-.575.565-.575.965v8.347c.013 6.544 3.862 12.467 9.834 15.098l1.493.648c.274.124.603.124.877 0l1.67-.73c6.055-2.563 9.986-8.541 9.958-15.153V6.994c.014-.4-.205-.771-.548-.978zM60.855 23.07c-1.548 2.342-3.74 4.16-6.315 5.262l-1.232.538-1.055-.455c-5.15-2.273-8.492-7.411-8.506-13.073V7.656l9.574-5.29 9.876 5.303v7.522c.013 2.796-.795 5.537-2.342 7.88z"/>
        <path fill="#F15A24" d="M59.044 12.639c-.377-.483-1.05-.554-1.522-.17l-5.806 4.985-2.155-2.67c-.39-.47-1.064-.526-1.522-.114-.445.412-.498 1.122-.121 1.59l2.842 3.509.04.043.04.042c.014.014.028.029.055.043.027.014.027.028.04.042.014.015.04.029.054.043.013.014.027.028.04.028.014.015.04.029.054.029.014.014.027.014.04.028.028.014.041.014.068.029.014 0 .027.014.04.014.027.014.04.014.068.014.013 0 .027.014.04.014.027 0 .04.014.068.014.013 0 .027 0 .04.015h.229c.027 0 .054 0 .08-.015h.028c.027 0 .04-.014.067-.014.014 0 .027-.014.04-.014.014 0 .041-.014.054-.014.014 0 .027-.014.04-.014.014 0 .028-.015.055-.015.013 0 .027-.014.04-.014.014 0 .027-.014.04-.028.014-.014.027-.014.041-.029.013-.014.027-.014.04-.028.014-.014.027-.014.04-.028.014-.015.028-.015.028-.029l6.614-5.681c.458-.398.525-1.108.161-1.605z"/>
    </g>
</svg>
