<svg xmlns="http://www.w3.org/2000/svg" viewBox="0 0 64 63">
    <g fill="none">
        <path fill="#0E2B6C" d="M62.5 20.366c1.165-4.895.99-9.328-.492-12.484-1.139-2.424-2.974-3.891-5.212-4.187C54.601-.383 49.698-.398 45.106.433c-1.295.234-.939 2.172.358 1.937C55.635.53 54.358 5.549 56.11 5.612c2.215.079 3.447 1.729 4.09 3.099 1.277 2.717 1.409 6.801.36 11.204-1.194 5.017-3.813 10.237-7.59 15.136-1.716-.746-3.059-1.783-4.09-3.155-.784-1.045-2.385.127-1.6 1.174 1.252 1.665 2.939 2.953 5.02 3.837.064 4.47-.15 4.567.198 5.026C62.626 55.277 57.301 63 60.268 63c.55 0 .997-.44.997-.984 0-7.211-1.173-13.257-6.973-21v-4.434c4.086-5.215 6.922-10.816 8.208-16.216z"/>
        <path fill="#0E2B6C" d="M46.24 27.262c-1.271 0-1.273 1.867 0 1.867 6.344 0 6.097-10.161 1.242-10.161-3.14 0-4.13 4.56-2.203 4.56.53 0 .961-.418.961-.933 0-2.56 2.886-2.405 2.886.933 0 1.123-.282 3.734-2.886 3.734zM48.36 47.42c-3.74.004-6.77 3.054-6.775 6.82v7.793c0 1.288 1.936 1.29 1.936 0V54.24c0-2.69 2.166-4.871 4.838-4.871 2.673 0 4.839 2.18 4.839 4.871v7.794c0 1.288 1.935 1.29 1.935 0V54.24c-.004-3.765-3.034-6.815-6.774-6.82z"/>
        <path fill="#0E2B6C" d="M49.014 42.194c-2.76 1.16-6.645 2.51-10.475 2.89 2.596-3.712 1.824-.828 1.939-7.812 0-.546-.444-.99-.991-.99h-7.434c-1.368 0-2.477-1.107-2.478-2.473v-4.453c0-.912-.92-.979-2.751-2.243 2.48-3.291 2.75-3.278 2.75-3.871v-5.434c.588.222 1.194.388 1.812.495 1.293.225 1.633-1.724.342-1.95-4.924-.86-6.768-5.698-7.068-10.68 2.797 1.452 6.894.206 13.372-1.695 1.258-.368.702-2.266-.557-1.899-5.466 1.603-11.42 3.59-12.938.925-.416-.894-1.798-.671-1.873.377-.324 4.498 1.009 10.596 4.929 13.371v6.15L24.58 26.77c-.173.222-.243.507-.193.784.05.277.216.519.456.666l2.75 1.69v3.9c.002 2.457 1.998 4.45 4.46 4.452h6.442v3.593c-.914 1.114-1.76 2.282-2.53 3.5-.238.157-.396.41-.433.692-2.91 4.762-4.966 10.364-4.966 15.963 0 .547.444.99.991.99.548 0 .991-.443.991-.99 0-5.937 2.495-11.321 4.64-14.855 4.572-.149 9.336-1.767 12.595-3.136 1.21-.509.44-2.332-.769-1.825z"/>
        <path fill="#0E2B6C" d="M36.635 13.39c-.531.945-3.179 5.755-3.179 7.61 0 2.245 1.82 4.065 4.065 4.065 2.244 0 4.064-1.82 4.064-4.065 0-1.855-2.648-6.665-3.178-7.61-.18-.32-.519-.519-.886-.519-.368 0-.707.198-.886.519zm.886 9.642c-1.122-.001-2.031-.91-2.033-2.032 0-.69.945-2.856 2.033-4.967 1.087 2.11 2.032 4.276 2.032 4.967-.002 1.122-.91 2.03-2.032 2.032zM17.99 35.6V8.385c-.003-1.637-1.324-2.965-2.955-2.967H7.157c-1.63.002-2.952 1.33-2.954 2.967V35.6C-3.615 42.092.988 54.87 11.099 54.87c10.015 0 14.778-12.748 6.89-19.272zm-7.108 17.29C2.652 52.696-1.02 42 5.78 36.87c.747-.563.25-.542.394-17.604h2.954c1.302 0 1.303-1.978 0-1.978H6.172V15.31h4.924c1.302 0 1.304-1.978 0-1.978H6.172v-1.978h2.955c1.302 0 1.303-1.979 0-1.979H6.172c.06-.267-.332-1.978.985-1.978h7.878c.544.001.984.443.985.99.148 28.748-.356 27.918.393 28.484 6.952 5.244 2.958 16.224-5.53 16.02z"/>
        <path fill="#F15A24" d="M14.009 37.87V22.648c0-.536-.434-.97-.97-.97H9.163c-.536 0-.97.434-.97.97V37.87c-6.536 3.113-4.262 12.936 2.908 12.936 7.16 0 9.452-9.818 2.908-12.936zM11.1 48.865c-5.411 0-6.736-7.612-1.614-9.432 1.224-.435.405-1.247.645-15.814h1.938c.246 14.902-.539 15.393.645 15.814 5.12 1.819 3.799 9.432-1.614 9.432z"/>
        <path fill="#0E2B6C" d="M.94 55.21c0 1.353 2.032 1.355 2.032 0S.94 53.855.94 55.21zM6.02 56.226c-1.353 0-1.355 2.032 0 2.032 1.354 0 1.356-2.032 0-2.032zM15.166 57.242c0 1.354 2.032 1.356 2.032 0 0-1.355-2.032-1.355-2.032 0zM10.424 58.597c0 1.354 2.032 1.355 2.032 0s-2.032-1.355-2.032 0zM20.246 54.194c-1.354 0-1.355 2.032 0 2.032 1.354 0 1.356-2.032 0-2.032zM41.924 3.387c1.354 0 1.355-2.032 0-2.032s-1.355 2.032 0 2.032z"/>
    </g>
</svg>
