<svg xmlns="http://www.w3.org/2000/svg" viewBox="0 0 63 63">
    <g fill="none">
        <path fill="#0E2B6C" d="M44.178 23.186c.456-.505.718-1.158.74-1.841.037-1.44-.823-2.04-1.98-3.21-.55-.532-1.29-.816-2.051-.786-.761.03-1.477.372-1.983.946l-.401-1.213c.938-.958 3.23-3.308 5.071-5.362 4.54-5.059 4.3-8.774 3.987-10.136-.172-.712-.73-1.263-1.44-1.422-1.48-.333-5.426-.606-10.062 4.063l-4.378 4.41-1.57-.435c.649-1.08.493-2.465-.38-3.371l-1.2-1.209c-1.109-1.075-2.871-1.045-3.943.067l-2.335 2.354-6.462-1.777c-2.418-.662-5.002.03-6.775 1.813l-.331.332c-.43.433-.628 1.047-.532 1.651.095.605.473 1.126 1.015 1.402l6.995 3.523c-.692 1.505-1.079 3.046.084 4.217.602.598 1.455.864 2.287.715 1.393-.287 2.694-.915 3.79-1.827l1.324.666c-2.973 3.167-4.343 5.269-7.7 10.002l-3.648-.919c-.644-.159-1.324.031-1.796.502l-.86.866c-.737.746-.737 1.95 0 2.696l8.404 8.468c.74.742 1.935.742 2.675 0l.859-.866c.468-.474.658-1.16.499-1.81l-.912-3.676c4.488-3.23 6.715-4.695 9.926-7.757l.662 1.335c-.357.433-.673.898-.943 1.391-7.712 5.708-10.265 16.158-6.065 24.821 4.2 8.664 13.95 13.058 23.16 10.438 9.209-2.62 15.238-11.503 14.322-21.1-.917-9.597-8.517-17.158-18.053-17.96zM59.01 49.545c-1.633.522-3.173 1.302-4.563 2.31-1.284.869-3.365 1.785-4.494.764-1.62-1.47 1.573-5.124 1.573-8.937-.012-2.954-2.071-5.106-5.656-5.904-.958-.196-1.847-.647-2.574-1.306.448-1.24.546-2.581.28-3.873 1.73-1.816 4.564-1.899 7.511-5.146 7.79 4.298 11.187 13.767 7.923 22.09v.002zM42.192 25.209c2.364-.049 4.713.388 6.903 1.284-2.425 2.361-4.33 2.442-6.192 3.886l-1.46-4.418.75-.752zm-2.43-4.808c.7-.706.842-.945 1.25-.953.356-.023.4.115 1.657 1.384.25.296.221.739-.066.999l-1.894 1.907-1.074-3.248c.044-.027.086-.056.127-.089zm-13.7-15.229c.26-.288.7-.318.995-.067l1.2 1.21c.248.297.22.74-.066 1l-.279.281-3.343-.919 1.493-1.505zM18.33 15.82c-.206.076-.436.036-.605-.105-.137-.17-.177-.401-.104-.608.102-.407.241-.803.417-1.183l2.189 1.102c-.59.359-1.23.627-1.897.794zm12.328 5.946c-3.539 3.563-6.156 5.276-10.805 8.621-.633.454-.923 1.254-.73 2.012l.918 3.697-.647.652-8.13-8.191.647-.651 3.67.925c.753.191 1.546-.104 1.996-.742 3.299-4.653 5.035-7.336 8.558-10.885.236-.239.344-.577.29-.91-.053-.333-.262-.62-.56-.77l-15.521-7.82c1.244-1.353 3.132-1.898 4.898-1.414l16.189 4.45c.54.146 1.117-.009 1.514-.406l4.586-4.62c3.785-3.813 6.798-3.766 8.026-3.522.145.827.312 3.837-3.53 8.122-1.986 2.216-4.507 4.787-5.232 5.521-.417.42-.561 1.044-.372 1.607l5.065 15.3c.48 1.78-.06 3.681-1.403 4.935l-7.758-15.64c-.15-.301-.435-.512-.765-.566-.331-.054-.668.056-.904.295zm2.157 5.953l1.093 2.205c-.412.198-.847.345-1.294.436-.171.05-.356 0-.482-.126-.126-.127-.174-.313-.125-.485.155-.716.428-1.402.808-2.027v-.003zm-7.447 10.924c.704 1.29 1.817 2.303 3.16 2.88 2.293.957 5.289.608 5.13 2.526-.148 1.08-.448 2.133-.893 3.127-1.25 3.222-1.174 4.104-.798 6.3.322 1.267.304 2.596-.054 3.853-5.76-4.3-8.35-11.695-6.545-18.686zM39.924 60.71c2.293-1.545 4.754-2.331 9.068-2.014.554.044 1.105.117 1.652.218-3.297 1.72-7.048 2.348-10.72 1.796zm13.2-3.354c-3.275-.97-6.74-1.092-10.074-.357-2.134.568-4.107 1.63-5.763 3.1-1.23-.386-2.414-.907-3.532-1.553.594-1.745.687-3.624.266-5.419-.313-1.828-.409-2.37.685-5.181.523-1.181.87-2.434 1.028-3.717.157-1.485-.693-2.892-2.074-3.436-1.552-.685-3.06-.675-4.336-1.207-1.537-.78-2.616-2.25-2.903-3.96.735-1.632 1.713-3.142 2.901-4.476.209-.24.448-.45.67-.677.103.47.333.9.666 1.244 1.172 1.182 2.71.776 4.184.086l3.497 7.05c.273.548.79.93 1.39 1.028.6.098 1.21-.1 1.64-.532.32-.304.618-.631.89-.98.936.714 2.016 1.212 3.163 1.461 1.828.407 4.01 1.408 4.02 3.857 0 2.71-1.966 5.079-2.023 7.706-.054 2.545 2.075 4.057 4.511 3.731 2.502-.325 3.906-1.855 5.733-2.796-1.178 1.954-2.72 3.662-4.54 5.028z"/>
        <path fill="#F15A24" d="M13.61 58.968C7.334 56.14 3.576 51.88 2.445 46.308c-1.658-8.164 2.857-17.586 7.754-22.886.382-.425.352-1.078-.067-1.467-.42-.388-1.072-.367-1.465.047C3.245 27.871-1.415 37.79.398 46.725c1.273 6.267 5.43 11.028 12.354 14.15.526.237 1.144.003 1.381-.524.237-.526.003-1.146-.523-1.383z"/>
        <path fill="#F15A24" d="M11.99 37.03c.402-.417.397-1.081-.013-1.492-.41-.411-1.073-.417-1.49-.013-4.82 4.831-4.526 15.193 5.474 21.876.488.327 1.148.195 1.473-.295.326-.489.194-1.15-.294-1.477-8.777-5.867-9.072-14.665-5.15-18.598z"/>
        <path fill="#F15A24" d="M17.009 47.194c-.272-1.444.088-2.937.985-4.087.398-.407.398-1.067 0-1.475-1.957-1.998-6.146 6.06.598 12.946.4.395 1.038.39 1.432-.012.393-.403.399-1.053.012-1.462-1.618-1.576-2.682-3.654-3.027-5.91z"/>
        <circle cx="11.855" cy="19.984" r="1.016" fill="#0E2B6C"/>
    </g>
</svg>
