<svg xmlns="http://www.w3.org/2000/svg" viewBox="0 0 15 15">
    <path fill="#FFF" d="M12.802 2.198c-2.93-2.93-7.673-2.93-10.604 0-2.93 2.93-2.93 7.673 0 10.604 2.93 2.93 7.673 2.93 10.604 0 2.93-2.93 2.93-7.673 0-10.604zm-.313 9.535c-.35-.313-.725-.59-1.12-.83.26-.901.415-1.894.452-2.925h2.204c-.1 1.39-.634 2.695-1.536 3.755zM.975 7.978h2.204c.037 1.031.191 2.024.452 2.926-.395.239-.77.516-1.12.83-.903-1.061-1.437-2.366-1.536-3.756zM2.51 3.267c.35.313.725.59 1.12.83-.26.901-.415 1.894-.452 2.925H.975c.1-1.39.633-2.695 1.536-3.755zm4.511.928c-.78-.056-1.53-.248-2.227-.564.405-1.044 1.152-2.295 2.227-2.605v3.169zm0 .957v1.87H4.135c.033-.872.157-1.71.363-2.477.791.346 1.643.553 2.524.607zm0 2.826v1.87c-.881.055-1.733.261-2.524.607-.206-.766-.33-1.604-.363-2.477h2.887zm0 2.827v3.169c-1.075-.31-1.822-1.561-2.227-2.605.696-.316 1.448-.508 2.227-.564zm.956 0c.78.056 1.53.248 2.227.564-.405 1.044-1.152 2.295-2.227 2.605v-3.169zm0-.957v-1.87h2.887c-.033.873-.157 1.71-.362 2.477-.792-.346-1.643-.552-2.525-.607zm0-2.826v-1.87c.882-.054 1.733-.261 2.525-.607.205.767.329 1.605.362 2.477H7.978zm0-2.827V1.026c1.075.31 1.822 1.561 2.227 2.605-.696.316-1.448.508-2.227.564zm2.146-2.692c.612.268 1.182.631 1.694 1.082-.244.214-.5.41-.769.583-.238-.59-.542-1.163-.925-1.665zM3.951 3.168c-.269-.174-.525-.369-.769-.583.512-.45 1.082-.814 1.694-1.082-.383.502-.687 1.075-.925 1.665zm0 8.664c.238.59.542 1.163.925 1.665-.612-.268-1.182-.631-1.694-1.082.244-.214.5-.41.769-.583zm7.098 0c.269.174.525.369.769.583-.512.45-1.082.814-1.694 1.082.383-.502.687-1.075.925-1.665zm.772-4.81c-.037-1.031-.191-2.024-.452-2.926.395-.239.77-.516 1.12-.83.903 1.061 1.437 2.366 1.536 3.756h-2.204z"/>
</svg>
