<svg xmlns="http://www.w3.org/2000/svg" viewBox="0 0 100 100">
    <g fill="none" fill-rule="evenodd" stroke="#FFF">
        <path fill="#F15A24" d="M34 36c-1.105 0-2 .88-2 1.967v4.066c0 1.086.895 1.967 2 1.967s2-.88 2-1.967v-4.066C36 36.881 35.105 36 34 36zM42 36c-1.105 0-2 .88-2 1.967v4.066c0 1.086.895 1.967 2 1.967s2-.88 2-1.967v-4.066C44 36.881 43.105 36 42 36zM50 36c-1.105 0-2 .88-2 1.967v4.066c0 1.086.895 1.967 2 1.967s2-.88 2-1.967v-4.066C52 36.881 51.105 36 50 36zM56 36c-1.105 0-2 .88-2 1.967v4.066c0 1.086.895 1.967 2 1.967s2-.88 2-1.967v-4.066C58 36.881 57.105 36 56 36zM64 36c-1.105 0-2 .88-2 1.967v4.066c0 1.086.895 1.967 2 1.967s2-.88 2-1.967v-4.066C66 36.881 65.105 36 64 36zM22 86c-.526 0-1.042.214-1.414.586-.372.372-.586.888-.586 1.414 0 .526.214 1.042.586 1.414.372.372.888.586 1.414.586.526 0 1.042-.214 1.414-.586.372-.372.586-.888.586-1.414 0-.526-.214-1.042-.586-1.414C23.042 86.214 22.526 86 22 86zM22 70c-1.105 0-2 .849-2 1.895v8.21C20 81.15 20.895 82 22 82s2-.849 2-1.895v-8.21C24 70.85 23.105 70 22 70zM32 70c-1.105 0-2 .872-2 1.948v16.104c0 1.076.895 1.948 2 1.948s2-.872 2-1.948V71.948C34 70.872 33.105 70 32 70zM43 70c-1.105 0-2 .872-2 1.948v16.104c0 1.076.895 1.948 2 1.948s2-.872 2-1.948V71.948C45 70.872 44.105 70 43 70zM55 70c-1.105 0-2 .872-2 1.948v16.104c0 1.076.895 1.948 2 1.948s2-.872 2-1.948V71.948C57 70.872 56.105 70 55 70zM66 70c-1.105 0-2 .872-2 1.948v16.104c0 1.076.895 1.948 2 1.948s2-.872 2-1.948V71.948C68 70.872 67.105 70 66 70zM76 70c-.526 0-1.042.214-1.414.586-.372.374-.586.888-.586 1.414 0 .528.214 1.042.586 1.414.372.374.888.586 1.414.586.526 0 1.042-.212 1.414-.586.372-.372.586-.886.586-1.414 0-.526-.214-1.04-.586-1.414C77.042 70.214 76.526 70 76 70zM76 78c-1.105 0-2 .857-2 1.915v8.17c0 1.058.895 1.915 2 1.915s2-.857 2-1.915v-8.17C78 78.857 77.105 78 76 78zM30 52c-1.105 0-2 .88-2 1.967v4.066c0 1.086.895 1.967 2 1.967s2-.88 2-1.967v-4.066C32 52.881 31.105 52 30 52zM38 52c-1.105 0-2 .88-2 1.967v4.066c0 1.086.895 1.967 2 1.967s2-.88 2-1.967v-4.066C40 52.881 39.105 52 38 52zM46 52c-1.105 0-2 .88-2 1.967v4.066c0 1.086.895 1.967 2 1.967s2-.88 2-1.967v-4.066C48 52.881 47.105 52 46 52zM52 52c-1.105 0-2 .88-2 1.967v4.066c0 1.086.895 1.967 2 1.967s2-.88 2-1.967v-4.066C54 52.881 53.105 52 52 52zM60 52c-1.105 0-2 .88-2 1.967v4.066c0 1.086.895 1.967 2 1.967s2-.88 2-1.967v-4.066C62 52.881 61.105 52 60 52zM68 52c-1.105 0-2 .88-2 1.967v4.066c0 1.086.895 1.967 2 1.967s2-.88 2-1.967v-4.066C70 52.881 69.105 52 68 52z" transform="translate(1 1)"/>
        <path fill="#0E2B6C" fill-rule="nonzero" d="M96.086 68.121H88.43v-4.214c0-1.057-.857-1.915-1.914-1.915H77.71V48.968h1.34c1.057 0 1.914-.858 1.914-1.915 0-1.058-.857-1.916-1.914-1.916h-5.36v-9.969c.968-.096 1.723-.913 1.723-1.906 0-1.057-.857-1.915-1.914-1.915h-4.721v-1.66c0-10.267-7.854-18.732-17.865-19.698V1.915C50.914.858 50.057 0 49 0s-1.914.858-1.914 1.915V9.99c-10.011.966-17.865 9.431-17.865 19.698v1.66H24.5c-1.057 0-1.914.858-1.914 1.915 0 .994.755 1.81 1.723 1.906v9.97h-5.36c-1.057 0-1.914.857-1.914 1.915 0 1.057.857 1.915 1.914 1.915h1.34v13.024h-8.805c-1.057 0-1.914.858-1.914 1.915v4.214H1.914C.857 68.121 0 68.98 0 70.036v26.049C0 97.142.857 98 1.914 98h94.172C97.143 98 98 97.142 98 96.085V70.036c0-1.057-.857-1.915-1.914-1.915zM33.05 29.687c0-8.8 7.155-15.96 15.95-15.96 8.795 0 15.95 7.16 15.95 15.96v1.66h-31.9v-1.66zm-4.913 5.49H69.863v9.96H28.137v-9.96zm-4.02 13.791h49.766v13.024H24.117V48.968zM3.828 71.952H9.57v22.217H3.828V71.952zm9.57-1.916v-4.213h71.204v28.346H13.398V70.036zM94.172 94.17H88.43V71.952h5.742v22.217z" transform="translate(1 1)"/>
    </g>
</svg>
