<svg xmlns="http://www.w3.org/2000/svg" viewBox="0 0 30 30">
    <g fill-rule="evenodd" opacity=".21">
        <path fill-rule="nonzero" d="M15 0C6.709 0 0 6.71 0 15c0 8.291 6.71 15 15 15 8.291 0 15-6.71 15-15 0-8.291-6.71-15-15-15zm0 27.656c-6.996 0-12.656-5.66-12.656-12.656S8.004 2.344 15 2.344 27.656 8.004 27.656 15 21.996 27.656 15 27.656z"/>
        <path d="M15 7.551c-.647 0-1.172.525-1.172 1.172v7.547c0 .647.525 1.172 1.172 1.172.647 0 1.172-.525 1.172-1.172V8.723c0-.647-.525-1.172-1.172-1.172z"/>
        <circle cx="15" cy="20.459" r="1.582"/>
    </g>
</svg>
