<svg xmlns="http://www.w3.org/2000/svg" viewBox="0 0 104 104">
    <g fill="none" fill-rule="evenodd" stroke="#FFF">
        <g fill="#F15A24" fill-rule="nonzero">
            <path d="M21.5 55c-.494 0-.985-.165-1.385-.5C19.295 53.825 0 37.629 0 21.155 0 9.49 9.645 0 21.5 0S43 9.49 43 21.154c0 16.474-19.294 32.67-20.115 33.347-.4.334-.89.499-1.385.499zm0-50.77c-9.486 0-17.2 7.59-17.2 16.924 0 12.134 12.887 24.944 17.2 28.888 4.313-3.948 17.2-16.754 17.2-28.888 0-9.333-7.714-16.923-17.2-16.923z" transform="translate(1 1) translate(59 47)"/>
            <path d="M22.5 29c-4.688 0-8.5-3.812-8.5-8.5 0-4.688 3.812-8.5 8.5-8.5 4.688 0 8.5 3.812 8.5 8.5 0 4.688-3.812 8.5-8.5 8.5zm0-12.75c-2.342 0-4.25 1.904-4.25 4.25s1.908 4.25 4.25 4.25 4.25-1.904 4.25-4.25-1.908-4.25-4.25-4.25z" transform="translate(1 1) translate(59 47)"/>
        </g>
        <path fill="#0E2B6C" d="M36.525 68c-.172 0-.345-.021-.517-.063-1.128-.281-1.81-1.428-1.528-2.55l.172-.676c.404-1.617-.092-3.247-1.334-4.365-1.242-1.121-2.921-1.445-4.492-.873-1.094.399-2.302-.164-2.698-1.256-.4-1.092.169-2.298 1.259-2.693 3.022-1.1 6.369-.437 8.751 1.701 2.383 2.138 3.38 5.398 2.602 8.502l-.173.681c-.24.958-1.099 1.592-2.042 1.592z" transform="translate(1 1)"/>
        <path fill="#0E2B6C" fill-rule="nonzero" d="M28.5 43c-3.584 0-6.5-2.916-6.5-6.5s2.916-6.5 6.5-6.5 6.5 2.916 6.5 6.5-2.916 6.5-6.5 6.5zm0-8.667c-1.196 0-2.167.975-2.167 2.167 0 1.192.971 2.167 2.167 2.167 1.196 0 2.167-.975 2.167-2.167 0-1.192-.971-2.167-2.167-2.167z" transform="translate(1 1)"/>
        <path fill="#0E2B6C" d="M51.689 58c-.49 0-.975-.179-1.362-.55C48.211 55.461 47 52.62 47 49.65 47 43.776 51.575 39 57.193 39c2.161 0 4.228.699 5.97 2.028.908.69 1.108 2.028.448 2.973-.665.955-1.941 1.16-2.85.469-1.04-.788-2.275-1.21-3.568-1.21-3.372 0-6.116 2.867-6.116 6.39 0 1.79.702 3.438 1.974 4.64.84.788.905 2.134.15 3.007-.4.464-.954.703-1.512.703zM48.501 30c-2.771 0-5.547-.954-7.706-2.857-.919-.806-1.059-2.276-.328-3.272.74-1 2.079-1.159 2.988-.354 2.738 2.41 7.35 2.41 10.087 0 .91-.81 2.249-.651 2.989.354.735 1 .59 2.466-.323 3.272C54.048 29.046 51.273 30 48.5 30z" transform="translate(1 1)"/>
        <path fill="#0E2B6C" d="M45.183 90c-2.935 0-5.04-2.464-6.898-4.637-1.033-1.209-2.32-2.713-3.163-2.936-.934-.244-2.806.399-4.45.977-2.646.922-5.645 1.967-8.085.566-2.474-1.444-3.064-4.569-3.58-7.324-.319-1.68-.676-3.583-1.338-4.243-.667-.66-2.578-1.016-4.26-1.337-2.767-.515-5.904-1.102-7.35-3.553-1.42-2.443-.366-5.434.564-8.07.576-1.633 1.23-3.484.98-4.419C7.38 54.18 5.87 52.9 4.657 51.87 2.474 50.019 0 47.923 0 45s2.474-5.019 4.656-6.87c1.213-1.029 2.724-2.31 2.948-3.146.25-.947-.405-2.794-.981-4.427-.93-2.636-1.984-5.627-.569-8.061 1.45-2.46 4.588-3.047 7.355-3.562 1.686-.317 3.593-.673 4.26-1.337.662-.66 1.02-2.567 1.338-4.243.516-2.755 1.106-5.88 3.571-7.32 2.462-1.41 5.453-.364 8.099.562 1.64.578 3.49 1.221 4.445.977.848-.223 2.134-1.723 3.167-2.936C40.144 2.464 42.25 0 45.183 0c2.935 0 5.039 2.464 6.898 4.637 1.032 1.209 2.32 2.713 3.163 2.936.929.244 2.805-.399 4.449-.977 2.646-.926 5.637-1.976 8.086-.566 2.474 1.444 3.063 4.569 3.58 7.324.318 1.68.675 3.583 1.338 4.243.667.66 2.578 1.016 4.26 1.337 2.767.515 5.904 1.102 7.35 3.553 1.42 2.443.366 5.434-.564 8.07-.577 1.633-1.23 3.484-.981 4.419.039.145.108.317.172.424.594 1.024.241 2.336-.787 2.927-1.029.596-2.346.244-2.94-.784-.3-.519-.486-1.063-.593-1.427-.603-2.25.25-4.655 1.071-6.982.56-1.585 1.326-3.763.904-4.487-.448-.763-2.745-1.187-4.424-1.504-2.414-.446-4.905-.917-6.51-2.516-1.605-1.598-2.074-4.084-2.526-6.48-.314-1.676-.745-3.964-1.52-4.41-.718-.42-2.9.352-4.492.904-2.336.815-4.759 1.663-6.975 1.076-2.143-.566-3.765-2.46-5.336-4.298-1.132-1.325-2.677-3.133-3.623-3.133-.947 0-2.492 1.808-3.62 3.128-1.57 1.839-3.192 3.737-5.344 4.299-2.216.6-4.638-.262-6.97-1.076-1.593-.557-3.775-1.32-4.506-.9-.762.446-1.192 2.734-1.506 4.41-.452 2.396-.917 4.882-2.526 6.48-1.61 1.599-4.097 2.07-6.51 2.516-1.679.317-3.977.741-4.429 1.513-.417.715.353 2.893.908 4.478.822 2.327 1.67 4.732 1.08 6.947-.563 2.135-2.47 3.75-4.316 5.315-1.325 1.123-3.14 2.661-3.14 3.604 0 .943 1.815 2.481 3.14 3.604 1.846 1.565 3.753 3.18 4.316 5.323.59 2.212-.258 4.612-1.08 6.939-.56 1.585-1.325 3.763-.903 4.487.447.763 2.745 1.187 4.423 1.504 2.414.446 4.906.917 6.51 2.516 1.606 1.598 2.075 4.084 2.527 6.48.314 1.676.744 3.964 1.519 4.41.714.416 2.9-.352 4.492-.904 2.337-.819 4.751-1.68 6.976-1.076 2.143.566 3.765 2.46 5.336 4.298 1.131 1.325 2.676 3.133 3.623 3.133.942 0 2.41-1.71 3.584-3.09.62-.728 1.24-1.444 1.864-2.065.839-.836 2.203-.836 3.042 0 .839.835.839 2.194 0 3.03-.547.548-1.089 1.178-1.631 1.817C50.2 87.56 48.113 90 45.182 90z" transform="translate(1 1)"/>
    </g>
</svg>
