<svg xmlns="http://www.w3.org/2000/svg" viewBox="0 0 60 50">
    <g fill="none" stroke="#FFF" stroke-width=".6">
        <path fill="#0E2B6C" d="M59.503 24.355h0l-5.731-11.383c-1.047-2.079-3.15-3.37-5.493-3.37H40.92V6.395C40.92 3.035 38.166.3 34.78.3H6.44C3.055.3.3 3.035.3 6.395v37.21c0 .797.652 1.444 1.457 1.444h4.57l.062.217c.744 2.6 3.147 4.434 5.907 4.434 2.76 0 5.163-1.833 5.907-4.434l.062-.217h23.427l.062.217c.744 2.6 3.147 4.434 5.907 4.434 2.76 0 5.163-1.833 5.907-4.434l.062-.217h4.57c.805 0 1.457-.647 1.457-1.444V25c0-.224-.053-.445-.154-.645zM48.28 12.491c1.229 0 2.336.68 2.886 1.772l4.68 9.293h-3.77l-.084-.165-1.856-3.687c-.36-.714-1.235-1.004-1.955-.646-.72.357-1.01 1.223-.651 1.936l1.29 2.562H40.92V12.49h7.359zM12.296 46.81c-1.78 0-3.228-1.437-3.228-3.206 0-1.77 1.448-3.207 3.228-3.207 1.78 0 3.227 1.438 3.227 3.207s-1.448 3.207-3.227 3.207zm0-9.302c-2.76 0-5.163 1.834-5.907 4.434l-.062.217H3.213V6.395c0-1.769 1.448-3.207 3.228-3.207H34.78c1.779 0 3.227 1.438 3.227 3.207V42.16H18.265l-.062-.217c-.744-2.6-3.148-4.434-5.907-4.434zm35.365 9.303c-1.78 0-3.228-1.438-3.228-3.207 0-1.77 1.448-3.207 3.228-3.207 1.78 0 3.227 1.438 3.227 3.207s-1.448 3.207-3.227 3.207zm5.907-4.87c-.744-2.6-3.148-4.433-5.907-4.433-2.76 0-5.163 1.834-5.907 4.434l-.062.217h-.772V26.444h15.824v4.089h-3.228c-.805 0-1.457.647-1.457 1.444 0 .797.652 1.444 1.457 1.444h3.228v8.74H53.63l-.062-.218z"/>
        <path fill="#F15A24" d="M29.149 32.168c.816 0 1.477-.656 1.477-1.463V19.788l.494.42.029.024c.271.231.61.353.961.353.43 0 .839-.182 1.124-.511.53-.613.458-1.535-.16-2.06L21.816 8.444c-.554-.47-1.371-.47-1.925 0L8.635 18.013c-.618.526-.69 1.448-.16 2.06.531.615 1.465.686 2.085.16l.523-.445v10.917c0 .807.66 1.463 1.477 1.463h16.589zM14.037 17.277l6.817-5.795 6.817 5.795v11.965h-5.34v-3.237c0-.807-.66-1.463-1.477-1.463-.816 0-1.477.656-1.477 1.463v3.237h-5.34V17.277z"/>
        <path fill="#F15A24" d="M19.356 20.48h2.346c.81 0 1.46-.599 1.46-1.324 0-.725-.65-1.324-1.46-1.324h-2.346c-.812 0-1.46.599-1.46 1.324 0 .725.648 1.323 1.46 1.323z"/>
    </g>
</svg>
