<svg viewBox="0 0 46 46" fill="none" xmlns="http://www.w3.org/2000/svg">
<path d="M22.5391 30.4634C22.6727 30.5969 22.8264 30.6635 23.0001 30.6635C23.1738 30.6635 23.3273 30.597 23.4607 30.4634L32.8002 21.1244C32.9337 20.9908 33 20.8371 33 20.6634C33 20.4898 32.9332 20.336 32.8002 20.2025L31.7982 19.2003C31.6647 19.0667 31.5109 19 31.3371 19C31.1636 19 31.0099 19.0667 30.8764 19.2003L23.0001 27.0763L15.1242 19.2003C14.9906 19.0667 14.8369 19 14.6632 19C14.4895 19 14.3358 19.0667 14.2023 19.2003L13.2005 20.2025C13.0667 20.336 13 20.4895 13 20.6634C13 20.8374 13.0669 20.9909 13.2005 21.1244L22.5391 30.4634Z" fill="#D68A38"/>
<path fill-rule="evenodd" clip-rule="evenodd" d="M23 45C10.8497 45 1 35.1503 1 23C1 10.8497 10.8497 1 23 1C35.1503 1 45 10.8497 45 23C45 35.1503 35.1503 45 23 45Z" stroke="#D68A38" stroke-width="2"/>
</svg>
