<svg viewBox="0 0 15 15" fill="none" xmlns="http://www.w3.org/2000/svg">
<path d="M10.725 1.475L9.375 0.125003C9.275 0.0250031 9.075 0.0250031 8.975 0.125003L8.475 0.625003L7.975 0.125003C7.875 0.0250031 7.675 0.0250031 7.575 0.125003L6.225 1.475H2C0.9 1.475 0 2.375 0 3.475V13.175C0 14.15 0.8 14.975 1.8 14.975H15V11.475V7.975V5.475V4.975V1.475H10.725ZM9.175 0.625003L10.025 1.475L13.525 4.975H12.175L9.375 2.15C9.275 2.05 9.1 2.05 9 2.15L6.175 4.975H4.825L8.825 0.975003L9.175 0.625003ZM11.475 4.975H6.875L9.175 2.675L11.475 4.975ZM7.75 0.625003L8.1 0.975003L4.1 4.975H3.375L6.875 1.475L7.75 0.625003ZM2 1.975H5.7L5.175 2.5C5.1 2.575 5.125 2.55 5.025 2.65L2.7 4.975H2C1.175 4.975 0.5 4.3 0.5 3.475C0.5 2.65 1.175 1.975 2 1.975ZM14.5 10.975H11.75C11.05 10.975 10.5 10.425 10.5 9.725C10.5 9.025 11.05 8.475 11.75 8.475H14.5V10.975ZM0.5 11.975V5.125C0.5 4.85 0.5 4.925 0.5 4.85C0.5 4.825 0.55 4.875 0.55 4.85C0.575 4.875 0.6 4.9 0.625 4.925C0.65 4.95 0.675 4.975 0.7 4.975C0.7 5 0.75 5.025 0.775 5.05C0.8 5.075 0.825 5.075 0.85 5.1C0.875 5.125 0.9 5.15 0.95 5.15C0.975 5.175 1 5.175 1.025 5.2C1.05 5.225 1.075 5.25 1.1 5.25C1.125 5.275 1.15 5.275 1.175 5.3C1.2 5.325 1.25 5.325 1.275 5.35C1.3 5.35 1.325 5.375 1.35 5.375C1.4 5.4 1.425 5.4 1.475 5.4C1.5 5.4 1.525 5.425 1.55 5.425C1.6 5.425 1.65 5.45 1.7 5.45C1.725 5.45 1.75 5.45 1.775 5.45C1.85 5.45 1.925 5.45 2 5.45H2.95H3.65H4.375H5.075H6.325H12.025H13.275H13.975H14.5V5.95H14.25C14.1 5.95 14 6.2 14 6.2C14 6.2 14.1 6.45 14.25 6.45H14.5V7.95H11.75C10.775 7.95 10 8.725 10 9.7C10 10.675 10.775 11.45 11.75 11.45H14.5V13.45H14.25C14.1 13.45 14 13.7 14 13.7C14 13.7 14.1 13.95 14.25 13.95H14.5V14.45H1.8C1.1 14.45 0.5 13.875 0.5 13.15V12.6V11.975ZM11.95 2.7L11.825 2.55L11.725 2.45L11.225 1.95H14.5V4.95H14.225L12.225 2.95L12.175 2.9" fill="#FFFFFF"/>
</svg>
