<svg viewBox="0 0 30 30" fill="none" xmlns="http://www.w3.org/2000/svg">
<path d="M15 29.9996C6.7286 29.9996 0 23.271 0 15.001C0 6.73026 6.7286 0.000976562 15 0.000976562C23.2714 0.000976562 30 6.72958 30 15.001C30 23.2724 23.27 29.9996 15 29.9996ZM15 1.0182C7.29011 1.0182 1.01723 7.29109 1.01723 15.001C1.01723 22.7109 7.29011 28.9838 15 28.9838C22.7099 28.9838 28.9828 22.7109 28.9828 15.001C28.9828 7.29109 22.7099 1.0182 15 1.0182Z" fill="#FFFFFF"/>
<path d="M21.3172 15.5086H8.68391C8.40315 15.5086 8.17529 15.2807 8.17529 14.9999C8.17529 14.7192 8.40315 14.4913 8.68391 14.4913H21.3165C21.5972 14.4913 21.8251 14.7192 21.8251 14.9999C21.8251 15.2807 21.5979 15.5086 21.3172 15.5086Z" fill="#FFFFFF"/>
<path d="M14.9998 21.8249C14.7191 21.8249 14.4912 21.597 14.4912 21.3163V8.68439C14.4912 8.40364 14.7191 8.17578 14.9998 8.17578C15.2806 8.17578 15.5084 8.40364 15.5084 8.68439V21.3156C15.5084 21.597 15.2806 21.8249 14.9998 21.8249Z" fill="#FFFFFF"/>
</svg>
