<svg viewBox="0 0 20 20" fill="none" xmlns="http://www.w3.org/2000/svg">
<path d="M10 8.66667C11.2867 8.66667 12.3334 7.61967 12.3334 6.33333C12.3334 5.047 11.2867 4 10 4C8.71335 4 7.66669 5.047 7.66669 6.33333C7.66669 7.61967 8.71335 8.66667 10 8.66667ZM10 4.66667C10.919 4.66667 11.6667 5.41433 11.6667 6.33333C11.6667 7.25233 10.919 8 10 8C9.08102 8 8.33335 7.25233 8.33335 6.33333C8.33335 5.41433 9.08102 4.66667 10 4.66667Z" fill="#FFFFFF"/>
<path d="M9.94099 18.2523L15.0547 10.8667C16.9727 8.30967 16.6953 4.10667 14.461 1.87267C13.2537 0.665 11.6483 0 9.94099 0C8.23366 0 6.62832 0.665 5.42099 1.87233C3.18666 4.10633 2.90932 8.30933 4.81966 10.8563L9.94099 18.2523ZM5.89232 2.34367C6.97399 1.26233 8.41166 0.666667 9.94099 0.666667C11.4703 0.666667 12.908 1.26233 13.9897 2.34367C16.0063 4.36 16.2547 8.156 14.514 10.4767L9.94099 17.081L5.36066 10.4667C3.62732 8.156 3.87599 4.36 5.89232 2.34367Z" fill="#FFFFFF"/>
<path d="M14.039 14.3356C13.8557 14.3133 13.6903 14.4446 13.669 14.6276C13.6477 14.8106 13.7783 14.9763 13.961 14.9976C17.4663 15.4103 19.3333 16.5223 19.3333 17.1666C19.3333 18.0713 15.7827 19.3333 10 19.3333C4.21733 19.3333 0.666667 18.0713 0.666667 17.1666C0.666667 16.5223 2.53367 15.4103 6.039 14.9976C6.22167 14.9763 6.35233 14.8103 6.331 14.6276C6.30933 14.4446 6.144 14.3126 5.961 14.3356C2.45133 14.7489 0 15.9129 0 17.1666C0 18.5746 3.435 19.9999 10 19.9999C16.565 19.9999 20 18.5746 20 17.1666C20 15.9129 17.5487 14.7489 14.039 14.3356Z" fill="#FFFFFF"/>
</svg>
