<svg viewBox="0 0 15 15" fill="none" xmlns="http://www.w3.org/2000/svg">
<g clip-path="url(#clip0)">
<path d="M5.1344 7.94843C4.92756 7.7416 4.59145 7.7416 4.38462 7.94843C4.17778 8.15527 4.17778 8.49138 4.38462 8.69821L6.09488 10.2532C6.1983 10.3566 6.32757 10.4083 6.46977 10.4083C6.4827 10.4083 6.4827 10.4083 6.49562 10.4083C6.63782 10.3954 6.78002 10.3307 6.88344 10.2144L12.998 2.88467C13.179 2.6649 13.1531 2.3288 12.9334 2.13489C12.7136 1.95391 12.3775 1.97976 12.1836 2.19952L6.43099 9.08972L5.1344 7.94843Z" fill="#2ED47A"/>
<path d="M11.46 1.13949C8.48671 -0.722026 4.67318 -0.282501 2.19116 2.19952C-0.730387 5.12107 -0.730387 9.89121 2.19116 12.8128C3.65193 14.2735 5.57809 15.0104 7.49131 15.0104C9.40454 15.0104 11.3307 14.2735 12.7915 12.8128C15.2864 10.3178 15.713 6.49135 13.8386 3.5181C13.6834 3.27248 13.3603 3.19492 13.1146 3.35004C12.869 3.50517 12.7915 3.82835 12.9466 4.07397C14.5625 6.63355 14.1876 9.91706 12.0417 12.063C9.53381 14.5709 5.43589 14.5709 2.92801 12.063C0.420134 9.5551 0.420134 5.45718 2.92801 2.9493C5.07393 0.816312 8.34451 0.441423 10.9041 2.03147C11.1497 2.18659 11.4729 2.10903 11.628 1.86341C11.7831 1.6178 11.7056 1.29462 11.46 1.13949Z" fill="#2ED47A"/>
</g>
<defs>
<clipPath id="clip0">
<rect width="15" height="15" fill="white"/>
</clipPath>
</defs>
</svg>
