<svg viewBox="0 0 20 20" fill="none" xmlns="http://www.w3.org/2000/svg">
<path d="M4.33458 20C3.43603 20 2.53747 19.6581 1.85343 18.9741C0.485381 17.6061 0.485381 15.3799 1.85343 14.0118L10.7144 5.15083C11.6263 4.23892 13.1104 4.23959 14.0223 5.15083C14.9342 6.0631 14.9342 7.54713 14.0223 8.45905L8.97274 13.5085C8.84242 13.6389 8.63088 13.6389 8.50024 13.5085C8.36992 13.3779 8.36992 13.1664 8.50024 13.036L13.5498 7.98651C14.201 7.33524 14.201 6.27527 13.5498 5.62365C12.8985 4.97203 11.8382 4.97203 11.1869 5.62365L2.32593 14.4843C1.7896 15.021 1.49421 15.7341 1.49421 16.4929C1.49421 17.2515 1.7896 17.9649 2.32593 18.5016C3.43368 19.6093 5.23514 19.6087 6.34289 18.5016L17.3305 7.51397C18.8937 5.95044 18.8937 3.40642 17.3305 1.8429C16.573 1.08535 15.5658 0.6683 14.4948 0.6683C13.4238 0.6683 12.417 1.08535 11.6594 1.8429L1.50234 12C1.37167 12.1307 1.16017 12.1307 1.02984 12C0.899167 11.8697 0.899167 11.6581 1.02984 11.5275L11.1869 1.37039C12.0704 0.486559 13.2454 0 14.4948 0C15.7446 0 16.9191 0.486559 17.803 1.37039C18.6865 2.25427 19.1731 3.42882 19.1731 4.67825C19.1731 5.92804 18.6865 7.10259 17.803 7.98647L6.81539 18.9741C6.13135 19.6581 5.23279 20 4.33458 20Z" fill="white"/>
</svg>
