<svg width="15" height="30" viewBox="0 0 15 30" fill="none" xmlns="http://www.w3.org/2000/svg">
<path d="M6.27781 0.75H3.77782C3.63983 0.75 3.52783 0.862002 3.52783 0.999989C3.52783 1.13798 3.63983 1.24998 3.77782 1.24998H6.27781C6.4158 1.24998 6.5278 1.13798 6.5278 0.999989C6.5278 0.862002 6.4158 0.75 6.27781 0.75Z" fill="white"/>
<path d="M8.95214 1.48438H1.08495C0.946963 1.48438 0.834961 1.59637 0.834961 1.73435C0.834961 1.87234 0.946963 1.98434 1.08495 1.98434H8.95214C9.09013 1.98434 9.20214 1.87234 9.20214 1.73435C9.20214 1.59637 9.09013 1.48438 8.95214 1.48438Z" fill="white"/>
<path d="M8.95214 12.0068H1.08495C0.946963 12.0068 0.834961 12.1188 0.834961 12.2568C0.834961 12.3948 0.946963 12.5068 1.08495 12.5068H8.95214C9.09013 12.5068 9.20214 12.3948 9.20214 12.2568C9.20214 12.1188 9.09013 12.0068 8.95214 12.0068Z" fill="white"/>
<path d="M5.33831 12.75H4.71757C4.33732 12.75 4.02783 13.0595 4.02783 13.4397V13.5605C4.02783 13.9407 4.33732 14.25 4.71733 14.25H5.33808C5.71832 14.25 6.02781 13.9407 6.02781 13.5605V13.4397C6.02781 13.0595 5.71832 12.75 5.33831 12.75ZM5.52783 13.5605C5.52783 13.665 5.44284 13.75 5.33834 13.75H4.71757C4.61283 13.75 4.52781 13.665 4.52781 13.5605V13.4397C4.52781 13.335 4.6128 13.25 4.71757 13.25H5.33808C5.44284 13.25 5.52783 13.335 5.52783 13.4397V13.5605Z" fill="white"/>
<path d="M1.68158 0H8.37434C8.87235 0 9.27785 0.405498 9.27782 0.90375V2.79431L8.77781 2.92072V0.90375C8.77781 0.68127 8.59682 0.50001 8.37407 0.50001H1.68158C1.45884 0.50001 1.27784 0.68124 1.27784 0.90375V14.0965C1.27784 14.3187 1.45884 14.5 1.68158 14.5H8.37434C8.59685 14.5 8.77784 14.3188 8.77784 14.0963L8.77783 11.1758H9.27782V14.0965C9.27782 14.5945 8.87232 15 8.37407 15H1.68158C1.18333 15 0.777832 14.5945 0.777832 14.0963V0.90375C0.777832 0.405498 1.18333 0 1.68158 0Z" fill="white"/>
<path d="M14.027 5.95484H13.7925V4.37116C13.7925 3.99963 13.4998 3.7069 13.147 3.7069H12.9706V2.64861C12.9706 2.27708 12.6967 1.98438 12.3646 1.98438C12.3646 1.98438 12.3458 1.98438 12.3251 1.98438L5.63391 3.70502L5.6264 3.7069C5.29616 3.73317 5.02783 4.01652 5.02783 4.37116V10.5145C5.02783 10.886 5.32055 11.1787 5.67331 11.1787H13.147C13.5185 11.1787 13.8113 10.886 13.8113 10.5145V8.88951H14.027C14.1453 8.88951 14.2222 8.81072 14.2222 8.69438V6.15186C14.2222 6.03365 14.1246 5.95484 14.027 5.95484ZM12.3251 2.44052C12.4227 2.45928 12.5027 2.49287 12.5027 2.64861V3.70502H7.42301L12.3251 2.44052ZM13.3148 10.5145C13.3148 10.6702 13.1966 10.8072 13.0409 10.8072H5.78958C5.63384 10.8072 5.51562 10.6702 5.51562 10.5145V4.49353C5.51562 4.33779 5.63384 4.20081 5.78958 4.20081H13.0202C13.176 4.20081 13.2942 4.33779 13.2942 4.49353V5.95484H11.4639C10.642 5.95484 9.99654 6.60032 9.99654 7.42218C9.99654 8.24404 10.6608 8.88951 11.4639 8.88951H13.3148V10.5145ZM13.83 8.51799H11.4639C10.8766 8.51799 10.3887 8.02825 10.3887 7.44281C10.3887 6.85737 10.8784 6.36763 11.4639 6.36763H13.83V8.51799Z" fill="white"/>
<path d="M11.145 7.49984C11.145 7.67249 11.2426 7.78484 11.3402 7.78484H11.5165C11.6141 7.78484 11.7117 7.66975 11.7117 7.49984C11.7117 7.3272 11.6141 7.21484 11.5165 7.21484H11.342C11.2238 7.21484 11.145 7.32994 11.145 7.49984Z" fill="white"/>
<g clip-path="url(#clip0)">
<path d="M6.27781 15.75H3.77782C3.63983 15.75 3.52783 15.862 3.52783 16C3.52783 16.138 3.63983 16.25 3.77782 16.25H6.27781C6.4158 16.25 6.5278 16.138 6.5278 16C6.5278 15.862 6.4158 15.75 6.27781 15.75Z" fill="url(#paint0_linear)"/>
<path d="M8.95214 16.4844H1.08495C0.946963 16.4844 0.834961 16.5964 0.834961 16.7344C0.834961 16.8723 0.946963 16.9843 1.08495 16.9843H8.95214C9.09013 16.9843 9.20214 16.8723 9.20214 16.7344C9.20214 16.5964 9.09013 16.4844 8.95214 16.4844Z" fill="url(#paint1_linear)"/>
<path d="M8.95214 27.0068H1.08495C0.946963 27.0068 0.834961 27.1188 0.834961 27.2568C0.834961 27.3948 0.946963 27.5068 1.08495 27.5068H8.95214C9.09013 27.5068 9.20214 27.3948 9.20214 27.2568C9.20214 27.1188 9.09013 27.0068 8.95214 27.0068Z" fill="url(#paint2_linear)"/>
<path d="M5.33831 27.75H4.71757C4.33732 27.75 4.02783 28.0595 4.02783 28.4397V28.5605C4.02783 28.9407 4.33732 29.25 4.71733 29.25H5.33808C5.71832 29.25 6.02781 28.9407 6.02781 28.5605V28.4397C6.02781 28.0595 5.71832 27.75 5.33831 27.75ZM5.52783 28.5605C5.52783 28.665 5.44284 28.75 5.33834 28.75H4.71757C4.61283 28.75 4.52781 28.665 4.52781 28.5605V28.4397C4.52781 28.335 4.6128 28.25 4.71757 28.25H5.33808C5.44284 28.25 5.52783 28.335 5.52783 28.4397V28.5605Z" fill="url(#paint3_linear)"/>
<path d="M1.68158 15H8.37434C8.87235 15 9.27785 15.4055 9.27782 15.9038V17.7943L8.77781 17.9207V15.9038C8.77781 15.6813 8.59682 15.5 8.37407 15.5H1.68158C1.45884 15.5 1.27784 15.6812 1.27784 15.9038V29.0965C1.27784 29.3187 1.45884 29.5 1.68158 29.5H8.37434C8.59685 29.5 8.77784 29.3188 8.77784 29.0963L8.77783 26.1758H9.27782V29.0965C9.27782 29.5945 8.87232 30 8.37407 30H1.68158C1.18333 30 0.777832 29.5945 0.777832 29.0963V15.9038C0.777832 15.4055 1.18333 15 1.68158 15Z" fill="url(#paint4_linear)" stroke="url(#paint5_linear)" stroke-width="0.3"/>
<path d="M14.027 20.9548H13.7925V19.3712C13.7925 18.9996 13.4998 18.7069 13.147 18.7069H12.9706V17.6486C12.9706 17.2771 12.6967 16.9844 12.3646 16.9844C12.3646 16.9844 12.3458 16.9844 12.3251 16.9844L5.63391 18.705L5.6264 18.7069C5.29616 18.7332 5.02783 19.0165 5.02783 19.3712V25.5145C5.02783 25.886 5.32055 26.1787 5.67331 26.1787H13.147C13.5185 26.1787 13.8113 25.886 13.8113 25.5145V23.8895H14.027C14.1453 23.8895 14.2222 23.8107 14.2222 23.6944V21.1519C14.2222 21.0336 14.1246 20.9548 14.027 20.9548ZM12.3251 17.4405C12.4227 17.4593 12.5027 17.4929 12.5027 17.6486V18.705H7.42301L12.3251 17.4405ZM13.3148 25.5145C13.3148 25.6702 13.1966 25.8072 13.0409 25.8072H5.78958C5.63384 25.8072 5.51562 25.6702 5.51562 25.5145V19.4935C5.51562 19.3378 5.63384 19.2008 5.78958 19.2008H13.0202C13.176 19.2008 13.2942 19.3378 13.2942 19.4935V20.9548H11.4639C10.642 20.9548 9.99654 21.6003 9.99654 22.4222C9.99654 23.244 10.6608 23.8895 11.4639 23.8895H13.3148V25.5145ZM13.83 23.518H11.4639C10.8766 23.518 10.3887 23.0283 10.3887 22.4428C10.3887 21.8574 10.8784 21.3676 11.4639 21.3676H13.83V23.518Z" fill="url(#paint6_linear)" stroke="url(#paint7_linear)" stroke-width="0.3"/>
<path d="M11.145 22.4998C11.145 22.6725 11.2426 22.7848 11.3402 22.7848H11.5165C11.6141 22.7848 11.7117 22.6698 11.7117 22.4998C11.7117 22.3272 11.6141 22.2148 11.5165 22.2148H11.342C11.2238 22.2148 11.145 22.3299 11.145 22.4998Z" stroke="url(#paint8_linear)" stroke-width="0.2"/>
</g>
<defs>
<linearGradient id="paint0_linear" x1="3.32486" y1="16.0425" x2="7.14248" y2="16.0425" gradientUnits="userSpaceOnUse">
<stop stop-color="#8380D3"/>
<stop offset="1" stop-color="#119BF0"/>
</linearGradient>
<linearGradient id="paint1_linear" x1="0.268856" y1="16.7769" x2="10.9165" y2="16.7769" gradientUnits="userSpaceOnUse">
<stop stop-color="#8380D3"/>
<stop offset="1" stop-color="#119BF0"/>
</linearGradient>
<linearGradient id="paint2_linear" x1="0.268856" y1="27.2993" x2="10.9165" y2="27.2993" gradientUnits="userSpaceOnUse">
<stop stop-color="#8380D3"/>
<stop offset="1" stop-color="#119BF0"/>
</linearGradient>
<linearGradient id="paint3_linear" x1="3.89252" y1="28.6275" x2="6.4376" y2="28.6275" gradientUnits="userSpaceOnUse">
<stop stop-color="#8380D3"/>
<stop offset="1" stop-color="#119BF0"/>
</linearGradient>
<linearGradient id="paint4_linear" x1="0.202741" y1="23.7749" x2="11.0194" y2="23.7749" gradientUnits="userSpaceOnUse">
<stop stop-color="#8380D3"/>
<stop offset="1" stop-color="#119BF0"/>
</linearGradient>
<linearGradient id="paint5_linear" x1="0.649123" y1="22.2359" x2="16.6168" y2="22.2359" gradientUnits="userSpaceOnUse">
<stop stop-color="#7982D5"/>
<stop offset="1" stop-color="#2795EA"/>
</linearGradient>
<linearGradient id="paint6_linear" x1="4.40576" y1="22.363" x2="16.1061" y2="22.363" gradientUnits="userSpaceOnUse">
<stop stop-color="#8380D3"/>
<stop offset="1" stop-color="#119BF0"/>
</linearGradient>
<linearGradient id="paint7_linear" x1="4.88861" y1="21.4196" x2="22.1608" y2="21.4196" gradientUnits="userSpaceOnUse">
<stop stop-color="#7982D5"/>
<stop offset="1" stop-color="#2795EA"/>
</linearGradient>
<linearGradient id="paint8_linear" x1="11.4282" y1="22.2148" x2="11.4282" y2="22.7848" gradientUnits="userSpaceOnUse">
<stop offset="0.52" stop-color="#8380D3"/>
<stop offset="1" stop-color="#109CF1"/>
</linearGradient>
<clipPath id="clip0">
<rect width="15" height="15" fill="white" transform="translate(0 15)"/>
</clipPath>
</defs>
</svg>
