<svg viewBox="0 0 15 15" fill="none" xmlns="http://www.w3.org/2000/svg">
<path d="M7.5 0C3.375 0 0 3.375 0 7.5C0 11.625 3.375 15 7.5 15C11.625 15 15 11.625 15 7.5C15 3.375 11.625 0 7.5 0ZM1.16431 7.5C1.16431 4.2 4.2 1.11356 7.5 1.11356C8.85 1.11356 10.4613 1.70606 11.5113 2.53106L2.58085 11.6082C1.75585 10.5582 1.16431 8.85 1.16431 7.5ZM7.5 13.8501C6.15 13.8501 4.44567 13.1666 3.39567 12.3416L12.424 3.44367C13.249 4.49367 13.7681 6.15 13.7681 7.5C13.7681 10.8 10.8 13.8501 7.5 13.8501Z" fill="#EB5757"/>
</svg>
