<svg width="13" height="15" viewBox="0 0 13 15" fill="none" xmlns="http://www.w3.org/2000/svg">
<path d="M0.896773 8.92938L0.907467 8.78261C1.07929 6.54576 2.59359 5.31624 3.51242 4.07941C4.36323 2.93412 4.62528 1.77236 4.62528 0.313051C4.62528 0.195867 4.6909 0.088762 4.79496 0.0350335C4.89934 -0.0189879 5.02476 -0.0101406 5.11964 0.058851C6.49959 1.04635 7.65098 2.71074 8.05318 4.2988C8.3324 5.40442 8.67243 7.02302 8.67762 7.84391C9.95199 7.5717 9.93757 5.28967 9.94062 5.26893C9.95497 5.17006 10.0154 5.08399 10.1033 5.037C10.1921 4.99062 10.2964 4.98725 10.3865 5.03181C10.4533 5.06415 12.0267 5.86369 12.1183 9.05632C12.1247 9.16252 12.125 9.26871 12.125 9.37521C12.125 12.4766 9.60161 15 6.50021 15C3.39881 15 0.875417 12.4766 0.875417 9.37521C0.875417 9.21959 0.886081 9.07434 0.896773 8.92938ZM6.50021 14.375C7.53412 14.375 8.41984 13.514 8.41984 12.4126C8.41984 12.3751 8.42013 12.3372 8.41741 12.2909C8.41984 11.7099 8.41741 11.282 8.41741 10.9752C8.23612 11.3645 7.66961 12.0109 7.14349 12.0109C6.97076 12.0109 6.83099 11.8711 6.83099 11.6984C6.83099 11.2535 6.82182 10.7402 6.71105 10.277C6.61247 9.86591 6.09338 7.80836 5.79491 7.45804C5.66217 7.91274 5.6869 9.90159 5.43422 10.2608C5.0726 10.7747 4.69878 11.306 4.63316 12.212C4.6292 12.2657 4.62522 12.3197 4.62522 12.3777C4.62528 13.4791 5.4663 14.375 6.50021 14.375ZM4.52532 13.9667C4.20096 13.5244 4.00028 12.9776 4.00028 12.3777C4.00028 12.3042 4.00485 12.2358 4.01402 12.108C4.08817 11.0878 4.53159 10.4573 4.9231 9.90104C5.25663 9.42741 5.26088 7.39737 5.26088 6.81693C5.26088 6.69823 5.32803 6.58989 5.43422 6.5371C5.5398 6.48399 5.66736 6.49591 5.76166 6.56763C6.361 7.02048 7.14439 9.40362 7.31894 10.1314C7.40806 10.5047 7.43917 10.9084 7.45015 11.2404C7.66683 11.0073 8.33188 10.1372 8.33246 10.1314C8.3465 10.031 8.40814 9.94346 8.49816 9.89679C8.58757 9.85041 8.69468 9.84918 8.7847 9.89556C8.86345 9.93584 8.95733 10.7705 8.997 12.2298C8.99975 12.2792 9.00005 12.3286 9.00005 12.3778C9.00005 12.9776 8.79937 13.5244 8.47501 13.9668C10.2522 13.1994 11.4999 11.4308 11.4999 9.37526C11.4999 9.28158 11.5002 9.18821 11.4939 9.08412C11.4402 7.21101 10.8408 6.2821 10.4496 5.87228C10.1768 6.84879 9.76517 8.50096 8.36568 8.50096C8.19295 8.50096 8.05318 8.36119 8.05318 8.18846C8.05318 7.14266 7.72659 5.55855 7.44705 4.45202C7.12969 3.19839 6.26028 1.84469 5.21081 0.928291C5.03656 2.26676 4.78031 3.42089 4.01402 4.45202C3.1031 5.67816 1.68858 6.77339 1.53082 8.82655L1.52013 8.97608C1.51037 9.10609 1.5003 9.23579 1.5003 9.37523C1.50038 11.4308 2.74812 13.1993 4.52532 13.9667Z" fill="#FFB946"/>
</svg>
