<svg xmlns="http://www.w3.org/2000/svg" xmlns:xlink="http://www.w3.org/1999/xlink" viewBox="0 0 13.21 30.24"><defs><style>.cls-1{fill:none;}.cls-2{clip-path:url(#clip-path);}.cls-10,.cls-11,.cls-3,.cls-4,.cls-5,.cls-6,.cls-7,.cls-8,.cls-9{stroke-width:0.5px;}.cls-3{fill:url(#Безымянный_градиент_17);stroke:url(#Безымянный_градиент_18);}.cls-4{fill:url(#Безымянный_градиент_17-2);stroke:url(#Безымянный_градиент_18-2);}.cls-5{fill:url(#Безымянный_градиент_17-3);stroke:url(#Безымянный_градиент_18-3);}.cls-6{fill:url(#Безымянный_градиент_17-4);stroke:url(#Безымянный_градиент_18-4);}.cls-7{fill:url(#Безымянный_градиент_17-5);stroke:url(#Безымянный_градиент_18-5);}.cls-8{fill:url(#Безымянный_градиент_17-6);stroke:url(#Безымянный_градиент_18-6);}.cls-9{fill:url(#Безымянный_градиент_17-7);stroke:url(#Безымянный_градиент_18-7);}.cls-10{fill:url(#Безымянный_градиент_17-8);stroke:url(#Безымянный_градиент_18-8);}.cls-11{fill:url(#Безымянный_градиент_17-9);stroke:url(#Безымянный_градиент_18-9);}.cls-12{clip-path:url(#clip-path-2);}.cls-13{fill:#fff;}</style><clipPath id="clip-path" transform="translate(-0.89)"><rect class="cls-1" y="14.99" width="15" height="15"/></clipPath><linearGradient id="Безымянный_градиент_17" x1="7.67" y1="15.74" x2="7.67" y2="13.63" gradientTransform="matrix(1, 0, 0, -1, 0, 30.99)" gradientUnits="userSpaceOnUse"><stop offset="0" stop-color="#8380d3"/><stop offset="1" stop-color="#159aef"/></linearGradient><linearGradient id="Безымянный_градиент_18" x1="7.67" y1="15.74" x2="7.67" y2="13.63" gradientTransform="matrix(1, 0, 0, -1, 0, 30.99)" gradientUnits="userSpaceOnUse"><stop offset="0" stop-color="#8380d3"/><stop offset="1" stop-color="#179aef"/></linearGradient><linearGradient id="Безымянный_градиент_17-2" x1="7.5" y1="12.49" x2="7.5" y2="10.74" xlink:href="#Безымянный_градиент_17"/><linearGradient id="Безымянный_градиент_18-2" x1="7.5" y1="12.49" x2="7.5" y2="10.74" xlink:href="#Безымянный_градиент_18"/><linearGradient id="Безымянный_градиент_17-3" x1="9.96" y1="14.34" x2="9.96" y2="10.84" xlink:href="#Безымянный_градиент_17"/><linearGradient id="Безымянный_градиент_18-3" x1="9.96" y1="14.34" x2="9.96" y2="10.83" xlink:href="#Безымянный_градиент_18"/><linearGradient id="Безымянный_градиент_17-4" x1="5.14" y1="14.98" x2="5.14" y2="10.77" xlink:href="#Безымянный_градиент_17"/><linearGradient id="Безымянный_градиент_18-4" x1="5.14" y1="14.98" x2="5.14" y2="10.77" xlink:href="#Безымянный_градиент_18"/><linearGradient id="Безымянный_градиент_17-5" x1="7.1" y1="13.34" x2="7.1" y2="10.78" xlink:href="#Безымянный_градиент_17"/><linearGradient id="Безымянный_градиент_18-5" x1="7.1" y1="13.34" x2="7.1" y2="10.77" xlink:href="#Безымянный_градиент_18"/><linearGradient id="Безымянный_градиент_17-6" x1="7.5" y1="11.24" x2="7.5" y2="0.99" xlink:href="#Безымянный_градиент_17"/><linearGradient id="Безымянный_градиент_18-6" x1="7.5" y1="11.25" x2="7.5" y2="0.99" xlink:href="#Безымянный_градиент_18"/><linearGradient id="Безымянный_градиент_17-7" x1="9.41" y1="10.24" x2="9.41" y2="8.74" xlink:href="#Безымянный_градиент_17"/><linearGradient id="Безымянный_градиент_18-7" x1="9.41" y1="10.25" x2="9.41" y2="8.74" xlink:href="#Безымянный_градиент_18"/><linearGradient id="Безымянный_градиент_17-8" x1="5.59" y1="10.24" x2="5.59" y2="8.74" xlink:href="#Безымянный_градиент_17"/><linearGradient id="Безымянный_градиент_18-8" x1="5.59" y1="10.25" x2="5.59" y2="8.74" xlink:href="#Безымянный_градиент_18"/><linearGradient id="Безымянный_градиент_17-9" x1="7.5" y1="9.49" x2="7.5" y2="5.74" xlink:href="#Безымянный_градиент_17"/><linearGradient id="Безымянный_градиент_18-9" x1="7.5" y1="9.5" x2="7.5" y2="5.74" xlink:href="#Безымянный_градиент_18"/><clipPath id="clip-path-2" transform="translate(-0.89)"><rect class="cls-1" width="15" height="14.99"/></clipPath></defs><title>Ресурс 2</title><g id="Слой_2" data-name="Слой 2"><g id="Слой_3" data-name="Слой 3"><g class="cls-2"><path class="cls-3" d="M9.64,17.07A2.16,2.16,0,0,0,7.5,15.25a2.18,2.18,0,0,0-1.75.87.25.25,0,0,0,.06.35.26.26,0,0,0,.36-.05,1.67,1.67,0,0,1,1.34-.67,1.65,1.65,0,0,1,1.64,1.39.25.25,0,0,0,.25.21h0A.25.25,0,0,0,9.64,17.07Z" transform="translate(-0.89)"/><path class="cls-4" d="M13.31,19.87l-.76-1.25a.25.25,0,0,0-.22-.12H11.6a.25.25,0,1,0,0,.5h.59l.46.75H2.36L2.81,19h.27a.25.25,0,1,0,0-.5H2.67a.25.25,0,0,0-.22.12l-.76,1.25a.25.25,0,0,0,0,.25.25.25,0,0,0,.22.13H13.09a.25.25,0,0,0,.22-.13A.25.25,0,0,0,13.31,19.87Z" transform="translate(-0.89)"/><path class="cls-5" d="M12,17.56a.25.25,0,0,0-.16-.11l-3.47-.8a.26.26,0,0,0-.19,0,.25.25,0,0,0-.11.16l-.26,1.1a.25.25,0,0,0,.19.3.25.25,0,0,0,.31-.19l.2-.85,3,.68-.47,2a.25.25,0,0,0,.19.3h.06a.25.25,0,0,0,.25-.19l.52-2.21A.25.25,0,0,0,12,17.56Z" transform="translate(-0.89)"/><path class="cls-6" d="M7.63,18.15,7.4,16.23a.25.25,0,0,0-.1-.17A.26.26,0,0,0,7.12,16l-4.25.49a.25.25,0,0,0-.22.28L3,20a.25.25,0,0,0,.25.22h0a.25.25,0,0,0,.22-.28l-.36-3,3.75-.44.2,1.68a.25.25,0,0,0,.28.22A.25.25,0,0,0,7.63,18.15Z" transform="translate(-0.89)"/><path class="cls-7" d="M9.64,19.9l-.5-2.06A.25.25,0,0,0,9,17.68a.26.26,0,0,0-.19,0l-4.1,1a.25.25,0,0,0-.19.3l.25,1a.25.25,0,0,0,.31.18.25.25,0,0,0,.19-.3L5.1,19l3.6-.85L9.15,20a.25.25,0,0,0,.25.19h.06A.25.25,0,0,0,9.64,19.9Z" transform="translate(-0.89)"/><path class="cls-8" d="M13.35,20a.25.25,0,0,0-.25-.24H1.91a.25.25,0,0,0-.25.24l-.51,9.75a.25.25,0,0,0,.07.18A.26.26,0,0,0,1.4,30H13.6a.26.26,0,0,0,.18-.08.25.25,0,0,0,.07-.18ZM1.67,29.49l.48-9.25h10.7l.48,9.25Z" transform="translate(-0.89)"/><path class="cls-9" d="M9.41,20.75a.75.75,0,1,0,.76.75A.76.76,0,0,0,9.41,20.75Zm0,1a.25.25,0,1,1,.25-.25A.25.25,0,0,1,9.41,21.75Z" transform="translate(-0.89)"/><path class="cls-10" d="M5.59,20.75a.75.75,0,1,0,.76.75A.76.76,0,0,0,5.59,20.75Zm0,1a.25.25,0,1,1,.25-.25A.25.25,0,0,1,5.59,21.75Z" transform="translate(-0.89)"/><path class="cls-11" d="M9.41,21.5h0a.25.25,0,0,0-.25.25.24.24,0,0,0,0,.1v1.28a1.65,1.65,0,0,1-3.31,0V21.75a.25.25,0,0,0-.51,0v1.37a2.16,2.16,0,0,0,4.32,0V21.75A.25.25,0,0,0,9.41,21.5Z" transform="translate(-0.89)"/></g></g><g id="Слой_1-2" data-name="Слой 1"><g class="cls-12"><path class="cls-13" d="M9.64,1.85a2.16,2.16,0,0,0-3.89-1,.25.25,0,1,0,.41.3,1.65,1.65,0,0,1,3,.74.25.25,0,0,0,.25.22h0A.25.25,0,0,0,9.64,1.85Z" transform="translate(-0.89)"/><path class="cls-13" d="M13.31,4.7l-.76-1.27a.25.25,0,0,0-.22-.12H11.6a.25.25,0,1,0,0,.51h.59l.46.76H2.36l.46-.76h.27a.25.25,0,1,0,0-.51H2.67a.25.25,0,0,0-.22.12L1.69,4.7a.25.25,0,0,0,.22.38H13.09a.25.25,0,0,0,.22-.38Z" transform="translate(-0.89)"/><path class="cls-13" d="M12,2.35a.25.25,0,0,0-.16-.11L8.42,1.43a.25.25,0,0,0-.31.19L7.85,2.74a.25.25,0,0,0,.5.12L8.55,2l3,.69-.47,2a.25.25,0,0,0,.19.31h.06a.25.25,0,0,0,.25-.2l.52-2.24A.25.25,0,0,0,12,2.35Z" transform="translate(-0.89)"/><path class="cls-13" d="M7.63,3,7.4,1A.25.25,0,0,0,7.12.77l-4.25.5a.25.25,0,0,0-.22.28L3,4.83A.25.25,0,0,0,3.28,5h0a.25.25,0,0,0,.22-.28l-.36-3,3.75-.44L7.13,3A.25.25,0,0,0,7.63,3Z" transform="translate(-0.89)"/><path class="cls-13" d="M9.64,4.73l-.5-2.1a.25.25,0,0,0-.31-.19l-4.1,1a.25.25,0,0,0-.19.31l.25,1a.25.25,0,0,0,.49-.12l-.19-.8L8.71,3l.45,1.85A.25.25,0,0,0,9.4,5h.06A.25.25,0,0,0,9.64,4.73Z" transform="translate(-0.89)"/><path class="cls-13" d="M13.35,4.82a.25.25,0,0,0-.25-.24H1.91a.25.25,0,0,0-.25.24l-.51,9.91A.25.25,0,0,0,1.4,15H13.6a.25.25,0,0,0,.25-.27ZM1.67,14.49l.48-9.4h10.7l.48,9.4Z" transform="translate(-0.89)"/><path class="cls-13" d="M9.41,5.59a.76.76,0,1,0,.76.76A.76.76,0,0,0,9.41,5.59Zm0,1a.25.25,0,1,1,.25-.25A.25.25,0,0,1,9.41,6.61Z" transform="translate(-0.89)"/><path class="cls-13" d="M5.59,5.59a.76.76,0,1,0,.76.76A.76.76,0,0,0,5.59,5.59Zm0,1a.25.25,0,1,1,.25-.25A.25.25,0,0,1,5.59,6.61Z" transform="translate(-0.89)"/><path class="cls-13" d="M9.41,6.35h0a.25.25,0,0,0-.25.25.25.25,0,0,0,0,.1V8A1.65,1.65,0,0,1,5.85,8V6.61a.25.25,0,0,0-.51,0V8A2.16,2.16,0,0,0,9.66,8V6.61A.25.25,0,0,0,9.41,6.35Z" transform="translate(-0.89)"/></g></g></g></svg>