<svg xmlns="http://www.w3.org/2000/svg" xmlns:xlink="http://www.w3.org/1999/xlink" viewBox="0 0 15 30"><defs><style>.cls-1,.cls-4{fill:none;}.cls-2{clip-path:url(#clip-path);}.cls-3{fill:url(#Безымянный_градиент_3);}.cls-4{stroke-width:0.5px;stroke:url(#Безымянный_градиент_2);}.cls-5{fill:#fff;}</style><clipPath id="clip-path"><rect class="cls-1" y="15" width="15" height="15"/></clipPath><linearGradient id="Безымянный_градиент_3" x1="7.5" y1="16.25" x2="7.5" y2="2.75" gradientTransform="matrix(1, 0, 0, -1, 0, 32)" gradientUnits="userSpaceOnUse"><stop offset="0" stop-color="#8380d3"/><stop offset="1" stop-color="#109cf1"/></linearGradient><linearGradient id="Безымянный_градиент_2" x1="7.5" y1="16.25" x2="7.5" y2="2.75" gradientTransform="matrix(1, 0, 0, -1, 0, 32)" gradientUnits="userSpaceOnUse"><stop offset="0.52" stop-color="#8380d3"/><stop offset="1" stop-color="#109cf1"/></linearGradient></defs><title>Монтажная область 1</title><g id="Слой_2" data-name="Слой 2"><g class="cls-2"><path class="cls-3" d="M0,20.25V22c0,.47.6.85,1.5,1.13v1.63a.73.73,0,0,0,0,.23c-.52.22-.77.47-.8.77V27.5c0,.82,1.88,1.35,3.95,1.6h.08c.4,0,.8.07,1.2.1H6c.5,0,1,.05,1.47.05s1,0,1.48-.05H9c.4,0,.8-.05,1.2-.1h.07c2.07-.25,3.95-.75,3.95-1.6V25.75c0-.05,0-.1,0-.15.5-.23.77-.53.77-.85V23c0-.43-.52-.75-1.5-1V20.25a.23.23,0,0,0,0-.12c.9-.28,1.52-.65,1.52-1.12V17.25c-.1-1.45-6.05-1.5-6.75-1.5s-6.65.05-6.75,1.5V19a.73.73,0,0,0,0,.22C.52,19.5,0,19.82,0,20.25Zm2,4.5v-1a3.51,3.51,0,0,0,.75.35v1.18a2.52,2.52,0,0,1-.65-.35L2,24.82A.09.09,0,0,1,2,24.75ZM7.15,26H7V24.73l.75,0H8V26H7.63Zm1.5,0H8.5V24.75h.25c.25,0,1-.05,1.25-.05v1.25L9.1,26H8.65Zm4.48-.55-.62.15V24.38a5.53,5.53,0,0,0,.75-.18v1.2h0A.13.13,0,0,1,13.13,25.45ZM8,27.5c.25,0,1-.05,1.25-.05V28.7c-.32,0-1.15.05-1.5.05V27.5H8Zm-.95,0h.2v1.25l-1,0V27.48l.75,0Zm-.8,0v1.25L5,28.63V27.38ZM4.5,28.57a5.86,5.86,0,0,1-.75-.12V27.23c.25,0,.5.07.75.1Zm-.75-.12c-.28-.05-1-.22-1.25-.27V27c.22.07,1,.2,1.25.25Zm8.75-1.5v1.2a5.53,5.53,0,0,1-.75.18V27.1A3.32,3.32,0,0,0,12.5,26.95Zm-.75,1.4c-.23,0-1,.17-1.25.2V27.32c.25,0,1-.15,1.25-.2ZM10,28.63l-.75.07V27.45L10,27.4Zm0-2.68V24.7l.75-.05V25.9h-.12A5.26,5.26,0,0,0,10,25.95Zm2.5-1.57V25.6c-.23,0-1,.17-1.25.2V24.57C11.5,24.55,12.25,24.43,12.5,24.38ZM6.22,25.93l-.47-.05V24.63l1.25.1V26l-.68-.05ZM4.5,25.7V24.48c.25,0,.5.07.75.1V25.8A6.07,6.07,0,0,1,4.5,25.7Zm0,0c-.28-.05-1-.22-1.25-.27v-1.2c.22.07,1,.2,1.25.25Zm2.88-2.45H7V22h.25c.25,0,1-.05,1.25-.05V23.2l-.53,0-.55,0Zm5.6-3.5-.37.1s-.05,0-.1,0V18.65a5.53,5.53,0,0,0,.75-.18v1.2ZM8.75,19,10,19V20.2c-.32,0-1.18.05-1.5.05V19h.25ZM7.8,19H8v1.25H7.65a3.19,3.19,0,0,1-.5,0H7V19l.75,0ZM2,19V18a3.51,3.51,0,0,0,.75.35V19.5a2.65,2.65,0,0,1-.6-.3L2,19.13A.42.42,0,0,1,2,19Zm2.5.95V18.72c.25.05.5.08.75.1v1.23A6.07,6.07,0,0,1,4.5,19.95Zm-1.25-.27v-1.2c.22.08,1,.2,1.25.25v1.22C4.22,19.9,3.47,19.72,3.25,19.68ZM7,19v1.25l-1.25-.1V18.88Zm3,1.2V18.92l.75,0v1.25C10.5,20.15,10.25,20.18,10,20.18Zm2.5-1.55v1.22l-.57.1a2.53,2.53,0,0,1-.43.08.19.19,0,0,0-.1,0,.32.32,0,0,0-.15,0V18.85Zm-4,4.57V21.95l.75,0v1.25H9.13l-.48.05h-.1S8.52,23.18,8.5,23.2Zm1.7-.2-.45.07V21.85c.25,0,1-.15,1.25-.2v1.22C10.9,22.88,10.32,23,10.2,23Zm1.55-1.55v1.2c-.23.07-.48.13-.75.2V21.63A5.53,5.53,0,0,0,11.75,21.45ZM13,21V22l0,0a1.37,1.37,0,0,1-.73.45V21.3A3.54,3.54,0,0,0,13,21ZM6.3,22h.2v1.25l-1,0V22l.75,0ZM3,22.95V21.72c.25.05.5.08.75.1v1.23l-.2,0-.2,0A2,2,0,0,1,3,22.95Zm1.7.23a2.75,2.75,0,0,1-.45-.05V21.88L5.5,22v1.25l-.78-.05Zm-2.95-.5v-1.2c.23.08,1,.2,1.25.25v1.22l-.55-.1-.2,0-.4-.1Zm.2-3s0,0,0,0,0,0,.1,0l.08.05a1.48,1.48,0,0,0,.2.1s0,0,0,0l.2.07s0,0,0,0a1,1,0,0,1,.25.1l.1,0,.15.05a19.5,19.5,0,0,0,4.67.57h1c.32,0,.63,0,.93-.05s.85,0,1.25-.1c.57-.07,1.13-.15,1.63-.25l.3-.07H13v0c0,.17-.4.4-1.1.6a16.55,16.55,0,0,1-4,.6H5.6a16.55,16.55,0,0,1-4-.6C.9,20.7.5,20.45.47,20.3S.82,19.9,2,19.65ZM14.5,17.28c0,.17-.43.4-1.1.6a16.55,16.55,0,0,1-4,.6H7.13a16.55,16.55,0,0,1-4-.6c-.67-.2-1.07-.42-1.1-.6,0-.38,2.13-1,6.25-1S14.45,16.9,14.5,17.28Zm-.75,2.22V18.3A3.51,3.51,0,0,0,14.5,18v1C14.5,19.15,14.23,19.32,13.75,19.5ZM14.5,23c0,.18-.4.4-1.1.6a16.55,16.55,0,0,1-4,.6H7.43a17.61,17.61,0,0,1-4.33-.6,5.82,5.82,0,0,1-.75-.3,22.38,22.38,0,0,0,2.88.38l1,.05h1c.35,0,.7,0,1.05-.05a17.41,17.41,0,0,0,2.82-.35l.2-.05s.05,0,.05,0a4.09,4.09,0,0,0,1.93-.82h0C14.23,22.68,14.48,22.93,14.5,23Zm-.6,2.18-.15.05v-1.2a3.51,3.51,0,0,0,.75-.35v1.05Q14.5,24.94,13.9,25.2ZM13,28V26.8a3.51,3.51,0,0,0,.75-.35V27.5C13.75,27.65,13.48,27.82,13,28ZM1.25,27.5v-1a3.51,3.51,0,0,0,.75.35V28C1.52,27.82,1.25,27.65,1.25,27.5Zm.65-2.12.08.05.07.05.08,0A6.49,6.49,0,0,0,4,26.1H4l.25,0c.4.08.8.13,1.25.2h0c.4,0,.82.07,1.25.1l1.07.05H8.6c.4,0,.8,0,1.17-.05A18.93,18.93,0,0,0,13.1,26s.07,0,.13,0l.07,0a.77.77,0,0,1,.2-.05h0l.23-.07c-.05.18-.43.38-1.1.6a16.55,16.55,0,0,1-4,.6H6.38a16.55,16.55,0,0,1-4-.6c-.67-.2-1.07-.42-1.1-.6S1.4,25.55,1.9,25.38ZM.5,22V21a3.51,3.51,0,0,0,.75.35V22.5C.77,22.32.5,22.15.5,22Z"/><path class="cls-4" d="M3,22.95V21.72c.25.05.5.08.75.1v1.23l-.2,0-.2,0A2,2,0,0,1,3,22.95Zm0,0Zm-3-2.7V22c0,.47.6.85,1.5,1.13v1.63a.73.73,0,0,0,0,.23c-.52.22-.77.47-.8.77V27.5c0,.82,1.88,1.35,3.95,1.6h.08c.4,0,.8.07,1.2.1H6c.5,0,1,.05,1.47.05s1,0,1.48-.05H9c.4,0,.8-.05,1.2-.1h.07c2.07-.25,3.95-.75,3.95-1.6V25.75c0-.05,0-.1,0-.15.5-.23.77-.53.77-.85V23c0-.43-.52-.75-1.5-1V20.25a.23.23,0,0,0,0-.12c.9-.28,1.52-.65,1.52-1.12V17.25c-.1-1.45-6.05-1.5-6.75-1.5s-6.65.05-6.75,1.5V19a.73.73,0,0,0,0,.22C.52,19.5,0,19.82,0,20.25Zm2,4.5v-1a3.51,3.51,0,0,0,.75.35v1.18a2.52,2.52,0,0,1-.65-.35L2,24.82A.09.09,0,0,1,2,24.75ZM7.15,26H7V24.73l.75,0H8V26H7.63Zm1.5,0H8.5V24.75h.25c.25,0,1-.05,1.25-.05v1.25L9.1,26H8.65Zm4.48-.55-.62.15V24.38a5.53,5.53,0,0,0,.75-.18v1.2h0A.13.13,0,0,1,13.13,25.45ZM8,27.5c.25,0,1-.05,1.25-.05V28.7c-.32,0-1.15.05-1.5.05V27.5H8Zm-.95,0h.2v1.25l-1,0V27.48l.75,0Zm-.8,0v1.25L5,28.63V27.38ZM4.5,28.57a5.86,5.86,0,0,1-.75-.12V27.23c.25,0,.5.07.75.1Zm-.75-.12c-.28-.05-1-.22-1.25-.27V27c.22.07,1,.2,1.25.25Zm8.75-1.5v1.2a5.53,5.53,0,0,1-.75.18V27.1A3.32,3.32,0,0,0,12.5,26.95Zm-.75,1.4c-.23,0-1,.17-1.25.2V27.32c.25,0,1-.15,1.25-.2ZM10,28.63l-.75.07V27.45L10,27.4Zm0-2.68V24.7l.75-.05V25.9h-.12A5.26,5.26,0,0,0,10,25.95Zm2.5-1.57V25.6c-.23,0-1,.17-1.25.2V24.57C11.5,24.55,12.25,24.43,12.5,24.38ZM6.22,25.93l-.47-.05V24.63l1.25.1V26l-.68-.05ZM4.5,25.7V24.48c.25,0,.5.07.75.1V25.8A6.07,6.07,0,0,1,4.5,25.7Zm0,0c-.28-.05-1-.22-1.25-.27v-1.2c.22.07,1,.2,1.25.25Zm2.88-2.45H7V22h.25c.25,0,1-.05,1.25-.05V23.2l-.53,0-.55,0Zm5.6-3.5-.37.1s-.05,0-.1,0V18.65a5.53,5.53,0,0,0,.75-.18v1.2ZM8.75,19,10,19V20.2c-.32,0-1.18.05-1.5.05V19h.25ZM7.8,19H8v1.25H7.65a3.19,3.19,0,0,1-.5,0H7V19l.75,0ZM2,19V18a3.51,3.51,0,0,0,.75.35V19.5a2.65,2.65,0,0,1-.6-.3L2,19.13A.42.42,0,0,1,2,19Zm2.5.95V18.72c.25.05.5.08.75.1v1.23A6.07,6.07,0,0,1,4.5,19.95Zm-1.25-.27v-1.2c.22.08,1,.2,1.25.25v1.22C4.22,19.9,3.47,19.72,3.25,19.68ZM7,19v1.25l-1.25-.1V18.88Zm3,1.2V18.92l.75,0v1.25C10.5,20.15,10.25,20.18,10,20.18Zm2.5-1.55v1.22l-.57.1a2.53,2.53,0,0,1-.43.08.19.19,0,0,0-.1,0,.32.32,0,0,0-.15,0V18.85Zm-4,4.57V21.95l.75,0v1.25H9.13l-.48.05h-.1S8.52,23.18,8.5,23.2Zm1.7-.2-.45.07V21.85c.25,0,1-.15,1.25-.2v1.22C10.9,22.88,10.32,23,10.2,23Zm1.55-1.55v1.2c-.23.07-.48.13-.75.2V21.63A5.53,5.53,0,0,0,11.75,21.45ZM13,21V22l0,0a1.37,1.37,0,0,1-.73.45V21.3A3.54,3.54,0,0,0,13,21ZM6.3,22h.2v1.25l-1,0V22l.75,0ZM4.7,23.18a2.75,2.75,0,0,1-.45-.05V21.88L5.5,22v1.25l-.78-.05Zm-2.95-.5v-1.2c.23.08,1,.2,1.25.25v1.22l-.55-.1-.2,0-.4-.1Zm.2-3s0,0,0,0,0,0,.1,0l.08.05a1.48,1.48,0,0,0,.2.1s0,0,0,0l.2.07s0,0,0,0a1,1,0,0,1,.25.1l.1,0,.15.05a19.5,19.5,0,0,0,4.67.57h1c.32,0,.63,0,.93-.05s.85,0,1.25-.1c.57-.07,1.13-.15,1.63-.25l.3-.07H13v0c0,.17-.4.4-1.1.6a16.55,16.55,0,0,1-4,.6H5.6a16.55,16.55,0,0,1-4-.6C.9,20.7.5,20.45.47,20.3S.82,19.9,2,19.65ZM14.5,17.28c0,.17-.43.4-1.1.6a16.55,16.55,0,0,1-4,.6H7.13a16.55,16.55,0,0,1-4-.6c-.67-.2-1.07-.42-1.1-.6,0-.38,2.13-1,6.25-1S14.45,16.9,14.5,17.28Zm-.75,2.22V18.3A3.51,3.51,0,0,0,14.5,18v1C14.5,19.15,14.23,19.32,13.75,19.5ZM14.5,23c0,.18-.4.4-1.1.6a16.55,16.55,0,0,1-4,.6H7.43a17.61,17.61,0,0,1-4.33-.6,5.82,5.82,0,0,1-.75-.3,22.38,22.38,0,0,0,2.88.38l1,.05h1c.35,0,.7,0,1.05-.05a17.41,17.41,0,0,0,2.82-.35l.2-.05s.05,0,.05,0a4.09,4.09,0,0,0,1.93-.82h0C14.23,22.68,14.48,22.93,14.5,23Zm-.6,2.18-.15.05v-1.2a3.51,3.51,0,0,0,.75-.35v1.05Q14.5,24.94,13.9,25.2ZM13,28V26.8a3.51,3.51,0,0,0,.75-.35V27.5C13.75,27.65,13.48,27.82,13,28ZM1.25,27.5v-1a3.51,3.51,0,0,0,.75.35V28C1.52,27.82,1.25,27.65,1.25,27.5Zm.65-2.12.08.05.07.05.08,0A6.49,6.49,0,0,0,4,26.1H4l.25,0c.4.08.8.13,1.25.2h0c.4,0,.82.07,1.25.1l1.07.05H8.6c.4,0,.8,0,1.17-.05A18.93,18.93,0,0,0,13.1,26s.07,0,.13,0l.07,0a.77.77,0,0,1,.2-.05h0l.23-.07c-.05.18-.43.38-1.1.6a16.55,16.55,0,0,1-4,.6H6.38a16.55,16.55,0,0,1-4-.6c-.67-.2-1.07-.42-1.1-.6S1.4,25.55,1.9,25.38ZM.5,22V21a3.51,3.51,0,0,0,.75.35V22.5C.77,22.32.5,22.15.5,22Z"/></g></g><g id="Слой_1" data-name="Слой 1"><path class="cls-5" d="M0,5.27V7c0,.48.6.85,1.5,1.13V9.77a.73.73,0,0,0,0,.22c-.52.23-.77.48-.8.78v1.75c0,.82,1.88,1.35,3.95,1.6h.08c.4.05.8.07,1.2.1H6c.5,0,1,.05,1.47.05s1,0,1.48-.05H9c.4,0,.8-.05,1.2-.1h.07c2.07-.25,3.95-.75,3.95-1.6V10.77c0-.05,0-.1,0-.15.5-.22.77-.52.77-.85V8c0-.43-.52-.75-1.5-1V5.27a.23.23,0,0,0,0-.12C14.38,4.87,15,4.5,15,4V2.27C14.9.82,8.95.77,8.25.77S1.6.82,1.5,2.27V4a.73.73,0,0,0,0,.23C.52,4.52,0,4.85,0,5.27Zm2,4.5v-1a3.51,3.51,0,0,0,.75.35v1.18a2.52,2.52,0,0,1-.65-.35L2,9.85A.09.09,0,0,1,2,9.77ZM7.15,11H7V9.75l.75,0H8V11H7.63Zm1.5,0H8.5V9.77h.25c.25,0,1-.05,1.25-.05V11L9.1,11H8.65Zm4.48-.55-.62.15V9.4a5.53,5.53,0,0,0,.75-.18v1.2h0A.13.13,0,0,1,13.13,10.47ZM8,12.52c.25,0,1-.05,1.25-.05v1.25c-.32,0-1.15.05-1.5.05V12.52H8Zm-.95,0h.2v1.25l-1,0V12.5l.75,0Zm-.8,0v1.25L5,13.65V12.4ZM4.5,13.6a5.86,5.86,0,0,1-.75-.12V12.25c.25.05.5.07.75.1Zm-.75-.12c-.28-.05-1-.23-1.25-.28V12c.22.07,1,.2,1.25.25ZM12.5,12v1.2a5.53,5.53,0,0,1-.75.18V12.12A3.32,3.32,0,0,0,12.5,12Zm-.75,1.4c-.23.05-1,.18-1.25.2V12.35c.25,0,1-.15,1.25-.2ZM10,13.65l-.75.07V12.47l.75-.05ZM10,11V9.72l.75-.05v1.25h-.12A5.26,5.26,0,0,0,10,11ZM12.5,9.4v1.22c-.23.05-1,.18-1.25.2V9.6C11.5,9.57,12.25,9.45,12.5,9.4ZM6.22,10.95l-.47,0V9.65L7,9.75V11l-.68-.05ZM4.5,10.72V9.5c.25.05.5.07.75.1v1.22A6.07,6.07,0,0,1,4.5,10.72Zm0,0c-.28-.05-1-.23-1.25-.28V9.25c.22.07,1,.2,1.25.25ZM7.38,8.27H7V7h.25L8.5,7V8.22L8,8.25l-.55,0ZM13,4.77l-.37.1s-.05,0-.1,0V3.67a5.53,5.53,0,0,0,.75-.17V4.7ZM8.75,4,10,4V5.22c-.32,0-1.18,0-1.5,0V4h.25ZM7.8,4H8V5.27H7.65a5,5,0,0,1-.62,0H7V4l.75,0ZM2,4V3a3.51,3.51,0,0,0,.75.35V4.52a2.65,2.65,0,0,1-.6-.3L2,4.15A.42.42,0,0,1,2,4ZM4.5,5V3.75c.25,0,.5.07.75.1V5.07A6.07,6.07,0,0,1,4.5,5ZM3.25,4.7V3.5c.22.08,1,.2,1.25.25V5C4.22,4.92,3.47,4.75,3.25,4.7ZM7,4V5.25l-1.28-.1V3.9Zm3,1.22V4l.75-.08V5.15C10.5,5.17,10.25,5.22,10,5.22Zm2.5-1.55V4.9L11.93,5l-.42.09s.27,0-.1,0l-.15,0V3.87C11.5,3.82,12.25,3.72,12.5,3.67Zm-4,4.55V7l.75-.05V8.17H9.13l-.48.05h-.1S8.52,8.2,8.5,8.22ZM10.2,8l-.45.07V6.87c.25,0,1-.15,1.25-.2V7.9C10.9,7.9,10.32,8,10.2,8Zm1.55-1.55v1.2L11,7.9V6.67A5.42,5.42,0,0,0,11.75,6.47ZM13,6V7h0a1.47,1.47,0,0,1-.75.48V6.32A3.54,3.54,0,0,0,13,6ZM6.3,7h.2V8.27l-1,0V7l.75,0ZM3,8V6.75c.25,0,.5.07.75.1V8.07l-.2,0-.2,0A2,2,0,0,1,3,8Zm1.7.22a2.75,2.75,0,0,1-.45,0V6.9L5.5,7V8.25L4.72,8.2ZM1.75,7.7V6.5c.23.07,1,.2,1.25.25V8l-.55-.1-.2-.05-.4-.1Zm.2-3s0,0,0,0,0,0,.1.05l.08,0a1.48,1.48,0,0,0,.2.1s0,0,0,0l.2.08s0,0,0,0a1,1,0,0,1,.25.1l.1,0,.15.05a19.5,19.5,0,0,0,4.67.57h1c.32,0,.63,0,.93,0s.85-.05,1.25-.1c.57-.08,1.13-.15,1.63-.25l.3-.08H13v0c0,.18-.4.4-1.1.6a16.55,16.55,0,0,1-4,.6H5.6a16.55,16.55,0,0,1-4-.6C.9,5.72.5,5.47.47,5.32S.82,4.92,2,4.67ZM14.5,2.3c0,.17-.43.4-1.1.6a16.55,16.55,0,0,1-4,.6H7.13a16.55,16.55,0,0,1-4-.6C2.42,2.7,2,2.47,2,2.3c0-.38,2.13-1,6.25-1S14.45,1.92,14.5,2.3Zm-.75,2.22V3.32A3.51,3.51,0,0,0,14.5,3V4C14.5,4.17,14.23,4.35,13.75,4.52ZM14.5,8c0,.18-.4.4-1.1.6a16.55,16.55,0,0,1-4,.6H7.43a17.61,17.61,0,0,1-4.33-.6,5.82,5.82,0,0,1-.75-.3,22.38,22.38,0,0,0,2.88.38l1,.05h1c.35,0,.7,0,1.05-.05a17.41,17.41,0,0,0,2.82-.35l.2-.05s.05,0,.05,0a4.09,4.09,0,0,0,1.93-.82h0C14.23,7.7,14.48,7.95,14.5,8Zm-.6,2.18-.15.05V9.07a3.51,3.51,0,0,0,.75-.35V9.77Q14.5,10,13.9,10.22ZM13,13v-1.2a3.51,3.51,0,0,0,.75-.35v1.05C13.75,12.67,13.48,12.85,13,13Zm-11.75-.5v-1a3.51,3.51,0,0,0,.75.35V13C1.52,12.85,1.25,12.67,1.25,12.52ZM1.9,10.4l.08,0L2,10.5l.08,0a6.49,6.49,0,0,0,1.83.6H4c.07,0,.15,0,.25.05.4.07.8.13,1.25.2h0c.4.05.82.07,1.25.1l1.07.05H8.6c.4,0,.8,0,1.17-.05A18.93,18.93,0,0,0,13.1,11l.13,0,.07,0a.77.77,0,0,1,.2,0h0l.23-.08c-.05.18-.43.38-1.1.6a16.55,16.55,0,0,1-4,.6H6.38a16.55,16.55,0,0,1-4-.6c-.67-.2-1.07-.43-1.1-.6S1.4,10.57,1.9,10.4ZM.5,7V6a3.51,3.51,0,0,0,.75.35V7.52C.77,7.35.5,7.17.5,7Z"/></g></svg>