<svg viewBox="0 0 20 20" fill="none" xmlns="http://www.w3.org/2000/svg">
<g clip-path="url(#clip0)">
<path d="M0 19.168V19.5859C0 19.8164 0.1875 20.0039 0.417969 20.0039H19.5859C19.8164 20.0039 20.0039 19.8164 20.0039 19.5859V19.168H0Z" fill="#FFFFFF"/>
<path d="M7.91797 7.5H1.25C1.01953 7.5 0.832031 7.6875 0.832031 7.91797V19.5859C0.832031 19.8164 1.01953 20.0039 1.25 20.0039H7.91797C8.14844 20.0039 8.33594 19.8164 8.33594 19.5859V7.91797C8.33203 7.6875 8.14844 7.5 7.91797 7.5ZM7.5 19.168H1.66797V8.33203H7.5V19.168Z" fill="#FFFFFF"/>
<path d="M18.75 2.5H12.082C11.8516 2.5 11.6641 2.6875 11.6641 2.91797V19.5859C11.6641 19.8164 11.8516 20.0039 12.082 20.0039H18.75C18.9805 20.0039 19.168 19.8164 19.168 19.5859V2.91797C19.168 2.6875 18.9805 2.5 18.75 2.5ZM18.332 19.168H12.5V3.33203H18.332V19.168Z" fill="#FFFFFF"/>
<path d="M15.832 0H4.58203C4.35156 0 4.16406 0.1875 4.16406 0.417969V7.5H5V0.832031H15.418V2.5H16.25V0.417969C16.25 0.1875 16.0625 0 15.832 0Z" fill="#FFFFFF"/>
<path d="M16.457 13.5547H14.375C14.1445 13.5547 13.957 13.7422 13.957 13.9727V19.5859H14.7891V14.3906H16.0391V19.5859H16.875V13.9727C16.875 13.7422 16.6875 13.5547 16.457 13.5547Z" fill="#FFFFFF"/>
<path d="M6.25001 16.0547H2.91797C2.6875 16.0547 2.5 16.2422 2.5 16.4727V19.5859H3.33203V16.8906H5.83204V19.5859H6.66407V16.4727C6.66798 16.2422 6.48048 16.0547 6.25001 16.0547Z" fill="#FFFFFF"/>
</g>
<defs>
<clipPath id="clip0">
<rect width="20" height="20" fill="white"/>
</clipPath>
</defs>
</svg>
