<svg width="21" height="21" viewBox="0 0 21 21" fill="none" xmlns="http://www.w3.org/2000/svg">
<path d="M10.3368 0.609207C6.33554 0.608624 2.7193 2.99417 1.14442 6.67321L1.01977 6.71454L1.0681 6.85954C-1.00547 11.9748 1.45939 17.8028 6.57358 19.8768C7.76804 20.3612 9.04489 20.6099 10.3338 20.6092C15.8555 20.61 20.3324 16.1335 20.3333 10.6107C20.3341 5.08787 15.8585 0.609999 10.3368 0.609207ZM18.179 15.651L17.6656 15.1379V13.9425C17.6662 13.891 17.6548 13.84 17.6323 13.7935L16.3326 11.1972V9.94254C16.3326 9.83112 16.277 9.72704 16.1843 9.66521L15.1845 8.99854C15.1061 8.94621 15.0093 8.9295 14.9179 8.95254L13.6935 9.25854L11.6369 8.37587L11.354 6.39321L12.1381 5.60921H13.8214L14.388 6.46087C14.4391 6.53746 14.5198 6.5895 14.6106 6.60454L16.6102 6.93787C16.6638 6.94687 16.7187 6.9425 16.7702 6.92521L18.6118 6.31121C20.1564 9.276 19.9912 12.8419 18.179 15.651ZM16.8045 3.89387L16.2626 4.25521L14.7519 3.95287L13.7718 3.62654C13.7118 3.60617 13.6472 3.60358 13.5858 3.61921L12.3467 3.92887L11.8035 3.74787L12.2061 2.94254H13.3332C13.3849 2.94258 13.4359 2.93062 13.4822 2.90754L14.6353 2.33087C15.4294 2.74546 16.1599 3.27179 16.8045 3.89387ZM6.6836 2.02021L7.48343 2.55354C7.52275 2.57971 7.56716 2.59721 7.61373 2.60487L9.22873 2.87421L9.0711 3.34587L8.22961 3.62687C8.15425 3.65196 8.0903 3.70312 8.04931 3.77121L7.09218 5.36654L5.55483 6.28921L3.28864 6.61287C3.12438 6.63608 3.00224 6.77662 3.00203 6.94254V7.94254C3.00203 8.03096 3.03719 8.11571 3.09967 8.17821L3.66856 8.74721V9.31987L2.28218 8.39521L1.77928 6.88621C2.73608 4.69954 4.48976 2.95954 6.6836 2.02021ZM5.73479 12.9492L4.22844 12.6475L3.66856 11.5305V10.7472L4.9103 9.50521L5.36987 10.4249C5.42632 10.5379 5.54183 10.6092 5.66814 10.6092H7.81236L8.71517 12.1142C8.77541 12.2145 8.8838 12.2758 9.00078 12.2759H9.92725L9.69397 13.4449L8.43223 14.7069C8.36962 14.7693 8.33438 14.8541 8.33425 14.9425V15.7759L7.1345 16.6759C7.0506 16.7388 7.0012 16.8376 7.0012 16.9425V18.1465L6.58662 18.0092L6.0014 16.5452V13.2759C6.00145 13.1175 5.88997 12.9809 5.73479 12.9492ZM4.733 18.0734C1.59078 15.7155 0.261933 11.6415 1.40936 7.88387L1.6863 8.71454C1.70963 8.78483 1.7557 8.84537 1.81728 8.88654L3.4786 9.99421L3.09967 10.3735C3.03719 10.436 3.00203 10.5208 3.00203 10.6092V11.6092C3.00199 11.6609 3.01394 11.7119 3.03702 11.7582L3.70355 13.0915C3.74971 13.1836 3.83581 13.2492 3.93683 13.2692L5.33654 13.5489V16.6092C5.3365 16.6515 5.34454 16.6935 5.3602 16.7329L6.02673 18.3995C6.06322 18.4906 6.13796 18.561 6.23102 18.5919L7.23081 18.9252C7.26422 18.9365 7.29922 18.9424 7.33446 18.9425C7.5185 18.9425 7.66772 18.7933 7.66772 18.6092V17.1092L8.86747 16.2092C8.95137 16.1462 9.00078 16.0475 9.00078 15.9425V15.0805L10.2362 13.8449C10.2826 13.7983 10.3143 13.739 10.3272 13.6745L10.6604 12.0079C10.6965 11.8273 10.5794 11.6517 10.3989 11.6157C10.3775 11.6114 10.3557 11.6092 10.3338 11.6092H9.18941L8.28659 10.1042C8.22636 10.0039 8.11796 9.94258 8.00099 9.94254H5.8741L5.30155 8.79354C5.2536 8.69762 5.16245 8.63062 5.0566 8.61354C4.95079 8.59525 4.84277 8.63017 4.76766 8.70687L4.33508 9.13787V8.60921C4.33508 8.52079 4.29993 8.43604 4.23744 8.37354L3.66856 7.80454V7.23154L5.71546 6.93921C5.75941 6.93283 5.8017 6.91775 5.83977 6.89487L7.50609 5.89487C7.55283 5.86679 7.59199 5.82762 7.62007 5.78087L8.55654 4.21987L9.43935 3.92521C9.53904 3.8925 9.61728 3.81429 9.64998 3.71454L9.98324 2.71454C10.041 2.53975 9.94612 2.35121 9.77137 2.29346C9.75525 2.28812 9.73871 2.28404 9.72196 2.28121L7.79303 1.95954L7.4541 1.73354C9.55129 1.05079 11.8227 1.13529 13.8634 1.97187L13.2546 2.27587H12.0002C11.8732 2.27517 11.757 2.34667 11.7002 2.46021L11.0337 3.79354C10.9516 3.95829 11.0185 4.15846 11.1832 4.24058C11.1973 4.24758 11.2118 4.25358 11.2266 4.25854L12.2264 4.59187C12.2864 4.61225 12.351 4.61483 12.4124 4.59921L13.6515 4.28954L14.5593 4.59187C14.5723 4.59654 14.5857 4.60012 14.5993 4.60254L16.2656 4.93587C16.3522 4.95354 16.4424 4.93579 16.5159 4.88654L17.2744 4.38054C17.6477 4.79642 17.9832 5.24475 18.2768 5.72021L16.6372 6.26687L14.8619 5.97087L14.2753 5.09087C14.2139 4.99867 14.1105 4.94308 13.9997 4.94254H12.0002C11.9118 4.94254 11.827 4.97771 11.7645 5.04021L10.7647 6.04021C10.6905 6.11441 10.6556 6.21929 10.6704 6.32321L11.0037 8.65654C11.0205 8.77192 11.0963 8.87012 11.2037 8.91554L13.5365 9.91554C13.6033 9.9445 13.6779 9.95046 13.7485 9.93254L14.9385 9.63487L15.6661 10.1209V11.2759C15.6655 11.3275 15.6769 11.3785 15.6994 11.4249L16.9991 14.0212V15.2759C16.9991 15.3643 17.0343 15.449 17.0968 15.5115L17.7939 16.2092C14.702 20.3314 8.85435 21.1661 4.733 18.0734Z" fill="url(#paint0_linear)" stroke="url(#paint1_linear)" stroke-width="0.5"/>
<defs>
<linearGradient id="paint0_linear" x1="10.3333" y1="0.609207" x2="10.3333" y2="20.6092" gradientUnits="userSpaceOnUse">
<stop stop-color="#8380D3"/>
<stop offset="0.508287" stop-color="#C7D2FD"/>
<stop offset="1" stop-color="#7287D5"/>
</linearGradient>
<linearGradient id="paint1_linear" x1="10.3333" y1="0.609207" x2="10.3333" y2="20.6092" gradientUnits="userSpaceOnUse">
<stop stop-color="#7287D5"/>
<stop offset="0.491713" stop-color="#C0CDFF"/>
<stop offset="1" stop-color="#7287D5"/>
</linearGradient>
</defs>
</svg>
