<svg viewBox="0 0 20 20" fill="none" xmlns="http://www.w3.org/2000/svg">
<path d="M10.0035 1.06957e-07C6.00229 -0.000583226 2.38604 2.38496 0.811164 6.064L0.686523 6.10533L0.734846 6.25033C-1.33872 11.3656 1.12614 17.1936 6.24032 19.2676C7.43478 19.752 8.71164 20.0007 10.0006 20C15.5223 20.0008 19.9992 15.5243 20 10.0015C20.0008 4.47867 15.5253 0.000791774 10.0035 1.06957e-07ZM17.8458 15.0418L17.3324 14.5287V13.3333C17.333 13.2817 17.3216 13.2308 17.2991 13.1843L15.9993 10.588V9.33333C15.9993 9.22192 15.9437 9.11783 15.851 9.056L14.8512 8.38933C14.7729 8.337 14.676 8.32029 14.5846 8.34333L13.3602 8.64933L11.3036 7.76667L11.0207 5.784L11.8049 5H13.4882L14.0547 5.85167C14.1059 5.92825 14.1865 5.98029 14.2774 5.99533L16.2769 6.32867C16.3305 6.33767 16.3854 6.33329 16.4369 6.316L18.2785 5.702C19.8232 8.66679 19.6579 12.2327 17.8458 15.0418ZM16.4712 3.28467L15.9293 3.646L14.4187 3.34367L13.4385 3.01733C13.3785 2.99696 13.314 2.99437 13.2526 3.01L12.0135 3.31967L11.4703 3.13867L11.8729 2.33333H13C13.0517 2.33337 13.1026 2.32142 13.1489 2.29833L14.302 1.72167C15.0961 2.13625 15.8266 2.66258 16.4712 3.28467ZM6.35034 1.411L7.15018 1.94433C7.1895 1.9705 7.23391 1.988 7.28048 1.99567L8.89548 2.265L8.73785 2.73667L7.89635 3.01767C7.82099 3.04275 7.75705 3.09392 7.71606 3.162L6.75892 4.75733L5.22158 5.68L2.95538 6.00367C2.79113 6.02687 2.66899 6.16742 2.66878 6.33333V7.33333C2.66878 7.42175 2.70394 7.5065 2.76642 7.569L3.3353 8.138V8.71067L1.94893 7.786L1.44603 6.277C2.40283 4.09033 4.15651 2.35033 6.35034 1.411ZM5.40154 12.34L3.89519 12.0383L3.3353 10.9213V10.138L4.57705 8.896L5.03662 9.81567C5.09306 9.92867 5.20858 10 5.33489 10H7.47911L8.38192 11.505C8.44216 11.6053 8.55055 11.6666 8.66753 11.6667H9.594L9.36072 12.8357L8.09898 14.0977C8.03637 14.1601 8.00112 14.2449 8.001 14.3333V15.1667L6.80125 16.0667C6.71735 16.1296 6.66794 16.2284 6.66794 16.3333V17.5373L6.25336 17.4L5.66815 15.936V12.6667C5.66819 12.5082 5.55672 12.3717 5.40154 12.34ZM4.39975 17.4642C1.25753 15.1063 -0.0713191 11.0323 1.07611 7.27467L1.35305 8.10533C1.37638 8.17562 1.42245 8.23617 1.48402 8.27733L3.14534 9.385L2.76642 9.76433C2.70394 9.82683 2.66878 9.91158 2.66878 10V11C2.66874 11.0517 2.68069 11.1027 2.70377 11.149L3.3703 12.4823C3.41645 12.5744 3.50256 12.64 3.60358 12.66L5.00329 12.9397V16C5.00325 16.0423 5.01129 16.0843 5.02695 16.1237L5.69348 17.7903C5.72997 17.8814 5.80471 17.9517 5.89777 17.9827L6.89756 18.316C6.93097 18.3273 6.96596 18.3332 7.00121 18.3333C7.18525 18.3333 7.33447 18.1841 7.33447 18V16.5L8.53422 15.6C8.61812 15.537 8.66753 15.4382 8.66753 15.3333V14.4713L9.90294 13.2357C9.94938 13.1891 9.98105 13.1298 9.99392 13.0653L10.3272 11.3987C10.3633 11.2181 10.2462 11.0425 10.0657 11.0065C10.0442 11.0022 10.0225 11 10.0006 11H8.85615L7.95334 9.495C7.89311 9.39471 7.78471 9.33337 7.66774 9.33333H5.54084L4.9683 8.18433C4.92035 8.08842 4.8292 8.02142 4.72335 8.00433C4.61754 7.98604 4.50952 8.02096 4.43441 8.09767L4.00183 8.52867V8C4.00183 7.91158 3.96667 7.82683 3.90419 7.76433L3.3353 7.19533V6.62233L5.38221 6.33C5.42616 6.32362 5.46844 6.30854 5.50652 6.28567L7.17284 5.28567C7.21958 5.25758 7.25874 5.21842 7.28681 5.17167L8.22329 3.61067L9.1061 3.316C9.20579 3.28329 9.28402 3.20508 9.31672 3.10533L9.64999 2.10533C9.70773 1.93054 9.61287 1.742 9.43812 1.68425C9.42199 1.67892 9.40546 1.67483 9.38871 1.672L7.45978 1.35033L7.12085 1.12433C9.21804 0.441583 11.4895 0.526083 13.5302 1.36267L12.9213 1.66667H11.6669C11.54 1.66596 11.4237 1.73746 11.367 1.851L10.7004 3.18433C10.6183 3.34908 10.6853 3.54925 10.85 3.63138C10.864 3.63838 10.8785 3.64438 10.8934 3.64933L11.8932 3.98267C11.9532 4.00304 12.0177 4.00562 12.0791 3.99L13.3182 3.68033L14.226 3.98267C14.239 3.98733 14.2524 3.99092 14.266 3.99333L15.9323 4.32667C16.019 4.34433 16.1091 4.32658 16.1826 4.27733L16.9411 3.77133C17.3144 4.18721 17.6499 4.63554 17.9436 5.111L16.3039 5.65767L14.5286 5.36167L13.9421 4.48167C13.8806 4.38946 13.7773 4.33388 13.6665 4.33333H11.6669C11.5785 4.33333 11.4938 4.3685 11.4313 4.431L10.4315 5.431C10.3573 5.50521 10.3223 5.61008 10.3372 5.714L10.6704 8.04733C10.6872 8.16271 10.763 8.26092 10.8704 8.30633L13.2032 9.30633C13.2701 9.33529 13.3446 9.34125 13.4152 9.32333L14.6053 9.02567L15.3328 9.51167V10.6667C15.3322 10.7182 15.3436 10.7692 15.3661 10.8157L16.6659 13.412V14.6667C16.6659 14.7551 16.701 14.8398 16.7635 14.9023L17.4607 15.6C14.3687 19.7222 8.5211 20.5569 4.39975 17.4642Z" fill="#FFFFFF"/>
</svg>
