<svg viewBox="0 0 15 15" fill="none" xmlns="http://www.w3.org/2000/svg">
<g clip-path="url(#clip0)">
<path d="M7.5 0C3.35787 0 0 3.35787 0 7.5C0 11.6421 3.35787 15 7.5 15C11.6421 15 15 11.6421 15 7.5C14.9947 3.36008 11.6399 0.00530888 7.5 0ZM7.82175 14.3404V13.0212C7.82175 12.8435 7.67769 12.6995 7.5 12.6995C7.32231 12.6995 7.17825 12.8435 7.17825 13.0212V14.3404C3.65022 14.172 0.828025 11.3498 0.659588 7.82175H1.97876C2.15645 7.82175 2.30051 7.67769 2.30051 7.5C2.30051 7.32231 2.15645 7.17825 1.97876 7.17825H0.659588C0.828025 3.65022 3.65022 0.828025 7.17825 0.659588V1.97876C7.17825 2.15645 7.32231 2.30051 7.5 2.30051C7.67769 2.30051 7.82175 2.15645 7.82175 1.97876V0.659588C11.3498 0.828025 14.172 3.65022 14.3404 7.17825H13.0212C12.8435 7.17825 12.6995 7.32231 12.6995 7.5C12.6995 7.67769 12.8435 7.82175 13.0212 7.82175H13.0245H14.3436C14.1751 11.3509 11.351 14.1736 7.82175 14.3404Z" fill="white"/>
<path d="M10.8944 10.4922L7.82172 7.36802V4.12156C7.82172 3.94387 7.67766 3.7998 7.49997 3.7998C7.32229 3.7998 7.17822 3.94387 7.17822 4.12156V7.49994C7.17858 7.58436 7.21209 7.66524 7.27153 7.72516L10.4343 10.9427C10.5587 11.0697 10.7626 11.0719 10.8896 10.9475C11.0167 10.8231 11.0188 10.6193 10.8944 10.4922Z" fill="white"/>
</g>
<defs>
<clipPath id="clip0">
<rect width="15" height="15" fill="white"/>
</clipPath>
</defs>
</svg>
