<svg viewBox="0 0 15 15" fill="none" xmlns="http://www.w3.org/2000/svg">
<path d="M7.5 15C11.6308 15 15 11.6437 15 7.5C15 3.35628 11.6308 0 7.5 0C3.36919 0 0 3.36919 0 7.5C0 11.6308 3.36919 15 7.5 15ZM7.5 1.05852C11.0499 1.05852 13.9415 3.95009 13.9415 7.5C13.9415 11.0499 11.0499 13.9415 7.5 13.9415C3.95009 13.9415 1.05852 11.0499 1.05852 7.5C1.05852 3.95009 3.95009 1.05852 7.5 1.05852Z" fill="#E0E0E0"/>
<path d="M4.68567 10.2367C4.78894 10.34 4.91803 10.3916 5.06002 10.3916C5.20202 10.3916 5.33111 10.34 5.43438 10.2367L7.49978 8.17134L9.56519 10.2367C9.66846 10.34 9.79755 10.3916 9.93954 10.3916C10.0815 10.3916 10.2106 10.34 10.3139 10.2367C10.5204 10.0302 10.5204 9.69457 10.3139 9.48803L8.24849 7.42263L10.3139 5.35723C10.5204 5.15069 10.5204 4.81506 10.3139 4.60852C10.1074 4.40198 9.77173 4.40198 9.56519 4.60852L7.49978 6.67392L5.43438 4.60852C5.22784 4.40198 4.89221 4.40198 4.68567 4.60852C4.47913 4.81506 4.47913 5.15069 4.68567 5.35723L6.75107 7.42263L4.68567 9.48803C4.47913 9.69457 4.47913 10.0302 4.68567 10.2367Z" fill="#E0E0E0"/>
</svg>
