<svg viewBox="0 0 21 21" fill="none" xmlns="http://www.w3.org/2000/svg">
<g clip-path="url(#clip0)">
<path d="M19.9763 13.2225C19.658 13.2225 19.4033 13.4772 19.4033 13.7955V16.5428C19.4033 17.9604 18.2488 19.1107 16.8354 19.1107H4.26324C2.84558 19.1107 1.69533 17.9562 1.69533 16.5428L1.69533 13.7106C1.69533 13.3923 1.44066 13.1376 1.12232 13.1376C0.803985 13.1376 0.549316 13.3923 0.549316 13.7106V16.5428C0.549316 18.5929 2.2174 20.2567 4.26324 20.2567H16.8354C18.8855 20.2567 20.5493 18.5886 20.5493 16.5428V13.7955C20.5493 13.4814 20.2946 13.2225 19.9763 13.2225Z" fill="#7287D5"/>
<path d="M10.146 15.707C10.2564 15.8174 10.4049 15.8768 10.5493 15.8768C10.6936 15.8768 10.8421 15.8216 10.9525 15.707L14.5942 12.0652C14.8192 11.8403 14.8192 11.4795 14.5942 11.2545C14.3693 11.0296 14.0085 11.0296 13.7835 11.2545L11.1223 13.9201V2.29443C11.1223 1.9761 10.8676 1.72143 10.5493 1.72143C10.2309 1.72143 9.97625 1.9761 9.97625 2.29443V13.9201L7.31071 11.2545C7.08576 11.0296 6.72497 11.0296 6.50002 11.2545C6.27506 11.4795 6.27506 11.8403 6.50002 12.0652L10.146 15.707Z" fill="#7287D5"/>
</g>
<defs>
<clipPath id="clip0">
<rect width="20" height="20" fill="white" transform="translate(0.549316 0.989258)"/>
</clipPath>
</defs>
</svg>
