<svg viewBox="0 0 15 15" fill="none" xmlns="http://www.w3.org/2000/svg">
<g clip-path="url(#clip0)">
<path d="M13.8444 5.94264C13.6381 5.94264 13.4708 6.10988 13.4708 6.31622V13.1132C13.4701 13.7319 12.9688 14.2333 12.3501 14.2339H1.86789C1.24915 14.2333 0.747885 13.7319 0.747155 13.1132V3.37814C0.747885 2.75955 1.24915 2.25814 1.86789 2.25741H7.81065C8.017 2.25741 8.18423 2.09017 8.18423 1.88383C8.18423 1.67763 8.017 1.51025 7.81065 1.51025H1.86789C0.836756 1.51142 0.00116743 2.34701 0 3.37814V13.1133C0.00116743 14.1445 0.836756 14.9801 1.86789 14.9812H12.3501C13.3812 14.9801 14.2168 14.1445 14.218 13.1133V6.31622C14.218 6.10988 14.0508 5.94264 13.8444 5.94264Z" fill="white"/>
<path d="M14.07 0.549529C13.4135 -0.107004 12.3491 -0.107004 11.6926 0.549529L5.0277 7.21439C4.98203 7.26006 4.94905 7.31668 4.93183 7.37885L4.05538 10.543C4.01934 10.6728 4.05596 10.8117 4.15111 10.907C4.2464 11.0021 4.38533 11.0387 4.51506 11.0028L7.67923 10.1263C7.7414 10.109 7.79802 10.0761 7.84369 10.0304L14.5084 3.36537C15.1639 2.7084 15.1639 1.64487 14.5084 0.987899L14.07 0.549529ZM5.8417 7.45721L9.52682 3.85419L11.286 5.61336L7.60072 9.21639L5.8417 7.45721ZM5.4903 8.16234L6.89574 9.56793L4.95168 10.1066L5.4903 8.16234ZM13.9801 2.83711L13.584 3.23331L11.8246 1.47399L12.221 1.07779C12.5857 0.713115 13.177 0.713115 13.5416 1.07779L13.9801 1.51616C14.3442 1.88128 14.3442 2.47214 13.9801 2.83711Z" fill="white"/>
</g>
<defs>
<clipPath id="clip0">
<rect width="15" height="15" fill="white"/>
</clipPath>
</defs>
</svg>
