<svg viewBox="0 0 20 20" fill="none" xmlns="http://www.w3.org/2000/svg">
<g clip-path="url(#clip0)">
<path d="M19.9961 7.64596C19.994 7.62299 19.9895 7.6003 19.9824 7.5783C19.9779 7.55865 19.9715 7.53947 19.9634 7.52096C19.9541 7.50287 19.9429 7.48576 19.9301 7.46994C19.9173 7.45115 19.9024 7.43384 19.8858 7.41826C19.8804 7.41361 19.8781 7.40724 19.8725 7.40259L16.6666 4.91282V2.33237C16.6666 1.78008 16.2189 1.33232 15.6666 1.33232H12.0541L10.6076 0.209259C10.2503 -0.0694273 9.74921 -0.0694273 9.39189 0.209259L7.94513 1.33232H4.33261C3.78031 1.33232 3.33256 1.78004 3.33256 2.33237V4.91286L0.127746 7.40263C0.122081 7.40732 0.119738 7.41365 0.114425 7.4183C0.0978224 7.43384 0.0829388 7.45119 0.0700866 7.46998C0.0572734 7.4858 0.046101 7.50287 0.0367646 7.521C0.0286782 7.53947 0.0223498 7.55869 0.0177792 7.57834C0.0108257 7.60002 0.00625519 7.62237 0.00410665 7.64503C0.00410665 7.65202 0.00012207 7.65803 0.00012207 7.66503V18.9999C0.000590844 19.2119 0.0691881 19.4182 0.195796 19.5882C0.197788 19.5912 0.19814 19.5949 0.200445 19.5975C0.202789 19.6002 0.207789 19.6032 0.211109 19.6069C0.398385 19.8533 0.689649 19.9986 0.999157 19.9999H19.0001C19.3108 19.999 19.6033 19.853 19.7908 19.6052C19.7934 19.6019 19.7975 19.6009 19.7998 19.5976C19.8021 19.5943 19.8024 19.5913 19.8044 19.5883C19.9311 19.4182 19.9997 19.2119 20.0001 18.9999V7.66597C20.0001 7.65897 19.9965 7.65296 19.9961 7.64596ZM9.79957 0.735262C9.91598 0.642757 10.0808 0.642757 10.1972 0.735262L10.9663 1.33228H9.03285L9.79957 0.735262ZM1.08315 19.3332L9.7996 12.5625C9.91609 12.4702 10.0808 12.4702 10.1973 12.5625L18.916 19.3332H1.08315ZM19.3334 18.8135L10.6076 12.0365C10.2502 11.758 9.74929 11.758 9.39189 12.0365L0.665781 18.8135V8.17365L6.1284 12.4155C6.27396 12.5284 6.48342 12.5019 6.59628 12.3564C6.70914 12.2108 6.68265 12.0013 6.5371 11.8885L0.987477 7.57928L3.3326 5.75684V8.33264C3.3326 8.51675 3.48186 8.66598 3.66593 8.66598C3.85004 8.66598 3.99927 8.51671 3.99927 8.33264V2.33233C3.99927 2.14822 4.1485 1.999 4.33261 1.999H15.6665C15.8506 1.999 15.9998 2.14822 15.9998 2.33233V8.33264C15.9998 8.51675 16.1491 8.66598 16.3332 8.66598C16.5173 8.66598 16.6665 8.51671 16.6665 8.33264V5.75684L19.0116 7.57928L13.4524 11.8962C13.3567 11.9686 13.3074 12.0869 13.3233 12.2059C13.3391 12.3248 13.4177 12.4261 13.529 12.471C13.6403 12.5159 13.7671 12.4975 13.8611 12.4228L19.3333 8.17365V18.8135H19.3334Z" fill="#FFFFFF"/>
<path d="M13.9998 7.99924V6.66585C13.9998 4.4566 12.2088 2.66565 9.99959 2.66565C7.79034 2.66565 5.99939 4.4566 5.99939 6.66585C5.99939 8.8751 7.79034 10.6661 9.99959 10.6661C10.1837 10.6661 10.3329 10.5168 10.3329 10.3327C10.3329 10.1486 10.1837 9.99938 9.99959 9.99938C8.15856 9.99938 6.6661 8.50692 6.6661 6.66589C6.6661 4.82486 8.15856 3.3324 9.99959 3.3324C11.8406 3.3324 13.3331 4.82486 13.3331 6.66589V7.99928C13.3331 8.3675 13.0346 8.66599 12.6664 8.66599C12.2981 8.66599 11.9996 8.3675 11.9996 7.99928V6.66589C11.9996 6.48178 11.8504 6.33255 11.6663 6.33255C11.4822 6.33255 11.333 6.48178 11.333 6.66589C11.333 7.4023 10.736 7.99928 9.99959 7.99928C9.26318 7.99928 8.6662 7.4023 8.6662 6.66589C8.6662 5.92949 9.26318 5.3325 9.99959 5.3325C10.1837 5.3325 10.3329 5.18328 10.3329 4.99917C10.3329 4.81506 10.1837 4.66583 9.99959 4.66583C9.10442 4.66384 8.31692 5.25687 8.0716 6.11778C7.82628 6.97868 8.18282 7.89775 8.94457 8.36793C9.70633 8.83811 10.6877 8.7449 11.3473 8.13968C11.4199 8.84464 12.0326 9.3688 12.7403 9.33134C13.448 9.29384 14.002 8.70795 13.9998 7.99924Z" fill="#FFFFFF"/>
</g>
<defs>
<clipPath id="clip0">
<rect width="20" height="20" fill="white"/>
</clipPath>
</defs>
</svg>
