<svg width="21" height="21" viewBox="0 0 21 21" fill="none" xmlns="http://www.w3.org/2000/svg">
<g clip-path="url(#clip0)">
<path d="M20.3292 7.87034C20.3272 7.84737 20.3226 7.82468 20.3156 7.80268C20.311 7.78304 20.3046 7.76385 20.2966 7.74534C20.2872 7.72725 20.2761 7.71014 20.2633 7.69432C20.2504 7.67553 20.2355 7.65822 20.2189 7.64264C20.2136 7.63799 20.2113 7.63162 20.2056 7.62697L16.9998 5.1372V2.55675C16.9998 2.00446 16.552 1.5567 15.9997 1.5567H12.3872L10.9407 0.433639C10.5834 0.154953 10.0823 0.154953 9.72502 0.433639L8.27826 1.5567H4.66574C4.11344 1.5567 3.66569 2.00442 3.66569 2.55675V5.13724L0.460876 7.62701C0.455211 7.6317 0.452867 7.63803 0.447555 7.64268C0.430952 7.65822 0.416069 7.67557 0.403216 7.69436C0.390403 7.71018 0.379231 7.72725 0.369894 7.74538C0.361808 7.76385 0.35548 7.78307 0.350909 7.80272C0.343956 7.8244 0.339385 7.84675 0.337237 7.86941C0.337237 7.8764 0.333252 7.88242 0.333252 7.88941V19.2242C0.333721 19.4363 0.402318 19.6425 0.528926 19.8126C0.530918 19.8156 0.53127 19.8193 0.533575 19.8219C0.535919 19.8246 0.540919 19.8276 0.544239 19.8313C0.731514 20.0777 1.02278 20.223 1.33229 20.2243H19.3332C19.6439 20.2234 19.9364 20.0774 20.1239 19.8296C20.1266 19.8263 20.1306 19.8253 20.1329 19.822C20.1352 19.8186 20.1355 19.8156 20.1376 19.8126C20.2642 19.6425 20.3328 19.4363 20.3333 19.2243V7.89035C20.3332 7.88335 20.3296 7.87734 20.3292 7.87034ZM10.1327 0.959642C10.2491 0.867138 10.414 0.867138 10.5304 0.959642L11.2994 1.55666H9.36598L10.1327 0.959642ZM1.41628 19.5576L10.1327 12.7869C10.2492 12.6946 10.414 12.6946 10.5304 12.7869L19.2492 19.5576H1.41628ZM19.6665 19.0379L10.9407 12.2609C10.5833 11.9824 10.0824 11.9824 9.72502 12.2609L0.998911 19.0379V8.39803L6.46153 12.6399C6.60709 12.7528 6.81655 12.7263 6.92941 12.5807C7.04226 12.4352 7.01578 12.2257 6.87022 12.1129L1.32061 7.80366L3.66573 5.98123V8.55702C3.66573 8.74113 3.81499 8.89036 3.99906 8.89036C4.18317 8.89036 4.3324 8.74109 4.3324 8.55702V2.55672C4.3324 2.3726 4.48163 2.22338 4.66574 2.22338H15.9996C16.1837 2.22338 16.333 2.3726 16.333 2.55672V8.55702C16.333 8.74113 16.4822 8.89036 16.6663 8.89036C16.8504 8.89036 16.9996 8.74109 16.9996 8.55702V5.98123L19.3448 7.80366L13.7855 12.1206C13.6899 12.193 13.6405 12.3113 13.6564 12.4303C13.6722 12.5492 13.7508 12.6505 13.8621 12.6954C13.9734 12.7402 14.1002 12.7219 14.1942 12.6472L19.6665 8.39803V19.0379H19.6665Z" fill="url(#paint0_linear)" stroke="url(#paint1_linear)" stroke-width="0.5"/>
<path d="M14.3329 8.22367V6.89028C14.3329 4.68103 12.542 2.89008 10.3327 2.89008C8.12347 2.89008 6.33252 4.68103 6.33252 6.89028C6.33252 9.09953 8.12347 10.8905 10.3327 10.8905C10.5168 10.8905 10.6661 10.7413 10.6661 10.5571C10.6661 10.373 10.5168 10.2238 10.3327 10.2238C8.49169 10.2238 6.99923 8.73135 6.99923 6.89032C6.99923 5.04929 8.49169 3.55683 10.3327 3.55683C12.1737 3.55683 13.6662 5.04929 13.6662 6.89032V8.22371C13.6662 8.59193 13.3677 8.89042 12.9995 8.89042C12.6313 8.89042 12.3328 8.59193 12.3328 8.22371V6.89032C12.3328 6.70621 12.1835 6.55698 11.9994 6.55698C11.8153 6.55698 11.6661 6.70621 11.6661 6.89032C11.6661 7.62672 11.0691 8.22371 10.3327 8.22371C9.59631 8.22371 8.99933 7.62672 8.99933 6.89032C8.99933 6.15391 9.59631 5.55693 10.3327 5.55693C10.5168 5.55693 10.6661 5.4077 10.6661 5.22359C10.6661 5.03948 10.5168 4.89026 10.3327 4.89026C9.43755 4.88826 8.65005 5.4813 8.40473 6.3422C8.15941 7.20311 8.51595 8.12218 9.2777 8.59236C10.0395 9.06254 11.0208 8.96933 11.6804 8.3641C11.753 9.06906 12.3657 9.59323 13.0734 9.55577C13.7812 9.51826 14.3351 8.93237 14.3329 8.22367Z" fill="url(#paint2_linear)" stroke="url(#paint3_linear)" stroke-width="0.5"/>
</g>
<defs>
<linearGradient id="paint0_linear" x1="10.3333" y1="0.224625" x2="10.3333" y2="20.2243" gradientUnits="userSpaceOnUse">
<stop stop-color="#8380D3"/>
<stop offset="0.508287" stop-color="#C7D2FD"/>
<stop offset="1" stop-color="#7287D5"/>
</linearGradient>
<linearGradient id="paint1_linear" x1="10.3333" y1="0.224625" x2="10.3333" y2="20.2243" gradientUnits="userSpaceOnUse">
<stop stop-color="#7287D5"/>
<stop offset="0.491713" stop-color="#C0CDFF"/>
<stop offset="1" stop-color="#7287D5"/>
</linearGradient>
<linearGradient id="paint2_linear" x1="10.3327" y1="2.89008" x2="10.3327" y2="10.8905" gradientUnits="userSpaceOnUse">
<stop stop-color="#8380D3"/>
<stop offset="0.508287" stop-color="#C7D2FD"/>
<stop offset="1" stop-color="#7287D5"/>
</linearGradient>
<linearGradient id="paint3_linear" x1="10.3327" y1="2.89008" x2="10.3327" y2="10.8905" gradientUnits="userSpaceOnUse">
<stop stop-color="#7287D5"/>
<stop offset="0.491713" stop-color="#C0CDFF"/>
<stop offset="1" stop-color="#7287D5"/>
</linearGradient>
<clipPath id="clip0">
<rect width="20" height="20" fill="white" transform="translate(0.333252 0.224442)"/>
</clipPath>
</defs>
</svg>
