<svg id="Слой_1" data-name="Слой 1" xmlns="http://www.w3.org/2000/svg" xmlns:xlink="http://www.w3.org/1999/xlink" viewBox="0 0 15 30"><defs><style>.cls-1{fill:none;}.cls-2{clip-path:url(#clip-path);}.cls-3,.cls-4{stroke-width:0.5px;}.cls-3{fill:url(#Безымянный_градиент_3);stroke:url(#Безымянный_градиент_4);}.cls-4{fill:url(#Безымянный_градиент_3-2);stroke:url(#Безымянный_градиент_4-2);}.cls-5{clip-path:url(#clip-path-2);}.cls-6{fill:#fff;}</style><clipPath id="clip-path"><rect class="cls-1" y="15" width="15" height="15"/></clipPath><linearGradient id="Безымянный_градиент_3" x1="11.59" y1="15.74" x2="11.59" y2="9.36" gradientTransform="matrix(1, 0, 0, -1, 0, 31)" gradientUnits="userSpaceOnUse"><stop offset="0" stop-color="#8380d3"/><stop offset="1" stop-color="#109cf1"/></linearGradient><linearGradient id="Безымянный_градиент_4" x1="11.59" y1="15.75" x2="11.59" y2="9.36" gradientTransform="matrix(1, 0, 0, -1, 0, 31)" gradientUnits="userSpaceOnUse"><stop offset="0.52" stop-color="#8380d3"/><stop offset="1" stop-color="#109cf1"/></linearGradient><linearGradient id="Безымянный_градиент_3-2" x1="6.89" y1="14.57" x2="6.89" y2="1.22" xlink:href="#Безымянный_градиент_3"/><linearGradient id="Безымянный_градиент_4-2" x1="6.89" y1="14.58" x2="6.89" y2="1.22" xlink:href="#Безымянный_градиент_4"/><clipPath id="clip-path-2"><rect class="cls-1" width="15" height="15"/></clipPath></defs><title>fees</title><g class="cls-2"><path class="cls-3" d="M8.7,15.3a.3.3,0,0,0-.3.3v5.8a.3.3,0,0,0,.3.3h5.7a.3.3,0,0,0,.3-.3,6.1,6.1,0,0,0-1.3-4.2A6.1,6.1,0,0,0,8.7,15.3ZM9,21V15.7A5.7,5.7,0,0,1,14.4,21Z"/><path class="cls-4" d="M13.5,23.2a.3.3,0,0,0-.3-.3H7.1V16.7a.3.3,0,0,0-.3-.3A6.6,6.6,0,0,0,.3,23.2a6.4,6.4,0,0,0,6.5,6.6A6.6,6.6,0,0,0,13.5,23.2ZM6.8,29.4A6.2,6.2,0,0,1,6.5,17v6.2a.3.3,0,0,0,.3.3h6.2A6.2,6.2,0,0,1,6.8,29.4Z"/></g><g class="cls-5"><path class="cls-6" d="M8.7,0a.3.3,0,0,0-.3.3v6a.3.3,0,0,0,.3.3h6a.3.3,0,0,0,.3-.3A6.3,6.3,0,0,0,8.7,0ZM9,6V.7A5.7,5.7,0,0,1,14.4,6Z"/><path class="cls-6" d="M13.5,8.2a.3.3,0,0,0-.3-.3H7.1V1.7a.3.3,0,0,0-.3-.3,6.8,6.8,0,1,0,6.8,6.8ZM6.8,14.4A6.2,6.2,0,0,1,6.5,2V8.2a.3.3,0,0,0,.3.3h6.2A6.2,6.2,0,0,1,6.8,14.4Z"/></g></svg>