<svg viewBox="0 0 20 20" fill="none" xmlns="http://www.w3.org/2000/svg">
<g opacity="0.8" clip-path="url(#clip0)">
<path d="M11.3937 1.0682C6.42905 1.0682 2.38999 5.10695 2.39061 10.046C2.38686 10.1245 2.34155 11.432 2.71374 12.8401L1.50092 12.1332C1.19967 11.9582 0.815924 12.0598 0.639049 12.3604C0.464674 12.6604 0.565924 13.0463 0.866236 13.2213L3.70842 14.8782C3.71436 14.8813 3.7203 14.8823 3.72592 14.8851C3.75624 14.9013 3.78717 14.9132 3.81999 14.9245C3.84217 14.9323 3.86374 14.9404 3.88592 14.9457C3.91311 14.9516 3.93999 14.9535 3.9678 14.956C3.98717 14.9579 4.00655 14.9638 4.02592 14.9638C4.03686 14.9638 4.04717 14.9601 4.05842 14.9595C4.06905 14.9591 4.07811 14.9616 4.08874 14.9607C4.10436 14.9591 4.11842 14.9526 4.13374 14.9501C4.16405 14.9448 4.1928 14.9382 4.22186 14.9288C4.24624 14.9207 4.2703 14.911 4.29374 14.8998C4.31999 14.8873 4.34467 14.8735 4.36905 14.8573C4.39124 14.8429 4.41249 14.8273 4.43249 14.8104C4.45467 14.7916 4.47436 14.7713 4.49405 14.7495C4.51249 14.7291 4.52842 14.7079 4.54374 14.6854C4.55217 14.6729 4.56342 14.6638 4.57092 14.651C4.57655 14.6413 4.57655 14.6301 4.58124 14.6204C4.58967 14.6032 4.6028 14.5882 4.6103 14.5698L5.74092 11.7704C5.87124 11.4479 5.71561 11.0807 5.39342 10.9504C5.07061 10.821 4.70374 10.976 4.57342 11.2985L3.9928 12.736C3.6053 11.4401 3.64936 10.1085 3.65061 10.072C3.65061 5.80195 7.12467 2.3282 11.394 2.3282C15.6637 2.3282 19.1375 5.80195 19.1375 10.072C19.1375 14.3413 15.6637 17.8151 11.394 17.8151C11.0459 17.8151 10.764 18.0973 10.764 18.4451C10.764 18.7929 11.0456 19.0751 11.394 19.0751C16.359 19.0751 20.3978 15.0363 20.3978 10.072C20.3972 5.10695 16.3584 1.0682 11.3937 1.0682Z" fill="white"/>
<path d="M10.2585 10.2113C10.2586 10.27 10.275 10.3237 10.296 10.3759C10.3004 10.3868 10.2988 10.4003 10.304 10.4107C10.3313 10.4653 10.373 10.5107 10.4207 10.5501C10.4339 10.5611 10.4495 10.5698 10.4644 10.5794C10.5061 10.6068 10.5525 10.6281 10.6039 10.6434C10.615 10.6468 10.6226 10.6549 10.6348 10.6577L15.6104 11.805C15.9218 11.8768 16.3303 11.7391 16.3911 11.4109C16.4446 11.1228 16.2279 10.8009 15.9163 10.7289L11.4785 9.68607L11.4785 6.82017C11.4791 6.52094 11.2034 6.20092 10.8813 6.20092C10.5593 6.20102 10.2709 6.52293 10.2696 6.82017L10.2577 10.2082C10.2579 10.2093 10.2583 10.2102 10.2585 10.2113Z" fill="white"/>
</g>
<defs>
<clipPath id="clip0">
<rect width="20" height="20" fill="white" transform="translate(0.553711 0.0322266)"/>
</clipPath>
</defs>
</svg>
