<svg viewBox="0 0 20 20" fill="none" xmlns="http://www.w3.org/2000/svg">
<circle cx="10" cy="10" r="10" fill="#7287D5"/>
<path d="M12.4922 14.705L12.3245 15.3904C11.8215 15.5889 11.4197 15.7401 11.1205 15.8439C10.821 15.9482 10.473 16 10.0764 16C9.46749 16 8.99384 15.8508 8.65603 15.5545C8.31822 15.2571 8.14926 14.8801 8.14926 14.4228C8.14926 14.2458 8.16152 14.0637 8.18701 13.8782C8.21271 13.6924 8.25358 13.4832 8.3095 13.2494L8.93813 11.0245C8.99405 10.8114 9.04159 10.6095 9.07966 10.4186C9.11827 10.2289 9.13688 10.0544 9.13688 9.89724C9.13688 9.61309 9.07805 9.41434 8.96093 9.3026C8.84381 9.19118 8.62032 9.13461 8.28853 9.13461C8.12603 9.13461 7.959 9.16063 7.78875 9.21097C7.61775 9.26151 7.47159 9.31034 7.34888 9.35573L7.51698 8.66978C7.92878 8.50211 8.32241 8.35853 8.69894 8.23937C9.07547 8.11988 9.43124 8.06008 9.76776 8.06008C10.3725 8.06008 10.8392 8.20624 11.1669 8.49856C11.4946 8.79109 11.6584 9.17031 11.6584 9.63761C11.6584 9.7343 11.6476 9.90466 11.6245 10.1481C11.6019 10.3922 11.5599 10.6158 11.4985 10.8191L10.8726 13.0352C10.8213 13.2132 10.7752 13.4167 10.7351 13.6456C10.6937 13.8731 10.6739 14.0469 10.6739 14.1635C10.6739 14.4577 10.7395 14.6586 10.871 14.7654C11.0035 14.8722 11.2317 14.9254 11.5559 14.9254C11.7081 14.9254 11.8812 14.8984 12.0736 14.8454C12.2655 14.7923 12.4054 14.7458 12.4922 14.705ZM12.6509 5.40136C12.6509 5.78746 12.5054 6.11721 12.213 6.38834C11.9213 6.66044 11.5699 6.7966 11.1587 6.7966C10.7462 6.7966 10.3939 6.66044 10.0989 6.38834C9.80444 6.1171 9.65688 5.78746 9.65688 5.40136C9.65688 5.01602 9.80444 4.68573 10.0989 4.41116C10.3934 4.13702 10.7464 4 11.1587 4C11.5697 4 11.9213 4.13734 12.213 4.41116C12.5056 4.68573 12.6509 5.01612 12.6509 5.40136Z" fill="white"/>
</svg>
