<svg viewBox="0 0 16 15" fill="none" xmlns="http://www.w3.org/2000/svg">
<g opacity="0.9">
<path d="M3.75043 7.05518C3.61247 7.05518 3.50049 7.16607 3.50049 7.3027V7.79216C3.50049 7.92879 3.61247 8.03969 3.75043 8.03969C3.88839 8.03969 4.00037 7.92879 4.00037 7.79216V7.3027C4.0004 7.16607 3.88842 7.05518 3.75043 7.05518Z" fill="#FFFFFF"/>
<path d="M3.77733 0.183847L1.41351 1.12029C0.747751 1.36436 0.500244 1.69557 0.500244 2.34237V12.7411C0.500244 13.3879 0.747751 13.7191 1.40727 13.9612L3.78208 14.9019C3.89959 14.9459 4.01758 14.9682 4.1331 14.9682C4.63561 14.9682 5.00037 14.5523 5.00037 13.9793V1.10471C5.00037 0.400711 4.43334 -0.0606917 3.77733 0.183847ZM4.50034 13.9793C4.50034 14.2746 4.35283 14.4731 4.1331 14.4731C4.07834 14.4731 4.01933 14.4615 3.96308 14.4407L1.58728 13.4993C1.11552 13.3263 1.00027 13.1773 1.00027 12.7411V2.34237C1.00027 1.9062 1.11552 1.75745 1.59328 1.58218L3.95834 0.64551C4.01933 0.622739 4.07808 0.611107 4.13283 0.611107C4.35259 0.611107 4.50034 0.809377 4.50034 1.10471V13.9793Z" fill="#FFFFFF"/>
<path d="M5.71924 1.59957H9.25059C9.6641 1.59957 10.0006 1.93276 10.0006 2.34218V6.05523C10.0006 6.19186 10.1124 6.30276 10.2506 6.30276C10.3889 6.30276 10.5006 6.19186 10.5006 6.05523V2.34218C10.5006 1.65974 9.93985 1.10449 9.25056 1.10449H5.71924C5.58124 1.10449 5.46924 1.21539 5.46924 1.35202C5.46924 1.48865 5.58124 1.59957 5.71924 1.59957Z" fill="#FFFFFF"/>
<path d="M10.2506 8.77808C10.1123 8.77808 10.0006 8.88897 10.0006 9.0256V12.7386C10.0006 13.148 9.66408 13.4812 9.25057 13.4812H5.75048C5.61249 13.4812 5.50049 13.5921 5.50049 13.7288C5.50049 13.8654 5.61249 13.9763 5.75048 13.9763H9.25057C9.93983 13.9763 10.5006 13.4211 10.5006 12.7386V9.02557C10.5006 8.88897 10.3888 8.77808 10.2506 8.77808Z" fill="#FFFFFF"/>
<path d="M15.4813 7.44576C15.4686 7.4153 15.4503 7.38809 15.427 7.36506L12.9273 4.88972C12.8295 4.79295 12.6715 4.79295 12.5738 4.88972C12.476 4.98652 12.476 5.14296 12.5738 5.23973L14.647 7.29277H8.74535C8.60736 7.29277 8.49536 7.40367 8.49536 7.5403C8.49536 7.67693 8.60736 7.78782 8.74535 7.78782H14.6471L12.5738 9.84067C12.476 9.93747 12.476 10.0939 12.5738 10.1907C12.6225 10.2389 12.6865 10.2632 12.7505 10.2632C12.8145 10.2632 12.8785 10.2389 12.9273 10.1907L15.427 7.71557C15.4503 7.69253 15.4686 7.66532 15.4813 7.63487C15.5066 7.5745 15.5066 7.50619 15.4813 7.44576Z" fill="#FFFFFF"/>
</g>
</svg>
