<svg xmlns="http://www.w3.org/2000/svg" xmlns:xlink="http://www.w3.org/1999/xlink" viewBox="0 0 15 30"><defs><style>.cls-1{stroke-width:0.5px;fill:url(#Безымянный_градиент_2);stroke:url(#Безымянный_градиент_3);}.cls-2{fill:#fff;}</style><linearGradient id="Безымянный_градиент_2" x1="7.5" y1="14.64" x2="7.5" y2="0.22" gradientTransform="matrix(1, 0, 0, -1, 0, 29.96)" gradientUnits="userSpaceOnUse"><stop offset="0" stop-color="#8380d3"/><stop offset="1" stop-color="#159aef"/></linearGradient><linearGradient id="Безымянный_градиент_3" x1="7.5" y1="14.65" x2="7.5" y2="0.21" gradientTransform="matrix(1, 0, 0, -1, 0, 29.96)" gradientUnits="userSpaceOnUse"><stop offset="0" stop-color="#8380d3"/><stop offset="1" stop-color="#179aef"/></linearGradient></defs><title>Ресурс 4</title><g id="Слой_2" data-name="Слой 2"><g id="Слой_1-2" data-name="Слой 1"><path class="cls-1" d="M14.64,21.9l-2.17-2L10,17.59,7.5,15.32.35,21.9a.26.26,0,0,0,0,.35.27.27,0,0,0,.35,0l.85-.77v8.24h12V21.5l.82.77a.24.24,0,0,0,.35,0A.27.27,0,0,0,14.64,21.9Zm-4.16-3.81L12,19.47ZM6,29.27V24a.22.22,0,0,1,.22-.22H8.74A.22.22,0,0,1,9,24v5.22Zm7,0H9.49V24a.72.72,0,0,0-.72-.72H6.23a.72.72,0,0,0-.72.72v5.22H2V21.06L7.5,16l3.56,3.27,1.42,1.31.5.47Z"/><path class="cls-2" d="M14.92,6.84,12.67,4.76,10.09,2.37,7.5,0,.08,6.84a.27.27,0,0,0,0,.36.28.28,0,0,0,.36,0l.88-.8V15H13.71V6.43l.85.8a.25.25,0,0,0,.36,0A.28.28,0,0,0,14.92,6.84Zm-4.32-4,1.55,1.44ZM6,14.51V9.08a.23.23,0,0,1,.23-.23H8.79A.23.23,0,0,1,9,9.08v5.43Zm7.24,0H9.57V9.08a.75.75,0,0,0-.75-.75H6.18a.75.75,0,0,0-.75.75v5.43H1.81V6L7.5.72l3.7,3.4,1.47,1.36.52.49Z"/></g></g></svg>