<svg width="15" height="30" viewBox="0 0 15 30" fill="none" xmlns="http://www.w3.org/2000/svg">
<path d="M0.384331 29.6114C0.229802 29.4569 0.229802 29.2064 0.384331 29.052L14.0673 15.3756C14.2217 15.2213 14.472 15.2213 14.6264 15.3756C14.7809 15.5301 14.7809 15.7806 14.6264 15.935L0.94347 29.6114C0.789046 29.7657 0.538754 29.7657 0.384331 29.6114Z" fill="url(#paint0_linear)" stroke="url(#paint1_linear)" stroke-width="0.5"/>
<path d="M2.63844 19.9893C3.94462 19.9893 5.00686 18.927 5.00686 17.6209C5.00686 16.3147 3.94462 15.2524 2.63844 15.2524C1.33226 15.2524 0.27002 16.3147 0.27002 17.6209C0.27002 18.927 1.33226 19.9893 2.63844 19.9893ZM2.63844 16.0419C3.50923 16.0419 4.21739 16.7501 4.21739 17.6209C4.21739 18.4917 3.50923 19.1998 2.63844 19.1998C1.76765 19.1998 1.05949 18.4917 1.05949 17.6209C1.05949 16.7501 1.76765 16.0419 2.63844 16.0419Z" fill="url(#paint2_linear)" stroke="url(#paint3_linear)" stroke-width="0.5"/>
<path d="M12.3684 25C11.0622 25 10 26.0622 10 27.3684C10 28.6746 11.0622 29.7368 12.3684 29.7368C13.6746 29.7368 14.7368 28.6746 14.7368 27.3684C14.7368 26.0622 13.6746 25 12.3684 25ZM12.3684 28.9474C11.4976 28.9474 10.7895 28.2392 10.7895 27.3684C10.7895 26.4976 11.4976 25.7895 12.3684 25.7895C13.2392 25.7895 13.9474 26.4976 13.9474 27.3684C13.9474 28.2392 13.2392 28.9474 12.3684 28.9474Z" fill="url(#paint4_linear)" stroke="url(#paint5_linear)" stroke-width="0.5"/>
<path d="M0.394801 14.6053C0.240671 14.4512 0.240671 14.2013 0.394802 14.0472L14.0472 0.394802C14.2013 0.240671 14.4512 0.240671 14.6053 0.394801C14.7595 0.548933 14.7595 0.798829 14.6053 0.95296L0.95296 14.6053C0.798828 14.7595 0.548933 14.7595 0.394801 14.6053Z" fill="white"/>
<path d="M2.36842 4.73684C3.67461 4.73684 4.73684 3.67461 4.73684 2.36842C4.73684 1.06224 3.67461 0 2.36842 0C1.06224 0 0 1.06224 0 2.36842C0 3.67461 1.06224 4.73684 2.36842 4.73684ZM2.36842 0.789474C3.23921 0.789474 3.94737 1.49763 3.94737 2.36842C3.94737 3.23921 3.23921 3.94737 2.36842 3.94737C1.49763 3.94737 0.789474 3.23921 0.789474 2.36842C0.789474 1.49763 1.49763 0.789474 2.36842 0.789474Z" fill="white"/>
<path d="M12.6316 10.2632C11.3254 10.2632 10.2632 11.3254 10.2632 12.6316C10.2632 13.9378 11.3254 15 12.6316 15C13.9378 15 15 13.9378 15 12.6316C15 11.3254 13.9378 10.2632 12.6316 10.2632ZM12.6316 14.2106C11.7608 14.2106 11.0527 13.5024 11.0527 12.6316C11.0527 11.7608 11.7608 11.0527 12.6316 11.0527C13.5024 11.0527 14.2106 11.7608 14.2106 12.6316C14.2106 13.5024 13.5024 14.2106 12.6316 14.2106Z" fill="white"/>
<defs>
<linearGradient id="paint0_linear" x1="7.50537" y1="15.0962" x2="7.50537" y2="29.8908" gradientUnits="userSpaceOnUse">
<stop stop-color="#8380D3"/>
<stop offset="1" stop-color="#159AEF"/>
</linearGradient>
<linearGradient id="paint1_linear" x1="7.50537" y1="15.0962" x2="7.50537" y2="29.8908" gradientUnits="userSpaceOnUse">
<stop stop-color="#8380D3"/>
<stop offset="1" stop-color="#179AEF"/>
</linearGradient>
<linearGradient id="paint2_linear" x1="2.63844" y1="15.2524" x2="2.63844" y2="19.9893" gradientUnits="userSpaceOnUse">
<stop stop-color="#8380D3"/>
<stop offset="1" stop-color="#159AEF"/>
</linearGradient>
<linearGradient id="paint3_linear" x1="2.63844" y1="15.2524" x2="2.63844" y2="19.9893" gradientUnits="userSpaceOnUse">
<stop stop-color="#8380D3"/>
<stop offset="1" stop-color="#179AEF"/>
</linearGradient>
<linearGradient id="paint4_linear" x1="12.3684" y1="25" x2="12.3684" y2="29.7368" gradientUnits="userSpaceOnUse">
<stop stop-color="#8380D3"/>
<stop offset="1" stop-color="#159AEF"/>
</linearGradient>
<linearGradient id="paint5_linear" x1="12.3684" y1="25" x2="12.3684" y2="29.7368" gradientUnits="userSpaceOnUse">
<stop stop-color="#8380D3"/>
<stop offset="1" stop-color="#179AEF"/>
</linearGradient>
</defs>
</svg>
