<svg id="Слой_1" data-name="Слой 1" xmlns="http://www.w3.org/2000/svg" xmlns:xlink="http://www.w3.org/1999/xlink" viewBox="0 0 15 30"><defs><style>.cls-1,.cls-3,.cls-5,.cls-6{fill:none;}.cls-2{fill:#fff;}.cls-3{stroke:#fff;stroke-miterlimit:10;stroke-width:0.5px;}.cls-4{clip-path:url(#clip-path);}.cls-5,.cls-6{stroke-width:0.7px;}.cls-5{stroke:url(#Безымянный_градиент_4);}.cls-6{stroke:url(#Безымянный_градиент_4-2);}.cls-7{fill:url(#Безымянный_градиент_2);}</style><clipPath id="clip-path"><rect class="cls-1" y="15" width="15" height="15"/></clipPath><linearGradient id="Безымянный_градиент_4" x1="12.77" y1="13.8" x2="12.77" y2="3.6" gradientTransform="matrix(1, 0, 0, -1, 0, 31)" gradientUnits="userSpaceOnUse"><stop offset="0.52" stop-color="#8380d3"/><stop offset="1" stop-color="#109cf1"/></linearGradient><linearGradient id="Безымянный_градиент_4-2" x1="18.92" y1="13.76" x2="18.92" y2="3.56" gradientTransform="translate(21.2 31) rotate(180)" xlink:href="#Безымянный_градиент_4"/><linearGradient id="Безымянный_градиент_2" x1="7.49" y1="16" x2="7.49" y2="1" gradientTransform="matrix(1, 0, 0, -1, 0, 31)" gradientUnits="userSpaceOnUse"><stop offset="0" stop-color="#8380d3"/><stop offset="1" stop-color="#109cf1"/></linearGradient></defs><title>mem</title><path class="cls-2" d="M12.5,11.9,9.9,10.6a.7.7,0,0,1-.4-.7V9l.2-.3a6.4,6.4,0,0,0,.8-1.6,1.1,1.1,0,0,0,.6-1V5a1.1,1.1,0,0,0-.3-.7V2.8A2.5,2.5,0,0,0,10.3,1,3.5,3.5,0,0,0,7.5,0,3.5,3.5,0,0,0,4.7,1a2.5,2.5,0,0,0-.6,1.8V4.3a1.1,1.1,0,0,0-.3.7V6.1a1.1,1.1,0,0,0,.4.9,5.8,5.8,0,0,0,1,2v.9a.7.7,0,0,1-.4.6L2.4,11.9a2.5,2.5,0,0,0-1.3,2.2V15H13.9v-.8A2.5,2.5,0,0,0,12.5,11.9Zm.8,2.6H1.7v-.4a1.9,1.9,0,0,1,1-1.7L5.2,11a1.3,1.3,0,0,0,.7-1.1V8.8H5.8a5.2,5.2,0,0,1-.9-2H4.7a.6.6,0,0,1-.3-.5V5a.5.5,0,0,1,.2-.4h.1V2.8h0a1.9,1.9,0,0,1,.4-1.4A3,3,0,0,1,7.5.6a3,3,0,0,1,2.3.8,2,2,0,0,1,.5,1.4V4.5h.1a.5.5,0,0,1,.2.4V6.1a.6.6,0,0,1-.4.5H10a5.8,5.8,0,0,1-.8,1.6L9,8.7H8.9V9.9a1.3,1.3,0,0,0,.7,1.2l2.7,1.3a1.9,1.9,0,0,1,1.1,1.7Z"/><path class="cls-3" d="M14.7,12.4V12h0a1.7,1.7,0,0,0-.9-1.5L12,9.5a.5.5,0,0,1-.3-.4V8.2a4.3,4.3,0,0,0,.5-1.1.7.7,0,0,0,.4-.7V5.7a.7.7,0,0,0-.2-.5v-1A1.7,1.7,0,0,0,12.3,3a2.3,2.3,0,0,0-1.7-.7h-.1"/><path class="cls-3" d="M4.5,2.4H4.4A2.3,2.3,0,0,0,2.7,3a1.7,1.7,0,0,0-.4,1.2v1a.7.7,0,0,0-.2.5v.7a.7.7,0,0,0,.4.7,4.3,4.3,0,0,0,.5,1.1V9a.5.5,0,0,1-.3.4l-1.8.9a1.7,1.7,0,0,0-.9,1.5h0v.5h0"/><g class="cls-4"><path class="cls-5" d="M14.7,27.4V27a1.7,1.7,0,0,0-.9-1.5l-1.8-1-.2-.2V23.2a4.3,4.3,0,0,0,.5-1.1l.3-.3a.7.7,0,0,0,.1-.4v-1l-.2-.2v-1a2.2,2.2,0,0,0-.2-1.2l-.7-.5-.9-.2h-.1"/><path class="cls-6" d="M4.6,17.3H4.5l-.9.2a1.8,1.8,0,0,0-.6.5,3,3,0,0,0-.2,1.2v1l-.2.2v1a.7.7,0,0,0,.1.4l.3.3a4.3,4.3,0,0,0,.5,1.1v1.1l-.2.2-1.8,1A1.7,1.7,0,0,0,.4,27v.4"/><path class="cls-7" d="M12.8,27l-2.6-1.3-.3-.3a.7.7,0,0,1-.1-.4v-.9l.2-.3a6.2,6.2,0,0,0,.8-1.6l.6-.4a1,1,0,0,0,.2-.6V20.2a1.1,1.1,0,0,0-.3-.7V18.1a2.8,2.8,0,0,0-.6-1.8,3.9,3.9,0,0,0-1.3-.9A6.1,6.1,0,0,0,7.5,15a5.6,5.6,0,0,0-1.7.3,4.4,4.4,0,0,0-1.4,1,2.4,2.4,0,0,0-.6,1.8v1.5a1.1,1.1,0,0,0-.3.7v1.1a1,1,0,0,0,.1.5l.3.4a5.6,5.6,0,0,0,1,2V25a.7.7,0,0,1-.1.3l-.3.2L2.1,27a2.5,2.5,0,0,0-1,.9,2.4,2.4,0,0,0-.4,1.3V30H14.2v-.8a2.4,2.4,0,0,0-.4-1.3,2.5,2.5,0,0,0-1.1-.9Zm.7,2.2H1.6a1.8,1.8,0,0,1,.3-1,1.9,1.9,0,0,1,.7-.7l2.5-1.4.5-.4a1.2,1.2,0,0,0,.2-.6V23.7A4.1,4.1,0,0,1,4.9,22H4.7l-.2-.2V19.8h.1V18.1a1.8,1.8,0,0,1,.1-.7,1.8,1.8,0,0,1,.3-.6A3.1,3.1,0,0,1,6.2,16l1.3-.2,1.3.2,1.1.6a1.9,1.9,0,0,1,.5,1.4v1.7h.1v1.9l-.3.2H10a12.6,12.6,0,0,1-.8,1.6l-.2.3H8.9V25a1.2,1.2,0,0,0,.2.7l.5.5,2.7,1.3a1.9,1.9,0,0,1,.8.7,1.8,1.8,0,0,1,.3,1Z"/></g></svg>