<svg viewBox="0 0 15 30" fill="none" xmlns="http://www.w3.org/2000/svg">
<path d="M2.89657 9.84994C3.60652 11.0795 4.75283 11.9591 6.12434 12.3266C7.32545 12.6484 8.60727 12.5381 9.73364 12.0159C9.81164 11.9797 9.86864 11.8244 9.83245 11.7464C9.79626 11.6683 9.66694 11.6146 9.58888 11.6507C8.52864 12.1423 7.37831 12.1697 6.24755 11.8667C3.58221 11.1526 2.10069 8.60196 2.81487 5.93663C3.52905 3.27129 6.08832 1.79971 8.75366 2.51389C11.419 3.22806 12.8969 5.78138 12.1827 8.44672C11.8615 9.64534 11.2159 10.6067 10.1754 11.2808C10.1032 11.3276 10.0501 11.5015 10.0969 11.5737C10.1436 11.6458 10.3194 11.6994 10.3916 11.6526C11.497 10.9366 12.2936 9.84104 12.6347 8.56787C13.0022 7.19636 12.8136 5.76384 12.1037 4.53417C11.3938 3.30454 10.2475 2.42494 8.87596 2.05745C7.50446 1.68995 6.07192 1.87855 4.84227 2.58847C3.61264 3.29844 2.73304 4.44473 2.36555 5.81624C1.99805 7.18774 2.18665 8.62026 2.89657 9.84994Z" fill="white"/>
<path d="M12.4718 12.1623C13.7999 10.8342 14.5312 9.06853 14.5312 7.19042C14.5312 5.54564 13.9515 3.9457 12.8987 2.6854C12.8257 2.59808 12.6134 2.55491 12.5189 2.64941C12.4244 2.74391 12.3983 2.89166 12.4714 2.979C13.4623 4.16533 13.9015 5.64198 13.9015 7.19042C13.9015 10.8402 11.1499 13.6063 7.5 13.6063C3.85012 13.6063 1.09379 10.8402 1.09379 7.19042C1.09379 3.54055 3.85012 0.77828 7.5 0.77828C9.14135 0.77828 10.635 1.29071 11.8524 2.3894C11.9369 2.46559 12.1289 2.49377 12.2553 2.36743C12.3669 2.25573 12.2937 2.04534 12.2092 1.96906C10.9159 0.80193 9.2435 0.15918 7.5 0.15918C5.62189 0.15918 3.85619 0.89056 2.52813 2.21856C1.20014 3.54659 0.46875 5.31231 0.46875 7.19042C0.468749 9.06853 1.20014 10.8342 2.52813 12.1623C3.85619 13.4903 5.62189 14.2216 7.5 14.2216C9.37811 14.2216 11.1439 13.4903 12.4718 12.1623Z" fill="white"/>
<path d="M4.27428 6.02036C4.26354 6.13431 4.35736 6.22739 4.47181 6.22739C4.58627 6.22739 4.67779 6.13419 4.69104 6.0205C4.78592 5.20738 5.43291 4.56036 6.24606 4.46548C6.35975 4.45222 6.45296 4.3607 6.45296 4.24624C6.45296 4.13177 6.35988 4.03794 6.24591 4.04869C5.20413 4.14691 4.37249 4.97856 4.27428 6.02036Z" fill="white"/>
<path d="M10.7255 8.22655C10.7363 8.1126 10.6424 8.01953 10.528 8.01953C10.4136 8.01953 10.322 8.11272 10.3088 8.2264C10.2139 9.03953 9.56691 9.68653 8.75376 9.78143C8.64007 9.79473 8.54688 9.88623 8.54688 10.0006C8.54688 10.1151 8.63996 10.209 8.75391 10.1982C9.7957 10.1 10.6274 9.26843 10.7255 8.22655Z" fill="white"/>
<path d="M2.89657 25.4202C3.60652 26.6499 4.75283 27.5294 6.12434 27.8969C7.32545 28.2188 8.60727 28.1084 9.73364 27.5862C9.81164 27.5501 9.86864 27.3947 9.83245 27.3167C9.79626 27.2386 9.66694 27.1849 9.58888 27.2211C8.52864 27.7126 7.37831 27.7401 6.24755 27.4371C3.58221 26.7229 2.10069 24.1723 2.81487 21.5069C3.52905 18.8416 6.08832 17.37 8.75366 18.0842C11.419 18.7984 12.8969 21.3517 12.1827 24.017C11.8615 25.2157 11.2159 26.1771 10.1754 26.8512C10.1032 26.8979 10.0501 27.0718 10.0969 27.144C10.1436 27.2161 10.3194 27.2697 10.3916 27.223C11.497 26.5069 12.2936 25.4113 12.6347 24.1382C13.0022 22.7667 12.8136 21.3342 12.1037 20.1045C11.3938 18.8748 10.2475 17.9952 8.87596 17.6278C7.50446 17.2603 6.07192 17.4489 4.84227 18.1588C3.61264 18.8688 2.73304 20.015 2.36555 21.3865C1.99805 22.758 2.18665 24.1906 2.89657 25.4202Z" fill="url(#paint0_linear)" stroke="url(#paint1_linear)" stroke-width="0.3"/>
<path d="M12.4718 27.7327C13.7999 26.4046 14.5312 24.6389 14.5312 22.7607C14.5312 21.116 13.9515 19.516 12.8987 18.2557C12.8257 18.1684 12.6134 18.1252 12.5189 18.2197C12.4244 18.3142 12.3983 18.462 12.4714 18.5493C13.4623 19.7356 13.9015 21.2123 13.9015 22.7607C13.9015 26.4106 11.1499 29.1767 7.5 29.1767C3.85012 29.1767 1.09379 26.4106 1.09379 22.7607C1.09379 19.1109 3.85012 16.3486 7.5 16.3486C9.14135 16.3486 10.635 16.861 11.8524 17.9597C11.9369 18.0359 12.1289 18.0641 12.2553 17.9377C12.3669 17.8261 12.2937 17.6157 12.2092 17.5394C10.9159 16.3723 9.2435 15.7295 7.5 15.7295C5.62189 15.7295 3.85619 16.4609 2.52813 17.7889C1.20014 19.1169 0.46875 20.8826 0.46875 22.7607C0.468749 24.6389 1.20014 26.4046 2.52813 27.7327C3.85619 29.0606 5.62189 29.792 7.5 29.792C9.37811 29.792 11.1439 29.0606 12.4718 27.7327Z" fill="url(#paint2_linear)" stroke="url(#paint3_linear)" stroke-width="0.3"/>
<path d="M4.27428 21.5917C4.26354 21.7056 4.35736 21.7987 4.47181 21.7987C4.58627 21.7987 4.67779 21.7055 4.69104 21.5918C4.78592 20.7787 5.43291 20.1317 6.24606 20.0368C6.35975 20.0235 6.45296 19.932 6.45296 19.8176C6.45296 19.7031 6.35988 19.6093 6.24591 19.62C5.20413 19.7182 4.37249 20.5499 4.27428 21.5917Z" fill="url(#paint4_linear)" stroke="url(#paint5_linear)" stroke-width="0.3"/>
<path d="M10.7255 23.7979C10.7363 23.6839 10.6424 23.5908 10.528 23.5908C10.4136 23.5908 10.322 23.684 10.3088 23.7977C10.2139 24.6109 9.56691 25.2578 8.75376 25.3527C8.64007 25.366 8.54688 25.4575 8.54688 25.572C8.54688 25.6865 8.63996 25.7803 8.75391 25.7695C9.7957 25.6714 10.6274 24.8397 10.7255 23.7979Z" fill="url(#paint6_linear)" stroke="url(#paint7_linear)" stroke-width="0.3"/>
<defs>
<linearGradient id="paint0_linear" x1="1.46252" y1="23.6648" x2="14.9974" y2="23.6648" gradientUnits="userSpaceOnUse">
<stop stop-color="#8380D3"/>
<stop offset="1" stop-color="#119BF0"/>
</linearGradient>
<linearGradient id="paint1_linear" x1="2.02108" y1="22.5738" x2="22.0015" y2="22.5738" gradientUnits="userSpaceOnUse">
<stop stop-color="#7982D5"/>
<stop offset="1" stop-color="#2795EA"/>
</linearGradient>
<linearGradient id="paint2_linear" x1="-0.482687" y1="23.9559" x2="17.4126" y2="23.9559" gradientUnits="userSpaceOnUse">
<stop stop-color="#8380D3"/>
<stop offset="1" stop-color="#119BF0"/>
</linearGradient>
<linearGradient id="paint3_linear" x1="0.255813" y1="22.5131" x2="26.673" y2="22.5131" gradientUnits="userSpaceOnUse">
<stop stop-color="#7982D5"/>
<stop offset="1" stop-color="#2795EA"/>
</linearGradient>
<linearGradient id="paint4_linear" x1="4.12598" y1="20.8942" x2="6.89954" y2="20.8942" gradientUnits="userSpaceOnUse">
<stop stop-color="#8380D3"/>
<stop offset="1" stop-color="#119BF0"/>
</linearGradient>
<linearGradient id="paint5_linear" x1="4.24043" y1="20.6706" x2="8.3348" y2="20.6706" gradientUnits="userSpaceOnUse">
<stop stop-color="#7982D5"/>
<stop offset="1" stop-color="#2795EA"/>
</linearGradient>
<linearGradient id="paint6_linear" x1="8.3994" y1="24.8658" x2="11.1729" y2="24.8658" gradientUnits="userSpaceOnUse">
<stop stop-color="#8380D3"/>
<stop offset="1" stop-color="#119BF0"/>
</linearGradient>
<linearGradient id="paint7_linear" x1="8.51385" y1="24.6422" x2="12.6082" y2="24.6422" gradientUnits="userSpaceOnUse">
<stop stop-color="#7982D5"/>
<stop offset="1" stop-color="#2795EA"/>
</linearGradient>
</defs>
</svg>
