<svg id="Слой_1" data-name="Слой 1" xmlns="http://www.w3.org/2000/svg" xmlns:xlink="http://www.w3.org/1999/xlink" viewBox="0 0 15 30"><defs><style>.cls-1{fill:none;}.cls-2{clip-path:url(#clip-path);}.cls-3{fill:#fff;}.cls-4{clip-path:url(#clip-path-2);}.cls-10,.cls-11,.cls-12,.cls-13,.cls-14,.cls-15,.cls-16,.cls-5,.cls-6,.cls-7,.cls-8,.cls-9{stroke-width:0.25px;}.cls-5{fill:url(#Безымянный_градиент_23);stroke:url(#Безымянный_градиент_24);}.cls-6{fill:url(#Безымянный_градиент_23-2);stroke:url(#Безымянный_градиент_24-2);}.cls-7{fill:url(#Безымянный_градиент_23-3);stroke:url(#Безымянный_градиент_24-3);}.cls-8{fill:url(#Безымянный_градиент_23-4);stroke:url(#Безымянный_градиент_24-4);}.cls-9{fill:url(#Безымянный_градиент_23-5);stroke:url(#Безымянный_градиент_24-5);}.cls-10{fill:url(#Безымянный_градиент_23-6);stroke:url(#Безымянный_градиент_24-6);}.cls-11{fill:url(#Безымянный_градиент_23-7);stroke:url(#Безымянный_градиент_24-7);}.cls-12{fill:url(#Безымянный_градиент_23-8);stroke:url(#Безымянный_градиент_24-8);}.cls-13{fill:url(#Безымянный_градиент_23-9);stroke:url(#Безымянный_градиент_24-9);}.cls-14{fill:url(#Безымянный_градиент_23-10);stroke:url(#Безымянный_градиент_24-10);}.cls-15{fill:url(#Безымянный_градиент_23-11);stroke:url(#Безымянный_градиент_24-11);}.cls-16{fill:url(#Безымянный_градиент_23-12);stroke:url(#Безымянный_градиент_24-12);}</style><clipPath id="clip-path"><rect class="cls-1" width="15" height="15"/></clipPath><clipPath id="clip-path-2"><rect class="cls-1" y="15" width="15" height="15"/></clipPath><linearGradient id="Безымянный_градиент_23" x1="7.5" y1="17" x2="7.5" y2="2" gradientTransform="matrix(1, 0, 0, -1, 0, 32)" gradientUnits="userSpaceOnUse"><stop offset="0" stop-color="#8380d3"/><stop offset="1" stop-color="#159aef"/></linearGradient><linearGradient id="Безымянный_градиент_24" x1="7.5" y1="17" x2="7.5" y2="2" gradientTransform="matrix(1, 0, 0, -1, 0, 32)" gradientUnits="userSpaceOnUse"><stop offset="0" stop-color="#8380d3"/><stop offset="1" stop-color="#179aef"/></linearGradient><linearGradient id="Безымянный_градиент_23-2" x1="4.35" y1="16.03" x2="4.35" y2="9.74" xlink:href="#Безымянный_градиент_23"/><linearGradient id="Безымянный_градиент_24-2" x1="4.35" y1="16.03" x2="4.35" y2="9.74" xlink:href="#Безымянный_градиент_24"/><linearGradient id="Безымянный_градиент_23-3" x1="8.47" y1="7.32" x2="8.47" y2="2.97" xlink:href="#Безымянный_градиент_23"/><linearGradient id="Безымянный_градиент_24-3" x1="8.47" y1="7.32" x2="8.47" y2="2.97" xlink:href="#Безымянный_градиент_24"/><linearGradient id="Безымянный_градиент_23-4" x1="10.16" y1="16.03" x2="10.16" y2="15.55" xlink:href="#Безымянный_градиент_23"/><linearGradient id="Безымянный_градиент_24-4" x1="10.16" y1="16.03" x2="10.16" y2="15.55" xlink:href="#Безымянный_градиент_24"/><linearGradient id="Безымянный_градиент_23-5" x1="10.16" y1="15.06" x2="10.16" y2="14.58" xlink:href="#Безымянный_градиент_23"/><linearGradient id="Безымянный_градиент_24-5" x1="10.16" y1="15.06" x2="10.16" y2="14.58" xlink:href="#Безымянный_градиент_24"/><linearGradient id="Безымянный_градиент_23-6" x1="10.16" y1="14.1" x2="10.16" y2="13.61" xlink:href="#Безымянный_градиент_23"/><linearGradient id="Безымянный_градиент_24-6" x1="10.16" y1="14.1" x2="10.16" y2="13.61" xlink:href="#Безымянный_градиент_24"/><linearGradient id="Безымянный_градиент_23-7" x1="10.16" y1="13.13" x2="10.16" y2="12.65" xlink:href="#Безымянный_градиент_23"/><linearGradient id="Безымянный_градиент_24-7" x1="10.16" y1="13.13" x2="10.16" y2="12.65" xlink:href="#Безымянный_градиент_24"/><linearGradient id="Безымянный_градиент_23-8" x1="2.9" y1="9.26" x2="2.9" y2="8.77" xlink:href="#Безымянный_градиент_23"/><linearGradient id="Безымянный_градиент_24-8" x1="2.9" y1="9.26" x2="2.9" y2="8.77" xlink:href="#Безымянный_градиент_24"/><linearGradient id="Безымянный_градиент_23-9" x1="2.9" y1="8.29" x2="2.9" y2="7.81" xlink:href="#Безымянный_градиент_23"/><linearGradient id="Безымянный_градиент_24-9" x1="2.9" y1="8.29" x2="2.9" y2="7.81" xlink:href="#Безымянный_градиент_24"/><linearGradient id="Безымянный_градиент_23-10" x1="2.9" y1="7.32" x2="2.9" y2="6.84" xlink:href="#Безымянный_градиент_23"/><linearGradient id="Безымянный_градиент_24-10" x1="2.9" y1="7.32" x2="2.9" y2="6.84" xlink:href="#Безымянный_градиент_24"/><linearGradient id="Безымянный_градиент_23-11" x1="2.9" y1="6.35" x2="2.9" y2="5.87" xlink:href="#Безымянный_градиент_23"/><linearGradient id="Безымянный_градиент_24-11" x1="2.9" y1="6.35" x2="2.9" y2="5.87" xlink:href="#Безымянный_градиент_24"/><linearGradient id="Безымянный_градиент_23-12" x1="8.47" y1="9.26" x2="8.47" y2="6.84" xlink:href="#Безымянный_градиент_23"/><linearGradient id="Безымянный_градиент_24-12" x1="8.47" y1="9.26" x2="8.47" y2="6.84" xlink:href="#Безымянный_градиент_24"/></defs><title>Монтажная область 1</title><g class="cls-2"><path class="cls-3" d="M13.1,3.4V0H0V13.8A1.2,1.2,0,0,0,1.2,15H13.8A1.2,1.2,0,0,0,15,13.8V3.4ZM1.2,14.5a.7.7,0,0,1-.7-.7V.5H12.6V13.8a1.2,1.2,0,0,0,.2.7Zm13.3-.7a.7.7,0,0,1-1.5,0V3.9h1.5Z"/><path class="cls-3" d="M1,1V7.3H7.7V1ZM7.3,6.8H1.5V1.5H7.3Z"/><path class="cls-3" d="M11.6,13.5V9.7H10.2v3.9h-1V10.6H7.7v2.9h-1V9.7H5.3v3.9H4.8V14h7.3v-.5Zm-5.3,0H5.8V10.2h.5Zm2.4,0H8.2V11.1h.5Zm2.4,0h-.5V10.2h.5Z"/><path class="cls-3" d="M12.1,1H8.2v.5h3.9Z"/><path class="cls-3" d="M12.1,1.9H8.2v.5h3.9Z"/><path class="cls-3" d="M12.1,2.9H8.2v.5h3.9Z"/><path class="cls-3" d="M12.1,3.9H8.2v.5h3.9Z"/><path class="cls-3" d="M4.8,7.7H1v.5H4.8Z"/><path class="cls-3" d="M4.8,8.7H1v.5H4.8Z"/><path class="cls-3" d="M4.8,9.7H1v.5H4.8Z"/><path class="cls-3" d="M4.8,10.6H1v.5H4.8Z"/><path class="cls-3" d="M10.9,7.7a.7.7,0,0,0-.7.7h0L9,9l-.5-.2L7.9,9,6.8,8.5h0a.7.7,0,1,0-.7.7l.5-.2,1.2.5h0a.7.7,0,0,0,1.5,0h0l1.2-.5.5.2a.7.7,0,0,0,0-1.5ZM6,8.7a.2.2,0,1,1,.2-.2A.2.2,0,0,1,6,8.7Zm2.4,1a.2.2,0,1,1,.2-.2A.2.2,0,0,1,8.5,9.7Zm2.4-1a.2.2,0,1,1,.2-.2A.2.2,0,0,1,10.9,8.7Z"/></g><g class="cls-4"><path class="cls-5" d="M13.1,18.4V15H0V28.8A1.2,1.2,0,0,0,1.2,30H13.8A1.2,1.2,0,0,0,15,28.8V18.4ZM1.2,29.5a.7.7,0,0,1-.7-.7V15.5H12.6V28.8a1.2,1.2,0,0,0,.2.7Zm13.3-.7a.7.7,0,0,1-1.5,0V18.9h1.5Z"/><path class="cls-6" d="M1,16v6.3H7.7V16Zm6.3,5.8H1.5V16.5H7.3Z"/><path class="cls-7" d="M11.6,28.5V24.7H10.2v3.9h-1V25.6H7.7v2.9h-1V24.7H5.3v3.9H4.8V29h7.3v-.5Zm-5.3,0H5.8V25.2h.5Zm2.4,0H8.2V26.1h.5Zm2.4,0h-.5V25.2h.5Z"/><path class="cls-8" d="M12.1,16H8.2v.5h3.9Z"/><path class="cls-9" d="M12.1,16.9H8.2v.5h3.9Z"/><path class="cls-10" d="M12.1,17.9H8.2v.5h3.9Z"/><path class="cls-11" d="M12.1,18.9H8.2v.5h3.9Z"/><path class="cls-12" d="M4.8,22.7H1v.5H4.8Z"/><path class="cls-13" d="M4.8,23.7H1v.5H4.8Z"/><path class="cls-14" d="M4.8,24.7H1v.5H4.8Z"/><path class="cls-15" d="M4.8,25.6H1v.5H4.8Z"/><path class="cls-16" d="M10.9,22.7a.7.7,0,0,0-.7.7h0L9,24l-.5-.2-.5.2-1.2-.5h0a.7.7,0,1,0-.7.7l.5-.2,1.2.5h0a.7.7,0,0,0,1.5,0h0l1.2-.5.5.2a.7.7,0,0,0,0-1.5ZM6,23.7a.2.2,0,1,1,.2-.2A.2.2,0,0,1,6,23.7Zm2.4,1a.2.2,0,1,1,.2-.2A.2.2,0,0,1,8.5,24.7Zm2.4-1a.2.2,0,1,1,.2-.2A.2.2,0,0,1,10.9,23.7Z"/></g></svg>