<svg viewBox="0 0 16 30" fill="none" xmlns="http://www.w3.org/2000/svg">
<path d="M1.3 0.3H14C14.9389 0.3 15.7 1.06112 15.7 2V13C15.7 13.9389 14.9389 14.7 14 14.7H1.3V0.3Z" stroke="white" stroke-width="0.6"/>
<rect x="13.0298" y="3.73047" width="0.6" height="9.02965" rx="0.3" transform="rotate(90 13.0298 3.73047)" fill="white"/>
<rect x="13.0298" y="6.04297" width="0.6" height="9.02965" rx="0.3" transform="rotate(90 13.0298 6.04297)" fill="white"/>
<rect x="13.0298" y="8.35742" width="0.6" height="9.02965" rx="0.3" transform="rotate(90 13.0298 8.35742)" fill="white"/>
<rect x="11.5254" y="10.6699" width="0.6" height="7.52548" rx="0.3" transform="rotate(90 11.5254 10.6699)" fill="white"/>
<path d="M1 15H16V30H1V15Z" stroke="url(#paint0_linear)" stroke-width="0.5"/>
<rect x="12.5894" y="18.7305" width="0.6" height="9.02965" transform="rotate(90 12.5894 18.7305)" fill="url(#paint1_linear)" stroke="url(#paint2_linear)" stroke-width="0.5"/>
<rect x="12.5894" y="21.043" width="0.6" height="9.02965" transform="rotate(90 12.5894 21.043)" fill="url(#paint3_linear)" stroke="url(#paint4_linear)" stroke-width="0.5"/>
<rect x="12.5894" y="23.3574" width="0.6" height="9.02965" transform="rotate(90 12.5894 23.3574)" fill="url(#paint5_linear)" stroke="url(#paint6_linear)" stroke-width="0.5"/>
<rect x="11.085" y="25.6699" width="0.6" height="7.52548" transform="rotate(90 11.085 25.6699)" fill="url(#paint7_linear)" stroke="url(#paint8_linear)" stroke-width="0.5"/>
<defs>
<linearGradient id="paint0_linear" x1="8.5" y1="15" x2="8.5" y2="30" gradientUnits="userSpaceOnUse">
<stop stop-color="#8380D3"/>
<stop offset="1" stop-color="#179AEF"/>
</linearGradient>
<linearGradient id="paint1_linear" x1="12.8894" y1="18.7305" x2="12.8894" y2="27.7601" gradientUnits="userSpaceOnUse">
<stop stop-color="#8380D3"/>
<stop offset="1" stop-color="#159AEF"/>
</linearGradient>
<linearGradient id="paint2_linear" x1="12.8894" y1="18.7305" x2="12.8894" y2="27.7601" gradientUnits="userSpaceOnUse">
<stop stop-color="#8380D3"/>
<stop offset="1" stop-color="#179AEF"/>
</linearGradient>
<linearGradient id="paint3_linear" x1="12.8894" y1="21.043" x2="12.8894" y2="30.0726" gradientUnits="userSpaceOnUse">
<stop stop-color="#8380D3"/>
<stop offset="1" stop-color="#159AEF"/>
</linearGradient>
<linearGradient id="paint4_linear" x1="12.8894" y1="21.043" x2="12.8894" y2="30.0726" gradientUnits="userSpaceOnUse">
<stop stop-color="#8380D3"/>
<stop offset="1" stop-color="#179AEF"/>
</linearGradient>
<linearGradient id="paint5_linear" x1="12.8894" y1="23.3574" x2="12.8894" y2="32.3871" gradientUnits="userSpaceOnUse">
<stop stop-color="#8380D3"/>
<stop offset="1" stop-color="#159AEF"/>
</linearGradient>
<linearGradient id="paint6_linear" x1="12.8894" y1="23.3574" x2="12.8894" y2="32.3871" gradientUnits="userSpaceOnUse">
<stop stop-color="#8380D3"/>
<stop offset="1" stop-color="#179AEF"/>
</linearGradient>
<linearGradient id="paint7_linear" x1="11.385" y1="25.6699" x2="11.385" y2="33.1954" gradientUnits="userSpaceOnUse">
<stop stop-color="#8380D3"/>
<stop offset="1" stop-color="#159AEF"/>
</linearGradient>
<linearGradient id="paint8_linear" x1="11.385" y1="25.6699" x2="11.385" y2="33.1954" gradientUnits="userSpaceOnUse">
<stop stop-color="#8380D3"/>
<stop offset="1" stop-color="#179AEF"/>
</linearGradient>
</defs>
</svg>
