<svg viewBox="0 0 15 15" fill="none" xmlns="http://www.w3.org/2000/svg">
<path d="M15 7.5C15 11.6421 11.6421 15 7.5 15C3.35786 15 0 11.6421 0 7.5C0 3.35786 3.35786 0 7.5 0C11.6421 0 15 3.35786 15 7.5ZM0.825 7.5C0.825 11.1865 3.8135 14.175 7.5 14.175C11.1865 14.175 14.175 11.1865 14.175 7.5C14.175 3.8135 11.1865 0.825 7.5 0.825C3.8135 0.825 0.825 3.8135 0.825 7.5Z" fill="white"/>
<path d="M8.95564 7.29888C8.7465 7.15422 8.39314 7.01091 7.87784 6.86202V5.43439C8.04157 5.47592 8.16503 5.5649 8.25183 5.70258C8.32085 5.81491 8.36338 5.94958 8.37815 6.1028C8.38802 6.20448 8.47348 6.28208 8.57561 6.28208H9.21894C9.27245 6.28208 9.32366 6.26048 9.36103 6.22211C9.39836 6.18381 9.41866 6.13205 9.41725 6.07853C9.40511 5.6107 9.24658 5.22524 8.94603 4.93286C8.68716 4.68122 8.32846 4.52387 7.87788 4.46405V4.15831C7.87788 4.04876 7.78908 3.95996 7.67953 3.95996H7.32773C7.21818 3.95996 7.12938 4.04876 7.12938 4.15831V4.4622C6.67138 4.50447 6.30069 4.67684 6.02545 4.97594C5.71793 5.3107 5.56203 5.69646 5.56203 6.12236C5.56203 6.59951 5.71255 6.97981 6.00842 7.25171C6.25976 7.48606 6.63638 7.66147 7.12934 7.77425V9.39975C6.8976 9.34505 6.73795 9.23413 6.64433 9.0638C6.59467 8.97295 6.5304 8.78551 6.50628 8.40845C6.4996 8.30398 6.41299 8.22279 6.3083 8.22279H5.65874C5.54919 8.22279 5.46039 8.31159 5.46039 8.42114C5.46039 8.88764 5.53646 9.24938 5.69236 9.52618C5.96014 10.0072 6.44308 10.2919 7.12934 10.3738V10.8415C7.12934 10.951 7.21815 11.0398 7.32769 11.0398H7.67949C7.78904 11.0398 7.87784 10.951 7.87784 10.8415V10.3668C8.26834 10.3078 8.58095 10.2038 8.8094 10.0568C9.29794 9.74034 9.54361 9.2132 9.5396 8.49127C9.5396 7.96855 9.34318 7.5674 8.95564 7.29888ZM6.62276 6.08006C6.62276 5.92086 6.67802 5.76878 6.79102 5.61593C6.86164 5.52167 6.97497 5.4577 7.12938 5.42478V6.68182C6.99768 6.63514 6.88702 6.57483 6.79926 6.50188C6.67884 6.39983 6.62276 6.26586 6.62276 6.08006ZM7.87784 7.96929C8.06313 8.03398 8.16551 8.08983 8.22158 8.12953C8.39715 8.25392 8.47894 8.42581 8.47894 8.6704C8.47894 8.8309 8.44584 8.96872 8.37748 9.09219C8.27944 9.2705 8.11501 9.38082 7.87788 9.42647V7.96937H7.87784V7.96929Z" fill="white"/>
</svg>
