<svg viewBox="0 0 15 15" fill="none" xmlns="http://www.w3.org/2000/svg">
<path d="M7.5 14.5875C7.5 14.8153 7.31514 15.0012 7.08766 14.9887C5.24881 14.8875 3.50572 14.1123 2.1967 12.8033C0.790176 11.3968 -5.53337e-08 9.48912 0 7.5C5.53337e-08 5.51088 0.790176 3.60322 2.1967 2.1967C3.50572 0.887675 5.24881 0.11251 7.08766 0.0113327C7.31514 -0.0011833 7.5 0.184683 7.5 0.4125V0.4125C7.5 0.640318 7.31509 0.823672 7.08771 0.837734C5.46783 0.937915 3.93434 1.62579 2.78006 2.78006C1.52826 4.03187 0.825 5.72968 0.825 7.5C0.825 9.27032 1.52826 10.9681 2.78006 12.2199C3.93434 13.3742 5.46783 14.0621 7.08771 14.1623C7.31509 14.1763 7.5 14.3597 7.5 14.5875V14.5875Z" fill="white"/>
<path d="M9.13411 7.29888C8.92496 7.15422 8.57161 7.01091 8.05631 6.86202V5.43439C8.22003 5.47592 8.3435 5.5649 8.4303 5.70258C8.49932 5.81491 8.54185 5.94958 8.55662 6.1028C8.56649 6.20448 8.65195 6.28208 8.75407 6.28208H9.3974C9.45091 6.28208 9.50213 6.26048 9.53949 6.22211C9.57683 6.18381 9.59713 6.13205 9.59572 6.07853C9.58358 5.6107 9.42505 5.22524 9.1245 4.93286C8.86563 4.68122 8.50693 4.52387 8.05634 4.46405V4.15831C8.05634 4.04876 7.96754 3.95996 7.858 3.95996H7.5062C7.39665 3.95996 7.30785 4.04876 7.30785 4.15831V4.4622C6.84984 4.50447 6.47916 4.67684 6.20392 4.97594C5.89639 5.3107 5.7405 5.69646 5.7405 6.12236C5.7405 6.59951 5.89101 6.97981 6.18689 7.25171C6.43823 7.48606 6.81485 7.66147 7.30781 7.77425V9.39975C7.07606 9.34505 6.91642 9.23413 6.82279 9.0638C6.77314 8.97295 6.70887 8.78551 6.68475 8.40845C6.67807 8.30398 6.59145 8.22279 6.48677 8.22279H5.8372C5.72766 8.22279 5.63885 8.31159 5.63885 8.42114C5.63885 8.88764 5.71493 9.24938 5.87083 9.52618C6.13861 10.0072 6.62155 10.2919 7.30781 10.3738V10.8415C7.30781 10.951 7.39661 11.0398 7.50616 11.0398H7.85796C7.9675 11.0398 8.05631 10.951 8.05631 10.8415V10.3668C8.44681 10.3078 8.75942 10.2038 8.98786 10.0568C9.47641 9.74034 9.72207 9.2132 9.71806 8.49127C9.71806 7.96855 9.52164 7.5674 9.13411 7.29888ZM6.80123 6.08006C6.80123 5.92086 6.85649 5.76878 6.96949 5.61593C7.0401 5.52167 7.15344 5.4577 7.30785 5.42478V6.68182C7.17615 6.63514 7.06549 6.57483 6.97772 6.50188C6.8573 6.39983 6.80123 6.26586 6.80123 6.08006ZM8.05631 7.96929C8.24159 8.03398 8.34398 8.08983 8.40005 8.12953C8.57562 8.25392 8.6574 8.42581 8.6574 8.6704C8.6574 8.8309 8.6243 8.96872 8.55595 9.09219C8.45791 9.2705 8.29347 9.38082 8.05634 9.42647V7.96937H8.05631V7.96929Z" fill="white"/>
<path d="M9.19439 0.618017C9.24886 0.396805 9.47275 0.260514 9.69063 0.327056C9.88796 0.38732 10.0827 0.455701 10.2744 0.532025C10.4861 0.616299 10.5756 0.862644 10.4798 1.06935V1.06935C10.384 1.27605 10.1392 1.36469 9.92701 1.28186C9.78414 1.2261 9.63939 1.17527 9.49302 1.12948C9.27559 1.06146 9.13993 0.839228 9.19439 0.618017V0.618017Z" fill="white"/>
<path d="M11.6097 1.72565C11.7418 1.54004 12.0001 1.49578 12.1782 1.63789C12.3395 1.76658 12.4954 1.90188 12.6455 2.04343C12.8112 2.19973 12.8038 2.46174 12.6386 2.61864V2.61864C12.4734 2.77555 12.2132 2.7678 12.0463 2.61264C11.9341 2.50818 11.8182 2.40762 11.699 2.31114C11.5219 2.16783 11.4776 1.91126 11.6097 1.72565V1.72565Z" fill="white"/>
<path d="M13.41 3.58786C13.5999 3.46211 13.8569 3.51363 13.9721 3.71022C14.0763 3.88827 14.1732 4.07054 14.2624 4.25657C14.3609 4.46199 14.2598 4.70382 14.0493 4.7909V4.7909C13.8388 4.87798 13.5987 4.77724 13.4988 4.57251C13.4315 4.43468 13.3595 4.2992 13.2829 4.16633C13.1692 3.96896 13.22 3.71361 13.41 3.58786V3.58786Z" fill="white"/>
<path d="M14.3851 5.81814C14.6064 5.76408 14.8308 5.89952 14.8726 6.12347C14.9105 6.32629 14.9399 6.53058 14.961 6.73583C14.9842 6.96246 14.8072 7.15582 14.5797 7.16654V7.16654C14.3521 7.17726 14.1602 7.00124 14.1355 6.77477C14.1188 6.62231 14.0969 6.47047 14.0698 6.31952C14.0295 6.09529 14.1637 5.87221 14.3851 5.81814V5.81814Z" fill="white"/>
<path d="M14.5261 8.43061C14.752 8.46052 14.912 8.66814 14.8697 8.892C14.8314 9.09474 14.7848 9.29582 14.7299 9.49471C14.6693 9.71432 14.4342 9.83031 14.2183 9.75773V9.75773C14.0023 9.68516 13.8874 9.45153 13.9465 9.23151C13.9863 9.08339 14.021 8.93395 14.0505 8.78344C14.0943 8.55987 14.3003 8.40069 14.5261 8.43061V8.43061Z" fill="white"/>
<path d="M13.7781 10.7891C13.9799 10.8948 14.0588 11.1448 13.9421 11.3404C13.8365 11.5177 13.7236 11.6905 13.6037 11.8584C13.4713 12.0438 13.2107 12.0719 13.0328 11.9295V11.9295C12.855 11.7871 12.8274 11.5282 12.9585 11.3419C13.0468 11.2165 13.1307 11.0881 13.2101 10.9569C13.3281 10.762 13.5763 10.6833 13.7781 10.7891V10.7891Z" fill="white"/>
<path d="M12.322 12.6943C12.477 12.8613 12.468 13.1233 12.2928 13.2688C12.1341 13.4007 11.97 13.5259 11.801 13.6443C11.6143 13.7749 11.3593 13.7145 11.2391 13.521V13.521C11.1189 13.3274 11.1792 13.0741 11.3649 12.9422C11.49 12.8534 11.6119 12.7603 11.7306 12.6631C11.9068 12.5188 12.167 12.5274 12.322 12.6943V12.6943Z" fill="white"/>
<path d="M10.0084 14.1288C10.0891 14.3418 9.98199 14.5811 9.76481 14.6499C9.56812 14.7122 9.36894 14.7663 9.16778 14.8122C8.94567 14.8629 8.73218 14.7108 8.69381 14.4862V14.4862C8.65543 14.2617 8.80676 14.0498 9.02853 13.9976C9.17782 13.9625 9.32586 13.9223 9.47238 13.8769C9.69002 13.8096 9.92781 13.9157 10.0084 14.1288V14.1288Z" fill="white"/>
</svg>
