<svg viewBox="0 0 20 20" fill="none" xmlns="http://www.w3.org/2000/svg">
<path d="M14.1984 0H5.80171C4.99237 0 4.33337 0.659 4.33337 1.46833V18.5313C4.33337 19.341 4.99237 20 5.80171 20H14.198C15.0077 20 15.6667 19.341 15.6667 18.5317V1.46833C15.6667 0.659 15.0077 0 14.1984 0ZM5.00004 2.66667H15V15.3333H5.00004V2.66667ZM5.80171 0.666667H14.198C14.6404 0.666667 15 1.02633 15 1.46833V2H5.00004V1.46833C5.00004 1.02633 5.35971 0.666667 5.80171 0.666667ZM14.1984 19.3333H5.80171C5.35971 19.3333 5.00004 18.9737 5.00004 18.5317V16H15V18.5317C15 18.9737 14.6404 19.3333 14.1984 19.3333Z" fill="#FFFFFF"/>
<path d="M9.99996 16.3334C9.26463 16.3334 8.66663 16.9314 8.66663 17.6667C8.66663 18.402 9.26463 19 9.99996 19C10.7353 19 11.3333 18.402 11.3333 17.6667C11.3333 16.9314 10.7353 16.3334 9.99996 16.3334ZM9.99996 18.3334C9.63229 18.3334 9.33329 18.0344 9.33329 17.6667C9.33329 17.299 9.63229 17 9.99996 17C10.3676 17 10.6666 17.299 10.6666 17.6667C10.6666 18.0344 10.3676 18.3334 9.99996 18.3334Z" fill="#FFFFFF"/>
<path d="M8.66671 1.66667H10C10.1844 1.66667 10.3334 1.51767 10.3334 1.33333C10.3334 1.149 10.1844 1 10 1H8.66671C8.48237 1 8.33337 1.149 8.33337 1.33333C8.33337 1.51767 8.48237 1.66667 8.66671 1.66667Z" fill="#FFFFFF"/>
<path d="M11 1.66667H11.3333C11.5176 1.66667 11.6666 1.51767 11.6666 1.33333C11.6666 1.149 11.5176 1 11.3333 1H11C10.8156 1 10.6666 1.149 10.6666 1.33333C10.6666 1.51767 10.8156 1.66667 11 1.66667Z" fill="#FFFFFF"/>
<path d="M18.8707 1.52304C18.7404 1.39271 18.5297 1.39271 18.3994 1.52304C18.2691 1.65338 18.2691 1.86404 18.3994 1.99438C19.6447 3.23971 19.6447 5.26604 18.3994 6.51171C18.2691 6.64204 18.2691 6.85271 18.3994 6.98304C18.4644 7.04804 18.5497 7.08071 18.6351 7.08071C18.7204 7.08071 18.8057 7.04804 18.8707 6.98304C20.3761 5.47804 20.3761 3.02838 18.8707 1.52304Z" fill="#FFFFFF"/>
<path d="M17.467 2.28171C17.3367 2.15138 17.126 2.15138 16.9957 2.28171C16.8654 2.41204 16.8654 2.62271 16.9957 2.75304C17.408 3.16538 17.635 3.71471 17.635 4.29938C17.635 4.88404 17.408 5.43304 16.9957 5.84538C16.8654 5.97571 16.8654 6.18638 16.9957 6.31671C17.0607 6.38171 17.146 6.41438 17.2314 6.41438C17.3167 6.41438 17.402 6.38171 17.467 6.31671C18.0054 5.77871 18.3017 5.06204 18.3017 4.29938C18.3017 3.53671 18.0057 2.81971 17.467 2.28171Z" fill="#FFFFFF"/>
<path d="M1.6007 1.99438C1.73103 1.86404 1.73103 1.65338 1.6007 1.52304C1.47037 1.39271 1.2597 1.39271 1.12937 1.52304C-0.375967 3.02838 -0.375967 5.47771 1.12937 6.98304C1.19437 7.04804 1.2797 7.08071 1.36503 7.08071C1.45037 7.08071 1.5357 7.04804 1.6007 6.98304C1.73103 6.85271 1.73103 6.64204 1.6007 6.51171C0.355033 5.26638 0.355033 3.24004 1.6007 1.99438Z" fill="#FFFFFF"/>
<path d="M3.00436 2.18967C2.87403 2.05934 2.66336 2.05934 2.53303 2.18967C1.9947 2.72767 1.69836 3.44434 1.69836 4.207C1.69836 4.96967 1.9947 5.68634 2.53303 6.22467C2.59803 6.28967 2.68336 6.32234 2.7687 6.32234C2.85403 6.32234 2.93936 6.28967 3.00436 6.22467C3.1347 6.09434 3.1347 5.88367 3.00436 5.75334C2.59203 5.341 2.36503 4.79167 2.36503 4.207C2.36503 3.62234 2.5917 3.07334 3.00436 2.661C3.13436 2.531 3.13436 2.32 3.00436 2.18967Z" fill="#FFFFFF"/>
</svg>
