<svg viewBox="0 0 20 20" fill="none" xmlns="http://www.w3.org/2000/svg">
<g opacity="0.8" clip-path="url(#clip0)">
<path d="M19.8614 16.373C20.1219 16.373 20.3331 16.1981 20.3331 15.9824V1.20393C20.3331 0.557762 19.6983 0.0320587 18.9181 0.0320587H1.74856C0.968296 0.0320587 0.333496 0.557762 0.333496 1.20393V18.8602C0.333496 19.5064 0.968296 20.0321 1.74856 20.0321H18.9181C19.6983 20.0321 20.3331 19.5064 20.3331 18.8602V15.9824C20.3331 15.7666 20.1219 15.5917 19.8614 15.5917C19.601 15.5917 19.3898 15.7666 19.3898 15.9824V18.8602C19.3898 19.0756 19.1782 19.2508 18.9181 19.2508H1.74856C1.48847 19.2508 1.27688 19.0756 1.27688 18.8602V1.20393C1.27688 0.988543 1.48847 0.813309 1.74856 0.813309H18.9181C19.1782 0.813309 19.3898 0.988543 19.3898 1.20393V15.9824C19.3898 16.1981 19.601 16.373 19.8614 16.373Z" fill="white"/>
<path d="M10.3335 2.14143C8.35189 2.14143 6.73975 3.75358 6.73975 5.73518C6.73975 6.76319 7.17373 7.69163 7.86795 8.34725C7.88095 8.36116 7.89478 8.37432 7.9099 8.38632C8.54939 8.97143 9.40044 9.32889 10.3334 9.32889C11.2665 9.32889 12.1175 8.97139 12.757 8.38632C12.7721 8.37432 12.7859 8.36112 12.799 8.34725C13.4932 7.69163 13.9272 6.76319 13.9272 5.73518C13.9272 3.75358 12.3151 2.14143 10.3335 2.14143ZM10.3335 8.54768C9.69564 8.54768 9.10697 8.33393 8.63463 7.97472C8.97794 7.36593 9.61861 6.98518 10.3335 6.98518C11.0484 6.98518 11.689 7.36593 12.0324 7.97472C11.56 8.33393 10.9713 8.54768 10.3335 8.54768ZM9.70849 5.57893V5.32503C9.70849 4.98042 9.98888 4.70003 10.3335 4.70003C10.6781 4.70003 10.9585 4.98042 10.9585 5.32503V5.57893C10.9585 5.92354 10.6781 6.20393 10.3335 6.20393C9.98888 6.20393 9.70849 5.92354 9.70849 5.57893ZM12.5968 7.40249C12.3087 6.97522 11.9094 6.64292 11.4459 6.43776C11.6299 6.19999 11.7397 5.90214 11.7397 5.57893V5.32503C11.7397 4.5496 11.1089 3.91878 10.3335 3.91878C9.55806 3.91878 8.92724 4.5496 8.92724 5.32503V5.57893C8.92724 5.90214 9.03712 6.19999 9.22111 6.43776C8.75755 6.64292 8.3583 6.97522 8.07021 7.40249C7.72533 6.93557 7.52099 6.35889 7.52099 5.73518C7.52099 4.18436 8.78267 2.92268 10.3335 2.92268C11.8843 2.92268 13.146 4.18436 13.146 5.73518C13.146 6.35889 12.9416 6.93557 12.5968 7.40249Z" fill="white"/>
<path d="M16.7004 15.4071H6.1819C5.77287 15.4071 5.44116 15.5819 5.44116 15.7977C5.44116 16.0134 5.77287 16.1883 6.1819 16.1883H16.7004C17.1095 16.1883 17.4412 16.0134 17.4412 15.7977C17.4412 15.5819 17.1095 15.4071 16.7004 15.4071Z" fill="white"/>
<path d="M16.7004 13.2196H6.1819C5.77287 13.2196 5.44116 13.3944 5.44116 13.6102C5.44116 13.8259 5.77287 14.0008 6.1819 14.0008H16.7004C17.1095 14.0008 17.4412 13.8259 17.4412 13.6102C17.4412 13.3944 17.1095 13.2196 16.7004 13.2196Z" fill="white"/>
<path d="M3.89298 11.1465C3.82036 11.0739 3.71958 11.0321 3.61646 11.0321C3.51368 11.0321 3.4129 11.0739 3.34028 11.1465C3.26763 11.2192 3.22583 11.3199 3.22583 11.4227C3.22583 11.5254 3.26759 11.6262 3.34028 11.6989C3.41333 11.7715 3.51368 11.8133 3.61646 11.8133C3.71958 11.8133 3.81997 11.7715 3.89298 11.6989C3.96563 11.6262 4.00747 11.5254 4.00747 11.4227C4.00747 11.3199 3.96567 11.2192 3.89298 11.1465Z" fill="white"/>
<path d="M3.89298 13.334C3.81997 13.2614 3.71958 13.2196 3.61646 13.2196C3.51368 13.2196 3.41333 13.2614 3.34028 13.334C3.26763 13.4067 3.22583 13.5074 3.22583 13.6102C3.22583 13.7129 3.26759 13.8137 3.34028 13.8864C3.41333 13.959 3.51368 14.0008 3.61646 14.0008C3.71958 14.0008 3.81997 13.959 3.89298 13.8864C3.96563 13.8137 4.00747 13.7129 4.00747 13.6102C4.00747 13.5074 3.96567 13.4067 3.89298 13.334Z" fill="white"/>
<path d="M3.89298 15.5215C3.81997 15.4489 3.71958 15.4071 3.61646 15.4071C3.51368 15.4071 3.41333 15.4489 3.34028 15.5215C3.26763 15.5942 3.22583 15.6949 3.22583 15.7977C3.22583 15.9004 3.26759 16.0012 3.34028 16.0739C3.4129 16.1465 3.51368 16.1883 3.61646 16.1883C3.71958 16.1883 3.82036 16.1465 3.89298 16.0739C3.96563 16.0012 4.00747 15.9004 4.00747 15.7977C4.00747 15.6949 3.96567 15.5942 3.89298 15.5215Z" fill="white"/>
<path d="M16.7004 11.0321H6.1819C5.77287 11.0321 5.44116 11.2069 5.44116 11.4227C5.44116 11.6384 5.77287 11.8133 6.1819 11.8133H16.7004C17.1095 11.8133 17.4412 11.6384 17.4412 11.4227C17.4412 11.2069 17.1095 11.0321 16.7004 11.0321Z" fill="white"/>
</g>
<defs>
<clipPath id="clip0">
<rect width="20" height="20" fill="white" transform="translate(0.333252 0.0320587)"/>
</clipPath>
</defs>
</svg>
