<svg viewBox="0 0 20 20" fill="none" xmlns="http://www.w3.org/2000/svg">
<circle cx="10" cy="10" r="10" fill="#7287D5"/>
<path d="M9.79425 4C11.8699 4 13.9134 4.95593 13.9134 7.24243C13.9134 9.35098 11.4972 10.1619 10.9783 10.9238C10.5887 11.4905 10.7188 12.2869 9.64845 12.2869C8.95121 12.2869 8.61063 11.7198 8.61063 11.2008C8.61063 9.26985 11.4478 8.83283 11.4478 7.24281C11.4478 6.36763 10.8654 5.84871 9.89183 5.84871C7.81619 5.84871 8.6267 7.98865 7.05466 7.98865C6.48715 7.98865 6 7.64806 6 6.99981C5.99962 5.4094 7.81542 4 9.79425 4ZM9.7135 13.3396C10.4421 13.3396 11.0433 13.9389 11.0433 14.6698C11.0433 15.4007 10.4433 16 9.7135 16C8.98374 16 8.38332 15.4015 8.38332 14.6698C8.38332 13.9393 8.98374 13.3396 9.7135 13.3396Z" fill="white"/>
</svg>
