<svg viewBox="0 0 15 15" fill="none" xmlns="http://www.w3.org/2000/svg">
<g clip-path="url(#clip0)">
<path d="M1.46033 9.46273L1.35194 11.6384C1.34712 11.7351 1.37553 11.8306 1.43247 11.909C1.48941 11.9874 1.57145 12.0439 1.66496 12.0693L3.76728 12.6383L4.95815 14.4615C5.01113 14.5426 5.09027 14.6031 5.18243 14.6331C5.27458 14.663 5.3742 14.6605 5.46475 14.626L7.5 13.8506L9.53539 14.626C9.62593 14.6605 9.72554 14.663 9.81768 14.6331C9.90981 14.6031 9.98894 14.5426 10.0419 14.4615L11.2328 12.6378L13.3351 12.0688C13.4286 12.0435 13.5107 11.987 13.5676 11.9086C13.6246 11.8302 13.653 11.7347 13.6482 11.6379L13.5397 9.46259L14.9061 7.76654C14.9669 7.69108 15 7.59711 15 7.50022C15 7.40333 14.9669 7.30935 14.9061 7.2339L13.5397 5.53784L13.6482 3.3625C13.653 3.26573 13.6246 3.17023 13.5676 3.09184C13.5107 3.01346 13.4286 2.95692 13.3351 2.93161L11.2328 2.36246L10.0419 0.539046C9.98897 0.457896 9.90986 0.397301 9.81772 0.367325C9.72557 0.337349 9.62595 0.339796 9.53539 0.374259L7.5 1.14987L5.46475 0.374259C5.3742 0.339757 5.27458 0.337269 5.18243 0.367206C5.09027 0.397144 5.01113 0.457706 4.95815 0.538834L3.7675 2.36246L1.66517 2.93154C1.57166 2.95686 1.48962 3.01341 1.43269 3.09179C1.37575 3.17017 1.34733 3.26567 1.35215 3.36243L1.46055 5.53777L0.0939264 7.23404C0.0331437 7.30949 0 7.40347 0 7.50036C0 7.59725 0.0331437 7.69122 0.0939264 7.76668L1.46033 9.46273ZM2.223 5.94468C2.28832 5.86355 2.32153 5.76124 2.31632 5.65721L2.21691 3.66193L4.14525 3.13998C4.24593 3.11284 4.33309 3.0496 4.39013 2.96231L5.48244 1.28968L7.34922 2.00083C7.44655 2.03797 7.55415 2.03797 7.65149 2.00083L9.51841 1.28968L10.6106 2.96231C10.6676 3.04953 10.7546 3.11276 10.8552 3.13998L12.7835 3.66193L12.684 5.65721C12.6789 5.76123 12.7121 5.86353 12.7774 5.94468L14.0306 7.50036L12.777 9.05582C12.7117 9.13697 12.6785 9.23927 12.6837 9.3433L12.7832 11.3386L10.8548 11.8605C10.7543 11.8877 10.6672 11.9509 10.6103 12.0381L9.51806 13.7108L7.65113 12.9996C7.55379 12.9625 7.44621 12.9625 7.34887 12.9996L5.48209 13.7108L4.39013 12.0383C4.33318 11.9511 4.24615 11.8879 4.14561 11.8607L2.21727 11.3388L2.31668 9.34351C2.32189 9.23948 2.28867 9.13717 2.22335 9.05604L0.970078 7.50036L2.223 5.94468Z" fill="white"/>
<path fill-rule="evenodd" clip-rule="evenodd" d="M9.81932 5.30329C9.6114 5.14262 9.32055 5.19178 9.16912 5.4124L7.00702 8.56827L5.81601 7.2817C5.64054 7.08266 5.34609 7.07307 5.1586 7.26012C4.97112 7.44597 4.9615 7.75892 5.13817 7.95676C5.13817 7.95676 6.58518 9.55868 6.7931 9.71935C7.00101 9.88002 7.29186 9.83086 7.44329 9.61024L9.92267 5.99273C10.0741 5.77091 10.0272 5.46276 9.81932 5.30329V5.30329Z" fill="white"/>
<mask id="mask0" mask-type="alpha" maskUnits="userSpaceOnUse" x="5" y="5" width="6" height="5">
<path fill-rule="evenodd" clip-rule="evenodd" d="M9.81932 5.30329C9.6114 5.14262 9.32055 5.19178 9.16912 5.4124L7.00702 8.56827L5.81601 7.2817C5.64054 7.08266 5.34609 7.07307 5.1586 7.26012C4.97112 7.44597 4.9615 7.75892 5.13817 7.95676C5.13817 7.95676 6.58518 9.55868 6.7931 9.71935C7.00101 9.88002 7.29186 9.83086 7.44329 9.61024L9.92267 5.99273C10.0741 5.77091 10.0272 5.46276 9.81932 5.30329V5.30329Z" fill="white"/>
</mask>
<g mask="url(#mask0)">
<rect x="5" y="5.00024" width="5" height="5" fill="white"/>
</g>
</g>
<defs>
<clipPath id="clip0">
<rect width="15" height="15" fill="white"/>
</clipPath>
</defs>
</svg>
