<svg width="15" height="30" viewBox="0 0 15 30" fill="none" xmlns="http://www.w3.org/2000/svg">
<g clip-path="url(#clip0)">
<path d="M2.4091 6.8866L1.87695 6.59448L0.583698 7.3752C0.322203 7.53306 0.326988 7.91392 0.592365 8.06516L7.24005 11.8538C7.36192 11.9232 7.51127 11.9238 7.63364 11.8552L14.4027 8.06223C14.6698 7.91261 14.6766 7.53074 14.4152 7.37159L13.1384 6.59442L12.6502 6.8614L14.0678 7.72756L7.43644 11.3476L0.911046 7.72756L2.4091 6.8866Z" fill="white"/>
<path d="M2.4091 9.44654L1.87695 9.15442L0.583698 9.93513C0.322203 10.093 0.326988 10.4739 0.592365 10.6251L7.24005 14.4137C7.36192 14.4831 7.51127 14.4837 7.63364 14.4151L14.4027 10.6222C14.6698 10.4725 14.6766 10.0907 14.4152 9.93153L13.1384 9.15436L12.6502 9.42133L14.0678 10.2875L7.43644 13.9076L0.911046 10.2875L2.4091 9.44654Z" fill="white"/>
<path d="M7.50203 0.474487L0.694142 4.25312C0.420972 4.40474 0.419297 4.79698 0.691163 4.95093L7.50203 8.80764V8.19218L1.0042 4.59937L7.50203 1.04064V0.474487Z" fill="white"/>
<path d="M7.49797 0.474487L14.3059 4.25312C14.579 4.40474 14.5807 4.79698 14.3088 4.95093L7.49797 8.80764V8.19218L13.9958 4.59937L7.49797 1.04064V0.474487Z" fill="white"/>
</g>
<g clip-path="url(#clip1)">
<path d="M2.43916 21.6088L1.96749 21.3202L0.551956 22.1973C0.424172 22.2765 0.426145 22.4631 0.555575 22.5395L7.44522 26.6095L14.4568 22.5371C14.5866 22.4617 14.5901 22.2754 14.4632 22.1951L13.1214 21.3471L12.6552 21.6088L13.8428 22.3714L7.44522 25.9915L1.14992 22.3714L2.43916 21.6088Z" fill="url(#paint0_linear)" stroke="url(#paint1_linear)" stroke-width="0.5"/>
<path fill-rule="evenodd" clip-rule="evenodd" d="M13.2056 18.1134L7.76476 15.3021C7.65162 15.2436 7.51741 15.2425 7.40334 15.2991L1.47604 18.2404L1.47874 18.243L0.472604 18.8177C0.200032 18.9734 0.204811 19.368 0.481074 19.5171L7.26655 23.1778C7.38421 23.2413 7.5258 23.2418 7.64391 23.1791L14.5295 19.5268C14.8123 19.3768 14.8131 18.9718 14.5308 18.8208L13.305 18.1648L13.2067 18.1122L13.2056 18.1134ZM1.86394 18.5996L1.86417 18.5998L0.779089 19.175L7.45487 22.6809L14.2391 19.175L12.8504 18.4801L12.8518 18.4787L7.58479 15.8076L1.86394 18.5996Z" fill="url(#paint2_linear)"/>
<path d="M13.2056 18.1134L13.0908 18.3355L13.2559 18.4208L13.3851 18.2873L13.2056 18.1134ZM7.76476 15.3021L7.65 15.5242L7.65 15.5242L7.76476 15.3021ZM7.40334 15.2991L7.29221 15.0752L7.29221 15.0752L7.40334 15.2991ZM1.47604 18.2404L1.36491 18.0165L1.04581 18.1748L1.30322 18.4211L1.47604 18.2404ZM1.47874 18.243L1.60274 18.4601L1.89363 18.2939L1.65156 18.0624L1.47874 18.243ZM0.472604 18.8177L0.348608 18.6006H0.348608L0.472604 18.8177ZM0.481074 19.5171L0.362372 19.7371H0.362372L0.481074 19.5171ZM7.26655 23.1778L7.38525 22.9578H7.38525L7.26655 23.1778ZM7.64391 23.1791L7.52676 22.9583L7.52676 22.9583L7.64391 23.1791ZM14.5295 19.5268L14.6467 19.7477L14.5295 19.5268ZM14.5308 18.8208L14.6488 18.6003L14.6488 18.6003L14.5308 18.8208ZM13.305 18.1648L13.187 18.3852L13.1871 18.3852L13.305 18.1648ZM13.2067 18.1122L13.3247 17.8917L13.1584 17.8027L13.0272 17.9382L13.2067 18.1122ZM1.86417 18.5998L1.98126 18.8207L2.2804 18.6621L2.04081 18.4229L1.86417 18.5998ZM1.86394 18.5996L1.75429 18.3749L1.43913 18.5287L1.6873 18.7765L1.86394 18.5996ZM0.779089 19.175L0.661997 18.9541L0.243364 19.176L0.662853 19.3963L0.779089 19.175ZM7.45487 22.6809L7.33864 22.9022L7.45394 22.9627L7.56965 22.903L7.45487 22.6809ZM14.2391 19.175L14.3538 19.3971L14.7905 19.1714L14.3509 18.9514L14.2391 19.175ZM12.8504 18.4801L12.6708 18.3062L12.4337 18.5511L12.7386 18.7037L12.8504 18.4801ZM12.8518 18.4787L13.0315 18.6525L13.2672 18.409L12.9649 18.2557L12.8518 18.4787ZM7.58479 15.8076L7.69787 15.5847L7.58693 15.5284L7.47515 15.583L7.58479 15.8076ZM13.3203 17.8913L7.87952 15.08L7.65 15.5242L13.0908 18.3355L13.3203 17.8913ZM7.87952 15.08C7.69567 14.985 7.47758 14.9832 7.29221 15.0752L7.51447 15.5231C7.55724 15.5019 7.60757 15.5023 7.65 15.5242L7.87952 15.08ZM7.29221 15.0752L1.36491 18.0165L1.58716 18.4644L7.51447 15.5231L7.29221 15.0752ZM1.30322 18.4211L1.30592 18.4237L1.65156 18.0624L1.64885 18.0598L1.30322 18.4211ZM1.35474 18.0259L0.348608 18.6006L0.5966 19.0348L1.60274 18.4601L1.35474 18.0259ZM0.348608 18.6006C-0.0943199 18.8536 -0.086555 19.4949 0.362372 19.7371L0.599776 19.297C0.496178 19.2412 0.494385 19.0932 0.5966 19.0348L0.348608 18.6006ZM0.362372 19.7371L7.14785 23.3978L7.38525 22.9578L0.599775 19.297L0.362372 19.7371ZM7.14785 23.3978C7.33905 23.501 7.56914 23.5018 7.76106 23.4L7.52676 22.9583C7.48247 22.9818 7.42937 22.9816 7.38525 22.9578L7.14785 23.3978ZM7.76105 23.4L14.6467 19.7477L14.4124 19.306L7.52676 22.9583L7.76105 23.4ZM14.6467 19.7477C15.1063 19.5039 15.1075 18.8458 14.6488 18.6003L14.4129 19.0412C14.5187 19.0978 14.5184 19.2497 14.4124 19.306L14.6467 19.7477ZM14.6488 18.6003L13.423 17.9443L13.1871 18.3852L14.4129 19.0412L14.6488 18.6003ZM13.423 17.9443L13.3247 17.8917L13.0888 18.3326L13.187 18.3852L13.423 17.9443ZM13.0272 17.9382L13.026 17.9394L13.3851 18.2873L13.3863 18.2861L13.0272 17.9382ZM2.04081 18.4229L2.04058 18.4227L1.6873 18.7765L1.68753 18.7767L2.04081 18.4229ZM0.896181 19.3959L1.98126 18.8207L1.74708 18.3789L0.661997 18.9541L0.896181 19.3959ZM7.57111 22.4595L0.895325 18.9537L0.662853 19.3963L7.33864 22.9022L7.57111 22.4595ZM14.1243 18.9529L7.3401 22.4588L7.56965 22.903L14.3538 19.3971L14.1243 18.9529ZM12.7386 18.7037L14.1272 19.3986L14.3509 18.9514L12.9623 18.2565L12.7386 18.7037ZM12.6722 18.3048L12.6708 18.3062L13.0301 18.654L13.0315 18.6525L12.6722 18.3048ZM7.47172 16.0306L12.7388 18.7016L12.9649 18.2557L7.69787 15.5847L7.47172 16.0306ZM1.97358 18.8242L7.69444 16.0323L7.47515 15.583L1.75429 18.3749L1.97358 18.8242Z" fill="url(#paint3_linear)"/>
<path d="M2.47644 24.7227L2.0022 24.4277L0.596643 25.3052C0.46962 25.3845 0.47159 25.5701 0.600267 25.6467L7.43909 29.7171L14.3989 25.6444C14.528 25.5688 14.5315 25.3834 14.4053 25.303L13.0729 24.4546L12.6479 24.7201L13.7889 25.4789L7.43909 29.099L1.19073 25.4789L2.47644 24.7227Z" fill="url(#paint4_linear)" stroke="url(#paint5_linear)" stroke-width="0.5"/>
</g>
<defs>
<linearGradient id="paint0_linear" x1="7.50654" y1="21.2384" x2="7.50654" y2="26.6096" gradientUnits="userSpaceOnUse">
<stop stop-color="#8380D3"/>
<stop offset="1" stop-color="#109CF1"/>
</linearGradient>
<linearGradient id="paint1_linear" x1="7.50654" y1="21.2384" x2="7.50654" y2="26.6096" gradientUnits="userSpaceOnUse">
<stop offset="0.519337" stop-color="#8380D3"/>
<stop offset="1" stop-color="#109CF1"/>
</linearGradient>
<linearGradient id="paint2_linear" x1="7.50654" y1="15.2574" x2="7.50654" y2="23.2258" gradientUnits="userSpaceOnUse">
<stop stop-color="#8380D3"/>
<stop offset="1" stop-color="#109CF1"/>
</linearGradient>
<linearGradient id="paint3_linear" x1="7.50654" y1="15.2574" x2="7.50654" y2="23.2258" gradientUnits="userSpaceOnUse">
<stop offset="0.519337" stop-color="#8380D3"/>
<stop offset="1" stop-color="#109CF1"/>
</linearGradient>
<linearGradient id="paint4_linear" x1="7.49995" y1="24.3459" x2="7.49995" y2="29.7171" gradientUnits="userSpaceOnUse">
<stop stop-color="#8380D3"/>
<stop offset="1" stop-color="#109CF1"/>
</linearGradient>
<linearGradient id="paint5_linear" x1="7.49995" y1="24.3459" x2="7.49995" y2="29.7171" gradientUnits="userSpaceOnUse">
<stop offset="0.519337" stop-color="#8380D3"/>
<stop offset="1" stop-color="#109CF1"/>
</linearGradient>
<clipPath id="clip0">
<rect width="15" height="15" fill="white"/>
</clipPath>
<clipPath id="clip1">
<rect y="15" width="15" height="15" fill="white"/>
</clipPath>
</defs>
</svg>
