<svg width="15" height="15" viewBox="0 0 15 15" fill="none" xmlns="http://www.w3.org/2000/svg">
<g clip-path="url(#clip0)">
<path d="M11.3065 4.46973H3.69348V8.79836H11.3065V4.46973ZM10.7624 8.2625H4.19405V4.97625H10.7624V8.2625Z" fill="white"/>
<path d="M7.49997 7.80664C8.15019 7.80664 8.68208 7.27897 8.68208 6.63391C8.68208 5.98885 8.15019 5.46118 7.49997 5.46118C6.8499 5.46118 6.31787 5.98885 6.31787 6.63391C6.31787 7.27897 6.8499 7.80664 7.49997 7.80664ZM7.49997 6.04755C7.82508 6.04755 8.09103 6.31138 8.09103 6.63391C8.09103 6.95644 7.82508 7.22028 7.49997 7.22028C7.17487 7.22028 6.90892 6.95644 6.90892 6.63391C6.90892 6.31138 7.17487 6.04755 7.49997 6.04755Z" fill="white"/>
<rect x="3.80963" y="10.0596" width="7.34247" height="0.589907" fill="white"/>
<path d="M7.5 14.5917C7.5 14.8177 7.68336 15.0021 7.90904 14.9899C9.01753 14.9298 10.1006 14.6262 11.0791 14.099C12.1778 13.5072 13.1098 12.6522 13.7906 11.612C14.4713 10.5717 14.8792 9.37913 14.977 8.14268C15.0748 6.90622 14.8596 5.66512 14.3508 4.53222C13.842 3.39933 13.0558 2.41058 12.0637 1.6559C11.0716 0.90121 9.9051 0.404524 8.67024 0.211004C7.43538 0.0174848 6.17135 0.133271 4.99309 0.547834C3.94574 0.916335 2.99569 1.51052 2.21033 2.28566C2.04787 2.44602 2.06248 2.70857 2.23281 2.86056V2.86056C2.40124 3.01085 2.65849 2.99615 2.82008 2.83853C3.5136 2.16202 4.34906 1.64284 5.26885 1.31922C6.3175 0.950257 7.44249 0.847207 8.54151 1.01944C9.64053 1.19167 10.6787 1.63372 11.5617 2.30539C12.4446 2.97706 13.1443 3.85705 13.5972 4.86533C14.05 5.8736 14.2416 6.97818 14.1545 8.07863C14.0675 9.17907 13.7045 10.2405 13.0986 11.1663C12.4928 12.0921 11.6632 12.853 10.6854 13.3798C9.82774 13.8419 8.87986 14.1109 7.90898 14.1701C7.68339 14.1838 7.5 14.3657 7.5 14.5917V14.5917Z" fill="white"/>
<path d="M5.13554 14.1867C5.05925 14.4005 5.17115 14.6367 5.38912 14.7002C5.64408 14.7744 5.90284 14.8351 6.1643 14.882C6.38647 14.9219 6.59099 14.762 6.61926 14.538V14.538C6.6476 14.3135 6.48796 14.1098 6.26545 14.0682C6.06182 14.0302 5.86008 13.9828 5.66089 13.9262C5.44408 13.8645 5.2113 13.9744 5.13554 14.1867V14.1867Z" fill="white"/>
<path d="M3.06719 13.0427C2.92386 13.2199 2.95179 13.481 3.13772 13.6129C3.35321 13.7658 3.57672 13.9072 3.80729 14.0366C4.00381 14.1469 4.24904 14.0635 4.34981 13.8619V13.8619C4.45148 13.6585 4.36744 13.4123 4.16998 13.2996C3.99147 13.1976 3.81781 13.0876 3.64956 12.9697C3.46489 12.8403 3.20895 12.8673 3.06719 13.0427V13.0427Z" fill="white"/>
<path d="M1.56674 11.401C1.37496 11.5251 1.3201 11.7824 1.45606 11.966C1.6123 12.177 1.77965 12.3796 1.95742 12.5731C2.11008 12.7392 2.36934 12.7363 2.52817 12.576V12.576C2.68881 12.414 2.68557 12.1529 2.53249 11.9837C2.39599 11.8328 2.26654 11.6758 2.14456 11.5132C2.0089 11.3323 1.75655 11.2781 1.56674 11.401V11.401Z" fill="white"/>
<path d="M0.647729 9.35058C0.426813 9.40829 0.293761 9.63501 0.364594 9.85207C0.445581 10.1003 0.539669 10.344 0.646467 10.5824C0.739033 10.789 0.986926 10.8683 1.18879 10.7657V10.7657C1.3925 10.6623 1.47178 10.4132 1.37995 10.204C1.29895 10.0194 1.22647 9.83128 1.16274 9.64016C1.09091 9.42475 0.867424 9.29318 0.647729 9.35058V9.35058Z" fill="white"/>
<path d="M0.43234 6.90826C0.205369 6.89117 0.00624 7.06121 0.00156029 7.28877C-0.00379437 7.54916 0.00463539 7.80965 0.0268147 8.06916C0.0461816 8.29576 0.255597 8.45253 0.480838 8.42107V8.42107C0.70678 8.38951 0.862822 8.18053 0.845024 7.95308C0.82937 7.75304 0.822889 7.5524 0.8256 7.35177C0.828681 7.12379 0.659697 6.92539 0.43234 6.90826V6.90826Z" fill="white"/>
<path d="M1.1705 4.39083C0.968043 4.28945 0.720585 4.37009 0.629198 4.57725C0.523778 4.81622 0.431098 5.06052 0.351542 5.30914C0.281958 5.5266 0.416294 5.75254 0.637526 5.80901V5.80901C0.857559 5.86516 1.08031 5.73231 1.15091 5.51648C1.21354 5.32502 1.28493 5.13649 1.36487 4.95148C1.45549 4.74174 1.37479 4.49313 1.1705 4.39083V4.39083Z" fill="white"/>
<path d="M2.35124 1.54271L2.21814 2.46697L2.54849 2.82394L3.32978 2.56556C3.45711 2.52341 3.59466 2.59171 3.63714 2.71803C3.67956 2.84434 3.61077 2.98083 3.48345 3.02294L1.92836 3.53718C1.90323 3.54553 1.87727 3.54957 1.85155 3.54957C1.79541 3.54957 1.74016 3.5303 1.6958 3.49359C1.63118 3.44002 1.59907 3.3571 1.61096 3.27441L1.87015 1.47453C1.88914 1.34278 2.01215 1.25131 2.14504 1.27C2.27788 1.28883 2.37019 1.41091 2.35124 1.54271Z" fill="white"/>
</g>
<defs>
<clipPath id="clip0">
<rect width="15" height="15" fill="white"/>
</clipPath>
</defs>
</svg>
