<svg viewBox="0 0 15 30" fill="none" xmlns="http://www.w3.org/2000/svg">
<path d="M11.1739 19.5326H3.82611L3.82611 23.6245H11.1739V19.5326ZM10.7842 23.2348H4.21583V19.9223H10.7842V23.2348Z" fill="url(#paint0_linear)" stroke="url(#paint1_linear)" stroke-width="0.3"/>
<path d="M7.50003 22.5654C8.04285 22.5654 8.48688 22.1214 8.48688 21.5786C8.48688 21.0357 8.04285 20.5917 7.50003 20.5917C6.95734 20.5917 6.51318 21.0357 6.51318 21.5786C6.51318 22.1214 6.95734 22.5654 7.50003 22.5654ZM7.50003 21.0851C7.77144 21.0851 7.99346 21.3072 7.99346 21.5786C7.99346 21.85 7.77144 22.072 7.50003 22.072C7.22862 22.072 7.00661 21.85 7.00661 21.5786C7.00661 21.3072 7.22862 21.0851 7.50003 21.0851Z" fill="url(#paint2_linear)" stroke="url(#paint3_linear)" stroke-width="0.2"/>
<rect x="3.83142" y="25.0463" width="7.34247" height="0.421101" fill="url(#paint4_linear)" stroke="url(#paint5_linear)" stroke-width="0.3"/>
<path d="M12.5117 17.5281C11.1605 16.1768 9.36382 15.4326 7.45281 15.4326C5.39549 15.4326 3.47455 16.2983 2.11608 17.8221L2.24304 16.9334C2.26112 16.8066 2.17306 16.6892 2.04635 16.6711C1.91958 16.6532 1.80223 16.7411 1.78412 16.8678L1.53687 18.5985C1.52553 18.678 1.55616 18.7577 1.61781 18.8092C1.66012 18.8445 1.71283 18.863 1.76637 18.863C1.79091 18.863 1.81567 18.8591 1.83965 18.8511L3.32308 18.3567C3.44454 18.3162 3.51016 18.1849 3.46969 18.0635C3.42917 17.942 3.29795 17.8763 3.1765 17.9169L2.43121 18.1653C3.70335 16.7187 5.51334 15.8962 7.45281 15.8962C9.23999 15.8962 10.9202 16.5921 12.184 17.8559C13.4477 19.1196 14.1437 20.7998 14.1437 22.587C14.1437 24.3742 13.4477 26.0544 12.184 27.3182C10.9202 28.5819 9.24002 29.2779 7.45281 29.2779C7.32481 29.2779 7.22101 29.3816 7.22101 29.5097C7.22101 29.6377 7.32478 29.7415 7.45281 29.7415C9.36382 29.7415 11.1605 28.9973 12.5117 27.646C13.863 26.2947 14.6072 24.498 14.6072 22.587C14.6072 20.676 13.8631 18.8794 12.5117 17.5281Z" fill="url(#paint6_linear)" stroke="url(#paint7_linear)" stroke-width="0.5"/>
<path d="M6.4212 29.286C6.34303 29.2748 6.2643 29.2621 6.18721 29.2482C6.06219 29.2257 5.94272 29.3088 5.92024 29.4338C5.89776 29.5588 5.98083 29.6783 6.10583 29.7008C6.18832 29.7156 6.27251 29.7292 6.35609 29.7412C6.36712 29.7428 6.3781 29.7435 6.38894 29.7435C6.50148 29.7435 6.59983 29.6608 6.61624 29.5462C6.63418 29.4204 6.54689 29.304 6.4212 29.286Z" fill="url(#paint8_linear)" stroke="url(#paint9_linear)" stroke-width="0.4"/>
<path d="M5.29688 29.0231C5.15198 28.9756 5.00684 28.9222 4.86544 28.8646C4.74777 28.8167 4.61342 28.8732 4.56541 28.9909C4.51745 29.1087 4.57401 29.243 4.69174 29.291C4.84302 29.3526 4.99829 29.4096 5.15332 29.4605C5.17716 29.4684 5.20136 29.4721 5.22517 29.4721C5.32191 29.4721 5.41197 29.4106 5.44383 29.3137C5.48343 29.1928 5.41766 29.0628 5.29688 29.0231Z" fill="url(#paint10_linear)" stroke="url(#paint11_linear)" stroke-width="0.4"/>
<path d="M0.879703 24.1325C0.847205 23.9835 0.819508 23.8314 0.79739 23.6804C0.778934 23.5546 0.662152 23.4677 0.536323 23.4861C0.410522 23.5045 0.32349 23.6214 0.341946 23.7471C0.365619 23.9086 0.395203 24.0712 0.429976 24.2306C0.453482 24.3382 0.548784 24.4117 0.654632 24.4117C0.670894 24.4117 0.687407 24.41 0.70392 24.4064C0.828084 24.3793 0.906817 24.2567 0.879703 24.1325Z" fill="url(#paint12_linear)" stroke="url(#paint13_linear)" stroke-width="0.4"/>
<path d="M0.802217 20.6633C0.679746 20.6297 0.553001 20.7018 0.519365 20.8244C0.476182 20.9817 0.437995 21.1426 0.405858 21.3027C0.380825 21.4274 0.461557 21.5487 0.586193 21.5737C0.601512 21.5768 0.61672 21.5783 0.631762 21.5783C0.739136 21.5783 0.835242 21.5027 0.857167 21.3934C0.887222 21.2437 0.92294 21.0933 0.963292 20.9462C0.9969 20.8236 0.924827 20.697 0.802217 20.6633Z" fill="url(#paint14_linear)" stroke="url(#paint15_linear)" stroke-width="0.4"/>
<path d="M1.31167 25.4388C1.24895 25.2998 1.19034 25.1568 1.13745 25.0138C1.09335 24.8946 0.960913 24.8337 0.841717 24.8778C0.722493 24.9219 0.661605 25.0543 0.705703 25.1735C0.762262 25.3264 0.824955 25.4794 0.89206 25.6281C0.930469 25.7133 1.01425 25.7636 1.10201 25.7636C1.13364 25.7636 1.16581 25.7571 1.19653 25.7432C1.31242 25.6909 1.36393 25.5546 1.31167 25.4388Z" fill="url(#paint16_linear)" stroke="url(#paint17_linear)" stroke-width="0.4"/>
<path d="M0.523061 22.061C0.396011 22.0533 0.287111 22.1501 0.279506 22.277C0.270959 22.4199 0.266602 22.5653 0.266602 22.7092C0.266602 22.7289 0.266685 22.7485 0.266851 22.7681C0.26785 22.8945 0.370701 22.9964 0.497002 22.9964C0.497584 22.9964 0.498223 22.9964 0.498833 22.9964C0.625939 22.9954 0.728179 22.8915 0.727207 22.7644C0.727069 22.7459 0.726958 22.7274 0.726958 22.709C0.726958 22.5744 0.731037 22.4384 0.739058 22.3046C0.746689 22.1777 0.649973 22.0686 0.523061 22.061Z" fill="url(#paint18_linear)" stroke="url(#paint19_linear)" stroke-width="0.4"/>
<path d="M4.0399 28.4593C3.90823 28.3829 3.77739 28.3008 3.65098 28.2153C3.54581 28.1441 3.40291 28.1716 3.33172 28.2768C3.26053 28.3819 3.28809 28.5248 3.39323 28.596C3.52834 28.6875 3.66828 28.7753 3.80907 28.857C3.84539 28.8781 3.88505 28.8881 3.92428 28.8881C4.00356 28.8881 4.08068 28.8471 4.12334 28.7735C4.1871 28.6638 4.14973 28.5231 4.0399 28.4593Z" fill="url(#paint20_linear)" stroke="url(#paint21_linear)" stroke-width="0.4"/>
<path d="M2.004 26.6271C1.91404 26.5041 1.82725 26.3764 1.74594 26.2474C1.67825 26.1401 1.53629 26.1078 1.42885 26.1756C1.32143 26.2433 1.28928 26.3853 1.357 26.4927C1.4439 26.6305 1.53671 26.7671 1.63287 26.8985C1.67792 26.9601 1.7478 26.9927 1.8186 26.9927C1.86572 26.9927 1.91324 26.9783 1.95415 26.9484C2.05666 26.8734 2.07898 26.7296 2.004 26.6271Z" fill="url(#paint22_linear)" stroke="url(#paint23_linear)" stroke-width="0.4"/>
<path d="M2.92708 27.6487C2.81379 27.5467 2.70258 27.4395 2.59655 27.33C2.50823 27.2387 2.36272 27.2364 2.27147 27.3247C2.18024 27.413 2.17788 27.5586 2.26623 27.6498C2.37955 27.7669 2.49841 27.8815 2.6195 27.9905C2.66346 28.03 2.71846 28.0495 2.77324 28.0495C2.83613 28.0495 2.89878 28.0238 2.94419 27.9734C3.02912 27.879 3.02145 27.7336 2.92708 27.6487Z" fill="url(#paint24_linear)" stroke="url(#paint25_linear)" stroke-width="0.4"/>
<path d="M1.25661 19.5549C1.14188 19.5004 1.00474 19.5492 0.950271 19.6639C0.914178 19.7398 0.879001 19.8174 0.845681 19.8946C0.79534 20.0112 0.849035 20.1465 0.9656 20.1968C0.995317 20.2096 1.02623 20.2157 1.05663 20.2157C1.14559 20.2157 1.23033 20.1638 1.26781 20.0769C1.29897 20.0048 1.33185 19.9322 1.36561 19.8612C1.42008 19.7465 1.37129 19.6094 1.25661 19.5549Z" fill="url(#paint26_linear)" stroke="url(#paint27_linear)" stroke-width="0.4"/>
<g clip-path="url(#clip0)">
<path d="M11.1739 4.53259H3.82611L3.82611 8.62453H11.1739V4.53259ZM10.7842 8.23482H4.21583V4.9223H10.7842V8.23482Z" fill="white"/>
<path d="M7.50003 7.56541C8.04285 7.56541 8.48688 7.12138 8.48688 6.57856C8.48688 6.03575 8.04285 5.59171 7.50003 5.59171C6.95734 5.59171 6.51318 6.03575 6.51318 6.57856C6.51318 7.12138 6.95734 7.56541 7.50003 7.56541ZM7.50003 6.08514C7.77144 6.08514 7.99346 6.30715 7.99346 6.57856C7.99346 6.84997 7.77144 7.07198 7.50003 7.07198C7.22862 7.07198 7.00661 6.84997 7.00661 6.57856C7.00661 6.30715 7.22862 6.08514 7.50003 6.08514Z" fill="white"/>
<rect x="3.83142" y="10.0463" width="7.34247" height="0.421101" fill="white"/>
<path d="M12.8033 2.19671C11.3868 0.780117 9.50336 0 7.50003 0C5.34334 0 3.32961 0.907471 1.90552 2.50488L2.03861 1.57324C2.05757 1.44038 1.96525 1.31733 1.83242 1.29835C1.69953 1.27951 1.57651 1.37171 1.55753 1.50451L1.29834 3.31878C1.28644 3.40213 1.31855 3.48571 1.38318 3.53971C1.42754 3.57671 1.48279 3.59613 1.53893 3.59613C1.56465 3.59613 1.59061 3.59206 1.61574 3.58365L3.17082 3.0653C3.29815 3.02285 3.36694 2.88527 3.32452 2.75795C3.28203 2.63063 3.14449 2.56178 3.01716 2.60426L2.23587 2.86471C3.56947 1.34827 5.46688 0.485947 7.50003 0.485947C9.37354 0.485947 11.1349 1.21553 12.4597 2.5403C13.7845 3.86511 14.5141 5.62646 14.5141 7.5C14.5141 9.37354 13.7845 11.1349 12.4597 12.4597C11.1349 13.7845 9.37357 14.5141 7.50003 14.5141C7.36585 14.5141 7.25704 14.6228 7.25704 14.757C7.25704 14.8912 7.36582 15 7.50003 15C9.50336 15 11.3868 14.2199 12.8033 12.8033C14.2199 11.3867 15 9.50332 15 7.5C15 5.49668 14.2199 3.61324 12.8033 2.19671Z" fill="white"/>
<path d="M6.49769 14.443C6.41507 14.4311 6.33187 14.4178 6.25039 14.4031C6.11827 14.3793 5.992 14.4671 5.96824 14.5993C5.94448 14.7313 6.03228 14.8577 6.16438 14.8814C6.25157 14.8971 6.34054 14.9114 6.42887 14.9241C6.44053 14.9257 6.45213 14.9266 6.46359 14.9266C6.58253 14.9266 6.68648 14.8391 6.70382 14.718C6.72278 14.5851 6.63052 14.462 6.49769 14.443Z" fill="white"/>
<path d="M5.31022 14.1655C5.15726 14.1153 5.00404 14.059 4.85477 13.9981C4.73055 13.9476 4.58872 14.0072 4.53804 14.1315C4.48741 14.2558 4.54712 14.3976 4.6714 14.4482C4.8311 14.5133 4.99501 14.5735 5.15866 14.6272C5.18383 14.6355 5.20938 14.6394 5.23451 14.6394C5.33664 14.6394 5.43171 14.5745 5.46535 14.4722C5.50715 14.3446 5.43772 14.2073 5.31022 14.1655Z" fill="white"/>
<path d="M0.647256 9.00263C0.61295 8.84537 0.583712 8.68482 0.560362 8.52545C0.54088 8.39265 0.417598 8.30092 0.284766 8.32025C0.151964 8.33971 0.0600885 8.4631 0.0795709 8.59585C0.104561 8.7663 0.135792 8.938 0.172501 9.1062C0.197315 9.21987 0.297921 9.29744 0.409659 9.29744C0.426827 9.29744 0.444258 9.29563 0.46169 9.29182C0.592764 9.2632 0.675879 9.13373 0.647256 9.00263Z" fill="white"/>
<path d="M0.565435 5.34042C0.436148 5.30492 0.302349 5.38106 0.266841 5.51049C0.221255 5.67652 0.180943 5.84641 0.147017 6.0154C0.120591 6.14697 0.205816 6.27506 0.337388 6.30148C0.35356 6.30473 0.369615 6.30629 0.385494 6.30629C0.498843 6.30629 0.600298 6.22651 0.623443 6.11111C0.655171 5.95314 0.692876 5.79429 0.735474 5.63905C0.770953 5.50964 0.694869 5.37593 0.565435 5.34042Z" fill="white"/>
<path d="M1.10322 10.3816C1.03701 10.2349 0.975131 10.084 0.919291 9.93301C0.872739 9.80715 0.732934 9.74285 0.607105 9.78943C0.481246 9.83598 0.416968 9.97576 0.463521 10.1016C0.523228 10.263 0.589409 10.4245 0.660249 10.5815C0.700796 10.6714 0.789243 10.7246 0.881879 10.7246C0.915278 10.7246 0.949233 10.7176 0.981664 10.703C1.10401 10.6478 1.15838 10.5039 1.10322 10.3816Z" fill="white"/>
<path d="M0.270732 6.81588C0.136611 6.80773 0.0216504 6.90989 0.013623 7.04387C0.00459961 7.19478 0 7.34824 0 7.5002C0 7.52092 8.78906e-05 7.5416 0.000263672 7.56229C0.00131836 7.69582 0.109893 7.80334 0.243223 7.80334C0.243838 7.80334 0.244512 7.80334 0.245156 7.80334C0.379336 7.80229 0.487266 7.69263 0.48624 7.55845C0.486094 7.53891 0.485977 7.51936 0.485977 7.5C0.485977 7.35791 0.490283 7.21426 0.49875 7.07299C0.506807 6.93904 0.404707 6.82393 0.270732 6.81588Z" fill="white"/>
<path d="M3.98421 13.5706C3.84505 13.4899 3.70677 13.4031 3.57318 13.3127C3.46202 13.2375 3.311 13.2666 3.23576 13.3777C3.16053 13.4888 3.18965 13.6399 3.30077 13.7151C3.44357 13.8118 3.59146 13.9046 3.74026 13.9909C3.77864 14.0132 3.82056 14.0238 3.86202 14.0238C3.94581 14.0238 4.02731 13.9804 4.0724 13.9027C4.13978 13.7867 4.10029 13.638 3.98421 13.5706Z" fill="white"/>
<path d="M1.83491 11.6367C1.73985 11.5067 1.64812 11.3717 1.56219 11.2354C1.49065 11.1219 1.34062 11.0879 1.22706 11.1595C1.11354 11.2311 1.07956 11.3811 1.15113 11.4946C1.24297 11.6403 1.34106 11.7846 1.44269 11.9236C1.4903 11.9886 1.56415 12.0231 1.63898 12.0231C1.68878 12.0231 1.739 12.0078 1.78224 11.9762C1.89058 11.897 1.91416 11.745 1.83491 11.6367Z" fill="white"/>
<path d="M2.80941 12.715C2.68967 12.6072 2.57213 12.4939 2.46007 12.3782C2.36673 12.2817 2.21296 12.2793 2.11651 12.3726C2.0201 12.466 2.01761 12.6198 2.11097 12.7162C2.23074 12.8399 2.35636 12.961 2.48433 13.0762C2.5308 13.118 2.58892 13.1386 2.64681 13.1386C2.71329 13.1386 2.7795 13.1115 2.82748 13.0582C2.91725 12.9584 2.90913 12.8047 2.80941 12.715Z" fill="white"/>
<path d="M1.04564 4.17029C0.92438 4.11272 0.779448 4.16435 0.72188 4.28549C0.683735 4.36576 0.646558 4.44779 0.611343 4.52936C0.55814 4.65252 0.614888 4.79555 0.738081 4.84875C0.769487 4.86229 0.802153 4.86873 0.834292 4.86873C0.928306 4.86873 1.01787 4.81383 1.05748 4.72204C1.09041 4.64581 1.12515 4.56908 1.16083 4.49402C1.2184 4.37279 1.16684 4.22789 1.04564 4.17029Z" fill="white"/>
</g>
<defs>
<linearGradient id="paint0_linear" x1="7.5" y1="19.5326" x2="7.5" y2="23.6245" gradientUnits="userSpaceOnUse">
<stop stop-color="#8380D3"/>
<stop offset="1" stop-color="#109CF1"/>
</linearGradient>
<linearGradient id="paint1_linear" x1="7.5" y1="19.5326" x2="7.5" y2="23.6245" gradientUnits="userSpaceOnUse">
<stop offset="0.519337" stop-color="#8380D3"/>
<stop offset="1" stop-color="#109CF1"/>
</linearGradient>
<linearGradient id="paint2_linear" x1="7.50003" y1="20.5917" x2="7.50003" y2="22.5654" gradientUnits="userSpaceOnUse">
<stop stop-color="#8380D3"/>
<stop offset="1" stop-color="#109CF1"/>
</linearGradient>
<linearGradient id="paint3_linear" x1="7.50003" y1="20.5917" x2="7.50003" y2="22.5654" gradientUnits="userSpaceOnUse">
<stop offset="0.519337" stop-color="#8380D3"/>
<stop offset="1" stop-color="#109CF1"/>
</linearGradient>
<linearGradient id="paint4_linear" x1="7.50266" y1="25.0463" x2="7.50266" y2="25.4674" gradientUnits="userSpaceOnUse">
<stop stop-color="#8380D3"/>
<stop offset="1" stop-color="#109CF1"/>
</linearGradient>
<linearGradient id="paint5_linear" x1="7.50266" y1="25.0463" x2="7.50266" y2="25.4674" gradientUnits="userSpaceOnUse">
<stop offset="0.519337" stop-color="#8380D3"/>
<stop offset="1" stop-color="#109CF1"/>
</linearGradient>
<linearGradient id="paint6_linear" x1="8.07089" y1="15.4326" x2="8.07089" y2="29.7415" gradientUnits="userSpaceOnUse">
<stop stop-color="#8380D3"/>
<stop offset="1" stop-color="#109CF1"/>
</linearGradient>
<linearGradient id="paint7_linear" x1="8.07089" y1="15.4326" x2="8.07089" y2="29.7415" gradientUnits="userSpaceOnUse">
<stop offset="0.519337" stop-color="#8380D3"/>
<stop offset="1" stop-color="#109CF1"/>
</linearGradient>
<linearGradient id="paint8_linear" x1="6.26757" y1="29.2445" x2="6.26757" y2="29.7435" gradientUnits="userSpaceOnUse">
<stop stop-color="#8380D3"/>
<stop offset="1" stop-color="#109CF1"/>
</linearGradient>
<linearGradient id="paint9_linear" x1="6.26757" y1="29.2445" x2="6.26757" y2="29.7435" gradientUnits="userSpaceOnUse">
<stop offset="0.519337" stop-color="#8380D3"/>
<stop offset="1" stop-color="#109CF1"/>
</linearGradient>
<linearGradient id="paint10_linear" x1="5.00185" y1="28.8476" x2="5.00185" y2="29.4721" gradientUnits="userSpaceOnUse">
<stop stop-color="#8380D3"/>
<stop offset="1" stop-color="#109CF1"/>
</linearGradient>
<linearGradient id="paint11_linear" x1="5.00185" y1="28.8476" x2="5.00185" y2="29.4721" gradientUnits="userSpaceOnUse">
<stop offset="0.519337" stop-color="#8380D3"/>
<stop offset="1" stop-color="#109CF1"/>
</linearGradient>
<linearGradient id="paint12_linear" x1="0.612262" y1="23.4836" x2="0.612262" y2="24.4117" gradientUnits="userSpaceOnUse">
<stop stop-color="#8380D3"/>
<stop offset="1" stop-color="#109CF1"/>
</linearGradient>
<linearGradient id="paint13_linear" x1="0.612262" y1="23.4836" x2="0.612262" y2="24.4117" gradientUnits="userSpaceOnUse">
<stop offset="0.519337" stop-color="#8380D3"/>
<stop offset="1" stop-color="#109CF1"/>
</linearGradient>
<linearGradient id="paint14_linear" x1="0.686425" y1="20.6551" x2="0.686425" y2="21.5783" gradientUnits="userSpaceOnUse">
<stop stop-color="#8380D3"/>
<stop offset="1" stop-color="#109CF1"/>
</linearGradient>
<linearGradient id="paint15_linear" x1="0.686425" y1="20.6551" x2="0.686425" y2="21.5783" gradientUnits="userSpaceOnUse">
<stop offset="0.519337" stop-color="#8380D3"/>
<stop offset="1" stop-color="#109CF1"/>
</linearGradient>
<linearGradient id="paint16_linear" x1="1.01172" y1="24.8634" x2="1.01172" y2="25.7636" gradientUnits="userSpaceOnUse">
<stop stop-color="#8380D3"/>
<stop offset="1" stop-color="#109CF1"/>
</linearGradient>
<linearGradient id="paint17_linear" x1="1.01172" y1="24.8634" x2="1.01172" y2="25.7636" gradientUnits="userSpaceOnUse">
<stop offset="0.519337" stop-color="#8380D3"/>
<stop offset="1" stop-color="#109CF1"/>
</linearGradient>
<linearGradient id="paint18_linear" x1="0.503041" y1="22.0606" x2="0.503041" y2="22.9964" gradientUnits="userSpaceOnUse">
<stop stop-color="#8380D3"/>
<stop offset="1" stop-color="#109CF1"/>
</linearGradient>
<linearGradient id="paint19_linear" x1="0.503041" y1="22.0606" x2="0.503041" y2="22.9964" gradientUnits="userSpaceOnUse">
<stop offset="0.519337" stop-color="#8380D3"/>
<stop offset="1" stop-color="#109CF1"/>
</linearGradient>
<linearGradient id="paint20_linear" x1="3.72332" y1="28.1757" x2="3.72332" y2="28.8881" gradientUnits="userSpaceOnUse">
<stop stop-color="#8380D3"/>
<stop offset="1" stop-color="#109CF1"/>
</linearGradient>
<linearGradient id="paint21_linear" x1="3.72332" y1="28.1757" x2="3.72332" y2="28.8881" gradientUnits="userSpaceOnUse">
<stop offset="0.519337" stop-color="#8380D3"/>
<stop offset="1" stop-color="#109CF1"/>
</linearGradient>
<linearGradient id="paint22_linear" x1="1.68495" y1="26.1401" x2="1.68495" y2="26.9927" gradientUnits="userSpaceOnUse">
<stop stop-color="#8380D3"/>
<stop offset="1" stop-color="#109CF1"/>
</linearGradient>
<linearGradient id="paint23_linear" x1="1.68495" y1="26.1401" x2="1.68495" y2="26.9927" gradientUnits="userSpaceOnUse">
<stop offset="0.519337" stop-color="#8380D3"/>
<stop offset="1" stop-color="#109CF1"/>
</linearGradient>
<linearGradient id="paint24_linear" x1="2.60234" y1="27.26" x2="2.60234" y2="28.0495" gradientUnits="userSpaceOnUse">
<stop stop-color="#8380D3"/>
<stop offset="1" stop-color="#109CF1"/>
</linearGradient>
<linearGradient id="paint25_linear" x1="2.60234" y1="27.26" x2="2.60234" y2="28.0495" gradientUnits="userSpaceOnUse">
<stop offset="0.519337" stop-color="#8380D3"/>
<stop offset="1" stop-color="#109CF1"/>
</linearGradient>
<linearGradient id="paint26_linear" x1="1.10734" y1="19.5326" x2="1.10734" y2="20.2157" gradientUnits="userSpaceOnUse">
<stop stop-color="#8380D3"/>
<stop offset="1" stop-color="#109CF1"/>
</linearGradient>
<linearGradient id="paint27_linear" x1="1.10734" y1="19.5326" x2="1.10734" y2="20.2157" gradientUnits="userSpaceOnUse">
<stop offset="0.519337" stop-color="#8380D3"/>
<stop offset="1" stop-color="#109CF1"/>
</linearGradient>
<clipPath id="clip0">
<rect width="15" height="15" fill="white"/>
</clipPath>
</defs>
</svg>
