<svg viewBox="0 0 15 15" fill="none" xmlns="http://www.w3.org/2000/svg">
<g clip-path="url(#clip0)">
<path d="M9.0466 5.43457C8.85257 5.43457 8.69531 5.59183 8.69531 5.78586V12.4252C8.69531 12.6191 8.85257 12.7765 9.0466 12.7765C9.24063 12.7765 9.39789 12.6191 9.39789 12.4252V5.78586C9.39789 5.59183 9.24063 5.43457 9.0466 5.43457Z" fill="#EB5757"/>
<path d="M7.50021 0.547333C7.30618 0.547333 7.14893 0.582605 7.14893 0.626125V2.11531C7.14893 2.1588 7.30618 2.1941 7.50021 2.1941C7.69425 2.1941 7.8515 2.1588 7.8515 2.11531V0.626125C7.8515 0.582605 7.69425 0.547333 7.50021 0.547333Z" fill="#EB5757"/>
<path d="M5.94601 5.43457C5.75198 5.43457 5.59473 5.59183 5.59473 5.78586V12.4252C5.59473 12.6191 5.75198 12.7765 5.94601 12.7765C6.14005 12.7765 6.2973 12.6191 6.2973 12.4252V5.78586C6.2973 5.59183 6.14005 5.43457 5.94601 5.43457Z" fill="#EB5757"/>
<path d="M2.40299 4.46574V13.1207C2.40299 13.6323 2.59057 14.1127 2.91825 14.4574C3.24443 14.803 3.69836 14.9993 4.17342 15.0001H10.8199C11.2951 14.9993 11.749 14.803 12.075 14.4574C12.4027 14.1127 12.5903 13.6323 12.5903 13.1207V4.46574C13.2417 4.29284 13.6638 3.66354 13.5767 2.99513C13.4894 2.32686 12.9201 1.82697 12.246 1.82683H10.4475V1.38772C10.4495 1.01846 10.3035 0.663878 10.0421 0.40302C9.7807 0.142299 9.42557 -0.00288116 9.05631 0.000137709H5.93699C5.56772 -0.00288116 5.2126 0.142299 4.95119 0.40302C4.68978 0.663878 4.54378 1.01846 4.54584 1.38772V1.82683H2.74727C2.07324 1.82697 1.50391 2.32686 1.41664 2.99513C1.3295 3.66354 1.7516 4.29284 2.40299 4.46574ZM10.8199 14.2975H4.17342C3.5728 14.2975 3.10556 13.7816 3.10556 13.1207V4.49661H11.8877V13.1207C11.8877 13.7816 11.4205 14.2975 10.8199 14.2975ZM5.24841 1.38772C5.24608 1.20481 5.31798 1.02875 5.44779 0.899624C5.57747 0.770499 5.75393 0.699556 5.93699 0.702712H9.05631C9.23936 0.699556 9.41583 0.770499 9.5455 0.899624C9.67531 1.02861 9.74722 1.20481 9.74488 1.38772V1.82683H5.24841V1.38772ZM2.74727 2.5294H12.246C12.5952 2.5294 12.8783 2.81249 12.8783 3.16172C12.8783 3.51095 12.5952 3.79404 12.246 3.79404H2.74727C2.39805 3.79404 2.11496 3.51095 2.11496 3.16172C2.11496 2.81249 2.39805 2.5294 2.74727 2.5294Z" fill="#EB5757"/>
</g>
<defs>
<clipPath id="clip0">
<rect width="15" height="15" fill="white"/>
</clipPath>
</defs>
</svg>
