<svg id="Слой_1" data-name="Слой 1" xmlns="http://www.w3.org/2000/svg" xmlns:xlink="http://www.w3.org/1999/xlink" viewBox="0 0 15 30"><defs><style>.cls-1{fill:none;}.cls-2{fill:#fff;}.cls-3{clip-path:url(#clip-path);}.cls-4{stroke-width:0.5px;fill:url(#Безымянный_градиент_2);stroke:url(#Безымянный_градиент_3);}</style><clipPath id="clip-path"><rect class="cls-1" y="15" width="15" height="15"/></clipPath><linearGradient id="Безымянный_градиент_2" x1="7.5" y1="16" x2="7.5" y2="1" gradientTransform="matrix(1, 0, 0, -1, 0, 31)" gradientUnits="userSpaceOnUse"><stop offset="0" stop-color="#8380d3"/><stop offset="1" stop-color="#109cf1"/></linearGradient><linearGradient id="Безымянный_градиент_3" x1="7.5" y1="16" x2="7.5" y2="1" gradientTransform="matrix(1, 0, 0, -1, 0, 31)" gradientUnits="userSpaceOnUse"><stop offset="0.52" stop-color="#8380d3"/><stop offset="1" stop-color="#109cf1"/></linearGradient></defs><title>report</title><path class="cls-2" d="M12.3,3.7V0H1.5V13.8H2.8V15H13.5V4.9ZM10,2.1l2.3,2.3.4.4H10ZM2,13.3V.5h9.8V3.2L9.9,1.3H2.8v12Zm1.3,1.3V1.8H9.5V5.3H13v9.3Z"/><g class="cls-3"><path class="cls-4" d="M12.3,18.7V15H1.5V28.8H2.8V30H13.5V19.9ZM10,17.1l2.3,2.3.4.4H10ZM2,28.3V15.5h9.8v2.7L9.9,16.3H2.8v12Zm1.3,1.3V16.8H9.5v3.5H13v9.3Z"/></g></svg>