<svg viewBox="0 0 15 15" fill="none" xmlns="http://www.w3.org/2000/svg">
<path d="M7.49997 3.61108C5.35553 3.61108 3.61108 5.35553 3.61108 7.49997C3.61108 9.64442 5.35553 11.3889 7.49997 11.3889C9.64442 11.3889 11.3889 9.64442 11.3889 7.49997C11.3889 5.35553 9.64442 3.61108 7.49997 3.61108ZM7.49997 10.8333C5.66192 10.8333 4.16664 9.33803 4.16664 7.49997C4.16664 5.66192 5.66192 4.16664 7.49997 4.16664C9.33803 4.16664 10.8333 5.66192 10.8333 7.49997C10.8333 9.33803 9.33803 10.8333 7.49997 10.8333Z" fill="white"/>
<path d="M14.2278 5.83333H13.6672C13.5242 5.30222 13.3139 4.79389 13.0394 4.3175L13.4356 3.92139C13.5814 3.77556 13.6617 3.58139 13.6617 3.37528C13.6617 3.16889 13.5814 2.975 13.4356 2.82889L12.1708 1.56417C11.8792 1.27278 11.3706 1.27222 11.0783 1.56417L10.6822 1.96028C10.2056 1.68611 9.6975 1.47583 9.16667 1.33278V0.772222C9.16667 0.346389 8.82028 0 8.39444 0H6.60556C6.17972 0 5.83333 0.346389 5.83333 0.772222V1.33278C5.3025 1.47583 4.79444 1.68611 4.3175 1.96056L3.92139 1.56444C3.62944 1.27222 3.12056 1.27278 2.82889 1.56444L1.56417 2.82917C1.41833 2.975 1.33806 3.16917 1.33806 3.37556C1.33806 3.58167 1.41833 3.77556 1.56417 3.92167L1.96028 4.31778C1.68611 4.79389 1.47556 5.30222 1.33278 5.83333H0.772222C0.346389 5.83333 0 6.17972 0 6.60556V8.39417C0 8.82028 0.346389 9.16667 0.772222 9.16667H1.33278C1.47583 9.6975 1.68611 10.2056 1.96056 10.6825L1.56444 11.0786C1.41861 11.2244 1.33833 11.4186 1.33833 11.6247C1.33833 11.8311 1.41861 12.025 1.56444 12.1711L2.82917 13.4358C3.12083 13.7278 3.62972 13.7281 3.92167 13.4358L4.31778 13.0397C4.79472 13.3139 5.30278 13.5244 5.83361 13.6675V14.2281C5.83361 14.6539 6.18 15.0003 6.60583 15.0003H8.39444C8.82028 15.0003 9.16667 14.6539 9.16667 14.2281V13.6675C9.6975 13.5244 10.2056 13.3142 10.6825 13.0397L11.0786 13.4358C11.3708 13.7281 11.8792 13.7275 12.1711 13.4358L13.4358 12.1711C13.5817 12.0253 13.6619 11.8311 13.6619 11.6247C13.6619 11.4186 13.5817 11.2247 13.4358 11.0786L13.0397 10.6825C13.3139 10.2056 13.5244 9.6975 13.6675 9.16667H14.2281C14.6539 9.16667 15.0003 8.82028 15.0003 8.39444V6.60556C15 6.17972 14.6536 5.83333 14.2278 5.83333ZM14.4444 8.39444C14.4444 8.51389 14.3472 8.61111 14.2278 8.61111H13.23L13.18 8.82583C13.0353 9.44722 12.7914 10.0369 12.4542 10.5789L12.3375 10.7661L13.0428 11.4714C13.1275 11.5561 13.1275 11.6936 13.0428 11.7781L11.7781 13.0428C11.6936 13.1272 11.5561 13.1278 11.4714 13.0428L10.7661 12.3375L10.5789 12.4542C10.0372 12.7914 9.4475 13.0356 8.82583 13.18L8.61111 13.23V14.2278C8.61111 14.3472 8.51389 14.4444 8.39444 14.4444H6.60556C6.48611 14.4444 6.38889 14.3472 6.38889 14.2278V13.23L6.17417 13.18C5.55278 13.0353 4.96306 12.7914 4.42111 12.4542L4.23389 12.3375L3.52861 13.0428C3.44361 13.1278 3.30611 13.1272 3.22194 13.0428L1.95722 11.7781C1.8725 11.6933 1.8725 11.5558 1.95722 11.4714L2.6625 10.7661L2.54583 10.5789C2.20861 10.0372 1.96444 9.4475 1.82 8.82583L1.77 8.61111H0.772222C0.652778 8.61111 0.555556 8.51389 0.555556 8.39444V6.60556C0.555556 6.48611 0.652778 6.38889 0.772222 6.38889H1.77L1.82 6.17417C1.96472 5.5525 2.20861 4.96278 2.54583 4.42111L2.6625 4.23389L1.95722 3.52861C1.8725 3.44389 1.8725 3.30639 1.95722 3.22194L3.22194 1.95722C3.30639 1.87278 3.44389 1.87222 3.52861 1.95722L4.23389 2.6625L4.42111 2.54583C4.96278 2.20861 5.5525 1.96444 6.17417 1.82L6.38889 1.77V0.772222C6.38889 0.652778 6.48611 0.555556 6.60556 0.555556H8.39417C8.51389 0.555556 8.61111 0.652778 8.61111 0.772222V1.77L8.82583 1.82C9.44722 1.96472 10.0369 2.20861 10.5789 2.54583L10.7661 2.6625L11.4714 1.95722C11.5564 1.87222 11.6939 1.87278 11.7781 1.95722L13.0428 3.22194C13.1275 3.30667 13.1275 3.44417 13.0428 3.52861L12.3375 4.23389L12.4542 4.42111C12.7914 4.9625 13.0356 5.55222 13.18 6.17417L13.23 6.38889H14.2278C14.3472 6.38889 14.4444 6.48611 14.4444 6.60556V8.39444Z" fill="white"/>
<path d="M7.5 5.50024C6.3972 5.50024 5.5 6.39744 5.5 7.50024C5.5 8.60304 6.3972 9.50024 7.5 9.50024C8.6028 9.50024 9.5 8.60304 9.5 7.50024C9.5 6.39744 8.6028 5.50024 7.5 5.50024ZM7.5 9.10024C6.6178 9.10024 5.9 8.38244 5.9 7.50024C5.9 6.61804 6.6178 5.90024 7.5 5.90024C8.3822 5.90024 9.1 6.61804 9.1 7.50024C9.1 8.38244 8.3822 9.10024 7.5 9.10024Z" fill="white"/>
</svg>
