<svg viewBox="0 0 15 15" fill="none" xmlns="http://www.w3.org/2000/svg">
<rect x="0.4" y="0.4" width="14.2" height="14.2" rx="1.6" stroke="#6FCF97" stroke-width="0.8"/>
<path d="M3.83335 9.44459C3.55717 9.44459 3.33333 9.07152 3.33333 8.61134C3.33333 8.45786 3.25871 8.3335 3.1667 8.3335C3.07461 8.3335 3 8.45786 3 8.61134C3 9.37834 3.37307 10.0001 3.83335 10.0001C4.29356 10.0001 4.66663 9.37834 4.66663 8.61134C4.66663 7.84421 4.29356 7.22242 3.83335 7.22242C3.55717 7.22242 3.33333 6.84934 3.33333 6.38917C3.33333 5.92886 3.55717 5.55579 3.83335 5.55579C4.10946 5.55579 4.3333 5.92886 4.3333 6.38917C4.3333 6.54252 4.40792 6.66687 4.50001 6.66687C4.59201 6.66687 4.66663 6.54252 4.66663 6.38917C4.66663 5.62204 4.29356 5.00024 3.83335 5.00024C3.37307 5.00024 3 5.62204 3 6.38917C3 7.15617 3.37307 7.77796 3.83335 7.77796C4.10946 7.77796 4.3333 8.15104 4.3333 8.61134C4.3333 9.07152 4.10946 9.44459 3.83335 9.44459Z" fill="#6FCF97"/>
<path d="M5.5001 10.0001C5.59211 10.0001 5.6668 9.87577 5.6668 9.72243V5.55579H6.16675C6.25884 5.55579 6.33345 5.43143 6.33345 5.27795C6.33345 5.1246 6.25884 5.00024 6.16675 5.00024H4.83345C4.74136 5.00024 4.66675 5.1246 4.66675 5.27795C4.66675 5.43143 4.74136 5.55579 4.83345 5.55579H5.3334V9.72243C5.3334 9.87577 5.40809 10.0001 5.5001 10.0001Z" fill="#6FCF97"/>
<path d="M11.8333 5.00024H10.5C10.4079 5.00024 10.3333 5.1246 10.3333 5.27795C10.3333 5.43143 10.4079 5.55579 10.5 5.55579H11V9.72243C11 9.87577 11.0746 10.0001 11.1666 10.0001C11.2587 10.0001 11.3333 9.87577 11.3333 9.72243V5.55579H11.8333C11.9253 5.55579 12 5.43143 12 5.27795C12 5.1246 11.9253 5.00024 11.8333 5.00024Z" fill="#6FCF97"/>
<path d="M7.99991 10.0002C8.01555 10.0002 8.03103 9.99647 8.04606 9.98935C8.08856 9.969 8.12442 9.92132 8.14578 9.85685C8.16722 9.79225 8.17233 9.71634 8.16005 9.64552L7.40528 5.29247C7.37247 5.11737 7.27481 4.99874 7.1648 5.00001C7.05478 5.00141 6.9582 5.12246 6.92692 5.29832L6.17306 9.64552C6.14758 9.79289 6.19862 9.94688 6.28712 9.98935C6.37554 10.0318 6.46793 9.94675 6.49342 9.79938L6.74755 8.33352H7.58556L7.83977 9.79938C7.86029 9.91839 7.9256 10.0003 7.99991 10.0002ZM6.84391 7.77798L7.16655 5.91693L7.48927 7.77798H6.84391Z" fill="#6FCF97"/>
<path d="M10.1666 6.38917C10.1661 5.62242 9.79333 5.00113 9.33328 5.00024H8.83333C8.64923 5.00024 8.5 5.24896 8.5 5.55579V9.72243C8.5 9.87578 8.57462 10.0001 8.66662 10.0001C8.75871 10.0001 8.83333 9.87578 8.83333 9.72243V7.77796H9.23028L9.85078 9.84653C9.8774 9.93541 9.93043 9.99378 9.98986 9.99975C10.0494 10.0059 10.1062 9.95843 10.1391 9.87565C10.1719 9.79287 10.1757 9.68708 10.1492 9.59819L9.58245 7.70777C9.92898 7.52772 10.1654 6.99405 10.1666 6.38917ZM9.33328 7.22242H8.83333V5.55579H9.33328C9.60946 5.55579 9.83331 5.92886 9.83331 6.38917C9.83331 6.84934 9.60946 7.22242 9.33328 7.22242Z" fill="#6FCF97"/>
</svg>
