<svg viewBox="0 0 15 15" fill="none" xmlns="http://www.w3.org/2000/svg">
<path d="M3.99987 10C3.47142 10 3.03242 9.42 3.00038 8.68059C2.99287 8.50813 3.09889 8.36061 3.23686 8.35191C3.36989 8.32811 3.49239 8.47379 3.50035 8.64626C3.51784 9.05505 3.73739 9.37503 3.99987 9.37503C4.27591 9.37503 4.5004 9.02438 4.5004 8.59373C4.5004 8.07691 4.24542 7.91314 3.96938 7.81437L3.89541 7.78691C3.15583 7.52255 3.00038 6.89002 3.00038 6.40627C3.00038 5.63127 3.4489 5 4.00088 5C4.52887 5 4.96787 5.57931 4.99992 6.31872C5.00743 6.49062 4.90186 6.6387 4.76389 6.64752C4.62693 6.66686 4.50791 6.52495 4.50086 6.35248C4.48291 5.94495 4.26336 5.62497 4.00088 5.62497C3.72484 5.62497 3.50035 5.97562 3.50035 6.40627C3.50035 6.92435 3.75643 7.08755 4.03237 7.18563C4.03237 7.1862 4.1069 7.21378 4.1069 7.21378C4.69989 7.42687 5.00038 7.89128 5.00038 8.59373C5.00038 9.36873 4.55194 10 3.99987 10Z" fill="#EB5757"/>
<path d="M7.25052 5.62497H5.25052C5.11255 5.62497 5.00049 5.48501 5.00049 5.31243C5.00049 5.13996 5.11255 5 5.25052 5H7.25052C7.38859 5 7.50056 5.13996 7.50056 5.31243C7.50056 5.48501 7.38859 5.62497 7.25052 5.62497Z" fill="#EB5757"/>
<path d="M6.25052 10C6.11246 10 6.00049 9.86004 6.00049 9.68757V5.31243C6.00049 5.13996 6.11246 5 6.25052 5C6.38849 5 6.50047 5.13996 6.50047 5.31243V9.68757C6.50047 9.86004 6.38849 10 6.25052 10Z" fill="#EB5757"/>
<path d="M8.50053 10C7.94901 10 7.50049 9.43946 7.50049 8.75006V6.24994C7.50049 5.56054 7.94901 5 8.50053 5C9.05206 5 9.50049 5.56054 9.50049 6.24994V8.75006C9.50049 9.43946 9.05206 10 8.50053 10ZM8.50053 5.62497C8.22496 5.62497 8.00047 5.90501 8.00047 6.24994V8.75006C8.00047 9.09499 8.22496 9.37503 8.50053 9.37503C8.77602 9.37503 9.00051 9.09499 9.00051 8.75006V6.24994C9.00051 5.90501 8.77602 5.62497 8.50053 5.62497Z" fill="#EB5757"/>
<path d="M10.2504 10C10.1125 10 10.0005 9.86004 10.0005 9.68757V5.31243C10.0005 5.13996 10.1125 5 10.2504 5H11.2505C11.664 5 12.0005 5.42058 12.0005 5.93751V7.18746C12.0005 7.70439 11.664 8.12497 11.2505 8.12497H10.5005V9.68757C10.5005 9.86004 10.3885 10 10.2504 10ZM10.5005 7.5H11.2505C11.3884 7.5 11.5005 7.35935 11.5005 7.18746V5.93751C11.5005 5.76562 11.3884 5.62497 11.2505 5.62497H10.5005V7.5Z" fill="#EB5757"/>
<rect x="0.4" y="0.4" width="14.2" height="14.2" rx="1.6" stroke="#EB5757" stroke-width="0.8"/>
</svg>
