<svg viewBox="0 0 15 15" fill="none" xmlns="http://www.w3.org/2000/svg">
<g clip-path="url(#clip0)">
<path d="M8.62438 14.5C5.5356 14.5 2.88306 11.4559 2.88306 7.5C2.88306 3.54407 5.5356 0.5 8.62438 0.5C11.7132 0.5 14.3657 3.54407 14.3657 7.5C14.3657 11.4559 11.7132 14.5 8.62438 14.5Z" stroke="#EB5757"/>
<path d="M7.10488 0.370524C7.18173 0.369479 7.26542 0.368341 7.35332 0.3672C4.917 1.74819 2.95437 4.14669 2.95437 7.50021C2.95437 10.8578 4.98222 13.2549 7.43661 14.634C7.3194 14.6325 7.20827 14.6311 7.10872 14.6298C6.9115 14.6272 6.75975 14.6252 6.69629 14.6252C3.32449 14.6252 0.508789 11.4838 0.508789 7.50021C0.508789 3.51657 3.32449 0.375206 6.69629 0.375206C6.76067 0.375206 6.91101 0.373161 7.10488 0.370524Z" stroke="#EB5757" stroke-width="0.75"/>
<path d="M8.69595 12.7005H8.67847C8.5362 12.7005 8.39291 12.6908 8.25267 12.6719C8.14109 12.6567 8.06162 12.5419 8.07483 12.4152C8.08824 12.2884 8.19007 12.2 8.30084 12.2134C8.42523 12.2302 8.55226 12.2388 8.67847 12.2388C8.79087 12.2388 8.89046 12.3422 8.89046 12.4696C8.89046 12.5971 8.80855 12.7005 8.69595 12.7005ZM9.87784 12.4519C9.79573 12.4519 9.71829 12.3948 9.6876 12.3023C9.64797 12.1829 9.70101 12.0497 9.80609 12.0049C9.92316 11.9548 10.04 11.8959 10.1528 11.8301C10.2528 11.7715 10.3752 11.8165 10.4266 11.9301C10.4778 12.0435 10.4384 12.1827 10.3384 12.2409C10.2118 12.3147 10.0811 12.3803 9.94938 12.4369C9.92601 12.447 9.90182 12.4519 9.87784 12.4519ZM7.12688 12.2755C7.09599 12.2755 7.06448 12.2674 7.03501 12.2503C6.91002 12.1781 6.78624 12.097 6.66734 12.0084C6.57344 11.9387 6.54722 11.7957 6.6086 11.6888C6.67039 11.5824 6.79599 11.5524 6.8901 11.6221C6.9964 11.7013 7.10717 11.7743 7.21895 11.8387C7.31895 11.8964 7.35899 12.0354 7.30818 12.149C7.27241 12.2293 7.20086 12.2755 7.12688 12.2755ZM11.2142 11.4541C11.1626 11.4541 11.1107 11.4317 11.0711 11.3871C10.9914 11.2973 10.9908 11.1512 11.0699 11.0607C11.1583 10.9595 11.2443 10.8506 11.3254 10.737C11.3963 10.6382 11.5244 10.6232 11.6113 10.7035C11.6983 10.7838 11.7117 10.9293 11.6408 11.0283C11.5512 11.1535 11.4563 11.2737 11.3585 11.3857C11.3187 11.4312 11.2662 11.4541 11.2142 11.4541ZM5.88544 11.129C5.8267 11.129 5.76837 11.1001 5.72813 11.0447C5.63992 10.9224 5.55517 10.7931 5.47651 10.6603C5.41371 10.5546 5.4383 10.411 5.53139 10.3396C5.62427 10.2683 5.75069 10.296 5.81349 10.402C5.88524 10.523 5.96227 10.6407 6.04255 10.7517C6.11369 10.8503 6.10109 10.9958 6.0143 11.0768C5.9767 11.1119 5.93077 11.129 5.88544 11.129ZM12.1077 9.94301C12.0804 9.94301 12.053 9.93678 12.0266 9.92385C11.9235 9.87283 11.8766 9.73684 11.9213 9.61979C11.9723 9.48727 12.0189 9.34967 12.0597 9.21138C12.0955 9.09087 12.2107 9.02553 12.3172 9.06617C12.4235 9.10703 12.4808 9.2377 12.4451 9.35868C12.4003 9.50944 12.3495 9.6595 12.2941 9.80426C12.2605 9.89106 12.1857 9.94301 12.1077 9.94301ZM5.11066 9.53506C5.02611 9.53506 4.94705 9.47434 4.91819 9.37853C4.87327 9.22893 4.83343 9.07494 4.79969 8.92072C4.77246 8.79697 4.83872 8.67184 4.94766 8.64114C5.05619 8.60974 5.16696 8.68546 5.19399 8.80921C5.22509 8.95073 5.26168 9.09225 5.30294 9.22939C5.33911 9.35014 5.28241 9.48127 5.17631 9.52237C5.15477 9.53091 5.13241 9.53506 5.11066 9.53506ZM12.4916 8.17362C12.4863 8.17362 12.481 8.17339 12.4758 8.17293C12.3638 8.163 12.2802 8.05195 12.2888 7.92475C12.2983 7.78484 12.3032 7.64193 12.3032 7.50041C12.3032 7.37297 12.3943 7.26215 12.5064 7.26215C12.6186 7.26215 12.7097 7.35796 12.7097 7.4854V7.50041C12.7097 7.65393 12.7044 7.80862 12.694 7.96053C12.6859 8.08151 12.5967 8.17362 12.4916 8.17362ZM4.85071 7.73382C4.73852 7.73382 4.64746 7.63293 4.64746 7.50549V7.50041C4.64746 7.34295 4.65295 7.18458 4.66372 7.03012C4.67266 6.90315 4.77002 6.80895 4.88242 6.81819C4.9944 6.82834 5.07794 6.93962 5.069 7.0666C5.05904 7.20928 5.05396 7.35519 5.05396 7.50041C5.05396 7.62785 4.9629 7.73382 4.85071 7.73382ZM12.3579 6.35714C12.267 6.35714 12.1843 6.28742 12.1611 6.18283C12.1296 6.04085 12.0928 5.89955 12.0514 5.76242C12.015 5.6419 12.0717 5.51054 12.1778 5.46921C12.2841 5.42743 12.3997 5.49207 12.4359 5.61281C12.481 5.76196 12.5211 5.91572 12.5552 6.06971C12.5827 6.19345 12.5166 6.31881 12.4079 6.34998C12.3914 6.35506 12.3747 6.35714 12.3579 6.35714ZM5.10802 5.93765C5.08627 5.93765 5.06432 5.93349 5.04257 5.92518C4.93628 5.88432 4.87937 5.75318 4.91534 5.63244C4.96026 5.48237 5.01127 5.33254 5.06717 5.18732C5.11229 5.07027 5.2318 5.0174 5.33485 5.06819C5.43769 5.11921 5.48464 5.25543 5.43972 5.37225C5.3883 5.50546 5.34155 5.64306 5.3005 5.78066C5.27143 5.87693 5.19277 5.93765 5.10802 5.93765ZM11.7075 4.69257C11.6422 4.69257 11.5784 4.65701 11.539 4.59098C11.467 4.47047 11.3898 4.35296 11.3093 4.24191C11.238 4.14356 11.2504 3.99788 11.337 3.91684C11.4235 3.83581 11.5518 3.84989 11.6231 3.94824C11.7115 4.07037 11.7965 4.19943 11.8756 4.33218C11.9386 4.43769 11.9142 4.58129 11.8213 4.65286C11.7863 4.67964 11.7469 4.69257 11.7075 4.69257ZM5.87955 4.34141C5.83443 4.34141 5.7889 4.32433 5.7511 4.28924C5.66411 4.20866 5.6513 4.06322 5.72244 3.9644C5.81207 3.83973 5.90719 3.71968 6.00516 3.60771C6.08442 3.51767 6.21308 3.51698 6.29255 3.60679C6.37222 3.69683 6.37263 3.84273 6.29356 3.93324C6.20495 4.03459 6.11857 4.14333 6.03707 4.25668C5.99723 4.31256 5.93869 4.34141 5.87955 4.34141ZM10.5709 3.41101C10.5329 3.41101 10.4945 3.399 10.4603 3.37361C10.354 3.29488 10.2431 3.22239 10.1307 3.15797C10.0307 3.10049 9.99044 2.96174 10.041 2.84792C10.0917 2.73456 10.2136 2.68815 10.314 2.74587C10.4396 2.81767 10.5634 2.89871 10.6821 2.98667C10.7762 3.05639 10.8028 3.19953 10.7414 3.30619C10.7024 3.3743 10.6376 3.41101 10.5709 3.41101ZM7.11956 3.19168C7.04558 3.19168 6.97424 3.14574 6.93827 3.06563C6.88725 2.95204 6.92709 2.81306 7.02709 2.75511C7.15371 2.68192 7.2846 2.61612 7.41651 2.56025C7.52139 2.51546 7.63866 2.57595 7.67809 2.69554C7.71732 2.8149 7.66406 2.94788 7.55878 2.99267C7.44131 3.04254 7.32444 3.10095 7.21143 3.16652C7.18216 3.1836 7.15046 3.19168 7.11956 3.19168ZM9.07196 2.78789C9.06404 2.78789 9.05611 2.78743 9.04818 2.78627C8.92583 2.77011 8.80144 2.76203 8.67847 2.76203C8.56628 2.76203 8.47096 2.6586 8.47096 2.53116C8.47096 2.40372 8.55775 2.30029 8.66994 2.30029H8.67847C8.81709 2.30029 8.95733 2.30953 9.09513 2.32777C9.20651 2.34231 9.28659 2.45682 9.27358 2.58357C9.2618 2.70131 9.17359 2.78789 9.07196 2.78789Z" fill="#EB5757"/>
</g>
<defs>
<clipPath id="clip0">
<rect width="15" height="15" fill="white"/>
</clipPath>
</defs>
</svg>
