<svg xmlns="http://www.w3.org/2000/svg" xmlns:xlink="http://www.w3.org/1999/xlink" viewBox="0 0 15 30"><defs><style>.cls-1,.cls-2{stroke-width:0.5px;}.cls-1{fill:url(#Безымянный_градиент_3);stroke:url(#Безымянный_градиент_4);}.cls-2{fill:url(#Безымянный_градиент_3-2);stroke:url(#Безымянный_градиент_4-2);}.cls-3{fill:#fff;}</style><linearGradient id="Безымянный_градиент_3" x1="11.28" y1="10.81" x2="5.88" y2="5.42" gradientTransform="matrix(1, 0, 0, -1, 0, 29)" gradientUnits="userSpaceOnUse"><stop offset="0" stop-color="#8380d3"/><stop offset="1" stop-color="#159aef"/></linearGradient><linearGradient id="Безымянный_градиент_4" x1="11.32" y1="10.85" x2="5.84" y2="5.38" gradientTransform="matrix(1, 0, 0, -1, 0, 29)" gradientUnits="userSpaceOnUse"><stop offset="0" stop-color="#8380d3"/><stop offset="1" stop-color="#179aef"/></linearGradient><linearGradient id="Безымянный_градиент_3-2" x1="9.12" y1="7.58" x2="3.73" y2="2.19" xlink:href="#Безымянный_градиент_3"/><linearGradient id="Безымянный_градиент_4-2" x1="9.16" y1="7.62" x2="3.69" y2="2.15" xlink:href="#Безымянный_градиент_4"/></defs><title>tran</title><g id="Слой_2" data-name="Слой 2"><path class="cls-1" d="M14.38,22.1l-1.22,1.22A5.72,5.72,0,0,0,2.4,19.91a.19.19,0,0,0,0,.22l0,0a.19.19,0,0,0,.26-.08,5.34,5.34,0,0,1,10,3.35L11.28,22l-.27.27,1.89,1.89,1.75-1.75-.27-.27Z"/><path class="cls-2" d="M12.61,25.09a.19.19,0,0,0-.34-.17,5.34,5.34,0,0,1-10-3.35L3.73,23,4,22.77,2.11,20.88.36,22.63l.27.27,1.22-1.22a5.72,5.72,0,0,0,10.76,3.4Z"/></g><g id="Слой_1" data-name="Слой 1"><path class="cls-3" d="M14.7,7.08,13.42,8.35A6,6,0,0,0,2.14,4.79a.2.2,0,0,0,0,.23l.05,0A.2.2,0,0,0,2.5,5,5.6,5.6,0,0,1,13,8.49L11.45,6.93l-.28.28,2,2L15,7.36Z"/><path class="cls-3" d="M12.84,10.21a.2.2,0,0,0-.36-.18A5.6,5.6,0,0,1,2,6.51L3.53,8.07l.28-.28-2-2L0,7.64l.28.28L1.56,6.65a6,6,0,0,0,11.28,3.56Z"/></g></svg>