<svg viewBox="0 0 21 21" fill="none" xmlns="http://www.w3.org/2000/svg">
<g clip-path="url(#clip0)">
<path d="M16.3378 14.3284L13.1535 12.7364C12.8532 12.5861 12.6665 12.2841 12.6665 11.9481V10.8211C12.7428 10.7277 12.8232 10.6214 12.9062 10.5041C13.3192 9.92073 13.6502 9.27139 13.8908 8.57106C14.3612 8.35539 14.6665 7.89039 14.6665 7.36539V6.03206C14.6665 5.71106 14.5465 5.40006 14.3332 5.15706V3.38406C14.3518 3.20073 14.4252 2.10939 13.6358 1.20906C12.9512 0.428059 11.8402 0.0320587 10.3332 0.0320587C8.82617 0.0320587 7.71517 0.428059 7.0305 1.20873C6.24117 2.10906 6.3145 3.20073 6.33317 3.38406V5.15706C6.11984 5.40006 5.99984 5.71106 5.99984 6.03206V7.36539C5.99984 7.77106 6.18417 8.14939 6.49884 8.40173C6.80417 9.61073 7.44317 10.5217 7.6665 10.8141V11.9171C7.6665 12.2397 7.4905 12.5357 7.2075 12.6904L4.23384 14.3124C3.26684 14.8401 2.6665 15.8514 2.6665 16.9527V18.0321C2.6665 19.6141 7.6815 20.0321 10.3332 20.0321C12.9848 20.0321 17.9998 19.6141 17.9998 18.0321V17.0177C17.9998 15.8717 17.3628 14.8411 16.3378 14.3284ZM17.3332 18.0321C17.3332 18.4844 14.8625 19.3654 10.3332 19.3654C5.80384 19.3654 3.33317 18.4844 3.33317 18.0321V16.9527C3.33317 16.0957 3.8005 15.3081 4.55284 14.8981L7.5265 13.2761C8.02417 13.0044 8.33317 12.4834 8.33317 11.9171V10.5774L8.2555 10.4847C8.2475 10.4751 7.4305 9.48673 7.11884 8.12973L7.0885 7.99773L6.97484 7.92439C6.78184 7.79973 6.6665 7.59073 6.6665 7.36539V6.03206C6.6665 5.84506 6.74584 5.67073 6.88984 5.54039L6.99984 5.44139V3.36539L6.99684 3.32173C6.99584 3.31273 6.8825 2.38873 7.53184 1.64806C8.08417 1.01806 9.02684 0.698725 10.3332 0.698725C11.6348 0.698725 12.5755 1.01573 13.1285 1.64139C13.7775 2.37506 13.6702 3.31373 13.6695 3.32173L13.6665 5.44139L13.7765 5.54073C13.9205 5.67073 13.9998 5.84506 13.9998 6.03206V7.36539C13.9998 7.65639 13.8092 7.91106 13.5258 7.99839L13.3598 8.04939L13.3065 8.21439C13.0835 8.90806 12.7658 9.54873 12.3618 10.1187C12.2628 10.2591 12.1665 10.3834 12.0828 10.4784L11.9998 10.5731V11.9481C11.9998 12.5381 12.3275 13.0684 12.8552 13.3324L16.0395 14.9244C16.8375 15.3234 17.3332 16.1254 17.3332 17.0177V18.0321Z" fill="url(#paint0_linear)" stroke="url(#paint1_linear)" stroke-width="0.5"/>
</g>
<defs>
<linearGradient id="paint0_linear" x1="10.3332" y1="0.0320587" x2="10.3332" y2="20.0321" gradientUnits="userSpaceOnUse">
<stop stop-color="#8380D3"/>
<stop offset="0.508287" stop-color="#C7D2FD"/>
<stop offset="1" stop-color="#7287D5"/>
</linearGradient>
<linearGradient id="paint1_linear" x1="10.3332" y1="0.0320587" x2="10.3332" y2="20.0321" gradientUnits="userSpaceOnUse">
<stop stop-color="#7287D5"/>
<stop offset="0.491713" stop-color="#C0CDFF"/>
<stop offset="1" stop-color="#7287D5"/>
</linearGradient>
<clipPath id="clip0">
<rect width="20" height="20" fill="white" transform="translate(0.333252 0.0320587)"/>
</clipPath>
</defs>
</svg>
