<svg viewBox="0 0 20 20" fill="none" xmlns="http://www.w3.org/2000/svg">
<path d="M16.0046 14.2963L12.8203 12.7043C12.5199 12.554 12.3333 12.252 12.3333 11.916V10.789C12.4096 10.6957 12.4899 10.5893 12.5729 10.472C12.9859 9.88867 13.3169 9.23933 13.5576 8.539C14.0279 8.32333 14.3333 7.85833 14.3333 7.33333V6C14.3333 5.679 14.2133 5.368 13.9999 5.125V3.352C14.0186 3.16867 14.0919 2.07733 13.3026 1.177C12.6179 0.396 11.5069 0 9.99992 0C8.49292 0 7.38192 0.396 6.69725 1.17667C5.90792 2.077 5.98125 3.16867 5.99992 3.352V5.125C5.78659 5.368 5.66659 5.679 5.66659 6V7.33333C5.66659 7.739 5.85092 8.11733 6.16559 8.36967C6.47092 9.57867 7.10992 10.4897 7.33325 10.782V11.885C7.33325 12.2077 7.15725 12.5037 6.87425 12.6583L3.90059 14.2803C2.93359 14.808 2.33325 15.8193 2.33325 16.9207V18C2.33325 19.582 7.34825 20 9.99992 20C12.6516 20 17.6666 19.582 17.6666 18V16.9857C17.6666 15.8397 17.0296 14.809 16.0046 14.2963ZM16.9999 18C16.9999 18.4523 14.5293 19.3333 9.99992 19.3333C5.47059 19.3333 2.99992 18.4523 2.99992 18V16.9207C2.99992 16.0637 3.46725 15.276 4.21959 14.866L7.19325 13.244C7.69092 12.9723 7.99992 12.4513 7.99992 11.885V10.5453L7.92225 10.4527C7.91425 10.443 7.09725 9.45467 6.78559 8.09767L6.75525 7.96567L6.64159 7.89233C6.44859 7.76767 6.33325 7.55867 6.33325 7.33333V6C6.33325 5.813 6.41259 5.63867 6.55659 5.50833L6.66659 5.40933V3.33333L6.66359 3.28967C6.66259 3.28067 6.54925 2.35667 7.19859 1.616C7.75092 0.986 8.69359 0.666667 9.99992 0.666667C11.3016 0.666667 12.2423 0.983667 12.7953 1.60933C13.4443 2.343 13.3369 3.28167 13.3363 3.28967L13.3333 5.40933L13.4433 5.50867C13.5873 5.63867 13.6666 5.813 13.6666 6V7.33333C13.6666 7.62433 13.4759 7.879 13.1926 7.96633L13.0266 8.01733L12.9733 8.18233C12.7503 8.876 12.4326 9.51667 12.0286 10.0867C11.9296 10.227 11.8333 10.3513 11.7496 10.4463L11.6666 10.541V11.916C11.6666 12.506 11.9943 13.0363 12.5219 13.3003L15.7063 14.8923C16.5043 15.2913 16.9999 16.0933 16.9999 16.9857V18Z" fill="#FFFFFF"/>
</svg>
