<svg id="Слой_2" data-name="Слой 2" xmlns="http://www.w3.org/2000/svg" xmlns:xlink="http://www.w3.org/1999/xlink" viewBox="0 0 15 30"><defs><style>.cls-1{fill:none;}.cls-2{fill:#fff;}.cls-3{clip-path:url(#clip-path);}.cls-4{stroke-width:0.5px;fill:url(#Безымянный_градиент_2);stroke:url(#Безымянный_градиент_3);}</style><clipPath id="clip-path"><rect class="cls-1" y="15" width="15" height="15"/></clipPath><linearGradient id="Безымянный_градиент_2" x1="7.5" y1="15.38" x2="7.5" y2="1.63" gradientTransform="matrix(1, 0, 0, -1, 0, 31)" gradientUnits="userSpaceOnUse"><stop offset="0" stop-color="#8380d3"/><stop offset="1" stop-color="#109cf1"/></linearGradient><linearGradient id="Безымянный_градиент_3" x1="7.5" y1="15.38" x2="7.5" y2="1.63" gradientTransform="matrix(1, 0, 0, -1, 0, 31)" gradientUnits="userSpaceOnUse"><stop offset="0.52" stop-color="#8380d3"/><stop offset="1" stop-color="#109cf1"/></linearGradient></defs><title>users</title><path class="cls-2" d="M13.88,11.63l-2.45-1.05a.47.47,0,0,1-.18-.2h1a2.75,2.75,0,0,0,1.25-.18.8.8,0,0,0,.43-.47.77.77,0,0,0-.1-.62c-.48-.68-.65-2.4-1-4.15a3.07,3.07,0,0,0-3.05-3,3.2,3.2,0,0,0-1.2.23,2.08,2.08,0,0,0-.37-.62A3.2,3.2,0,0,0,5.75.63a3.17,3.17,0,0,0-2.47.88,2.28,2.28,0,0,0-.53,1.63V4.45c-.15.18-.45.43-.45.65v1c0,.3.35.6.58.78a4.86,4.86,0,0,0,.88,1.8V9.5a.61.61,0,0,1-.35.57L1.17,11.3a2.36,2.36,0,0,0-1.17,2v1.05H15v-.93A2,2,0,0,0,13.88,11.63ZM11,13.88H.5v-.55a1.77,1.77,0,0,1,.92-1.55l2.23-1.22a1.16,1.16,0,0,0,.6-1v-1L4.2,8.45a4.63,4.63,0,0,1-.85-1.77l0-.1-.08,0c-.15-.1-.42-.25-.42-.43v-1c0-.15.27-.28.38-.37l.08-.07V3.08a1.79,1.79,0,0,1,.4-1.25,2.69,2.69,0,0,1,2.1-.7,2.79,2.79,0,0,1,2.1.7,1.62,1.62,0,0,1,.35.72V4.7l.07.08c.1.1.35.22.35.38v1c0,.22-.32.4-.52.47L8,6.68l0,.07a5.4,5.4,0,0,1-.7,1.43l-.2.27L7,8.52v1a.37.37,0,0,0,0,.18v0a.36.36,0,0,0,0,.15v0l.08.15v0a.45.45,0,0,0,.13.18l0,.07a1.56,1.56,0,0,0,.3.23L10,11.8a1.75,1.75,0,0,1,1,1.57Zm3.5,0h-3v-.5a2.28,2.28,0,0,0-1.25-2l-1.7-.85a.37.37,0,0,0,0-.32.43.43,0,0,0-.4-.3H7.6s0-.05,0-.07,0-.05,0-.07a.21.21,0,0,1-.05-.18V8.7a2.16,2.16,0,0,0,.18-.25A7.23,7.23,0,0,0,8.43,7a1.15,1.15,0,0,0,.75-.9v-1c0-.25-.25-.47-.43-.65V3.13a2.08,2.08,0,0,0,0-.53A2.94,2.94,0,0,1,9.8,2.4a2.55,2.55,0,0,1,2.55,2.55c.32,1.88.6,3.73,1.07,4.43a.19.19,0,0,1,0,.2.18.18,0,0,1-.12.15,2.6,2.6,0,0,1-1,.13H11.18a.47.47,0,0,0-.43.67,1,1,0,0,0,.45.48l2.43,1.05a1.5,1.5,0,0,1,.85,1.38v.45Z"/><g class="cls-3"><path class="cls-4" d="M13.88,26.63l-2.45-1.05a.47.47,0,0,1-.18-.2h1a2.75,2.75,0,0,0,1.25-.18.8.8,0,0,0,.43-.47.77.77,0,0,0-.1-.62c-.48-.68-.65-2.4-1-4.15a3.07,3.07,0,0,0-3.05-3,3.2,3.2,0,0,0-1.2.23,2.08,2.08,0,0,0-.37-.62,3.2,3.2,0,0,0-2.48-.87,3.17,3.17,0,0,0-2.47.88,2.28,2.28,0,0,0-.53,1.63v1.32c-.15.18-.45.43-.45.65v1c0,.3.35.6.58.78a4.86,4.86,0,0,0,.88,1.8v.82a.61.61,0,0,1-.35.57L1.17,26.3a2.36,2.36,0,0,0-1.17,2v1.05H15v-.93A2,2,0,0,0,13.88,26.63ZM11,28.88H.5v-.55a1.77,1.77,0,0,1,.92-1.55l2.23-1.22a1.16,1.16,0,0,0,.6-1v-1l-.05-.07a4.63,4.63,0,0,1-.85-1.77l0-.1-.08,0c-.15-.1-.42-.25-.42-.43v-1c0-.15.27-.28.38-.37l.08-.07V18.08a1.79,1.79,0,0,1,.4-1.25,2.69,2.69,0,0,1,2.1-.7,2.79,2.79,0,0,1,2.1.7,1.62,1.62,0,0,1,.35.72V19.7l.07.08c.1.1.35.22.35.38v1c0,.22-.32.4-.52.47L8,21.68l0,.07a5.4,5.4,0,0,1-.7,1.43l-.2.27L7,23.52v1a.37.37,0,0,0,0,.18v0a.36.36,0,0,0,0,.15v0l.08.15v0a.45.45,0,0,0,.13.18l0,.07a1.56,1.56,0,0,0,.3.23L10,26.8a1.75,1.75,0,0,1,1,1.57Zm3.5,0h-3v-.5a2.28,2.28,0,0,0-1.25-2l-1.7-.85a.37.37,0,0,0,0-.32.43.43,0,0,0-.4-.3H7.6s0-.05,0-.07,0-.05,0-.07a.21.21,0,0,1-.05-.18V23.7a2.16,2.16,0,0,0,.18-.25A7.23,7.23,0,0,0,8.43,22a1.15,1.15,0,0,0,.75-.9v-1c0-.25-.25-.47-.43-.65V18.13a2.08,2.08,0,0,0,0-.53,2.94,2.94,0,0,1,1.07-.2,2.55,2.55,0,0,1,2.55,2.55c.32,1.88.6,3.73,1.07,4.43a.19.19,0,0,1,0,.2.18.18,0,0,1-.12.15,2.6,2.6,0,0,1-1,.13H11.18a.47.47,0,0,0-.43.67,1,1,0,0,0,.45.48l2.43,1.05a1.5,1.5,0,0,1,.85,1.38v.45Z"/></g></svg>