<svg xmlns="http://www.w3.org/2000/svg" xmlns:xlink="http://www.w3.org/1999/xlink" viewBox="0 0 14.15 30.04"><defs><style>.cls-1,.cls-4{fill:none;}.cls-2{clip-path:url(#clip-path);}.cls-3{fill:url(#Безымянный_градиент_3);}.cls-4{stroke-width:0.5px;stroke:url(#Безымянный_градиент_2);}.cls-5{fill:#fff;}</style><clipPath id="clip-path" transform="translate(-0.42)"><rect class="cls-1" y="15" width="15" height="15"/></clipPath><linearGradient id="Безымянный_градиент_3" x1="7.5" y1="15.76" x2="7.5" y2="1.21" gradientTransform="matrix(1, 0, 0, -1, 0, 31)" gradientUnits="userSpaceOnUse"><stop offset="0" stop-color="#8380d3"/><stop offset="1" stop-color="#159aef"/></linearGradient><linearGradient id="Безымянный_градиент_2" x1="7.5" y1="15.76" x2="7.5" y2="1.2" gradientTransform="matrix(1, 0, 0, -1, 0, 31)" gradientUnits="userSpaceOnUse"><stop offset="0" stop-color="#8380d3"/><stop offset="1" stop-color="#179aef"/></linearGradient></defs><title>vaults 1</title><g id="Слой_2" data-name="Слой 2"><g id="Слой_3" data-name="Слой 3"><g class="cls-2"><path class="cls-3" d="M14.07,29.31h-.43V16.48a.25.25,0,0,0-.25-.24H8.67a.25.25,0,0,0-.25.24v1.07h-.5V16.48a.25.25,0,0,0-.25-.24H6.57v-.75a.25.25,0,0,0-.5,0v.73H5a.25.25,0,0,0-.25.24v1.07H4a.25.25,0,0,0-.25.24v2H1.6a.25.25,0,0,0-.25.24v9.26H.92a.25.25,0,0,0-.25.24.26.26,0,0,0,.25.24H14.07a.24.24,0,1,0,0-.48ZM5.22,16.72h2.2v.82H5.22ZM3.7,29.31h0Zm.67,0h0ZM3,29.31H1.85v-9H6.07v9H3Zm3.55-9.17v-.07a.25.25,0,0,0-.25-.24H4.22V18H8.45v4.73H6.6v-.82Zm0,1.31v0Zm4.2,7.86H6.57V23.25H10.8v6.06Zm0-6.55H8.92v-6h4.23V29.31H11.3V22.76" transform="translate(-0.42)"/><path class="cls-4" d="M11.55,22.76H8.92v-6h4.23V29.31H11.3V22.76m2.77,6.55h-.43V16.48a.25.25,0,0,0-.25-.24H8.67a.25.25,0,0,0-.25.24v1.07h-.5V16.48a.25.25,0,0,0-.25-.24H6.57v-.75a.25.25,0,0,0-.5,0v.73H5a.25.25,0,0,0-.25.24v1.07H4a.25.25,0,0,0-.25.24v2H1.6a.25.25,0,0,0-.25.24v9.26H.92a.25.25,0,0,0-.25.24.26.26,0,0,0,.25.24H14.07a.24.24,0,1,0,0-.48ZM5.22,16.72h2.2v.82H5.22ZM3.7,29.31h0Zm.67,0h0ZM3,29.31H1.85v-9H6.07v9H3Zm3.55-9.17v-.07a.25.25,0,0,0-.25-.24H4.22V18H8.45v4.73H6.6v-.82Zm0,1.31v0Zm4.2,7.86H6.57V23.25H10.8v6.06Z" transform="translate(-0.42)"/></g></g><g id="Слой_1-2" data-name="Слой 1"><path class="cls-5" d="M14.07,14.5h-.43V1.27A.25.25,0,0,0,13.4,1H8.67a.25.25,0,0,0-.25.25v1.1h-.5V1.27A.25.25,0,0,0,7.67,1H6.57V.25a.25.25,0,0,0-.5,0V1H5a.25.25,0,0,0-.25.25v1.1H4a.25.25,0,0,0-.25.25V4.7H1.6a.25.25,0,0,0-.25.25V14.5H.92a.25.25,0,0,0-.25.25A.27.27,0,0,0,.92,15H14.07a.25.25,0,1,0,0-.5Zm-8.85-13h2.2v.85H5.22ZM3.7,14.5h0Zm.67,0h0ZM3,14.5H1.85V5.22H6.07V14.5H3ZM6.57,5.05V5a.25.25,0,0,0-.25-.25H4.22V2.88H8.45V7.75H6.6V6.9Zm0,1.35v0Zm4.2,8.1H6.57V8.25H10.8V14.5Zm0-6.75H8.92V1.52h4.23v13H11.3V7.75" transform="translate(-0.42)"/></g></g></svg>