<svg xmlns="http://www.w3.org/2000/svg" xmlns:xlink="http://www.w3.org/1999/xlink" viewBox="0 0 15 30"><defs><style>.cls-1,.cls-4{fill:none;}.cls-2{clip-path:url(#clip-path);}.cls-3,.cls-4{stroke-width:0.5px;}.cls-3{fill:url(#Безымянный_градиент_3);stroke:url(#Безымянный_градиент_4);}.cls-4{stroke:url(#Безымянный_градиент_4-2);}.cls-5{clip-path:url(#clip-path-2);}.cls-6{fill:#fff;}</style><clipPath id="clip-path"><rect class="cls-1" y="15" width="15" height="15"/></clipPath><linearGradient id="Безымянный_градиент_3" x1="11.8" y1="8.25" x2="11.8" y2="6.29" gradientTransform="matrix(1, 0, 0, -1, 0, 32)" gradientUnits="userSpaceOnUse"><stop offset="0" stop-color="#8380d3"/><stop offset="1" stop-color="#159aef"/></linearGradient><linearGradient id="Безымянный_градиент_4" x1="11.8" y1="8.25" x2="11.8" y2="6.28" gradientTransform="matrix(1, 0, 0, -1, 0, 32)" gradientUnits="userSpaceOnUse"><stop offset="0" stop-color="#8380d3"/><stop offset="1" stop-color="#179aef"/></linearGradient><linearGradient id="Безымянный_градиент_4-2" x1="7.5" y1="16.77" x2="7.5" y2="2.25" xlink:href="#Безымянный_градиент_4"/><clipPath id="clip-path-2"><rect class="cls-1" width="15" height="15"/></clipPath></defs><title>Монтажная область 1</title><g id="Слой_4" data-name="Слой 4"><g class="cls-2"><path class="cls-3" d="M10.82,24.73a1,1,0,1,0,1-1A1,1,0,0,0,10.82,24.73Zm1-.49a.49.49,0,1,1-.49.49A.49.49,0,0,1,11.8,24.24Z"/><path class="cls-4" d="M11.78,17.79l-.7-.71h3.2V20H14l-2.28-2.25,0,0m0,0-1.17-1.15L9.32,15.31a.29.29,0,0,0-.39,0l-.48.49L8,15.31a.29.29,0,0,0-.39,0L6.27,16.62H2.18A2,2,0,0,0,.24,18.56V28A1.75,1.75,0,0,0,2,29.74H14.76V16.62Zm-1.5-.83.82.83L13.33,20H12L9.32,17.27a.26.26,0,0,0-.36,0L6.22,20H4.91l3.87-3.89ZM11.35,20H6.89l2.23-2.24ZM7.74,15.79l.34.34L4.21,20h-.7l3.39-3.4ZM2.18,17.1H5.76l-.51.51-.15.15L2.85,20H2.18a1.46,1.46,0,0,1,0-2.92Zm12.1,8.75H11.61a1.22,1.22,0,0,1,0-2.43h2.66Zm-13.55,1V20.17c0-.27-.37-1.36-.37-1.44s.41,1.19.41,1.17L.84,20s0,0,.07,0,0,0,.07.07l.07,0a.13.13,0,0,0,.1,0l.07,0,.07,0,.07,0s.07,0,.1,0l.07,0a.22.22,0,0,0,.12,0l.07,0,.15,0H14.28V21H14c-.15,0-.24.24-.24.24s.1.24.24.24h.24v1.46H11.61a1.7,1.7,0,0,0,0,3.4h2.66v1.94H14c-.15,0-.24.24-.24.24s.1.24.24.24h.24v.59H2A1.37,1.37,0,0,1,.72,28V26.82Z"/></g></g><g id="Слой_5" data-name="Слой 5"><g class="cls-5"><path class="cls-6" d="M11,9.71a1,1,0,1,0,1-1A1,1,0,0,0,11,9.71Zm1-.5a.5.5,0,1,1-.5.5A.5.5,0,0,1,12,9.21Z"/><path class="cls-6" d="M10.73,1.46,9.38.11a.3.3,0,0,0-.4,0l-.5.5L8,.11a.3.3,0,0,0-.4,0L6.22,1.46H2a2,2,0,0,0-2,2v9.7A1.81,1.81,0,0,0,1.8,15H15V1.46ZM9.18.61l.85.85L13.52,5H12.18L9.38,2.14a.27.27,0,0,0-.37,0L6.18,5H4.82l4-4ZM11.48,5H6.88l2.3-2.3ZM7.75.61,8.1,1l-4,4H3.38l3.5-3.5ZM2,2H5.7l-.52.52L5,2.64,2.7,5H2A1.5,1.5,0,1,1,2,2Zm12.5,9H11.75a1.25,1.25,0,1,1,0-2.5H14.5ZM.5,12V4.84s.05,0,.05,0l.07.08S.68,5,.7,5,.75,5,.77,5l.08,0a.13.13,0,0,0,.1.05l.07,0s.05.05.08.05l.07.05s.08,0,.1,0l.08,0a.23.23,0,0,0,.13,0l.07,0,.15,0H14.5v.5h-.25c-.15,0-.25.25-.25.25s.1.25.25.25h.25v1.5H11.75a1.75,1.75,0,1,0,0,3.5H14.5v2h-.25c-.15,0-.25.25-.25.25s.1.25.25.25h.25v.5H1.8a1.31,1.31,0,0,1-1.3-1.3V12ZM11.95,2.69l-.12-.15-.1-.1-.5-.5H14.5v3h-.27l-2-2-.05,0"/></g></g></svg>