<svg viewBox="0 0 20 21" fill="none" xmlns="http://www.w3.org/2000/svg">
<g clip-path="url(#clip0)">
<path d="M14.6665 12.9779C14.6665 13.7112 15.2665 14.3112 15.9998 14.3112C16.7332 14.3112 17.3332 13.7112 17.3332 12.9779C17.3332 12.2445 16.7332 11.6445 15.9998 11.6445C15.2665 11.6445 14.6665 12.2445 14.6665 12.9779ZM15.9998 12.3112C16.3665 12.3112 16.6665 12.6112 16.6665 12.9779C16.6665 13.3445 16.3665 13.6445 15.9998 13.6445C15.6332 13.6445 15.3332 13.3445 15.3332 12.9779C15.3332 12.6112 15.6332 12.3112 15.9998 12.3112Z" fill="url(#paint0_linear)" stroke="url(#paint1_linear)" stroke-width="0.5"/>
<path d="M14.2998 1.97788L12.4998 0.177881C12.3664 0.0445475 12.0998 0.0445475 11.9664 0.177881L11.2998 0.844548L10.6331 0.177881C10.4998 0.0445475 10.2331 0.0445475 10.0998 0.177881L8.29976 1.97788H2.66642C1.19976 1.97788 -0.000244141 3.17788 -0.000244141 4.64455V17.5779C-0.000244141 18.8779 1.06642 19.9779 2.39976 19.9779H19.9998V15.3112V10.6445V7.31121V6.64455V1.97788C19.9998 1.97788 14.2998 1.97788 14.2998 1.97788ZM12.2331 0.844548L13.3664 1.97788L18.0331 6.64455H16.2331L12.4998 2.87788C12.3664 2.74455 12.1331 2.74455 11.9998 2.87788L8.23309 6.64455H6.43309L11.7664 1.31121L12.2331 0.844548ZM15.2998 6.64455H9.16642L12.2331 3.57788L15.2998 6.64455ZM10.3331 0.844548L10.7998 1.31121L5.46642 6.64455H4.49976L9.16642 1.97788L10.3331 0.844548ZM2.66642 2.64455H7.59976L6.89976 3.34455C6.79976 3.44455 6.83309 3.41121 6.69976 3.54455L3.59976 6.64455H2.66642C1.56642 6.64455 0.666423 5.74455 0.666423 4.64455C0.666423 3.54455 1.56642 2.64455 2.66642 2.64455ZM19.3331 14.6445H15.6664C14.7331 14.6445 13.9998 13.9112 13.9998 12.9779C13.9998 12.0445 14.7331 11.3112 15.6664 11.3112H19.3331V14.6445ZM0.666423 15.9779V6.84455C0.666423 6.47788 0.666423 6.57788 0.666423 6.47788C0.666423 6.44455 0.733089 6.51121 0.733089 6.47788C0.766423 6.51121 0.799756 6.54455 0.833089 6.57788C0.866423 6.61121 0.899756 6.64455 0.933089 6.64455C0.933089 6.67788 0.999756 6.71121 1.03309 6.74455C1.06642 6.77788 1.09976 6.77788 1.13309 6.81121C1.16642 6.84455 1.19976 6.87788 1.26642 6.87788C1.29976 6.91121 1.33309 6.91121 1.36642 6.94455C1.39976 6.97788 1.43309 7.01121 1.46642 7.01121C1.49976 7.04455 1.53309 7.04455 1.56642 7.07788C1.59976 7.11121 1.66642 7.11121 1.69976 7.14455C1.73309 7.14455 1.76642 7.17788 1.79976 7.17788C1.86642 7.21121 1.89976 7.21121 1.96642 7.21121C1.99976 7.21121 2.03309 7.24455 2.06642 7.24455C2.13309 7.24455 2.19976 7.27788 2.26642 7.27788C2.29976 7.27788 2.33309 7.27788 2.36642 7.27788C2.46642 7.27788 2.56642 7.27788 2.66642 7.27788H3.93309H4.86642H5.83309H6.76642H8.43309H16.0331H17.6998H18.6331H19.3331V7.94455H18.9998C18.7998 7.94455 18.6664 8.27788 18.6664 8.27788C18.6664 8.27788 18.7998 8.61121 18.9998 8.61121H19.3331V10.6112H15.6664C14.3664 10.6112 13.3331 11.6445 13.3331 12.9445C13.3331 14.2445 14.3664 15.2779 15.6664 15.2779H19.3331V17.9445H18.9998C18.7998 17.9445 18.6664 18.2779 18.6664 18.2779C18.6664 18.2779 18.7998 18.6112 18.9998 18.6112H19.3331V19.2779H2.39976C1.46642 19.2779 0.666423 18.5112 0.666423 17.5445V16.8112V15.9779ZM15.9331 3.61121L15.7664 3.41121L15.6331 3.27788L14.9664 2.61121H19.3331V6.61121H18.9664L16.2998 3.94455L16.2331 3.87788" fill="url(#paint2_linear)"/>
<path d="M15.9331 3.61121L15.7664 3.41121L15.6331 3.27788L14.9664 2.61121H19.3331V6.61121H18.9664L16.2998 3.94455L16.2331 3.87788M14.2998 1.97788L12.4998 0.177881C12.3664 0.0445475 12.0998 0.0445475 11.9664 0.177881L11.2998 0.844548L10.6331 0.177881C10.4998 0.0445475 10.2331 0.0445475 10.0998 0.177881L8.29976 1.97788H2.66642C1.19976 1.97788 -0.000244141 3.17788 -0.000244141 4.64455V17.5779C-0.000244141 18.8779 1.06642 19.9779 2.39976 19.9779H19.9998V15.3112V10.6445V7.31121V6.64455V1.97788C19.9998 1.97788 14.2998 1.97788 14.2998 1.97788ZM12.2331 0.844548L13.3664 1.97788L18.0331 6.64455H16.2331L12.4998 2.87788C12.3664 2.74455 12.1331 2.74455 11.9998 2.87788L8.23309 6.64455H6.43309L11.7664 1.31121L12.2331 0.844548ZM15.2998 6.64455H9.16642L12.2331 3.57788L15.2998 6.64455ZM10.3331 0.844548L10.7998 1.31121L5.46642 6.64455H4.49976L9.16642 1.97788L10.3331 0.844548ZM2.66642 2.64455H7.59976L6.89976 3.34455C6.79976 3.44455 6.83309 3.41121 6.69976 3.54455L3.59976 6.64455H2.66642C1.56642 6.64455 0.666423 5.74455 0.666423 4.64455C0.666423 3.54455 1.56642 2.64455 2.66642 2.64455ZM19.3331 14.6445H15.6664C14.7331 14.6445 13.9998 13.9112 13.9998 12.9779C13.9998 12.0445 14.7331 11.3112 15.6664 11.3112H19.3331V14.6445ZM0.666423 15.9779V6.84455C0.666423 6.47788 0.666423 6.57788 0.666423 6.47788C0.666423 6.44455 0.733089 6.51121 0.733089 6.47788C0.766423 6.51121 0.799756 6.54455 0.833089 6.57788C0.866423 6.61121 0.899756 6.64455 0.933089 6.64455C0.933089 6.67788 0.999756 6.71121 1.03309 6.74455C1.06642 6.77788 1.09976 6.77788 1.13309 6.81121C1.16642 6.84455 1.19976 6.87788 1.26642 6.87788C1.29976 6.91121 1.33309 6.91121 1.36642 6.94455C1.39976 6.97788 1.43309 7.01121 1.46642 7.01121C1.49976 7.04455 1.53309 7.04455 1.56642 7.07788C1.59976 7.11121 1.66642 7.11121 1.69976 7.14455C1.73309 7.14455 1.76642 7.17788 1.79976 7.17788C1.86642 7.21121 1.89976 7.21121 1.96642 7.21121C1.99976 7.21121 2.03309 7.24455 2.06642 7.24455C2.13309 7.24455 2.19976 7.27788 2.26642 7.27788C2.29976 7.27788 2.33309 7.27788 2.36642 7.27788C2.46642 7.27788 2.56642 7.27788 2.66642 7.27788H3.93309H4.86642H5.83309H6.76642H8.43309H16.0331H17.6998H18.6331H19.3331V7.94455H18.9998C18.7998 7.94455 18.6664 8.27788 18.6664 8.27788C18.6664 8.27788 18.7998 8.61121 18.9998 8.61121H19.3331V10.6112H15.6664C14.3664 10.6112 13.3331 11.6445 13.3331 12.9445C13.3331 14.2445 14.3664 15.2779 15.6664 15.2779H19.3331V17.9445H18.9998C18.7998 17.9445 18.6664 18.2779 18.6664 18.2779C18.6664 18.2779 18.7998 18.6112 18.9998 18.6112H19.3331V19.2779H2.39976C1.46642 19.2779 0.666423 18.5112 0.666423 17.5445V16.8112V15.9779Z" stroke="url(#paint3_linear)" stroke-width="0.5"/>
</g>
<defs>
<linearGradient id="paint0_linear" x1="15.9998" y1="11.6445" x2="15.9998" y2="14.3112" gradientUnits="userSpaceOnUse">
<stop stop-color="#8380D3"/>
<stop offset="0.508287" stop-color="#C7D2FD"/>
<stop offset="1" stop-color="#7287D5"/>
</linearGradient>
<linearGradient id="paint1_linear" x1="15.9998" y1="11.6445" x2="15.9998" y2="14.3112" gradientUnits="userSpaceOnUse">
<stop stop-color="#7287D5"/>
<stop offset="0.491713" stop-color="#C0CDFF"/>
<stop offset="1" stop-color="#7287D5"/>
</linearGradient>
<linearGradient id="paint2_linear" x1="9.99976" y1="0.0778809" x2="9.99976" y2="19.9779" gradientUnits="userSpaceOnUse">
<stop stop-color="#8380D3"/>
<stop offset="0.508287" stop-color="#C7D2FD"/>
<stop offset="1" stop-color="#7287D5"/>
</linearGradient>
<linearGradient id="paint3_linear" x1="9.99976" y1="0.0778809" x2="9.99976" y2="19.9779" gradientUnits="userSpaceOnUse">
<stop stop-color="#7287D5"/>
<stop offset="0.491713" stop-color="#C0CDFF"/>
<stop offset="1" stop-color="#7287D5"/>
</linearGradient>
<clipPath id="clip0">
<rect width="20" height="20" fill="white" transform="translate(-0.000244141 0.0112305)"/>
</clipPath>
</defs>
</svg>
