<svg viewBox="0 0 24 29" fill="none" xmlns="http://www.w3.org/2000/svg">
<path d="M20.0455 15.4218C20.012 11.7581 23.0969 9.97573 23.238 9.89275C21.4909 7.38854 18.7828 7.04639 17.8312 7.01911C15.5568 6.7838 13.3506 8.35703 12.192 8.35703C11.0103 8.35703 9.22612 7.04184 7.30322 7.08049C4.82876 7.118 2.51388 8.52641 1.24428 10.7135C-1.37587 15.1729 0.578254 21.7261 3.08855 25.3306C4.34428 27.096 5.81161 29.0671 7.7322 28.9977C9.61117 28.9216 10.313 27.8201 12.5805 27.8201C14.8272 27.8201 15.4863 28.9977 17.445 28.9534C19.4616 28.9216 20.7312 27.1801 21.943 25.3988C23.3941 23.3755 23.9769 21.3828 24 21.2805C23.9526 21.2646 20.0837 19.813 20.0455 15.4218Z" fill="#B2B7BB"/>
<path d="M16.3454 4.64808C17.356 3.40563 18.0475 1.71532 17.8555 0C16.3928 0.0636567 14.5636 0.994636 13.5102 2.2098C12.5782 3.28059 11.7457 5.0357 11.9608 6.68623C13.6038 6.80672 15.2909 5.87119 16.3454 4.64808Z" fill="#B2B7BB"/>
</svg>
