<svg viewBox="0 0 24 24" fill="none" xmlns="http://www.w3.org/2000/svg">
<g clip-path="url(#clip0)">
<path d="M23.9952 9.17609C23.9927 9.14852 23.9872 9.12129 23.9788 9.09489C23.9733 9.07131 23.9656 9.0483 23.956 9.02608C23.9448 9.00437 23.9314 8.98384 23.916 8.96486C23.9006 8.94231 23.8827 8.92154 23.8628 8.90284C23.8564 8.89726 23.8536 8.88962 23.8468 8.88404L19.9998 5.89631V2.79978C19.9998 2.13702 19.4625 1.59972 18.7998 1.59972H14.4647L12.729 0.252038C12.3002 -0.0823851 11.6989 -0.0823851 11.2701 0.252038L9.53401 1.59972H5.19898C4.53623 1.59972 3.99892 2.13698 3.99892 2.79978V5.89636L0.153148 8.88409C0.146351 8.88971 0.143539 8.89731 0.137163 8.90288C0.11724 8.92154 0.09938 8.94236 0.0839574 8.9649C0.0685816 8.98389 0.0551747 9.00437 0.043971 9.02612C0.0342674 9.0483 0.0266732 9.07136 0.0211886 9.09494C0.0128444 9.12096 0.00735975 9.14777 0.00478149 9.17496C0.00478149 9.18335 0 9.19057 0 9.19896V22.8008C0.000562529 23.0552 0.0828792 23.3027 0.234809 23.5068C0.2372 23.5104 0.237621 23.5148 0.240387 23.518C0.2432 23.5212 0.2492 23.5248 0.253185 23.5292C0.477915 23.8249 0.827433 23.9992 1.19884 24.0008H22.7999C23.1728 23.9997 23.5238 23.8245 23.7488 23.5272C23.752 23.5232 23.7568 23.522 23.7596 23.518C23.7624 23.514 23.7628 23.5104 23.7652 23.5068C23.9171 23.3027 23.9994 23.0552 24 22.8008V9.20009C24 9.1917 23.9956 9.18448 23.9952 9.17609ZM11.7593 0.883242C11.899 0.772237 12.0968 0.772237 12.2365 0.883242L13.1594 1.59967H10.8393L11.7593 0.883242ZM1.29963 23.2008L11.7594 15.076C11.8992 14.9652 12.0968 14.9652 12.2366 15.076L22.6991 23.2008H1.29963ZM23.1999 22.5772L12.729 14.4447C12.3001 14.1106 11.699 14.1106 11.2701 14.4447L0.798791 22.5772V9.80931L7.35394 14.8996C7.5286 15.035 7.77996 15.0032 7.91539 14.8286C8.05082 14.6539 8.01903 14.4025 7.84437 14.2671L1.18483 9.09607L3.99897 6.90914V12.0636C3.99897 12.2845 4.17809 12.4636 4.39897 12.4636C4.61991 12.4636 4.79898 12.2845 4.79898 12.0636V2.79973C4.79898 2.5788 4.97805 2.39973 5.19898 2.39973H18.7997C19.0206 2.39973 19.1997 2.5788 19.1997 2.79973V12.0636C19.1997 12.2845 19.3787 12.4636 19.5997 12.4636C19.8206 12.4636 19.9997 12.2845 19.9997 12.0636V6.90914L22.8138 9.09607L16.1427 14.2763C16.0279 14.3633 15.9687 14.5052 15.9878 14.648C16.0068 14.7907 16.1011 14.9122 16.2346 14.9661C16.3682 15.02 16.5204 14.9979 16.6331 14.9083L23.1999 9.80931L23.1999 22.5772Z" fill="black"/>
<path d="M16.7997 9.59904V7.99897C16.7997 5.34787 14.6506 3.19873 11.9995 3.19873C9.34836 3.19873 7.19922 5.34787 7.19922 7.99897C7.19922 10.6501 9.34836 12.7992 11.9995 12.7992C12.2204 12.7992 12.3995 12.6201 12.3995 12.3992C12.3995 12.1783 12.2204 11.9992 11.9995 11.9992C9.79022 11.9992 7.99927 10.2083 7.99927 7.99902C7.99927 5.78978 9.79022 3.99883 11.9995 3.99883C14.2087 3.99883 15.9996 5.78978 15.9996 7.99902V9.59909C15.9996 10.041 15.6415 10.3991 15.1996 10.3991C14.7577 10.3991 14.3995 10.041 14.3995 9.59909V7.99902C14.3995 7.77809 14.2205 7.59902 13.9995 7.59902C13.7786 7.59902 13.5995 7.77809 13.5995 7.99902C13.5995 8.88271 12.8831 9.59909 11.9995 9.59909C11.1158 9.59909 10.3994 8.88271 10.3994 7.99902C10.3994 7.11534 11.1158 6.39896 11.9995 6.39896C12.2204 6.39896 12.3995 6.21988 12.3995 5.99895C12.3995 5.77802 12.2204 5.59895 11.9995 5.59895C10.9253 5.59656 9.98026 6.3082 9.68587 7.34128C9.39148 8.37437 9.81933 9.47725 10.7334 10.0415C11.6476 10.6057 12.8252 10.4938 13.6167 9.76756C13.7038 10.6135 14.4391 11.2425 15.2883 11.1976C16.1376 11.1526 16.8024 10.4495 16.7997 9.59904Z" fill="black"/>
<path d="M13.8412 6.62413C13.9746 6.45024 13.9428 6.19884 13.7547 6.08641C13.2094 5.76063 12.5839 5.59299 11.9488 5.60243C11.7297 5.60569 11.5764 5.80748 11.605 6.0248C11.6336 6.24212 11.8335 6.39193 12.0527 6.39635C12.478 6.40493 12.8951 6.51672 13.2677 6.72199C13.4597 6.82776 13.7077 6.79802 13.8412 6.62413Z" fill="black"/>
</g>
<defs>
<clipPath id="clip0">
<rect width="24" height="24" fill="white"/>
</clipPath>
</defs>
</svg>
