<svg viewBox="0 0 28 28" fill="none" xmlns="http://www.w3.org/2000/svg">
<g clip-path="url(#clip0)">
<path d="M14.1829 6.02481C14.1787 5.98166 14.1767 5.93852 14.1767 5.89526C14.1767 5.26209 14.5915 4.74699 15.1011 4.74699C15.6227 4.74699 16.0312 5.25137 16.0312 5.89526C16.0312 6.04105 16.0093 6.1816 15.9684 6.31143C16.1213 6.06851 16.2097 5.7628 16.2097 5.44234C16.2097 4.6724 15.7175 4.0459 15.1127 4.0459C14.5076 4.0459 14.0156 4.67234 14.0156 5.44234C14.0156 5.63161 14.0453 5.81689 14.1039 5.99462C14.1295 6.00436 14.1558 6.01448 14.1829 6.02481Z" fill="white"/>
<path d="M11.4519 4.80765C11.485 4.80262 11.5152 4.80032 11.5453 4.80032C11.9509 4.80032 12.3147 5.1985 12.41 5.74701C12.4196 5.80717 12.4256 5.8671 12.4283 5.92622C12.4546 5.91282 12.4814 5.90024 12.5087 5.8886C12.5221 5.79349 12.5286 5.70435 12.5286 5.61483C12.5286 4.90466 12.1524 4.30469 11.7073 4.30469C11.3281 4.30469 11.0086 4.72228 10.9176 5.28632C11.0213 5.02908 11.2105 4.84773 11.4519 4.80765Z" fill="white"/>
<path d="M19.091 19.1319C19.193 18.6994 19.3959 17.5952 19.2038 16.2595C18.9611 14.5713 16.5856 9.3145 16.1769 8.72754C15.9384 8.76084 15.3048 9.12697 14.791 9.42387C14.1951 9.76813 13.5788 10.1243 13.1597 10.2452C13.0722 10.27 12.9807 10.2822 12.8864 10.2822C12.274 10.2822 11.6111 9.76446 11.1837 9.35661C11.1091 10.148 10.6873 11.1523 10.2309 11.6684C9.94266 11.999 9.68503 12.7542 9.43587 13.4846C9.20509 14.1609 8.96649 14.8603 8.67435 15.3216C8.08324 16.2427 7.74418 18.0316 8.17429 19.0491C8.38243 19.5422 9.13788 20.1246 9.80436 20.6384C10.6195 21.2668 11.3234 21.8094 11.401 22.3566C11.4916 23.0036 11.1475 23.3622 10.8034 23.5322L11.6763 24.531C11.8112 24.5514 12.136 24.5906 12.6449 24.5906C13.2403 24.5906 13.9011 24.5386 14.6086 24.4356C16.3456 24.1783 17.5555 22.7469 17.7947 22.4429C17.796 22.0403 17.8083 20.2487 17.9258 19.6886C17.9714 19.4728 18.1465 19.1118 18.8082 19.1118C18.9111 19.1116 19.009 19.1206 19.091 19.1319Z" fill="white"/>
<path d="M11.511 8.04306C11.545 8.17551 11.8465 8.5143 12.3154 8.82192C12.382 8.86463 12.4444 8.90712 12.503 8.94693C12.7631 9.12368 12.8788 9.19625 13.0658 9.17104C13.3411 9.13495 14.3552 8.52004 14.7884 8.25743L14.8962 8.19214C15.0574 8.09392 15.1863 8.02682 15.2899 7.9729C15.495 7.8662 15.5135 7.84897 15.5223 7.81004C15.499 7.74972 15.3076 7.58822 14.9403 7.46201C14.8236 7.42022 14.658 7.35405 14.4662 7.27749C14.0512 7.11179 13.4827 6.88505 13.2523 6.84426C13.2425 6.8424 13.2332 6.8418 13.2228 6.8418C13.0267 6.8418 12.6305 7.08784 12.2368 7.45397C12.0427 7.62919 11.6638 7.92488 11.511 8.04306Z" fill="#E69629"/>
<path d="M8.04716 21.6298C7.8766 21.3442 7.72916 21.0974 7.64959 20.9744C7.33579 20.486 6.79122 19.9404 6.53167 19.9404C6.50892 19.9404 6.49694 19.9457 6.48918 19.9503C6.35066 20.0292 6.23423 20.2695 6.12152 20.5018C5.96582 20.8231 5.78929 21.1873 5.4633 21.3848C5.22213 21.5311 4.85343 21.6111 4.49709 21.6886C4.2435 21.7436 3.64981 21.8724 3.62192 21.9927C3.58348 22.155 3.61924 22.3227 3.66464 22.5348C3.71806 22.7852 3.78473 23.0967 3.72796 23.4791C3.68793 23.719 3.61514 23.9481 3.54454 24.1697C3.44649 24.4779 3.33531 24.8276 3.43118 24.935C3.54941 25.0394 4.2628 25.1548 4.78365 25.2392C5.43836 25.3451 6.11534 25.4548 6.52992 25.6285L6.63979 25.6747C7.38239 25.9868 8.76461 26.5677 9.46285 26.5677C9.5264 26.5677 9.58054 26.5626 9.62424 26.5527C9.74466 26.4717 10.2548 26.1052 10.3507 25.6545C10.4816 25.0738 9.94941 24.3965 9.62068 24.0443C9.25581 23.6525 8.55729 22.4833 8.04716 21.6298Z" fill="#E69629"/>
<path d="M23.8306 23.022L23.7455 22.9772C23.161 22.6682 22.8537 21.8296 22.8944 21.1975C22.902 21.0811 22.8875 20.9908 22.8639 20.9216C22.756 21.0992 22.6018 21.3235 22.4186 21.5066C22.1074 21.8179 21.3476 22.1537 20.6629 22.1537C20.4075 22.1537 20.1747 22.1087 19.971 22.0199C19.2875 21.7218 19.1943 20.867 19.1926 20.4385C19.1825 20.4413 19.1732 20.4446 19.165 20.4485C19.1232 20.5962 19.1636 21.0941 19.1909 21.4293C19.2055 21.6086 19.2206 21.794 19.2295 21.9641C19.2682 22.7138 19.0294 23.9853 18.8222 24.9199C18.6255 25.835 18.9916 26.4766 19.436 26.6151C19.476 26.6278 19.5209 26.634 19.5702 26.634C19.9796 26.634 20.6577 26.2102 21.2572 25.5794C21.6831 25.1315 22.631 24.6475 23.4674 24.2204C23.9389 23.9796 24.4265 23.7306 24.5651 23.604C24.5959 23.5753 24.6005 23.5592 24.6006 23.5591C24.5919 23.4216 24.0388 23.1312 23.8306 23.022Z" fill="#E69629"/>
<path d="M25.2147 22.4816C24.3936 22.1454 24.0424 21.6991 24.0763 21.0332C24.1113 20.2559 23.6704 19.6868 23.461 19.4618C23.5875 18.9786 23.9572 17.3068 23.4614 15.8547C22.9286 14.3005 21.3018 11.9268 19.6233 9.59346C18.9361 8.63523 18.9036 7.59355 18.8661 6.38742C18.8301 5.23702 18.7895 3.93305 18.148 2.48346C17.4504 0.905074 16.0508 0 14.3077 0C13.2708 0 12.2064 0.324077 11.3874 0.889051C9.7101 2.04662 9.9318 4.57038 10.0785 6.24026C10.0987 6.46896 10.1175 6.68497 10.1286 6.86938C10.2262 8.50497 10.1374 9.36706 10.0212 9.62906C9.94597 9.80029 9.57584 10.2876 9.18412 10.8035C8.77899 11.3372 8.31967 11.9419 7.94321 12.5054C7.49401 13.1836 7.13137 14.2202 6.78072 15.2225C6.52413 15.9559 6.28175 16.6488 6.04583 17.063C5.59865 17.8595 5.70994 18.6022 5.8028 18.9455C5.63349 19.0631 5.38893 19.2947 5.18248 19.7311C4.93295 20.2636 4.42665 20.5496 3.37387 20.7521C2.89005 20.8511 2.55645 21.0545 2.382 21.3567C2.12814 21.7965 2.26645 22.3492 2.39256 22.7269C2.57893 23.2821 2.46277 23.6335 2.25163 24.2716C2.20296 24.4188 2.14778 24.5856 2.09189 24.7694C2.00384 25.0597 2.03561 25.3234 2.18606 25.5537C2.58363 26.1614 3.74388 26.3758 4.93825 26.5169C5.65137 26.6015 6.43187 26.8867 7.18677 27.1626C7.92642 27.4329 8.69128 27.7125 9.38646 27.7973C9.49212 27.8106 9.59679 27.8172 9.69769 27.8172C10.7474 27.8172 11.2216 27.1207 11.372 26.8346C11.749 26.7577 13.0494 26.5113 14.3897 26.4782C15.7278 26.44 17.0225 26.7043 17.3893 26.7863C17.5046 27.007 17.8086 27.5111 18.2931 27.7709C18.5594 27.9165 18.93 27.9999 19.3096 27.9999C19.3097 27.9999 19.3096 27.9999 19.3097 27.9999C19.7151 27.9999 20.4864 27.9041 21.0968 27.2618C21.7056 26.6167 23.2268 25.793 24.3376 25.1916C24.5855 25.0574 24.8174 24.9318 25.0207 24.8185C25.6447 24.4726 25.9852 23.9784 25.9549 23.4626C25.9295 23.034 25.6459 22.6581 25.2147 22.4816ZM15.1125 4.04659C15.7174 4.04659 16.2096 4.67303 16.2096 5.44303C16.2096 5.76344 16.1211 6.06914 15.9683 6.31212C16.009 6.18229 16.0311 6.04174 16.0311 5.89595C16.0311 5.25206 15.6226 4.74768 15.101 4.74768C14.5913 4.74768 14.1766 5.26278 14.1766 5.89595C14.1766 5.9392 14.1788 5.98235 14.1828 6.0255C14.1557 6.01522 14.1294 6.00505 14.1037 5.99531C14.0451 5.81758 14.0154 5.6323 14.0154 5.44303C14.0155 4.67308 14.5075 4.04659 15.1125 4.04659ZM13.2523 6.84488C13.4828 6.88557 14.0511 7.11241 14.4662 7.27811C14.658 7.35467 14.8238 7.42085 14.9403 7.46263C15.3076 7.58884 15.4991 7.75034 15.5223 7.81066C15.5136 7.84965 15.495 7.86682 15.2899 7.97352C15.1863 8.02738 15.0575 8.09443 14.8962 8.19276L14.7884 8.25805C14.3552 8.52072 13.3411 9.13567 13.0658 9.17166C12.8787 9.19681 12.7631 9.12419 12.503 8.94755C12.4444 8.90763 12.382 8.86519 12.3154 8.82253C11.8466 8.51481 11.545 8.17613 11.511 8.04368C11.6638 7.92555 12.0427 7.62981 12.2367 7.45464C12.6304 7.08851 13.0266 6.84247 13.2227 6.84247C13.2331 6.84231 13.2425 6.84302 13.2523 6.84488ZM11.7071 4.3052C12.1523 4.3052 12.5284 4.90512 12.5284 5.61534C12.5284 5.70492 12.522 5.79401 12.5085 5.88911C12.4812 5.90076 12.4544 5.91344 12.4281 5.92673C12.4254 5.86751 12.4193 5.80768 12.4098 5.74752C12.3145 5.19901 11.9507 4.80083 11.5451 4.80083C11.5151 4.80083 11.4849 4.80313 11.4517 4.80816C11.2104 4.84836 11.0211 5.02959 10.9173 5.28673C11.0085 4.72274 11.328 4.3052 11.7071 4.3052ZM10.3507 25.6553C10.2548 26.106 9.74461 26.4725 9.62424 26.5535C9.58055 26.5634 9.52646 26.5685 9.46286 26.5685C8.76461 26.5685 7.38239 25.9876 6.63979 25.6755L6.52992 25.6292C6.11523 25.4555 5.43831 25.346 4.78365 25.24C4.26275 25.1556 3.54947 25.0402 3.43118 24.9358C3.33531 24.8283 3.44649 24.4787 3.54454 24.1705C3.61515 23.9489 3.68804 23.7198 3.72797 23.4799C3.78462 23.0975 3.71807 22.7859 3.66464 22.5356C3.6193 22.3234 3.58348 22.1558 3.62193 21.9935C3.64982 21.8733 4.2435 21.7445 4.49709 21.6894C4.85354 21.6119 5.22224 21.5319 5.4633 21.3856C5.78929 21.1881 5.96582 20.8239 6.12152 20.5026C6.23423 20.2703 6.35066 20.03 6.48918 19.9511C6.497 19.9464 6.50892 19.9412 6.53167 19.9412C6.79122 19.9412 7.3358 20.4867 7.64959 20.9752C7.72916 21.0982 7.8766 21.3449 8.04717 21.6306C8.55735 22.4842 9.25587 23.6533 9.62069 24.0451C9.94941 24.3973 10.4816 25.0746 10.3507 25.6553ZM17.9258 19.6894C17.8085 20.2496 17.7961 22.0412 17.7947 22.4438C17.5555 22.7478 16.3456 24.1792 14.6086 24.4365C13.9011 24.5393 13.2404 24.5915 12.6449 24.5915C12.136 24.5915 11.8112 24.5522 11.6763 24.5318L10.8035 23.5331C11.1476 23.3631 11.4916 23.0045 11.401 22.3575C11.3234 21.8103 10.6195 21.2677 9.80438 20.6393C9.13791 20.1255 8.38246 19.5432 8.17432 19.0499C7.7442 18.0326 8.08326 16.2437 8.67438 15.3225C8.96652 14.8613 9.20512 14.1618 9.4359 13.4854C9.68505 12.755 9.94274 11.9998 10.2309 11.6693C10.6873 11.1531 11.1091 10.1489 11.1838 9.35749C11.6111 9.76534 12.274 10.2831 12.8864 10.2831C12.9807 10.2831 13.0723 10.2708 13.1597 10.2461C13.5787 10.1251 14.195 9.76901 14.791 9.42475C15.3048 9.12785 15.9384 8.76172 16.1769 8.72842C16.5857 9.31543 18.9611 14.5722 19.2038 16.2603C19.3959 17.5961 19.193 18.7003 19.091 19.1328C19.0089 19.1215 18.9111 19.1125 18.8083 19.1125C18.1465 19.1125 17.9714 19.4737 17.9258 19.6894ZM24.5652 23.6042C24.4267 23.7308 23.9391 23.9798 23.4676 24.2206C22.6311 24.6476 21.6831 25.1317 21.2573 25.5795C20.6578 26.2104 19.9798 26.6342 19.5703 26.6342C19.5211 26.6342 19.4762 26.6279 19.4362 26.6153C18.9917 26.4767 18.6257 25.8351 18.8224 24.9201C19.0296 23.9853 19.2682 22.714 19.2296 21.9643C19.2207 21.7941 19.2057 21.6087 19.1911 21.4295C19.1638 21.0944 19.1233 20.5964 19.1651 20.4487C19.1734 20.4448 19.1825 20.4415 19.1927 20.4387C19.1945 20.8672 19.2875 21.722 19.9711 22.0201C20.1748 22.1089 20.4076 22.1539 20.663 22.1539C21.3478 22.1539 22.1075 21.8181 22.4188 21.5068C22.602 21.3237 22.7561 21.0994 22.8641 20.9218C22.8877 20.9909 22.9022 21.0813 22.8946 21.1977C22.8539 21.8297 23.161 22.6683 23.7456 22.9773L23.8307 23.0221C24.0389 23.1312 24.592 23.4217 24.6009 23.5593C24.6006 23.5593 24.596 23.5755 24.5652 23.6042Z" fill="black"/>
</g>
<defs>
<clipPath id="clip0">
<rect width="28" height="28" fill="white"/>
</clipPath>
</defs>
</svg>
