<svg viewBox="0 0 24 24" fill="none" xmlns="http://www.w3.org/2000/svg">
<g clip-path="url(#clip0)">
<path d="M7.8735 16.4287C8.86191 17.8223 9.84872 19.0687 10.5027 19.8715C10.5979 19.9883 10.6871 20.0967 10.7735 20.2011H8.79994C8.57902 20.2011 8.39995 20.3801 8.39995 20.6011C8.39995 20.822 8.57902 21.001 8.79994 21.001H15.1999C15.4208 21.001 15.5999 20.822 15.5999 20.6011C15.5999 20.3801 15.4208 20.2011 15.1999 20.2011H13.2263C13.3127 20.0967 13.4019 19.9883 13.4975 19.8715C14.1511 19.0715 15.1376 17.8223 16.1263 16.4287C17.1074 15.0738 17.9904 13.6505 18.7687 12.1699C19.5855 10.5659 20 9.23429 20 8.21189C20.0027 6.08746 19.1597 4.04933 17.6571 2.54745C17.5568 2.44338 17.4081 2.40157 17.2682 2.43809C17.1283 2.4746 17.019 2.58373 16.9823 2.72356C16.9456 2.86339 16.9872 3.01212 17.0911 3.11262C18.4436 4.46469 19.2023 6.29943 19.2 8.21185C19.2 9.10707 18.8152 10.3166 18.056 11.8067C17.2952 13.253 16.4322 14.6432 15.4736 15.9667C14.4984 17.3423 13.5236 18.5747 12.8776 19.3667C12.6628 19.6299 12.4696 19.8627 12.3048 20.0595C12.2278 20.1473 12.1167 20.1977 12 20.1977C11.8832 20.1977 11.7721 20.1473 11.6952 20.0595C11.5304 19.8627 11.3372 19.6299 11.1224 19.3667C10.4764 18.5751 9.50157 17.3427 8.52638 15.9667C7.56773 14.6432 6.70471 13.253 5.94397 11.8067C5.18399 10.3166 4.79999 9.10707 4.79999 8.21185C4.79975 5.31454 6.53245 2.69806 9.20002 1.56743C10.9924 0.815831 13.0116 0.815831 14.804 1.56743C14.9357 1.62321 15.087 1.6046 15.2012 1.51849C15.3153 1.43243 15.3748 1.29199 15.3574 1.1501C15.3399 1.00821 15.248 0.886426 15.1164 0.830644C11.0431 -0.887425 6.34813 1.02105 4.6288 5.09385C4.21184 6.08038 3.998 7.14084 4.00001 8.21185C4.00001 9.23424 4.41444 10.5659 5.23124 12.1719C6.00946 13.6519 6.89254 15.0744 7.8735 16.4287Z" fill="black"/>
<path d="M12.0005 4.60075C12.2214 4.60075 12.4005 4.42169 12.4005 4.20077C12.4005 3.97984 12.2214 3.80078 12.0005 3.80078C10.0922 3.80073 8.4496 5.14877 8.07727 7.0204C7.70494 8.89204 8.70661 10.766 10.4696 11.4963C12.2327 12.2266 14.2661 11.6098 15.3263 10.0231C16.3865 8.43646 16.1782 6.32178 14.8289 4.97238C14.7284 4.86841 14.5797 4.82669 14.4399 4.8633C14.3 4.89991 14.1908 5.00913 14.1542 5.14896C14.1176 5.28883 14.1593 5.43752 14.2633 5.53798C15.3428 6.61746 15.5095 8.30914 14.6614 9.57852C13.8132 10.8479 12.1865 11.3414 10.7761 10.7572C9.36568 10.1731 8.5643 8.67393 8.86205 7.17659C9.1598 5.67926 10.4739 4.6008 12.0005 4.60075Z" fill="black"/>
<path d="M23.8494 22.0292L21.3894 17.6292C21.167 17.2382 20.7508 16.9979 20.301 17.0008H17.4502C17.2293 17.0008 17.0502 17.1798 17.0502 17.4007C17.0502 17.6217 17.2293 17.8007 17.4502 17.8007H20.301C20.4611 17.7976 20.6105 17.8811 20.6918 18.0191L23.151 22.4191C23.218 22.5336 23.2166 22.6756 23.1474 22.7888C23.0657 22.9238 22.9179 23.0046 22.7602 23.0008H1.24016C1.08257 23.0045 0.935003 22.9236 0.853346 22.7888C0.784158 22.6756 0.782799 22.5336 0.849737 22.4191L3.30895 18.0191C3.39009 17.8812 3.53934 17.7977 3.69932 17.8007H6.55013C6.77105 17.8007 6.95012 17.6217 6.95012 17.4007C6.95012 17.1798 6.77105 17.0008 6.55013 17.0008H3.69937C3.24937 16.9978 2.83284 17.2381 2.61018 17.6292L0.150547 22.0292C-0.0545318 22.3914 -0.0497974 22.8358 0.162969 23.1936C0.387126 23.5746 0.798174 23.8063 1.24016 23.8008H22.7602C23.2021 23.8062 23.613 23.5745 23.837 23.1936C24.0498 22.8358 24.0545 22.3914 23.8494 22.0292Z" fill="black"/>
<path d="M19.6005 19.001H18.0005C17.9215 19.0011 17.8443 19.0245 17.7785 19.0682L16.5785 19.8682C16.3947 19.9908 16.3451 20.2392 16.4677 20.423C16.5903 20.6068 16.8387 20.6564 17.0225 20.5338L18.1205 19.801H19.6005C19.8214 19.801 20.0005 19.6219 20.0005 19.4011C20.0005 19.18 19.8214 19.001 19.6005 19.001Z" fill="black"/>
<path d="M17.2002 21.8009C17.2002 22.0218 17.3793 22.2009 17.6002 22.2009H20.8002C21.0211 22.2009 21.2002 22.0218 21.2002 21.8009C21.2002 21.5799 21.0211 21.4009 20.8002 21.4009H17.6002C17.3793 21.4009 17.2002 21.5799 17.2002 21.8009Z" fill="black"/>
<path d="M7.19998 20.6008C7.37633 20.601 7.532 20.4857 7.58323 20.3169C7.63447 20.1482 7.56912 19.9658 7.4224 19.868L6.2224 19.068C6.15649 19.0242 6.0791 19.0008 5.99998 19.0007H4.39999C4.17906 19.0007 4 19.1798 4 19.4007C4 19.6216 4.17911 19.8007 4.39999 19.8007H5.87998L6.9792 20.5335C7.04459 20.5772 7.12142 20.6006 7.19998 20.6008Z" fill="black"/>
<path d="M3.20077 21.4009C2.97984 21.4009 2.80078 21.5799 2.80078 21.8009C2.80078 22.0218 2.97984 22.2009 3.20077 22.2009H6.4008C6.62172 22.2009 6.80078 22.0218 6.80078 21.8009C6.80078 21.5799 6.62172 21.4009 6.4008 21.4009H3.20077Z" fill="black"/>
<path d="M16 7.80127C16 10.0104 14.2091 11.8013 12 11.8013C9.79086 11.8013 8 10.0104 8 7.80127C8 5.59213 9.79086 3.80127 12 3.80127C14.2091 3.80127 16 5.59213 16 7.80127ZM8.79717 7.80127C8.79717 9.57015 10.2311 11.0041 12 11.0041C13.7689 11.0041 15.2028 9.57015 15.2028 7.80127C15.2028 6.03239 13.7689 4.59844 12 4.59844C10.2311 4.59844 8.79717 6.03239 8.79717 7.80127Z" fill="black"/>
<path d="M19.1849 4.68013C18.4399 3.1591 17.2315 1.91372 15.7336 1.12333C14.2357 0.332941 12.5256 0.0383271 10.8496 0.281913L10.9643 1.07082C12.4733 0.851512 14.013 1.11677 15.3616 1.82839C16.7102 2.54002 17.7982 3.6613 18.4689 5.03076L19.1849 4.68013Z" fill="black"/>
</g>
<defs>
<clipPath id="clip0">
<rect width="24" height="24" fill="white"/>
</clipPath>
</defs>
</svg>
