<svg viewBox="0 0 24 24" fill="none" xmlns="http://www.w3.org/2000/svg">
<g clip-path="url(#clip0)">
<path d="M23.3702 18.5146L22.438 17.8935C24.5404 14.1956 24.5169 9.65851 22.3763 5.9826C20.2357 2.30669 16.3013 0.046996 12.0475 0.0505111C11.8266 0.0505111 11.6476 0.229547 11.6476 0.450436C11.6476 0.671325 11.8266 0.850361 12.0475 0.850361C16.0059 0.847408 19.6686 2.94489 21.6694 6.36045C23.6702 9.77596 23.7085 13.9966 21.7701 17.4479L18.511 15.275C17.8945 14.8674 17.0683 15.0016 16.6125 15.5834L15.1991 17.4027C15.0171 17.6423 14.6867 17.7118 14.4236 17.5659L14.1544 17.4175C13.2621 16.9312 12.1519 16.3257 9.91506 14.088C7.67819 11.8503 7.07148 10.7393 6.58513 9.84865L6.43755 9.57949C6.2894 9.31647 6.35764 8.9845 6.59751 8.8012L8.41561 7.38663C8.99734 6.93083 9.13171 6.10474 8.72438 5.4881L5.48486 0.630409C5.06736 0.0025182 4.22983 -0.185985 3.58356 0.202504L1.55225 1.42271C0.914006 1.79794 0.445747 2.40563 0.245667 3.11845C-0.485802 5.78365 0.064475 10.3834 6.84028 17.16C9.79185 20.1115 12.3295 21.8793 14.4751 22.8791C11.1726 23.6253 7.71006 22.8266 5.06806 20.7093C2.42606 18.5919 0.892306 15.3865 0.901164 12.0008C0.901164 11.7799 0.722128 11.6009 0.501239 11.6009C0.28035 11.6009 0.101314 11.7799 0.101314 12.0008C0.1075 18.5966 5.45172 23.9426 12.0476 23.951C13.2832 23.9514 14.5114 23.7579 15.687 23.3775C16.7477 23.7737 17.8688 23.9839 19.0009 23.999C19.6356 24.0017 20.2679 23.9191 20.8806 23.7535C21.5936 23.5536 22.2014 23.0853 22.5764 22.4469L23.7978 20.4168C24.1869 19.7703 23.9984 18.9323 23.3702 18.5146ZM23.1102 20.0051L21.8916 22.0365C21.6222 22.4981 21.1844 22.8373 20.6702 22.9831C19.5068 23.3031 17.931 23.343 15.9061 22.6132C15.874 22.5952 15.8395 22.5817 15.8037 22.5732C13.564 21.7417 10.7832 19.9696 7.40495 16.5925C0.90196 10.0898 0.341653 5.79086 1.01716 3.33006C1.1632 2.81601 1.50243 2.37831 1.9638 2.10863L3.99511 0.890012C4.27552 0.721287 4.63903 0.803071 4.82018 1.07556L6.57993 3.71756L8.05693 5.93283C8.23381 6.2003 8.17569 6.5588 7.92336 6.75672L6.10483 8.17129C5.55141 8.59446 5.39337 9.36015 5.7341 9.96784L5.8785 10.2302C6.38965 11.1677 7.02513 12.3339 9.34519 14.6536C11.6653 16.9732 12.8311 17.6087 13.7681 18.1198L14.0309 18.2646C14.6385 18.6053 15.4042 18.4473 15.8274 17.8939L17.242 16.0754C17.44 15.8232 17.7983 15.7651 18.0659 15.9418L22.9231 19.1813C23.1957 19.3617 23.2781 19.7246 23.1102 20.0051Z" fill="black"/>
</g>
<defs>
<clipPath id="clip0">
<rect width="24" height="24" fill="white"/>
</clipPath>
</defs>
</svg>
