<svg viewBox="0 0 24 24" fill="none" xmlns="http://www.w3.org/2000/svg">
<path d="M12.0696 3.93097C12.0696 3.71006 11.8905 3.53101 11.6696 3.53101C8.1341 3.53701 4.94365 5.6531 3.56289 8.9079C3.5215 9.00563 3.5207 9.11582 3.56059 9.21416C3.60048 9.3125 3.67787 9.39096 3.77564 9.43226C3.82481 9.45335 3.87773 9.46422 3.93121 9.46427C4.09184 9.46432 4.23696 9.36823 4.29958 9.2203C5.55003 6.25718 8.45339 4.33107 11.6695 4.33102C11.8905 4.33097 12.0696 4.15187 12.0696 3.93097Z" fill="black"/>
<path d="M14.7802 19.7006C14.6486 19.7563 14.5567 19.8781 14.5392 20.0199C14.5216 20.1617 14.5811 20.3022 14.6952 20.3883C14.8092 20.4744 14.9605 20.4931 15.0922 20.4373C18.3511 19.0616 20.4694 15.8681 20.4694 12.3306C20.4694 12.1097 20.2904 11.9307 20.0695 11.9307C19.8486 11.9307 19.6695 12.1097 19.6695 12.3306C19.6639 15.5452 17.7396 18.4457 14.7802 19.7006Z" fill="black"/>
<path d="M15.0698 16.1304C15.2316 16.1303 15.3774 16.0329 15.4393 15.8834C15.5012 15.734 15.467 15.562 15.3526 15.4476L13.6239 13.7189C13.9139 13.3141 14.0699 12.8286 14.0699 12.3306C14.0699 12.1097 13.8909 11.9307 13.67 11.9307C13.449 11.9307 13.27 12.1097 13.27 12.3306C13.27 13.2142 12.5537 13.9305 11.6701 13.9305C10.7865 13.9305 10.0702 13.2142 10.0702 12.3306C10.0702 11.447 10.7865 10.7307 11.6701 10.7307C11.891 10.7307 12.0701 10.5517 12.0701 10.3308V5.93097C12.0701 5.71006 11.891 5.53101 11.6701 5.53101C11.4492 5.53101 11.2701 5.7101 11.2701 5.93097V9.96394C10.2942 10.1257 9.5176 10.8698 9.31413 11.8378C9.11066 12.8059 9.52205 13.7997 10.3502 14.3407C11.1784 14.8817 12.2537 14.859 13.0585 14.2837L14.7872 16.0124C14.8619 16.0876 14.9636 16.1301 15.0698 16.1304Z" fill="black"/>
<path d="M11.8215 11.9624C11.6725 11.8998 11.5005 11.9329 11.3855 12.0464C11.3502 12.0853 11.3218 12.1299 11.3015 12.1784C11.2811 12.2265 11.2702 12.2782 11.2695 12.3304C11.2702 12.3559 11.2729 12.3813 11.2775 12.4064C11.2813 12.4329 11.2894 12.4586 11.3015 12.4824C11.3095 12.5069 11.3217 12.53 11.3375 12.5504C11.3535 12.5744 11.3696 12.5944 11.3855 12.6144C11.4622 12.6874 11.5636 12.7289 11.6695 12.7304C11.7218 12.7298 11.7735 12.7189 11.8215 12.6984C11.87 12.678 11.9146 12.6496 11.9535 12.6144C11.9695 12.5944 11.9855 12.5744 12.0015 12.5504C12.0302 12.5065 12.0504 12.4577 12.0611 12.4064C12.0661 12.3814 12.0689 12.3559 12.0695 12.3304C12.0689 12.2782 12.058 12.2265 12.0375 12.1784C12.0172 12.1299 11.9888 12.0853 11.9535 12.0464C11.9145 12.0112 11.8699 11.9828 11.8215 11.9624Z" fill="black"/>
<path d="M23.9997 12.0003C23.9997 18.6274 18.6274 23.9997 12.0003 23.9997C5.37327 23.9997 0.000976562 18.6274 0.000976562 12.0003C0.000976562 5.37327 5.37327 0.000976562 12.0003 0.000976562C18.6274 0.000976562 23.9997 5.37327 23.9997 12.0003ZM0.815756 12.0003C0.815756 18.1774 5.82326 23.1849 12.0003 23.1849C18.1774 23.1849 23.1849 18.1774 23.1849 12.0003C23.1849 5.82326 18.1774 0.815756 12.0003 0.815756C5.82326 0.815756 0.815756 5.82326 0.815756 12.0003Z" fill="black"/>
</svg>
