<svg viewBox="0 0 131 25" fill="none" xmlns="http://www.w3.org/2000/svg">
<g clip-path="url(#clip0)">
<path d="M18.3335 16.2084C18.3335 17.1251 19.0835 17.8751 20.0002 17.8751C20.9168 17.8751 21.6668 17.1251 21.6668 16.2084C21.6668 15.2917 20.9168 14.5417 20.0002 14.5417C19.0835 14.5417 18.3335 15.2917 18.3335 16.2084ZM20.0002 15.3751C20.4585 15.3751 20.8335 15.7501 20.8335 16.2084C20.8335 16.6667 20.4585 17.0417 20.0002 17.0417C19.5418 17.0417 19.1668 16.6667 19.1668 16.2084C19.1668 15.7501 19.5418 15.3751 20.0002 15.3751Z" fill="url(#paint0_linear)"/>
<path d="M18.3335 16.2084C18.3335 17.1251 19.0835 17.8751 20.0002 17.8751C20.9168 17.8751 21.6668 17.1251 21.6668 16.2084C21.6668 15.2917 20.9168 14.5417 20.0002 14.5417C19.0835 14.5417 18.3335 15.2917 18.3335 16.2084ZM20.0002 15.3751C20.4585 15.3751 20.8335 15.7501 20.8335 16.2084C20.8335 16.6667 20.4585 17.0417 20.0002 17.0417C19.5418 17.0417 19.1668 16.6667 19.1668 16.2084C19.1668 15.7501 19.5418 15.3751 20.0002 15.3751Z" fill="#7287D5"/>
<path d="M18.3335 16.2084C18.3335 17.1251 19.0835 17.8751 20.0002 17.8751C20.9168 17.8751 21.6668 17.1251 21.6668 16.2084C21.6668 15.2917 20.9168 14.5417 20.0002 14.5417C19.0835 14.5417 18.3335 15.2917 18.3335 16.2084ZM20.0002 15.3751C20.4585 15.3751 20.8335 15.7501 20.8335 16.2084C20.8335 16.6667 20.4585 17.0417 20.0002 17.0417C19.5418 17.0417 19.1668 16.6667 19.1668 16.2084C19.1668 15.7501 19.5418 15.3751 20.0002 15.3751Z" stroke="url(#paint1_linear)" stroke-width="0.5"/>
<path d="M18.3335 16.2084C18.3335 17.1251 19.0835 17.8751 20.0002 17.8751C20.9168 17.8751 21.6668 17.1251 21.6668 16.2084C21.6668 15.2917 20.9168 14.5417 20.0002 14.5417C19.0835 14.5417 18.3335 15.2917 18.3335 16.2084ZM20.0002 15.3751C20.4585 15.3751 20.8335 15.7501 20.8335 16.2084C20.8335 16.6667 20.4585 17.0417 20.0002 17.0417C19.5418 17.0417 19.1668 16.6667 19.1668 16.2084C19.1668 15.7501 19.5418 15.3751 20.0002 15.3751Z" stroke="#7287D5" stroke-width="0.5"/>
<path d="M17.875 2.45827L15.625 0.384766C15.4583 0.218099 15.125 0.218099 14.9583 0.384766L14.125 1.0416L13.2917 0.384766C13.125 0.218099 12.7917 0.218099 12.625 0.384766L10.375 2.45827H3.33333C1.5 2.45827 0.290039 3.95827 0.290039 5.7916V21.9583C0.290039 23.5833 1.33333 24.9583 3 24.9583H25V19.1249V13.2916V9.12493V8.2916V2.45827H17.875ZM15.2917 1.0416L16.7083 2.45827L22.5417 8.2916H20.2917L15.625 3.58327C15.4583 3.4166 15.1667 3.4166 15 3.58327L10.2917 8.2916H8.04167L14.7083 1.62493L15.2917 1.0416ZM19.125 8.2916H11.4583L15.2917 4.45827L19.125 8.2916ZM12.9167 1.0416L13.5 1.62493L6.83333 8.2916H5.625L11.4583 2.45827L12.9167 1.0416ZM3.33333 3.2916H9.5L8.625 4.1666C8.5 4.2916 8.54167 4.24993 8.375 4.4166L4.5 8.2916H3.33333C1.95833 8.2916 0.833334 7.1666 0.833334 5.7916C0.833334 4.4166 1.95833 3.2916 3.33333 3.2916ZM24.1667 18.2916H19.5833C18.4167 18.2916 17.5 17.3749 17.5 16.2083C17.5 15.0416 18.4167 14.1249 19.5833 14.1249H24.1667V18.2916ZM0.833334 19.9583V8.5416C0.833334 8.08327 0.833334 8.20827 0.833334 8.08327C0.833334 8.0416 0.916668 8.12493 0.916668 8.08327C0.958334 8.12493 1 8.1666 1.04167 8.20827C1.08333 8.24993 1.125 8.2916 1.16667 8.2916C1.16667 8.33327 1.25 8.37493 1.29167 8.4166C1.33333 8.45827 1.375 8.45827 1.41667 8.49993C1.45833 8.5416 1.5 8.58327 1.58333 8.58327C1.625 8.62493 1.66667 8.62493 1.70833 8.6666C1.75 8.70827 1.79167 8.74993 1.83333 8.74993C1.875 8.7916 1.91667 8.7916 1.95833 8.83327C2 8.87493 2.08333 8.87493 2.125 8.9166C2.16667 8.9166 2.20833 8.95827 2.25 8.95827C2.33333 8.99993 2.375 8.99993 2.45833 8.99993C2.5 8.99993 2.54167 9.0416 2.58333 9.0416C2.66667 9.0416 2.75 9.08327 2.83333 9.08327C2.875 9.08327 2.91667 9.08327 2.95833 9.08327C3.08333 9.08327 3.20833 9.08327 3.33333 9.08327H4.91667H6.08333H7.29167H8.45834H10.5417H20.0417H22.125H23.2917H24.1667V9.9166H23.75C23.5 9.9166 23.3333 10.3333 23.3333 10.3333C23.3333 10.3333 23.5 10.7499 23.75 10.7499H24.1667V13.2499H19.5833C17.9583 13.2499 16.6667 14.5416 16.6667 16.1666C16.6667 17.7916 17.9583 19.0833 19.5833 19.0833H24.1667V22.4166H23.75C23.5 22.4166 23.3333 22.8333 23.3333 22.8333C23.3333 22.8333 23.5 23.2499 23.75 23.2499H24.1667V24.0833H3C1.83333 24.0833 0.833334 23.1249 0.833334 21.9166V20.9999V19.9583ZM20.375 4.9166L19.7083 4.24993L19.5417 4.08327L18.7083 3.24993H24.1667V8.24993H23.7083L20.375 4.9166L20.2917 4.83327L20.375 4.9166Z" fill="url(#paint2_linear)"/>
<path d="M17.875 2.45827L15.625 0.384766C15.4583 0.218099 15.125 0.218099 14.9583 0.384766L14.125 1.0416L13.2917 0.384766C13.125 0.218099 12.7917 0.218099 12.625 0.384766L10.375 2.45827H3.33333C1.5 2.45827 0.290039 3.95827 0.290039 5.7916V21.9583C0.290039 23.5833 1.33333 24.9583 3 24.9583H25V19.1249V13.2916V9.12493V8.2916V2.45827H17.875ZM15.2917 1.0416L16.7083 2.45827L22.5417 8.2916H20.2917L15.625 3.58327C15.4583 3.4166 15.1667 3.4166 15 3.58327L10.2917 8.2916H8.04167L14.7083 1.62493L15.2917 1.0416ZM19.125 8.2916H11.4583L15.2917 4.45827L19.125 8.2916ZM12.9167 1.0416L13.5 1.62493L6.83333 8.2916H5.625L11.4583 2.45827L12.9167 1.0416ZM3.33333 3.2916H9.5L8.625 4.1666C8.5 4.2916 8.54167 4.24993 8.375 4.4166L4.5 8.2916H3.33333C1.95833 8.2916 0.833334 7.1666 0.833334 5.7916C0.833334 4.4166 1.95833 3.2916 3.33333 3.2916ZM24.1667 18.2916H19.5833C18.4167 18.2916 17.5 17.3749 17.5 16.2083C17.5 15.0416 18.4167 14.1249 19.5833 14.1249H24.1667V18.2916ZM0.833334 19.9583V8.5416C0.833334 8.08327 0.833334 8.20827 0.833334 8.08327C0.833334 8.0416 0.916668 8.12493 0.916668 8.08327C0.958334 8.12493 1 8.1666 1.04167 8.20827C1.08333 8.24993 1.125 8.2916 1.16667 8.2916C1.16667 8.33327 1.25 8.37493 1.29167 8.4166C1.33333 8.45827 1.375 8.45827 1.41667 8.49993C1.45833 8.5416 1.5 8.58327 1.58333 8.58327C1.625 8.62493 1.66667 8.62493 1.70833 8.6666C1.75 8.70827 1.79167 8.74993 1.83333 8.74993C1.875 8.7916 1.91667 8.7916 1.95833 8.83327C2 8.87493 2.08333 8.87493 2.125 8.9166C2.16667 8.9166 2.20833 8.95827 2.25 8.95827C2.33333 8.99993 2.375 8.99993 2.45833 8.99993C2.5 8.99993 2.54167 9.0416 2.58333 9.0416C2.66667 9.0416 2.75 9.08327 2.83333 9.08327C2.875 9.08327 2.91667 9.08327 2.95833 9.08327C3.08333 9.08327 3.20833 9.08327 3.33333 9.08327H4.91667H6.08333H7.29167H8.45834H10.5417H20.0417H22.125H23.2917H24.1667V9.9166H23.75C23.5 9.9166 23.3333 10.3333 23.3333 10.3333C23.3333 10.3333 23.5 10.7499 23.75 10.7499H24.1667V13.2499H19.5833C17.9583 13.2499 16.6667 14.5416 16.6667 16.1666C16.6667 17.7916 17.9583 19.0833 19.5833 19.0833H24.1667V22.4166H23.75C23.5 22.4166 23.3333 22.8333 23.3333 22.8333C23.3333 22.8333 23.5 23.2499 23.75 23.2499H24.1667V24.0833H3C1.83333 24.0833 0.833334 23.1249 0.833334 21.9166V20.9999V19.9583ZM20.375 4.9166L19.7083 4.24993L19.5417 4.08327L18.7083 3.24993H24.1667V8.24993H23.7083L20.375 4.9166L20.2917 4.83327L20.375 4.9166Z" fill="#7287D5"/>
<path d="M20.375 4.9166L19.7083 4.24993L19.5417 4.08327L18.7083 3.24993H24.1667V8.24993H23.7083L20.375 4.9166ZM20.375 4.9166L20.2917 4.83327M17.875 2.45827L15.625 0.384766C15.4583 0.218099 15.125 0.218099 14.9583 0.384766L14.125 1.0416L13.2917 0.384766C13.125 0.218099 12.7917 0.218099 12.625 0.384766L10.375 2.45827H3.33333C1.5 2.45827 0.290039 3.95827 0.290039 5.7916V21.9583C0.290039 23.5833 1.33333 24.9583 3 24.9583H25V19.1249V13.2916V9.12493V8.2916V2.45827H17.875ZM15.2917 1.0416L16.7083 2.45827L22.5417 8.2916H20.2917L15.625 3.58327C15.4583 3.4166 15.1667 3.4166 15 3.58327L10.2917 8.2916H8.04167L14.7083 1.62493L15.2917 1.0416ZM19.125 8.2916H11.4583L15.2917 4.45827L19.125 8.2916ZM12.9167 1.0416L13.5 1.62493L6.83333 8.2916H5.625L11.4583 2.45827L12.9167 1.0416ZM3.33333 3.2916H9.5L8.625 4.1666C8.5 4.2916 8.54167 4.24993 8.375 4.4166L4.5 8.2916H3.33333C1.95833 8.2916 0.833334 7.1666 0.833334 5.7916C0.833334 4.4166 1.95833 3.2916 3.33333 3.2916ZM24.1667 18.2916H19.5833C18.4167 18.2916 17.5 17.3749 17.5 16.2083C17.5 15.0416 18.4167 14.1249 19.5833 14.1249H24.1667V18.2916ZM0.833334 19.9583V8.5416C0.833334 8.08327 0.833334 8.20827 0.833334 8.08327C0.833334 8.0416 0.916668 8.12493 0.916668 8.08327C0.958334 8.12493 1 8.1666 1.04167 8.20827C1.08333 8.24993 1.125 8.2916 1.16667 8.2916C1.16667 8.33327 1.25 8.37493 1.29167 8.4166C1.33333 8.45827 1.375 8.45827 1.41667 8.49993C1.45833 8.5416 1.5 8.58327 1.58333 8.58327C1.625 8.62493 1.66667 8.62493 1.70833 8.6666C1.75 8.70827 1.79167 8.74993 1.83333 8.74993C1.875 8.7916 1.91667 8.7916 1.95833 8.83327C2 8.87493 2.08333 8.87493 2.125 8.9166C2.16667 8.9166 2.20833 8.95827 2.25 8.95827C2.33333 8.99993 2.375 8.99993 2.45833 8.99993C2.5 8.99993 2.54167 9.0416 2.58333 9.0416C2.66667 9.0416 2.75 9.08327 2.83333 9.08327C2.875 9.08327 2.91667 9.08327 2.95833 9.08327C3.08333 9.08327 3.20833 9.08327 3.33333 9.08327H4.91667H6.08333H7.29167H8.45834H10.5417H20.0417H22.125H23.2917H24.1667V9.9166H23.75C23.5 9.9166 23.3333 10.3333 23.3333 10.3333C23.3333 10.3333 23.5 10.7499 23.75 10.7499H24.1667V13.2499H19.5833C17.9583 13.2499 16.6667 14.5416 16.6667 16.1666C16.6667 17.7916 17.9583 19.0833 19.5833 19.0833H24.1667V22.4166H23.75C23.5 22.4166 23.3333 22.8333 23.3333 22.8333C23.3333 22.8333 23.5 23.2499 23.75 23.2499H24.1667V24.0833H3C1.83333 24.0833 0.833334 23.1249 0.833334 21.9166V20.9999V19.9583Z" stroke="url(#paint3_linear)" stroke-width="0.5"/>
<path d="M20.375 4.9166L19.7083 4.24993L19.5417 4.08327L18.7083 3.24993H24.1667V8.24993H23.7083L20.375 4.9166ZM20.375 4.9166L20.2917 4.83327M17.875 2.45827L15.625 0.384766C15.4583 0.218099 15.125 0.218099 14.9583 0.384766L14.125 1.0416L13.2917 0.384766C13.125 0.218099 12.7917 0.218099 12.625 0.384766L10.375 2.45827H3.33333C1.5 2.45827 0.290039 3.95827 0.290039 5.7916V21.9583C0.290039 23.5833 1.33333 24.9583 3 24.9583H25V19.1249V13.2916V9.12493V8.2916V2.45827H17.875ZM15.2917 1.0416L16.7083 2.45827L22.5417 8.2916H20.2917L15.625 3.58327C15.4583 3.4166 15.1667 3.4166 15 3.58327L10.2917 8.2916H8.04167L14.7083 1.62493L15.2917 1.0416ZM19.125 8.2916H11.4583L15.2917 4.45827L19.125 8.2916ZM12.9167 1.0416L13.5 1.62493L6.83333 8.2916H5.625L11.4583 2.45827L12.9167 1.0416ZM3.33333 3.2916H9.5L8.625 4.1666C8.5 4.2916 8.54167 4.24993 8.375 4.4166L4.5 8.2916H3.33333C1.95833 8.2916 0.833334 7.1666 0.833334 5.7916C0.833334 4.4166 1.95833 3.2916 3.33333 3.2916ZM24.1667 18.2916H19.5833C18.4167 18.2916 17.5 17.3749 17.5 16.2083C17.5 15.0416 18.4167 14.1249 19.5833 14.1249H24.1667V18.2916ZM0.833334 19.9583V8.5416C0.833334 8.08327 0.833334 8.20827 0.833334 8.08327C0.833334 8.0416 0.916668 8.12493 0.916668 8.08327C0.958334 8.12493 1 8.1666 1.04167 8.20827C1.08333 8.24993 1.125 8.2916 1.16667 8.2916C1.16667 8.33327 1.25 8.37493 1.29167 8.4166C1.33333 8.45827 1.375 8.45827 1.41667 8.49993C1.45833 8.5416 1.5 8.58327 1.58333 8.58327C1.625 8.62493 1.66667 8.62493 1.70833 8.6666C1.75 8.70827 1.79167 8.74993 1.83333 8.74993C1.875 8.7916 1.91667 8.7916 1.95833 8.83327C2 8.87493 2.08333 8.87493 2.125 8.9166C2.16667 8.9166 2.20833 8.95827 2.25 8.95827C2.33333 8.99993 2.375 8.99993 2.45833 8.99993C2.5 8.99993 2.54167 9.0416 2.58333 9.0416C2.66667 9.0416 2.75 9.08327 2.83333 9.08327C2.875 9.08327 2.91667 9.08327 2.95833 9.08327C3.08333 9.08327 3.20833 9.08327 3.33333 9.08327H4.91667H6.08333H7.29167H8.45834H10.5417H20.0417H22.125H23.2917H24.1667V9.9166H23.75C23.5 9.9166 23.3333 10.3333 23.3333 10.3333C23.3333 10.3333 23.5 10.7499 23.75 10.7499H24.1667V13.2499H19.5833C17.9583 13.2499 16.6667 14.5416 16.6667 16.1666C16.6667 17.7916 17.9583 19.0833 19.5833 19.0833H24.1667V22.4166H23.75C23.5 22.4166 23.3333 22.8333 23.3333 22.8333C23.3333 22.8333 23.5 23.2499 23.75 23.2499H24.1667V24.0833H3C1.83333 24.0833 0.833334 23.1249 0.833334 21.9166V20.9999V19.9583Z" stroke="#7287D5" stroke-width="0.5"/>
</g>
<path d="M45.3438 7.96094V18H43.7812V7.96094H40.1406V6.55469H49.1484V7.96094H45.3438ZM59.0859 18L57.7266 10.6484L55.2266 18.1562H54.8359L52.2656 10.6484L50.9375 18H49.4531L51.5938 6.55469H52.3047L55.0312 14.9062L57.5469 6.55469H58.25L60.5703 18H59.0859ZM61.1953 18V17.6875L64.7812 12.1953C65.5312 11.0443 65.9062 10.0677 65.9062 9.26562C65.9062 8.20833 65.3099 7.67969 64.1172 7.67969C63.6953 7.67969 63.2995 7.79167 62.9297 8.01562C62.5599 8.23438 62.2917 8.51302 62.125 8.85156L61.1172 8.02344C61.2943 7.51302 61.6406 7.10677 62.1562 6.80469C62.6771 6.5026 63.3047 6.35156 64.0391 6.35156C65.138 6.35156 65.9974 6.60677 66.6172 7.11719C67.237 7.6224 67.5469 8.33854 67.5469 9.26562C67.5469 10.125 67.1354 11.2083 66.3125 12.5156L63.7422 16.5938H68.2266V18H61.1953ZM83.8438 18.1562H83.3516L80.625 10.2656L78.0781 18.1562H77.5859L73.9766 6.55469H75.6016L77.8984 14.5469L80.4141 6.55469H80.9609L83.4453 14.5312L85.7812 6.55469H87.4062L83.8438 18.1562ZM93.7812 18L92.9922 15.5859H88.7344L87.8906 18H86.1406L90.7891 6.39844H91.2031L95.5156 18H93.7812ZM90.9219 9.39844L89.1484 14.4375H92.5469L90.9219 9.39844ZM96.7188 18V6.55469H98.2812V16.5938H103.453V18H96.7188ZM104.828 18V6.55469H106.391V16.5938H111.562V18H104.828ZM114.5 7.96094V11.1406H118.281V12.4688H114.5V16.5938H119.688V18H112.938V6.55469H119.773V7.96094H114.5ZM125.688 7.96094V18H124.125V7.96094H120.484V6.55469H129.492V7.96094H125.688Z" fill="white"/>
<defs>
<linearGradient id="paint0_linear" x1="20.0002" y1="14.5417" x2="20.0002" y2="17.8751" gradientUnits="userSpaceOnUse">
<stop stop-color="#8380D3"/>
<stop offset="1" stop-color="#109CF1"/>
</linearGradient>
<linearGradient id="paint1_linear" x1="20.0002" y1="14.5417" x2="20.0002" y2="17.8751" gradientUnits="userSpaceOnUse">
<stop offset="0.519337" stop-color="#8380D3"/>
<stop offset="1" stop-color="#109CF1"/>
</linearGradient>
<linearGradient id="paint2_linear" x1="12.501" y1="0.083252" x2="12.501" y2="24.9583" gradientUnits="userSpaceOnUse">
<stop stop-color="#8380D3"/>
<stop offset="1" stop-color="#109CF1"/>
</linearGradient>
<linearGradient id="paint3_linear" x1="12.501" y1="0.083252" x2="12.501" y2="24.9583" gradientUnits="userSpaceOnUse">
<stop offset="0.519337" stop-color="#8380D3"/>
<stop offset="1" stop-color="#109CF1"/>
</linearGradient>
<clipPath id="clip0">
<rect width="25" height="25" fill="white"/>
</clipPath>
</defs>
</svg>
