<svg viewBox="0 0 26 27" fill="none" xmlns="http://www.w3.org/2000/svg">
<g clip-path="url(#clip0)">
<path d="M25.9565 16.3541L25.9604 16.3528L21.6917 7.03877L22.7269 6.52354L22.3395 5.74788L21.3303 6.25054L21.1938 5.95284C21.094 5.73531 20.8368 5.63982 20.6193 5.73954C20.5249 5.78282 20.4493 5.85849 20.406 5.95284L20.2842 6.21891C19.5497 5.87777 18.7497 5.70075 17.9399 5.70021H14.2999V4.83355L14.4217 3.96689L14.7333 2.7202C14.9725 1.76292 14.3904 0.792969 13.4331 0.553717C12.4758 0.314519 11.5059 0.896589 11.2666 1.85387C11.1956 2.13824 11.1956 2.43578 11.2666 2.72015L11.5782 3.96684L11.7 4.8335V5.70016H8.06215C7.2515 5.70081 6.45071 5.87826 5.71567 6.22015L5.59391 5.95409C5.49419 5.73656 5.23695 5.64106 5.01942 5.74078C4.92506 5.78406 4.84939 5.85973 4.80611 5.95409L4.66961 6.25179L3.66039 5.74696L3.27299 6.52348L4.30822 7.04088L0.0394845 16.3528C0.0131598 16.4094 -0.000273462 16.4711 5.15356e-05 16.5335C0.00194735 18.2079 1.35892 19.5649 3.03336 19.5668H7.36666C9.0411 19.5649 10.3981 18.2079 10.4 16.5335C10.3989 16.4712 10.3841 16.41 10.3566 16.3541L6.0762 7.00497C6.69841 6.71615 7.37619 6.56665 8.06215 6.56687H11.7V22.4207L10.2206 23.9001H8.66665C7.47066 23.9015 6.50141 24.8707 6.5 26.0667C6.5 26.306 6.69402 26.5 6.93333 26.5H19.0666C19.3059 26.5 19.4999 26.306 19.4999 26.0667C19.4985 24.8707 18.5292 23.9015 17.3332 23.9001H15.7793L14.2999 22.4207V6.56687H17.9399C18.6259 6.56665 19.3036 6.71615 19.9259 7.00497L15.6394 16.3528C15.613 16.4094 15.5996 16.4711 15.5999 16.5335C15.6018 18.2079 16.9588 19.5649 18.6332 19.5668H22.9665C24.641 19.5649 25.9979 18.2079 25.9998 16.5335C25.9988 16.4712 25.984 16.41 25.9565 16.3541ZM7.36666 18.7001H3.03336C2.00409 18.699 1.11723 17.975 0.910044 16.9668H9.48997C9.28284 17.975 8.39592 18.699 7.36666 18.7001ZM9.29151 16.1001H1.10851L5.08908 7.41576C5.16177 7.43526 5.23825 7.43526 5.31094 7.41576L9.29151 16.1001ZM12.275 1.72051C12.6124 1.32011 13.2106 1.26914 13.611 1.6066C13.6521 1.64127 13.6902 1.6794 13.7249 1.72051C13.9002 1.94346 13.9621 2.23509 13.8926 2.51004L13.5282 3.96689H12.4717L12.1073 2.51004C12.0378 2.23509 12.0998 1.94346 12.275 1.72051ZM12.5666 5.70021V4.83355H13.4333V5.70021H12.5666ZM13.4333 6.56687V22.1667H12.5666V6.56687H13.4333ZM17.3332 24.7667C17.884 24.7674 18.3748 25.1144 18.5591 25.6334H7.44076C7.62508 25.1144 8.11588 24.7674 8.66665 24.7667H17.3332ZM14.5539 23.9001H11.446L12.3127 23.0334H13.6872L14.5539 23.9001ZM20.6881 7.41706C20.7596 7.44225 20.8381 7.439 20.9073 7.40796L24.8914 16.1001H16.7084L20.6881 7.41706ZM22.9665 18.7001H18.6332C17.604 18.699 16.7171 17.975 16.5099 16.9668H25.0898C24.8827 17.975 23.9958 18.699 22.9665 18.7001Z" fill="white"/>
</g>
<defs>
<clipPath id="clip0">
<rect width="26" height="26" fill="white" transform="translate(0 0.5)"/>
</clipPath>
</defs>
</svg>
