<svg viewBox="0 0 20 20" fill="none" xmlns="http://www.w3.org/2000/svg">
<path d="M10.0002 7.0968C9.10952 7.0968 8.38734 7.81899 8.38734 8.70971C8.38734 9.60043 9.10952 10.3226 10.0002 10.3226C10.891 10.3226 11.6131 9.60043 11.6131 8.70971C11.612 7.8193 10.8906 7.0979 10.0002 7.0968ZM10.0002 9.67745C9.46581 9.67745 9.0325 9.24414 9.0325 8.70971C9.0325 8.17527 9.46581 7.74196 10.0002 7.74196C10.5347 7.74196 10.968 8.17527 10.968 8.70971C10.968 9.24414 10.5347 9.67745 10.0002 9.67745Z" fill="#1890FF" stroke="#1890FF" stroke-width="0.3"/>
<path d="M4.98803 7.0968C4.09731 7.0968 3.37513 7.81899 3.37513 8.70971C3.37513 9.60043 4.09731 10.3226 4.98803 10.3226C5.87875 10.3226 6.60094 9.60043 6.60094 8.70971C6.59983 7.8193 5.87844 7.0979 4.98803 7.0968ZM4.98803 9.67745C4.4536 9.67745 4.02029 9.24414 4.02029 8.70971C4.02029 8.17527 4.4536 7.74196 4.98803 7.74196C5.52246 7.74196 5.95577 8.17527 5.95577 8.70971C5.95577 9.24414 5.52246 9.67745 4.98803 9.67745Z" fill="#1890FF" stroke="#1890FF" stroke-width="0.3"/>
<path d="M15.012 7.0968C14.1212 7.0968 13.3991 7.81899 13.3991 8.70971C13.3991 9.60043 14.1212 10.3226 15.012 10.3226C15.9027 10.3226 16.6249 9.60043 16.6249 8.70971C16.6238 7.8193 15.9024 7.0979 15.012 7.0968ZM15.012 9.67745C14.4775 9.67745 14.0442 9.24414 14.0442 8.70971C14.0442 8.17527 14.4775 7.74196 15.012 7.74196C15.5464 7.74196 15.9797 8.17527 15.9797 8.70971C15.9797 9.24414 15.5464 9.67745 15.012 9.67745Z" fill="#1890FF" stroke="#1890FF" stroke-width="0.3"/>
<path d="M16.3209 2.25806H3.68929C1.77173 2.26042 0.217912 3.84765 0.215599 5.80644V11.6129C0.217912 13.5717 1.77173 15.1589 3.68929 15.1613V17.4193C3.68929 17.5498 3.76623 17.6674 3.88419 17.7174C4.00215 17.7673 4.138 17.7396 4.22835 17.6474L6.66216 15.1613H16.3209C18.2385 15.1589 19.7923 13.5717 19.7946 11.6129V5.80644C19.7923 3.84765 18.2385 2.26042 16.3209 2.25806ZM19.163 11.6129C19.1613 13.2156 17.8898 14.5144 16.3209 14.5161H6.5314C6.44768 14.5161 6.36734 14.5501 6.30813 14.6106L4.32087 16.6406V14.8387C4.32087 14.6606 4.17948 14.5161 4.00508 14.5161H3.68929C2.12036 14.5144 0.848876 13.2156 0.847179 11.6129V5.80644C0.848876 4.20378 2.12036 2.90495 3.68929 2.90322H16.3209C17.8898 2.90495 19.1613 4.20378 19.163 5.80644V11.6129Z" fill="#1890FF" stroke="#1890FF" stroke-width="0.4"/>
</svg>
