<svg viewBox="0 0 30 30" fill="none" xmlns="http://www.w3.org/2000/svg">
<path d="M11.1302 11C10.1418 11 9.33765 11.8041 9.33765 12.7926C9.33765 13.781 10.1418 14.5851 11.1302 14.5851C12.1186 14.5851 12.9228 13.781 12.9228 12.7926C12.9228 11.8041 12.1186 11 11.1302 11ZM11.1302 13.7062C10.6264 13.7062 10.2166 13.2964 10.2166 12.7926C10.2166 12.2888 10.6264 11.879 11.1302 11.879C11.6339 11.879 12.0438 12.2888 12.0438 12.7926C12.0438 13.2963 11.6339 13.7062 11.1302 13.7062Z" fill="#1890FF"/>
<path d="M15.7155 11C14.7271 11 13.9229 11.8041 13.9229 12.7926C13.9229 13.781 14.7271 14.5851 15.7155 14.5851C16.7039 14.5851 17.508 13.781 17.508 12.7926C17.508 11.8041 16.7039 11 15.7155 11ZM15.7155 13.7062C15.2116 13.7062 14.8018 13.2964 14.8018 12.7926C14.8018 12.2888 15.2117 11.879 15.7155 11.879C16.2193 11.879 16.6291 12.2888 16.6291 12.7926C16.6291 13.2964 16.2192 13.7062 15.7155 13.7062Z" fill="#1890FF"/>
<path d="M6.545 11C5.55658 11 4.75244 11.8041 4.75244 12.7926C4.75244 13.781 5.55658 14.5851 6.545 14.5851C7.53342 14.5851 8.33756 13.781 8.33756 12.7926C8.33756 11.8041 7.53336 11 6.545 11ZM6.545 13.7062C6.04121 13.7062 5.63141 13.2964 5.63141 12.7926C5.63141 12.2888 6.04127 11.879 6.545 11.879C7.04873 11.879 7.4586 12.2888 7.4586 12.7926C7.4586 13.2964 7.04873 13.7062 6.545 13.7062Z" fill="#1890FF"/>
<path d="M11.1302 15.8098C10.1418 15.8098 9.33765 16.614 9.33765 17.6024C9.33765 18.5908 10.1418 19.3949 11.1302 19.3949C12.1186 19.3949 12.9228 18.5908 12.9228 17.6024C12.9228 16.614 12.1186 15.8098 11.1302 15.8098ZM11.1302 18.516C10.6264 18.516 10.2166 18.1062 10.2166 17.6024C10.2166 17.0986 10.6264 16.6888 11.1302 16.6888C11.6339 16.6888 12.0438 17.0986 12.0438 17.6024C12.0438 18.1062 11.6339 18.516 11.1302 18.516Z" fill="#1890FF"/>
<path d="M6.545 15.8098C5.55658 15.8098 4.75244 16.614 4.75244 17.6024C4.75244 18.5908 5.55658 19.3949 6.545 19.3949C7.53342 19.3949 8.33756 18.5908 8.33756 17.6024C8.3375 16.614 7.53336 15.8098 6.545 15.8098ZM6.545 18.516C6.04121 18.516 5.63141 18.1062 5.63141 17.6024C5.63141 17.0986 6.04127 16.6888 6.545 16.6888C7.04873 16.6888 7.4586 17.0986 7.4586 17.6024C7.45854 18.1062 7.04873 18.516 6.545 18.516Z" fill="#1890FF"/>
<path d="M15.7155 15.8098C14.7271 15.8098 13.9229 16.614 13.9229 17.6024C13.9229 18.5908 14.7271 19.3949 15.7155 19.3949C16.7039 19.3949 17.508 18.5908 17.508 17.6024C17.508 16.614 16.7039 15.8098 15.7155 15.8098ZM15.7155 18.516C15.2116 18.516 14.8018 18.1062 14.8018 17.6024C14.8018 17.0986 15.2117 16.6888 15.7155 16.6888C16.2193 16.6888 16.6291 17.0986 16.6291 17.6024C16.6291 18.1062 16.2192 18.516 15.7155 18.516Z" fill="#1890FF"/>
<path d="M6.54501 20.8098C5.55659 20.8098 4.75244 21.614 4.75244 22.6024C4.75244 23.5909 5.55659 24.395 6.54501 24.395C7.53343 24.395 8.33757 23.5909 8.33757 22.6024C8.33757 21.614 7.53343 20.8098 6.54501 20.8098ZM6.54501 23.516C6.04116 23.516 5.63135 23.1062 5.63135 22.6024C5.63141 22.0986 6.04122 21.6887 6.54501 21.6887C7.0488 21.6887 7.45861 22.0985 7.45861 22.6024C7.45861 23.1062 7.04874 23.516 6.54501 23.516Z" fill="#1890FF"/>
<path d="M11.1302 20.8098C10.1418 20.8098 9.33765 21.614 9.33765 22.6024C9.33765 23.5909 10.1418 24.395 11.1302 24.395C12.1186 24.395 12.9228 23.5909 12.9228 22.6024C12.9228 21.614 12.1186 20.8098 11.1302 20.8098ZM11.1302 23.516C10.6264 23.516 10.2166 23.1062 10.2166 22.6024C10.2166 22.0986 10.6264 21.6887 11.1302 21.6887C11.6339 21.6887 12.0438 22.0985 12.0438 22.6024C12.0437 23.1062 11.6339 23.516 11.1302 23.516Z" fill="#1890FF"/>
<path d="M21.3555 12.7927L22.0016 12.1467C22.1732 11.9751 22.1732 11.6969 22.0015 11.5252C21.83 11.3536 21.5517 11.3535 21.38 11.5252L20.734 12.1712L20.088 11.5252C19.9164 11.3536 19.6381 11.3535 19.4665 11.5252C19.2948 11.6969 19.2948 11.9751 19.4665 12.1467L20.1125 12.7927L19.4665 13.4388C19.2947 13.6104 19.2947 13.8886 19.4664 14.0603C19.5522 14.1461 19.6647 14.189 19.7771 14.189C19.8896 14.189 20.0021 14.1461 20.0879 14.0602L20.7339 13.4142L21.3799 14.0602C21.4657 14.1461 21.5782 14.189 21.6907 14.189C21.8031 14.189 21.9156 14.1461 22.0014 14.0603C22.1731 13.8886 22.1731 13.6104 22.0015 13.4388L21.3555 12.7927Z" fill="#1890FF"/>
<path d="M21.3555 17.3777L22.0016 16.7316C22.1732 16.56 22.1732 16.2818 22.0015 16.1101C21.83 15.9386 21.5517 15.9385 21.38 16.1102L20.734 16.7562L20.088 16.1102C19.9164 15.9385 19.6381 15.9386 19.4665 16.1101C19.2948 16.2818 19.2948 16.56 19.4665 16.7316L20.1125 17.3777L19.4665 18.0237C19.2947 18.1953 19.2947 18.4735 19.4664 18.6452C19.5522 18.731 19.6647 18.7739 19.7771 18.7739C19.8896 18.7739 20.0021 18.731 20.0879 18.6452L20.7339 17.9992L21.3799 18.6452C21.4657 18.731 21.5782 18.7739 21.6907 18.7739C21.8031 18.7739 21.9156 18.731 22.0014 18.6452C22.1731 18.4736 22.1731 18.1954 22.0015 18.0237L21.3555 17.3777Z" fill="#1890FF"/>
<path d="M29.9747 24.6812L28.3864 16.3229L28.0367 16.8368L27.5229 16.4871L29.1112 24.8454C29.1782 25.1984 28.8802 25.5317 28.4742 25.5317H21.9708L26.189 21.3136C26.2662 21.2364 26.3177 21.1236 26.3177 21.0028V10.1445L27.5229 16.4871L28.0367 16.8368L28.3864 16.3229L26.3148 5.42117C26.285 4.77259 25.7496 4.2538 25.0938 4.2538H21.2425V2.8407C21.2425 2.59794 21.0458 2.40125 20.803 2.40125C20.5603 2.40125 20.3636 2.59794 20.3636 2.8407V4.25375H17.4204V2.8407C17.4204 2.59794 17.2237 2.40125 16.9809 2.40125C16.7382 2.40125 16.5415 2.59794 16.5415 2.8407V4.25375H13.5983V2.8407C13.5983 2.59794 13.4016 2.40125 13.1588 2.40125C12.9161 2.40125 12.7194 2.59794 12.7194 2.8407V4.25375H9.77619V2.8407C9.77619 2.59794 9.57949 2.40125 9.33674 2.40125C9.09398 2.40125 8.89729 2.59794 8.89729 2.8407V4.25375H5.95412V2.8407C5.95412 2.59794 5.75742 2.40125 5.51467 2.40125C5.27191 2.40125 5.07521 2.59794 5.07521 2.8407V4.25375H1.22385C0.549023 4.2538 0 4.80277 0 5.47765V26.3749C0 27.0497 0.549023 27.5987 1.22385 27.5987H15C15.2428 27.5987 15.4395 27.402 15.4395 27.1592C15.4395 26.9165 15.2428 26.7198 15 26.7198H1.22385C1.03371 26.7198 0.878965 26.5651 0.878965 26.3749V9.95978H25.4388V20.5631H20.506C19.8312 20.5631 19.2822 21.1122 19.2822 21.787V26.7197H14.1843C13.9415 26.7197 13.7448 26.9164 13.7448 27.1592C13.7448 27.4019 13.9415 27.5986 14.1843 27.5986H19.7217C19.835 27.5986 19.9487 27.5537 20.0324 27.4699L21.0918 26.4106H28.4742C29.4287 26.4106 30.1455 25.5796 29.9747 24.6812ZM0.878965 9.08082V5.47765C0.878965 5.28751 1.03371 5.13277 1.22385 5.13277H5.07521V7.10679C5.07521 7.34955 5.27191 7.54625 5.51467 7.54625C5.75742 7.54625 5.95412 7.34955 5.95412 7.10679V5.13277H8.89729V7.10679C8.89729 7.34955 9.09398 7.54625 9.33674 7.54625C9.57949 7.54625 9.77619 7.34955 9.77619 7.10679V5.13277H12.7194V7.10679C12.7194 7.34955 12.9161 7.54625 13.1588 7.54625C13.4016 7.54625 13.5983 7.34955 13.5983 7.10679V5.13277H16.5415V7.10679C16.5415 7.34955 16.7382 7.54625 16.9809 7.54625C17.2237 7.54625 17.4204 7.34955 17.4204 7.10679V5.13277H20.3636V7.10679C20.3636 7.34955 20.5603 7.54625 20.803 7.54625C21.0458 7.54625 21.2425 7.34955 21.2425 7.10679V5.13277H25.0938C25.284 5.13277 25.4387 5.28751 25.4387 5.47765V9.08087L0.878965 9.08082ZM20.1611 26.0982V21.787C20.1611 21.5969 20.3158 21.4422 20.5059 21.4422H24.8171C24.3774 21.882 20.6018 25.6575 20.1611 26.0982Z" fill="#1890FF"/>
</svg>
