<svg viewBox="0 0 26 27" fill="none" xmlns="http://www.w3.org/2000/svg">
<path d="M25.4356 12.3343C25.9474 11.8356 26.128 11.1036 25.9073 10.4231C25.686 9.74266 25.1097 9.25692 24.4016 9.15383L18.1062 8.2391C17.8381 8.20005 17.6064 8.03189 17.4867 7.78876L14.6722 2.08427C14.3562 1.44338 13.7148 1.0451 13 1.0451C12.2857 1.0451 11.6442 1.44338 11.3282 2.08427L8.51321 7.78876C8.39346 8.03189 8.16127 8.20005 7.89314 8.2391L1.59775 9.15436C0.890221 9.25692 0.31389 9.74266 0.0926242 10.4231C-0.128121 11.1036 0.0525361 11.8356 0.56431 12.3343L5.11926 16.7742C5.31345 16.9637 5.40247 17.2365 5.35666 17.5031L4.28157 23.773C4.16079 24.4774 4.44453 25.1755 5.02294 25.5962C5.60083 26.0174 6.35314 26.0721 6.98674 25.7383L12.6168 22.7781C12.8568 22.6521 13.1431 22.6521 13.3831 22.7781L19.0137 25.7383C19.2886 25.8831 19.5864 25.9544 19.8826 25.9544C20.2674 25.9544 20.6505 25.8341 20.9775 25.5962C21.5559 25.1755 21.8396 24.4774 21.7189 23.773L20.6432 17.5036C20.5974 17.2365 20.6865 16.9642 20.8806 16.7747L25.4356 12.3343ZM19.6176 17.6796L20.6927 23.9489C20.7468 24.2644 20.6245 24.5659 20.3652 24.7544C20.1054 24.9423 19.7821 24.9652 19.4984 24.8173L13.8678 21.8566C13.5966 21.7144 13.2977 21.6426 13 21.6426C12.7022 21.6426 12.4038 21.7144 12.1321 21.8571L6.50256 24.8173C6.21777 24.9652 5.89447 24.9423 5.63519 24.7544C5.37592 24.5659 5.2541 24.265 5.30772 23.9489L6.38281 17.6796C6.48642 17.0746 6.28597 16.4572 5.84657 16.0292L1.2911 11.5888C1.06151 11.3649 0.983413 11.0494 1.08285 10.7449C1.18177 10.4398 1.43011 10.2305 1.74717 10.1842L8.04204 9.26941C8.64961 9.18143 9.17492 8.80033 9.44617 8.24951L12.2612 2.54502C12.4028 2.25764 12.6792 2.08635 12.9994 2.08635C13.3201 2.08635 13.5961 2.25764 13.7382 2.54502L16.5532 8.24951C16.8245 8.80033 17.3493 9.18143 17.9568 9.26941L24.2522 10.1842C24.5693 10.2305 24.8176 10.4398 24.9165 10.7449C25.0154 11.0494 24.9379 11.3649 24.7083 11.5888L20.1533 16.0287C19.7139 16.4572 19.5135 17.0741 19.6176 17.6796Z" fill="white"/>
</svg>
