<svg viewBox="0 0 26 27" fill="none" xmlns="http://www.w3.org/2000/svg">
<g clip-path="url(#clip0)">
<path d="M7.09827 16.8801C5.23504 16.8801 3.71875 15.3638 3.71875 13.5C3.71875 11.6362 5.23445 10.1199 7.09827 10.1199C8.9621 10.1199 10.4778 11.6362 10.4778 13.5C10.4778 15.3638 8.9615 16.8801 7.09827 16.8801ZM7.09827 10.7156C5.56294 10.7156 4.31384 11.9647 4.31384 13.5006C4.31384 15.0365 5.56294 16.2856 7.09827 16.2856C8.63361 16.2856 9.8827 15.0365 9.8827 13.5006C9.8827 11.9647 8.63361 10.7156 7.09827 10.7156Z" fill="white" stroke="white" stroke-width="0.3"/>
<path d="M7.21501 26.2032C7.27154 26.2711 7.35485 26.3098 7.44293 26.3098C7.53041 26.3098 7.61431 26.2711 7.67144 26.2038C7.88994 25.9424 12.1433 20.5317 14.0296 16.5465L13.1667 16.9498C11.4735 20.2001 8.2745 24.5198 7.44293 25.5433C6.2462 24.0716 0.761839 17.1424 0.761839 13.8271C0.761839 10.1423 3.75872 7.14487 7.44293 7.14487C7.79794 7.14487 8.14657 7.17271 8.48675 7.22632L8.76474 6.67009C8.33599 6.59107 7.89419 6.54977 7.44293 6.54977C3.43082 6.54977 0.166748 9.81444 0.166748 13.8271C0.166748 17.744 6.92698 25.8599 7.21501 26.2032Z" fill="white" stroke="white" stroke-width="0.3"/>
<path d="M25.5135 8.28263C25.8615 7.94348 25.9844 7.44572 25.8343 6.98301C25.6838 6.5203 25.2919 6.18999 24.8104 6.11989L20.5296 5.49787C20.3472 5.47132 20.1897 5.35697 20.1083 5.19164L18.1944 1.31259C17.9795 0.876786 17.5434 0.605957 17.0573 0.605957C16.5716 0.605957 16.1354 0.876786 15.9205 1.31259L14.0063 5.19164C13.9249 5.35697 13.767 5.47132 13.5847 5.49787L9.30379 6.12025C8.82267 6.18999 8.43076 6.5203 8.2803 6.98301C8.1302 7.44572 8.25304 7.94348 8.60105 8.28263L11.6984 11.3018C11.8305 11.4306 11.891 11.6161 11.8598 11.7974L11.1288 16.0609C11.0467 16.5399 11.2396 17.0147 11.6329 17.3007C12.0259 17.5871 12.5375 17.6243 12.9683 17.3974L16.7967 15.3844C16.9599 15.2987 17.1546 15.2987 17.3179 15.3844L21.1466 17.3974C21.3336 17.4958 21.5361 17.5443 21.7375 17.5443C21.9991 17.5443 22.2597 17.4625 22.482 17.3007C22.8753 17.0147 23.0683 16.5399 22.9861 16.0609L22.2547 11.7977C22.2236 11.6161 22.2841 11.431 22.4162 11.3021L25.5135 8.28263ZM21.5573 11.9174L22.2884 16.1806C22.3252 16.3951 22.242 16.6001 22.0657 16.7282C21.889 16.8561 21.6692 16.8716 21.4762 16.7711L17.6474 14.7577C17.463 14.6611 17.2598 14.6122 17.0573 14.6122C16.8548 14.6122 16.6519 14.6611 16.4671 14.7581L12.6391 16.7711C12.4454 16.8716 12.2256 16.8561 12.0493 16.7282C11.8729 16.6001 11.7901 16.3955 11.8266 16.1806L12.5576 11.9174C12.6281 11.506 12.4918 11.0862 12.193 10.7951L9.09527 7.77567C8.93914 7.62344 8.88604 7.4089 8.95366 7.20179C9.02092 6.99433 9.18979 6.85202 9.4054 6.82051L13.6859 6.19849C14.0991 6.13866 14.4563 5.87951 14.6407 5.50495L16.5549 1.6259C16.6512 1.43048 16.8392 1.31401 17.0569 1.31401C17.275 1.31401 17.4626 1.43048 17.5593 1.6259L19.4735 5.50495C19.658 5.87951 20.0148 6.13866 20.428 6.19849L24.7088 6.82051C24.9244 6.85202 25.0933 6.99433 25.1606 7.20179C25.2278 7.4089 25.1751 7.62344 25.019 7.77567L21.9216 10.7948C21.6228 11.0862 21.4865 11.5057 21.5573 11.9174Z" fill="white" stroke="white" stroke-width="0.2"/>
</g>
<defs>
<clipPath id="clip0">
<rect width="26" height="26" fill="white" transform="translate(0 0.5)"/>
</clipPath>
</defs>
</svg>
