<svg id="Слой_1" data-name="Слой 1" xmlns="http://www.w3.org/2000/svg" viewBox="0 0 102.34 112.2"><defs><style>.cls-1,.cls-3{fill:#fff;}.cls-2{fill:none;stroke:#fff;}.cls-2,.cls-3{stroke-miterlimit:10;}.cls-3{stroke:#000;}</style></defs><title>logo DV</title><g id="Слой_1-2" data-name="Слой 1"><path class="cls-1" d="M48.6,51.4c.4.4,1.2,1.1,1.9,1a2.62,2.62,0,0,0,.9-.5,5.12,5.12,0,0,1,2.7-.9,8.83,8.83,0,0,1,5.1,1.4c1.4-.2,2.7-.3,4.1-.5-.9.3-1.3.5-1.3.6s.6.1,1.8,0a40.17,40.17,0,0,1-4.4.7l-.1.1a4.72,4.72,0,0,1-2.6,2.2,8.36,8.36,0,0,1-6,.6,11.61,11.61,0,0,1-4-2.9c-1-1-.8-1-1.5-1.6a8.72,8.72,0,0,0-5.4-2,8.59,8.59,0,0,0-4.5,1.9,13,13,0,0,0-5.1,5.8,11.94,11.94,0,0,0-.9,4.8c0,.8.1,6.4,4.3,9.9,2.8,2.4,6.1,2.7,9.7,3.1,2.4.3,2.5-.1,5.6.2,3.8.4,5.9.6,7.9,2.1a7.93,7.93,0,0,1,3.7,5.2,6.7,6.7,0,0,1-.7,4,12.12,12.12,0,0,1-4.9,5.6,18.43,18.43,0,0,0-4.7,3.3,4,4,0,0,0-.8,1.5,2.72,2.72,0,0,0,.6,2.3c1.3,1.1,4.2-.2,5.2-1.4l.3-.3a5.66,5.66,0,0,1-1.1,2.7,5.46,5.46,0,0,1-4.6,2.1c-3.3-.5-5.3-5.6-4.1-8.8a8,8,0,0,1,3.7-3.8c3-1.9,4.7-1.2,6.1-3a4.62,4.62,0,0,0,.7-4.4c-1-2.6-5.2-3.3-7.6-3.6-.8-.1-1.3-.1-1.8-.2-2-.1-7.9-.6-11.7-2A18.63,18.63,0,0,1,26.6,70c-.8-1.2-4.3-6.9-2.2-13.5a15.39,15.39,0,0,1,6.8-8.3c1.6-1,4.5-2.8,8.1-2.3a9.74,9.74,0,0,1,5.8,2.5A22.52,22.52,0,0,1,48.6,51.4Z" transform="translate(0.03)"/><path class="cls-1" d="M34.4,59.7c0-.1,15.5-.1,37-.1-5.8,7.8-11.2,9.3-14.3,9.5h-.6l-2.4,37.5c4.9,1.9,9.8,3.7,14.7,5.6H36.9c4.9-1.9,9.8-3.8,14.7-5.6L49.2,69.1a25.49,25.49,0,0,1-8.1-3,28.81,28.81,0,0,1-6.5-6.2l-.1-.1A.1.1,0,0,1,34.4,59.7Z" transform="translate(0.03)"/><path class="cls-2" d="M25.1,39.9c2.5-8.4,5.9-14.2,10.6-17.7C52.6,9.9,76.5,19,79.5,39.4c.8,5.4.1,11.4-3.7,18.8" transform="translate(0.03)"/><polygon class="cls-1" points="21.53 12.1 22.43 11.1 31.53 21 30.53 22 21.53 12.1"/><polygon class="cls-1" points="30.73 12.8 31.73 12.2 35.03 16.8 34.03 17.5 30.73 12.8"/><polygon class="cls-1" points="34.13 3.4 35.33 2.8 41.43 15.2 40.23 15.8 34.13 3.4"/><polygon class="cls-1" points="43.53 7.7 44.83 7.4 46.63 13.8 45.43 14.1 43.53 7.7"/><polygon class="cls-1" points="51.53 0 52.83 0 52.43 13 51.13 13 51.53 0"/><polygon class="cls-1" points="58.43 7.7 59.73 7.8 58.93 13.4 57.63 13.2 58.43 7.7"/><polygon class="cls-1" points="63.43 14.8 64.63 15.5 70.53 4.2 69.33 3.5 63.43 14.8"/><polygon class="cls-1" points="68.93 17.2 72.43 12.7 73.53 13.6 70.13 18.1 68.93 17.2"/><polygon class="cls-1" points="73.73 21.5 82.83 13 83.83 14.1 74.73 22.6 73.73 21.5"/><polygon class="cls-1" points="81.63 35.3 87.23 34.4 87.43 35.8 81.93 36.7 81.63 35.3"/><polygon class="cls-1" points="82.63 43.4 96.43 43.7 96.43 45 82.63 44.7 82.63 43.4"/><polygon class="cls-1" points="82.33 49.6 90.13 51.5 89.73 52.8 82.03 50.9 82.33 49.6"/><polygon class="cls-1" points="80.63 55.1 93.43 59.7 92.93 60.9 80.13 56.3 80.63 55.1"/><path class="cls-3" d="M56.7,47.9" transform="translate(0.03)"/><path class="cls-1" d="M102.3,18.5c-.6.1-13.9,5.3-22.6,9.6-1.5.8-8.7,4.3-13.3,7.1-.1,0-.1.2-.2.1-5.2-2.3-13.7-4-13.7-4s-12.6-1.7-26.2-2.1A178.86,178.86,0,0,0,0,30.6c-.5.1,5.4.2,24.4,2.1a145.14,145.14,0,0,1,19.8,3.2,47.13,47.13,0,0,1,15.6,6.7c3.2,2.2,5,4.2,5.8,6.7a24.61,24.61,0,0,1,.7,5.2c.2-.8,1-3.3,2-6.3a31.72,31.72,0,0,1,6.5-11.1c4-5,8.5-7.7,17.3-12.9A94.39,94.39,0,0,1,102.3,18.5Zm-25.9,14c-1,1.4-3.4,3.3-5.3,6.3C69,42.2,67.2,46,67.2,46l.1-9.5s2.4-1,3.9-1.7a55.67,55.67,0,0,0,5-2.7C76.4,31.9,76.5,32.4,76.4,32.5Z" transform="translate(0.03)"/></g></svg>