<svg xmlns="http://www.w3.org/2000/svg" viewBox="0 0 33 40">
    <path fill="#00A098" fill-rule="evenodd" d="M17.956 12H8.998c-.829 0-1.5-.67-1.5-1.5S8.169 9 8.998 9h8.958c.829 0 1.5.67 1.5 1.5s-.671 1.5-1.5 1.5zm5.924 6.29H8.998c-.829 0-1.5-.68-1.5-1.5 0-.83.671-1.5 1.5-1.5H23.88a1.5 1.5 0 1 1 0 3zm.072 6.28H9.07a1.5 1.5 0 1 1 0-3h14.882c.829 0 1.5.67 1.5 1.5s-.671 1.5-1.5 1.5zm-.072 6.29H8.998c-.829 0-1.5-.68-1.5-1.5 0-.83.671-1.5 1.5-1.5H23.88a1.5 1.5 0 1 1 0 3zM4.063 3.04c-.271 0-.5.23-.5.5V36.1c0 .27.229.5.5.5H28.96c.271 0 .5-.23.5-.5V3.54c0-.27-.229-.5-.5-.5H4.063zM28.96 39.6H4.063c-1.93 0-3.5-1.57-3.5-3.5V3.54c0-1.93 1.57-3.5 3.5-3.5H28.96c1.93 0 3.5 1.57 3.5 3.5V36.1c0 1.93-1.57 3.5-3.5 3.5z"/>
</svg>
