<svg xmlns="http://www.w3.org/2000/svg" xmlns:xlink="http://www.w3.org/1999/xlink" viewBox="0 0 296 106">
    <defs>
        <path id="a" d="M0 109h302V0H0z"/>
    </defs>
    <g fill="none" fill-rule="evenodd" transform="translate(-3)">
        <path fill="#00A098" d="M46 54c.244-.27 42-36 42-36V0S46.244 35.73 46 36v18z"/>
        <path fill="#FFF" d="M115 59.272a6.158 6.158 0 0 1-2.184 4.766c-.707.606-1.563 1.085-2.57 1.436-1.006.351-2.152.526-3.437.526-1.177 0-2.355-.127-3.532-.383A14.502 14.502 0 0 1 100 64.502l1.06-3.986c.749.362 1.596.675 2.538.941.941.266 1.96.398 3.05.398.901 0 1.64-.165 2.217-.494.579-.33.868-.865.868-1.61 0-.531-.252-1.015-.755-1.45-.504-.436-1.419-.898-2.746-1.387-2.1-.787-3.63-1.685-4.593-2.695-.965-1.009-1.446-2.3-1.446-3.874 0-2.061.68-3.635 2.04-4.718C103.59 44.542 105.47 44 107.868 44c1.22 0 2.388.134 3.501.4 1.114.266 2.057.61 2.828 1.035l-.9 3.922c-.75-.361-1.57-.654-2.457-.877a11.235 11.235 0 0 0-2.747-.335c-.792 0-1.428.134-1.91.4-.483.266-.723.717-.723 1.354 0 .298.043.553.128.765.086.213.241.414.466.606.225.19.54.383.948.574.406.192.92.415 1.54.669.901.362 1.747.745 2.539 1.148a9.207 9.207 0 0 1 2.055 1.403 6.077 6.077 0 0 1 1.365 1.817c.332.681.498 1.478.498 2.391M127.088 57.37V65h-5.176v-7.63L115 44h5.524l3.976 8.83 3.977-8.83H134zM151 59.272a6.153 6.153 0 0 1-2.184 4.766c-.707.606-1.563 1.085-2.57 1.436-1.006.351-2.152.526-3.437.526-1.178 0-2.355-.127-3.532-.383A14.492 14.492 0 0 1 136 64.502l1.06-3.986c.749.362 1.596.675 2.538.941.941.266 1.959.398 3.05.398.901 0 1.64-.165 2.217-.494.58-.33.868-.865.868-1.61 0-.531-.252-1.015-.756-1.45-.503-.436-1.418-.898-2.746-1.387-2.099-.787-3.629-1.685-4.592-2.695-.965-1.009-1.446-2.3-1.446-3.874 0-2.061.68-3.635 2.039-4.718 1.36-1.085 3.239-1.627 5.637-1.627 1.22 0 2.388.134 3.502.4 1.113.266 2.056.61 2.827 1.035l-.9 3.922c-.75-.361-1.57-.654-2.457-.877a11.24 11.24 0 0 0-2.747-.335c-.792 0-1.429.134-1.91.4-.483.266-.724.717-.724 1.354 0 .298.044.553.128.765.087.213.242.414.467.606.225.19.54.383.948.574.406.192.92.415 1.54.669.901.362 1.747.745 2.539 1.148a9.218 9.218 0 0 1 2.056 1.403 6.082 6.082 0 0 1 1.364 1.817c.332.681.498 1.478.498 2.391M168 44v4.099h-5.83V65h-5.34V48.099H151V44zM171 44h12.906v4.099h-7.805v4.225h7.434v4.1H176.1V60.9H184V65h-13zM202.032 61.658h-5.064l-4.167-8.42L192.16 65H187l1.603-21h4.743l6.154 12.834L205.653 44h4.745L212 65h-5.16l-.641-11.761zM101 82h12.906v4.1h-7.805v4.224h7.433v4.1h-7.433V98.9H114V103h-13zM131.188 103l-8.376-12.518V103H118V82h4.812l8.376 12.518V82H136v21zM151.493 81c2.723 0 5.005.434 6.848 1.298l-.692 3.932a15.031 15.031 0 0 0-5.652-1.085c-1.048 0-1.99.139-2.826.415a5.491 5.491 0 0 0-2.153 1.29c-.596.586-1.057 1.33-1.381 2.232-.325.905-.487 1.983-.487 3.237 0 2.21.57 3.879 1.711 5.005 1.141 1.128 2.822 1.69 5.042 1.69.481 0 .941-.037 1.38-.111a6.34 6.34 0 0 0 1.1-.27v-5.93H159v8.754c-.9.45-2.047.82-3.439 1.108a21.34 21.34 0 0 1-4.35.435c-1.758 0-3.329-.26-4.71-.781-1.383-.52-2.555-1.25-3.518-2.185a9.416 9.416 0 0 1-2.214-3.362c-.513-1.308-.769-2.758-.769-4.353 0-1.7.256-3.247.77-4.639.512-1.392 1.26-2.583 2.245-3.57.984-.989 2.187-1.755 3.611-2.297 1.424-.542 3.047-.813 4.867-.813"/>
        <mask id="b" fill="#fff">
            <use xlink:href="#a"/>
        </mask>
        <path fill="#FFF" d="M163 103h5V82h-5zM185.188 103l-8.376-12.518V103H172V82h4.812l8.376 12.518V82H190v21zM195 82h12.906v4.1h-7.805v4.224h7.433v4.1h-7.433V98.9H208V103h-13zM212 82h12.906v4.1H217.1v4.224h7.433v4.1h-7.433V98.9H225V103h-13zM238.695 88.749c0-.948-.363-1.646-1.09-2.098-.724-.452-1.74-.678-3.045-.678h-1.461v5.897h1.243c1.367 0 2.435-.273 3.202-.82.766-.546 1.15-1.313 1.15-2.301m4.913-.096c0 1.41-.39 2.638-1.167 3.69-.776 1.051-1.86 1.85-3.248 2.396L246 103h-6.279l-5.69-7.284h-.932V103H228V82h6.592c1.283 0 2.475.137 3.574.41 1.098.273 2.052.683 2.86 1.23a5.906 5.906 0 0 1 1.896 2.065c.456.83.685 1.813.685 2.948M249 103h5V82h-5zM271.188 103l-8.376-12.518V103H258V82h4.812l8.376 12.518V82H276v21zM291.494 81c2.722 0 5.004.434 6.847 1.298l-.692 3.932a15.032 15.032 0 0 0-5.652-1.085c-1.048 0-1.99.139-2.827.415a5.493 5.493 0 0 0-2.152 1.29c-.596.586-1.056 1.33-1.38 2.232-.325.905-.488 1.983-.488 3.237 0 2.21.57 3.879 1.712 5.005 1.14 1.128 2.82 1.69 5.04 1.69.483 0 .943-.037 1.382-.111.44-.074.806-.165 1.099-.27v-5.93H299v8.754c-.9.45-2.047.82-3.438 1.108a21.34 21.34 0 0 1-4.35.435c-1.76 0-3.33-.26-4.711-.781-1.383-.52-2.555-1.25-3.518-2.185a9.416 9.416 0 0 1-2.214-3.362c-.513-1.308-.769-2.758-.769-4.353 0-1.7.256-3.247.77-4.639.512-1.392 1.261-2.583 2.245-3.57.984-.989 2.188-1.755 3.61-2.297 1.425-.542 3.047-.813 4.869-.813M73 89.615H56.377v-9.392h15.641v-8.6H56.377V62.76h6.555c2.285-1.958 9.871-8.599 9.871-8.599h-27.16v13.694c-2.042-1.811-4.382-3.424-7.028-4.807a118.861 118.861 0 0 0-8.551-4.073c-2.24-.983-4.085-1.866-5.538-2.66-1.452-.784-2.626-1.58-3.522-2.374-.895-.784-1.512-1.634-1.846-2.54-.338-.904-.502-1.953-.502-3.167 0-2.638 1.005-4.57 3.02-5.818 2.01-1.247 4.658-1.865 7.94-1.865 2.982 0 5.909.397 8.775 1.181.045.012.088.027.133.04 1.9-1.633 5.914-5.064 10.714-9.164-3.042-1.58-6.19-2.743-9.449-3.471C36.437 28.387 32.745 28 28.72 28c-7.83 0-14.072 1.865-18.73 5.596C5.326 37.328 3 42.66 3 49.592c0 2.792.464 5.298 1.398 7.517.928 2.23 2.25 4.239 3.97 6.05 1.71 1.81 3.839 3.444 6.373 4.911 2.534 1.469 5.439 2.882 8.72 4.24 4.626 1.887 8.055 3.698 10.294 5.43 2.234 1.734 3.353 3.952 3.353 6.668 0 2.936-1.174 5.177-3.522 6.723-2.348 1.545-5.39 2.318-9.114 2.318a38.73 38.73 0 0 1-9.584-1.204C12.8 94.03 8.43 97.765 3.794 101.73a48.197 48.197 0 0 0 9.21 2.967A55.658 55.658 0 0 0 24.92 106c4.172 0 7.972-.563 11.407-1.7 3.424-1.126 6.351-2.705 8.776-4.747.511-.428.992-.877 1.456-1.34H73v-8.598z" mask="url(#b)"/>
    </g>
</svg>
