<svg xmlns="http://www.w3.org/2000/svg" viewBox="0 0 17 17">
    <path fill="#00A098" fill-rule="evenodd" d="M11.006 6.148l-3.92 3.774-1.068-1.19a.666.666 0 0 0-.923-.06.626.626 0 0 0-.061.899l1.525 1.7a.66.66 0 0 0 .493.218.663.663 0 0 0 .459-.184l4.413-4.25a.627.627 0 0 0 .006-.902.666.666 0 0 0-.924-.005M8.427 15.42c-3.906 0-7.083-3.098-7.083-6.906S4.52 1.607 8.427 1.607s7.084 3.099 7.084 6.907-3.178 6.906-7.084 6.906zm0-15.088C3.8.332.037 4.002.037 8.514c0 4.51 3.763 8.18 8.39 8.18 4.627 0 8.391-3.67 8.391-8.18 0-4.511-3.764-8.182-8.39-8.182z"/>
</svg>
