<svg viewBox="0 0 50 50" fill="none" xmlns="http://www.w3.org/2000/svg">
<path d="M49.2188 15.625C49.2188 13.0398 47.1164 10.9375 44.5312 10.9375H44.2078L40.625 14.5203L39.8438 13.7391L35.1562 18.4266V10.9375C35.1562 9.05078 33.8117 7.47266 32.0312 7.11016V0.78125H4.6875C2.53359 0.78125 0.78125 2.53359 0.78125 4.6875V45.3125C0.78125 47.4664 2.53359 49.2188 4.6875 49.2188H35.1562V31.5734L44.0734 22.6562H44.4367C44.9195 22.6562 45.3125 23.0492 45.3125 23.532C45.3125 23.7664 45.2211 23.9859 45.0563 24.1516L37.5 31.7078C37.195 32.0129 37.195 32.5074 37.5 32.8125C37.805 33.1175 38.2996 33.1175 38.6047 32.8125L46.1609 25.2562C46.6211 24.7961 46.875 24.1836 46.875 23.532C46.875 22.5391 46.2766 21.6867 45.4234 21.3062L46.4172 20.3125L45.6359 19.5312L49.2188 15.9484V15.625ZM44.2078 20.3125L35.1562 29.3641L30.7922 25L39.8438 15.9484L44.2078 20.3125ZM22.6562 41.8641L18.2922 37.5L29.6875 26.1047L34.0516 30.4688L22.6562 41.8641ZM17.6414 39.0586L21.0977 42.5148L16.6539 43.5023L17.6414 39.0586ZM33.5938 10.9375V19.9891L27.3438 26.2391L9.69844 8.59375H31.25C32.5422 8.59375 33.5938 9.64531 33.5938 10.9375ZM4.6875 2.34375H30.4688V7.03125H4.6875C3.39531 7.03125 2.34375 5.97969 2.34375 4.6875C2.34375 3.39531 3.39531 2.34375 4.6875 2.34375ZM2.34375 45.3125V7.79219C2.99844 8.28828 3.80469 8.59375 4.6875 8.59375H7.03125V47.6562H4.6875C3.39531 47.6562 2.34375 46.6047 2.34375 45.3125ZM33.5938 47.6562H8.59375V9.69844L26.2391 27.3438L16.4742 37.1086L14.5961 45.5602L23.0477 43.682L33.5938 33.1359V47.6562ZM44.5312 18.4266L41.7297 15.625L44.8398 12.5148C46.3172 12.6602 47.4953 13.8391 47.6406 15.3156L44.5312 18.4266Z" fill="#404040"/>
<path d="M30.2734 23.3398V8.59375H8.49609V15.625L23.2422 30.3711L30.2734 23.3398Z" fill="#FFD503"/>
<path d="M35.1495 25.0012C34.8445 24.6961 34.8445 24.2016 35.1495 23.8965L38.7741 20.272C39.0791 19.9669 39.5737 19.9669 39.8788 20.272C40.1838 20.577 40.1838 21.0716 39.8788 21.3766L36.2542 25.0012C35.9492 25.3062 35.4546 25.3062 35.1495 25.0012Z" fill="#FFD503"/>
<path d="M3.90625 10.9375C3.90625 10.506 4.25603 10.1562 4.6875 10.1562C5.11897 10.1562 5.46875 10.506 5.46875 10.9375C5.46875 11.369 5.11897 11.7188 4.6875 11.7188C4.25603 11.7188 3.90625 11.369 3.90625 10.9375Z" fill="#404040"/>
<path d="M3.90625 14.0625C3.90625 13.631 4.25603 13.2812 4.6875 13.2812C5.11897 13.2812 5.46875 13.631 5.46875 14.0625C5.46875 14.494 5.11897 14.8438 4.6875 14.8438C4.25603 14.8438 3.90625 14.494 3.90625 14.0625Z" fill="#404040"/>
<path d="M3.90625 17.1875C3.90625 16.756 4.25603 16.4062 4.6875 16.4062C5.11897 16.4062 5.46875 16.756 5.46875 17.1875C5.46875 17.619 5.11897 17.9688 4.6875 17.9688C4.25603 17.9688 3.90625 17.619 3.90625 17.1875Z" fill="#404040"/>
<path d="M3.90625 4.6875C3.90625 4.25603 4.25603 3.90625 4.6875 3.90625H18.75C19.1815 3.90625 19.5312 4.25603 19.5312 4.6875C19.5312 5.11897 19.1815 5.46875 18.75 5.46875H4.6875C4.25603 5.46875 3.90625 5.11897 3.90625 4.6875Z" fill="#404040"/>
<path d="M24.8047 45.3125C24.8047 44.881 25.1545 44.5312 25.5859 44.5312H31.25C31.6815 44.5312 32.0312 44.881 32.0312 45.3125C32.0312 45.744 31.6815 46.0938 31.25 46.0938H25.5859C25.1545 46.0938 24.8047 45.744 24.8047 45.3125Z" fill="#FFD503"/>
<path d="M13.1012 31.8678C12.7823 31.5714 12.3699 31.4091 11.9323 31.4091C10.9845 31.4091 10.2135 32.1801 10.2135 33.1278L10.2135 35.6253L15.9874 35.6253L15.9873 33.1278C15.9877 32.6686 15.809 32.2369 15.4842 31.9121C15.1594 31.5874 14.7275 31.4086 14.2685 31.4089C13.8185 31.409 13.4076 31.5831 13.1012 31.8678ZM14.8862 33.1278L14.8862 34.5241L11.3147 34.5241L11.3147 33.1278C11.3155 32.7874 11.592 32.511 11.9323 32.5102C12.0974 32.5102 12.2524 32.5741 12.3692 32.6909C12.486 32.8077 12.5499 32.9627 12.5498 33.1278L12.5498 34.296H13.6509L13.6509 33.1278C13.6517 32.7874 13.9282 32.511 14.2685 32.5102C14.4336 32.5102 14.5886 32.5741 14.7054 32.6909C14.8222 32.8077 14.8861 32.9627 14.8862 33.1278Z" fill="#404040"/>
<path d="M10.2135 15.6053L10.2135 16.9347L15.9874 16.9347L15.9874 15.6053C15.9874 14.8343 15.6871 14.1089 15.142 13.5638C14.5969 13.0187 13.8715 12.7184 13.1005 12.7184C11.5083 12.7188 10.2139 14.0131 10.2135 15.6053ZM14.8863 15.6053L14.8863 15.8334L11.3148 15.8334L11.3148 15.6053C11.3148 14.6209 12.1162 13.8196 13.1005 13.8196C13.5775 13.82 14.0261 14.0053 14.3633 14.3425C14.7005 14.6798 14.8858 15.1283 14.8863 15.6053Z" fill="#404040"/>
<path d="M15.9875 29.8516L11.315 29.8516L11.315 28.4553C11.3158 28.115 11.5922 27.8385 11.9325 27.8377C12.0977 27.8377 12.2526 27.9016 12.3694 28.0184C12.4863 28.1352 12.5501 28.2902 12.55 28.4553L12.55 29.6235L13.6512 29.6235L13.6512 28.4958L15.9875 27.9117L15.9875 26.7763L13.3159 27.4441C13.2637 27.3733 13.2112 27.3027 13.1477 27.2393C12.823 26.9145 12.3911 26.7358 11.932 26.7361C10.9843 26.7361 10.2133 27.5071 10.2133 28.4549L10.2137 30.9527L15.9875 30.9527L15.9875 29.8516Z" fill="#404040"/>
<path d="M15.9875 25.1788L13.6511 25.1788L13.6511 23.165L15.9875 23.165L15.9875 22.0639L10.2136 22.0639L10.2136 26.2801L15.9875 26.2801L15.9875 25.1788ZM11.3148 25.1789L11.3148 23.1651L12.5499 23.1651L12.5499 25.1789L11.3148 25.1789Z" fill="#404040"/>
<path d="M15.9875 17.3911L10.2136 17.3911L10.2137 18.4923L13.6181 18.4927L10.2137 20.7617L10.2136 21.6074L15.9875 21.6074L15.9875 20.5063L12.5827 20.5063L15.9875 18.237L15.9875 17.3911Z" fill="#404040"/>
</svg>
