<svg viewBox="0 0 63 63" fill="none" xmlns="http://www.w3.org/2000/svg">
<g clip-path="url(#clip0)">
<path d="M59.9967 36.9015H59.0539V28.4094C59.0539 27.065 58.3848 25.8746 57.3629 25.1514V23.9951C57.3629 22.3178 55.9984 20.9534 54.3211 20.9534H53.6172L56.3106 17.0011C57.2134 15.6764 56.87 13.864 55.5453 12.9611L37.2691 0.506303C36.6274 0.068871 35.8539 -0.0925665 35.0905 0.0522597C34.3275 0.19684 33.6664 0.629842 33.229 1.27165L17.4543 24.4196H13.0646L14.1237 13.6985C14.1356 13.5777 14.2141 13.473 14.3236 13.4318C15.6881 12.9173 16.8706 11.9566 17.6532 10.7266C17.7148 10.6297 17.8311 10.5744 17.9514 10.5865L24.8365 11.2668C25.3302 11.3146 25.7693 10.9551 25.8181 10.4617C25.8668 9.96824 25.5064 9.52884 25.013 9.48011L18.1279 8.79991C17.3287 8.72165 16.5665 9.08993 16.1383 9.76275C15.563 10.6671 14.6935 11.3734 13.6903 11.7517C12.9352 12.0364 12.4167 12.7146 12.3369 13.522L11.2605 24.4195H10.1158L11.7907 7.46313C11.851 6.85281 12.3957 6.40443 13.0068 6.46558L26.9202 7.84002C27.4136 7.88764 27.853 7.52834 27.9017 7.03492C27.9505 6.5415 27.5901 6.1021 27.0966 6.05338L13.1832 4.67894C11.5881 4.52157 10.1616 5.69113 10.0039 7.28655L8.65388 20.9534H6.35475C4.67762 20.9534 3.31303 22.3178 3.31303 23.9951V24.7838C1.94093 25.4155 0.985596 26.8025 0.985596 28.4094V59.0105C0.985596 61.2106 2.77544 63.0005 4.97564 63.0005H55.064C57.264 63.0005 59.0539 61.2106 59.0539 59.0105V50.5186H59.9967C61.1095 50.5186 62.0148 49.6133 62.0148 48.5006V38.9196C62.0149 37.8067 61.1095 36.9015 59.9967 36.9015ZM54.3211 22.7489C55.0085 22.7487 55.5675 23.3079 55.5675 23.9952V24.4526C55.4023 24.4317 55.2346 24.4197 55.064 24.4197H51.2551L52.3936 22.7489H54.3211ZM34.7126 2.28261C34.88 2.03713 35.1328 1.87151 35.4247 1.81614C35.4945 1.80297 35.5645 1.79633 35.634 1.79633C35.8551 1.79633 36.0712 1.86253 36.258 1.98976L54.5342 14.4446C55.041 14.79 55.1724 15.4832 54.8271 15.9899L49.0825 24.4194H47.7039L50.5203 20.2866C50.9771 19.6163 51.0147 18.7634 50.6183 18.0604C50.0914 17.1265 49.8778 16.0268 50.0168 14.9638C50.1202 14.173 49.7722 13.401 49.1087 12.9489L39.6344 6.49241C38.9708 6.04021 38.125 5.99874 37.4268 6.38425C36.4886 6.90228 35.3869 7.10567 34.325 6.95703C33.5375 6.84654 32.7388 7.20214 32.2888 7.86229L21.0056 24.4195H19.627L34.7126 2.28261ZM35.108 24.366C31.1987 24.366 27.7281 24.4195 27.7281 24.4195H23.178L33.7722 8.87337C33.8323 8.7849 33.9323 8.73223 34.0348 8.73223C34.0484 8.73223 34.0621 8.73322 34.0757 8.73506C35.5201 8.9371 37.0182 8.66074 38.2944 7.95605C38.3948 7.90043 38.5238 7.90843 38.6232 7.97611L48.0977 14.4327C48.1968 14.5004 48.2514 14.6176 48.2366 14.7313C48.0475 16.1769 48.3381 17.6724 49.0546 18.9425C49.1121 19.0445 49.1051 19.1752 49.0369 19.2755L45.5315 24.4194H42.4882C42.4882 24.4194 39.0175 24.366 35.108 24.366ZM40.6879 24.4196H29.5282L35.108 24.366L40.6879 24.4196ZM5.10841 23.9951C5.10841 23.3077 5.66741 22.7486 6.35475 22.7486H8.47657L8.31156 24.4195H5.10841V23.9951ZM2.78097 28.4094C2.78097 27.1993 3.76547 26.2149 4.97564 26.2149H55.064C56.2741 26.2149 57.2585 27.1993 57.2585 28.4094V30.9004H2.78097V28.4094ZM57.2585 59.0105C57.2585 60.2206 56.2741 61.2051 55.064 61.2051H4.97564C3.76547 61.2051 2.78097 60.2206 2.78097 59.0105V56.5196H17.6188C18.1147 56.5196 18.5165 56.1177 18.5165 55.6219C18.5165 55.1262 18.1146 54.7243 17.6188 54.7243H2.78097V32.6957H57.2585V36.9015H48.7232C46.0339 36.9015 43.7043 38.4691 42.5987 40.7382C42.595 40.7458 42.5908 40.7532 42.587 40.7608C42.5777 40.7802 42.5695 40.8002 42.5604 40.8197C42.4288 41.0993 42.3143 41.3889 42.2212 41.6876L42.2205 41.6901C42.0217 42.3286 41.9146 43.0069 41.9146 43.71C41.9146 47.4643 44.9688 50.5186 48.723 50.5186H57.2584V54.7243H13.3699C12.874 54.7243 12.4723 55.1262 12.4723 55.6219C12.4723 56.1177 12.8741 56.5196 13.3699 56.5196H57.2585V59.0105ZM60.2195 48.5005C60.2195 48.6233 60.1196 48.7232 59.9967 48.7232H48.7234C46.8229 48.7232 45.166 47.6602 44.3161 46.0976C44.2774 46.0266 44.2405 45.9545 44.2052 45.8816C44.1347 45.7355 44.0711 45.5855 44.0149 45.4319C43.8177 44.8947 43.7102 44.3147 43.7102 43.71C43.7102 43.1054 43.8179 42.5253 44.0149 41.9881C44.0712 41.8347 44.1348 41.6847 44.2052 41.5385C44.2405 41.4655 44.2774 41.3934 44.3161 41.3224C45.166 39.7599 46.8229 38.6968 48.7234 38.6968H59.9967C60.1195 38.6968 60.2195 38.7968 60.2195 38.9196V48.5005Z" fill="#434343"/>
<path d="M48.9334 40.0674C46.9251 40.0674 45.2913 41.7013 45.2913 43.7096C45.2913 45.7178 46.9251 47.3516 48.9334 47.3516C50.9418 47.3516 52.5756 45.7178 52.5756 43.7096C52.5756 41.7013 50.9418 40.0674 48.9334 40.0674ZM48.9334 45.5563C47.9151 45.5563 47.0866 44.7278 47.0866 43.7096C47.0866 42.6914 47.9151 41.8628 48.9334 41.8628C49.9518 41.8628 50.7803 42.6912 50.7803 43.7096C50.7803 44.7279 49.9518 45.5563 48.9334 45.5563Z" fill="#434343"/>
</g>
<defs>
<clipPath id="clip0">
<rect width="63" height="63" fill="white"/>
</clipPath>
</defs>
</svg>
