<svg viewBox="0 0 63 64" fill="none" xmlns="http://www.w3.org/2000/svg">
<g clip-path="url(#clip0)">
<path d="M45.1501 26.8926C35.292 26.8926 27.3001 34.8969 27.3001 44.7703C27.3001 54.6437 35.292 62.648 45.1501 62.648C55.0082 62.648 63.0001 54.6437 63.0001 44.7703C62.9893 34.9015 55.0036 26.9034 45.1501 26.8926ZM45.1501 60.5447C36.4517 60.5447 29.4001 53.4822 29.4001 44.7703C29.4001 36.0584 36.4517 28.9958 45.1501 28.9958C53.8485 28.9958 60.9001 36.0584 60.9001 44.7703C60.8904 53.4781 53.8444 60.535 45.1501 60.5447Z" fill="#434343"/>
<path d="M46.2 41.809V36.3557C46.2 35.7758 45.7299 35.3057 45.15 35.3057C44.5701 35.3057 44.1 35.7758 44.1 36.3557V41.809C43.2105 42.1269 42.5106 42.8278 42.1933 43.7187H38.8516C38.2708 43.7187 37.8 44.1895 37.8 44.7703C37.8 45.3511 38.2708 45.822 38.8516 45.822H42.1933C42.6788 47.2063 44.0554 48.0711 45.5114 47.9062C46.9675 47.7409 48.1159 46.5907 48.281 45.1324C48.4456 43.674 47.5822 42.2953 46.2 41.809ZM45.15 45.822C44.5701 45.822 44.1 45.3511 44.1 44.7703C44.1 44.1896 44.5701 43.7187 45.15 43.7187C45.7298 43.7187 46.2 44.1896 46.2 44.7703C46.2 45.3511 45.7298 45.822 45.15 45.822Z" fill="#434343"/>
<path d="M2.1 46.8739V16.3766H50.4V25.8413H52.5V11.1185C52.4964 8.21571 50.1483 5.86392 47.25 5.86033H39.9V4.8087C39.9 3.06642 38.4896 1.65381 36.75 1.65381C35.0104 1.65381 33.6 3.06642 33.6 4.8087V5.86033H18.9V4.8087C18.9 3.06642 17.4896 1.65381 15.75 1.65381C14.0104 1.65381 12.6 3.06642 12.6 4.8087V5.86033H5.25C2.35173 5.86392 0.00358887 8.21571 0 11.1185V46.8739C0.00358887 49.7766 2.35173 52.1284 5.25 52.132H26.25V50.0288H5.25C3.51042 50.0288 2.1 48.6162 2.1 46.8739ZM35.7 4.8087C35.7 4.22794 36.1701 3.75707 36.75 3.75707C37.3299 3.75707 37.8 4.22794 37.8 4.8087V9.01522C37.8 9.59597 37.3299 10.0668 36.75 10.0668C36.1701 10.0668 35.7 9.59597 35.7 9.01522V4.8087ZM14.7 4.8087C14.7 4.22794 15.1701 3.75707 15.75 3.75707C16.3299 3.75707 16.8 4.22794 16.8 4.8087V9.01522C16.8 9.59597 16.3299 10.0668 15.75 10.0668C15.1701 10.0668 14.7 9.59597 14.7 9.01522V4.8087ZM5.25 7.96359H12.6V9.01522C12.6 10.7575 14.0104 12.1701 15.75 12.1701C17.4896 12.1701 18.9 10.7575 18.9 9.01522V7.96359H33.6V9.01522C33.6 10.7575 35.0104 12.1701 36.75 12.1701C38.4896 12.1701 39.9 10.7575 39.9 9.01522V7.96359H47.25C48.9896 7.96359 50.4 9.3762 50.4 11.1185V14.2734H2.1V11.1185C2.1 9.3762 3.51042 7.96359 5.25 7.96359Z" fill="#434343"/>
<path d="M14.7 24.7893C14.7 23.6278 13.7597 22.686 12.6 22.686H8.39999C7.24027 22.686 6.29999 23.6278 6.29999 24.7893V28.9958C6.29999 30.1573 7.24027 31.0991 8.39999 31.0991H12.6C13.7597 31.0991 14.7 30.1573 14.7 28.9958V24.7893ZM8.39999 28.9958V24.7893H12.6V28.9958H8.39999Z" fill="#434343"/>
<path d="M25.1999 24.7893C25.1999 23.6278 24.2596 22.686 23.0999 22.686H18.8999C17.7402 22.686 16.7999 23.6278 16.7999 24.7893V28.9958C16.7999 30.1573 17.7402 31.0991 18.8999 31.0991H23.0999C24.2596 31.0991 25.1999 30.1573 25.1999 28.9958V24.7893ZM18.8999 28.9958V24.7893H23.0999V28.9958H18.8999Z" fill="#434343"/>
<path d="M35.7001 27.9442V24.7893C35.7001 23.6278 34.7598 22.686 33.6001 22.686H29.4001C28.2404 22.686 27.3001 23.6278 27.3001 24.7893V28.9958C27.3001 30.1573 28.2404 31.0991 29.4001 31.0991H31.5001V28.9958H29.4001V24.7893H33.6001V27.9442H35.7001Z" fill="#434343"/>
<path d="M12.6 35.3057H8.39999C7.24027 35.3057 6.29999 36.2474 6.29999 37.4089V41.6154C6.29999 42.777 7.24027 43.7187 8.39999 43.7187H12.6C13.7597 43.7187 14.7 42.777 14.7 41.6154V37.4089C14.7 36.2474 13.7597 35.3057 12.6 35.3057ZM8.39999 41.6154V37.4089H12.6V41.6154H8.39999Z" fill="#434343"/>
<path d="M23.0999 35.3057H18.8999C17.7402 35.3057 16.7999 36.2474 16.7999 37.4089V41.6154C16.7999 42.777 17.7402 43.7187 18.8999 43.7187H23.0999C24.2596 43.7187 25.1999 42.777 25.1999 41.6154V37.4089C25.1999 36.2474 24.2596 35.3057 23.0999 35.3057ZM18.8999 41.6154V37.4089H23.0999V41.6154H18.8999Z" fill="#434343"/>
<path d="M46.2 25.8409V24.7893C46.2 23.6278 45.2597 22.686 44.1 22.686H39.9C38.7403 22.686 37.8 23.6278 37.8 24.7893V25.8409H39.9V24.7893H44.1V25.8409H46.2Z" fill="#434343"/>
</g>
<defs>
<clipPath id="clip0">
<rect width="63" height="63.0978" fill="white" transform="translate(0 0.602051)"/>
</clipPath>
</defs>
</svg>
