<svg viewBox="0 0 91 80" fill="none" xmlns="http://www.w3.org/2000/svg">
<path d="M37.7317 57.7072C37.2693 60.7172 36.5295 63.5861 35.5122 66.3139C34.4949 68.9477 33.2464 71.2992 31.7668 73.3686C30.2871 75.438 28.6687 77.0841 26.9116 78.3069C25.247 79.4356 23.5361 80 21.779 80C18.4497 80 15.0279 79.4827 11.5137 78.448C8.09197 77.4133 5.41006 75.6731 3.46799 73.2275C2.91311 72.381 2.35823 71.3933 1.80335 70.2646C1.24848 69.1358 0.832317 67.7719 0.554878 66.1728C0.277439 64.5738 0.0924797 62.6455 0 60.388C0 58.1305 0.231199 55.4968 0.693598 52.4868C1.24848 48.1599 2.12703 43.9741 3.32927 39.9295C4.5315 35.8848 6.3811 31.746 8.87805 27.5132C11.4675 23.2804 14.843 18.9536 19.0046 14.5326C23.2586 10.0176 28.6687 5.17343 35.2348 0L42.4482 10.2998C34.31 16.5079 28.4837 22.0106 24.9695 26.8078C21.5478 31.5109 19.6057 35.6496 19.1433 39.224C18.9583 40.9171 19.467 42.234 20.6692 43.1746C21.8714 44.1152 23.4436 44.8677 25.3857 45.4321C29.4548 46.4668 32.5991 48.1129 34.8186 50.3704C37.1306 52.5338 38.1016 54.9794 37.7317 57.7072ZM86.2835 57.7072C85.8211 60.7172 85.0813 63.5861 84.064 66.3139C83.0467 68.9477 81.7983 71.2992 80.3186 73.3686C78.8389 75.438 77.2205 77.0841 75.4634 78.3069C73.7988 79.4356 72.0879 80 70.3308 80C67.0015 80 63.5798 79.4827 60.0655 78.448C56.6438 77.4133 53.9619 75.6731 52.0198 73.2275C51.4649 72.381 50.9101 71.3933 50.3552 70.2646C49.8003 69.1358 49.3841 67.7719 49.1067 66.1728C48.8293 64.5738 48.6443 62.6455 48.5518 60.388C48.5518 58.1305 48.783 55.4968 49.2454 52.4868C49.8003 48.1599 50.6789 43.9741 51.8811 39.9295C53.0833 35.8848 54.9329 31.746 57.4299 27.5132C60.0193 23.2804 63.3948 18.9536 67.5564 14.5326C71.8105 10.0176 77.2205 5.17343 83.7866 0L91 10.2998C82.8618 16.5079 77.0356 22.0106 73.5213 26.8078C70.0996 31.5109 68.1575 35.6496 67.6951 39.224C67.5102 40.9171 68.0188 42.234 69.221 43.1746C70.4233 44.1152 71.9954 44.8677 73.9375 45.4321C78.0066 46.4668 81.1509 48.1129 83.3704 50.3704C85.6824 52.5338 86.6535 54.9794 86.2835 57.7072Z" fill="#FFD503"/>
</svg>
