<svg viewBox="0 0 63 63" fill="none" xmlns="http://www.w3.org/2000/svg">
<path d="M62.6398 29.3997L49.957 16.7106V9.10547C49.957 7.74851 48.8531 6.64453 47.4961 6.64453H45.0352V1.23047C45.0352 0.551004 44.4842 0 43.8047 0H36.1348C35.4553 0 34.9043 0.551004 34.9043 1.23047C34.9043 1.90993 35.4553 2.46094 36.1348 2.46094H42.5742V6.64453H20.4258V2.46094H38C38.6795 2.46094 39.2305 1.90993 39.2305 1.23047C39.2305 0.551004 38.6795 0 38 0L19.1953 0C18.5158 0 17.9648 0.551004 17.9648 1.23047V6.64453H15.5039C14.1469 6.64453 13.043 7.74851 13.043 9.10547V53.8945H10.3359C9.65647 53.8945 9.10547 54.4455 9.10547 55.125V60.5391H2.46094V32.7305H14C14.6795 32.7305 15.2305 32.1795 15.2305 31.5C15.2305 30.8205 14.6795 30.2695 14 30.2695H1.23047C0.551004 30.2695 0 30.8205 0 31.5V61.7695C0 62.449 0.551004 63 1.23047 63H61.7695C62.449 63 63 62.449 63 61.7695V30.2695C63 29.9433 62.8704 29.6304 62.6398 29.3997ZM38.4727 9.10547H47.4961V18.457H38.4727V9.10547ZM38.4727 20.918H47.4961V30.2695H38.4727V20.918ZM38.4727 32.7305H47.4961V42.082H38.4727V32.7305ZM38.4727 44.543H47.4961V53.8945H38.4727V44.543ZM26.9882 9.10547H36.0118V18.457H26.9882V9.10547ZM26.9882 20.918H36.0118V30.2695H26.9882V20.918ZM26.9882 32.7305H36.0118V42.082H26.9882V32.7305ZM26.9882 44.543H36.0118V53.8945H26.9882V44.543ZM15.5039 9.10547H24.5273V18.457H15.5039V9.10547ZM15.5039 20.918H24.5273V30.2695H15.5039V20.918ZM15.5039 32.7305H24.5273V42.082H15.5039V32.7305ZM15.5039 44.543H24.5273V53.8945H15.5039V44.543ZM51.4336 60.5391H11.5664V56.3555H48.7266H51.4336V60.5391ZM60.5391 60.5391H53.8945V55.125C53.8945 54.4455 53.3435 53.8945 52.6641 53.8945H49.957V50.4336H53.8746C54.5541 50.4336 55.1051 49.8826 55.1051 49.2031C55.1051 48.5237 54.5541 47.9727 53.8746 47.9727H49.957V44.5325H53.8746C54.5541 44.5325 55.1051 43.9815 55.1051 43.302C55.1051 42.6226 54.5541 42.0716 53.8746 42.0716H49.957V38.6316H53.8746C54.5541 38.6316 55.1051 38.0806 55.1051 37.4011C55.1051 36.7216 54.5541 36.1706 53.8746 36.1706H49.957V32.7305H53.8746C54.5541 32.7305 55.1051 32.1795 55.1051 31.5C55.1051 30.8205 54.5541 30.2695 53.8746 30.2695H49.957V20.1919L60.5391 30.7791V60.5391Z" fill="#434343"/>
</svg>
