<svg viewBox="0 0 20 20" fill="none" xmlns="http://www.w3.org/2000/svg">
<path d="M9.99973 0C4.4771 0 0 4.4773 0 9.99987C0 15.5224 4.4771 19.9999 9.99973 19.9999C15.5224 19.9999 20 15.5224 20 9.99987C19.9999 4.4773 15.5224 0 9.99973 0ZM7.39785 7.02385C7.53618 6.88551 7.71739 6.81638 7.89859 6.81638C8.07979 6.81638 8.26086 6.88551 8.39912 7.02385L9.2856 7.91019V7.64945V4.16516C9.2856 3.77403 9.60253 3.45709 9.99367 3.45709C10.3848 3.45709 10.7017 3.77403 10.7017 4.16516V7.64938V7.95805L11.0104 7.64938L11.6361 7.02378C11.7745 6.88545 11.9555 6.81631 12.1367 6.81631C12.3179 6.81631 12.4991 6.88545 12.6374 7.02378C12.8076 7.19372 12.8722 7.42905 12.833 7.64938C12.83 7.66532 12.8248 7.68118 12.8208 7.69678C12.8148 7.72119 12.8082 7.74539 12.7994 7.76905C12.7935 7.78499 12.7868 7.80052 12.7796 7.81605C12.7686 7.84079 12.7558 7.86445 12.7418 7.88799C12.7343 7.90045 12.7274 7.91285 12.7191 7.92479C12.6949 7.95972 12.6684 7.99359 12.6373 8.02472L11.6296 9.03239L10.5235 10.1385C10.3851 10.2768 10.204 10.3455 10.023 10.3455H10.0178H10.0126C9.8316 10.3455 9.65053 10.2768 9.51206 10.1385L8.40599 9.03239L7.39832 8.02472C7.36718 7.99359 7.34072 7.95985 7.31685 7.92499C7.30838 7.91272 7.30145 7.90012 7.29385 7.88765C7.28005 7.86432 7.26738 7.84079 7.25632 7.81639C7.24905 7.80045 7.24212 7.78472 7.23625 7.76852C7.22778 7.74532 7.22138 7.72185 7.21532 7.69812C7.21118 7.68172 7.20578 7.66579 7.20285 7.64919C7.16298 7.42912 7.22752 7.19378 7.39785 7.02385ZM15.4384 13.9544C15.4384 14.9102 14.501 15.659 13.3045 15.659H6.69565C5.4993 15.659 4.56196 14.9103 4.56196 13.9544V10.0457C4.56196 9.66372 4.87162 9.35406 5.2536 9.35406C5.63558 9.35406 5.94524 9.66372 5.94524 10.0457V13.9544C5.94524 14.0345 6.21138 14.2757 6.69565 14.2757H13.3047C13.789 14.2757 14.0551 14.0343 14.0551 13.9544V10.0458C14.0551 9.66378 14.3648 9.35411 14.7468 9.35416C15.1288 9.35422 15.4384 9.66386 15.4384 10.0458V13.9544Z" fill="#000000"/>
</svg>
