<svg viewBox="0 0 50 50" fill="none" xmlns="http://www.w3.org/2000/svg">
<g opacity="0.85" clip-path="url(#clip0)">
<path d="M12.1931 14.7003V30.7458L19.4136 36.3617H30.6454L37.8658 30.7458V14.7003H12.1931Z" fill="#FFD503"/>
<path d="M25.0294 0L0.158936 21.554V50.0002H49.8998V21.554L25.0294 0ZM18.0632 36.3228L1.76348 47.6623V23.5667L18.0632 36.3228ZM19.6654 37.1638H30.3926L46.5383 48.3957H3.51963L19.6654 37.1638ZM31.9956 36.3228L48.2953 23.5667V47.6623L31.9956 36.3228ZM47.8362 21.8893L30.3683 35.5593H19.69L2.2222 21.8893L25.0294 2.12281L47.8362 21.8893Z" fill="white"/>
<path d="M30.9914 25.1209C30.9385 26.308 30.6333 27.2516 30.0758 27.9518C29.5231 28.6474 28.7782 28.9952 27.841 28.9952C27.4277 28.9952 27.0697 28.9094 26.7669 28.7378C26.4689 28.5663 26.2431 28.3205 26.0893 28.0005C25.6087 28.6497 24.9815 28.9743 24.2077 28.9743C23.5061 28.9743 22.963 28.6891 22.5785 28.1188C22.194 27.5484 22.0499 26.7949 22.146 25.8582C22.2325 25.0931 22.4319 24.4138 22.7443 23.8202C23.0615 23.222 23.4604 22.763 23.941 22.443C24.4216 22.1231 24.9406 21.9631 25.4981 21.9631C26.1854 21.9631 26.7717 22.1161 27.2571 22.4222L27.7113 22.7212L27.3436 26.7416C27.2956 27.1079 27.3364 27.3884 27.4662 27.5832C27.6008 27.778 27.8122 27.8753 28.1006 27.8753C28.5427 27.8753 28.9128 27.6273 29.2108 27.1311C29.5087 26.6303 29.6721 25.9765 29.701 25.1696C29.7827 23.5513 29.4438 22.3085 28.6845 21.4414C27.93 20.5696 26.8102 20.1338 25.3251 20.1338C24.3976 20.1338 23.5709 20.361 22.8452 20.8154C22.1195 21.2698 21.5476 21.9167 21.1295 22.756C20.7114 23.5907 20.4759 24.5482 20.423 25.6287C20.3461 27.2702 20.6874 28.5384 21.4467 29.4334C22.206 30.333 23.3427 30.7828 24.8565 30.7828C25.2554 30.7828 25.6736 30.7387 26.1109 30.6506C26.5482 30.5671 26.9255 30.4535 27.2427 30.3098L27.5166 31.381C27.2235 31.5664 26.827 31.7148 26.3272 31.8261C25.8322 31.942 25.3323 32 24.8277 32C23.5589 32 22.4776 31.7519 21.5837 31.2558C20.6898 30.7642 20.0217 30.0362 19.5796 29.0717C19.1422 28.1118 18.9524 26.9642 19.0101 25.6287C19.0678 24.3488 19.3705 23.2012 19.9184 22.1857C20.4663 21.1701 21.2112 20.3865 22.1532 19.8347C23.1 19.2782 24.1669 19 25.354 19C26.5603 19 27.5983 19.2504 28.4682 19.7512C29.3381 20.2474 29.9893 20.9592 30.4219 21.8866C30.8544 22.814 31.0442 23.8921 30.9914 25.1209ZM23.7464 25.8582C23.6935 26.4703 23.7488 26.9363 23.9122 27.2563C24.0756 27.5716 24.3399 27.7293 24.7052 27.7293C24.9406 27.7293 25.1641 27.6296 25.3756 27.4302C25.587 27.2308 25.7625 26.9433 25.9018 26.5677L26.2046 23.2777C26.0172 23.2174 25.8249 23.1873 25.6279 23.1873C25.0752 23.1873 24.6451 23.4145 24.3375 23.8689C24.0347 24.3233 23.8377 24.9864 23.7464 25.8582Z" fill="white"/>
</g>
<defs>
<clipPath id="clip0">
<rect width="50" height="50" fill="white"/>
</clipPath>
</defs>
</svg>
