<svg viewBox="0 0 63 64" fill="none" xmlns="http://www.w3.org/2000/svg">
<g clip-path="url(#clip0)">
<path d="M54.8492 33.2699C54.8732 32.7093 54.416 32.2531 53.8548 32.2531C53.2936 32.2531 52.8412 32.7088 52.8149 33.2694C52.2834 44.5836 42.9257 53.625 31.5 53.625C19.7341 53.625 10.1613 44.0373 10.1613 32.2531C10.1613 21.364 18.3409 12.3676 28.8674 11.0617L26.717 13.2154L28.1539 14.654L32.9369 9.86361L28.1539 5.07373L26.717 6.51233L29.1641 8.96318C17.37 10.1409 8.12903 20.1356 8.12903 32.2531C8.12903 45.1608 18.6123 55.6604 31.5 55.6604C44.0475 55.6604 54.3159 45.7077 54.8492 33.2699Z" fill="#434343"/>
<path d="M24.5557 2.50618C24.4463 1.95628 24.8029 1.41996 25.3527 1.31023C25.903 1.2004 26.4385 1.55955 26.548 2.10997C26.6573 2.65996 26.3006 3.19631 25.7507 3.30592C25.2004 3.4156 24.6651 3.05649 24.5557 2.50618Z" fill="#434343"/>
<path d="M18.8952 4.43411C18.6808 3.91589 18.9263 3.32086 19.4442 3.10588C19.9631 2.89054 20.5587 3.13814 20.7734 3.65729C20.9876 4.17544 20.7422 4.7703 20.2243 4.98527C19.7055 5.20065 19.1099 4.95317 18.8952 4.43411Z" fill="#434343"/>
<path d="M13.7176 7.43177C13.4066 6.96554 13.5312 6.33456 13.9969 6.02274C14.4637 5.71019 15.0962 5.83674 15.408 6.30405C15.7191 6.77039 15.5944 7.40158 15.1285 7.71333C14.6616 8.02566 14.0293 7.89901 13.7176 7.43177Z" fill="#434343"/>
<path d="M9.2248 11.3832C8.8285 10.9862 8.82855 10.3432 9.22492 9.94625C9.62215 9.5484 10.2668 9.54834 10.6641 9.94613C11.0607 10.3431 11.0607 10.9863 10.6643 11.3834C10.2669 11.7813 9.62206 11.7813 9.2248 11.3832Z" fill="#434343"/>
<path d="M28.4516 19.0233V20.1136C25.0088 20.608 22.3548 23.5816 22.3548 27.165V28.1827C22.3548 32.1104 25.5466 35.3066 29.4677 35.3066H33.5323C34.0929 35.3066 34.5484 35.7628 34.5484 36.3243V37.342C34.5484 37.9041 34.0929 38.3598 33.5323 38.3598H29.4677C28.9071 38.3598 28.4516 37.9041 28.4516 37.342V36.3243H22.3548V37.342C22.3548 40.9254 25.0088 43.8985 28.4516 44.3939V45.4837C28.4516 47.1673 29.8195 48.5368 31.5 48.5368C33.1805 48.5368 34.5484 47.1673 34.5484 45.4837V44.3939C37.9912 43.8995 40.6452 40.9254 40.6452 37.342V36.3243C40.6452 32.3971 37.4534 29.2004 33.5323 29.2004H29.4677C28.9071 29.2004 28.4516 28.7447 28.4516 28.1827V27.165C28.4516 26.6035 28.9071 26.1473 29.4677 26.1473H33.5323C34.0929 26.1473 34.5484 26.6035 34.5484 27.165V28.1827H40.6452V27.165C40.6452 23.5816 37.9912 20.609 34.5484 20.1136V19.0233C34.5484 17.3402 33.1805 15.9702 31.5 15.9702C29.8195 15.9702 28.4516 17.3402 28.4516 19.0233ZM32.5161 19.0233V22.0765H33.5323C35.9862 22.0765 38.0388 23.8281 38.5102 26.1473H36.407C35.9872 24.9631 34.8575 24.1119 33.5323 24.1119H29.4677C27.7873 24.1119 26.4194 25.4819 26.4194 27.165V28.1827C26.4194 29.8663 27.7873 31.2358 29.4677 31.2358H33.5323C36.3336 31.2358 38.6129 33.5187 38.6129 36.3243V37.342C38.6129 40.1482 36.3336 42.4306 33.5323 42.4306H32.5161V45.4837C32.5161 46.0457 32.0607 46.5014 31.5 46.5014C30.9393 46.5014 30.4839 46.0457 30.4839 45.4837V42.4306H29.4677C27.0137 42.4306 24.9611 40.6794 24.4898 38.3598H26.593C27.0128 39.5444 28.1425 40.3952 29.4677 40.3952H33.5323C35.2127 40.3952 36.5806 39.0256 36.5806 37.342V36.3243C36.5806 34.6412 35.2127 33.2712 33.5323 33.2712H29.4677C26.6664 33.2712 24.3871 30.9888 24.3871 28.1827V27.165C24.3871 24.3593 26.6664 22.0765 29.4677 22.0765H30.4839V19.0233C30.4839 18.4618 30.9393 18.0056 31.5 18.0056C32.0607 18.0056 32.5161 18.4618 32.5161 19.0233Z" fill="#434343"/>
<path d="M8.06508 14.3595C8.40495 13.9132 8.343 13.2743 7.90935 12.9183C7.47464 12.5615 6.83139 12.6244 6.48976 13.0711C2.29744 18.5532 0 25.3241 0 32.2534C0 39.6881 2.60515 46.8424 7.35569 52.5161C7.71672 52.9473 8.36214 52.982 8.78073 52.6064C9.19816 52.2319 9.23198 51.5911 8.87284 51.1604C4.45459 45.8618 2.03226 39.1879 2.03226 32.2534C2.03226 25.792 4.16758 19.4783 8.06508 14.3595Z" fill="#434343"/>
<path d="M36.4515 62.3931C36.3421 61.8431 36.6988 61.3072 37.2486 61.1974C37.7989 61.0876 38.3343 61.4463 38.4438 61.9967C38.5532 62.5466 38.1966 63.0826 37.6467 63.1923C37.0964 63.3022 36.561 62.9434 36.4515 62.3931Z" fill="#434343"/>
<path d="M42.2245 60.8487C42.0101 60.3304 42.2555 59.7354 42.7735 59.5204C43.2924 59.3051 43.888 59.5527 44.1027 60.0718C44.3169 60.59 44.0715 61.1849 43.5536 61.3998C43.0348 61.6152 42.4392 61.3677 42.2245 60.8487Z" fill="#434343"/>
<path d="M47.5877 58.2014C47.2767 57.7351 47.4014 57.1041 47.8672 56.7924C48.334 56.48 48.9663 56.6065 49.278 57.0737C49.5892 57.54 49.4646 58.1712 48.9988 58.483C48.5319 58.7955 47.8994 58.6688 47.5877 58.2014Z" fill="#434343"/>
<path d="M52.3349 54.5618C51.9386 54.1648 51.9385 53.5219 52.3348 53.1249C52.7321 52.7269 53.377 52.7269 53.7743 53.1249C54.1705 53.5219 54.1705 54.1648 53.7741 54.5618C53.3769 54.9596 52.7322 54.9596 52.3349 54.5618Z" fill="#434343"/>
<path d="M55.6443 11.9909C55.2833 11.5597 54.6379 11.525 54.2193 11.9006C53.8018 12.2751 53.768 12.9159 54.1272 13.3466C58.5454 18.6453 60.9677 25.3191 60.9677 32.2531C60.9677 38.7159 58.8324 45.0297 54.9349 50.1485C54.5951 50.5949 54.657 51.2337 55.0907 51.5897C55.5254 51.9465 56.1686 51.8836 56.5102 51.4369C60.7026 45.9548 63 39.1839 63 32.2531C63 24.819 60.3949 17.6642 55.6443 11.9909Z" fill="#434343"/>
</g>
<defs>
<clipPath id="clip0">
<rect width="63" height="63.0978" fill="white" transform="translate(0 0.602051)"/>
</clipPath>
</defs>
</svg>
