<svg viewBox="0 0 63 63" fill="none" xmlns="http://www.w3.org/2000/svg">
<path d="M24.5559 1.90305C24.4463 1.35298 24.8033 0.817844 25.3534 0.708243C25.9035 0.59863 26.4384 0.956144 26.5479 1.50627C26.6575 2.05642 26.3004 2.59159 25.7502 2.70108C25.2002 2.81053 24.6655 2.45306 24.5559 1.90305Z" fill="#434343"/>
<path d="M18.8956 3.82701C18.6808 3.30862 18.9268 2.71419 19.4452 2.49938C19.9637 2.28454 20.5582 2.53082 20.7729 3.04934C20.9875 3.56765 20.7415 4.16191 20.2232 4.37672C19.7048 4.59159 19.1104 4.34543 18.8956 3.82701Z" fill="#434343"/>
<path d="M13.7184 6.82006C13.4069 6.3538 13.5319 5.72284 13.9981 5.41119C14.4644 5.09944 15.0955 5.22527 15.4071 5.69166C15.7188 6.15803 15.5936 6.7892 15.1272 7.10078C14.6608 7.41231 14.0299 7.28638 13.7184 6.82006Z" fill="#434343"/>
<path d="M9.22588 10.7658C8.82915 10.3689 8.8292 9.72559 9.226 9.32879C9.6228 8.93199 10.2661 8.93193 10.663 9.32866C11.06 9.72549 11.06 10.369 10.6631 10.7659C10.2662 11.1628 9.62271 11.1627 9.22588 10.7658Z" fill="#434343"/>
<path d="M28.4515 18.3921V19.4807C25.0087 19.9744 22.3547 22.9434 22.3547 26.5212V27.5373C22.3547 31.4589 25.5465 34.6502 29.4676 34.6502H33.5322C34.0928 34.6502 34.5483 35.1057 34.5483 35.6663V36.6825C34.5483 37.2436 34.0928 37.6986 33.5322 37.6986H29.4676C28.907 37.6986 28.4515 37.2436 28.4515 36.6825V35.6663H22.3547V36.6825C22.3547 40.2603 25.0087 43.2288 28.4515 43.7234V44.8115C28.4515 46.4925 29.8194 47.8599 31.4999 47.8599C33.1804 47.8599 34.5483 46.4925 34.5483 44.8115V43.7234C37.9911 43.2297 40.6451 40.2603 40.6451 36.6825V35.6663C40.6451 31.7452 37.4533 28.5534 33.5322 28.5534H29.4676C28.907 28.5534 28.4515 28.0985 28.4515 27.5373V26.5212C28.4515 25.9605 28.907 25.505 29.4676 25.505H33.5322C34.0928 25.505 34.5483 25.9605 34.5483 26.5212V27.5373H40.6451V26.5212C40.6451 22.9434 37.9911 19.9754 34.5483 19.4807V18.3921C34.5483 16.7117 33.1804 15.3438 31.4999 15.3438C29.8194 15.3438 28.4515 16.7117 28.4515 18.3921ZM32.516 18.3921V21.4405H33.5322C35.9861 21.4405 38.0387 23.1895 38.5101 25.505H36.4069C35.9871 24.3227 34.8574 23.4728 33.5322 23.4728H29.4676C27.7872 23.4728 26.4193 24.8407 26.4193 26.5212V27.5373C26.4193 29.2183 27.7872 30.5857 29.4676 30.5857H33.5322C36.3335 30.5857 38.6128 32.865 38.6128 35.6663V36.6825C38.6128 39.4843 36.3335 41.7631 33.5322 41.7631H32.516V44.8115C32.516 45.3727 32.0606 45.8276 31.4999 45.8276C30.9392 45.8276 30.4838 45.3727 30.4838 44.8115V41.7631H29.4676C27.0136 41.7631 24.961 40.0147 24.4897 37.6986H26.5929C27.0127 38.8814 28.1424 39.7309 29.4676 39.7309H33.5322C35.2126 39.7309 36.5805 38.3634 36.5805 36.6825V35.6663C36.5805 33.9859 35.2126 32.6179 33.5322 32.6179H29.4676C26.6663 32.6179 24.387 30.3391 24.387 27.5373V26.5212C24.387 23.7199 26.6663 21.4405 29.4676 21.4405H30.4838V18.3921C30.4838 17.8315 30.9392 17.376 31.4999 17.376C32.0606 17.376 32.516 17.8315 32.516 18.3921Z" fill="#FFD503"/>
<path d="M8.06394 13.7372C8.40426 13.2908 8.34227 12.6515 7.90815 12.2958C7.47391 11.9399 6.8319 12.0026 6.4905 12.4483C2.29771 17.922 0 24.6828 0 31.6018C0 39.0254 2.60547 46.1691 7.35657 51.8342C7.7173 52.2643 8.36143 52.2989 8.77957 51.9244C9.19745 51.55 9.2313 50.9088 8.8717 50.4782C4.45418 45.188 2.03226 38.525 2.03226 31.6018C2.03226 25.1511 4.16717 18.8477 8.06394 13.7372Z" fill="#434343"/>
<path d="M36.4516 61.6957C36.342 61.1456 36.6991 60.6108 37.2492 60.5012C37.7993 60.3916 38.3341 60.7487 38.4437 61.2988C38.5533 61.8489 38.1962 62.3836 37.6461 62.4933C37.096 62.6029 36.5612 62.2458 36.4516 61.6957Z" fill="#434343"/>
<path d="M42.2249 60.1542C42.0101 59.6358 42.2562 59.0413 42.7746 58.8265C43.293 58.6117 43.8875 58.858 44.1022 59.3765C44.3169 59.8948 44.0708 60.4891 43.5526 60.7039C43.0342 60.9187 42.4397 60.6726 42.2249 60.1542Z" fill="#434343"/>
<path d="M47.5884 57.5111C47.2769 57.0448 47.4021 56.4138 47.8684 56.1022C48.3346 55.7907 48.9655 55.9165 49.2772 56.3827C49.5889 56.849 49.4638 57.4802 48.9975 57.7918C48.5311 58.1035 47.9 57.9776 47.5884 57.5111Z" fill="#434343"/>
<path d="M52.336 53.8774C51.9393 53.4807 51.9392 52.8374 52.3359 52.4405C52.7328 52.0436 53.3763 52.0436 53.7732 52.4405C54.1699 52.8374 54.1698 53.4807 53.773 53.8774C53.3762 54.2742 52.7329 54.2742 52.336 53.8774Z" fill="#434343"/>
<path d="M55.6434 11.37C55.2827 10.9399 54.6386 10.9053 54.2205 11.2798C53.8026 11.6542 53.7687 12.2954 54.1283 12.726C58.5458 18.0163 60.9677 24.6792 60.9677 31.6019C60.9677 38.054 58.8328 44.3575 54.9361 49.468C54.5957 49.9144 54.6577 50.5537 55.0918 50.9094C55.5261 51.2653 56.1681 51.2026 56.5095 50.7569C60.7023 45.2832 63 38.5223 63 31.6019C63 24.1788 60.3945 17.0347 55.6434 11.37Z" fill="#434343"/>
</svg>
