<svg viewBox="0 0 50 50" fill="none" xmlns="http://www.w3.org/2000/svg">
<path d="M19.2398 42.9352C17.0821 44.4941 14.1679 44.4941 12.0102 42.9352C6.93516 39.2711 3.90625 33.3469 3.90625 27.0867V25.7812C3.90625 24.0554 5.30536 22.6562 7.03125 22.6562H8.59375C9.4567 22.6562 10.1562 21.9567 10.1562 21.0938C10.1562 20.2308 10.8558 19.5312 11.7188 19.5312H18.75C19.6129 19.5312 20.3125 20.2308 20.3125 21.0938C20.3125 21.9567 21.0121 22.6562 21.875 22.6562H23.8281C25.7698 22.6562 27.3438 24.2302 27.3438 26.1719V27.0867C27.3438 33.3469 24.3148 39.2711 19.2398 42.9352Z" fill="#FFD503"/>
<path d="M17.7252 35.3755C17.9054 36.6522 16.9143 37.793 15.625 37.793C14.3357 37.793 13.3446 36.6522 13.5248 35.3755L13.7914 33.4865C13.9701 32.2199 13.256 30.9223 13.256 29.6431C13.256 28.3215 14.3188 27.2461 15.625 27.2461C16.9312 27.2461 17.994 28.3215 17.994 29.6431C17.994 30.9223 17.2799 32.2199 17.4586 33.4865L17.7252 35.3755ZM14.4646 35.4984C14.365 36.2038 14.9126 36.8342 15.625 36.8342C16.3374 36.8342 16.885 36.2038 16.7854 35.4984L16.194 31.3103C16.1682 31.1276 16.2495 30.9463 16.403 30.844C16.8058 30.5759 17.0464 30.1272 17.0464 29.6431C17.0464 28.8503 16.4086 28.2049 15.625 28.2049C14.8414 28.2049 14.2036 28.8503 14.2036 29.6431C14.2036 30.1272 14.4442 30.5759 14.847 30.844C15.0005 30.9463 15.0818 31.1276 15.056 31.3103L14.4646 35.4984Z" fill="#404040"/>
<path d="M21.7325 37.2251C21.5697 37.436 21.2636 37.4554 21.0631 37.2799C20.8626 37.1044 20.8439 36.8005 21.0049 36.588C21.8919 35.4174 22.3752 33.9912 22.3752 32.5215C22.3752 28.798 19.3464 25.7693 15.6228 25.7693C14.1533 25.7693 12.7266 26.2527 11.5558 27.1394C11.3435 27.3002 11.0398 27.2815 10.8644 27.0811C10.689 26.8808 10.7084 26.5748 10.9192 26.4122C12.2669 25.3724 13.9196 24.8047 15.6228 24.8047C19.8777 24.8047 23.3398 28.2667 23.3398 32.5215C23.3398 34.2245 22.7722 35.8774 21.7325 37.2251Z" fill="#404040"/>
<path d="M15.6272 40.2344C11.3723 40.2344 7.91016 36.7723 7.91016 32.5176C7.91016 30.8145 8.47782 29.1616 9.51752 27.814C9.68027 27.603 9.98638 27.5837 10.1869 27.7592C10.3874 27.9347 10.4061 28.2386 10.2451 28.451C9.35815 29.6217 8.87479 31.0479 8.87479 32.5176C8.87479 36.241 11.9036 39.2698 15.6272 39.2698C17.0967 39.2698 18.5234 38.7864 19.6942 37.8996C19.9065 37.7389 20.2102 37.7576 20.3856 37.9579C20.561 38.1583 20.5416 38.4642 20.3308 38.6269C18.9831 39.6667 17.3304 40.2344 15.6272 40.2344Z" fill="#404040"/>
<path d="M46.875 0.78125H14.0625C12.7703 0.78125 11.7188 1.83281 11.7188 3.125V16.4062H10.9375C9.05078 16.4062 7.47266 17.7508 7.11016 19.5312C3.6148 19.5312 0.78125 22.3648 0.78125 25.8602V27.0867C0.78125 34.3469 4.29531 41.2188 10.1805 45.4688L15.625 49.4008L21.0695 45.4688C26.8852 41.2687 30.3789 34.5086 30.4609 27.3438H46.875C48.1672 27.3438 49.2188 26.2922 49.2188 25V3.125C49.2188 1.83281 48.1672 0.78125 46.875 0.78125ZM28.9062 27.0867C28.9062 33.8461 25.6344 40.2453 20.1547 44.2023L15.625 47.4742L11.0953 44.2023C5.61562 40.2453 2.34375 33.8461 2.34375 27.0867V21.0938H8.59375V20.3125C8.59375 19.0203 9.64531 17.9688 10.9375 17.9688H19.5312C20.8234 17.9688 21.875 19.0203 21.875 20.3125V21.0938H28.9062V27.0867ZM47.6562 25C47.6562 25.4312 47.3055 25.7812 46.875 25.7812H30.4688C30.4688 22.3295 27.6705 19.5312 24.2187 19.5312H23.3586C22.9961 17.7508 21.4172 16.4062 19.5312 16.4062H13.2812V10.1562H47.6562V25ZM47.6562 8.59375H13.2812V7.03125H47.6562V8.59375ZM47.6562 5.46875H13.2812V3.125C13.2812 2.69375 13.632 2.34375 14.0625 2.34375H46.875C47.3055 2.34375 47.6562 2.69375 47.6562 3.125V5.46875Z" fill="#404040"/>
<path d="M16.4062 14.0625C16.4062 13.631 16.756 13.2812 17.1875 13.2812H20.3125C20.744 13.2812 21.0938 13.631 21.0938 14.0625C21.0938 14.494 20.744 14.8438 20.3125 14.8438H17.1875C16.756 14.8438 16.4062 14.494 16.4062 14.0625Z" fill="#404040"/>
<path d="M24.2188 14.0625C24.2188 13.631 24.5685 13.2812 25 13.2812H29.6875C30.119 13.2812 30.4688 13.631 30.4688 14.0625C30.4688 14.494 30.119 14.8438 29.6875 14.8438H25C24.5685 14.8438 24.2188 14.494 24.2188 14.0625Z" fill="#404040"/>
<path d="M24.2188 17.1875C24.2188 16.756 24.5685 16.4062 25 16.4062H29.6875C30.119 16.4062 30.4688 16.756 30.4688 17.1875C30.4688 17.619 30.119 17.9688 29.6875 17.9688H25C24.5685 17.9688 24.2188 17.619 24.2188 17.1875Z" fill="#404040"/>
<path d="M42.9688 20.7031C42.9688 21.7818 42.0943 22.6562 41.0156 22.6562H38.2812C35.6924 22.6562 33.5938 20.5576 33.5938 17.9688V15.2344C33.5938 14.1557 34.4682 13.2812 35.5469 13.2812H36.7188C37.1502 13.2812 37.5 13.631 37.5 14.0625C37.5 14.494 37.1502 14.8438 36.7188 14.8438H36.3281C35.6809 14.8438 35.1562 15.3684 35.1562 16.0156V17.9688C35.1562 19.6946 36.5554 21.0938 38.2812 21.0938H40.2344C40.8816 21.0938 41.4062 20.5691 41.4062 19.9219V19.5312C41.4062 19.0998 41.756 18.75 42.1875 18.75C42.619 18.75 42.9688 19.0998 42.9688 19.5312V20.7031Z" fill="#404040"/>
<path d="M44.5312 15.625C44.5312 17.7824 42.7824 19.5312 40.625 19.5312C38.4676 19.5312 36.7188 17.7824 36.7188 15.625C36.7188 13.4676 38.4676 11.7188 40.625 11.7188C42.7824 11.7188 44.5312 13.4676 44.5312 15.625Z" fill="#FFD503"/>
</svg>
