<svg viewBox="0 0 50 50" fill="none" xmlns="http://www.w3.org/2000/svg">
<path d="M35.4492 40.7827H0V16.271H35.4492V40.7827Z" fill="#FFD503"/>
<path d="M21.8527 28.1908C21.3421 28.8332 21.5223 29.6425 21.9629 30.0876L22.6437 30.7249C23.4096 31.5039 24.3657 30.993 24.626 30.7249L27.5996 27.7457C27.95 27.3866 28.2904 26.4306 27.5996 25.7225L26.9188 25.0851C26.4182 24.5743 25.5421 24.554 25.0065 25.0194L20.9567 20.9678C21.277 20.5581 21.5173 19.6881 20.8766 19.0356L20.1958 18.3983C19.6751 17.8672 18.734 17.8672 18.2134 18.3983L15.2398 21.3776C14.5941 22.0351 14.7693 22.9203 15.2398 23.4008L15.9207 24.0381C16.5864 24.721 17.4024 24.4124 17.7729 24.1494L18.5188 24.8879L8.24744 35.194C7.55612 35.8877 7.55138 37.0083 8.2368 37.7078C8.9337 38.419 10.0773 38.424 10.7803 37.7189L21.0618 27.4068L21.8527 28.1908ZM25.6673 25.7781C25.8125 25.6264 26.0427 25.6264 26.243 25.8337L26.9238 26.4711C27.0439 26.5975 27.0489 26.8201 26.9238 26.9516L23.9502 29.9308C23.7951 30.0927 23.5347 30.0927 23.3746 29.9308L22.6937 29.2935C22.5936 29.1923 22.4935 28.9647 22.6937 28.7624L25.6673 25.7781ZM24.3057 25.7225L22.5436 27.4928L18.5388 23.4615L20.3109 21.6507L24.3057 25.7225ZM17.2272 23.244C17.072 23.4059 16.8117 23.4059 16.6515 23.244L15.9707 22.6067C15.8706 22.5055 15.7705 22.2779 15.9707 22.0756L18.9443 19.0963C19.0894 18.9446 19.3197 18.9446 19.52 19.152L20.2008 19.7893C20.3209 19.9158 20.3259 20.1383 20.2008 20.2698L17.2272 23.244ZM10.0917 36.9764C9.79607 37.2737 9.31623 37.2775 9.01582 36.9851C8.71079 36.6881 8.70687 36.1992 9.0071 35.8974L19.2446 25.6061L20.3309 26.6835L10.0917 36.9764Z" fill="#404040"/>
<path d="M19.043 37.6836C19.043 37.3061 19.349 37 19.7266 37H29.1992C29.5768 37 29.8828 37.3061 29.8828 37.6836C29.8828 38.0611 29.5768 38.3672 29.1992 38.3672H19.7266C19.349 38.3672 19.043 38.0611 19.043 37.6836Z" fill="#404040"/>
<path d="M46.7773 46.777H12.8906V41.8942H46.7773V46.777Z" fill="#FFD503"/>
<path d="M35.484 12.0965H20.1614V8.87073H35.484V12.0965Z" fill="#FFD503"/>
<path d="M45.1614 4.83871V2.41935C45.1614 1.08564 44.0757 0 42.742 0H39.5162C38.1825 0 37.0968 1.08564 37.0968 2.41935V4.83871H17.3833L9.67749 13.4002V16.3086H11.2904V14.5161H18.5485V6.45161H37.0968V25.2445L41.1291 31.2929L45.1614 25.2445V6.45161H48.3872V48.3871H11.2904V40.7715H9.67749V50H50.0001V4.83871H45.1614ZM12.2945 12.9032L16.9356 7.74674V12.9032H12.2945ZM39.5162 1.6129H42.742C43.187 1.6129 43.5485 1.97518 43.5485 2.41935V6.45161H38.7097V2.41935C38.7097 1.97518 39.0712 1.6129 39.5162 1.6129ZM41.9356 24.1935V11.2903H43.5485V24.1935H41.9356ZM38.7097 11.2903H40.3227V24.1935H38.7097V11.2903ZM38.7097 9.67742V8.06452H43.5485V9.67742H38.7097ZM39.4099 25.8064H42.8475L41.1291 28.3845L39.4099 25.8064Z" fill="#404040"/>
<path d="M20.1614 8.87109C20.1614 8.4257 20.5224 8.06464 20.9678 8.06464H34.6775C35.1229 8.06464 35.484 8.4257 35.484 8.87109C35.484 9.31648 35.1229 9.67754 34.6775 9.67754H20.9678C20.5224 9.67754 20.1614 9.31648 20.1614 8.87109Z" fill="#404040"/>
<path d="M20.1614 12.097C20.1614 11.6516 20.5224 11.2905 20.9678 11.2905H34.6775C35.1229 11.2905 35.484 11.6516 35.484 12.097C35.484 12.5424 35.1229 12.9034 34.6775 12.9034H20.9678C20.5224 12.9034 20.1614 12.5424 20.1614 12.097Z" fill="#404040"/>
<path d="M12.9033 42.7418C12.9033 42.2964 13.2644 41.9354 13.7098 41.9354C14.1552 41.9354 14.5162 42.2964 14.5162 42.7418C14.5162 43.1872 14.1552 43.5483 13.7098 43.5483C13.2644 43.5483 12.9033 43.1872 12.9033 42.7418Z" fill="#404040"/>
<path d="M16.1289 42.7418C16.1289 42.2964 16.49 41.9354 16.9354 41.9354H45.9676C46.413 41.9354 46.7741 42.2964 46.7741 42.7418C46.7741 43.1872 46.413 43.5483 45.9676 43.5483H16.9354C16.49 43.5483 16.1289 43.1872 16.1289 42.7418Z" fill="#404040"/>
<path d="M12.9033 45.9676C12.9033 45.5223 13.2644 45.1612 13.7098 45.1612H42.742C43.1874 45.1612 43.5485 45.5223 43.5485 45.9676C43.5485 46.413 43.1874 46.7741 42.742 46.7741H13.7098C13.2644 46.7741 12.9033 46.413 12.9033 45.9676Z" fill="#404040"/>
<path d="M45.1614 45.9676C45.1614 45.5223 45.5224 45.1612 45.9678 45.1612C46.4132 45.1612 46.7743 45.5223 46.7743 45.9676C46.7743 46.413 46.4132 46.7741 45.9678 46.7741C45.5224 46.7741 45.1614 46.413 45.1614 45.9676Z" fill="#404040"/>
</svg>
