<svg viewBox="0 0 63 63" fill="none" xmlns="http://www.w3.org/2000/svg">
<path d="M59.1969 3.43799H3.80326C1.70617 3.43799 0 5.14416 0 7.24125V45.4866C0 47.5837 1.70617 49.2899 3.80326 49.2899H22.7845V52.0572C22.7845 54.5941 20.7205 56.6581 18.1837 56.6581H14.0004C13.1984 56.6581 12.5481 57.3083 12.5481 58.1104C12.5481 58.9125 13.1984 59.5627 14.0004 59.5627H48.9995C49.8015 59.5627 50.4518 58.9125 50.4518 58.1104C50.4518 57.3083 49.8015 56.6581 48.9995 56.6581H44.8161C42.2792 56.6581 40.2152 54.5941 40.2152 52.0572V49.29H59.1965C61.2936 49.29 62.9999 47.5838 62.9999 45.4868V7.24125C63.0001 5.14416 61.294 3.43799 59.1969 3.43799ZM24.1074 56.6583C25.0974 55.3865 25.6894 53.7903 25.6894 52.0575V49.2901H37.3108V52.0575C37.3108 53.7903 37.9028 55.3866 38.8929 56.6583H24.1074ZM60.0955 45.4868C60.0955 45.9823 59.6924 46.3855 59.1967 46.3855H3.80326C3.30775 46.3855 2.90453 45.9824 2.90453 45.4868V44.0005H60.0955V45.4868ZM60.0955 41.0957H2.90465V7.24125C2.90465 6.74574 3.30775 6.34252 3.80339 6.34252H59.1967C59.6922 6.34252 60.0956 6.74562 60.0956 7.24125L60.0955 41.0957Z" fill="#434343"/>
</svg>
