<svg viewBox="0 0 63 63" fill="none" xmlns="http://www.w3.org/2000/svg">
<path d="M62.9995 19.3061C62.9995 17.6255 61.6318 16.2578 59.9511 16.2578C59.6016 16.2578 59.2703 16.3289 58.9574 16.4377L54.4042 10.7464C54.6948 10.28 54.8706 9.73436 54.8706 9.14501C54.8706 7.46436 53.5029 6.09668 51.8222 6.09668C50.9677 6.09668 50.1975 6.45232 49.6437 7.01931L41.6337 3.32269C41.6418 3.23124 41.6611 3.14284 41.6611 3.04834C41.6611 1.36769 40.2934 0 38.6128 0C37.2898 0 36.1721 0.852519 35.7514 2.03223H24.2002C23.7796 0.852519 22.6618 0 21.3389 0C19.6582 0 18.2905 1.36769 18.2905 3.04834C18.2905 3.17434 18.3129 3.29525 18.3281 3.4182L13.2882 5.93816C12.7395 5.40978 11.9977 5.08056 11.1777 5.08056C9.49708 5.08056 8.12939 6.44825 8.12939 8.1289C8.12939 8.71825 8.30518 9.2639 8.59579 9.7303L4.04258 15.4215C3.72962 15.3128 3.39837 15.2417 3.04883 15.2417C1.36818 15.2417 0.000488281 16.6094 0.000488281 18.29C0.000488281 19.613 0.853007 20.7307 2.03271 21.1514V27.623C0.853007 28.0427 0.000488281 29.1604 0.000488281 30.4834C0.000488281 32.164 1.36818 33.5317 3.04883 33.5317C4.17773 33.5317 5.1532 32.9078 5.68056 31.9943L11.2275 33.0023C11.4622 34.4513 12.7121 35.5639 14.2261 35.5639C14.2667 35.5639 14.3053 35.5538 14.346 35.5518L16.2847 40.3996C15.6507 40.9585 15.2422 41.7673 15.2422 42.6767C15.2422 44.3574 16.6099 45.7251 18.2905 45.7251C19.3127 45.7251 20.214 45.215 20.7668 44.4417L29.4871 46.9332C29.5653 48.1709 30.3782 49.2022 31.5 49.6026V57.0903C30.3203 57.511 29.4678 58.6287 29.4678 59.9517C29.4678 61.6323 30.8354 63 32.5161 63C34.1967 63 35.5644 61.6323 35.5644 59.9517C35.5644 58.6287 34.7119 57.511 33.5322 57.0903V49.6026C34.7119 49.1819 35.5644 48.0642 35.5644 46.7412C35.5644 45.7677 35.097 44.9091 34.3847 44.3503L35.598 40.7095L44.7155 43.7487C44.7399 45.0463 45.5792 46.1386 46.7417 46.5532V57.0893C45.562 57.5099 44.7094 58.6277 44.7094 59.9506C44.7094 61.6313 46.0771 62.999 47.7578 62.999C49.4384 62.999 50.8061 61.6313 50.8061 59.9506C50.8061 58.6277 49.9536 57.5099 48.7739 57.0893V46.5542C49.9536 46.1335 50.8061 45.0158 50.8061 43.6928C50.8061 43.322 50.7299 42.9704 50.608 42.6412L58.4046 36.1441C58.8588 36.4144 59.3841 36.5801 59.9511 36.5801C61.6318 36.5801 62.9995 35.2124 62.9995 33.5317C62.9995 32.2087 62.147 31.091 60.9673 30.6703V22.1665C62.147 21.7468 62.9995 20.6291 62.9995 19.3061ZM51.8222 8.1289C52.3821 8.1289 52.8383 8.58412 52.8383 9.14501C52.8383 9.70591 52.3821 10.1611 51.8222 10.1611C51.2624 10.1611 50.8061 9.70591 50.8061 9.14501C50.8061 8.58412 51.2624 8.1289 51.8222 8.1289ZM50.3773 11.8123C50.8092 12.048 51.2969 12.1934 51.8222 12.1934C52.1718 12.1934 52.502 12.1222 52.815 12.0135L57.3682 17.7058C57.0786 18.1722 56.9028 18.7168 56.9028 19.3061C56.9028 19.4697 56.9262 19.6272 56.9516 19.7847L49.7534 23.711L44.5113 19.3427C44.6332 19.0125 44.7094 18.6609 44.7094 18.29C44.7094 17.8775 44.6251 17.4832 44.4757 17.1245L50.3773 11.8123ZM37.5967 28.4512C37.1272 28.4512 36.6883 28.566 36.291 28.757L31.9857 24.4517L39.5862 20.5102C40.1319 21.0203 40.8574 21.3384 41.6611 21.3384C42.2281 21.3384 42.7524 21.1727 43.2076 20.9025L47.834 24.7576L39.6208 29.2376C39.0812 28.754 38.377 28.4512 37.5967 28.4512ZM38.6128 31.4995C38.6128 32.0604 38.1565 32.5156 37.5967 32.5156C37.0368 32.5156 36.5805 32.0604 36.5805 31.4995C36.5805 30.9386 37.0368 30.4834 37.5967 30.4834C38.1565 30.4834 38.6128 30.9386 38.6128 31.4995ZM23.2502 20.309L24.9562 25.8062L16.301 30.2944C15.9382 29.956 15.4942 29.7101 15.0003 29.579L13.592 18.7798L20.5544 18.4313C20.9964 19.5023 22.0329 20.2603 23.2502 20.309ZM22.355 17.2739C22.355 16.713 22.8112 16.2578 23.3711 16.2578C23.931 16.2578 24.3872 16.713 24.3872 17.2739C24.3872 17.8348 23.931 18.29 23.3711 18.29C22.8112 18.29 22.355 17.8348 22.355 17.2739ZM25.5669 27.7795L28.1438 36.0842L17.2683 32.4587C17.2663 32.3368 17.248 32.2189 17.2317 32.101L25.5669 27.7795ZM25.5598 20.9004L28.5858 23.9254L26.7883 24.8572L25.5598 20.9004ZM26.1146 18.5796C26.3046 18.1823 26.4194 17.7434 26.4194 17.2739C26.4194 16.8411 26.3259 16.4305 26.1634 16.0576L30.9879 11.5542L38.7652 17.3867C38.6748 17.6753 38.6128 17.974 38.6128 18.29C38.6128 18.4323 38.6361 18.5674 38.6544 18.7046L30.4778 22.9438L26.1146 18.5796ZM40.645 18.29C40.645 17.7291 41.1012 17.2739 41.6611 17.2739C42.221 17.2739 42.6772 17.7291 42.6772 18.29C42.6772 18.8509 42.221 19.3061 41.6611 19.3061C41.1012 19.3061 40.645 18.8509 40.645 18.29ZM49.5136 26.1568L56.7941 32.224L41.0189 30.7902L49.5136 26.1568ZM38.6128 2.03223C39.1726 2.03223 39.6289 2.48744 39.6289 3.04834C39.6289 3.60923 39.1726 4.06445 38.6128 4.06445C38.0529 4.06445 37.5967 3.60923 37.5967 3.04834C37.5967 2.48744 38.0529 2.03223 38.6128 2.03223ZM37.2166 5.74205C37.6363 5.96052 38.1067 6.09668 38.6128 6.09668C39.4673 6.09668 40.2375 5.74104 40.7923 5.17303L48.8013 8.86965C48.7932 8.96211 48.7739 9.05052 48.7739 9.14501C48.7739 9.55857 48.8582 9.95181 49.0076 10.3115L43.106 15.6227C42.6742 15.387 42.1864 15.2417 41.6611 15.2417C41.0372 15.2417 40.457 15.4317 39.9733 15.7548L32.4968 10.1469L37.2166 5.74205ZM35.7514 4.06445C35.7758 4.1305 35.7931 4.19959 35.8205 4.26361L30.8446 8.90724L24.3872 4.06445H35.7514ZM21.3389 2.03223C21.8987 2.03223 22.355 2.48744 22.355 3.04834C22.355 3.60923 21.8987 4.06445 21.3389 4.06445C20.779 4.06445 20.3227 3.60923 20.3227 3.04834C20.3227 2.48744 20.779 2.03223 21.3389 2.03223ZM14.2261 8.1289C14.2261 8.0029 14.2037 7.88199 14.1885 7.76005L19.2284 5.24009C19.7771 5.76746 20.5189 6.09668 21.3389 6.09668C21.9627 6.09668 22.5429 5.90666 23.0266 5.58354L29.3357 10.3156L24.7672 14.5792C24.3476 14.3607 23.8771 14.2256 23.3711 14.2256C21.9953 14.2256 20.843 15.1472 20.465 16.4011L13.3278 16.7577L12.5556 10.8328C13.5422 10.3278 14.2261 9.31166 14.2261 8.1289ZM11.1777 7.11279C11.7376 7.11279 12.1938 7.56801 12.1938 8.1289C12.1938 8.6898 11.7376 9.14501 11.1777 9.14501C10.6178 9.14501 10.1616 8.6898 10.1616 8.1289C10.1616 7.56801 10.6178 7.11279 11.1777 7.11279ZM10.184 10.9974C10.3018 11.038 10.4177 11.0817 10.5406 11.1081L11.2905 16.8604L5.86549 17.1317C5.80148 16.9762 5.71917 16.8309 5.63077 16.6886L10.184 10.9974ZM3.04883 17.2739C3.6087 17.2739 4.06494 17.7291 4.06494 18.29C4.06494 18.8509 3.6087 19.3061 3.04883 19.3061C2.48895 19.3061 2.03271 18.8509 2.03271 18.29C2.03271 17.7291 2.48895 17.2739 3.04883 17.2739ZM3.04883 31.4995C2.48895 31.4995 2.03271 31.0443 2.03271 30.4834C2.03271 29.9225 2.48895 29.4673 3.04883 29.4673C3.6087 29.4673 4.06494 29.9225 4.06494 30.4834C4.06494 31.0443 3.6087 31.4995 3.04883 31.4995ZM11.5943 31.0046L6.04839 29.9967C5.86854 28.8901 5.09629 27.9898 4.06494 27.622V21.1504C4.97233 20.8262 5.67548 20.0896 5.95491 19.1619L11.5557 18.8814L12.9722 29.7437C12.3889 30.0089 11.9124 30.4529 11.5943 31.0046ZM14.2261 33.5317C13.6662 33.5317 13.21 33.0765 13.21 32.5156C13.21 31.9547 13.6662 31.4995 14.2261 31.4995C14.7859 31.4995 15.2422 31.9547 15.2422 32.5156C15.2422 33.0765 14.7859 33.5317 14.2261 33.5317ZM18.2905 43.6928C17.7306 43.6928 17.2744 43.2376 17.2744 42.6767C17.2744 42.1158 17.7306 41.6606 18.2905 41.6606C18.8504 41.6606 19.3066 42.1158 19.3066 42.6767C19.3066 43.2376 18.8504 43.6928 18.2905 43.6928ZM30.0408 44.9762L21.3206 42.4847C21.2179 40.8945 19.9061 39.6284 18.2905 39.6284C18.2499 39.6284 18.2113 39.6386 18.1706 39.6406L16.2319 34.7927C16.3731 34.6677 16.5011 34.5316 16.618 34.3832L28.8865 38.4731L30.6983 44.3096C30.4473 44.4986 30.2237 44.7212 30.0408 44.9762ZM32.5161 60.9668C31.9562 60.9668 31.5 60.5115 31.5 59.9506C31.5 59.3898 31.9562 58.9345 32.5161 58.9345C33.076 58.9345 33.5322 59.3898 33.5322 59.9506C33.5322 60.5115 33.076 60.9668 32.5161 60.9668ZM32.5161 47.7573C31.9562 47.7573 31.5 47.3021 31.5 46.7412C31.5 46.1803 31.9562 45.7251 32.5161 45.7251C33.076 45.7251 33.5322 46.1803 33.5322 46.7412C33.5322 47.3021 33.076 47.7573 32.5161 47.7573ZM32.5506 43.4246L31.2592 39.2646L33.6694 40.0684L32.5506 43.4246ZM34.3126 38.1398L30.5184 36.8747L27.401 26.8294L30.0937 25.4333L34.8542 30.1938C34.6631 30.5911 34.5483 31.03 34.5483 31.4995C34.5483 32.4729 35.0157 33.3326 35.729 33.8904L34.3126 38.1398ZM47.7578 60.9668C47.1979 60.9668 46.7417 60.5115 46.7417 59.9506C46.7417 59.3898 47.1979 58.9345 47.7578 58.9345C48.3177 58.9345 48.7739 59.3898 48.7739 59.9506C48.7739 60.5115 48.3177 60.9668 47.7578 60.9668ZM47.7578 44.709C47.1979 44.709 46.7417 44.2537 46.7417 43.6928C46.7417 43.132 47.1979 42.6767 47.7578 42.6767C48.3177 42.6767 48.7739 43.132 48.7739 43.6928C48.7739 44.2537 48.3177 44.709 47.7578 44.709ZM49.3043 41.0794C48.8491 40.8101 48.3248 40.6445 47.7578 40.6445C46.7843 40.6445 45.9247 41.1119 45.3669 41.8252L36.2401 38.783L37.6536 34.5417C38.8546 34.5194 39.8819 33.8 40.3574 32.7706L57.0075 34.2836C57.0339 34.3853 57.0644 34.4848 57.1009 34.5824L49.3043 41.0794ZM51.4331 25.1092L57.927 21.567C58.2187 21.8291 58.5591 22.0324 58.936 22.1665V30.6703C58.7491 30.7374 58.5723 30.8197 58.4046 30.9193L51.4331 25.1092ZM59.9511 34.5478C59.3913 34.5478 58.935 34.0926 58.935 33.5317C58.935 32.9708 59.3913 32.5156 59.9511 32.5156C60.511 32.5156 60.9673 32.9708 60.9673 33.5317C60.9673 34.0926 60.511 34.5478 59.9511 34.5478ZM59.9511 20.3223C59.3913 20.3223 58.935 19.867 58.935 19.3061C58.935 18.7452 59.3913 18.29 59.9511 18.29C60.511 18.29 60.9673 18.7452 60.9673 19.3061C60.9673 19.867 60.511 20.3223 59.9511 20.3223Z" fill="#434343"/>
</svg>
