<svg viewBox="0 0 50 50" fill="none" xmlns="http://www.w3.org/2000/svg">
<g clip-path="url(#clip0)">
<path d="M33.3202 12.971C33.8994 11.2533 35.4147 9.97196 37.2607 9.72664L37.4229 9.34682C38.0747 7.821 37.7328 6.05215 36.5594 4.87908L36.3556 4.67528C35.1173 3.43732 33.1815 3.235 31.714 4.19016C30.7575 3.65148 29.7459 3.23211 28.6953 2.93796C28.3328 1.22528 26.8211 0 25.0705 0H24.9305C23.1799 0 21.6682 1.22528 21.3057 2.93796C20.2551 3.23211 19.2427 3.65148 18.287 4.19016C16.8196 3.23503 14.8838 3.43748 13.6457 4.67557L13.436 4.88525C12.2668 6.05454 11.9209 7.81495 12.561 9.33969L12.7202 9.71916C14.571 9.96606 16.0575 11.3112 16.6525 13.047L16.9356 12.4275C18.38 9.28719 21.5451 7.25806 25.0001 7.25806C28.4244 7.25806 31.5785 9.2612 33.0347 12.363L33.3202 12.971Z" fill="#FFD503"/>
<path d="M11.8164 25.8789L9.17969 24.5605L6.10352 37.0117L8.44727 37.5L11.8164 25.8789Z" fill="#FFD503"/>
<path d="M31.6224 21.9938L28.2249 21.1436V20.7573C29.728 19.7083 30.6451 17.9753 30.6451 16.1293V14.7195C30.6451 11.5867 28.1903 8.96491 25.1732 8.87356C23.6272 8.82434 22.1742 9.39216 21.0693 10.4648C19.9635 11.5374 19.3548 12.9759 19.3548 14.5164V16.1293C19.3548 17.9753 20.2711 19.7075 21.7741 20.7565V21.1436L18.3774 21.9938C16.579 22.4431 15.3225 24.052 15.3225 25.9059V27.3302L17.5725 26.8301C18.2211 26.6856 18.8838 26.6131 19.5473 26.6131C20.4884 26.6131 21.4241 26.7592 22.3199 27.0455L26.0119 28.226C26.4104 28.226 26.8074 28.2816 27.1901 28.3914L32.258 29.8389H33.0644L34.6773 28.9896V25.9059C34.6773 24.052 33.4208 22.4431 31.6224 21.9938Z" fill="#FFD503"/>
<path d="M38.7695 37.207V26.8555L41.3086 26.3672V37.207H38.7695Z" fill="#FFD503"/>
<path d="M50 20.9679H48.1878L45.4869 22.389C45.1829 22.2213 44.8667 22.0791 44.5257 21.9937L41.1282 21.1435V20.7572C42.6313 19.7082 43.5484 17.9752 43.5484 16.1292V14.7195C43.5484 11.5866 41.0936 8.96486 38.0765 8.8735C36.5329 8.82822 35.0775 9.3921 33.9726 10.4647C32.8668 11.5374 32.2581 12.9759 32.2581 14.5163V16.1292C32.2581 17.9752 33.1744 19.7074 34.6774 20.7565V21.1435L31.4516 21.9512L31.6225 21.9937C32.3695 22.18 33.0145 22.5745 33.5225 23.0955L35.3172 22.6471C35.8891 22.5043 36.2903 21.9904 36.2903 21.4009V20.3149C36.2903 20.0272 36.1369 19.7613 35.8879 19.6173C34.6436 18.8978 33.871 17.5606 33.871 16.1292V14.5163C33.871 13.4165 34.3057 12.3879 35.096 11.6221C35.8855 10.8566 36.933 10.4439 38.0281 10.4864C40.1824 10.551 41.9355 12.4502 41.9355 14.7195V16.1292C41.9355 17.5606 41.1621 18.8978 39.917 19.6188C39.6675 19.7631 39.514 20.0295 39.5143 20.3177L39.5157 21.4034C39.5164 21.9916 39.917 22.504 40.4877 22.6465L43.546 23.4105L32.8653 29.0324H32.3711L27.4131 27.6156C27.0232 27.505 26.6208 27.4597 26.2168 27.4443L22.5661 26.2776C20.9024 25.7444 19.1016 25.6649 17.3986 26.0421L12.8079 27.0624L12.8733 26.834L12.9032 25.3435L8.65006 22.8624L9.44789 22.663C10.0567 22.5108 10.4839 21.9637 10.4839 21.3362V20.3149C10.4839 20.0272 10.3305 19.7613 10.0814 19.6173C8.8371 18.8978 8.06452 17.5606 8.06452 16.1292V14.5163C8.06452 13.4165 8.49924 12.3879 9.28955 11.6221C10.0791 10.8566 11.1289 10.4439 12.2216 10.4864C14.3759 10.551 16.129 12.4502 16.129 14.7195V16.1292C16.129 17.5606 15.3557 18.8978 14.1105 19.6188C13.861 19.7631 13.7075 20.0295 13.7079 20.3177L13.7091 21.3387C13.7099 21.9649 14.1364 22.5105 14.744 22.6623L16.4775 23.0955C16.9863 22.5745 17.6305 22.18 18.3775 21.9937L18.5484 21.9512L15.3218 21.1435V20.7572C16.8248 19.7082 17.7419 17.9752 17.7419 16.1292V14.7195C17.7419 11.5866 15.2871 8.96486 12.27 8.8735C10.7256 8.82822 9.27104 9.3921 8.16611 10.4647C7.06039 11.5374 6.45161 12.9759 6.45161 14.5163V16.1292C6.45161 17.9752 7.36793 19.7074 8.87097 20.7565V21.1435L6.6548 21.6976L2.6379 19.355H0V36.0656L7.93378 38.7098H9.47896L9.67191 38.0341L12.1039 39.4939C12.1436 40.8162 13.2041 41.8801 14.5252 41.9266C14.5717 43.2422 15.6289 44.2995 16.9445 44.346C16.991 45.6616 18.0483 46.7188 19.3639 46.7653C19.4119 48.1116 20.5145 49.1937 21.8718 49.1937C22.3759 49.1937 22.8701 49.0366 23.2855 48.7566L23.9998 49.3875C24.4475 49.7816 25.024 50.0002 25.6226 50.0002H25.7718C27.1138 50.0002 28.2057 48.9153 28.2227 47.5777C29.5501 47.5607 30.6251 46.4857 30.642 45.1583C31.9702 45.1414 33.046 44.0648 33.0614 42.7366C34.4018 42.7051 35.4839 41.61 35.4839 40.2621C35.4839 40.181 35.4799 40.1011 35.4717 40.0203L50 32.7568V20.9679ZM1.6129 20.9679H2.20081L8.00072 24.3508L5.07419 36.0566L1.6129 34.9024V20.9679ZM8.19525 37.0969L6.60794 36.5681L9.451 25.1971L11.2903 26.2697V26.5001L8.26298 37.0969H8.19525ZM13.7097 39.4186C13.7097 39.1808 13.8058 38.9477 13.9743 38.7792L15.3919 37.3616C15.5604 37.193 15.7935 37.0969 16.0314 37.0969C16.5299 37.0969 16.9355 37.5025 16.9355 38.0011C16.9355 38.2389 16.8394 38.472 16.6709 38.6405L15.2533 40.0581C15.0847 40.2267 14.8516 40.3227 14.6138 40.3227C14.1153 40.3227 13.7097 39.9172 13.7097 39.4186ZM16.129 41.838C16.129 41.6002 16.2251 41.367 16.3936 41.1985L17.8112 39.7809C17.9798 39.6124 18.2129 39.5163 18.4507 39.5163C18.9493 39.5163 19.3548 39.9219 19.3548 40.4204C19.3548 40.6582 19.2588 40.8914 19.0902 41.0599L17.6726 42.4775C17.5041 42.646 17.271 42.7421 17.0331 42.7421C16.5346 42.7421 16.129 42.3365 16.129 41.838ZM18.5484 44.2574C18.5484 44.0195 18.6445 43.7864 18.813 43.6179L20.2306 42.2003C20.3991 42.0317 20.6322 41.9357 20.8701 41.9357C21.3686 41.9357 21.7742 42.3412 21.7742 42.8398C21.7742 43.0776 21.6781 43.3107 21.5096 43.4793L20.092 44.8968C19.9234 45.0654 19.6903 45.1615 19.4525 45.1615C18.954 45.1615 18.5484 44.7559 18.5484 44.2574ZM21.8718 47.5808C21.3733 47.5808 20.9677 47.1752 20.9677 46.6767C20.9677 46.4389 21.0638 46.2057 21.2324 46.0372L22.6499 44.6196C22.8185 44.4511 23.0516 44.355 23.2894 44.355C23.788 44.355 24.1935 44.7606 24.1935 45.2591C24.1935 45.497 24.0975 45.7301 23.9289 45.8986L22.5113 47.3162C22.3428 47.4847 22.1097 47.5808 21.8718 47.5808ZM25.7718 48.3873H25.6226C25.417 48.3873 25.2201 48.3124 25.0669 48.1766L24.4637 47.6446L25.0693 47.039C25.2855 46.8228 25.4532 46.5657 25.5773 46.2896L26.3105 46.9C26.5023 47.0598 26.6129 47.2953 26.6129 47.5462C26.6129 48.01 26.2357 48.3873 25.7718 48.3873ZM33.0039 41.1292H32.8645C32.6621 41.1292 32.4644 41.0575 32.3096 40.9276L28.5561 37.7997C28.2138 37.5144 27.7051 37.5606 27.4198 37.9029C27.1345 38.2452 27.1807 38.7541 27.5231 39.0394L31.15 42.0613C31.341 42.2211 31.4516 42.4566 31.4516 42.7075C31.4516 43.1713 31.0744 43.5486 30.6105 43.5486H30.4345C30.2388 43.5486 30.0474 43.4793 29.8966 43.3532L26.136 40.2198C25.7937 39.9345 25.285 39.9808 24.9997 40.323C24.7143 40.6654 24.7606 41.1743 25.103 41.4596L28.7298 44.4818C28.9216 44.6405 29.0323 44.876 29.0323 45.1268C29.0323 45.5907 28.655 45.9679 28.1912 45.9679C27.8816 45.9679 27.58 45.858 27.3426 45.6608L25.5426 44.1605C25.1461 43.3501 24.3314 42.785 23.3773 42.7512C23.3308 41.4356 22.2735 40.3783 20.9579 40.3318C20.9114 39.0162 19.8541 37.9589 18.5385 37.9125C18.4913 36.5661 17.3887 35.484 16.0314 35.484C15.3687 35.484 14.7201 35.7526 14.2515 36.2212L12.8339 37.6388C12.7493 37.7234 12.6792 37.8195 12.6079 37.9148L10.1307 36.4283L12.3023 28.8277L17.7467 27.6172C19.1749 27.2978 20.6807 27.3672 22.0735 27.8129L23.2615 28.1929L19.2339 30.2067C18.3137 30.6678 17.7419 31.5935 17.7419 32.6229V32.7823C17.7419 34.272 18.954 35.484 20.4436 35.484C20.9331 35.484 21.4147 35.3509 21.8333 35.0985L24.8362 33.2978C25.4395 32.9363 26.2491 33.0155 26.77 33.4841L33.5839 39.6163C33.7662 39.7817 33.871 40.0164 33.871 40.2621C33.871 40.7405 33.4823 41.1292 33.0039 41.1292ZM48.3871 31.7597L34.8007 38.5535C34.7566 38.5067 34.7105 38.4622 34.6621 38.4188L27.8494 32.2866C27.2524 31.7479 26.4806 31.4518 25.6765 31.4518C25.0886 31.4518 24.5113 31.6117 24.0057 31.9149L21.0016 33.7164C20.8331 33.818 20.6405 33.8711 20.4436 33.8711C19.8427 33.8711 19.3548 33.3833 19.3548 32.7823V32.6229C19.3548 32.2074 19.5856 31.8349 19.9565 31.6495L24.455 29.4002C25.2248 29.0147 26.1388 28.9285 26.9685 29.1671L32.0364 30.6146L33.2638 30.6453L48.3871 22.6856V31.7597Z" fill="#404040"/>
<path d="M37.3047 37.8906V27.5391L38.7695 27.0508V37.8906H37.3047Z" fill="#404040"/>
<path d="M40.918 36.7188V26.3672L42.3828 25.8789V36.7188H40.918Z" fill="#404040"/>
</g>
<defs>
<clipPath id="clip0">
<rect width="50" height="50" fill="white"/>
</clipPath>
</defs>
</svg>
