<svg viewBox="0 0 50 50" fill="none" xmlns="http://www.w3.org/2000/svg">
<g opacity="0.85" clip-path="url(#clip0)">
<path d="M18 13.5002L10 1.00024H9L5.5 2.50024L15 16.5002L18 13.5002Z" fill="#FFD503"/>
<path d="M49.4959 40.4256L37.1131 32.2454L36.1991 32.651L33.6085 35.4418L47.9708 44.3847L49.4959 40.4256Z" fill="#FFD503"/>
<path d="M48.688 38.5725L38.5678 31.8235C37.2835 30.9739 35.562 31.2535 34.6125 32.4659L31.6646 36.2561C31.2858 36.7557 30.5971 36.9006 30.049 36.5961L29.4883 36.287C27.6294 35.2738 25.3164 34.0123 20.6563 29.3505C15.9961 24.6887 14.7322 22.374 13.7189 20.5185L13.4115 19.9578C13.1028 19.4098 13.245 18.7182 13.7447 18.3363L17.5324 15.3893C18.7444 14.4398 19.0243 12.7187 18.1757 11.434L11.4267 1.31387C10.557 0.00566924 8.81214 -0.387046 7.46575 0.422307L3.23386 2.96441C1.90418 3.74613 0.92864 5.01215 0.511807 6.49719C-1.01209 12.0497 0.134322 21.6324 14.2506 35.7504C25.4798 46.9787 33.8394 49.9982 39.5852 49.9982C40.9076 50.0039 42.2248 49.8319 43.5013 49.4867C44.9866 49.0704 46.2529 48.0947 47.0341 46.7646L49.5787 42.5353C50.3893 41.1886 49.9967 39.4427 48.688 38.5725ZM48.143 41.6803L45.6042 45.9122C45.0433 46.8722 44.1326 47.5781 43.0629 47.882C37.937 49.2893 28.9817 48.1236 15.4295 34.5714C1.87733 21.0192 0.711777 12.0647 2.11909 6.93804C2.42334 5.8671 3.13007 4.95523 4.09126 4.3934L8.32315 1.85461C8.90734 1.5031 9.66465 1.67349 10.042 2.24118L13.7082 7.74534L16.7853 12.3605C17.1538 12.9177 17.0327 13.6646 16.507 14.0769L12.7184 17.0239C11.5654 17.9056 11.2362 19.5007 11.946 20.7667L12.2469 21.3133C13.3118 23.2664 14.6357 25.696 19.4691 30.5287C24.3026 35.3613 26.7315 36.6853 28.6836 37.7501L29.231 38.0517C30.4969 38.7614 32.0922 38.4323 32.9738 37.2793L35.9208 33.4907C36.3332 32.9653 37.0798 32.8443 37.6373 33.2125L47.7566 39.9615C48.3246 40.3386 48.495 41.0962 48.143 41.6803Z" fill="white"/>
<path d="M28.3317 8.33774C36.151 8.34643 42.4875 14.6831 42.4963 22.5023C42.4963 22.9625 42.8693 23.3355 43.3295 23.3355C43.7897 23.3355 44.1627 22.9625 44.1627 22.5023C44.153 13.7631 37.0709 6.68096 28.3317 6.67139C27.8715 6.67139 27.4985 7.04438 27.4985 7.50456C27.4985 7.96475 27.8715 8.33774 28.3317 8.33774Z" fill="#FFD503"/>
<path d="M28.3317 13.3373C33.3911 13.3432 37.4911 17.4432 37.4971 22.5026C37.4971 22.9628 37.8701 23.3358 38.3302 23.3358C38.7904 23.3358 39.1634 22.9628 39.1634 22.5026C39.1565 16.5232 34.311 11.6777 28.3317 11.6709C27.8715 11.6709 27.4985 12.0439 27.4985 12.5041C27.4985 12.9643 27.8715 13.3373 28.3317 13.3373Z" fill="#FFD503"/>
<path d="M28.3317 18.3363C30.6314 18.339 32.495 20.2026 32.4978 22.5024C32.4978 22.9625 32.8709 23.3355 33.331 23.3355C33.7911 23.3355 34.1642 22.9625 34.1642 22.5024C34.1604 19.2827 31.5514 16.6735 28.3317 16.6699C27.8715 16.6699 27.4985 17.0429 27.4985 17.5031C27.4985 17.9633 27.8715 18.3363 28.3317 18.3363Z" fill="#FFD503"/>
</g>
<defs>
<clipPath id="clip0">
<rect width="50" height="50" fill="white"/>
</clipPath>
</defs>
</svg>
