<svg viewBox="0 0 50 50" fill="none" xmlns="http://www.w3.org/2000/svg">
<path d="M37.5 15.625H12.5V25.7812H37.5V15.625Z" fill="#FFD503"/>
<path d="M27.1727 49.2188H22.8273L22.3391 47.2633C21.7125 47.0781 21.1078 46.8266 20.532 46.5133L18.8023 47.5508L15.7305 44.4789L16.768 42.7492C16.4547 42.1734 16.2031 41.568 16.018 40.9422L14.0625 40.4539V36.1086L16.018 35.6203C16.2031 34.9938 16.4547 34.3891 16.768 33.8133L15.7305 32.0836L18.8023 29.0117L20.532 30.0492C21.1078 29.7359 21.7133 29.4844 22.3391 29.2992L22.8273 27.3438H27.1727L27.6609 29.2992C28.2875 29.4844 28.8922 29.7359 29.468 30.0492L31.1977 29.0117L34.2695 32.0836L33.232 33.8133C33.5453 34.3891 33.7969 34.9945 33.982 35.6203L35.9375 36.1086V40.4539L33.982 40.9422C33.7969 41.5687 33.5453 42.1734 33.232 42.7492L34.2695 44.4789L31.1977 47.5508L29.468 46.5133C28.8922 46.8266 28.2867 47.0781 27.6609 47.2633L27.1727 49.2188Z" fill="#FFD503"/>
<path d="M36.7188 21.0938H13.2812C12.8498 21.0938 12.5 21.4435 12.5 21.875C12.5 22.3065 12.8498 22.6562 13.2812 22.6562H36.7188C37.1502 22.6562 37.5 22.3065 37.5 21.875C37.5 21.4435 37.1502 21.0938 36.7188 21.0938Z" fill="#404040"/>
<path d="M36.7188 24.2188H28.125C27.6935 24.2188 27.3438 24.5685 27.3438 25C27.3438 25.4315 27.6935 25.7812 28.125 25.7812H36.7188C37.1502 25.7812 37.5 25.4315 37.5 25C37.5 24.5685 37.1502 24.2188 36.7188 24.2188Z" fill="#404040"/>
<path d="M21.875 24.2188H13.2812C12.8498 24.2188 12.5 24.5685 12.5 25C12.5 25.4315 12.8498 25.7812 13.2812 25.7812H21.875C22.3065 25.7812 22.6562 25.4315 22.6562 25C22.6562 24.5685 22.3065 24.2188 21.875 24.2188Z" fill="#404040"/>
<path d="M36.7188 17.9688H28.125C27.6935 17.9688 27.3438 18.3185 27.3438 18.75C27.3438 19.1815 27.6935 19.5312 28.125 19.5312H36.7188C37.1502 19.5312 37.5 19.1815 37.5 18.75C37.5 18.3185 37.1502 17.9688 36.7188 17.9688Z" fill="#404040"/>
<path d="M21.875 17.9688H13.2812C12.8498 17.9688 12.5 18.3185 12.5 18.75C12.5 19.1815 12.8498 19.5312 13.2812 19.5312H21.875C22.3065 19.5312 22.6562 19.1815 22.6562 18.75C22.6562 18.3185 22.3065 17.9688 21.875 17.9688Z" fill="#404040"/>
<path d="M36.7188 14.8438H13.2812C12.8498 14.8438 12.5 15.1935 12.5 15.625C12.5 16.0565 12.8498 16.4062 13.2812 16.4062H36.7188C37.1502 16.4062 37.5 16.0565 37.5 15.625C37.5 15.1935 37.1502 14.8438 36.7188 14.8438Z" fill="#404040"/>
<path d="M40.625 30.4688C40.625 32.1922 39.2234 33.5938 37.5 33.5938V35.1562C40.0852 35.1562 42.1875 33.0539 42.1875 30.4688V26.4289C42.1875 25.2125 42.6609 24.0688 43.5211 23.2086L44.0734 22.6562L43.5211 22.1039C42.6609 21.2437 42.1875 20.1008 42.1875 18.8836V14.8438C42.1875 12.2586 40.0852 10.1562 37.5 10.1562V11.7188C39.2234 11.7188 40.625 13.1203 40.625 14.8438V18.8836C40.625 20.2687 41.082 21.5844 41.9258 22.6562C41.082 23.7281 40.625 25.0437 40.625 26.4289V30.4688Z" fill="#404040"/>
<path d="M9.37495 14.8438C9.37495 13.1203 10.7765 11.7188 12.5 11.7188V10.1562C9.91479 10.1562 7.81245 12.2586 7.81245 14.8438V18.8836C7.81245 20.1 7.33901 21.2437 6.47886 22.1039L5.92651 22.6562L6.47886 23.2086C7.33901 24.0688 7.81245 25.2117 7.81245 26.4289V30.4688C7.81245 33.0539 9.91479 35.1562 12.5 35.1562V33.5938C10.7765 33.5938 9.37495 32.1922 9.37495 30.4688V26.4289C9.37495 25.0437 8.91792 23.7281 8.07417 22.6562C8.91792 21.5844 9.37495 20.2687 9.37495 18.8836V14.8438Z" fill="#404040"/>
<path d="M25 35.1562C23.2766 35.1562 21.875 36.5578 21.875 38.2812C21.875 40.0047 23.2766 41.4062 25 41.4062C26.7234 41.4062 28.125 40.0047 28.125 38.2812C28.125 36.5578 26.7234 35.1562 25 35.1562ZM25 39.8438C24.1383 39.8438 23.4375 39.143 23.4375 38.2812C23.4375 37.4195 24.1383 36.7188 25 36.7188C25.8617 36.7188 26.5625 37.4195 26.5625 38.2812C26.5625 39.143 25.8617 39.8438 25 39.8438Z" fill="#404040"/>
<path d="M25.0001 32.0312C24.2247 32.0312 23.4541 32.1766 22.7353 32.4551C22.3326 32.6112 22.1927 33.0907 22.3984 33.4703C22.6039 33.8497 23.0769 33.9839 23.4853 33.8449C23.9707 33.6797 24.4835 33.5937 25.0001 33.5937C27.5853 33.5937 29.6876 35.6961 29.6876 38.2812C29.6876 38.7978 29.6017 39.3107 29.4365 39.796C29.2974 40.2044 29.4317 40.6775 29.811 40.883C30.1907 41.0887 30.6702 40.9487 30.8262 40.5461C31.1048 39.8272 31.2501 39.0566 31.2501 38.2812C31.2501 34.8352 28.4462 32.0312 25.0001 32.0312Z" fill="#404040"/>
<path d="M25 42.9688C22.4148 42.9688 20.3125 40.8665 20.3125 38.2813C20.3125 37.7647 20.3984 37.2519 20.5636 36.7666C20.7027 36.3582 20.5684 35.8851 20.1891 35.6796C19.8094 35.4739 19.3299 35.6139 19.1739 36.0165C18.8953 36.7354 18.75 37.5059 18.75 38.2813C18.75 41.7274 21.5539 44.5313 25 44.5313C25.7754 44.5313 26.546 44.386 27.2648 44.1075C27.6675 43.9514 27.8074 43.4719 27.6017 43.0923C27.3962 42.7129 26.9232 42.5787 26.5147 42.7177C26.0294 42.8829 25.5166 42.9688 25 42.9688Z" fill="#404040"/>
<path d="M46.875 0.78125H3.125C1.83281 0.78125 0.78125 1.83281 0.78125 3.125V39.0625H14.0625V37.5H2.34375V8.59375H47.6562V37.5H35.9375V39.0625H49.2188V3.125C49.2188 1.83281 48.1672 0.78125 46.875 0.78125ZM2.34375 7.03125V3.125C2.34375 2.69453 2.69453 2.34375 3.125 2.34375H46.875C47.3055 2.34375 47.6562 2.69453 47.6562 3.125V7.03125H2.34375Z" fill="#404040"/>
<path d="M3.90625 4.6875C3.90625 5.11897 4.25603 5.46875 4.6875 5.46875C5.11897 5.46875 5.46875 5.11897 5.46875 4.6875C5.46875 4.25603 5.11897 3.90625 4.6875 3.90625C4.25603 3.90625 3.90625 4.25603 3.90625 4.6875Z" fill="#404040"/>
<path d="M7.03125 4.6875C7.03125 5.11897 7.38103 5.46875 7.8125 5.46875C8.24397 5.46875 8.59375 5.11897 8.59375 4.6875C8.59375 4.25603 8.24397 3.90625 7.8125 3.90625C7.38103 3.90625 7.03125 4.25603 7.03125 4.6875Z" fill="#404040"/>
<path d="M10.1562 4.6875C10.1562 5.11897 10.506 5.46875 10.9375 5.46875C11.369 5.46875 11.7188 5.11897 11.7188 4.6875C11.7188 4.25603 11.369 3.90625 10.9375 3.90625C10.506 3.90625 10.1562 4.25603 10.1562 4.6875Z" fill="#404040"/>
</svg>
