<svg viewBox="0 0 63 63" fill="none" xmlns="http://www.w3.org/2000/svg">
<path d="M60.8216 60.5386H50.2549L50.1903 30.2971C50.1888 29.6182 49.6381 29.0691 48.9597 29.0691C48.9588 29.0691 48.9578 29.0691 48.957 29.0691C48.2772 29.0706 47.7275 29.6227 47.729 30.3024L47.7935 60.5386H44.2192L44.1875 47.0836C44.1859 46.4049 43.6353 45.8559 42.9569 45.8559C42.956 45.8559 42.955 45.8559 42.954 45.8559C42.2743 45.8575 41.7245 46.4097 41.7262 47.0894L41.7579 60.5386H38.7697V44.2521C42.2531 43.9441 44.992 41.0815 44.992 37.6056V25.6794C44.992 23.783 44.5897 21.9241 43.82 20.2074C46.2503 20.3697 48.5125 21.3585 50.2529 23.0391C52.1574 24.8781 53.2093 27.3235 53.2147 29.9261L53.2373 36.9294C53.2395 37.6078 53.79 38.1562 54.4679 38.1562C54.4692 38.1562 54.4706 38.1562 54.4719 38.1562C55.1515 38.154 55.7008 37.6013 55.6987 36.9216L55.6762 29.9196C55.6692 26.6465 54.3503 23.5742 51.9626 21.2685C50.5988 19.9516 48.9789 18.9762 47.2134 18.3844C48.4639 17.1942 49.2443 15.5146 49.2403 13.6561C49.2326 10.0703 46.313 7.15837 42.7288 7.15837C42.7241 7.15837 42.7193 7.15837 42.7148 7.15837C41.6706 7.16071 40.6323 7.4164 39.7123 7.89789C39.1101 8.21313 38.8774 8.95683 39.1927 9.55902C39.5081 10.1612 40.2519 10.3939 40.8538 10.0786C41.4329 9.77558 42.0608 9.62116 42.7202 9.61968C44.9571 9.61857 46.7743 11.428 46.7791 13.6613C46.7839 15.8946 44.9709 17.7154 42.7376 17.7202C42.6845 17.7203 42.6327 17.7249 42.5817 17.7315C42.5161 17.7343 42.4506 17.7366 42.3849 17.7403C40.6069 15.3069 38.1107 13.5417 35.2679 12.6459C36.7772 11.3217 37.7329 9.38085 37.7329 7.21978C37.7324 3.23872 34.4938 0 30.5128 0C26.5318 0 23.2931 3.23872 23.2931 7.21978C23.2931 9.48556 24.3432 11.5099 25.9813 12.8345C23.3717 13.7763 21.0847 15.4634 19.4239 17.7333C19.229 17.7245 19.0343 17.7194 18.8406 17.7194C18.7486 17.7194 18.6568 17.7208 18.5651 17.7228C18.5426 17.7216 18.5205 17.7194 18.4977 17.7194C16.2644 17.7194 14.4475 15.9025 14.4475 13.6692C14.4475 11.4359 16.2644 9.61894 18.4977 9.61894C19.1727 9.61894 19.8405 9.78801 20.4287 10.1078C21.0258 10.4323 21.7729 10.2115 22.0978 9.61439C22.4224 9.01724 22.2015 8.26998 21.6044 7.94526C20.6564 7.42982 19.5821 7.15739 18.4976 7.15739C14.9071 7.15739 11.9859 10.0785 11.9859 13.669C11.9859 15.6242 12.8534 17.3796 14.2222 18.5743C9.56941 20.3684 6.27064 24.7896 6.27064 29.9463V36.9255C6.27064 37.6052 6.82165 38.1562 7.50136 38.1562C8.18107 38.1562 8.73207 37.6052 8.73207 36.9255V29.9463C8.73207 24.8423 12.8069 20.6432 17.9783 20.2188C17.2121 21.9322 16.8113 23.7869 16.8113 25.6794V37.6056C16.8113 41.1503 19.6595 44.0573 23.2411 44.2675V60.5384H19.8884V47.0861C19.8884 46.4064 19.3374 45.8554 18.6576 45.8554C17.9779 45.8554 17.4269 46.4064 17.4269 47.0861V60.5386H14.4017V30.3121C14.4017 29.6324 13.8507 29.0814 13.171 29.0814C12.4913 29.0814 11.9403 29.6324 11.9403 30.3121V60.5386H2.17798C1.49827 60.5386 0.947266 61.0896 0.947266 61.7693C0.947266 62.449 1.49815 63 2.17798 63H60.8218C61.5015 63 62.0525 62.449 62.0525 61.7693C62.0522 61.0896 61.5013 60.5386 60.8216 60.5386ZM25.7544 7.21978C25.7544 4.59605 27.889 2.46143 30.5127 2.46143C33.1365 2.46143 35.2709 4.59605 35.2709 7.21978C35.2709 9.8435 33.1363 11.9781 30.5127 11.9781C27.8891 11.9781 25.7544 9.8435 25.7544 7.21978ZM37.5388 24.8636C36.8591 24.8636 36.3081 25.4146 36.3081 26.0943V60.5386H31.9249V43.417C31.9249 42.7373 31.3739 42.1862 30.6942 42.1862C30.0145 42.1862 29.4635 42.7373 29.4635 43.417V60.5387H25.7026V26.0943C25.7026 25.4146 25.1516 24.8636 24.4719 24.8636C23.7921 24.8636 23.2411 25.4146 23.2411 26.0943V41.8001C21.0181 41.5983 19.2726 39.7946 19.2726 37.6057V25.6795C19.2726 23.5496 19.8921 21.4764 21.064 19.6842C23.2114 16.4002 26.889 14.4396 30.9016 14.4396C34.9208 14.4396 38.6017 16.4052 40.7479 19.6978C41.914 21.4869 42.5305 23.5554 42.5305 25.6795V37.6057C42.5305 39.7261 40.8927 41.4848 38.7695 41.7764V26.0943C38.7697 25.4146 38.2185 24.8636 37.5388 24.8636Z" fill="#434343"/>
</svg>
