<svg width="63" height="63" viewBox="0 0 63 63" fill="none" xmlns="http://www.w3.org/2000/svg">
<path d="M46.5936 54.535H44.2965V47.6123H18.7028V54.535H16.4058C14.6913 54.535 13.2887 55.9376 13.2887 57.6521C13.2887 59.3666 14.6913 60.7693 16.4058 60.7693H46.5936C48.3081 60.7693 49.7107 59.3666 49.7107 57.6521C49.7107 55.9376 48.3081 54.535 46.5936 54.535ZM20.6715 49.581H42.3278V54.535H20.6715V49.581ZM46.5936 58.8005H16.4058C15.7834 58.8005 15.2575 58.2745 15.2575 57.6521C15.2575 57.0297 15.7834 56.5037 16.4058 56.5037H46.5936C47.216 56.5037 47.7419 57.0297 47.7419 57.6521C47.7419 58.2745 47.216 58.8005 46.5936 58.8005Z" fill="#434343"/>
<path d="M59.0625 2.23193H3.9375C1.77171 2.23193 0 4.00391 0 6.16943V39.6381C0 41.8038 1.77171 43.5756 3.9375 43.5756H59.0625C61.2283 43.5756 63 41.8038 63 39.6381V6.16943C63 4.00391 61.2283 2.23193 59.0625 2.23193ZM61.0313 39.6382C61.0313 40.7238 60.1484 41.6071 59.0625 41.6071H3.9375C2.85171 41.6071 1.96869 40.7239 1.96869 39.6382V6.16943C1.96869 5.08391 2.85159 4.20062 3.9375 4.20062H59.0625C60.1483 4.20062 61.0313 5.08378 61.0313 6.16943V39.6382Z" fill="#434343"/>
<path d="M30.042 19.3807H21V26.8636H30.042V31.8522L41.2662 23.1221L30.042 14.3921V19.3807ZM32.0109 19.3807V18.4175L38.0594 23.1221L32.0109 27.8266V26.8635V24.895H30.042H22.9688V21.3495H30.042H32.0109V19.3807Z" fill="#434343"/>
</svg>
