<svg viewBox="0 0 50 50" fill="none" xmlns="http://www.w3.org/2000/svg">
<g opacity="0.85">
<path d="M41 25C41 38.2548 33.6127 49 24.5 49C15.3873 49 8 38.2548 8 25C8 11.7452 15.3873 1 24.5 1C33.6127 1 41 11.7452 41 25Z" fill="#FFD503"/>
<path d="M43.6966 41.5707C47.6138 37.156 50 31.3526 50 25C50 18.3905 47.4172 12.3767 43.2138 7.90172C43.2103 7.89655 43.2052 7.89397 43.2026 7.88966C38.8241 3.23535 32.6897 0.256034 25.8664 0.0224138L25.8655 0.0215517L25.3784 0.00862069C25.2526 0.00431034 25.1267 0 25 0C24.8733 0 24.7474 0.00431034 24.6216 0.00862069L24.1362 0.0215517L24.1353 0.0224138C17.3121 0.256034 11.1776 3.23535 6.79914 7.88966C6.79569 7.89397 6.79052 7.89569 6.78793 7.90086L6.78707 7.90259C2.58276 12.3767 0 18.3905 0 25C0 31.3526 2.38621 37.156 6.30345 41.5707C6.30862 41.5784 6.30862 41.5871 6.31465 41.5948C6.33017 41.6164 6.35259 41.6267 6.36897 41.6466C10.7707 46.5672 17.0862 49.7371 24.1345 49.9784L24.1353 49.9793L24.6207 49.9922C24.7474 49.9957 24.8733 50 25 50C25.1267 50 25.2526 49.9957 25.3784 49.9914L25.8638 49.9784L25.8647 49.9776C32.9207 49.7353 39.2431 46.5595 43.6448 41.6284C43.656 41.6138 43.6741 41.6095 43.6845 41.594C43.6914 41.5871 43.6914 41.5784 43.6966 41.5707ZM1.74569 25.8621H12.0931C12.1905 29.5164 12.9043 33.0672 14.175 36.394C11.7233 37.281 9.37931 38.4707 7.18276 39.9552C3.95259 36.1129 1.94224 31.2155 1.74569 25.8621ZM7.65345 9.50259C9.79828 10.8974 12.0819 12.0147 14.4638 12.8491C13.0052 16.3897 12.1983 20.4694 12.0931 24.4004H1.74569C1.95172 18.7909 4.14828 13.4207 7.65345 9.50259ZM48.2543 24.4004H37.9069C37.8017 20.4694 36.9948 16.3897 35.5362 12.8491C37.9181 12.0147 40.2017 10.8974 42.3466 9.50259C45.8517 13.4207 48.0483 18.7909 48.2543 24.4004ZM24.1379 12.8991C21.6457 12.8284 18.8818 12.4569 16.518 11.7931C18.2654 8.20862 20.7327 4.97328 23.8206 2.27931L24.1379 12.8991ZM24.1379 14.6233V24.4004H13.4999C13.6059 20.6521 14.3921 16.7543 15.7982 13.3836C18.3896 14.1345 21.3974 14.55 24.1379 14.6233ZM25.8621 14.6233C28.6026 14.55 31.5784 14.1353 34.1706 13.3836C35.5767 16.7543 36.3629 20.6521 36.4689 24.4004H25.8621V14.6233ZM25.8621 12.8991V2.27931C28.95 4.97328 31.7025 8.20862 33.45 11.7931C31.0862 12.4569 28.3543 12.8284 25.8621 12.8991ZM34.8353 11.269C33.1793 7.79914 30.881 4.63793 28.0353 1.92845C33.0836 2.58879 37.6259 4.87155 41.1241 8.23707C39.1379 9.49741 37.031 10.5112 34.8353 11.269ZM15.1647 11.269C12.969 10.5112 10.8621 9.49741 8.87672 8.23707C12.3741 4.87155 16.9172 2.58879 21.9655 1.92845C19.119 4.63793 16.8207 7.79914 15.1647 11.269ZM13.4999 25.8621H24.1379V34.5155C21.2871 34.5914 18.1766 35.0362 15.4921 35.844C14.2792 32.6931 13.5973 29.3267 13.4999 25.8621ZM24.1379 36.2397V47.7207C20.8328 44.8371 17.924 41.3336 16.162 37.4474C18.6335 36.719 21.5181 36.3138 24.1379 36.2397ZM25.8621 47.7207V36.2397C28.4819 36.3129 31.3344 36.719 33.806 37.4466C32.0439 41.3336 29.1672 44.8371 25.8621 47.7207ZM25.8621 34.5155V25.8621H36.4681C36.3706 29.3267 35.6888 32.6931 34.475 35.8448C31.7913 35.0362 28.7129 34.5914 25.8621 34.5155ZM37.9069 25.8621H48.2543C48.0578 31.2155 46.0483 36.1129 42.8172 39.9552C40.6207 38.4707 38.2767 37.281 35.825 36.394C37.0965 33.0672 37.8095 29.5164 37.9069 25.8621ZM8.35431 41.2466C10.394 39.8914 12.5655 38.8017 14.8345 37.9871C16.5112 41.7457 18.9181 45.1707 21.9647 48.0716C16.6621 47.3776 11.9164 44.8948 8.35431 41.2466ZM28.0353 48.0716C31.0819 45.1716 33.4888 41.7466 35.1655 37.9871C37.4345 38.8017 39.6052 39.8914 41.6457 41.2466C38.0836 44.8948 33.3379 47.3776 28.0353 48.0716Z" fill="white"/>
</g>
</svg>
