<svg viewBox="0 0 63 63" fill="none" xmlns="http://www.w3.org/2000/svg">
<g clip-path="url(#clip0)">
<path d="M31.5112 0.00683627C18.9072 0.00499916 7.51604 7.51789 2.55517 19.1045L2.16255 19.2346L2.31477 19.6913C-4.21697 35.801 3.54734 54.1555 19.657 60.6872C23.4196 62.2128 27.4417 62.9959 31.5018 62.9937C48.8951 62.9963 62.9974 48.8983 63 31.505C63.0026 14.1117 48.9046 0.0093295 31.5112 0.00683627ZM56.2142 47.3787L54.597 45.7626V41.9981C54.5989 41.8356 54.5629 41.675 54.492 41.5288L50.3979 33.3521V29.4007C50.3979 29.0498 50.2227 28.722 49.9307 28.5273L46.7814 26.4277C46.5346 26.2629 46.2295 26.2103 45.9416 26.2829L42.0847 27.2466L35.6065 24.4667L34.7152 18.2226L37.1854 15.7536H42.4878L44.2724 18.4357C44.4336 18.6769 44.6875 18.8408 44.9737 18.8882L51.2724 19.938C51.4411 19.9663 51.6141 19.9525 51.7763 19.8981L57.5774 17.9644C62.443 27.3015 61.9225 38.5317 56.2142 47.3787ZM51.8844 10.3514L50.1774 11.4893L45.4188 10.5372L42.3314 9.50946C42.1424 9.44529 41.939 9.43715 41.7456 9.48636L37.8425 10.4616L36.1314 9.89158L37.3995 7.35531H40.9499C41.1127 7.35544 41.2733 7.31778 41.4191 7.24508L45.0514 5.42896C47.5527 6.73462 49.8538 8.39223 51.8844 10.3514ZM20.0036 4.45056L22.5231 6.13021C22.6469 6.21262 22.7868 6.26773 22.9335 6.29188L28.0208 7.1401L27.5242 8.62554L24.8735 9.51051C24.6361 9.5895 24.4347 9.75064 24.3056 9.96506L21.2906 14.9893L16.448 17.8951L9.30946 18.9144C8.79205 18.9875 8.4073 19.4302 8.40665 19.9527V23.102C8.40665 23.3805 8.5174 23.6474 8.71423 23.8442L10.5062 25.6362V27.4397L6.13912 24.5276L4.555 19.7753C7.56892 12.8887 13.093 7.40884 20.0036 4.45056ZM17.0149 38.8697L12.2698 37.9197L10.5062 34.4019V31.9349L14.4177 28.0234L15.8653 30.9197C16.0431 31.2756 16.407 31.5004 16.8049 31.5003H23.5592L26.403 36.24C26.5928 36.5559 26.9342 36.7491 27.3027 36.7492H30.2211L29.4863 40.4308L25.5118 44.4052C25.3146 44.6019 25.2035 44.8688 25.2031 45.1474V47.7719L21.4239 50.6063C21.1597 50.8046 21.004 51.1157 21.004 51.4461V55.2379L19.6981 54.8054L17.8547 50.1948V39.8985C17.8548 39.3996 17.5037 38.9695 17.0149 38.8697ZM13.8592 55.0076C3.96122 47.5819 -0.224655 34.7514 3.38974 22.9173L4.26211 25.5333C4.33559 25.7547 4.48073 25.9454 4.67467 26.075L9.90783 29.5634L8.71423 30.7581C8.5174 30.9549 8.40665 31.2218 8.40665 31.5003V34.6496C8.40652 34.8125 8.44418 34.9731 8.51687 35.1189L10.6164 39.318C10.7618 39.608 11.0331 39.8145 11.3513 39.8775L15.7604 40.7583V50.3963C15.7602 50.5297 15.7856 50.6619 15.8349 50.7858L17.9345 56.0347C18.0494 56.3214 18.2848 56.5431 18.578 56.6404L21.7273 57.6902C21.8326 57.7259 21.9428 57.7443 22.0538 57.7448C22.6335 57.7448 23.1036 57.2748 23.1036 56.695V51.971L26.8828 49.1366C27.1471 48.9383 27.3027 48.6272 27.3027 48.2968V45.582L31.1943 41.6905C31.3406 41.5439 31.4403 41.3572 31.4808 41.1541L32.5306 35.9052C32.6443 35.3366 32.2755 34.7836 31.7069 34.67C31.6394 34.6564 31.5707 34.6496 31.5018 34.6496H27.8969L25.053 29.9099C24.8633 29.594 24.5218 29.4008 24.1534 29.4007H17.4537L15.6501 25.7821C15.4991 25.48 15.212 25.269 14.8785 25.2152C14.5452 25.1576 14.205 25.2676 13.9684 25.5092L12.6058 26.8665V25.2016C12.6058 24.9231 12.495 24.6562 12.2982 24.4594L10.5062 22.6674V20.8628L16.954 19.9422C17.0924 19.9221 17.2256 19.8746 17.3455 19.8026L22.5944 16.6532C22.7417 16.5648 22.865 16.4414 22.9535 16.2942L25.9034 11.3781L28.6842 10.4501C28.9982 10.3471 29.2447 10.1007 29.3477 9.7866L30.3975 6.63725C30.5793 6.08678 30.2805 5.49299 29.7301 5.31112C29.6793 5.29432 29.6272 5.28146 29.5744 5.27254L23.4983 4.2595L22.4307 3.54775C29.0368 1.39753 36.1919 1.66365 42.6201 4.29834L40.7021 5.25574H36.7507C36.3509 5.25351 35.9847 5.47869 35.8059 5.83627L33.7064 10.0354C33.4477 10.5543 33.6586 11.1846 34.1775 11.4433C34.2217 11.4653 34.2674 11.4842 34.3142 11.4998L37.4635 12.5496C37.6525 12.6138 37.8559 12.6219 38.0493 12.5727L41.9524 11.5975L44.812 12.5496C44.853 12.5643 44.8951 12.5756 44.938 12.5832L50.1869 13.633C50.4598 13.6886 50.7438 13.6327 50.9753 13.4776L53.3646 11.8841C54.5405 13.1938 55.5972 14.6058 56.5223 16.1031L51.3574 17.8248L45.7652 16.8926L43.9176 14.1211C43.7239 13.8308 43.3985 13.6557 43.0494 13.654H36.7507C36.4723 13.654 36.2054 13.7647 36.0085 13.9616L32.8592 17.1109C32.6254 17.3446 32.5153 17.6749 32.5621 18.0022L33.6119 25.3507C33.6648 25.714 33.9036 26.0233 34.2418 26.1663L41.5902 29.3157C41.8007 29.4069 42.0356 29.4256 42.2579 29.3692L46.0067 28.4318L48.2983 29.9623V33.5998C48.2965 33.7623 48.3325 33.9229 48.4033 34.0691L52.4975 42.2458V46.1972C52.4975 46.4757 52.6082 46.7426 52.805 46.9394L55.0012 49.1366C45.2615 62.1189 26.8415 64.7475 13.8592 55.0076Z" fill="#434343"/>
</g>
<defs>
<clipPath id="clip0">
<rect width="63" height="63" fill="white"/>
</clipPath>
</defs>
</svg>
